G04 #@! TF.FileFunction,Legend,Top*
%FSLAX46Y46*%
G04 Gerber Fmt 4.6, Leading zero omitted, Abs format (unit mm)*
G04 Created by KiCad (PCBNEW 4.0.4-stable) date 02/19/17 00:05:06*
%MOMM*%
%LPD*%
G01*
G04 APERTURE LIST*
%ADD10C,0.100000*%
%ADD11C,0.300000*%
%ADD12C,0.150000*%
G04 APERTURE END LIST*
D10*
D11*
X135743143Y-117718000D02*
X135743143Y-118218000D01*
X134957429Y-118432286D02*
X134957429Y-117718000D01*
X136457429Y-117718000D01*
X136457429Y-118432286D01*
X134957429Y-119718000D02*
X135743143Y-119718000D01*
X135886000Y-119646571D01*
X135957429Y-119503714D01*
X135957429Y-119218000D01*
X135886000Y-119075143D01*
X135028857Y-119718000D02*
X134957429Y-119575143D01*
X134957429Y-119218000D01*
X135028857Y-119075143D01*
X135171714Y-119003714D01*
X135314571Y-119003714D01*
X135457429Y-119075143D01*
X135528857Y-119218000D01*
X135528857Y-119575143D01*
X135600286Y-119718000D01*
X135028857Y-120360857D02*
X134957429Y-120503714D01*
X134957429Y-120789429D01*
X135028857Y-120932286D01*
X135171714Y-121003714D01*
X135243143Y-121003714D01*
X135386000Y-120932286D01*
X135457429Y-120789429D01*
X135457429Y-120575143D01*
X135528857Y-120432286D01*
X135671714Y-120360857D01*
X135743143Y-120360857D01*
X135886000Y-120432286D01*
X135957429Y-120575143D01*
X135957429Y-120789429D01*
X135886000Y-120932286D01*
X135957429Y-121503715D02*
X134957429Y-121860858D01*
X135957429Y-122218000D02*
X134957429Y-121860858D01*
X134600286Y-121718000D01*
X134528857Y-121646572D01*
X134457429Y-121503715D01*
X134957429Y-123503715D02*
X134957429Y-122789429D01*
X136457429Y-122789429D01*
X134957429Y-124646572D02*
X135743143Y-124646572D01*
X135886000Y-124575143D01*
X135957429Y-124432286D01*
X135957429Y-124146572D01*
X135886000Y-124003715D01*
X135028857Y-124646572D02*
X134957429Y-124503715D01*
X134957429Y-124146572D01*
X135028857Y-124003715D01*
X135171714Y-123932286D01*
X135314571Y-123932286D01*
X135457429Y-124003715D01*
X135528857Y-124146572D01*
X135528857Y-124503715D01*
X135600286Y-124646572D01*
X134957429Y-125360858D02*
X136457429Y-125360858D01*
X135886000Y-125360858D02*
X135957429Y-125503715D01*
X135957429Y-125789429D01*
X135886000Y-125932286D01*
X135814571Y-126003715D01*
X135671714Y-126075144D01*
X135243143Y-126075144D01*
X135100286Y-126003715D01*
X135028857Y-125932286D01*
X134957429Y-125789429D01*
X134957429Y-125503715D01*
X135028857Y-125360858D01*
X135957429Y-127360858D02*
X134957429Y-127360858D01*
X136528857Y-127003715D02*
X135457429Y-126646572D01*
X135457429Y-127575144D01*
X134957429Y-128146572D02*
X136457429Y-128146572D01*
X134957429Y-129003715D02*
X135814571Y-128360858D01*
X136457429Y-129003715D02*
X135600286Y-128146572D01*
X134957429Y-129646572D02*
X135957429Y-129646572D01*
X136457429Y-129646572D02*
X136386000Y-129575143D01*
X136314571Y-129646572D01*
X136386000Y-129718000D01*
X136457429Y-129646572D01*
X136314571Y-129646572D01*
X134957429Y-131003715D02*
X136457429Y-131003715D01*
X135028857Y-131003715D02*
X134957429Y-130860858D01*
X134957429Y-130575144D01*
X135028857Y-130432286D01*
X135100286Y-130360858D01*
X135243143Y-130289429D01*
X135671714Y-130289429D01*
X135814571Y-130360858D01*
X135886000Y-130432286D01*
X135957429Y-130575144D01*
X135957429Y-130860858D01*
X135886000Y-131003715D01*
X135028857Y-131646572D02*
X134957429Y-131789429D01*
X134957429Y-132075144D01*
X135028857Y-132218001D01*
X135171714Y-132289429D01*
X135243143Y-132289429D01*
X135386000Y-132218001D01*
X135457429Y-132075144D01*
X135457429Y-131860858D01*
X135528857Y-131718001D01*
X135671714Y-131646572D01*
X135743143Y-131646572D01*
X135886000Y-131718001D01*
X135957429Y-131860858D01*
X135957429Y-132075144D01*
X135886000Y-132218001D01*
D12*
X145004000Y-99542000D02*
X145004000Y-101092000D01*
X146304000Y-99542000D02*
X145004000Y-99542000D01*
X150495000Y-100965000D02*
X156337000Y-100965000D01*
X156337000Y-100965000D02*
X156337000Y-101219000D01*
X156337000Y-101219000D02*
X150495000Y-101219000D01*
X150495000Y-101219000D02*
X150495000Y-101092000D01*
X150495000Y-101092000D02*
X156337000Y-101092000D01*
X147828000Y-100838000D02*
X147447000Y-100838000D01*
X147828000Y-101346000D02*
X147447000Y-101346000D01*
X147828000Y-103378000D02*
X147447000Y-103378000D01*
X147828000Y-103886000D02*
X147447000Y-103886000D01*
X147828000Y-105918000D02*
X147447000Y-105918000D01*
X147828000Y-106426000D02*
X147447000Y-106426000D01*
X147828000Y-108966000D02*
X147447000Y-108966000D01*
X147828000Y-108458000D02*
X147447000Y-108458000D01*
X147828000Y-99822000D02*
X150368000Y-99822000D01*
X147828000Y-102362000D02*
X150368000Y-102362000D01*
X147828000Y-102362000D02*
X147828000Y-104902000D01*
X147828000Y-104902000D02*
X150368000Y-104902000D01*
X150368000Y-103378000D02*
X156464000Y-103378000D01*
X156464000Y-103378000D02*
X156464000Y-103886000D01*
X156464000Y-103886000D02*
X150368000Y-103886000D01*
X150368000Y-104902000D02*
X150368000Y-102362000D01*
X150368000Y-102362000D02*
X150368000Y-99822000D01*
X156464000Y-101346000D02*
X150368000Y-101346000D01*
X156464000Y-100838000D02*
X156464000Y-101346000D01*
X150368000Y-100838000D02*
X156464000Y-100838000D01*
X147828000Y-102362000D02*
X150368000Y-102362000D01*
X147828000Y-99822000D02*
X147828000Y-102362000D01*
X147828000Y-107442000D02*
X150368000Y-107442000D01*
X147828000Y-107442000D02*
X147828000Y-109982000D01*
X147828000Y-109982000D02*
X150368000Y-109982000D01*
X150368000Y-108458000D02*
X156464000Y-108458000D01*
X156464000Y-108458000D02*
X156464000Y-108966000D01*
X156464000Y-108966000D02*
X150368000Y-108966000D01*
X150368000Y-109982000D02*
X150368000Y-107442000D01*
X150368000Y-107442000D02*
X150368000Y-104902000D01*
X156464000Y-106426000D02*
X150368000Y-106426000D01*
X156464000Y-105918000D02*
X156464000Y-106426000D01*
X150368000Y-105918000D02*
X156464000Y-105918000D01*
X147828000Y-107442000D02*
X150368000Y-107442000D01*
X147828000Y-104902000D02*
X147828000Y-107442000D01*
X147828000Y-104902000D02*
X150368000Y-104902000D01*
X132488940Y-124460000D02*
X133489700Y-124460000D01*
X132588000Y-124460000D02*
G75*
G03X132588000Y-124460000I-2499360J0D01*
G01*
X131980940Y-114300000D02*
X132981700Y-114300000D01*
X132080000Y-114300000D02*
G75*
G03X132080000Y-114300000I-2499360J0D01*
G01*
X146073905Y-112212381D02*
X146073905Y-111212381D01*
X146454858Y-111212381D01*
X146550096Y-111260000D01*
X146597715Y-111307619D01*
X146645334Y-111402857D01*
X146645334Y-111545714D01*
X146597715Y-111640952D01*
X146550096Y-111688571D01*
X146454858Y-111736190D01*
X146073905Y-111736190D01*
X147550096Y-111212381D02*
X147073905Y-111212381D01*
X147026286Y-111688571D01*
X147073905Y-111640952D01*
X147169143Y-111593333D01*
X147407239Y-111593333D01*
X147502477Y-111640952D01*
X147550096Y-111688571D01*
X147597715Y-111783810D01*
X147597715Y-112021905D01*
X147550096Y-112117143D01*
X147502477Y-112164762D01*
X147407239Y-112212381D01*
X147169143Y-112212381D01*
X147073905Y-112164762D01*
X147026286Y-112117143D01*
X135121354Y-121612921D02*
X134788020Y-121136730D01*
X134549925Y-121612921D02*
X134549925Y-120612921D01*
X134930878Y-120612921D01*
X135026116Y-120660540D01*
X135073735Y-120708159D01*
X135121354Y-120803397D01*
X135121354Y-120946254D01*
X135073735Y-121041492D01*
X135026116Y-121089111D01*
X134930878Y-121136730D01*
X134549925Y-121136730D01*
X136073735Y-121612921D02*
X135502306Y-121612921D01*
X135788020Y-121612921D02*
X135788020Y-120612921D01*
X135692782Y-120755778D01*
X135597544Y-120851016D01*
X135502306Y-120898635D01*
X134613354Y-111452921D02*
X134280020Y-110976730D01*
X134041925Y-111452921D02*
X134041925Y-110452921D01*
X134422878Y-110452921D01*
X134518116Y-110500540D01*
X134565735Y-110548159D01*
X134613354Y-110643397D01*
X134613354Y-110786254D01*
X134565735Y-110881492D01*
X134518116Y-110929111D01*
X134422878Y-110976730D01*
X134041925Y-110976730D01*
X134994306Y-110548159D02*
X135041925Y-110500540D01*
X135137163Y-110452921D01*
X135375259Y-110452921D01*
X135470497Y-110500540D01*
X135518116Y-110548159D01*
X135565735Y-110643397D01*
X135565735Y-110738635D01*
X135518116Y-110881492D01*
X134946687Y-111452921D01*
X135565735Y-111452921D01*
M02*
