G04 #@! TF.FileFunction,Copper,L1,Top,Signal*
%FSLAX46Y46*%
G04 Gerber Fmt 4.6, Leading zero omitted, Abs format (unit mm)*
G04 Created by KiCad (PCBNEW 4.0.4-stable) date 02/19/17 00:05:06*
%MOMM*%
%LPD*%
G01*
G04 APERTURE LIST*
%ADD10C,0.100000*%
%ADD11C,5.000000*%
%ADD12R,8.000000X5.000000*%
%ADD13R,2.032000X1.727200*%
%ADD14O,2.032000X1.727200*%
%ADD15C,1.998980*%
%ADD16C,1.250000*%
%ADD17C,0.254000*%
G04 APERTURE END LIST*
D10*
D11*
X120396000Y-102108000D03*
D12*
X116396000Y-102108000D03*
D11*
X120650000Y-114300000D03*
D12*
X116650000Y-114300000D03*
D11*
X120396000Y-124460000D03*
D12*
X116396000Y-124460000D03*
D11*
X120396000Y-134620000D03*
D12*
X116396000Y-134620000D03*
D13*
X146304000Y-101092000D03*
D14*
X146304000Y-103632000D03*
X146304000Y-106172000D03*
X146304000Y-108712000D03*
D15*
X130088640Y-124460000D03*
X135089900Y-124460000D03*
X129580640Y-114300000D03*
X134581900Y-114300000D03*
D16*
X146304000Y-101092000D02*
X129540000Y-101092000D01*
X128524000Y-102108000D02*
X120396000Y-102108000D01*
X129540000Y-101092000D02*
X128524000Y-102108000D01*
X146304000Y-103632000D02*
X138684000Y-103632000D01*
X134581900Y-107734100D02*
X134581900Y-114300000D01*
X138684000Y-103632000D02*
X134581900Y-107734100D01*
X120650000Y-114300000D02*
X129580640Y-114300000D01*
X135089900Y-124460000D02*
X135089900Y-120434100D01*
X140716000Y-106172000D02*
X146304000Y-106172000D01*
X137668000Y-109220000D02*
X140716000Y-106172000D01*
X137668000Y-117856000D02*
X137668000Y-109220000D01*
X135089900Y-120434100D02*
X137668000Y-117856000D01*
X120396000Y-124460000D02*
X130088640Y-124460000D01*
X146304000Y-108712000D02*
X143764000Y-108712000D01*
X135128000Y-134620000D02*
X120396000Y-134620000D01*
X141224000Y-128524000D02*
X135128000Y-134620000D01*
X141224000Y-111252000D02*
X141224000Y-128524000D01*
X143764000Y-108712000D02*
X141224000Y-111252000D01*
D17*
G36*
X150674000Y-97830091D02*
X150674000Y-133817908D01*
X142961908Y-141530000D01*
X113578091Y-141530000D01*
X111454000Y-139405908D01*
X111454000Y-121960000D01*
X111748560Y-121960000D01*
X111748560Y-126960000D01*
X111792838Y-127195317D01*
X111931910Y-127411441D01*
X112144110Y-127556431D01*
X112396000Y-127607440D01*
X120396000Y-127607440D01*
X120461803Y-127595058D01*
X121016854Y-127595543D01*
X122169515Y-127119273D01*
X123052174Y-126238153D01*
X123267330Y-125720000D01*
X129036939Y-125720000D01*
X129161567Y-125844846D01*
X129762093Y-126094206D01*
X130412334Y-126094774D01*
X131013295Y-125846462D01*
X131473486Y-125387073D01*
X131722846Y-124786547D01*
X131723414Y-124136306D01*
X131475102Y-123535345D01*
X131015713Y-123075154D01*
X130415187Y-122825794D01*
X129764946Y-122825226D01*
X129163985Y-123073538D01*
X129037302Y-123200000D01*
X123267453Y-123200000D01*
X123055273Y-122686485D01*
X122174153Y-121803826D01*
X121022326Y-121325546D01*
X120457692Y-121325053D01*
X120396000Y-121312560D01*
X112396000Y-121312560D01*
X112160683Y-121356838D01*
X111944559Y-121495910D01*
X111799569Y-121708110D01*
X111748560Y-121960000D01*
X111454000Y-121960000D01*
X111454000Y-111800000D01*
X112002560Y-111800000D01*
X112002560Y-116800000D01*
X112046838Y-117035317D01*
X112185910Y-117251441D01*
X112398110Y-117396431D01*
X112650000Y-117447440D01*
X120650000Y-117447440D01*
X120715803Y-117435058D01*
X121270854Y-117435543D01*
X122423515Y-116959273D01*
X123306174Y-116078153D01*
X123521330Y-115560000D01*
X128528939Y-115560000D01*
X128653567Y-115684846D01*
X129254093Y-115934206D01*
X129904334Y-115934774D01*
X130505295Y-115686462D01*
X130965486Y-115227073D01*
X131214846Y-114626547D01*
X131215414Y-113976306D01*
X130967102Y-113375345D01*
X130507713Y-112915154D01*
X129907187Y-112665794D01*
X129256946Y-112665226D01*
X128655985Y-112913538D01*
X128529302Y-113040000D01*
X123521453Y-113040000D01*
X123309273Y-112526485D01*
X122428153Y-111643826D01*
X121276326Y-111165546D01*
X120711692Y-111165053D01*
X120650000Y-111152560D01*
X112650000Y-111152560D01*
X112414683Y-111196838D01*
X112198559Y-111335910D01*
X112053569Y-111548110D01*
X112002560Y-111800000D01*
X111454000Y-111800000D01*
X111454000Y-99608000D01*
X111748560Y-99608000D01*
X111748560Y-104608000D01*
X111792838Y-104843317D01*
X111931910Y-105059441D01*
X112144110Y-105204431D01*
X112396000Y-105255440D01*
X120396000Y-105255440D01*
X120461803Y-105243058D01*
X121016854Y-105243543D01*
X122169515Y-104767273D01*
X123052174Y-103886153D01*
X123267330Y-103368000D01*
X128523995Y-103368000D01*
X128524000Y-103368001D01*
X129006181Y-103272088D01*
X129414955Y-102998955D01*
X130061910Y-102352000D01*
X144788492Y-102352000D01*
X144801362Y-102372000D01*
X138684000Y-102372000D01*
X138201819Y-102467912D01*
X137793045Y-102741045D01*
X137793043Y-102741048D01*
X133690945Y-106843145D01*
X133417812Y-107251919D01*
X133321899Y-107734100D01*
X133321900Y-107734105D01*
X133321900Y-113248299D01*
X133197054Y-113372927D01*
X132947694Y-113973453D01*
X132947126Y-114623694D01*
X133195438Y-115224655D01*
X133654827Y-115684846D01*
X134255353Y-115934206D01*
X134905594Y-115934774D01*
X135506555Y-115686462D01*
X135966746Y-115227073D01*
X136216106Y-114626547D01*
X136216674Y-113976306D01*
X135968362Y-113375345D01*
X135841900Y-113248662D01*
X135841900Y-108256010D01*
X139205909Y-104892000D01*
X145359400Y-104892000D01*
X145374366Y-104902000D01*
X145359400Y-104912000D01*
X140716005Y-104912000D01*
X140716000Y-104911999D01*
X140233819Y-105007912D01*
X139825045Y-105281045D01*
X136777045Y-108329045D01*
X136503912Y-108737819D01*
X136407999Y-109220000D01*
X136408000Y-109220005D01*
X136408000Y-117334090D01*
X134198945Y-119543145D01*
X133925812Y-119951919D01*
X133829899Y-120434100D01*
X133829900Y-120434105D01*
X133829900Y-123408299D01*
X133705054Y-123532927D01*
X133455694Y-124133453D01*
X133455126Y-124783694D01*
X133703438Y-125384655D01*
X134162827Y-125844846D01*
X134763353Y-126094206D01*
X135413594Y-126094774D01*
X136014555Y-125846462D01*
X136474746Y-125387073D01*
X136724106Y-124786547D01*
X136724674Y-124136306D01*
X136476362Y-123535345D01*
X136349900Y-123408662D01*
X136349900Y-120956010D01*
X138558955Y-118746955D01*
X138832088Y-118338181D01*
X138928001Y-117856000D01*
X138928000Y-117855995D01*
X138928000Y-109741910D01*
X141237910Y-107432000D01*
X145359400Y-107432000D01*
X145374366Y-107442000D01*
X145359400Y-107452000D01*
X143764000Y-107452000D01*
X143281819Y-107547912D01*
X142873045Y-107821045D01*
X142873043Y-107821048D01*
X140333045Y-110361045D01*
X140059912Y-110769819D01*
X139963999Y-111252000D01*
X139964000Y-111252005D01*
X139964000Y-128002091D01*
X134606090Y-133360000D01*
X123267453Y-133360000D01*
X123055273Y-132846485D01*
X122174153Y-131963826D01*
X121022326Y-131485546D01*
X120457692Y-131485053D01*
X120396000Y-131472560D01*
X112396000Y-131472560D01*
X112160683Y-131516838D01*
X111944559Y-131655910D01*
X111799569Y-131868110D01*
X111748560Y-132120000D01*
X111748560Y-137120000D01*
X111792838Y-137355317D01*
X111931910Y-137571441D01*
X112144110Y-137716431D01*
X112396000Y-137767440D01*
X120396000Y-137767440D01*
X120461803Y-137755058D01*
X121016854Y-137755543D01*
X122169515Y-137279273D01*
X123052174Y-136398153D01*
X123267330Y-135880000D01*
X135127995Y-135880000D01*
X135128000Y-135880001D01*
X135610181Y-135784088D01*
X136018955Y-135510955D01*
X142114952Y-129414957D01*
X142114955Y-129414955D01*
X142388088Y-129006181D01*
X142484001Y-128524000D01*
X142484000Y-128523995D01*
X142484000Y-111773910D01*
X144285909Y-109972000D01*
X145359400Y-109972000D01*
X145545766Y-110096526D01*
X146119255Y-110210600D01*
X146488745Y-110210600D01*
X147062234Y-110096526D01*
X147548415Y-109771670D01*
X147873271Y-109285489D01*
X147987345Y-108712000D01*
X147873271Y-108138511D01*
X147548415Y-107652330D01*
X147233634Y-107442000D01*
X147548415Y-107231670D01*
X147873271Y-106745489D01*
X147987345Y-106172000D01*
X147873271Y-105598511D01*
X147548415Y-105112330D01*
X147233634Y-104902000D01*
X147548415Y-104691670D01*
X147873271Y-104205489D01*
X147987345Y-103632000D01*
X147873271Y-103058511D01*
X147548415Y-102572330D01*
X147534087Y-102562757D01*
X147555317Y-102558762D01*
X147771441Y-102419690D01*
X147916431Y-102207490D01*
X147967440Y-101955600D01*
X147967440Y-100228400D01*
X147923162Y-99993083D01*
X147784090Y-99776959D01*
X147571890Y-99631969D01*
X147320000Y-99580960D01*
X145288000Y-99580960D01*
X145052683Y-99625238D01*
X144836559Y-99764310D01*
X144790308Y-99832000D01*
X129540005Y-99832000D01*
X129540000Y-99831999D01*
X129057819Y-99927912D01*
X128649045Y-100201045D01*
X128002090Y-100848000D01*
X123267453Y-100848000D01*
X123055273Y-100334485D01*
X122174153Y-99451826D01*
X121022326Y-98973546D01*
X120457692Y-98973053D01*
X120396000Y-98960560D01*
X112396000Y-98960560D01*
X112160683Y-99004838D01*
X111944559Y-99143910D01*
X111799569Y-99356110D01*
X111748560Y-99608000D01*
X111454000Y-99608000D01*
X111454000Y-98846092D01*
X113578091Y-96722000D01*
X149565908Y-96722000D01*
X150674000Y-97830091D01*
X150674000Y-97830091D01*
G37*
X150674000Y-97830091D02*
X150674000Y-133817908D01*
X142961908Y-141530000D01*
X113578091Y-141530000D01*
X111454000Y-139405908D01*
X111454000Y-121960000D01*
X111748560Y-121960000D01*
X111748560Y-126960000D01*
X111792838Y-127195317D01*
X111931910Y-127411441D01*
X112144110Y-127556431D01*
X112396000Y-127607440D01*
X120396000Y-127607440D01*
X120461803Y-127595058D01*
X121016854Y-127595543D01*
X122169515Y-127119273D01*
X123052174Y-126238153D01*
X123267330Y-125720000D01*
X129036939Y-125720000D01*
X129161567Y-125844846D01*
X129762093Y-126094206D01*
X130412334Y-126094774D01*
X131013295Y-125846462D01*
X131473486Y-125387073D01*
X131722846Y-124786547D01*
X131723414Y-124136306D01*
X131475102Y-123535345D01*
X131015713Y-123075154D01*
X130415187Y-122825794D01*
X129764946Y-122825226D01*
X129163985Y-123073538D01*
X129037302Y-123200000D01*
X123267453Y-123200000D01*
X123055273Y-122686485D01*
X122174153Y-121803826D01*
X121022326Y-121325546D01*
X120457692Y-121325053D01*
X120396000Y-121312560D01*
X112396000Y-121312560D01*
X112160683Y-121356838D01*
X111944559Y-121495910D01*
X111799569Y-121708110D01*
X111748560Y-121960000D01*
X111454000Y-121960000D01*
X111454000Y-111800000D01*
X112002560Y-111800000D01*
X112002560Y-116800000D01*
X112046838Y-117035317D01*
X112185910Y-117251441D01*
X112398110Y-117396431D01*
X112650000Y-117447440D01*
X120650000Y-117447440D01*
X120715803Y-117435058D01*
X121270854Y-117435543D01*
X122423515Y-116959273D01*
X123306174Y-116078153D01*
X123521330Y-115560000D01*
X128528939Y-115560000D01*
X128653567Y-115684846D01*
X129254093Y-115934206D01*
X129904334Y-115934774D01*
X130505295Y-115686462D01*
X130965486Y-115227073D01*
X131214846Y-114626547D01*
X131215414Y-113976306D01*
X130967102Y-113375345D01*
X130507713Y-112915154D01*
X129907187Y-112665794D01*
X129256946Y-112665226D01*
X128655985Y-112913538D01*
X128529302Y-113040000D01*
X123521453Y-113040000D01*
X123309273Y-112526485D01*
X122428153Y-111643826D01*
X121276326Y-111165546D01*
X120711692Y-111165053D01*
X120650000Y-111152560D01*
X112650000Y-111152560D01*
X112414683Y-111196838D01*
X112198559Y-111335910D01*
X112053569Y-111548110D01*
X112002560Y-111800000D01*
X111454000Y-111800000D01*
X111454000Y-99608000D01*
X111748560Y-99608000D01*
X111748560Y-104608000D01*
X111792838Y-104843317D01*
X111931910Y-105059441D01*
X112144110Y-105204431D01*
X112396000Y-105255440D01*
X120396000Y-105255440D01*
X120461803Y-105243058D01*
X121016854Y-105243543D01*
X122169515Y-104767273D01*
X123052174Y-103886153D01*
X123267330Y-103368000D01*
X128523995Y-103368000D01*
X128524000Y-103368001D01*
X129006181Y-103272088D01*
X129414955Y-102998955D01*
X130061910Y-102352000D01*
X144788492Y-102352000D01*
X144801362Y-102372000D01*
X138684000Y-102372000D01*
X138201819Y-102467912D01*
X137793045Y-102741045D01*
X137793043Y-102741048D01*
X133690945Y-106843145D01*
X133417812Y-107251919D01*
X133321899Y-107734100D01*
X133321900Y-107734105D01*
X133321900Y-113248299D01*
X133197054Y-113372927D01*
X132947694Y-113973453D01*
X132947126Y-114623694D01*
X133195438Y-115224655D01*
X133654827Y-115684846D01*
X134255353Y-115934206D01*
X134905594Y-115934774D01*
X135506555Y-115686462D01*
X135966746Y-115227073D01*
X136216106Y-114626547D01*
X136216674Y-113976306D01*
X135968362Y-113375345D01*
X135841900Y-113248662D01*
X135841900Y-108256010D01*
X139205909Y-104892000D01*
X145359400Y-104892000D01*
X145374366Y-104902000D01*
X145359400Y-104912000D01*
X140716005Y-104912000D01*
X140716000Y-104911999D01*
X140233819Y-105007912D01*
X139825045Y-105281045D01*
X136777045Y-108329045D01*
X136503912Y-108737819D01*
X136407999Y-109220000D01*
X136408000Y-109220005D01*
X136408000Y-117334090D01*
X134198945Y-119543145D01*
X133925812Y-119951919D01*
X133829899Y-120434100D01*
X133829900Y-120434105D01*
X133829900Y-123408299D01*
X133705054Y-123532927D01*
X133455694Y-124133453D01*
X133455126Y-124783694D01*
X133703438Y-125384655D01*
X134162827Y-125844846D01*
X134763353Y-126094206D01*
X135413594Y-126094774D01*
X136014555Y-125846462D01*
X136474746Y-125387073D01*
X136724106Y-124786547D01*
X136724674Y-124136306D01*
X136476362Y-123535345D01*
X136349900Y-123408662D01*
X136349900Y-120956010D01*
X138558955Y-118746955D01*
X138832088Y-118338181D01*
X138928001Y-117856000D01*
X138928000Y-117855995D01*
X138928000Y-109741910D01*
X141237910Y-107432000D01*
X145359400Y-107432000D01*
X145374366Y-107442000D01*
X145359400Y-107452000D01*
X143764000Y-107452000D01*
X143281819Y-107547912D01*
X142873045Y-107821045D01*
X142873043Y-107821048D01*
X140333045Y-110361045D01*
X140059912Y-110769819D01*
X139963999Y-111252000D01*
X139964000Y-111252005D01*
X139964000Y-128002091D01*
X134606090Y-133360000D01*
X123267453Y-133360000D01*
X123055273Y-132846485D01*
X122174153Y-131963826D01*
X121022326Y-131485546D01*
X120457692Y-131485053D01*
X120396000Y-131472560D01*
X112396000Y-131472560D01*
X112160683Y-131516838D01*
X111944559Y-131655910D01*
X111799569Y-131868110D01*
X111748560Y-132120000D01*
X111748560Y-137120000D01*
X111792838Y-137355317D01*
X111931910Y-137571441D01*
X112144110Y-137716431D01*
X112396000Y-137767440D01*
X120396000Y-137767440D01*
X120461803Y-137755058D01*
X121016854Y-137755543D01*
X122169515Y-137279273D01*
X123052174Y-136398153D01*
X123267330Y-135880000D01*
X135127995Y-135880000D01*
X135128000Y-135880001D01*
X135610181Y-135784088D01*
X136018955Y-135510955D01*
X142114952Y-129414957D01*
X142114955Y-129414955D01*
X142388088Y-129006181D01*
X142484001Y-128524000D01*
X142484000Y-128523995D01*
X142484000Y-111773910D01*
X144285909Y-109972000D01*
X145359400Y-109972000D01*
X145545766Y-110096526D01*
X146119255Y-110210600D01*
X146488745Y-110210600D01*
X147062234Y-110096526D01*
X147548415Y-109771670D01*
X147873271Y-109285489D01*
X147987345Y-108712000D01*
X147873271Y-108138511D01*
X147548415Y-107652330D01*
X147233634Y-107442000D01*
X147548415Y-107231670D01*
X147873271Y-106745489D01*
X147987345Y-106172000D01*
X147873271Y-105598511D01*
X147548415Y-105112330D01*
X147233634Y-104902000D01*
X147548415Y-104691670D01*
X147873271Y-104205489D01*
X147987345Y-103632000D01*
X147873271Y-103058511D01*
X147548415Y-102572330D01*
X147534087Y-102562757D01*
X147555317Y-102558762D01*
X147771441Y-102419690D01*
X147916431Y-102207490D01*
X147967440Y-101955600D01*
X147967440Y-100228400D01*
X147923162Y-99993083D01*
X147784090Y-99776959D01*
X147571890Y-99631969D01*
X147320000Y-99580960D01*
X145288000Y-99580960D01*
X145052683Y-99625238D01*
X144836559Y-99764310D01*
X144790308Y-99832000D01*
X129540005Y-99832000D01*
X129540000Y-99831999D01*
X129057819Y-99927912D01*
X128649045Y-100201045D01*
X128002090Y-100848000D01*
X123267453Y-100848000D01*
X123055273Y-100334485D01*
X122174153Y-99451826D01*
X121022326Y-98973546D01*
X120457692Y-98973053D01*
X120396000Y-98960560D01*
X112396000Y-98960560D01*
X112160683Y-99004838D01*
X111944559Y-99143910D01*
X111799569Y-99356110D01*
X111748560Y-99608000D01*
X111454000Y-99608000D01*
X111454000Y-98846092D01*
X113578091Y-96722000D01*
X149565908Y-96722000D01*
X150674000Y-97830091D01*
M02*
