G04 #@! TF.FileFunction,Copper,L1,Top,Signal*
%FSLAX46Y46*%
G04 Gerber Fmt 4.6, Leading zero omitted, Abs format (unit mm)*
G04 Created by KiCad (PCBNEW 4.0.3-stable) date 01/10/17 16:40:44*
%MOMM*%
%LPD*%
G01*
G04 APERTURE LIST*
%ADD10C,0.100000*%
%ADD11O,1.524000X2.199640*%
%ADD12O,1.524000X2.197100*%
%ADD13R,2.032000X1.727200*%
%ADD14O,2.032000X1.727200*%
%ADD15R,1.900000X2.000000*%
%ADD16C,1.900000*%
%ADD17C,5.000000*%
%ADD18R,5.000000X8.000000*%
%ADD19C,2.500000*%
%ADD20C,1.998980*%
%ADD21R,2.286000X1.574800*%
%ADD22O,2.286000X1.574800*%
%ADD23C,1.524000*%
%ADD24R,1.300000X1.300000*%
%ADD25C,1.300000*%
%ADD26R,0.500000X0.900000*%
%ADD27R,2.032000X3.657600*%
%ADD28R,2.032000X1.016000*%
%ADD29R,1.727200X1.727200*%
%ADD30O,1.727200X1.727200*%
%ADD31C,0.600000*%
%ADD32C,0.250000*%
%ADD33C,0.300000*%
%ADD34C,0.254000*%
G04 APERTURE END LIST*
D10*
D11*
X81260500Y-65910500D03*
X78720500Y-65910500D03*
X76180500Y-65910500D03*
X73640500Y-65910500D03*
X71100500Y-65910500D03*
X68560500Y-65910500D03*
X66020500Y-65910500D03*
X63480500Y-65910500D03*
X60940500Y-65910500D03*
X58400500Y-65910500D03*
X55860500Y-65910500D03*
X53320500Y-65910500D03*
X50780500Y-65910500D03*
X48240500Y-65910500D03*
X45700500Y-65910500D03*
X45700500Y-81150500D03*
X48240500Y-81150500D03*
X50780500Y-81150500D03*
X53320500Y-81150500D03*
D12*
X55860500Y-81150500D03*
X58400500Y-81150500D03*
X60940500Y-81150500D03*
X63480500Y-81150500D03*
X66020500Y-81150500D03*
X68560500Y-81150500D03*
X71100500Y-81150500D03*
X73640500Y-81150500D03*
X76180500Y-81150500D03*
X78720500Y-81150500D03*
X81260500Y-81150500D03*
D13*
X51000000Y-85000000D03*
D14*
X51000000Y-87540000D03*
X51000000Y-90080000D03*
D15*
X46000000Y-50000000D03*
D16*
X43460000Y-50000000D03*
D15*
X53000000Y-50000000D03*
D16*
X50460000Y-50000000D03*
D15*
X60000000Y-50000000D03*
D16*
X57460000Y-50000000D03*
D17*
X70000000Y-94750000D03*
D18*
X70000000Y-98750000D03*
D17*
X94000000Y-94750000D03*
D18*
X94000000Y-98750000D03*
D17*
X54000000Y-94750000D03*
D18*
X54000000Y-98750000D03*
D17*
X62000000Y-94750000D03*
D18*
X62000000Y-98750000D03*
D17*
X86000000Y-94750000D03*
D18*
X86000000Y-98750000D03*
D17*
X78000000Y-94750000D03*
D18*
X78000000Y-98750000D03*
D17*
X46000000Y-94750000D03*
D18*
X46000000Y-98750000D03*
D13*
X89000000Y-83000000D03*
D14*
X89000000Y-85540000D03*
X89000000Y-88080000D03*
D13*
X89000000Y-70000000D03*
D14*
X89000000Y-72540000D03*
X89000000Y-75080000D03*
X89000000Y-77620000D03*
D19*
X105500000Y-48000000D03*
X100500000Y-48000000D03*
X100500000Y-98000000D03*
X105500000Y-98000000D03*
D20*
X77580000Y-77500000D03*
X67420000Y-77500000D03*
X60080000Y-69750000D03*
X49920000Y-69750000D03*
X60080000Y-73750000D03*
X49920000Y-73750000D03*
X59830000Y-77500000D03*
X49670000Y-77500000D03*
X67420000Y-74000000D03*
X77580000Y-74000000D03*
X67420000Y-69750000D03*
X77580000Y-69750000D03*
X82751200Y-85249560D03*
X76248800Y-89750440D03*
X82751200Y-89750440D03*
X76248800Y-85249560D03*
D13*
X51000000Y-57000000D03*
D14*
X51000000Y-59540000D03*
X51000000Y-62080000D03*
D21*
X95190000Y-65110000D03*
D22*
X95190000Y-67650000D03*
X95190000Y-70190000D03*
X95190000Y-72730000D03*
X95190000Y-75270000D03*
X95190000Y-77810000D03*
X95190000Y-80350000D03*
X95190000Y-82890000D03*
X102810000Y-82890000D03*
X102810000Y-80350000D03*
X102810000Y-77810000D03*
X102810000Y-75270000D03*
X102810000Y-72730000D03*
X102810000Y-70190000D03*
X102810000Y-67650000D03*
X102810000Y-65110000D03*
D19*
X113000000Y-66500000D03*
X113000000Y-71500000D03*
X113000000Y-81500000D03*
X113000000Y-76500000D03*
D23*
X89000000Y-55000000D03*
X89000000Y-57000000D03*
X89000000Y-59000000D03*
X89000000Y-61000000D03*
D24*
X64500000Y-61750000D03*
D25*
X64500000Y-59250000D03*
D24*
X94750000Y-44750000D03*
D25*
X94750000Y-47250000D03*
D26*
X65750000Y-52250000D03*
X64250000Y-52250000D03*
X64250000Y-54500000D03*
X65750000Y-54500000D03*
D27*
X83448000Y-47250000D03*
D28*
X90052000Y-47250000D03*
X90052000Y-44964000D03*
X90052000Y-49536000D03*
D29*
X71000000Y-61750000D03*
D30*
X71000000Y-59210000D03*
X73540000Y-61750000D03*
X73540000Y-59210000D03*
X76080000Y-61750000D03*
X76080000Y-59210000D03*
X78620000Y-61750000D03*
X78620000Y-59210000D03*
D31*
X62622800Y-69286300D03*
X77009400Y-79601500D03*
X72917500Y-76765400D03*
X67990300Y-67538300D03*
X79739500Y-68191300D03*
D32*
X102810000Y-75270000D02*
X111770000Y-75270000D01*
X111770000Y-75270000D02*
X113000000Y-76500000D01*
X89000000Y-77620000D02*
X92484400Y-77620000D01*
X92484400Y-77620000D02*
X94834400Y-75270000D01*
X94834400Y-75270000D02*
X95190000Y-75270000D01*
X51000000Y-90080000D02*
X75919240Y-90080000D01*
X75919240Y-90080000D02*
X76248800Y-89750440D01*
X102810000Y-75270000D02*
X102810000Y-75826300D01*
X97214600Y-75826300D02*
X96658300Y-75270000D01*
X102810000Y-75826300D02*
X97214600Y-75826300D01*
X95654600Y-75270000D02*
X96658300Y-75270000D01*
X46000000Y-98750000D02*
X46000000Y-94750000D01*
X48550600Y-48724700D02*
X47275300Y-50000000D01*
X51724700Y-48724700D02*
X48550600Y-48724700D01*
X53000000Y-50000000D02*
X51724700Y-48724700D01*
X46000000Y-50000000D02*
X47275300Y-50000000D01*
X53000000Y-50000000D02*
X54275300Y-50000000D01*
X92464000Y-49536000D02*
X90052000Y-49536000D01*
X94750000Y-47250000D02*
X92464000Y-49536000D01*
X87895100Y-59895100D02*
X89000000Y-61000000D01*
X87895100Y-50351600D02*
X87895100Y-59895100D01*
X88710700Y-49536000D02*
X87895100Y-50351600D01*
X90052000Y-49536000D02*
X88710700Y-49536000D01*
X95654600Y-75270000D02*
X95190000Y-75270000D01*
X51000000Y-62080000D02*
X51000000Y-60891100D01*
X58724700Y-51275300D02*
X55550600Y-51275300D01*
X60000000Y-50000000D02*
X58724700Y-51275300D01*
X55550600Y-51275300D02*
X54275300Y-50000000D01*
X57940000Y-59250000D02*
X55550600Y-56860600D01*
X64500000Y-59250000D02*
X57940000Y-59250000D01*
X55550600Y-51275300D02*
X55550600Y-56860600D01*
X51520100Y-60891100D02*
X51000000Y-60891100D01*
X55550600Y-56860600D02*
X51520100Y-60891100D01*
X76248800Y-85249600D02*
X82751200Y-85249600D01*
X95190000Y-67650000D02*
X93721700Y-67650000D01*
X93721700Y-67650000D02*
X93629700Y-67558000D01*
X93629700Y-67558000D02*
X69870180Y-67558000D01*
X69870180Y-67558000D02*
X68560500Y-66248320D01*
X68560500Y-66248320D02*
X68560500Y-65910500D01*
X51891300Y-80017800D02*
X62622800Y-69286300D01*
X51891300Y-82919800D02*
X51891300Y-80017800D01*
X51000000Y-83811100D02*
X51891300Y-82919800D01*
X51000000Y-85000000D02*
X51000000Y-83811100D01*
X92973200Y-79601500D02*
X77009400Y-79601500D01*
X93721700Y-80350000D02*
X92973200Y-79601500D01*
X95190000Y-80350000D02*
X93721700Y-80350000D01*
X102810000Y-80350000D02*
X101417000Y-80350000D01*
X101417000Y-80350000D02*
X100007200Y-78940200D01*
X100007200Y-78940200D02*
X75092300Y-78940200D01*
X67990300Y-67538300D02*
X62230480Y-67538300D01*
X62230480Y-67538300D02*
X60940500Y-66248320D01*
X60940500Y-66248320D02*
X60940500Y-65910500D01*
X75092300Y-78940200D02*
X72917500Y-76765400D01*
X102810000Y-67650000D02*
X101417000Y-67650000D01*
X101417000Y-67650000D02*
X100304300Y-66537300D01*
X100304300Y-66537300D02*
X85874800Y-66537300D01*
X85874800Y-66537300D02*
X83818500Y-64481000D01*
X83818500Y-64481000D02*
X54412180Y-64481000D01*
X54412180Y-64481000D02*
X53320500Y-65572680D01*
X53320500Y-65572680D02*
X53320500Y-65910500D01*
X79739500Y-68191300D02*
X52723480Y-68191300D01*
X52723480Y-68191300D02*
X50780500Y-66248320D01*
X50780500Y-66248320D02*
X50780500Y-65910500D01*
X48240500Y-65910500D02*
X48240500Y-65572680D01*
X48240500Y-65572680D02*
X49782580Y-64030600D01*
X49782580Y-64030600D02*
X78041300Y-64030600D01*
X78041300Y-64030600D02*
X79833400Y-62238500D01*
X79833400Y-62238500D02*
X79833400Y-60423400D01*
X79833400Y-60423400D02*
X78620000Y-59210000D01*
X46787800Y-65366900D02*
X46787800Y-65910500D01*
X48661500Y-63493200D02*
X46787800Y-65366900D01*
X68067900Y-63493200D02*
X48661500Y-63493200D01*
X69811100Y-61750000D02*
X68067900Y-63493200D01*
X71000000Y-61750000D02*
X69811100Y-61750000D01*
X45700500Y-65910500D02*
X46787800Y-65910500D01*
X65475300Y-60474200D02*
X77344200Y-60474200D01*
X77344200Y-60474200D02*
X78620000Y-61750000D01*
X64250000Y-54500000D02*
X64825300Y-54500000D01*
X70000000Y-98750000D02*
X70000000Y-94750000D01*
X65750000Y-52250000D02*
X65174700Y-52250000D01*
X64825300Y-52599400D02*
X64825300Y-54500000D01*
X65174700Y-52250000D02*
X64825300Y-52599400D01*
X64500000Y-61750000D02*
X64500000Y-60774700D01*
X65475300Y-56975800D02*
X65475300Y-60474200D01*
X64825300Y-56325800D02*
X65475300Y-56975800D01*
X64825300Y-54500000D02*
X64825300Y-56325800D01*
X64800500Y-60474200D02*
X65475300Y-60474200D01*
X64500000Y-60774700D02*
X64800500Y-60474200D01*
X54000000Y-98750000D02*
X54000000Y-94750000D01*
X63480500Y-79560500D02*
X63480500Y-81150500D01*
X67291000Y-75750000D02*
X63480500Y-79560500D01*
X81594900Y-75750000D02*
X67291000Y-75750000D01*
X83454000Y-73890900D02*
X81594900Y-75750000D01*
X110609100Y-73890900D02*
X83454000Y-73890900D01*
X113000000Y-71500000D02*
X110609100Y-73890900D01*
X113000000Y-66500000D02*
X108149300Y-71350700D01*
X108149300Y-71350700D02*
X68163100Y-71350700D01*
X63048500Y-82617600D02*
X64889950Y-82617600D01*
X64889950Y-82617600D02*
X66020500Y-81487050D01*
X68163100Y-71350700D02*
X62385700Y-77128100D01*
X62385700Y-77128100D02*
X62385700Y-81954800D01*
X62385700Y-81954800D02*
X63048500Y-82617600D01*
X66020500Y-81487050D02*
X66020500Y-81150500D01*
X86000000Y-98750000D02*
X86000000Y-94750000D01*
X78000000Y-98750000D02*
X78000000Y-94750000D01*
X94000000Y-94750000D02*
X94000000Y-89198700D01*
X94000000Y-89198700D02*
X90341300Y-85540000D01*
X89000000Y-85540000D02*
X87734000Y-85540000D01*
X87734000Y-85540000D02*
X85428600Y-83234600D01*
X85428600Y-83234600D02*
X75388050Y-83234600D01*
X75388050Y-83234600D02*
X73640500Y-81487050D01*
X73640500Y-81487050D02*
X73640500Y-81150500D01*
X94000000Y-98750000D02*
X94000000Y-94750000D01*
X51000000Y-87540000D02*
X52341300Y-87540000D01*
X95190000Y-65110000D02*
X95190000Y-64553600D01*
X100785300Y-64553600D02*
X101341700Y-65110000D01*
X95190000Y-64553600D02*
X100785300Y-64553600D01*
X102810000Y-65110000D02*
X101341700Y-65110000D01*
X102810000Y-82890000D02*
X102810000Y-84002700D01*
X89636400Y-59000000D02*
X95190000Y-64553600D01*
X89000000Y-59000000D02*
X89636400Y-59000000D01*
X72553200Y-80728700D02*
X72553200Y-81150500D01*
X69324500Y-77500000D02*
X72553200Y-80728700D01*
X67420000Y-77500000D02*
X69324500Y-77500000D01*
X73640500Y-81150500D02*
X72553200Y-81150500D01*
X66594700Y-87540000D02*
X52341300Y-87540000D01*
X72553200Y-81581500D02*
X66594700Y-87540000D01*
X72553200Y-81150500D02*
X72553200Y-81581500D01*
X100781800Y-86030900D02*
X94000000Y-86030900D01*
X102810000Y-84002700D02*
X100781800Y-86030900D01*
X90832200Y-86030900D02*
X90341300Y-85540000D01*
X94000000Y-86030900D02*
X90832200Y-86030900D01*
X89000000Y-85540000D02*
X90341300Y-85540000D01*
X95190000Y-82890000D02*
X96583000Y-82890000D01*
X96583000Y-82890000D02*
X97973000Y-81500000D01*
X97973000Y-81500000D02*
X113000000Y-81500000D01*
X81260500Y-81150500D02*
X93094900Y-81150500D01*
X93094900Y-81150500D02*
X94834400Y-82890000D01*
X94834400Y-82890000D02*
X95190000Y-82890000D01*
X93560700Y-44964000D02*
X93774700Y-44750000D01*
X90052000Y-44964000D02*
X93560700Y-44964000D01*
X94750000Y-44750000D02*
X93774700Y-44750000D01*
X113000000Y-81500000D02*
X112722700Y-81777300D01*
D33*
X95190000Y-70190000D02*
X96633000Y-70190000D01*
X96633000Y-70190000D02*
X97770700Y-69052300D01*
X97770700Y-69052300D02*
X103429200Y-69052300D01*
X105500000Y-66981500D02*
X105500000Y-48000000D01*
X103429200Y-69052300D02*
X105500000Y-66981500D01*
D32*
X46331400Y-52871400D02*
X43460000Y-50000000D01*
X46331400Y-60974300D02*
X46331400Y-52871400D01*
X44597900Y-62707800D02*
X46331400Y-60974300D01*
X44597900Y-66709900D02*
X44597900Y-62707800D01*
X45307300Y-67419300D02*
X44597900Y-66709900D01*
X50413600Y-67419300D02*
X45307300Y-67419300D01*
X52744300Y-69750000D02*
X50413600Y-67419300D01*
X60080000Y-69750000D02*
X52744300Y-69750000D01*
X62000000Y-98750000D02*
X62000000Y-94750000D01*
X47000000Y-79910000D02*
X47153200Y-80063200D01*
X47000000Y-79910000D02*
X48240500Y-81150500D01*
X41671500Y-74581500D02*
X47000000Y-79910000D01*
X41671500Y-49960300D02*
X41671500Y-74581500D01*
X43404800Y-48227000D02*
X41671500Y-49960300D01*
X61002300Y-48227000D02*
X43404800Y-48227000D01*
X64250000Y-51474700D02*
X61002300Y-48227000D01*
X64250000Y-52250000D02*
X64250000Y-51474700D01*
X83448000Y-47250000D02*
X90052000Y-47250000D01*
X83448000Y-47250000D02*
X83448000Y-46172900D01*
X74652400Y-46172900D02*
X66325300Y-54500000D01*
X83448000Y-46172900D02*
X74652400Y-46172900D01*
X65750000Y-54500000D02*
X66325300Y-54500000D01*
D34*
G36*
X115871023Y-43897167D02*
X116609439Y-44390561D01*
X117102833Y-45128977D01*
X117290000Y-46069931D01*
X117290000Y-99930069D01*
X117102833Y-100871023D01*
X116609439Y-101609439D01*
X115871023Y-102102833D01*
X114930069Y-102290000D01*
X97147440Y-102290000D01*
X97147440Y-98373305D01*
X98614674Y-98373305D01*
X98901043Y-99066372D01*
X99430839Y-99597093D01*
X100123405Y-99884672D01*
X100873305Y-99885326D01*
X101566372Y-99598957D01*
X102097093Y-99069161D01*
X102384672Y-98376595D01*
X102384674Y-98373305D01*
X103614674Y-98373305D01*
X103901043Y-99066372D01*
X104430839Y-99597093D01*
X105123405Y-99884672D01*
X105873305Y-99885326D01*
X106566372Y-99598957D01*
X107097093Y-99069161D01*
X107384672Y-98376595D01*
X107385326Y-97626695D01*
X107126382Y-97000000D01*
X109290000Y-97000000D01*
X109496286Y-98037072D01*
X110083741Y-98916259D01*
X110962928Y-99503714D01*
X112000000Y-99710000D01*
X113037072Y-99503714D01*
X113916259Y-98916259D01*
X114503714Y-98037072D01*
X114710000Y-97000000D01*
X114503714Y-95962928D01*
X113916259Y-95083741D01*
X113037072Y-94496286D01*
X112000000Y-94290000D01*
X110962928Y-94496286D01*
X110083741Y-95083741D01*
X109496286Y-95962928D01*
X109290000Y-97000000D01*
X107126382Y-97000000D01*
X107098957Y-96933628D01*
X106569161Y-96402907D01*
X105876595Y-96115328D01*
X105126695Y-96114674D01*
X104433628Y-96401043D01*
X103902907Y-96930839D01*
X103615328Y-97623405D01*
X103614674Y-98373305D01*
X102384674Y-98373305D01*
X102385326Y-97626695D01*
X102098957Y-96933628D01*
X101569161Y-96402907D01*
X100876595Y-96115328D01*
X100126695Y-96114674D01*
X99433628Y-96401043D01*
X98902907Y-96930839D01*
X98615328Y-97623405D01*
X98614674Y-98373305D01*
X97147440Y-98373305D01*
X97147440Y-94750000D01*
X97135058Y-94684197D01*
X97135543Y-94129146D01*
X96659273Y-92976485D01*
X95778153Y-92093826D01*
X94760000Y-91671052D01*
X94760000Y-89198700D01*
X94702148Y-88907861D01*
X94537401Y-88661299D01*
X92667002Y-86790900D01*
X100781800Y-86790900D01*
X101072639Y-86733048D01*
X101319201Y-86568301D01*
X103347401Y-84540101D01*
X103512148Y-84293539D01*
X103521083Y-84248619D01*
X103744762Y-84204126D01*
X104206222Y-83895789D01*
X104514559Y-83434329D01*
X104622833Y-82890000D01*
X104514559Y-82345671D01*
X104457316Y-82260000D01*
X111274453Y-82260000D01*
X111401043Y-82566372D01*
X111930839Y-83097093D01*
X112623405Y-83384672D01*
X113373305Y-83385326D01*
X114066372Y-83098957D01*
X114597093Y-82569161D01*
X114884672Y-81876595D01*
X114885326Y-81126695D01*
X114598957Y-80433628D01*
X114069161Y-79902907D01*
X113376595Y-79615328D01*
X112626695Y-79614674D01*
X111933628Y-79901043D01*
X111402907Y-80430839D01*
X111274532Y-80740000D01*
X104545257Y-80740000D01*
X104622833Y-80350000D01*
X104514559Y-79805671D01*
X104206222Y-79344211D01*
X103810801Y-79080000D01*
X104206222Y-78815789D01*
X104514559Y-78354329D01*
X104618194Y-77833320D01*
X111846285Y-77833320D01*
X111975533Y-78126123D01*
X112675806Y-78394388D01*
X113425435Y-78374250D01*
X114024467Y-78126123D01*
X114153715Y-77833320D01*
X113000000Y-76679605D01*
X111846285Y-77833320D01*
X104618194Y-77833320D01*
X104622833Y-77810000D01*
X104514559Y-77265671D01*
X104206222Y-76804211D01*
X103811170Y-76540246D01*
X103827262Y-76535525D01*
X104261191Y-76185986D01*
X104266752Y-76175806D01*
X111105612Y-76175806D01*
X111125750Y-76925435D01*
X111373877Y-77524467D01*
X111666680Y-77653715D01*
X112820395Y-76500000D01*
X113179605Y-76500000D01*
X114333320Y-77653715D01*
X114626123Y-77524467D01*
X114894388Y-76824194D01*
X114874250Y-76074565D01*
X114626123Y-75475533D01*
X114333320Y-75346285D01*
X113179605Y-76500000D01*
X112820395Y-76500000D01*
X111666680Y-75346285D01*
X111373877Y-75475533D01*
X111105612Y-76175806D01*
X104266752Y-76175806D01*
X104528327Y-75696996D01*
X104545010Y-75617060D01*
X104422852Y-75397000D01*
X102937000Y-75397000D01*
X102937000Y-75417000D01*
X102683000Y-75417000D01*
X102683000Y-75397000D01*
X101197148Y-75397000D01*
X101074990Y-75617060D01*
X101091673Y-75696996D01*
X101358809Y-76185986D01*
X101792738Y-76535525D01*
X101808830Y-76540246D01*
X101413778Y-76804211D01*
X101105441Y-77265671D01*
X100997167Y-77810000D01*
X101105441Y-78354329D01*
X101413778Y-78815789D01*
X101809199Y-79080000D01*
X101457080Y-79315278D01*
X100544601Y-78402799D01*
X100298039Y-78238052D01*
X100007200Y-78180200D01*
X96929195Y-78180200D01*
X97002833Y-77810000D01*
X96894559Y-77265671D01*
X96586222Y-76804211D01*
X96191170Y-76540246D01*
X96207262Y-76535525D01*
X96641191Y-76185986D01*
X96908327Y-75696996D01*
X96925010Y-75617060D01*
X96802852Y-75397000D01*
X95317000Y-75397000D01*
X95317000Y-75417000D01*
X95063000Y-75417000D01*
X95063000Y-75397000D01*
X93577148Y-75397000D01*
X93454990Y-75617060D01*
X93471673Y-75696996D01*
X93738809Y-76185986D01*
X94172738Y-76535525D01*
X94188830Y-76540246D01*
X93793778Y-76804211D01*
X93485441Y-77265671D01*
X93377167Y-77810000D01*
X93450805Y-78180200D01*
X90515396Y-78180200D01*
X90604709Y-77994791D01*
X90607358Y-77979026D01*
X90486217Y-77747000D01*
X89127000Y-77747000D01*
X89127000Y-77767000D01*
X88873000Y-77767000D01*
X88873000Y-77747000D01*
X87513783Y-77747000D01*
X87392642Y-77979026D01*
X87395291Y-77994791D01*
X87484604Y-78180200D01*
X79067357Y-78180200D01*
X79214206Y-77826547D01*
X79214774Y-77176306D01*
X78966462Y-76575345D01*
X78901231Y-76510000D01*
X81594900Y-76510000D01*
X81885739Y-76452148D01*
X82132301Y-76287401D01*
X83768802Y-74650900D01*
X87402008Y-74650900D01*
X87316655Y-75080000D01*
X87430729Y-75653489D01*
X87755585Y-76139670D01*
X88065069Y-76346461D01*
X87649268Y-76717964D01*
X87395291Y-77245209D01*
X87392642Y-77260974D01*
X87513783Y-77493000D01*
X88873000Y-77493000D01*
X88873000Y-77473000D01*
X89127000Y-77473000D01*
X89127000Y-77493000D01*
X90486217Y-77493000D01*
X90607358Y-77260974D01*
X90604709Y-77245209D01*
X90350732Y-76717964D01*
X89934931Y-76346461D01*
X90244415Y-76139670D01*
X90569271Y-75653489D01*
X90666103Y-75166680D01*
X111846285Y-75166680D01*
X113000000Y-76320395D01*
X114153715Y-75166680D01*
X114024467Y-74873877D01*
X113324194Y-74605612D01*
X112574565Y-74625750D01*
X111975533Y-74873877D01*
X111846285Y-75166680D01*
X90666103Y-75166680D01*
X90683345Y-75080000D01*
X90597992Y-74650900D01*
X93576620Y-74650900D01*
X93471673Y-74843004D01*
X93454990Y-74922940D01*
X93577148Y-75143000D01*
X95063000Y-75143000D01*
X95063000Y-75123000D01*
X95317000Y-75123000D01*
X95317000Y-75143000D01*
X96802852Y-75143000D01*
X96925010Y-74922940D01*
X96908327Y-74843004D01*
X96803380Y-74650900D01*
X101196620Y-74650900D01*
X101091673Y-74843004D01*
X101074990Y-74922940D01*
X101197148Y-75143000D01*
X102683000Y-75143000D01*
X102683000Y-75123000D01*
X102937000Y-75123000D01*
X102937000Y-75143000D01*
X104422852Y-75143000D01*
X104545010Y-74922940D01*
X104528327Y-74843004D01*
X104423380Y-74650900D01*
X110609100Y-74650900D01*
X110899939Y-74593048D01*
X111146501Y-74428301D01*
X112317255Y-73257547D01*
X112623405Y-73384672D01*
X113373305Y-73385326D01*
X114066372Y-73098957D01*
X114597093Y-72569161D01*
X114884672Y-71876595D01*
X114885326Y-71126695D01*
X114598957Y-70433628D01*
X114069161Y-69902907D01*
X113376595Y-69615328D01*
X112626695Y-69614674D01*
X111933628Y-69901043D01*
X111402907Y-70430839D01*
X111115328Y-71123405D01*
X111114674Y-71873305D01*
X111242509Y-72182689D01*
X110294298Y-73130900D01*
X104533773Y-73130900D01*
X104545010Y-73077060D01*
X104422852Y-72857000D01*
X102937000Y-72857000D01*
X102937000Y-72877000D01*
X102683000Y-72877000D01*
X102683000Y-72857000D01*
X101197148Y-72857000D01*
X101074990Y-73077060D01*
X101086227Y-73130900D01*
X96913773Y-73130900D01*
X96925010Y-73077060D01*
X96802852Y-72857000D01*
X95317000Y-72857000D01*
X95317000Y-72877000D01*
X95063000Y-72877000D01*
X95063000Y-72857000D01*
X93577148Y-72857000D01*
X93454990Y-73077060D01*
X93466227Y-73130900D01*
X90557637Y-73130900D01*
X90569271Y-73113489D01*
X90683345Y-72540000D01*
X90597952Y-72110700D01*
X93576729Y-72110700D01*
X93471673Y-72303004D01*
X93454990Y-72382940D01*
X93577148Y-72603000D01*
X95063000Y-72603000D01*
X95063000Y-72583000D01*
X95317000Y-72583000D01*
X95317000Y-72603000D01*
X96802852Y-72603000D01*
X96925010Y-72382940D01*
X96908327Y-72303004D01*
X96803271Y-72110700D01*
X101196729Y-72110700D01*
X101091673Y-72303004D01*
X101074990Y-72382940D01*
X101197148Y-72603000D01*
X102683000Y-72603000D01*
X102683000Y-72583000D01*
X102937000Y-72583000D01*
X102937000Y-72603000D01*
X104422852Y-72603000D01*
X104545010Y-72382940D01*
X104528327Y-72303004D01*
X104423271Y-72110700D01*
X108149300Y-72110700D01*
X108440139Y-72052848D01*
X108686701Y-71888101D01*
X112317255Y-68257547D01*
X112623405Y-68384672D01*
X113373305Y-68385326D01*
X114066372Y-68098957D01*
X114597093Y-67569161D01*
X114884672Y-66876595D01*
X114885326Y-66126695D01*
X114598957Y-65433628D01*
X114069161Y-64902907D01*
X113376595Y-64615328D01*
X112626695Y-64614674D01*
X111933628Y-64901043D01*
X111402907Y-65430839D01*
X111115328Y-66123405D01*
X111114674Y-66873305D01*
X111242509Y-67182689D01*
X107834498Y-70590700D01*
X104543129Y-70590700D01*
X104622833Y-70190000D01*
X104514559Y-69645671D01*
X104286821Y-69304837D01*
X106055079Y-67536579D01*
X106225245Y-67281906D01*
X106285000Y-66981500D01*
X106285000Y-49715217D01*
X106566372Y-49598957D01*
X107097093Y-49069161D01*
X107125811Y-49000000D01*
X109290000Y-49000000D01*
X109496286Y-50037072D01*
X110083741Y-50916259D01*
X110962928Y-51503714D01*
X112000000Y-51710000D01*
X113037072Y-51503714D01*
X113916259Y-50916259D01*
X114503714Y-50037072D01*
X114710000Y-49000000D01*
X114503714Y-47962928D01*
X113916259Y-47083741D01*
X113037072Y-46496286D01*
X112000000Y-46290000D01*
X110962928Y-46496286D01*
X110083741Y-47083741D01*
X109496286Y-47962928D01*
X109290000Y-49000000D01*
X107125811Y-49000000D01*
X107384672Y-48376595D01*
X107385326Y-47626695D01*
X107098957Y-46933628D01*
X106569161Y-46402907D01*
X105876595Y-46115328D01*
X105126695Y-46114674D01*
X104433628Y-46401043D01*
X103902907Y-46930839D01*
X103615328Y-47623405D01*
X103614674Y-48373305D01*
X103901043Y-49066372D01*
X104430839Y-49597093D01*
X104715000Y-49715087D01*
X104715000Y-66656342D01*
X104414869Y-66956473D01*
X104206222Y-66644211D01*
X103810801Y-66380000D01*
X104206222Y-66115789D01*
X104514559Y-65654329D01*
X104622833Y-65110000D01*
X104514559Y-64565671D01*
X104206222Y-64104211D01*
X103744762Y-63795874D01*
X103200433Y-63687600D01*
X102419567Y-63687600D01*
X101875238Y-63795874D01*
X101413778Y-64104211D01*
X101412550Y-64106048D01*
X101322701Y-64016199D01*
X101076139Y-63851452D01*
X100785300Y-63793600D01*
X96683579Y-63793600D01*
X96584890Y-63726169D01*
X96333000Y-63675160D01*
X95386362Y-63675160D01*
X90370979Y-58659777D01*
X90185010Y-58209697D01*
X89975658Y-57999979D01*
X90183629Y-57792370D01*
X90396757Y-57279100D01*
X90397242Y-56723339D01*
X90185010Y-56209697D01*
X89975658Y-55999979D01*
X90183629Y-55792370D01*
X90396757Y-55279100D01*
X90397242Y-54723339D01*
X90185010Y-54209697D01*
X89792370Y-53816371D01*
X89279100Y-53603243D01*
X88723339Y-53602758D01*
X88209697Y-53814990D01*
X87816371Y-54207630D01*
X87603243Y-54720900D01*
X87602758Y-55276661D01*
X87814990Y-55790303D01*
X88024342Y-56000021D01*
X87816371Y-56207630D01*
X87603243Y-56720900D01*
X87602758Y-57276661D01*
X87814990Y-57790303D01*
X88024342Y-58000021D01*
X87816371Y-58207630D01*
X87603243Y-58720900D01*
X87602758Y-59276661D01*
X87814990Y-59790303D01*
X88207630Y-60183629D01*
X88473727Y-60294122D01*
X89000000Y-60820395D01*
X89014143Y-60806253D01*
X89193748Y-60985858D01*
X89179605Y-61000000D01*
X89980213Y-61800608D01*
X90222397Y-61731143D01*
X90409144Y-61207698D01*
X90390168Y-60828570D01*
X93524340Y-63962742D01*
X93450569Y-64070710D01*
X93399560Y-64322600D01*
X93399560Y-65777300D01*
X86189602Y-65777300D01*
X84355901Y-63943599D01*
X84109339Y-63778852D01*
X83818500Y-63721000D01*
X79425702Y-63721000D01*
X80370801Y-62775901D01*
X80535548Y-62529339D01*
X80593400Y-62238500D01*
X80593400Y-61980213D01*
X88199392Y-61980213D01*
X88268857Y-62222397D01*
X88792302Y-62409144D01*
X89347368Y-62381362D01*
X89731143Y-62222397D01*
X89800608Y-61980213D01*
X89000000Y-61179605D01*
X88199392Y-61980213D01*
X80593400Y-61980213D01*
X80593400Y-60792302D01*
X87590856Y-60792302D01*
X87618638Y-61347368D01*
X87777603Y-61731143D01*
X88019787Y-61800608D01*
X88820395Y-61000000D01*
X88019787Y-60199392D01*
X87777603Y-60268857D01*
X87590856Y-60792302D01*
X80593400Y-60792302D01*
X80593400Y-60423400D01*
X80535548Y-60132561D01*
X80370801Y-59885999D01*
X80053158Y-59568356D01*
X80118600Y-59239359D01*
X80118600Y-59180641D01*
X80004526Y-58607152D01*
X79679670Y-58120971D01*
X79193489Y-57796115D01*
X78620000Y-57682041D01*
X78046511Y-57796115D01*
X77560330Y-58120971D01*
X77350000Y-58435752D01*
X77139670Y-58120971D01*
X76653489Y-57796115D01*
X76080000Y-57682041D01*
X75506511Y-57796115D01*
X75020330Y-58120971D01*
X74810000Y-58435752D01*
X74599670Y-58120971D01*
X74113489Y-57796115D01*
X73540000Y-57682041D01*
X72966511Y-57796115D01*
X72480330Y-58120971D01*
X72264336Y-58444228D01*
X72206821Y-58321510D01*
X71774947Y-57927312D01*
X71359026Y-57755042D01*
X71127000Y-57876183D01*
X71127000Y-59083000D01*
X71147000Y-59083000D01*
X71147000Y-59337000D01*
X71127000Y-59337000D01*
X71127000Y-59357000D01*
X70873000Y-59357000D01*
X70873000Y-59337000D01*
X69665531Y-59337000D01*
X69545032Y-59569027D01*
X69613071Y-59714200D01*
X66235300Y-59714200D01*
X66235300Y-58850973D01*
X69545032Y-58850973D01*
X69665531Y-59083000D01*
X70873000Y-59083000D01*
X70873000Y-57876183D01*
X70640974Y-57755042D01*
X70225053Y-57927312D01*
X69793179Y-58321510D01*
X69545032Y-58850973D01*
X66235300Y-58850973D01*
X66235300Y-56975800D01*
X66177448Y-56684961D01*
X66012701Y-56438399D01*
X65585300Y-56010998D01*
X65585300Y-55597440D01*
X66000000Y-55597440D01*
X66235317Y-55553162D01*
X66451441Y-55414090D01*
X66593127Y-55206725D01*
X66616139Y-55202148D01*
X66862701Y-55037401D01*
X74123000Y-47777102D01*
X74123000Y-50750000D01*
X74133006Y-50799410D01*
X74161447Y-50841035D01*
X74203841Y-50868315D01*
X74250000Y-50877000D01*
X86000000Y-50877000D01*
X86049410Y-50866994D01*
X86091035Y-50838553D01*
X86118315Y-50796159D01*
X86127000Y-50750000D01*
X86127000Y-49821750D01*
X88401000Y-49821750D01*
X88401000Y-50170309D01*
X88497673Y-50403698D01*
X88676301Y-50582327D01*
X88909690Y-50679000D01*
X89766250Y-50679000D01*
X89925000Y-50520250D01*
X89925000Y-49663000D01*
X90179000Y-49663000D01*
X90179000Y-50520250D01*
X90337750Y-50679000D01*
X91194310Y-50679000D01*
X91427699Y-50582327D01*
X91606327Y-50403698D01*
X91703000Y-50170309D01*
X91703000Y-49821750D01*
X91544250Y-49663000D01*
X90179000Y-49663000D01*
X89925000Y-49663000D01*
X88559750Y-49663000D01*
X88401000Y-49821750D01*
X86127000Y-49821750D01*
X86127000Y-48010000D01*
X88443573Y-48010000D01*
X88571910Y-48209441D01*
X88784110Y-48354431D01*
X88974569Y-48393000D01*
X88909690Y-48393000D01*
X88676301Y-48489673D01*
X88497673Y-48668302D01*
X88401000Y-48901691D01*
X88401000Y-49250250D01*
X88559750Y-49409000D01*
X89925000Y-49409000D01*
X89925000Y-49389000D01*
X90179000Y-49389000D01*
X90179000Y-49409000D01*
X91544250Y-49409000D01*
X91703000Y-49250250D01*
X91703000Y-48901691D01*
X91606327Y-48668302D01*
X91427699Y-48489673D01*
X91194310Y-48393000D01*
X91134113Y-48393000D01*
X91303317Y-48361162D01*
X91519441Y-48222090D01*
X91569370Y-48149016D01*
X94030590Y-48149016D01*
X94086271Y-48379611D01*
X94569078Y-48547622D01*
X95079428Y-48518083D01*
X95413729Y-48379611D01*
X95415251Y-48373305D01*
X98614674Y-48373305D01*
X98901043Y-49066372D01*
X99430839Y-49597093D01*
X100123405Y-49884672D01*
X100873305Y-49885326D01*
X101566372Y-49598957D01*
X102097093Y-49069161D01*
X102384672Y-48376595D01*
X102385326Y-47626695D01*
X102098957Y-46933628D01*
X101569161Y-46402907D01*
X100876595Y-46115328D01*
X100126695Y-46114674D01*
X99433628Y-46401043D01*
X98902907Y-46930839D01*
X98615328Y-47623405D01*
X98614674Y-48373305D01*
X95415251Y-48373305D01*
X95469410Y-48149016D01*
X94750000Y-47429605D01*
X94030590Y-48149016D01*
X91569370Y-48149016D01*
X91664431Y-48009890D01*
X91715440Y-47758000D01*
X91715440Y-47069078D01*
X93452378Y-47069078D01*
X93481917Y-47579428D01*
X93620389Y-47913729D01*
X93850984Y-47969410D01*
X94570395Y-47250000D01*
X94929605Y-47250000D01*
X95649016Y-47969410D01*
X95879611Y-47913729D01*
X96047622Y-47430922D01*
X96018083Y-46920572D01*
X95879611Y-46586271D01*
X95649016Y-46530590D01*
X94929605Y-47250000D01*
X94570395Y-47250000D01*
X93850984Y-46530590D01*
X93620389Y-46586271D01*
X93452378Y-47069078D01*
X91715440Y-47069078D01*
X91715440Y-46742000D01*
X91671162Y-46506683D01*
X91532090Y-46290559D01*
X91319890Y-46145569D01*
X91131686Y-46107457D01*
X91303317Y-46075162D01*
X91519441Y-45936090D01*
X91664356Y-45724000D01*
X93553904Y-45724000D01*
X93635910Y-45851441D01*
X93848110Y-45996431D01*
X94100000Y-46047440D01*
X94262385Y-46047440D01*
X94086271Y-46120389D01*
X94030590Y-46350984D01*
X94750000Y-47070395D01*
X95469410Y-46350984D01*
X95413729Y-46120389D01*
X95204098Y-46047440D01*
X95400000Y-46047440D01*
X95635317Y-46003162D01*
X95851441Y-45864090D01*
X95996431Y-45651890D01*
X96047440Y-45400000D01*
X96047440Y-44100000D01*
X96003162Y-43864683D01*
X95903626Y-43710000D01*
X114930069Y-43710000D01*
X115871023Y-43897167D01*
X115871023Y-43897167D01*
G37*
X115871023Y-43897167D02*
X116609439Y-44390561D01*
X117102833Y-45128977D01*
X117290000Y-46069931D01*
X117290000Y-99930069D01*
X117102833Y-100871023D01*
X116609439Y-101609439D01*
X115871023Y-102102833D01*
X114930069Y-102290000D01*
X97147440Y-102290000D01*
X97147440Y-98373305D01*
X98614674Y-98373305D01*
X98901043Y-99066372D01*
X99430839Y-99597093D01*
X100123405Y-99884672D01*
X100873305Y-99885326D01*
X101566372Y-99598957D01*
X102097093Y-99069161D01*
X102384672Y-98376595D01*
X102384674Y-98373305D01*
X103614674Y-98373305D01*
X103901043Y-99066372D01*
X104430839Y-99597093D01*
X105123405Y-99884672D01*
X105873305Y-99885326D01*
X106566372Y-99598957D01*
X107097093Y-99069161D01*
X107384672Y-98376595D01*
X107385326Y-97626695D01*
X107126382Y-97000000D01*
X109290000Y-97000000D01*
X109496286Y-98037072D01*
X110083741Y-98916259D01*
X110962928Y-99503714D01*
X112000000Y-99710000D01*
X113037072Y-99503714D01*
X113916259Y-98916259D01*
X114503714Y-98037072D01*
X114710000Y-97000000D01*
X114503714Y-95962928D01*
X113916259Y-95083741D01*
X113037072Y-94496286D01*
X112000000Y-94290000D01*
X110962928Y-94496286D01*
X110083741Y-95083741D01*
X109496286Y-95962928D01*
X109290000Y-97000000D01*
X107126382Y-97000000D01*
X107098957Y-96933628D01*
X106569161Y-96402907D01*
X105876595Y-96115328D01*
X105126695Y-96114674D01*
X104433628Y-96401043D01*
X103902907Y-96930839D01*
X103615328Y-97623405D01*
X103614674Y-98373305D01*
X102384674Y-98373305D01*
X102385326Y-97626695D01*
X102098957Y-96933628D01*
X101569161Y-96402907D01*
X100876595Y-96115328D01*
X100126695Y-96114674D01*
X99433628Y-96401043D01*
X98902907Y-96930839D01*
X98615328Y-97623405D01*
X98614674Y-98373305D01*
X97147440Y-98373305D01*
X97147440Y-94750000D01*
X97135058Y-94684197D01*
X97135543Y-94129146D01*
X96659273Y-92976485D01*
X95778153Y-92093826D01*
X94760000Y-91671052D01*
X94760000Y-89198700D01*
X94702148Y-88907861D01*
X94537401Y-88661299D01*
X92667002Y-86790900D01*
X100781800Y-86790900D01*
X101072639Y-86733048D01*
X101319201Y-86568301D01*
X103347401Y-84540101D01*
X103512148Y-84293539D01*
X103521083Y-84248619D01*
X103744762Y-84204126D01*
X104206222Y-83895789D01*
X104514559Y-83434329D01*
X104622833Y-82890000D01*
X104514559Y-82345671D01*
X104457316Y-82260000D01*
X111274453Y-82260000D01*
X111401043Y-82566372D01*
X111930839Y-83097093D01*
X112623405Y-83384672D01*
X113373305Y-83385326D01*
X114066372Y-83098957D01*
X114597093Y-82569161D01*
X114884672Y-81876595D01*
X114885326Y-81126695D01*
X114598957Y-80433628D01*
X114069161Y-79902907D01*
X113376595Y-79615328D01*
X112626695Y-79614674D01*
X111933628Y-79901043D01*
X111402907Y-80430839D01*
X111274532Y-80740000D01*
X104545257Y-80740000D01*
X104622833Y-80350000D01*
X104514559Y-79805671D01*
X104206222Y-79344211D01*
X103810801Y-79080000D01*
X104206222Y-78815789D01*
X104514559Y-78354329D01*
X104618194Y-77833320D01*
X111846285Y-77833320D01*
X111975533Y-78126123D01*
X112675806Y-78394388D01*
X113425435Y-78374250D01*
X114024467Y-78126123D01*
X114153715Y-77833320D01*
X113000000Y-76679605D01*
X111846285Y-77833320D01*
X104618194Y-77833320D01*
X104622833Y-77810000D01*
X104514559Y-77265671D01*
X104206222Y-76804211D01*
X103811170Y-76540246D01*
X103827262Y-76535525D01*
X104261191Y-76185986D01*
X104266752Y-76175806D01*
X111105612Y-76175806D01*
X111125750Y-76925435D01*
X111373877Y-77524467D01*
X111666680Y-77653715D01*
X112820395Y-76500000D01*
X113179605Y-76500000D01*
X114333320Y-77653715D01*
X114626123Y-77524467D01*
X114894388Y-76824194D01*
X114874250Y-76074565D01*
X114626123Y-75475533D01*
X114333320Y-75346285D01*
X113179605Y-76500000D01*
X112820395Y-76500000D01*
X111666680Y-75346285D01*
X111373877Y-75475533D01*
X111105612Y-76175806D01*
X104266752Y-76175806D01*
X104528327Y-75696996D01*
X104545010Y-75617060D01*
X104422852Y-75397000D01*
X102937000Y-75397000D01*
X102937000Y-75417000D01*
X102683000Y-75417000D01*
X102683000Y-75397000D01*
X101197148Y-75397000D01*
X101074990Y-75617060D01*
X101091673Y-75696996D01*
X101358809Y-76185986D01*
X101792738Y-76535525D01*
X101808830Y-76540246D01*
X101413778Y-76804211D01*
X101105441Y-77265671D01*
X100997167Y-77810000D01*
X101105441Y-78354329D01*
X101413778Y-78815789D01*
X101809199Y-79080000D01*
X101457080Y-79315278D01*
X100544601Y-78402799D01*
X100298039Y-78238052D01*
X100007200Y-78180200D01*
X96929195Y-78180200D01*
X97002833Y-77810000D01*
X96894559Y-77265671D01*
X96586222Y-76804211D01*
X96191170Y-76540246D01*
X96207262Y-76535525D01*
X96641191Y-76185986D01*
X96908327Y-75696996D01*
X96925010Y-75617060D01*
X96802852Y-75397000D01*
X95317000Y-75397000D01*
X95317000Y-75417000D01*
X95063000Y-75417000D01*
X95063000Y-75397000D01*
X93577148Y-75397000D01*
X93454990Y-75617060D01*
X93471673Y-75696996D01*
X93738809Y-76185986D01*
X94172738Y-76535525D01*
X94188830Y-76540246D01*
X93793778Y-76804211D01*
X93485441Y-77265671D01*
X93377167Y-77810000D01*
X93450805Y-78180200D01*
X90515396Y-78180200D01*
X90604709Y-77994791D01*
X90607358Y-77979026D01*
X90486217Y-77747000D01*
X89127000Y-77747000D01*
X89127000Y-77767000D01*
X88873000Y-77767000D01*
X88873000Y-77747000D01*
X87513783Y-77747000D01*
X87392642Y-77979026D01*
X87395291Y-77994791D01*
X87484604Y-78180200D01*
X79067357Y-78180200D01*
X79214206Y-77826547D01*
X79214774Y-77176306D01*
X78966462Y-76575345D01*
X78901231Y-76510000D01*
X81594900Y-76510000D01*
X81885739Y-76452148D01*
X82132301Y-76287401D01*
X83768802Y-74650900D01*
X87402008Y-74650900D01*
X87316655Y-75080000D01*
X87430729Y-75653489D01*
X87755585Y-76139670D01*
X88065069Y-76346461D01*
X87649268Y-76717964D01*
X87395291Y-77245209D01*
X87392642Y-77260974D01*
X87513783Y-77493000D01*
X88873000Y-77493000D01*
X88873000Y-77473000D01*
X89127000Y-77473000D01*
X89127000Y-77493000D01*
X90486217Y-77493000D01*
X90607358Y-77260974D01*
X90604709Y-77245209D01*
X90350732Y-76717964D01*
X89934931Y-76346461D01*
X90244415Y-76139670D01*
X90569271Y-75653489D01*
X90666103Y-75166680D01*
X111846285Y-75166680D01*
X113000000Y-76320395D01*
X114153715Y-75166680D01*
X114024467Y-74873877D01*
X113324194Y-74605612D01*
X112574565Y-74625750D01*
X111975533Y-74873877D01*
X111846285Y-75166680D01*
X90666103Y-75166680D01*
X90683345Y-75080000D01*
X90597992Y-74650900D01*
X93576620Y-74650900D01*
X93471673Y-74843004D01*
X93454990Y-74922940D01*
X93577148Y-75143000D01*
X95063000Y-75143000D01*
X95063000Y-75123000D01*
X95317000Y-75123000D01*
X95317000Y-75143000D01*
X96802852Y-75143000D01*
X96925010Y-74922940D01*
X96908327Y-74843004D01*
X96803380Y-74650900D01*
X101196620Y-74650900D01*
X101091673Y-74843004D01*
X101074990Y-74922940D01*
X101197148Y-75143000D01*
X102683000Y-75143000D01*
X102683000Y-75123000D01*
X102937000Y-75123000D01*
X102937000Y-75143000D01*
X104422852Y-75143000D01*
X104545010Y-74922940D01*
X104528327Y-74843004D01*
X104423380Y-74650900D01*
X110609100Y-74650900D01*
X110899939Y-74593048D01*
X111146501Y-74428301D01*
X112317255Y-73257547D01*
X112623405Y-73384672D01*
X113373305Y-73385326D01*
X114066372Y-73098957D01*
X114597093Y-72569161D01*
X114884672Y-71876595D01*
X114885326Y-71126695D01*
X114598957Y-70433628D01*
X114069161Y-69902907D01*
X113376595Y-69615328D01*
X112626695Y-69614674D01*
X111933628Y-69901043D01*
X111402907Y-70430839D01*
X111115328Y-71123405D01*
X111114674Y-71873305D01*
X111242509Y-72182689D01*
X110294298Y-73130900D01*
X104533773Y-73130900D01*
X104545010Y-73077060D01*
X104422852Y-72857000D01*
X102937000Y-72857000D01*
X102937000Y-72877000D01*
X102683000Y-72877000D01*
X102683000Y-72857000D01*
X101197148Y-72857000D01*
X101074990Y-73077060D01*
X101086227Y-73130900D01*
X96913773Y-73130900D01*
X96925010Y-73077060D01*
X96802852Y-72857000D01*
X95317000Y-72857000D01*
X95317000Y-72877000D01*
X95063000Y-72877000D01*
X95063000Y-72857000D01*
X93577148Y-72857000D01*
X93454990Y-73077060D01*
X93466227Y-73130900D01*
X90557637Y-73130900D01*
X90569271Y-73113489D01*
X90683345Y-72540000D01*
X90597952Y-72110700D01*
X93576729Y-72110700D01*
X93471673Y-72303004D01*
X93454990Y-72382940D01*
X93577148Y-72603000D01*
X95063000Y-72603000D01*
X95063000Y-72583000D01*
X95317000Y-72583000D01*
X95317000Y-72603000D01*
X96802852Y-72603000D01*
X96925010Y-72382940D01*
X96908327Y-72303004D01*
X96803271Y-72110700D01*
X101196729Y-72110700D01*
X101091673Y-72303004D01*
X101074990Y-72382940D01*
X101197148Y-72603000D01*
X102683000Y-72603000D01*
X102683000Y-72583000D01*
X102937000Y-72583000D01*
X102937000Y-72603000D01*
X104422852Y-72603000D01*
X104545010Y-72382940D01*
X104528327Y-72303004D01*
X104423271Y-72110700D01*
X108149300Y-72110700D01*
X108440139Y-72052848D01*
X108686701Y-71888101D01*
X112317255Y-68257547D01*
X112623405Y-68384672D01*
X113373305Y-68385326D01*
X114066372Y-68098957D01*
X114597093Y-67569161D01*
X114884672Y-66876595D01*
X114885326Y-66126695D01*
X114598957Y-65433628D01*
X114069161Y-64902907D01*
X113376595Y-64615328D01*
X112626695Y-64614674D01*
X111933628Y-64901043D01*
X111402907Y-65430839D01*
X111115328Y-66123405D01*
X111114674Y-66873305D01*
X111242509Y-67182689D01*
X107834498Y-70590700D01*
X104543129Y-70590700D01*
X104622833Y-70190000D01*
X104514559Y-69645671D01*
X104286821Y-69304837D01*
X106055079Y-67536579D01*
X106225245Y-67281906D01*
X106285000Y-66981500D01*
X106285000Y-49715217D01*
X106566372Y-49598957D01*
X107097093Y-49069161D01*
X107125811Y-49000000D01*
X109290000Y-49000000D01*
X109496286Y-50037072D01*
X110083741Y-50916259D01*
X110962928Y-51503714D01*
X112000000Y-51710000D01*
X113037072Y-51503714D01*
X113916259Y-50916259D01*
X114503714Y-50037072D01*
X114710000Y-49000000D01*
X114503714Y-47962928D01*
X113916259Y-47083741D01*
X113037072Y-46496286D01*
X112000000Y-46290000D01*
X110962928Y-46496286D01*
X110083741Y-47083741D01*
X109496286Y-47962928D01*
X109290000Y-49000000D01*
X107125811Y-49000000D01*
X107384672Y-48376595D01*
X107385326Y-47626695D01*
X107098957Y-46933628D01*
X106569161Y-46402907D01*
X105876595Y-46115328D01*
X105126695Y-46114674D01*
X104433628Y-46401043D01*
X103902907Y-46930839D01*
X103615328Y-47623405D01*
X103614674Y-48373305D01*
X103901043Y-49066372D01*
X104430839Y-49597093D01*
X104715000Y-49715087D01*
X104715000Y-66656342D01*
X104414869Y-66956473D01*
X104206222Y-66644211D01*
X103810801Y-66380000D01*
X104206222Y-66115789D01*
X104514559Y-65654329D01*
X104622833Y-65110000D01*
X104514559Y-64565671D01*
X104206222Y-64104211D01*
X103744762Y-63795874D01*
X103200433Y-63687600D01*
X102419567Y-63687600D01*
X101875238Y-63795874D01*
X101413778Y-64104211D01*
X101412550Y-64106048D01*
X101322701Y-64016199D01*
X101076139Y-63851452D01*
X100785300Y-63793600D01*
X96683579Y-63793600D01*
X96584890Y-63726169D01*
X96333000Y-63675160D01*
X95386362Y-63675160D01*
X90370979Y-58659777D01*
X90185010Y-58209697D01*
X89975658Y-57999979D01*
X90183629Y-57792370D01*
X90396757Y-57279100D01*
X90397242Y-56723339D01*
X90185010Y-56209697D01*
X89975658Y-55999979D01*
X90183629Y-55792370D01*
X90396757Y-55279100D01*
X90397242Y-54723339D01*
X90185010Y-54209697D01*
X89792370Y-53816371D01*
X89279100Y-53603243D01*
X88723339Y-53602758D01*
X88209697Y-53814990D01*
X87816371Y-54207630D01*
X87603243Y-54720900D01*
X87602758Y-55276661D01*
X87814990Y-55790303D01*
X88024342Y-56000021D01*
X87816371Y-56207630D01*
X87603243Y-56720900D01*
X87602758Y-57276661D01*
X87814990Y-57790303D01*
X88024342Y-58000021D01*
X87816371Y-58207630D01*
X87603243Y-58720900D01*
X87602758Y-59276661D01*
X87814990Y-59790303D01*
X88207630Y-60183629D01*
X88473727Y-60294122D01*
X89000000Y-60820395D01*
X89014143Y-60806253D01*
X89193748Y-60985858D01*
X89179605Y-61000000D01*
X89980213Y-61800608D01*
X90222397Y-61731143D01*
X90409144Y-61207698D01*
X90390168Y-60828570D01*
X93524340Y-63962742D01*
X93450569Y-64070710D01*
X93399560Y-64322600D01*
X93399560Y-65777300D01*
X86189602Y-65777300D01*
X84355901Y-63943599D01*
X84109339Y-63778852D01*
X83818500Y-63721000D01*
X79425702Y-63721000D01*
X80370801Y-62775901D01*
X80535548Y-62529339D01*
X80593400Y-62238500D01*
X80593400Y-61980213D01*
X88199392Y-61980213D01*
X88268857Y-62222397D01*
X88792302Y-62409144D01*
X89347368Y-62381362D01*
X89731143Y-62222397D01*
X89800608Y-61980213D01*
X89000000Y-61179605D01*
X88199392Y-61980213D01*
X80593400Y-61980213D01*
X80593400Y-60792302D01*
X87590856Y-60792302D01*
X87618638Y-61347368D01*
X87777603Y-61731143D01*
X88019787Y-61800608D01*
X88820395Y-61000000D01*
X88019787Y-60199392D01*
X87777603Y-60268857D01*
X87590856Y-60792302D01*
X80593400Y-60792302D01*
X80593400Y-60423400D01*
X80535548Y-60132561D01*
X80370801Y-59885999D01*
X80053158Y-59568356D01*
X80118600Y-59239359D01*
X80118600Y-59180641D01*
X80004526Y-58607152D01*
X79679670Y-58120971D01*
X79193489Y-57796115D01*
X78620000Y-57682041D01*
X78046511Y-57796115D01*
X77560330Y-58120971D01*
X77350000Y-58435752D01*
X77139670Y-58120971D01*
X76653489Y-57796115D01*
X76080000Y-57682041D01*
X75506511Y-57796115D01*
X75020330Y-58120971D01*
X74810000Y-58435752D01*
X74599670Y-58120971D01*
X74113489Y-57796115D01*
X73540000Y-57682041D01*
X72966511Y-57796115D01*
X72480330Y-58120971D01*
X72264336Y-58444228D01*
X72206821Y-58321510D01*
X71774947Y-57927312D01*
X71359026Y-57755042D01*
X71127000Y-57876183D01*
X71127000Y-59083000D01*
X71147000Y-59083000D01*
X71147000Y-59337000D01*
X71127000Y-59337000D01*
X71127000Y-59357000D01*
X70873000Y-59357000D01*
X70873000Y-59337000D01*
X69665531Y-59337000D01*
X69545032Y-59569027D01*
X69613071Y-59714200D01*
X66235300Y-59714200D01*
X66235300Y-58850973D01*
X69545032Y-58850973D01*
X69665531Y-59083000D01*
X70873000Y-59083000D01*
X70873000Y-57876183D01*
X70640974Y-57755042D01*
X70225053Y-57927312D01*
X69793179Y-58321510D01*
X69545032Y-58850973D01*
X66235300Y-58850973D01*
X66235300Y-56975800D01*
X66177448Y-56684961D01*
X66012701Y-56438399D01*
X65585300Y-56010998D01*
X65585300Y-55597440D01*
X66000000Y-55597440D01*
X66235317Y-55553162D01*
X66451441Y-55414090D01*
X66593127Y-55206725D01*
X66616139Y-55202148D01*
X66862701Y-55037401D01*
X74123000Y-47777102D01*
X74123000Y-50750000D01*
X74133006Y-50799410D01*
X74161447Y-50841035D01*
X74203841Y-50868315D01*
X74250000Y-50877000D01*
X86000000Y-50877000D01*
X86049410Y-50866994D01*
X86091035Y-50838553D01*
X86118315Y-50796159D01*
X86127000Y-50750000D01*
X86127000Y-49821750D01*
X88401000Y-49821750D01*
X88401000Y-50170309D01*
X88497673Y-50403698D01*
X88676301Y-50582327D01*
X88909690Y-50679000D01*
X89766250Y-50679000D01*
X89925000Y-50520250D01*
X89925000Y-49663000D01*
X90179000Y-49663000D01*
X90179000Y-50520250D01*
X90337750Y-50679000D01*
X91194310Y-50679000D01*
X91427699Y-50582327D01*
X91606327Y-50403698D01*
X91703000Y-50170309D01*
X91703000Y-49821750D01*
X91544250Y-49663000D01*
X90179000Y-49663000D01*
X89925000Y-49663000D01*
X88559750Y-49663000D01*
X88401000Y-49821750D01*
X86127000Y-49821750D01*
X86127000Y-48010000D01*
X88443573Y-48010000D01*
X88571910Y-48209441D01*
X88784110Y-48354431D01*
X88974569Y-48393000D01*
X88909690Y-48393000D01*
X88676301Y-48489673D01*
X88497673Y-48668302D01*
X88401000Y-48901691D01*
X88401000Y-49250250D01*
X88559750Y-49409000D01*
X89925000Y-49409000D01*
X89925000Y-49389000D01*
X90179000Y-49389000D01*
X90179000Y-49409000D01*
X91544250Y-49409000D01*
X91703000Y-49250250D01*
X91703000Y-48901691D01*
X91606327Y-48668302D01*
X91427699Y-48489673D01*
X91194310Y-48393000D01*
X91134113Y-48393000D01*
X91303317Y-48361162D01*
X91519441Y-48222090D01*
X91569370Y-48149016D01*
X94030590Y-48149016D01*
X94086271Y-48379611D01*
X94569078Y-48547622D01*
X95079428Y-48518083D01*
X95413729Y-48379611D01*
X95415251Y-48373305D01*
X98614674Y-48373305D01*
X98901043Y-49066372D01*
X99430839Y-49597093D01*
X100123405Y-49884672D01*
X100873305Y-49885326D01*
X101566372Y-49598957D01*
X102097093Y-49069161D01*
X102384672Y-48376595D01*
X102385326Y-47626695D01*
X102098957Y-46933628D01*
X101569161Y-46402907D01*
X100876595Y-46115328D01*
X100126695Y-46114674D01*
X99433628Y-46401043D01*
X98902907Y-46930839D01*
X98615328Y-47623405D01*
X98614674Y-48373305D01*
X95415251Y-48373305D01*
X95469410Y-48149016D01*
X94750000Y-47429605D01*
X94030590Y-48149016D01*
X91569370Y-48149016D01*
X91664431Y-48009890D01*
X91715440Y-47758000D01*
X91715440Y-47069078D01*
X93452378Y-47069078D01*
X93481917Y-47579428D01*
X93620389Y-47913729D01*
X93850984Y-47969410D01*
X94570395Y-47250000D01*
X94929605Y-47250000D01*
X95649016Y-47969410D01*
X95879611Y-47913729D01*
X96047622Y-47430922D01*
X96018083Y-46920572D01*
X95879611Y-46586271D01*
X95649016Y-46530590D01*
X94929605Y-47250000D01*
X94570395Y-47250000D01*
X93850984Y-46530590D01*
X93620389Y-46586271D01*
X93452378Y-47069078D01*
X91715440Y-47069078D01*
X91715440Y-46742000D01*
X91671162Y-46506683D01*
X91532090Y-46290559D01*
X91319890Y-46145569D01*
X91131686Y-46107457D01*
X91303317Y-46075162D01*
X91519441Y-45936090D01*
X91664356Y-45724000D01*
X93553904Y-45724000D01*
X93635910Y-45851441D01*
X93848110Y-45996431D01*
X94100000Y-46047440D01*
X94262385Y-46047440D01*
X94086271Y-46120389D01*
X94030590Y-46350984D01*
X94750000Y-47070395D01*
X95469410Y-46350984D01*
X95413729Y-46120389D01*
X95204098Y-46047440D01*
X95400000Y-46047440D01*
X95635317Y-46003162D01*
X95851441Y-45864090D01*
X95996431Y-45651890D01*
X96047440Y-45400000D01*
X96047440Y-44100000D01*
X96003162Y-43864683D01*
X95903626Y-43710000D01*
X114930069Y-43710000D01*
X115871023Y-43897167D01*
G36*
X74123000Y-43750000D02*
X74123000Y-45630153D01*
X74114999Y-45635499D01*
X66278647Y-53471851D01*
X66251890Y-53453569D01*
X66000000Y-53402560D01*
X65585300Y-53402560D01*
X65585300Y-53347440D01*
X66000000Y-53347440D01*
X66235317Y-53303162D01*
X66451441Y-53164090D01*
X66596431Y-52951890D01*
X66647440Y-52700000D01*
X66647440Y-51800000D01*
X66603162Y-51564683D01*
X66464090Y-51348559D01*
X66251890Y-51203569D01*
X66000000Y-51152560D01*
X65500000Y-51152560D01*
X65264683Y-51196838D01*
X65048559Y-51335910D01*
X65000866Y-51405711D01*
X64994224Y-51395388D01*
X64952148Y-51183860D01*
X64787401Y-50937299D01*
X61539701Y-47689599D01*
X61293139Y-47524852D01*
X61002300Y-47467000D01*
X43404800Y-47467000D01*
X43113960Y-47524852D01*
X42867399Y-47689599D01*
X41134099Y-49422899D01*
X40969352Y-49669461D01*
X40911500Y-49960300D01*
X40911500Y-74581500D01*
X40969352Y-74872339D01*
X41134099Y-75118901D01*
X45447263Y-79432065D01*
X45165891Y-79488033D01*
X44712672Y-79790865D01*
X44409840Y-80244084D01*
X44303500Y-80778693D01*
X44303500Y-81522307D01*
X44409840Y-82056916D01*
X44712672Y-82510135D01*
X45165891Y-82812967D01*
X45700500Y-82919307D01*
X46235109Y-82812967D01*
X46688328Y-82510135D01*
X46970500Y-82087836D01*
X47252672Y-82510135D01*
X47705891Y-82812967D01*
X48240500Y-82919307D01*
X48775109Y-82812967D01*
X49228328Y-82510135D01*
X49510500Y-82087836D01*
X49792672Y-82510135D01*
X50245891Y-82812967D01*
X50780500Y-82919307D01*
X50826052Y-82910246D01*
X50462599Y-83273699D01*
X50318767Y-83488960D01*
X49984000Y-83488960D01*
X49748683Y-83533238D01*
X49532559Y-83672310D01*
X49387569Y-83884510D01*
X49336560Y-84136400D01*
X49336560Y-85863600D01*
X49380838Y-86098917D01*
X49519910Y-86315041D01*
X49732110Y-86460031D01*
X49773439Y-86468400D01*
X49755585Y-86480330D01*
X49430729Y-86966511D01*
X49316655Y-87540000D01*
X49430729Y-88113489D01*
X49755585Y-88599670D01*
X50065069Y-88806461D01*
X49649268Y-89177964D01*
X49395291Y-89705209D01*
X49392642Y-89720974D01*
X49513783Y-89953000D01*
X50873000Y-89953000D01*
X50873000Y-89933000D01*
X51127000Y-89933000D01*
X51127000Y-89953000D01*
X52486217Y-89953000D01*
X52607358Y-89720974D01*
X52604709Y-89705209D01*
X52499126Y-89486022D01*
X74603399Y-89486022D01*
X74627459Y-90135817D01*
X74829835Y-90624398D01*
X75096637Y-90722997D01*
X76069195Y-89750440D01*
X76428405Y-89750440D01*
X77400963Y-90722997D01*
X77667765Y-90624398D01*
X77894201Y-90014858D01*
X77874620Y-89486022D01*
X81105799Y-89486022D01*
X81129859Y-90135817D01*
X81332235Y-90624398D01*
X81599037Y-90722997D01*
X82571595Y-89750440D01*
X82930805Y-89750440D01*
X83903363Y-90722997D01*
X84170165Y-90624398D01*
X84396601Y-90014858D01*
X84372541Y-89365063D01*
X84170165Y-88876482D01*
X83903363Y-88777883D01*
X82930805Y-89750440D01*
X82571595Y-89750440D01*
X81599037Y-88777883D01*
X81332235Y-88876482D01*
X81105799Y-89486022D01*
X77874620Y-89486022D01*
X77870141Y-89365063D01*
X77667765Y-88876482D01*
X77400963Y-88777883D01*
X76428405Y-89750440D01*
X76069195Y-89750440D01*
X75096637Y-88777883D01*
X74829835Y-88876482D01*
X74603399Y-89486022D01*
X52499126Y-89486022D01*
X52350732Y-89177964D01*
X51934931Y-88806461D01*
X52244415Y-88599670D01*
X52245345Y-88598277D01*
X75276243Y-88598277D01*
X76248800Y-89570835D01*
X77221357Y-88598277D01*
X81778643Y-88598277D01*
X82751200Y-89570835D01*
X83723757Y-88598277D01*
X83664905Y-88439026D01*
X87392642Y-88439026D01*
X87395291Y-88454791D01*
X87649268Y-88982036D01*
X88085680Y-89371954D01*
X88638087Y-89565184D01*
X88873000Y-89420924D01*
X88873000Y-88207000D01*
X89127000Y-88207000D01*
X89127000Y-89420924D01*
X89361913Y-89565184D01*
X89914320Y-89371954D01*
X90350732Y-88982036D01*
X90604709Y-88454791D01*
X90607358Y-88439026D01*
X90486217Y-88207000D01*
X89127000Y-88207000D01*
X88873000Y-88207000D01*
X87513783Y-88207000D01*
X87392642Y-88439026D01*
X83664905Y-88439026D01*
X83625158Y-88331475D01*
X83015618Y-88105039D01*
X82365823Y-88129099D01*
X81877242Y-88331475D01*
X81778643Y-88598277D01*
X77221357Y-88598277D01*
X77122758Y-88331475D01*
X76513218Y-88105039D01*
X75863423Y-88129099D01*
X75374842Y-88331475D01*
X75276243Y-88598277D01*
X52245345Y-88598277D01*
X52444648Y-88300000D01*
X66594700Y-88300000D01*
X66885539Y-88242148D01*
X67132101Y-88077401D01*
X72681440Y-82528062D01*
X73105891Y-82811672D01*
X73640500Y-82918012D01*
X73937569Y-82858921D01*
X74850649Y-83772001D01*
X75097211Y-83936748D01*
X75224919Y-83962151D01*
X74863954Y-84322487D01*
X74614594Y-84923013D01*
X74614026Y-85573254D01*
X74862338Y-86174215D01*
X75321727Y-86634406D01*
X75922253Y-86883766D01*
X76572494Y-86884334D01*
X77173455Y-86636022D01*
X77633646Y-86176633D01*
X77703004Y-86009600D01*
X81296720Y-86009600D01*
X81364738Y-86174215D01*
X81824127Y-86634406D01*
X82424653Y-86883766D01*
X83074894Y-86884334D01*
X83675855Y-86636022D01*
X84136046Y-86176633D01*
X84385406Y-85576107D01*
X84385974Y-84925866D01*
X84137662Y-84324905D01*
X83807933Y-83994600D01*
X85113798Y-83994600D01*
X87196599Y-86077401D01*
X87443161Y-86242148D01*
X87527968Y-86259017D01*
X87755585Y-86599670D01*
X88065069Y-86806461D01*
X87649268Y-87177964D01*
X87395291Y-87705209D01*
X87392642Y-87720974D01*
X87513783Y-87953000D01*
X88873000Y-87953000D01*
X88873000Y-87933000D01*
X89127000Y-87933000D01*
X89127000Y-87953000D01*
X90486217Y-87953000D01*
X90607358Y-87720974D01*
X90604709Y-87705209D01*
X90350732Y-87177964D01*
X89934931Y-86806461D01*
X90244415Y-86599670D01*
X90277161Y-86550663D01*
X93240000Y-89513502D01*
X93240000Y-91671951D01*
X92226485Y-92090727D01*
X91343826Y-92971847D01*
X90865546Y-94123674D01*
X90865053Y-94688308D01*
X90852560Y-94750000D01*
X90852560Y-102290000D01*
X89147440Y-102290000D01*
X89147440Y-94750000D01*
X89135058Y-94684197D01*
X89135543Y-94129146D01*
X88659273Y-92976485D01*
X87778153Y-92093826D01*
X86626326Y-91615546D01*
X85379146Y-91614457D01*
X84226485Y-92090727D01*
X83343826Y-92971847D01*
X82865546Y-94123674D01*
X82865053Y-94688308D01*
X82852560Y-94750000D01*
X82852560Y-102290000D01*
X81147440Y-102290000D01*
X81147440Y-94750000D01*
X81135058Y-94684197D01*
X81135543Y-94129146D01*
X80659273Y-92976485D01*
X79778153Y-92093826D01*
X78626326Y-91615546D01*
X77379146Y-91614457D01*
X76226485Y-92090727D01*
X75343826Y-92971847D01*
X74865546Y-94123674D01*
X74865053Y-94688308D01*
X74852560Y-94750000D01*
X74852560Y-102290000D01*
X73147440Y-102290000D01*
X73147440Y-94750000D01*
X73135058Y-94684197D01*
X73135543Y-94129146D01*
X72659273Y-92976485D01*
X71778153Y-92093826D01*
X70626326Y-91615546D01*
X69379146Y-91614457D01*
X68226485Y-92090727D01*
X67343826Y-92971847D01*
X66865546Y-94123674D01*
X66865053Y-94688308D01*
X66852560Y-94750000D01*
X66852560Y-102290000D01*
X65147440Y-102290000D01*
X65147440Y-94750000D01*
X65135058Y-94684197D01*
X65135543Y-94129146D01*
X64659273Y-92976485D01*
X63778153Y-92093826D01*
X62626326Y-91615546D01*
X61379146Y-91614457D01*
X60226485Y-92090727D01*
X59343826Y-92971847D01*
X58865546Y-94123674D01*
X58865053Y-94688308D01*
X58852560Y-94750000D01*
X58852560Y-102290000D01*
X57147440Y-102290000D01*
X57147440Y-94750000D01*
X57135058Y-94684197D01*
X57135543Y-94129146D01*
X56659273Y-92976485D01*
X55778153Y-92093826D01*
X54626326Y-91615546D01*
X53379146Y-91614457D01*
X52226485Y-92090727D01*
X51343826Y-92971847D01*
X50865546Y-94123674D01*
X50865053Y-94688308D01*
X50852560Y-94750000D01*
X50852560Y-102290000D01*
X49135000Y-102290000D01*
X49135000Y-99035750D01*
X48976250Y-98877000D01*
X46127000Y-98877000D01*
X46127000Y-98897000D01*
X45873000Y-98897000D01*
X45873000Y-98877000D01*
X43023750Y-98877000D01*
X42865000Y-99035750D01*
X42865000Y-102249237D01*
X42128977Y-102102833D01*
X41390561Y-101609439D01*
X40897167Y-100871023D01*
X40710000Y-99930069D01*
X40710000Y-94127892D01*
X42864706Y-94127892D01*
X42865000Y-94750000D01*
X42865000Y-98464250D01*
X43023750Y-98623000D01*
X45873000Y-98623000D01*
X45873000Y-98603000D01*
X46127000Y-98603000D01*
X46127000Y-98623000D01*
X48976250Y-98623000D01*
X49135000Y-98464250D01*
X49135000Y-95372819D01*
X49135294Y-95372108D01*
X49135000Y-94749577D01*
X49135000Y-94623690D01*
X49134940Y-94623546D01*
X49134705Y-94124928D01*
X48658564Y-92975421D01*
X48235880Y-92693725D01*
X46814605Y-94115000D01*
X46455395Y-94115000D01*
X48056275Y-92514120D01*
X47774579Y-92091436D01*
X46622108Y-91614706D01*
X45374928Y-91615295D01*
X44225421Y-92091436D01*
X43943725Y-92514120D01*
X45544605Y-94115000D01*
X45185395Y-94115000D01*
X43764120Y-92693725D01*
X43341436Y-92975421D01*
X42864706Y-94127892D01*
X40710000Y-94127892D01*
X40710000Y-88000000D01*
X41290000Y-88000000D01*
X41496286Y-89037072D01*
X42083741Y-89916259D01*
X42962928Y-90503714D01*
X44000000Y-90710000D01*
X45037072Y-90503714D01*
X45133884Y-90439026D01*
X49392642Y-90439026D01*
X49395291Y-90454791D01*
X49649268Y-90982036D01*
X50085680Y-91371954D01*
X50638087Y-91565184D01*
X50873000Y-91420924D01*
X50873000Y-90207000D01*
X51127000Y-90207000D01*
X51127000Y-91420924D01*
X51361913Y-91565184D01*
X51914320Y-91371954D01*
X52350732Y-90982036D01*
X52388995Y-90902603D01*
X75276243Y-90902603D01*
X75374842Y-91169405D01*
X75984382Y-91395841D01*
X76634177Y-91371781D01*
X77122758Y-91169405D01*
X77221357Y-90902603D01*
X81778643Y-90902603D01*
X81877242Y-91169405D01*
X82486782Y-91395841D01*
X83136577Y-91371781D01*
X83625158Y-91169405D01*
X83723757Y-90902603D01*
X82751200Y-89930045D01*
X81778643Y-90902603D01*
X77221357Y-90902603D01*
X76248800Y-89930045D01*
X75276243Y-90902603D01*
X52388995Y-90902603D01*
X52604709Y-90454791D01*
X52607358Y-90439026D01*
X52486217Y-90207000D01*
X51127000Y-90207000D01*
X50873000Y-90207000D01*
X49513783Y-90207000D01*
X49392642Y-90439026D01*
X45133884Y-90439026D01*
X45916259Y-89916259D01*
X46503714Y-89037072D01*
X46710000Y-88000000D01*
X46503714Y-86962928D01*
X45916259Y-86083741D01*
X45037072Y-85496286D01*
X44000000Y-85290000D01*
X42962928Y-85496286D01*
X42083741Y-86083741D01*
X41496286Y-86962928D01*
X41290000Y-88000000D01*
X40710000Y-88000000D01*
X40710000Y-46069931D01*
X40897167Y-45128977D01*
X41390561Y-44390561D01*
X42128977Y-43897167D01*
X43069931Y-43710000D01*
X74130526Y-43710000D01*
X74123000Y-43750000D01*
X74123000Y-43750000D01*
G37*
X74123000Y-43750000D02*
X74123000Y-45630153D01*
X74114999Y-45635499D01*
X66278647Y-53471851D01*
X66251890Y-53453569D01*
X66000000Y-53402560D01*
X65585300Y-53402560D01*
X65585300Y-53347440D01*
X66000000Y-53347440D01*
X66235317Y-53303162D01*
X66451441Y-53164090D01*
X66596431Y-52951890D01*
X66647440Y-52700000D01*
X66647440Y-51800000D01*
X66603162Y-51564683D01*
X66464090Y-51348559D01*
X66251890Y-51203569D01*
X66000000Y-51152560D01*
X65500000Y-51152560D01*
X65264683Y-51196838D01*
X65048559Y-51335910D01*
X65000866Y-51405711D01*
X64994224Y-51395388D01*
X64952148Y-51183860D01*
X64787401Y-50937299D01*
X61539701Y-47689599D01*
X61293139Y-47524852D01*
X61002300Y-47467000D01*
X43404800Y-47467000D01*
X43113960Y-47524852D01*
X42867399Y-47689599D01*
X41134099Y-49422899D01*
X40969352Y-49669461D01*
X40911500Y-49960300D01*
X40911500Y-74581500D01*
X40969352Y-74872339D01*
X41134099Y-75118901D01*
X45447263Y-79432065D01*
X45165891Y-79488033D01*
X44712672Y-79790865D01*
X44409840Y-80244084D01*
X44303500Y-80778693D01*
X44303500Y-81522307D01*
X44409840Y-82056916D01*
X44712672Y-82510135D01*
X45165891Y-82812967D01*
X45700500Y-82919307D01*
X46235109Y-82812967D01*
X46688328Y-82510135D01*
X46970500Y-82087836D01*
X47252672Y-82510135D01*
X47705891Y-82812967D01*
X48240500Y-82919307D01*
X48775109Y-82812967D01*
X49228328Y-82510135D01*
X49510500Y-82087836D01*
X49792672Y-82510135D01*
X50245891Y-82812967D01*
X50780500Y-82919307D01*
X50826052Y-82910246D01*
X50462599Y-83273699D01*
X50318767Y-83488960D01*
X49984000Y-83488960D01*
X49748683Y-83533238D01*
X49532559Y-83672310D01*
X49387569Y-83884510D01*
X49336560Y-84136400D01*
X49336560Y-85863600D01*
X49380838Y-86098917D01*
X49519910Y-86315041D01*
X49732110Y-86460031D01*
X49773439Y-86468400D01*
X49755585Y-86480330D01*
X49430729Y-86966511D01*
X49316655Y-87540000D01*
X49430729Y-88113489D01*
X49755585Y-88599670D01*
X50065069Y-88806461D01*
X49649268Y-89177964D01*
X49395291Y-89705209D01*
X49392642Y-89720974D01*
X49513783Y-89953000D01*
X50873000Y-89953000D01*
X50873000Y-89933000D01*
X51127000Y-89933000D01*
X51127000Y-89953000D01*
X52486217Y-89953000D01*
X52607358Y-89720974D01*
X52604709Y-89705209D01*
X52499126Y-89486022D01*
X74603399Y-89486022D01*
X74627459Y-90135817D01*
X74829835Y-90624398D01*
X75096637Y-90722997D01*
X76069195Y-89750440D01*
X76428405Y-89750440D01*
X77400963Y-90722997D01*
X77667765Y-90624398D01*
X77894201Y-90014858D01*
X77874620Y-89486022D01*
X81105799Y-89486022D01*
X81129859Y-90135817D01*
X81332235Y-90624398D01*
X81599037Y-90722997D01*
X82571595Y-89750440D01*
X82930805Y-89750440D01*
X83903363Y-90722997D01*
X84170165Y-90624398D01*
X84396601Y-90014858D01*
X84372541Y-89365063D01*
X84170165Y-88876482D01*
X83903363Y-88777883D01*
X82930805Y-89750440D01*
X82571595Y-89750440D01*
X81599037Y-88777883D01*
X81332235Y-88876482D01*
X81105799Y-89486022D01*
X77874620Y-89486022D01*
X77870141Y-89365063D01*
X77667765Y-88876482D01*
X77400963Y-88777883D01*
X76428405Y-89750440D01*
X76069195Y-89750440D01*
X75096637Y-88777883D01*
X74829835Y-88876482D01*
X74603399Y-89486022D01*
X52499126Y-89486022D01*
X52350732Y-89177964D01*
X51934931Y-88806461D01*
X52244415Y-88599670D01*
X52245345Y-88598277D01*
X75276243Y-88598277D01*
X76248800Y-89570835D01*
X77221357Y-88598277D01*
X81778643Y-88598277D01*
X82751200Y-89570835D01*
X83723757Y-88598277D01*
X83664905Y-88439026D01*
X87392642Y-88439026D01*
X87395291Y-88454791D01*
X87649268Y-88982036D01*
X88085680Y-89371954D01*
X88638087Y-89565184D01*
X88873000Y-89420924D01*
X88873000Y-88207000D01*
X89127000Y-88207000D01*
X89127000Y-89420924D01*
X89361913Y-89565184D01*
X89914320Y-89371954D01*
X90350732Y-88982036D01*
X90604709Y-88454791D01*
X90607358Y-88439026D01*
X90486217Y-88207000D01*
X89127000Y-88207000D01*
X88873000Y-88207000D01*
X87513783Y-88207000D01*
X87392642Y-88439026D01*
X83664905Y-88439026D01*
X83625158Y-88331475D01*
X83015618Y-88105039D01*
X82365823Y-88129099D01*
X81877242Y-88331475D01*
X81778643Y-88598277D01*
X77221357Y-88598277D01*
X77122758Y-88331475D01*
X76513218Y-88105039D01*
X75863423Y-88129099D01*
X75374842Y-88331475D01*
X75276243Y-88598277D01*
X52245345Y-88598277D01*
X52444648Y-88300000D01*
X66594700Y-88300000D01*
X66885539Y-88242148D01*
X67132101Y-88077401D01*
X72681440Y-82528062D01*
X73105891Y-82811672D01*
X73640500Y-82918012D01*
X73937569Y-82858921D01*
X74850649Y-83772001D01*
X75097211Y-83936748D01*
X75224919Y-83962151D01*
X74863954Y-84322487D01*
X74614594Y-84923013D01*
X74614026Y-85573254D01*
X74862338Y-86174215D01*
X75321727Y-86634406D01*
X75922253Y-86883766D01*
X76572494Y-86884334D01*
X77173455Y-86636022D01*
X77633646Y-86176633D01*
X77703004Y-86009600D01*
X81296720Y-86009600D01*
X81364738Y-86174215D01*
X81824127Y-86634406D01*
X82424653Y-86883766D01*
X83074894Y-86884334D01*
X83675855Y-86636022D01*
X84136046Y-86176633D01*
X84385406Y-85576107D01*
X84385974Y-84925866D01*
X84137662Y-84324905D01*
X83807933Y-83994600D01*
X85113798Y-83994600D01*
X87196599Y-86077401D01*
X87443161Y-86242148D01*
X87527968Y-86259017D01*
X87755585Y-86599670D01*
X88065069Y-86806461D01*
X87649268Y-87177964D01*
X87395291Y-87705209D01*
X87392642Y-87720974D01*
X87513783Y-87953000D01*
X88873000Y-87953000D01*
X88873000Y-87933000D01*
X89127000Y-87933000D01*
X89127000Y-87953000D01*
X90486217Y-87953000D01*
X90607358Y-87720974D01*
X90604709Y-87705209D01*
X90350732Y-87177964D01*
X89934931Y-86806461D01*
X90244415Y-86599670D01*
X90277161Y-86550663D01*
X93240000Y-89513502D01*
X93240000Y-91671951D01*
X92226485Y-92090727D01*
X91343826Y-92971847D01*
X90865546Y-94123674D01*
X90865053Y-94688308D01*
X90852560Y-94750000D01*
X90852560Y-102290000D01*
X89147440Y-102290000D01*
X89147440Y-94750000D01*
X89135058Y-94684197D01*
X89135543Y-94129146D01*
X88659273Y-92976485D01*
X87778153Y-92093826D01*
X86626326Y-91615546D01*
X85379146Y-91614457D01*
X84226485Y-92090727D01*
X83343826Y-92971847D01*
X82865546Y-94123674D01*
X82865053Y-94688308D01*
X82852560Y-94750000D01*
X82852560Y-102290000D01*
X81147440Y-102290000D01*
X81147440Y-94750000D01*
X81135058Y-94684197D01*
X81135543Y-94129146D01*
X80659273Y-92976485D01*
X79778153Y-92093826D01*
X78626326Y-91615546D01*
X77379146Y-91614457D01*
X76226485Y-92090727D01*
X75343826Y-92971847D01*
X74865546Y-94123674D01*
X74865053Y-94688308D01*
X74852560Y-94750000D01*
X74852560Y-102290000D01*
X73147440Y-102290000D01*
X73147440Y-94750000D01*
X73135058Y-94684197D01*
X73135543Y-94129146D01*
X72659273Y-92976485D01*
X71778153Y-92093826D01*
X70626326Y-91615546D01*
X69379146Y-91614457D01*
X68226485Y-92090727D01*
X67343826Y-92971847D01*
X66865546Y-94123674D01*
X66865053Y-94688308D01*
X66852560Y-94750000D01*
X66852560Y-102290000D01*
X65147440Y-102290000D01*
X65147440Y-94750000D01*
X65135058Y-94684197D01*
X65135543Y-94129146D01*
X64659273Y-92976485D01*
X63778153Y-92093826D01*
X62626326Y-91615546D01*
X61379146Y-91614457D01*
X60226485Y-92090727D01*
X59343826Y-92971847D01*
X58865546Y-94123674D01*
X58865053Y-94688308D01*
X58852560Y-94750000D01*
X58852560Y-102290000D01*
X57147440Y-102290000D01*
X57147440Y-94750000D01*
X57135058Y-94684197D01*
X57135543Y-94129146D01*
X56659273Y-92976485D01*
X55778153Y-92093826D01*
X54626326Y-91615546D01*
X53379146Y-91614457D01*
X52226485Y-92090727D01*
X51343826Y-92971847D01*
X50865546Y-94123674D01*
X50865053Y-94688308D01*
X50852560Y-94750000D01*
X50852560Y-102290000D01*
X49135000Y-102290000D01*
X49135000Y-99035750D01*
X48976250Y-98877000D01*
X46127000Y-98877000D01*
X46127000Y-98897000D01*
X45873000Y-98897000D01*
X45873000Y-98877000D01*
X43023750Y-98877000D01*
X42865000Y-99035750D01*
X42865000Y-102249237D01*
X42128977Y-102102833D01*
X41390561Y-101609439D01*
X40897167Y-100871023D01*
X40710000Y-99930069D01*
X40710000Y-94127892D01*
X42864706Y-94127892D01*
X42865000Y-94750000D01*
X42865000Y-98464250D01*
X43023750Y-98623000D01*
X45873000Y-98623000D01*
X45873000Y-98603000D01*
X46127000Y-98603000D01*
X46127000Y-98623000D01*
X48976250Y-98623000D01*
X49135000Y-98464250D01*
X49135000Y-95372819D01*
X49135294Y-95372108D01*
X49135000Y-94749577D01*
X49135000Y-94623690D01*
X49134940Y-94623546D01*
X49134705Y-94124928D01*
X48658564Y-92975421D01*
X48235880Y-92693725D01*
X46814605Y-94115000D01*
X46455395Y-94115000D01*
X48056275Y-92514120D01*
X47774579Y-92091436D01*
X46622108Y-91614706D01*
X45374928Y-91615295D01*
X44225421Y-92091436D01*
X43943725Y-92514120D01*
X45544605Y-94115000D01*
X45185395Y-94115000D01*
X43764120Y-92693725D01*
X43341436Y-92975421D01*
X42864706Y-94127892D01*
X40710000Y-94127892D01*
X40710000Y-88000000D01*
X41290000Y-88000000D01*
X41496286Y-89037072D01*
X42083741Y-89916259D01*
X42962928Y-90503714D01*
X44000000Y-90710000D01*
X45037072Y-90503714D01*
X45133884Y-90439026D01*
X49392642Y-90439026D01*
X49395291Y-90454791D01*
X49649268Y-90982036D01*
X50085680Y-91371954D01*
X50638087Y-91565184D01*
X50873000Y-91420924D01*
X50873000Y-90207000D01*
X51127000Y-90207000D01*
X51127000Y-91420924D01*
X51361913Y-91565184D01*
X51914320Y-91371954D01*
X52350732Y-90982036D01*
X52388995Y-90902603D01*
X75276243Y-90902603D01*
X75374842Y-91169405D01*
X75984382Y-91395841D01*
X76634177Y-91371781D01*
X77122758Y-91169405D01*
X77221357Y-90902603D01*
X81778643Y-90902603D01*
X81877242Y-91169405D01*
X82486782Y-91395841D01*
X83136577Y-91371781D01*
X83625158Y-91169405D01*
X83723757Y-90902603D01*
X82751200Y-89930045D01*
X81778643Y-90902603D01*
X77221357Y-90902603D01*
X76248800Y-89930045D01*
X75276243Y-90902603D01*
X52388995Y-90902603D01*
X52604709Y-90454791D01*
X52607358Y-90439026D01*
X52486217Y-90207000D01*
X51127000Y-90207000D01*
X50873000Y-90207000D01*
X49513783Y-90207000D01*
X49392642Y-90439026D01*
X45133884Y-90439026D01*
X45916259Y-89916259D01*
X46503714Y-89037072D01*
X46710000Y-88000000D01*
X46503714Y-86962928D01*
X45916259Y-86083741D01*
X45037072Y-85496286D01*
X44000000Y-85290000D01*
X42962928Y-85496286D01*
X42083741Y-86083741D01*
X41496286Y-86962928D01*
X41290000Y-88000000D01*
X40710000Y-88000000D01*
X40710000Y-46069931D01*
X40897167Y-45128977D01*
X41390561Y-44390561D01*
X42128977Y-43897167D01*
X43069931Y-43710000D01*
X74130526Y-43710000D01*
X74123000Y-43750000D01*
G36*
X78847500Y-81023500D02*
X78867500Y-81023500D01*
X78867500Y-81277500D01*
X78847500Y-81277500D01*
X78847500Y-81297500D01*
X78593500Y-81297500D01*
X78593500Y-81277500D01*
X78573500Y-81277500D01*
X78573500Y-81023500D01*
X78593500Y-81023500D01*
X78593500Y-81003500D01*
X78847500Y-81003500D01*
X78847500Y-81023500D01*
X78847500Y-81023500D01*
G37*
X78847500Y-81023500D02*
X78867500Y-81023500D01*
X78867500Y-81277500D01*
X78847500Y-81277500D01*
X78847500Y-81297500D01*
X78593500Y-81297500D01*
X78593500Y-81277500D01*
X78573500Y-81277500D01*
X78573500Y-81023500D01*
X78593500Y-81023500D01*
X78593500Y-81003500D01*
X78847500Y-81003500D01*
X78847500Y-81023500D01*
G36*
X73767500Y-65783500D02*
X73787500Y-65783500D01*
X73787500Y-66037500D01*
X73767500Y-66037500D01*
X73767500Y-66057500D01*
X73513500Y-66057500D01*
X73513500Y-66037500D01*
X73493500Y-66037500D01*
X73493500Y-65783500D01*
X73513500Y-65783500D01*
X73513500Y-65763500D01*
X73767500Y-65763500D01*
X73767500Y-65783500D01*
X73767500Y-65783500D01*
G37*
X73767500Y-65783500D02*
X73787500Y-65783500D01*
X73787500Y-66037500D01*
X73767500Y-66037500D01*
X73767500Y-66057500D01*
X73513500Y-66057500D01*
X73513500Y-66037500D01*
X73493500Y-66037500D01*
X73493500Y-65783500D01*
X73513500Y-65783500D01*
X73513500Y-65763500D01*
X73767500Y-65763500D01*
X73767500Y-65783500D01*
G36*
X49117086Y-49100997D02*
X48875276Y-49683341D01*
X48874725Y-50313893D01*
X49115519Y-50896657D01*
X49560997Y-51342914D01*
X50143341Y-51584724D01*
X50773893Y-51585275D01*
X51356657Y-51344481D01*
X51461867Y-51239455D01*
X51511673Y-51359698D01*
X51690301Y-51538327D01*
X51923690Y-51635000D01*
X52714250Y-51635000D01*
X52873000Y-51476250D01*
X52873000Y-50127000D01*
X53127000Y-50127000D01*
X53127000Y-51476250D01*
X53285750Y-51635000D01*
X54076310Y-51635000D01*
X54309699Y-51538327D01*
X54488327Y-51359698D01*
X54585000Y-51126309D01*
X54585000Y-50285750D01*
X54426250Y-50127000D01*
X53127000Y-50127000D01*
X52873000Y-50127000D01*
X52853000Y-50127000D01*
X52853000Y-49873000D01*
X52873000Y-49873000D01*
X52873000Y-49853000D01*
X53127000Y-49853000D01*
X53127000Y-49873000D01*
X54426250Y-49873000D01*
X54585000Y-49714250D01*
X54585000Y-48987000D01*
X56231282Y-48987000D01*
X56117086Y-49100997D01*
X55875276Y-49683341D01*
X55874725Y-50313893D01*
X56115519Y-50896657D01*
X56560997Y-51342914D01*
X57143341Y-51584724D01*
X57773893Y-51585275D01*
X58356657Y-51344481D01*
X58461867Y-51239455D01*
X58511673Y-51359698D01*
X58690301Y-51538327D01*
X58923690Y-51635000D01*
X59714250Y-51635000D01*
X59873000Y-51476250D01*
X59873000Y-50127000D01*
X60127000Y-50127000D01*
X60127000Y-51476250D01*
X60285750Y-51635000D01*
X61076310Y-51635000D01*
X61309699Y-51538327D01*
X61488327Y-51359698D01*
X61585000Y-51126309D01*
X61585000Y-50285750D01*
X61426250Y-50127000D01*
X60127000Y-50127000D01*
X59873000Y-50127000D01*
X59853000Y-50127000D01*
X59853000Y-49873000D01*
X59873000Y-49873000D01*
X59873000Y-49853000D01*
X60127000Y-49853000D01*
X60127000Y-49873000D01*
X61426250Y-49873000D01*
X61499874Y-49799376D01*
X63377473Y-51676975D01*
X63352560Y-51800000D01*
X63352560Y-52700000D01*
X63396838Y-52935317D01*
X63535910Y-53151441D01*
X63748110Y-53296431D01*
X64000000Y-53347440D01*
X64065300Y-53347440D01*
X64065300Y-53402560D01*
X64000000Y-53402560D01*
X63764683Y-53446838D01*
X63548559Y-53585910D01*
X63403569Y-53798110D01*
X63352560Y-54050000D01*
X63352560Y-54950000D01*
X63396838Y-55185317D01*
X63535910Y-55401441D01*
X63748110Y-55546431D01*
X64000000Y-55597440D01*
X64065300Y-55597440D01*
X64065300Y-56325800D01*
X64123152Y-56616639D01*
X64287899Y-56863201D01*
X64715300Y-57290602D01*
X64715300Y-57964341D01*
X64680922Y-57952378D01*
X64170572Y-57981917D01*
X63836271Y-58120389D01*
X63780590Y-58350984D01*
X64500000Y-59070395D01*
X64514143Y-59056253D01*
X64693748Y-59235858D01*
X64679605Y-59250000D01*
X64693748Y-59264143D01*
X64514143Y-59443748D01*
X64500000Y-59429605D01*
X63780590Y-60149016D01*
X63836271Y-60379611D01*
X63861616Y-60388431D01*
X63814275Y-60459282D01*
X63614683Y-60496838D01*
X63398559Y-60635910D01*
X63253569Y-60848110D01*
X63202560Y-61100000D01*
X63202560Y-62400000D01*
X63246838Y-62635317D01*
X63309824Y-62733200D01*
X52470598Y-62733200D01*
X52604709Y-62454791D01*
X52607358Y-62439026D01*
X52486217Y-62207000D01*
X51127000Y-62207000D01*
X51127000Y-62227000D01*
X50873000Y-62227000D01*
X50873000Y-62207000D01*
X49513783Y-62207000D01*
X49392642Y-62439026D01*
X49395291Y-62454791D01*
X49529402Y-62733200D01*
X48661500Y-62733200D01*
X48370661Y-62791052D01*
X48124099Y-62955799D01*
X46592838Y-64487060D01*
X46235109Y-64248033D01*
X45700500Y-64141693D01*
X45357900Y-64209840D01*
X45357900Y-63022602D01*
X46868801Y-61511701D01*
X47033548Y-61265140D01*
X47091400Y-60974300D01*
X47091400Y-59540000D01*
X49316655Y-59540000D01*
X49430729Y-60113489D01*
X49755585Y-60599670D01*
X50065069Y-60806461D01*
X49649268Y-61177964D01*
X49395291Y-61705209D01*
X49392642Y-61720974D01*
X49513783Y-61953000D01*
X50873000Y-61953000D01*
X50873000Y-61933000D01*
X51127000Y-61933000D01*
X51127000Y-61953000D01*
X52486217Y-61953000D01*
X52607358Y-61720974D01*
X52604709Y-61705209D01*
X52350732Y-61177964D01*
X51934931Y-60806461D01*
X52244415Y-60599670D01*
X52569271Y-60113489D01*
X52683345Y-59540000D01*
X52589673Y-59069078D01*
X63202378Y-59069078D01*
X63231917Y-59579428D01*
X63370389Y-59913729D01*
X63600984Y-59969410D01*
X64320395Y-59250000D01*
X63600984Y-58530590D01*
X63370389Y-58586271D01*
X63202378Y-59069078D01*
X52589673Y-59069078D01*
X52569271Y-58966511D01*
X52244415Y-58480330D01*
X52230087Y-58470757D01*
X52251317Y-58466762D01*
X52467441Y-58327690D01*
X52612431Y-58115490D01*
X52663440Y-57863600D01*
X52663440Y-56136400D01*
X52619162Y-55901083D01*
X52480090Y-55684959D01*
X52267890Y-55539969D01*
X52016000Y-55488960D01*
X49984000Y-55488960D01*
X49748683Y-55533238D01*
X49532559Y-55672310D01*
X49387569Y-55884510D01*
X49336560Y-56136400D01*
X49336560Y-57863600D01*
X49380838Y-58098917D01*
X49519910Y-58315041D01*
X49732110Y-58460031D01*
X49773439Y-58468400D01*
X49755585Y-58480330D01*
X49430729Y-58966511D01*
X49316655Y-59540000D01*
X47091400Y-59540000D01*
X47091400Y-52871400D01*
X47033548Y-52580561D01*
X46868801Y-52333999D01*
X46127002Y-51592200D01*
X46127002Y-51476252D01*
X46285750Y-51635000D01*
X47076310Y-51635000D01*
X47309699Y-51538327D01*
X47488327Y-51359698D01*
X47585000Y-51126309D01*
X47585000Y-50285750D01*
X47426250Y-50127000D01*
X46127000Y-50127000D01*
X46127000Y-50147000D01*
X45873000Y-50147000D01*
X45873000Y-50127000D01*
X45853000Y-50127000D01*
X45853000Y-49873000D01*
X45873000Y-49873000D01*
X45873000Y-49853000D01*
X46127000Y-49853000D01*
X46127000Y-49873000D01*
X47426250Y-49873000D01*
X47585000Y-49714250D01*
X47585000Y-48987000D01*
X49231282Y-48987000D01*
X49117086Y-49100997D01*
X49117086Y-49100997D01*
G37*
X49117086Y-49100997D02*
X48875276Y-49683341D01*
X48874725Y-50313893D01*
X49115519Y-50896657D01*
X49560997Y-51342914D01*
X50143341Y-51584724D01*
X50773893Y-51585275D01*
X51356657Y-51344481D01*
X51461867Y-51239455D01*
X51511673Y-51359698D01*
X51690301Y-51538327D01*
X51923690Y-51635000D01*
X52714250Y-51635000D01*
X52873000Y-51476250D01*
X52873000Y-50127000D01*
X53127000Y-50127000D01*
X53127000Y-51476250D01*
X53285750Y-51635000D01*
X54076310Y-51635000D01*
X54309699Y-51538327D01*
X54488327Y-51359698D01*
X54585000Y-51126309D01*
X54585000Y-50285750D01*
X54426250Y-50127000D01*
X53127000Y-50127000D01*
X52873000Y-50127000D01*
X52853000Y-50127000D01*
X52853000Y-49873000D01*
X52873000Y-49873000D01*
X52873000Y-49853000D01*
X53127000Y-49853000D01*
X53127000Y-49873000D01*
X54426250Y-49873000D01*
X54585000Y-49714250D01*
X54585000Y-48987000D01*
X56231282Y-48987000D01*
X56117086Y-49100997D01*
X55875276Y-49683341D01*
X55874725Y-50313893D01*
X56115519Y-50896657D01*
X56560997Y-51342914D01*
X57143341Y-51584724D01*
X57773893Y-51585275D01*
X58356657Y-51344481D01*
X58461867Y-51239455D01*
X58511673Y-51359698D01*
X58690301Y-51538327D01*
X58923690Y-51635000D01*
X59714250Y-51635000D01*
X59873000Y-51476250D01*
X59873000Y-50127000D01*
X60127000Y-50127000D01*
X60127000Y-51476250D01*
X60285750Y-51635000D01*
X61076310Y-51635000D01*
X61309699Y-51538327D01*
X61488327Y-51359698D01*
X61585000Y-51126309D01*
X61585000Y-50285750D01*
X61426250Y-50127000D01*
X60127000Y-50127000D01*
X59873000Y-50127000D01*
X59853000Y-50127000D01*
X59853000Y-49873000D01*
X59873000Y-49873000D01*
X59873000Y-49853000D01*
X60127000Y-49853000D01*
X60127000Y-49873000D01*
X61426250Y-49873000D01*
X61499874Y-49799376D01*
X63377473Y-51676975D01*
X63352560Y-51800000D01*
X63352560Y-52700000D01*
X63396838Y-52935317D01*
X63535910Y-53151441D01*
X63748110Y-53296431D01*
X64000000Y-53347440D01*
X64065300Y-53347440D01*
X64065300Y-53402560D01*
X64000000Y-53402560D01*
X63764683Y-53446838D01*
X63548559Y-53585910D01*
X63403569Y-53798110D01*
X63352560Y-54050000D01*
X63352560Y-54950000D01*
X63396838Y-55185317D01*
X63535910Y-55401441D01*
X63748110Y-55546431D01*
X64000000Y-55597440D01*
X64065300Y-55597440D01*
X64065300Y-56325800D01*
X64123152Y-56616639D01*
X64287899Y-56863201D01*
X64715300Y-57290602D01*
X64715300Y-57964341D01*
X64680922Y-57952378D01*
X64170572Y-57981917D01*
X63836271Y-58120389D01*
X63780590Y-58350984D01*
X64500000Y-59070395D01*
X64514143Y-59056253D01*
X64693748Y-59235858D01*
X64679605Y-59250000D01*
X64693748Y-59264143D01*
X64514143Y-59443748D01*
X64500000Y-59429605D01*
X63780590Y-60149016D01*
X63836271Y-60379611D01*
X63861616Y-60388431D01*
X63814275Y-60459282D01*
X63614683Y-60496838D01*
X63398559Y-60635910D01*
X63253569Y-60848110D01*
X63202560Y-61100000D01*
X63202560Y-62400000D01*
X63246838Y-62635317D01*
X63309824Y-62733200D01*
X52470598Y-62733200D01*
X52604709Y-62454791D01*
X52607358Y-62439026D01*
X52486217Y-62207000D01*
X51127000Y-62207000D01*
X51127000Y-62227000D01*
X50873000Y-62227000D01*
X50873000Y-62207000D01*
X49513783Y-62207000D01*
X49392642Y-62439026D01*
X49395291Y-62454791D01*
X49529402Y-62733200D01*
X48661500Y-62733200D01*
X48370661Y-62791052D01*
X48124099Y-62955799D01*
X46592838Y-64487060D01*
X46235109Y-64248033D01*
X45700500Y-64141693D01*
X45357900Y-64209840D01*
X45357900Y-63022602D01*
X46868801Y-61511701D01*
X47033548Y-61265140D01*
X47091400Y-60974300D01*
X47091400Y-59540000D01*
X49316655Y-59540000D01*
X49430729Y-60113489D01*
X49755585Y-60599670D01*
X50065069Y-60806461D01*
X49649268Y-61177964D01*
X49395291Y-61705209D01*
X49392642Y-61720974D01*
X49513783Y-61953000D01*
X50873000Y-61953000D01*
X50873000Y-61933000D01*
X51127000Y-61933000D01*
X51127000Y-61953000D01*
X52486217Y-61953000D01*
X52607358Y-61720974D01*
X52604709Y-61705209D01*
X52350732Y-61177964D01*
X51934931Y-60806461D01*
X52244415Y-60599670D01*
X52569271Y-60113489D01*
X52683345Y-59540000D01*
X52589673Y-59069078D01*
X63202378Y-59069078D01*
X63231917Y-59579428D01*
X63370389Y-59913729D01*
X63600984Y-59969410D01*
X64320395Y-59250000D01*
X63600984Y-58530590D01*
X63370389Y-58586271D01*
X63202378Y-59069078D01*
X52589673Y-59069078D01*
X52569271Y-58966511D01*
X52244415Y-58480330D01*
X52230087Y-58470757D01*
X52251317Y-58466762D01*
X52467441Y-58327690D01*
X52612431Y-58115490D01*
X52663440Y-57863600D01*
X52663440Y-56136400D01*
X52619162Y-55901083D01*
X52480090Y-55684959D01*
X52267890Y-55539969D01*
X52016000Y-55488960D01*
X49984000Y-55488960D01*
X49748683Y-55533238D01*
X49532559Y-55672310D01*
X49387569Y-55884510D01*
X49336560Y-56136400D01*
X49336560Y-57863600D01*
X49380838Y-58098917D01*
X49519910Y-58315041D01*
X49732110Y-58460031D01*
X49773439Y-58468400D01*
X49755585Y-58480330D01*
X49430729Y-58966511D01*
X49316655Y-59540000D01*
X47091400Y-59540000D01*
X47091400Y-52871400D01*
X47033548Y-52580561D01*
X46868801Y-52333999D01*
X46127002Y-51592200D01*
X46127002Y-51476252D01*
X46285750Y-51635000D01*
X47076310Y-51635000D01*
X47309699Y-51538327D01*
X47488327Y-51359698D01*
X47585000Y-51126309D01*
X47585000Y-50285750D01*
X47426250Y-50127000D01*
X46127000Y-50127000D01*
X46127000Y-50147000D01*
X45873000Y-50147000D01*
X45873000Y-50127000D01*
X45853000Y-50127000D01*
X45853000Y-49873000D01*
X45873000Y-49873000D01*
X45873000Y-49853000D01*
X46127000Y-49853000D01*
X46127000Y-49873000D01*
X47426250Y-49873000D01*
X47585000Y-49714250D01*
X47585000Y-48987000D01*
X49231282Y-48987000D01*
X49117086Y-49100997D01*
G36*
X84873000Y-44932174D02*
X84823699Y-44882873D01*
X84590310Y-44786200D01*
X83733750Y-44786200D01*
X83575000Y-44944950D01*
X83575000Y-47123000D01*
X83595000Y-47123000D01*
X83595000Y-47377000D01*
X83575000Y-47377000D01*
X83575000Y-49555050D01*
X83733750Y-49713800D01*
X84590310Y-49713800D01*
X84823699Y-49617127D01*
X84873000Y-49567826D01*
X84873000Y-49873000D01*
X75627000Y-49873000D01*
X75627000Y-47535750D01*
X81797000Y-47535750D01*
X81797000Y-49205109D01*
X81893673Y-49438498D01*
X82072301Y-49617127D01*
X82305690Y-49713800D01*
X83162250Y-49713800D01*
X83321000Y-49555050D01*
X83321000Y-47377000D01*
X81955750Y-47377000D01*
X81797000Y-47535750D01*
X75627000Y-47535750D01*
X75627000Y-45294891D01*
X81797000Y-45294891D01*
X81797000Y-46964250D01*
X81955750Y-47123000D01*
X83321000Y-47123000D01*
X83321000Y-44944950D01*
X83162250Y-44786200D01*
X82305690Y-44786200D01*
X82072301Y-44882873D01*
X81893673Y-45061502D01*
X81797000Y-45294891D01*
X75627000Y-45294891D01*
X75627000Y-44627000D01*
X84873000Y-44627000D01*
X84873000Y-44932174D01*
X84873000Y-44932174D01*
G37*
X84873000Y-44932174D02*
X84823699Y-44882873D01*
X84590310Y-44786200D01*
X83733750Y-44786200D01*
X83575000Y-44944950D01*
X83575000Y-47123000D01*
X83595000Y-47123000D01*
X83595000Y-47377000D01*
X83575000Y-47377000D01*
X83575000Y-49555050D01*
X83733750Y-49713800D01*
X84590310Y-49713800D01*
X84823699Y-49617127D01*
X84873000Y-49567826D01*
X84873000Y-49873000D01*
X75627000Y-49873000D01*
X75627000Y-47535750D01*
X81797000Y-47535750D01*
X81797000Y-49205109D01*
X81893673Y-49438498D01*
X82072301Y-49617127D01*
X82305690Y-49713800D01*
X83162250Y-49713800D01*
X83321000Y-49555050D01*
X83321000Y-47377000D01*
X81955750Y-47377000D01*
X81797000Y-47535750D01*
X75627000Y-47535750D01*
X75627000Y-45294891D01*
X81797000Y-45294891D01*
X81797000Y-46964250D01*
X81955750Y-47123000D01*
X83321000Y-47123000D01*
X83321000Y-44944950D01*
X83162250Y-44786200D01*
X82305690Y-44786200D01*
X82072301Y-44882873D01*
X81893673Y-45061502D01*
X81797000Y-45294891D01*
X75627000Y-45294891D01*
X75627000Y-44627000D01*
X84873000Y-44627000D01*
X84873000Y-44932174D01*
M02*
