G04 #@! TF.FileFunction,Legend,Top*
%FSLAX46Y46*%
G04 Gerber Fmt 4.6, Leading zero omitted, Abs format (unit mm)*
G04 Created by KiCad (PCBNEW 4.0.3-stable) date 01/10/17 16:40:44*
%MOMM*%
%LPD*%
G01*
G04 APERTURE LIST*
%ADD10C,0.100000*%
%ADD11C,0.381000*%
%ADD12C,0.150000*%
%ADD13C,0.304800*%
%ADD14C,2.540000*%
%ADD15C,0.152400*%
G04 APERTURE END LIST*
D10*
X63857143Y-56452381D02*
X63285714Y-56452381D01*
X63571428Y-56452381D02*
X63571428Y-55452381D01*
X63476190Y-55595238D01*
X63380952Y-55690476D01*
X63285714Y-55738095D01*
X64809524Y-56452381D02*
X64238095Y-56452381D01*
X64523809Y-56452381D02*
X64523809Y-55452381D01*
X64428571Y-55595238D01*
X64333333Y-55690476D01*
X64238095Y-55738095D01*
X65761905Y-56452381D02*
X65190476Y-56452381D01*
X65476190Y-56452381D02*
X65476190Y-55452381D01*
X65380952Y-55595238D01*
X65285714Y-55690476D01*
X65190476Y-55738095D01*
X66095238Y-55452381D02*
X66761905Y-55452381D01*
X66333333Y-56452381D01*
X63178571Y-50535714D02*
X63178571Y-51202381D01*
X63178571Y-50630952D02*
X63226190Y-50583333D01*
X63321428Y-50535714D01*
X63464286Y-50535714D01*
X63559524Y-50583333D01*
X63607143Y-50678571D01*
X63607143Y-51202381D01*
X64511905Y-51202381D02*
X64511905Y-50678571D01*
X64464286Y-50583333D01*
X64369048Y-50535714D01*
X64178571Y-50535714D01*
X64083333Y-50583333D01*
X64511905Y-51154762D02*
X64416667Y-51202381D01*
X64178571Y-51202381D01*
X64083333Y-51154762D01*
X64035714Y-51059524D01*
X64035714Y-50964286D01*
X64083333Y-50869048D01*
X64178571Y-50821429D01*
X64416667Y-50821429D01*
X64511905Y-50773810D01*
X64988095Y-50535714D02*
X64988095Y-51202381D01*
X64988095Y-50630952D02*
X65035714Y-50583333D01*
X65130952Y-50535714D01*
X65273810Y-50535714D01*
X65369048Y-50583333D01*
X65416667Y-50678571D01*
X65416667Y-51202381D01*
X66035714Y-51202381D02*
X65940476Y-51154762D01*
X65892857Y-51107143D01*
X65845238Y-51011905D01*
X65845238Y-50726190D01*
X65892857Y-50630952D01*
X65940476Y-50583333D01*
X66035714Y-50535714D01*
X66178572Y-50535714D01*
X66273810Y-50583333D01*
X66321429Y-50630952D01*
X66369048Y-50726190D01*
X66369048Y-51011905D01*
X66321429Y-51107143D01*
X66273810Y-51154762D01*
X66178572Y-51202381D01*
X66035714Y-51202381D01*
X57250000Y-46750000D02*
X57250000Y-43500000D01*
X60250000Y-44750000D02*
X60250000Y-46750000D01*
X53000000Y-44750000D02*
X53000000Y-46750000D01*
X50250000Y-46750000D02*
X50250000Y-43500000D01*
X46000000Y-46250000D02*
X46000000Y-46750000D01*
X46000000Y-44750000D02*
X46000000Y-46250000D01*
X43250000Y-46750000D02*
X43250000Y-43500000D01*
X106928571Y-82857142D02*
X106928571Y-83714285D01*
X106928571Y-83285713D02*
X105428571Y-83285713D01*
X105642857Y-83428570D01*
X105785714Y-83571428D01*
X105857143Y-83714285D01*
X105571429Y-82285714D02*
X105500000Y-82214285D01*
X105428571Y-82071428D01*
X105428571Y-81714285D01*
X105500000Y-81571428D01*
X105571429Y-81499999D01*
X105714286Y-81428571D01*
X105857143Y-81428571D01*
X106071429Y-81499999D01*
X106928571Y-82357142D01*
X106928571Y-81428571D01*
X105428571Y-81000000D02*
X106928571Y-80500000D01*
X105428571Y-80000000D01*
X105500000Y-77571429D02*
X105428571Y-77714286D01*
X105428571Y-77928572D01*
X105500000Y-78142857D01*
X105642857Y-78285715D01*
X105785714Y-78357143D01*
X106071429Y-78428572D01*
X106285714Y-78428572D01*
X106571429Y-78357143D01*
X106714286Y-78285715D01*
X106857143Y-78142857D01*
X106928571Y-77928572D01*
X106928571Y-77785715D01*
X106857143Y-77571429D01*
X106785714Y-77500000D01*
X106285714Y-77500000D01*
X106285714Y-77785715D01*
X106928571Y-76857143D02*
X105428571Y-76857143D01*
X106928571Y-76000000D01*
X105428571Y-76000000D01*
X106928571Y-75285714D02*
X105428571Y-75285714D01*
X105428571Y-74928571D01*
X105500000Y-74714286D01*
X105642857Y-74571428D01*
X105785714Y-74500000D01*
X106071429Y-74428571D01*
X106285714Y-74428571D01*
X106571429Y-74500000D01*
X106714286Y-74571428D01*
X106857143Y-74714286D01*
X106928571Y-74928571D01*
X106928571Y-75285714D01*
X106857143Y-72714286D02*
X106928571Y-72500000D01*
X106928571Y-72142857D01*
X106857143Y-72000000D01*
X106785714Y-71928571D01*
X106642857Y-71857143D01*
X106500000Y-71857143D01*
X106357143Y-71928571D01*
X106285714Y-72000000D01*
X106214286Y-72142857D01*
X106142857Y-72428571D01*
X106071429Y-72571429D01*
X106000000Y-72642857D01*
X105857143Y-72714286D01*
X105714286Y-72714286D01*
X105571429Y-72642857D01*
X105500000Y-72571429D01*
X105428571Y-72428571D01*
X105428571Y-72071429D01*
X105500000Y-71857143D01*
X106928571Y-71214286D02*
X105428571Y-71214286D01*
X105428571Y-70857143D01*
X105500000Y-70642858D01*
X105642857Y-70500000D01*
X105785714Y-70428572D01*
X106071429Y-70357143D01*
X106285714Y-70357143D01*
X106571429Y-70428572D01*
X106714286Y-70500000D01*
X106857143Y-70642858D01*
X106928571Y-70857143D01*
X106928571Y-71214286D01*
X106500000Y-69785715D02*
X106500000Y-69071429D01*
X106928571Y-69928572D02*
X105428571Y-69428572D01*
X106928571Y-68928572D01*
X106857143Y-67357144D02*
X106928571Y-67142858D01*
X106928571Y-66785715D01*
X106857143Y-66642858D01*
X106785714Y-66571429D01*
X106642857Y-66500001D01*
X106500000Y-66500001D01*
X106357143Y-66571429D01*
X106285714Y-66642858D01*
X106214286Y-66785715D01*
X106142857Y-67071429D01*
X106071429Y-67214287D01*
X106000000Y-67285715D01*
X105857143Y-67357144D01*
X105714286Y-67357144D01*
X105571429Y-67285715D01*
X105500000Y-67214287D01*
X105428571Y-67071429D01*
X105428571Y-66714287D01*
X105500000Y-66500001D01*
X106785714Y-65000001D02*
X106857143Y-65071430D01*
X106928571Y-65285716D01*
X106928571Y-65428573D01*
X106857143Y-65642858D01*
X106714286Y-65785716D01*
X106571429Y-65857144D01*
X106285714Y-65928573D01*
X106071429Y-65928573D01*
X105785714Y-65857144D01*
X105642857Y-65785716D01*
X105500000Y-65642858D01*
X105428571Y-65428573D01*
X105428571Y-65285716D01*
X105500000Y-65071430D01*
X105571429Y-65000001D01*
X106928571Y-63642858D02*
X106928571Y-64357144D01*
X105428571Y-64357144D01*
X90217132Y-92371192D02*
X89712056Y-92876268D01*
X90166624Y-93431852D01*
X90166625Y-93330837D01*
X90217132Y-93179314D01*
X90469671Y-92926776D01*
X90621194Y-92876269D01*
X90722209Y-92876268D01*
X90873731Y-92926776D01*
X91126269Y-93179314D01*
X91176777Y-93330837D01*
X91176777Y-93431852D01*
X91126269Y-93583375D01*
X90873731Y-93835913D01*
X90722209Y-93886421D01*
X90621193Y-93886421D01*
X90570685Y-92017639D02*
X91984899Y-92724746D01*
X91277792Y-91310532D01*
X82419163Y-93684391D02*
X82924239Y-93179314D01*
X82621193Y-94088451D02*
X81914086Y-92674238D01*
X83328300Y-93381345D01*
X83075762Y-91512562D02*
X82873731Y-91714593D01*
X82823224Y-91866116D01*
X82823224Y-91967132D01*
X82873731Y-92219669D01*
X83025254Y-92472208D01*
X83429315Y-92876269D01*
X83580838Y-92926776D01*
X83681853Y-92926777D01*
X83833376Y-92876268D01*
X84035407Y-92674238D01*
X84085914Y-92522715D01*
X84085914Y-92421700D01*
X84035407Y-92270177D01*
X83782868Y-92017639D01*
X83631346Y-91967131D01*
X83530331Y-91967132D01*
X83378808Y-92017639D01*
X83176777Y-92219669D01*
X83126269Y-92371193D01*
X83126269Y-92472207D01*
X83176777Y-92623731D01*
X58696955Y-94262690D02*
X57636294Y-93202030D01*
X57888833Y-92949491D01*
X58090863Y-92848477D01*
X58292894Y-92848476D01*
X58444416Y-92898984D01*
X58696955Y-93050507D01*
X58848478Y-93202030D01*
X59000001Y-93454569D01*
X59050509Y-93606091D01*
X59050508Y-93808122D01*
X58949493Y-94010152D01*
X58696955Y-94262690D01*
X59303047Y-92444416D02*
X59151523Y-92494924D01*
X59050508Y-92494923D01*
X58898985Y-92444416D01*
X58848478Y-92393908D01*
X58797970Y-92242385D01*
X58797970Y-92141370D01*
X58848478Y-91989846D01*
X59050508Y-91787816D01*
X59202031Y-91737309D01*
X59303047Y-91737309D01*
X59454569Y-91787817D01*
X59505076Y-91838324D01*
X59555584Y-91989846D01*
X59555584Y-92090862D01*
X59505077Y-92242385D01*
X59303047Y-92444416D01*
X59252538Y-92595939D01*
X59252539Y-92696954D01*
X59303046Y-92848477D01*
X59505076Y-93050507D01*
X59656600Y-93101014D01*
X59757615Y-93101015D01*
X59909138Y-93050507D01*
X60111168Y-92848476D01*
X60161676Y-92696954D01*
X60161676Y-92595938D01*
X60111168Y-92444416D01*
X59909138Y-92242385D01*
X59757615Y-92191877D01*
X59656600Y-92191877D01*
X59505077Y-92242385D01*
X41661548Y-93027792D02*
X41510025Y-93078299D01*
X41358502Y-93229822D01*
X41257487Y-93431852D01*
X41257487Y-93633883D01*
X41307995Y-93785406D01*
X41459518Y-94037945D01*
X41611040Y-94189467D01*
X41863579Y-94340990D01*
X42015101Y-94391498D01*
X42217132Y-94391497D01*
X42419162Y-94290482D01*
X42520177Y-94189467D01*
X42621193Y-93987437D01*
X42621193Y-93886421D01*
X42267640Y-93532868D01*
X42065609Y-93734899D01*
X43176777Y-93532868D02*
X42116117Y-92472207D01*
X43782868Y-92926776D01*
X42722208Y-91866116D01*
X44287945Y-92421700D02*
X43227285Y-91361039D01*
X43479823Y-91108501D01*
X43681853Y-91007487D01*
X43883884Y-91007486D01*
X44035407Y-91057994D01*
X44287946Y-91209517D01*
X44439468Y-91361039D01*
X44590991Y-91613578D01*
X44641499Y-91765101D01*
X44641498Y-91967132D01*
X44540483Y-92169161D01*
X44287945Y-92421700D01*
X74169163Y-93934391D02*
X74674239Y-93429314D01*
X74371193Y-94338451D02*
X73664086Y-92924238D01*
X75078300Y-93631345D01*
X74270178Y-92318146D02*
X74977285Y-91611039D01*
X75583376Y-93126268D01*
X50169163Y-94184391D02*
X50674239Y-93679314D01*
X50371193Y-94588451D02*
X49664086Y-93174238D01*
X51078300Y-93881345D01*
X50270178Y-92568146D02*
X50926777Y-91911547D01*
X50977285Y-92669162D01*
X51128808Y-92517639D01*
X51280331Y-92467132D01*
X51381346Y-92467131D01*
X51532868Y-92517639D01*
X51785407Y-92770177D01*
X51835914Y-92921700D01*
X51835914Y-93022715D01*
X51785407Y-93174238D01*
X51482360Y-93477284D01*
X51330838Y-93527792D01*
X51229823Y-93527791D01*
X65105964Y-93732360D02*
X65762563Y-93075761D01*
X65813071Y-93833376D01*
X65964594Y-93681852D01*
X66116117Y-93631345D01*
X66217132Y-93631345D01*
X66368655Y-93681852D01*
X66621193Y-93934391D01*
X66671701Y-94085913D01*
X66671701Y-94186929D01*
X66621193Y-94338451D01*
X66318147Y-94641497D01*
X66166624Y-94692005D01*
X66065609Y-94692005D01*
X66065609Y-92772715D02*
X67479822Y-93479822D01*
X66772715Y-92065609D01*
X67025254Y-91813070D02*
X67681852Y-91156472D01*
X67732360Y-91914086D01*
X67883883Y-91762563D01*
X68035407Y-91712056D01*
X68136422Y-91712055D01*
X68287944Y-91762563D01*
X68540482Y-92015101D01*
X68590990Y-92166624D01*
X68590990Y-92267640D01*
X68540482Y-92419162D01*
X68237436Y-92722208D01*
X68085914Y-92772716D01*
X67984899Y-92772715D01*
X86000000Y-77488095D02*
X85952381Y-77583333D01*
X85952381Y-77726190D01*
X86000000Y-77869048D01*
X86095238Y-77964286D01*
X86190476Y-78011905D01*
X86380952Y-78059524D01*
X86523810Y-78059524D01*
X86714286Y-78011905D01*
X86809524Y-77964286D01*
X86904762Y-77869048D01*
X86952381Y-77726190D01*
X86952381Y-77630952D01*
X86904762Y-77488095D01*
X86857143Y-77440476D01*
X86523810Y-77440476D01*
X86523810Y-77630952D01*
X85952381Y-75773809D02*
X85952381Y-76250000D01*
X86428571Y-76297619D01*
X86380952Y-76250000D01*
X86333333Y-76154762D01*
X86333333Y-75916666D01*
X86380952Y-75821428D01*
X86428571Y-75773809D01*
X86523810Y-75726190D01*
X86761905Y-75726190D01*
X86857143Y-75773809D01*
X86904762Y-75821428D01*
X86952381Y-75916666D01*
X86952381Y-76154762D01*
X86904762Y-76250000D01*
X86857143Y-76297619D01*
X85952381Y-75440476D02*
X86952381Y-75107143D01*
X85952381Y-74773809D01*
X86952381Y-73678571D02*
X85952381Y-73678571D01*
X85952381Y-73440476D01*
X86000000Y-73297618D01*
X86095238Y-73202380D01*
X86190476Y-73154761D01*
X86380952Y-73107142D01*
X86523810Y-73107142D01*
X86714286Y-73154761D01*
X86809524Y-73202380D01*
X86904762Y-73297618D01*
X86952381Y-73440476D01*
X86952381Y-73678571D01*
X86952381Y-72154761D02*
X86952381Y-72726190D01*
X86952381Y-72440476D02*
X85952381Y-72440476D01*
X86095238Y-72535714D01*
X86190476Y-72630952D01*
X86238095Y-72726190D01*
X86952381Y-70964285D02*
X85952381Y-70964285D01*
X85952381Y-70726190D01*
X86000000Y-70583332D01*
X86095238Y-70488094D01*
X86190476Y-70440475D01*
X86380952Y-70392856D01*
X86523810Y-70392856D01*
X86714286Y-70440475D01*
X86809524Y-70488094D01*
X86904762Y-70583332D01*
X86952381Y-70726190D01*
X86952381Y-70964285D01*
X85952381Y-69773809D02*
X85952381Y-69678570D01*
X86000000Y-69583332D01*
X86047619Y-69535713D01*
X86142857Y-69488094D01*
X86333333Y-69440475D01*
X86571429Y-69440475D01*
X86761905Y-69488094D01*
X86857143Y-69535713D01*
X86904762Y-69583332D01*
X86952381Y-69678570D01*
X86952381Y-69773809D01*
X86904762Y-69869047D01*
X86857143Y-69916666D01*
X86761905Y-69964285D01*
X86571429Y-70011904D01*
X86333333Y-70011904D01*
X86142857Y-69964285D01*
X86047619Y-69916666D01*
X86000000Y-69869047D01*
X85952381Y-69773809D01*
X85750000Y-88071428D02*
X85702381Y-88166666D01*
X85702381Y-88309523D01*
X85750000Y-88452381D01*
X85845238Y-88547619D01*
X85940476Y-88595238D01*
X86130952Y-88642857D01*
X86273810Y-88642857D01*
X86464286Y-88595238D01*
X86559524Y-88547619D01*
X86654762Y-88452381D01*
X86702381Y-88309523D01*
X86702381Y-88214285D01*
X86654762Y-88071428D01*
X86607143Y-88023809D01*
X86273810Y-88023809D01*
X86273810Y-88214285D01*
X85702381Y-86357142D02*
X85702381Y-86833333D01*
X86178571Y-86880952D01*
X86130952Y-86833333D01*
X86083333Y-86738095D01*
X86083333Y-86499999D01*
X86130952Y-86404761D01*
X86178571Y-86357142D01*
X86273810Y-86309523D01*
X86511905Y-86309523D01*
X86607143Y-86357142D01*
X86654762Y-86404761D01*
X86702381Y-86499999D01*
X86702381Y-86738095D01*
X86654762Y-86833333D01*
X86607143Y-86880952D01*
X85702381Y-86023809D02*
X86702381Y-85690476D01*
X85702381Y-85357142D01*
X86654762Y-84309523D02*
X86702381Y-84166666D01*
X86702381Y-83928570D01*
X86654762Y-83833332D01*
X86607143Y-83785713D01*
X86511905Y-83738094D01*
X86416667Y-83738094D01*
X86321429Y-83785713D01*
X86273810Y-83833332D01*
X86226190Y-83928570D01*
X86178571Y-84119047D01*
X86130952Y-84214285D01*
X86083333Y-84261904D01*
X85988095Y-84309523D01*
X85892857Y-84309523D01*
X85797619Y-84261904D01*
X85750000Y-84214285D01*
X85702381Y-84119047D01*
X85702381Y-83880951D01*
X85750000Y-83738094D01*
X86702381Y-83309523D02*
X86035714Y-83309523D01*
X85702381Y-83309523D02*
X85750000Y-83357142D01*
X85797619Y-83309523D01*
X85750000Y-83261904D01*
X85702381Y-83309523D01*
X85797619Y-83309523D01*
X86035714Y-82404761D02*
X86845238Y-82404761D01*
X86940476Y-82452380D01*
X86988095Y-82499999D01*
X87035714Y-82595238D01*
X87035714Y-82738095D01*
X86988095Y-82833333D01*
X86654762Y-82404761D02*
X86702381Y-82499999D01*
X86702381Y-82690476D01*
X86654762Y-82785714D01*
X86607143Y-82833333D01*
X86511905Y-82880952D01*
X86226190Y-82880952D01*
X86130952Y-82833333D01*
X86083333Y-82785714D01*
X86035714Y-82690476D01*
X86035714Y-82499999D01*
X86083333Y-82404761D01*
X47500000Y-90071428D02*
X47452381Y-90166666D01*
X47452381Y-90309523D01*
X47500000Y-90452381D01*
X47595238Y-90547619D01*
X47690476Y-90595238D01*
X47880952Y-90642857D01*
X48023810Y-90642857D01*
X48214286Y-90595238D01*
X48309524Y-90547619D01*
X48404762Y-90452381D01*
X48452381Y-90309523D01*
X48452381Y-90214285D01*
X48404762Y-90071428D01*
X48357143Y-90023809D01*
X48023810Y-90023809D01*
X48023810Y-90214285D01*
X47452381Y-88357142D02*
X47452381Y-88833333D01*
X47928571Y-88880952D01*
X47880952Y-88833333D01*
X47833333Y-88738095D01*
X47833333Y-88499999D01*
X47880952Y-88404761D01*
X47928571Y-88357142D01*
X48023810Y-88309523D01*
X48261905Y-88309523D01*
X48357143Y-88357142D01*
X48404762Y-88404761D01*
X48452381Y-88499999D01*
X48452381Y-88738095D01*
X48404762Y-88833333D01*
X48357143Y-88880952D01*
X47452381Y-88023809D02*
X48452381Y-87690476D01*
X47452381Y-87357142D01*
X48404762Y-86309523D02*
X48452381Y-86166666D01*
X48452381Y-85928570D01*
X48404762Y-85833332D01*
X48357143Y-85785713D01*
X48261905Y-85738094D01*
X48166667Y-85738094D01*
X48071429Y-85785713D01*
X48023810Y-85833332D01*
X47976190Y-85928570D01*
X47928571Y-86119047D01*
X47880952Y-86214285D01*
X47833333Y-86261904D01*
X47738095Y-86309523D01*
X47642857Y-86309523D01*
X47547619Y-86261904D01*
X47500000Y-86214285D01*
X47452381Y-86119047D01*
X47452381Y-85880951D01*
X47500000Y-85738094D01*
X48452381Y-85309523D02*
X47785714Y-85309523D01*
X47452381Y-85309523D02*
X47500000Y-85357142D01*
X47547619Y-85309523D01*
X47500000Y-85261904D01*
X47452381Y-85309523D01*
X47547619Y-85309523D01*
X47785714Y-84404761D02*
X48595238Y-84404761D01*
X48690476Y-84452380D01*
X48738095Y-84499999D01*
X48785714Y-84595238D01*
X48785714Y-84738095D01*
X48738095Y-84833333D01*
X48404762Y-84404761D02*
X48452381Y-84499999D01*
X48452381Y-84690476D01*
X48404762Y-84785714D01*
X48357143Y-84833333D01*
X48261905Y-84880952D01*
X47976190Y-84880952D01*
X47880952Y-84833333D01*
X47833333Y-84785714D01*
X47785714Y-84690476D01*
X47785714Y-84499999D01*
X47833333Y-84404761D01*
X47750000Y-61821428D02*
X47702381Y-61916666D01*
X47702381Y-62059523D01*
X47750000Y-62202381D01*
X47845238Y-62297619D01*
X47940476Y-62345238D01*
X48130952Y-62392857D01*
X48273810Y-62392857D01*
X48464286Y-62345238D01*
X48559524Y-62297619D01*
X48654762Y-62202381D01*
X48702381Y-62059523D01*
X48702381Y-61964285D01*
X48654762Y-61821428D01*
X48607143Y-61773809D01*
X48273810Y-61773809D01*
X48273810Y-61964285D01*
X47702381Y-60107142D02*
X47702381Y-60583333D01*
X48178571Y-60630952D01*
X48130952Y-60583333D01*
X48083333Y-60488095D01*
X48083333Y-60249999D01*
X48130952Y-60154761D01*
X48178571Y-60107142D01*
X48273810Y-60059523D01*
X48511905Y-60059523D01*
X48607143Y-60107142D01*
X48654762Y-60154761D01*
X48702381Y-60249999D01*
X48702381Y-60488095D01*
X48654762Y-60583333D01*
X48607143Y-60630952D01*
X47702381Y-59773809D02*
X48702381Y-59440476D01*
X47702381Y-59107142D01*
X48654762Y-58059523D02*
X48702381Y-57916666D01*
X48702381Y-57678570D01*
X48654762Y-57583332D01*
X48607143Y-57535713D01*
X48511905Y-57488094D01*
X48416667Y-57488094D01*
X48321429Y-57535713D01*
X48273810Y-57583332D01*
X48226190Y-57678570D01*
X48178571Y-57869047D01*
X48130952Y-57964285D01*
X48083333Y-58011904D01*
X47988095Y-58059523D01*
X47892857Y-58059523D01*
X47797619Y-58011904D01*
X47750000Y-57964285D01*
X47702381Y-57869047D01*
X47702381Y-57630951D01*
X47750000Y-57488094D01*
X48702381Y-57059523D02*
X48035714Y-57059523D01*
X47702381Y-57059523D02*
X47750000Y-57107142D01*
X47797619Y-57059523D01*
X47750000Y-57011904D01*
X47702381Y-57059523D01*
X47797619Y-57059523D01*
X48035714Y-56154761D02*
X48845238Y-56154761D01*
X48940476Y-56202380D01*
X48988095Y-56249999D01*
X49035714Y-56345238D01*
X49035714Y-56488095D01*
X48988095Y-56583333D01*
X48654762Y-56154761D02*
X48702381Y-56249999D01*
X48702381Y-56440476D01*
X48654762Y-56535714D01*
X48607143Y-56583333D01*
X48511905Y-56630952D01*
X48226190Y-56630952D01*
X48130952Y-56583333D01*
X48083333Y-56535714D01*
X48035714Y-56440476D01*
X48035714Y-56249999D01*
X48083333Y-56154761D01*
X115892857Y-99500000D02*
X115892857Y-99000000D01*
X116678571Y-98785714D02*
X116678571Y-99500000D01*
X115178571Y-99500000D01*
X115178571Y-98785714D01*
X116678571Y-97500000D02*
X115892857Y-97500000D01*
X115750000Y-97571429D01*
X115678571Y-97714286D01*
X115678571Y-98000000D01*
X115750000Y-98142857D01*
X116607143Y-97500000D02*
X116678571Y-97642857D01*
X116678571Y-98000000D01*
X116607143Y-98142857D01*
X116464286Y-98214286D01*
X116321429Y-98214286D01*
X116178571Y-98142857D01*
X116107143Y-98000000D01*
X116107143Y-97642857D01*
X116035714Y-97500000D01*
X116607143Y-96857143D02*
X116678571Y-96714286D01*
X116678571Y-96428571D01*
X116607143Y-96285714D01*
X116464286Y-96214286D01*
X116392857Y-96214286D01*
X116250000Y-96285714D01*
X116178571Y-96428571D01*
X116178571Y-96642857D01*
X116107143Y-96785714D01*
X115964286Y-96857143D01*
X115892857Y-96857143D01*
X115750000Y-96785714D01*
X115678571Y-96642857D01*
X115678571Y-96428571D01*
X115750000Y-96285714D01*
X115678571Y-95714285D02*
X116678571Y-95357142D01*
X115678571Y-95000000D02*
X116678571Y-95357142D01*
X117035714Y-95500000D01*
X117107143Y-95571428D01*
X117178571Y-95714285D01*
X116678571Y-93714285D02*
X116678571Y-94428571D01*
X115178571Y-94428571D01*
X116678571Y-92571428D02*
X115892857Y-92571428D01*
X115750000Y-92642857D01*
X115678571Y-92785714D01*
X115678571Y-93071428D01*
X115750000Y-93214285D01*
X116607143Y-92571428D02*
X116678571Y-92714285D01*
X116678571Y-93071428D01*
X116607143Y-93214285D01*
X116464286Y-93285714D01*
X116321429Y-93285714D01*
X116178571Y-93214285D01*
X116107143Y-93071428D01*
X116107143Y-92714285D01*
X116035714Y-92571428D01*
X116678571Y-91857142D02*
X115178571Y-91857142D01*
X115750000Y-91857142D02*
X115678571Y-91714285D01*
X115678571Y-91428571D01*
X115750000Y-91285714D01*
X115821429Y-91214285D01*
X115964286Y-91142856D01*
X116392857Y-91142856D01*
X116535714Y-91214285D01*
X116607143Y-91285714D01*
X116678571Y-91428571D01*
X116678571Y-91714285D01*
X116607143Y-91857142D01*
X115678571Y-89857142D02*
X116678571Y-89857142D01*
X115107143Y-90214285D02*
X116178571Y-90571428D01*
X116178571Y-89642856D01*
X116678571Y-89071428D02*
X115178571Y-89071428D01*
X116678571Y-88214285D02*
X115821429Y-88857142D01*
X115178571Y-88214285D02*
X116035714Y-89071428D01*
X116678571Y-87571428D02*
X115678571Y-87571428D01*
X115178571Y-87571428D02*
X115250000Y-87642857D01*
X115321429Y-87571428D01*
X115250000Y-87500000D01*
X115178571Y-87571428D01*
X115321429Y-87571428D01*
X116678571Y-86214285D02*
X115178571Y-86214285D01*
X116607143Y-86214285D02*
X116678571Y-86357142D01*
X116678571Y-86642856D01*
X116607143Y-86785714D01*
X116535714Y-86857142D01*
X116392857Y-86928571D01*
X115964286Y-86928571D01*
X115821429Y-86857142D01*
X115750000Y-86785714D01*
X115678571Y-86642856D01*
X115678571Y-86357142D01*
X115750000Y-86214285D01*
X116607143Y-85571428D02*
X116678571Y-85428571D01*
X116678571Y-85142856D01*
X116607143Y-84999999D01*
X116464286Y-84928571D01*
X116392857Y-84928571D01*
X116250000Y-84999999D01*
X116178571Y-85142856D01*
X116178571Y-85357142D01*
X116107143Y-85499999D01*
X115964286Y-85571428D01*
X115892857Y-85571428D01*
X115750000Y-85499999D01*
X115678571Y-85357142D01*
X115678571Y-85142856D01*
X115750000Y-84999999D01*
D11*
X79990500Y-74800500D02*
X85070500Y-74800500D01*
X79990500Y-72260500D02*
X85070500Y-72260500D01*
X82530500Y-77340500D02*
X82530500Y-69720500D01*
X85070500Y-77340500D02*
X79990500Y-77340500D01*
X79990500Y-77340500D02*
X79990500Y-69720500D01*
X79990500Y-69720500D02*
X85070500Y-69720500D01*
X41890500Y-82420500D02*
X85070500Y-82420500D01*
X85070500Y-64640500D02*
X41890500Y-64640500D01*
X85070500Y-64640500D02*
X85070500Y-82420500D01*
X41890500Y-64640500D02*
X41890500Y-82420500D01*
X85070500Y-81150500D02*
G75*
G03X85070500Y-81150500I-1270000J0D01*
G01*
X85070500Y-65910500D02*
G75*
G03X85070500Y-65910500I-1270000J0D01*
G01*
X44430500Y-81150500D02*
G75*
G03X44430500Y-81150500I-1270000J0D01*
G01*
X44430500Y-65910500D02*
G75*
G03X44430500Y-65910500I-1270000J0D01*
G01*
X44430500Y-79880500D02*
X82530500Y-79880500D01*
X82530500Y-67180500D02*
X44430500Y-67180500D01*
X44430500Y-64640500D02*
X44430500Y-67180500D01*
X44430500Y-79880500D02*
X44430500Y-82420500D01*
X82530500Y-82420500D02*
X82530500Y-79880500D01*
X82530500Y-64640500D02*
X82530500Y-67180500D01*
D12*
X49730000Y-86270000D02*
X49730000Y-91350000D01*
X49730000Y-91350000D02*
X52270000Y-91350000D01*
X52270000Y-91350000D02*
X52270000Y-86270000D01*
X52550000Y-83450000D02*
X52550000Y-85000000D01*
X52270000Y-86270000D02*
X49730000Y-86270000D01*
X49450000Y-85000000D02*
X49450000Y-83450000D01*
X49450000Y-83450000D02*
X52550000Y-83450000D01*
X47214888Y-48475096D02*
G75*
G03X47230000Y-51500000I-2484888J-1524904D01*
G01*
X47230000Y-48500000D02*
X47230000Y-51500000D01*
X47247936Y-50000000D02*
G75*
G03X47247936Y-50000000I-2517936J0D01*
G01*
X54214888Y-48475096D02*
G75*
G03X54230000Y-51500000I-2484888J-1524904D01*
G01*
X54230000Y-48500000D02*
X54230000Y-51500000D01*
X54247936Y-50000000D02*
G75*
G03X54247936Y-50000000I-2517936J0D01*
G01*
X61214888Y-48475096D02*
G75*
G03X61230000Y-51500000I-2484888J-1524904D01*
G01*
X61230000Y-48500000D02*
X61230000Y-51500000D01*
X61247936Y-50000000D02*
G75*
G03X61247936Y-50000000I-2517936J0D01*
G01*
X87730000Y-84270000D02*
X87730000Y-89350000D01*
X87730000Y-89350000D02*
X90270000Y-89350000D01*
X90270000Y-89350000D02*
X90270000Y-84270000D01*
X90550000Y-81450000D02*
X90550000Y-83000000D01*
X90270000Y-84270000D02*
X87730000Y-84270000D01*
X87450000Y-83000000D02*
X87450000Y-81450000D01*
X87450000Y-81450000D02*
X90550000Y-81450000D01*
X87730000Y-71270000D02*
X87730000Y-78890000D01*
X90270000Y-71270000D02*
X90270000Y-78890000D01*
X90550000Y-68450000D02*
X90550000Y-70000000D01*
X87730000Y-78890000D02*
X90270000Y-78890000D01*
X90270000Y-71270000D02*
X87730000Y-71270000D01*
X87450000Y-70000000D02*
X87450000Y-68450000D01*
X87450000Y-68450000D02*
X90550000Y-68450000D01*
D11*
X103000000Y-43900000D02*
X103000000Y-43400000D01*
X102500000Y-47900000D02*
G75*
G03X102500000Y-47900000I-2000000J0D01*
G01*
X107500000Y-47900000D02*
G75*
G03X107500000Y-47900000I-2000000J0D01*
G01*
X108000000Y-45400000D02*
X98000000Y-45400000D01*
X108000000Y-50300000D02*
X98000000Y-50300000D01*
X108000000Y-43900000D02*
X98000000Y-43900000D01*
X108000000Y-43400000D02*
X98000000Y-43400000D01*
X98000000Y-43400000D02*
X98000000Y-53200000D01*
X98000000Y-53200000D02*
X108000000Y-53200000D01*
X108000000Y-53200000D02*
X108000000Y-43400000D01*
X103000000Y-102100000D02*
X103000000Y-102600000D01*
X107500000Y-98100000D02*
G75*
G03X107500000Y-98100000I-2000000J0D01*
G01*
X102500000Y-98100000D02*
G75*
G03X102500000Y-98100000I-2000000J0D01*
G01*
X98000000Y-100600000D02*
X108000000Y-100600000D01*
X98000000Y-95700000D02*
X108000000Y-95700000D01*
X98000000Y-102100000D02*
X108000000Y-102100000D01*
X98000000Y-102600000D02*
X108000000Y-102600000D01*
X108000000Y-102600000D02*
X108000000Y-92800000D01*
X108000000Y-92800000D02*
X98000000Y-92800000D01*
X98000000Y-92800000D02*
X98000000Y-102600000D01*
D12*
X75040000Y-78770000D02*
X69960000Y-78770000D01*
X69960000Y-78770000D02*
X69960000Y-76230000D01*
X69960000Y-76230000D02*
X75040000Y-76230000D01*
X75040000Y-76230000D02*
X75040000Y-78770000D01*
X75040000Y-77500000D02*
X76310000Y-77500000D01*
X69960000Y-77500000D02*
X68690000Y-77500000D01*
X57540000Y-71020000D02*
X52460000Y-71020000D01*
X52460000Y-71020000D02*
X52460000Y-68480000D01*
X52460000Y-68480000D02*
X57540000Y-68480000D01*
X57540000Y-68480000D02*
X57540000Y-71020000D01*
X57540000Y-69750000D02*
X58810000Y-69750000D01*
X52460000Y-69750000D02*
X51190000Y-69750000D01*
X57540000Y-75020000D02*
X52460000Y-75020000D01*
X52460000Y-75020000D02*
X52460000Y-72480000D01*
X52460000Y-72480000D02*
X57540000Y-72480000D01*
X57540000Y-72480000D02*
X57540000Y-75020000D01*
X57540000Y-73750000D02*
X58810000Y-73750000D01*
X52460000Y-73750000D02*
X51190000Y-73750000D01*
X57290000Y-78770000D02*
X52210000Y-78770000D01*
X52210000Y-78770000D02*
X52210000Y-76230000D01*
X52210000Y-76230000D02*
X57290000Y-76230000D01*
X57290000Y-76230000D02*
X57290000Y-78770000D01*
X57290000Y-77500000D02*
X58560000Y-77500000D01*
X52210000Y-77500000D02*
X50940000Y-77500000D01*
X69960000Y-72730000D02*
X75040000Y-72730000D01*
X75040000Y-72730000D02*
X75040000Y-75270000D01*
X75040000Y-75270000D02*
X69960000Y-75270000D01*
X69960000Y-75270000D02*
X69960000Y-72730000D01*
X69960000Y-74000000D02*
X68690000Y-74000000D01*
X75040000Y-74000000D02*
X76310000Y-74000000D01*
X69960000Y-68480000D02*
X75040000Y-68480000D01*
X75040000Y-68480000D02*
X75040000Y-71020000D01*
X75040000Y-71020000D02*
X69960000Y-71020000D01*
X69960000Y-71020000D02*
X69960000Y-68480000D01*
X69960000Y-69750000D02*
X68690000Y-69750000D01*
X75040000Y-69750000D02*
X76310000Y-69750000D01*
D13*
X82548000Y-84452000D02*
X82548000Y-90548000D01*
X82548000Y-90548000D02*
X76452000Y-90548000D01*
X76452000Y-90548000D02*
X76452000Y-84452000D01*
X76452000Y-84452000D02*
X82548000Y-84452000D01*
D14*
X80303219Y-87500000D02*
G75*
G03X80303219Y-87500000I-803219J0D01*
G01*
D12*
X49730000Y-58270000D02*
X49730000Y-63350000D01*
X49730000Y-63350000D02*
X52270000Y-63350000D01*
X52270000Y-63350000D02*
X52270000Y-58270000D01*
X52550000Y-55450000D02*
X52550000Y-57000000D01*
X52270000Y-58270000D02*
X49730000Y-58270000D01*
X49450000Y-57000000D02*
X49450000Y-55450000D01*
X49450000Y-55450000D02*
X52550000Y-55450000D01*
X100270000Y-62570000D02*
X100270000Y-62570000D01*
X100270000Y-62570000D02*
X100270000Y-63840000D01*
X100270000Y-63840000D02*
X97730000Y-63840000D01*
X97730000Y-63840000D02*
X97730000Y-62570000D01*
X101540000Y-62570000D02*
X101540000Y-85430000D01*
X101540000Y-85430000D02*
X96460000Y-85430000D01*
X96460000Y-85430000D02*
X96460000Y-62570000D01*
X96460000Y-62570000D02*
X101540000Y-62570000D01*
D11*
X117100000Y-69000000D02*
X117600000Y-69000000D01*
X115100000Y-66500000D02*
G75*
G03X115100000Y-66500000I-2000000J0D01*
G01*
X115100000Y-71500000D02*
G75*
G03X115100000Y-71500000I-2000000J0D01*
G01*
X117100000Y-74000000D02*
X117600000Y-74000000D01*
X117100000Y-79000000D02*
X117600000Y-79000000D01*
X115100000Y-76500000D02*
G75*
G03X115100000Y-76500000I-2000000J0D01*
G01*
X115100000Y-81500000D02*
G75*
G03X115100000Y-81500000I-2000000J0D01*
G01*
X115600000Y-84000000D02*
X115600000Y-64000000D01*
X110700000Y-84000000D02*
X110700000Y-64000000D01*
X117100000Y-84000000D02*
X117100000Y-64000000D01*
X117600000Y-84000000D02*
X117600000Y-64000000D01*
X117600000Y-64000000D02*
X107800000Y-64000000D01*
X107800000Y-64000000D02*
X107800000Y-84000000D01*
X107800000Y-84000000D02*
X117600000Y-84000000D01*
D12*
X91300000Y-56200000D02*
X91300000Y-55000000D01*
X86700000Y-56100000D02*
X86700000Y-55200000D01*
X86050000Y-55150000D02*
X86700000Y-55150000D01*
X86700000Y-56050000D02*
X86700000Y-60850000D01*
X86050000Y-63150000D02*
X85900000Y-63150000D01*
X85900000Y-63150000D02*
X85900000Y-63000000D01*
X85900000Y-61000000D02*
X85900000Y-60850000D01*
X91000000Y-63150000D02*
X91150000Y-63150000D01*
X91150000Y-63150000D02*
X91300000Y-63150000D01*
X91300000Y-63150000D02*
X91300000Y-58000000D01*
X91300000Y-53000000D02*
X91300000Y-55100000D01*
X86050000Y-55150000D02*
X85900000Y-55150000D01*
X85900000Y-55150000D02*
X85900000Y-55000000D01*
X85900000Y-53000000D02*
X85900000Y-52850000D01*
X85900000Y-52850000D02*
X86050000Y-52850000D01*
X91000000Y-52850000D02*
X91300000Y-52850000D01*
X91300000Y-52850000D02*
X91300000Y-52950000D01*
X91300000Y-52950000D02*
X91300000Y-53000000D01*
X86700000Y-56250000D02*
X85900000Y-56250000D01*
X85900000Y-56250000D02*
X85900000Y-59750000D01*
X85900000Y-59750000D02*
X86700000Y-59750000D01*
X91300000Y-56050000D02*
X91300000Y-58000000D01*
X86050000Y-52850000D02*
X91000000Y-52850000D01*
X86050000Y-63150000D02*
X91000000Y-63150000D01*
X85900000Y-60850000D02*
X86700000Y-60850000D01*
X85900000Y-53000000D02*
X85900000Y-55000000D01*
X85900000Y-61000000D02*
X85900000Y-63000000D01*
X62001000Y-60425000D02*
X66999000Y-60425000D01*
X62009000Y-60285000D02*
X66991000Y-60285000D01*
X62025000Y-60145000D02*
X64405000Y-60145000D01*
X64595000Y-60145000D02*
X66975000Y-60145000D01*
X62049000Y-60005000D02*
X64010000Y-60005000D01*
X64990000Y-60005000D02*
X66951000Y-60005000D01*
X62082000Y-59865000D02*
X63843000Y-59865000D01*
X65157000Y-59865000D02*
X66918000Y-59865000D01*
X62123000Y-59725000D02*
X63736000Y-59725000D01*
X65264000Y-59725000D02*
X66877000Y-59725000D01*
X62173000Y-59585000D02*
X63665000Y-59585000D01*
X65335000Y-59585000D02*
X66827000Y-59585000D01*
X62234000Y-59445000D02*
X63621000Y-59445000D01*
X65379000Y-59445000D02*
X66766000Y-59445000D01*
X62304000Y-59305000D02*
X63602000Y-59305000D01*
X65398000Y-59305000D02*
X66696000Y-59305000D01*
X62386000Y-59165000D02*
X63604000Y-59165000D01*
X65396000Y-59165000D02*
X66614000Y-59165000D01*
X62481000Y-59025000D02*
X63629000Y-59025000D01*
X65371000Y-59025000D02*
X66519000Y-59025000D01*
X62592000Y-58885000D02*
X63677000Y-58885000D01*
X65323000Y-58885000D02*
X66408000Y-58885000D01*
X62720000Y-58745000D02*
X63755000Y-58745000D01*
X65245000Y-58745000D02*
X66280000Y-58745000D01*
X62869000Y-58605000D02*
X63872000Y-58605000D01*
X65128000Y-58605000D02*
X66131000Y-58605000D01*
X63048000Y-58465000D02*
X64060000Y-58465000D01*
X64940000Y-58465000D02*
X65952000Y-58465000D01*
X63267000Y-58325000D02*
X65733000Y-58325000D01*
X63556000Y-58185000D02*
X65444000Y-58185000D01*
X64028000Y-58045000D02*
X64972000Y-58045000D01*
X65400000Y-59250000D02*
G75*
G03X65400000Y-59250000I-900000J0D01*
G01*
X67037500Y-60500000D02*
G75*
G03X67037500Y-60500000I-2537500J0D01*
G01*
X97249000Y-46075000D02*
X92251000Y-46075000D01*
X97241000Y-46215000D02*
X92259000Y-46215000D01*
X97225000Y-46355000D02*
X94845000Y-46355000D01*
X94655000Y-46355000D02*
X92275000Y-46355000D01*
X97201000Y-46495000D02*
X95240000Y-46495000D01*
X94260000Y-46495000D02*
X92299000Y-46495000D01*
X97168000Y-46635000D02*
X95407000Y-46635000D01*
X94093000Y-46635000D02*
X92332000Y-46635000D01*
X97127000Y-46775000D02*
X95514000Y-46775000D01*
X93986000Y-46775000D02*
X92373000Y-46775000D01*
X97077000Y-46915000D02*
X95585000Y-46915000D01*
X93915000Y-46915000D02*
X92423000Y-46915000D01*
X97016000Y-47055000D02*
X95629000Y-47055000D01*
X93871000Y-47055000D02*
X92484000Y-47055000D01*
X96946000Y-47195000D02*
X95648000Y-47195000D01*
X93852000Y-47195000D02*
X92554000Y-47195000D01*
X96864000Y-47335000D02*
X95646000Y-47335000D01*
X93854000Y-47335000D02*
X92636000Y-47335000D01*
X96769000Y-47475000D02*
X95621000Y-47475000D01*
X93879000Y-47475000D02*
X92731000Y-47475000D01*
X96658000Y-47615000D02*
X95573000Y-47615000D01*
X93927000Y-47615000D02*
X92842000Y-47615000D01*
X96530000Y-47755000D02*
X95495000Y-47755000D01*
X94005000Y-47755000D02*
X92970000Y-47755000D01*
X96381000Y-47895000D02*
X95378000Y-47895000D01*
X94122000Y-47895000D02*
X93119000Y-47895000D01*
X96202000Y-48035000D02*
X95190000Y-48035000D01*
X94310000Y-48035000D02*
X93298000Y-48035000D01*
X95983000Y-48175000D02*
X93517000Y-48175000D01*
X95694000Y-48315000D02*
X93806000Y-48315000D01*
X95222000Y-48455000D02*
X94278000Y-48455000D01*
X95650000Y-47250000D02*
G75*
G03X95650000Y-47250000I-900000J0D01*
G01*
X97287500Y-46000000D02*
G75*
G03X97287500Y-46000000I-2537500J0D01*
G01*
X64500000Y-51575000D02*
X65500000Y-51575000D01*
X65500000Y-52925000D02*
X64500000Y-52925000D01*
X65500000Y-55175000D02*
X64500000Y-55175000D01*
X64500000Y-53825000D02*
X65500000Y-53825000D01*
X88274000Y-50806000D02*
X91322000Y-50806000D01*
X91322000Y-50806000D02*
X91322000Y-43694000D01*
X91322000Y-43694000D02*
X88274000Y-43694000D01*
X85226000Y-50806000D02*
X84464000Y-50806000D01*
X84464000Y-50806000D02*
X82178000Y-49282000D01*
X82178000Y-49282000D02*
X82178000Y-45218000D01*
X82178000Y-45218000D02*
X84464000Y-43694000D01*
X84464000Y-43694000D02*
X85226000Y-43694000D01*
X81900000Y-45950000D02*
X81900000Y-63550000D01*
X67700000Y-45850000D02*
X81900000Y-45850000D01*
X67700000Y-45850000D02*
X67700000Y-63550000D01*
D10*
X68900000Y-51650000D02*
X68900000Y-47150000D01*
X68900000Y-47150000D02*
X70900000Y-47150000D01*
X70900000Y-47150000D02*
X70900000Y-51650000D01*
X70900000Y-51650000D02*
X72900000Y-51650000D01*
X72900000Y-51650000D02*
X72900000Y-47150000D01*
X72900000Y-47150000D02*
X74900000Y-47150000D01*
X74900000Y-47150000D02*
X74900000Y-51650000D01*
X74900000Y-51650000D02*
X76900000Y-51650000D01*
X76900000Y-51650000D02*
X76900000Y-47150000D01*
X76900000Y-47150000D02*
X80400000Y-47150000D01*
D15*
X81922000Y-63528000D02*
X67698000Y-63528000D01*
X69730000Y-60480000D02*
X69730000Y-63020000D01*
X69730000Y-63020000D02*
X72270000Y-63020000D01*
X72270000Y-63020000D02*
X79890000Y-63020000D01*
X79890000Y-63020000D02*
X79890000Y-57940000D01*
X79890000Y-57940000D02*
X69730000Y-57940000D01*
X69730000Y-57940000D02*
X69730000Y-60480000D01*
D10*
X54202381Y-91023810D02*
X53202381Y-91023810D01*
X54202381Y-90452381D02*
X53630952Y-90880953D01*
X53202381Y-90452381D02*
X53773810Y-91023810D01*
X53726190Y-89833334D02*
X54202381Y-89833334D01*
X53202381Y-90166667D02*
X53726190Y-89833334D01*
X53202381Y-89500000D01*
X53821429Y-89166667D02*
X53821429Y-88404762D01*
X53202381Y-87738096D02*
X53202381Y-87642857D01*
X53250000Y-87547619D01*
X53297619Y-87500000D01*
X53392857Y-87452381D01*
X53583333Y-87404762D01*
X53821429Y-87404762D01*
X54011905Y-87452381D01*
X54107143Y-87500000D01*
X54154762Y-87547619D01*
X54202381Y-87642857D01*
X54202381Y-87738096D01*
X54154762Y-87833334D01*
X54107143Y-87880953D01*
X54011905Y-87928572D01*
X53821429Y-87976191D01*
X53583333Y-87976191D01*
X53392857Y-87928572D01*
X53297619Y-87880953D01*
X53250000Y-87833334D01*
X53202381Y-87738096D01*
X53202381Y-87071429D02*
X53202381Y-86452381D01*
X53583333Y-86785715D01*
X53583333Y-86642857D01*
X53630952Y-86547619D01*
X53678571Y-86500000D01*
X53773810Y-86452381D01*
X54011905Y-86452381D01*
X54107143Y-86500000D01*
X54154762Y-86547619D01*
X54202381Y-86642857D01*
X54202381Y-86928572D01*
X54154762Y-87023810D01*
X54107143Y-87071429D01*
X53202381Y-86119048D02*
X53202381Y-85500000D01*
X53583333Y-85833334D01*
X53583333Y-85690476D01*
X53630952Y-85595238D01*
X53678571Y-85547619D01*
X53773810Y-85500000D01*
X54011905Y-85500000D01*
X54107143Y-85547619D01*
X54154762Y-85595238D01*
X54202381Y-85690476D01*
X54202381Y-85976191D01*
X54154762Y-86071429D01*
X54107143Y-86119048D01*
X54297619Y-85309524D02*
X54297619Y-84547619D01*
X54202381Y-83833333D02*
X54202381Y-84309524D01*
X53202381Y-84309524D01*
D12*
X44107143Y-54452381D02*
X43773809Y-53976190D01*
X43535714Y-54452381D02*
X43535714Y-53452381D01*
X43916667Y-53452381D01*
X44011905Y-53500000D01*
X44059524Y-53547619D01*
X44107143Y-53642857D01*
X44107143Y-53785714D01*
X44059524Y-53880952D01*
X44011905Y-53928571D01*
X43916667Y-53976190D01*
X43535714Y-53976190D01*
X44535714Y-53928571D02*
X44869048Y-53928571D01*
X45011905Y-54452381D02*
X44535714Y-54452381D01*
X44535714Y-53452381D01*
X45011905Y-53452381D01*
X45440476Y-54452381D02*
X45440476Y-53452381D01*
X45678571Y-53452381D01*
X45821429Y-53500000D01*
X45916667Y-53595238D01*
X45964286Y-53690476D01*
X46011905Y-53880952D01*
X46011905Y-54023810D01*
X45964286Y-54214286D01*
X45916667Y-54309524D01*
X45821429Y-54404762D01*
X45678571Y-54452381D01*
X45440476Y-54452381D01*
X50392857Y-53250000D02*
X50297619Y-53202381D01*
X50154762Y-53202381D01*
X50011904Y-53250000D01*
X49916666Y-53345238D01*
X49869047Y-53440476D01*
X49821428Y-53630952D01*
X49821428Y-53773810D01*
X49869047Y-53964286D01*
X49916666Y-54059524D01*
X50011904Y-54154762D01*
X50154762Y-54202381D01*
X50250000Y-54202381D01*
X50392857Y-54154762D01*
X50440476Y-54107143D01*
X50440476Y-53773810D01*
X50250000Y-53773810D01*
X50869047Y-54202381D02*
X50869047Y-53535714D01*
X50869047Y-53726190D02*
X50916666Y-53630952D01*
X50964285Y-53583333D01*
X51059523Y-53535714D01*
X51154762Y-53535714D01*
X51869048Y-54154762D02*
X51773810Y-54202381D01*
X51583333Y-54202381D01*
X51488095Y-54154762D01*
X51440476Y-54059524D01*
X51440476Y-53678571D01*
X51488095Y-53583333D01*
X51583333Y-53535714D01*
X51773810Y-53535714D01*
X51869048Y-53583333D01*
X51916667Y-53678571D01*
X51916667Y-53773810D01*
X51440476Y-53869048D01*
X52726191Y-54154762D02*
X52630953Y-54202381D01*
X52440476Y-54202381D01*
X52345238Y-54154762D01*
X52297619Y-54059524D01*
X52297619Y-53678571D01*
X52345238Y-53583333D01*
X52440476Y-53535714D01*
X52630953Y-53535714D01*
X52726191Y-53583333D01*
X52773810Y-53678571D01*
X52773810Y-53773810D01*
X52297619Y-53869048D01*
X53202381Y-53535714D02*
X53202381Y-54202381D01*
X53202381Y-53630952D02*
X53250000Y-53583333D01*
X53345238Y-53535714D01*
X53488096Y-53535714D01*
X53583334Y-53583333D01*
X53630953Y-53678571D01*
X53630953Y-54202381D01*
X57928572Y-53928571D02*
X58071429Y-53976190D01*
X58119048Y-54023810D01*
X58166667Y-54119048D01*
X58166667Y-54261905D01*
X58119048Y-54357143D01*
X58071429Y-54404762D01*
X57976191Y-54452381D01*
X57595238Y-54452381D01*
X57595238Y-53452381D01*
X57928572Y-53452381D01*
X58023810Y-53500000D01*
X58071429Y-53547619D01*
X58119048Y-53642857D01*
X58119048Y-53738095D01*
X58071429Y-53833333D01*
X58023810Y-53880952D01*
X57928572Y-53928571D01*
X57595238Y-53928571D01*
X58738095Y-54452381D02*
X58642857Y-54404762D01*
X58595238Y-54309524D01*
X58595238Y-53452381D01*
X59547620Y-53785714D02*
X59547620Y-54452381D01*
X59119048Y-53785714D02*
X59119048Y-54309524D01*
X59166667Y-54404762D01*
X59261905Y-54452381D01*
X59404763Y-54452381D01*
X59500001Y-54404762D01*
X59547620Y-54357143D01*
X60404763Y-54404762D02*
X60309525Y-54452381D01*
X60119048Y-54452381D01*
X60023810Y-54404762D01*
X59976191Y-54309524D01*
X59976191Y-53928571D01*
X60023810Y-53833333D01*
X60119048Y-53785714D01*
X60309525Y-53785714D01*
X60404763Y-53833333D01*
X60452382Y-53928571D01*
X60452382Y-54023810D01*
X59976191Y-54119048D01*
X88261905Y-78352381D02*
X88261905Y-77352381D01*
X88642858Y-77352381D01*
X88738096Y-77400000D01*
X88785715Y-77447619D01*
X88833334Y-77542857D01*
X88833334Y-77685714D01*
X88785715Y-77780952D01*
X88738096Y-77828571D01*
X88642858Y-77876190D01*
X88261905Y-77876190D01*
X89404762Y-77780952D02*
X89309524Y-77733333D01*
X89261905Y-77685714D01*
X89214286Y-77590476D01*
X89214286Y-77542857D01*
X89261905Y-77447619D01*
X89309524Y-77400000D01*
X89404762Y-77352381D01*
X89595239Y-77352381D01*
X89690477Y-77400000D01*
X89738096Y-77447619D01*
X89785715Y-77542857D01*
X89785715Y-77590476D01*
X89738096Y-77685714D01*
X89690477Y-77733333D01*
X89595239Y-77780952D01*
X89404762Y-77780952D01*
X89309524Y-77828571D01*
X89261905Y-77876190D01*
X89214286Y-77971429D01*
X89214286Y-78161905D01*
X89261905Y-78257143D01*
X89309524Y-78304762D01*
X89404762Y-78352381D01*
X89595239Y-78352381D01*
X89690477Y-78304762D01*
X89738096Y-78257143D01*
X89785715Y-78161905D01*
X89785715Y-77971429D01*
X89738096Y-77876190D01*
X89690477Y-77828571D01*
X89595239Y-77780952D01*
D10*
X92154762Y-87357143D02*
X92202381Y-87214286D01*
X92202381Y-86976190D01*
X92154762Y-86880952D01*
X92107143Y-86833333D01*
X92011905Y-86785714D01*
X91916667Y-86785714D01*
X91821429Y-86833333D01*
X91773810Y-86880952D01*
X91726190Y-86976190D01*
X91678571Y-87166667D01*
X91630952Y-87261905D01*
X91583333Y-87309524D01*
X91488095Y-87357143D01*
X91392857Y-87357143D01*
X91297619Y-87309524D01*
X91250000Y-87261905D01*
X91202381Y-87166667D01*
X91202381Y-86928571D01*
X91250000Y-86785714D01*
X92154762Y-85976190D02*
X92202381Y-86071428D01*
X92202381Y-86261905D01*
X92154762Y-86357143D01*
X92059524Y-86404762D01*
X91678571Y-86404762D01*
X91583333Y-86357143D01*
X91535714Y-86261905D01*
X91535714Y-86071428D01*
X91583333Y-85976190D01*
X91678571Y-85928571D01*
X91773810Y-85928571D01*
X91869048Y-86404762D01*
X92202381Y-85500000D02*
X91535714Y-85500000D01*
X91726190Y-85500000D02*
X91630952Y-85452381D01*
X91583333Y-85404762D01*
X91535714Y-85309524D01*
X91535714Y-85214285D01*
X91535714Y-84976190D02*
X92202381Y-84738095D01*
X91535714Y-84499999D01*
X92202381Y-83976190D02*
X92154762Y-84071428D01*
X92107143Y-84119047D01*
X92011905Y-84166666D01*
X91726190Y-84166666D01*
X91630952Y-84119047D01*
X91583333Y-84071428D01*
X91535714Y-83976190D01*
X91535714Y-83833332D01*
X91583333Y-83738094D01*
X91630952Y-83690475D01*
X91726190Y-83642856D01*
X92011905Y-83642856D01*
X92107143Y-83690475D01*
X92154762Y-83738094D01*
X92202381Y-83833332D01*
X92202381Y-83976190D01*
X92202381Y-74523809D02*
X91202381Y-74523809D01*
X91202381Y-73857143D02*
X91202381Y-73666666D01*
X91250000Y-73571428D01*
X91345238Y-73476190D01*
X91535714Y-73428571D01*
X91869048Y-73428571D01*
X92059524Y-73476190D01*
X92154762Y-73571428D01*
X92202381Y-73666666D01*
X92202381Y-73857143D01*
X92154762Y-73952381D01*
X92059524Y-74047619D01*
X91869048Y-74095238D01*
X91535714Y-74095238D01*
X91345238Y-74047619D01*
X91250000Y-73952381D01*
X91202381Y-73857143D01*
X101785715Y-55178571D02*
X101785715Y-53678571D01*
X102285715Y-54750000D01*
X102785715Y-53678571D01*
X102785715Y-55178571D01*
X104285715Y-55178571D02*
X103428572Y-55178571D01*
X103857144Y-55178571D02*
X103857144Y-53678571D01*
X103714287Y-53892857D01*
X103571429Y-54035714D01*
X103428572Y-54107143D01*
X101535715Y-92178571D02*
X101535715Y-90678571D01*
X102035715Y-91750000D01*
X102535715Y-90678571D01*
X102535715Y-92178571D01*
X103178572Y-90821429D02*
X103250001Y-90750000D01*
X103392858Y-90678571D01*
X103750001Y-90678571D01*
X103892858Y-90750000D01*
X103964287Y-90821429D01*
X104035715Y-90964286D01*
X104035715Y-91107143D01*
X103964287Y-91321429D01*
X103107144Y-92178571D01*
X104035715Y-92178571D01*
D12*
X72059524Y-77952381D02*
X71488095Y-77952381D01*
X71773809Y-77952381D02*
X71773809Y-76952381D01*
X71678571Y-77095238D01*
X71583333Y-77190476D01*
X71488095Y-77238095D01*
X72678571Y-76952381D02*
X72773810Y-76952381D01*
X72869048Y-77000000D01*
X72916667Y-77047619D01*
X72964286Y-77142857D01*
X73011905Y-77333333D01*
X73011905Y-77571429D01*
X72964286Y-77761905D01*
X72916667Y-77857143D01*
X72869048Y-77904762D01*
X72773810Y-77952381D01*
X72678571Y-77952381D01*
X72583333Y-77904762D01*
X72535714Y-77857143D01*
X72488095Y-77761905D01*
X72440476Y-77571429D01*
X72440476Y-77333333D01*
X72488095Y-77142857D01*
X72535714Y-77047619D01*
X72583333Y-77000000D01*
X72678571Y-76952381D01*
X73440476Y-77952381D02*
X73440476Y-76952381D01*
X74011905Y-77952381D02*
X73583333Y-77380952D01*
X74011905Y-76952381D02*
X73440476Y-77523810D01*
X53714286Y-69202381D02*
X54333334Y-69202381D01*
X54000000Y-69583333D01*
X54142858Y-69583333D01*
X54238096Y-69630952D01*
X54285715Y-69678571D01*
X54333334Y-69773810D01*
X54333334Y-70011905D01*
X54285715Y-70107143D01*
X54238096Y-70154762D01*
X54142858Y-70202381D01*
X53857143Y-70202381D01*
X53761905Y-70154762D01*
X53714286Y-70107143D01*
X54666667Y-69202381D02*
X55285715Y-69202381D01*
X54952381Y-69583333D01*
X55095239Y-69583333D01*
X55190477Y-69630952D01*
X55238096Y-69678571D01*
X55285715Y-69773810D01*
X55285715Y-70011905D01*
X55238096Y-70107143D01*
X55190477Y-70154762D01*
X55095239Y-70202381D01*
X54809524Y-70202381D01*
X54714286Y-70154762D01*
X54666667Y-70107143D01*
X55904762Y-69202381D02*
X56000001Y-69202381D01*
X56095239Y-69250000D01*
X56142858Y-69297619D01*
X56190477Y-69392857D01*
X56238096Y-69583333D01*
X56238096Y-69821429D01*
X56190477Y-70011905D01*
X56142858Y-70107143D01*
X56095239Y-70154762D01*
X56000001Y-70202381D01*
X55904762Y-70202381D01*
X55809524Y-70154762D01*
X55761905Y-70107143D01*
X55714286Y-70011905D01*
X55666667Y-69821429D01*
X55666667Y-69583333D01*
X55714286Y-69392857D01*
X55761905Y-69297619D01*
X55809524Y-69250000D01*
X55904762Y-69202381D01*
X53714286Y-73452381D02*
X54333334Y-73452381D01*
X54000000Y-73833333D01*
X54142858Y-73833333D01*
X54238096Y-73880952D01*
X54285715Y-73928571D01*
X54333334Y-74023810D01*
X54333334Y-74261905D01*
X54285715Y-74357143D01*
X54238096Y-74404762D01*
X54142858Y-74452381D01*
X53857143Y-74452381D01*
X53761905Y-74404762D01*
X53714286Y-74357143D01*
X54666667Y-73452381D02*
X55285715Y-73452381D01*
X54952381Y-73833333D01*
X55095239Y-73833333D01*
X55190477Y-73880952D01*
X55238096Y-73928571D01*
X55285715Y-74023810D01*
X55285715Y-74261905D01*
X55238096Y-74357143D01*
X55190477Y-74404762D01*
X55095239Y-74452381D01*
X54809524Y-74452381D01*
X54714286Y-74404762D01*
X54666667Y-74357143D01*
X55904762Y-73452381D02*
X56000001Y-73452381D01*
X56095239Y-73500000D01*
X56142858Y-73547619D01*
X56190477Y-73642857D01*
X56238096Y-73833333D01*
X56238096Y-74071429D01*
X56190477Y-74261905D01*
X56142858Y-74357143D01*
X56095239Y-74404762D01*
X56000001Y-74452381D01*
X55904762Y-74452381D01*
X55809524Y-74404762D01*
X55761905Y-74357143D01*
X55714286Y-74261905D01*
X55666667Y-74071429D01*
X55666667Y-73833333D01*
X55714286Y-73642857D01*
X55761905Y-73547619D01*
X55809524Y-73500000D01*
X55904762Y-73452381D01*
X53464286Y-76952381D02*
X54083334Y-76952381D01*
X53750000Y-77333333D01*
X53892858Y-77333333D01*
X53988096Y-77380952D01*
X54035715Y-77428571D01*
X54083334Y-77523810D01*
X54083334Y-77761905D01*
X54035715Y-77857143D01*
X53988096Y-77904762D01*
X53892858Y-77952381D01*
X53607143Y-77952381D01*
X53511905Y-77904762D01*
X53464286Y-77857143D01*
X54416667Y-76952381D02*
X55035715Y-76952381D01*
X54702381Y-77333333D01*
X54845239Y-77333333D01*
X54940477Y-77380952D01*
X54988096Y-77428571D01*
X55035715Y-77523810D01*
X55035715Y-77761905D01*
X54988096Y-77857143D01*
X54940477Y-77904762D01*
X54845239Y-77952381D01*
X54559524Y-77952381D01*
X54464286Y-77904762D01*
X54416667Y-77857143D01*
X55654762Y-76952381D02*
X55750001Y-76952381D01*
X55845239Y-77000000D01*
X55892858Y-77047619D01*
X55940477Y-77142857D01*
X55988096Y-77333333D01*
X55988096Y-77571429D01*
X55940477Y-77761905D01*
X55892858Y-77857143D01*
X55845239Y-77904762D01*
X55750001Y-77952381D01*
X55654762Y-77952381D01*
X55559524Y-77904762D01*
X55511905Y-77857143D01*
X55464286Y-77761905D01*
X55416667Y-77571429D01*
X55416667Y-77333333D01*
X55464286Y-77142857D01*
X55511905Y-77047619D01*
X55559524Y-77000000D01*
X55654762Y-76952381D01*
X71809524Y-74452381D02*
X71238095Y-74452381D01*
X71523809Y-74452381D02*
X71523809Y-73452381D01*
X71428571Y-73595238D01*
X71333333Y-73690476D01*
X71238095Y-73738095D01*
X72428571Y-73452381D02*
X72523810Y-73452381D01*
X72619048Y-73500000D01*
X72666667Y-73547619D01*
X72714286Y-73642857D01*
X72761905Y-73833333D01*
X72761905Y-74071429D01*
X72714286Y-74261905D01*
X72666667Y-74357143D01*
X72619048Y-74404762D01*
X72523810Y-74452381D01*
X72428571Y-74452381D01*
X72333333Y-74404762D01*
X72285714Y-74357143D01*
X72238095Y-74261905D01*
X72190476Y-74071429D01*
X72190476Y-73833333D01*
X72238095Y-73642857D01*
X72285714Y-73547619D01*
X72333333Y-73500000D01*
X72428571Y-73452381D01*
X73190476Y-74452381D02*
X73190476Y-73452381D01*
X73761905Y-74452381D02*
X73333333Y-73880952D01*
X73761905Y-73452381D02*
X73190476Y-74023810D01*
X71809524Y-70202381D02*
X71238095Y-70202381D01*
X71523809Y-70202381D02*
X71523809Y-69202381D01*
X71428571Y-69345238D01*
X71333333Y-69440476D01*
X71238095Y-69488095D01*
X72428571Y-69202381D02*
X72523810Y-69202381D01*
X72619048Y-69250000D01*
X72666667Y-69297619D01*
X72714286Y-69392857D01*
X72761905Y-69583333D01*
X72761905Y-69821429D01*
X72714286Y-70011905D01*
X72666667Y-70107143D01*
X72619048Y-70154762D01*
X72523810Y-70202381D01*
X72428571Y-70202381D01*
X72333333Y-70154762D01*
X72285714Y-70107143D01*
X72238095Y-70011905D01*
X72190476Y-69821429D01*
X72190476Y-69583333D01*
X72238095Y-69392857D01*
X72285714Y-69297619D01*
X72333333Y-69250000D01*
X72428571Y-69202381D01*
X73190476Y-70202381D02*
X73190476Y-69202381D01*
X73761905Y-70202381D02*
X73333333Y-69630952D01*
X73761905Y-69202381D02*
X73190476Y-69773810D01*
D10*
X68738095Y-87904762D02*
X68880952Y-87952381D01*
X69119048Y-87952381D01*
X69214286Y-87904762D01*
X69261905Y-87857143D01*
X69309524Y-87761905D01*
X69309524Y-87666667D01*
X69261905Y-87571429D01*
X69214286Y-87523810D01*
X69119048Y-87476190D01*
X68928571Y-87428571D01*
X68833333Y-87380952D01*
X68785714Y-87333333D01*
X68738095Y-87238095D01*
X68738095Y-87142857D01*
X68785714Y-87047619D01*
X68833333Y-87000000D01*
X68928571Y-86952381D01*
X69166667Y-86952381D01*
X69309524Y-87000000D01*
X69642857Y-86952381D02*
X69880952Y-87952381D01*
X70071429Y-87238095D01*
X70261905Y-87952381D01*
X70500000Y-86952381D01*
X70642857Y-88047619D02*
X71404762Y-88047619D01*
X71642857Y-87952381D02*
X71642857Y-86952381D01*
X72023810Y-86952381D01*
X72119048Y-87000000D01*
X72166667Y-87047619D01*
X72214286Y-87142857D01*
X72214286Y-87285714D01*
X72166667Y-87380952D01*
X72119048Y-87428571D01*
X72023810Y-87476190D01*
X71642857Y-87476190D01*
X72642857Y-86952381D02*
X72642857Y-87761905D01*
X72690476Y-87857143D01*
X72738095Y-87904762D01*
X72833333Y-87952381D01*
X73023810Y-87952381D01*
X73119048Y-87904762D01*
X73166667Y-87857143D01*
X73214286Y-87761905D01*
X73214286Y-86952381D01*
X73642857Y-87904762D02*
X73785714Y-87952381D01*
X74023810Y-87952381D01*
X74119048Y-87904762D01*
X74166667Y-87857143D01*
X74214286Y-87761905D01*
X74214286Y-87666667D01*
X74166667Y-87571429D01*
X74119048Y-87523810D01*
X74023810Y-87476190D01*
X73833333Y-87428571D01*
X73738095Y-87380952D01*
X73690476Y-87333333D01*
X73642857Y-87238095D01*
X73642857Y-87142857D01*
X73690476Y-87047619D01*
X73738095Y-87000000D01*
X73833333Y-86952381D01*
X74071429Y-86952381D01*
X74214286Y-87000000D01*
X74642857Y-87952381D02*
X74642857Y-86952381D01*
X74642857Y-87428571D02*
X75214286Y-87428571D01*
X75214286Y-87952381D02*
X75214286Y-86952381D01*
X54202381Y-63119048D02*
X53202381Y-63119048D01*
X54202381Y-62547619D02*
X53630952Y-62976191D01*
X53202381Y-62547619D02*
X53773810Y-63119048D01*
X53726190Y-61928572D02*
X54202381Y-61928572D01*
X53202381Y-62261905D02*
X53726190Y-61928572D01*
X53202381Y-61595238D01*
X53821429Y-61261905D02*
X53821429Y-60500000D01*
X53202381Y-59833334D02*
X53202381Y-59738095D01*
X53250000Y-59642857D01*
X53297619Y-59595238D01*
X53392857Y-59547619D01*
X53583333Y-59500000D01*
X53821429Y-59500000D01*
X54011905Y-59547619D01*
X54107143Y-59595238D01*
X54154762Y-59642857D01*
X54202381Y-59738095D01*
X54202381Y-59833334D01*
X54154762Y-59928572D01*
X54107143Y-59976191D01*
X54011905Y-60023810D01*
X53821429Y-60071429D01*
X53583333Y-60071429D01*
X53392857Y-60023810D01*
X53297619Y-59976191D01*
X53250000Y-59928572D01*
X53202381Y-59833334D01*
X53202381Y-59166667D02*
X53202381Y-58547619D01*
X53583333Y-58880953D01*
X53583333Y-58738095D01*
X53630952Y-58642857D01*
X53678571Y-58595238D01*
X53773810Y-58547619D01*
X54011905Y-58547619D01*
X54107143Y-58595238D01*
X54154762Y-58642857D01*
X54202381Y-58738095D01*
X54202381Y-59023810D01*
X54154762Y-59119048D01*
X54107143Y-59166667D01*
X53202381Y-58214286D02*
X53202381Y-57595238D01*
X53583333Y-57928572D01*
X53583333Y-57785714D01*
X53630952Y-57690476D01*
X53678571Y-57642857D01*
X53773810Y-57595238D01*
X54011905Y-57595238D01*
X54107143Y-57642857D01*
X54154762Y-57690476D01*
X54202381Y-57785714D01*
X54202381Y-58071429D01*
X54154762Y-58166667D01*
X54107143Y-58214286D01*
X54297619Y-57404762D02*
X54297619Y-56642857D01*
X54202381Y-55833333D02*
X53726190Y-56166667D01*
X54202381Y-56404762D02*
X53202381Y-56404762D01*
X53202381Y-56023809D01*
X53250000Y-55928571D01*
X53297619Y-55880952D01*
X53392857Y-55833333D01*
X53535714Y-55833333D01*
X53630952Y-55880952D01*
X53678571Y-55928571D01*
X53726190Y-56023809D01*
X53726190Y-56404762D01*
X99702381Y-75869047D02*
X99702381Y-76345238D01*
X98702381Y-76345238D01*
X98797619Y-75583333D02*
X98750000Y-75535714D01*
X98702381Y-75440476D01*
X98702381Y-75202380D01*
X98750000Y-75107142D01*
X98797619Y-75059523D01*
X98892857Y-75011904D01*
X98988095Y-75011904D01*
X99130952Y-75059523D01*
X99702381Y-75630952D01*
X99702381Y-75011904D01*
X99702381Y-74535714D02*
X99702381Y-74345238D01*
X99654762Y-74249999D01*
X99607143Y-74202380D01*
X99464286Y-74107142D01*
X99273810Y-74059523D01*
X98892857Y-74059523D01*
X98797619Y-74107142D01*
X98750000Y-74154761D01*
X98702381Y-74249999D01*
X98702381Y-74440476D01*
X98750000Y-74535714D01*
X98797619Y-74583333D01*
X98892857Y-74630952D01*
X99130952Y-74630952D01*
X99226190Y-74583333D01*
X99273810Y-74535714D01*
X99321429Y-74440476D01*
X99321429Y-74249999D01*
X99273810Y-74154761D01*
X99226190Y-74107142D01*
X99130952Y-74059523D01*
X98702381Y-73726190D02*
X98702381Y-73107142D01*
X99083333Y-73440476D01*
X99083333Y-73297618D01*
X99130952Y-73202380D01*
X99178571Y-73154761D01*
X99273810Y-73107142D01*
X99511905Y-73107142D01*
X99607143Y-73154761D01*
X99654762Y-73202380D01*
X99702381Y-73297618D01*
X99702381Y-73583333D01*
X99654762Y-73678571D01*
X99607143Y-73726190D01*
X99702381Y-72678571D02*
X98702381Y-72678571D01*
X98702381Y-72440476D01*
X98750000Y-72297618D01*
X98845238Y-72202380D01*
X98940476Y-72154761D01*
X99130952Y-72107142D01*
X99273810Y-72107142D01*
X99464286Y-72154761D01*
X99559524Y-72202380D01*
X99654762Y-72297618D01*
X99702381Y-72440476D01*
X99702381Y-72678571D01*
X92000000Y-59309524D02*
X91952381Y-59404762D01*
X91952381Y-59547619D01*
X92000000Y-59690477D01*
X92095238Y-59785715D01*
X92190476Y-59833334D01*
X92380952Y-59880953D01*
X92523810Y-59880953D01*
X92714286Y-59833334D01*
X92809524Y-59785715D01*
X92904762Y-59690477D01*
X92952381Y-59547619D01*
X92952381Y-59452381D01*
X92904762Y-59309524D01*
X92857143Y-59261905D01*
X92523810Y-59261905D01*
X92523810Y-59452381D01*
X92952381Y-58833334D02*
X92285714Y-58833334D01*
X92476190Y-58833334D02*
X92380952Y-58785715D01*
X92333333Y-58738096D01*
X92285714Y-58642858D01*
X92285714Y-58547619D01*
X92952381Y-58071429D02*
X92904762Y-58166667D01*
X92857143Y-58214286D01*
X92761905Y-58261905D01*
X92476190Y-58261905D01*
X92380952Y-58214286D01*
X92333333Y-58166667D01*
X92285714Y-58071429D01*
X92285714Y-57928571D01*
X92333333Y-57833333D01*
X92380952Y-57785714D01*
X92476190Y-57738095D01*
X92761905Y-57738095D01*
X92857143Y-57785714D01*
X92904762Y-57833333D01*
X92952381Y-57928571D01*
X92952381Y-58071429D01*
X92285714Y-57404762D02*
X92952381Y-57166667D01*
X92285714Y-56928571D01*
X92904762Y-56166666D02*
X92952381Y-56261904D01*
X92952381Y-56452381D01*
X92904762Y-56547619D01*
X92809524Y-56595238D01*
X92428571Y-56595238D01*
X92333333Y-56547619D01*
X92285714Y-56452381D01*
X92285714Y-56261904D01*
X92333333Y-56166666D01*
X92428571Y-56119047D01*
X92523810Y-56119047D01*
X92619048Y-56595238D01*
X61452381Y-62047619D02*
X61452381Y-62619048D01*
X61452381Y-62333334D02*
X60452381Y-62333334D01*
X60595238Y-62428572D01*
X60690476Y-62523810D01*
X60738095Y-62619048D01*
X60452381Y-61428572D02*
X60452381Y-61333333D01*
X60500000Y-61238095D01*
X60547619Y-61190476D01*
X60642857Y-61142857D01*
X60833333Y-61095238D01*
X61071429Y-61095238D01*
X61261905Y-61142857D01*
X61357143Y-61190476D01*
X61404762Y-61238095D01*
X61452381Y-61333333D01*
X61452381Y-61428572D01*
X61404762Y-61523810D01*
X61357143Y-61571429D01*
X61261905Y-61619048D01*
X61071429Y-61666667D01*
X60833333Y-61666667D01*
X60642857Y-61619048D01*
X60547619Y-61571429D01*
X60500000Y-61523810D01*
X60452381Y-61428572D01*
X60452381Y-60476191D02*
X60452381Y-60380952D01*
X60500000Y-60285714D01*
X60547619Y-60238095D01*
X60642857Y-60190476D01*
X60833333Y-60142857D01*
X61071429Y-60142857D01*
X61261905Y-60190476D01*
X61357143Y-60238095D01*
X61404762Y-60285714D01*
X61452381Y-60380952D01*
X61452381Y-60476191D01*
X61404762Y-60571429D01*
X61357143Y-60619048D01*
X61261905Y-60666667D01*
X61071429Y-60714286D01*
X60833333Y-60714286D01*
X60642857Y-60666667D01*
X60547619Y-60619048D01*
X60500000Y-60571429D01*
X60452381Y-60476191D01*
X60785714Y-59285714D02*
X61452381Y-59285714D01*
X60785714Y-59714286D02*
X61309524Y-59714286D01*
X61404762Y-59666667D01*
X61452381Y-59571429D01*
X61452381Y-59428571D01*
X61404762Y-59333333D01*
X61357143Y-59285714D01*
X60928571Y-58476190D02*
X60928571Y-58809524D01*
X61452381Y-58809524D02*
X60452381Y-58809524D01*
X60452381Y-58333333D01*
D12*
X98907143Y-46166666D02*
X98954762Y-46214285D01*
X99002381Y-46357142D01*
X99002381Y-46452380D01*
X98954762Y-46595238D01*
X98859524Y-46690476D01*
X98764286Y-46738095D01*
X98573810Y-46785714D01*
X98430952Y-46785714D01*
X98240476Y-46738095D01*
X98145238Y-46690476D01*
X98050000Y-46595238D01*
X98002381Y-46452380D01*
X98002381Y-46357142D01*
X98050000Y-46214285D01*
X98097619Y-46166666D01*
X98097619Y-45785714D02*
X98050000Y-45738095D01*
X98002381Y-45642857D01*
X98002381Y-45404761D01*
X98050000Y-45309523D01*
X98097619Y-45261904D01*
X98192857Y-45214285D01*
X98288095Y-45214285D01*
X98430952Y-45261904D01*
X99002381Y-45833333D01*
X99002381Y-45214285D01*
X93928572Y-50202381D02*
X93357143Y-50202381D01*
X93642857Y-50202381D02*
X93642857Y-49202381D01*
X93547619Y-49345238D01*
X93452381Y-49440476D01*
X93357143Y-49488095D01*
X94547619Y-49202381D02*
X94642858Y-49202381D01*
X94738096Y-49250000D01*
X94785715Y-49297619D01*
X94833334Y-49392857D01*
X94880953Y-49583333D01*
X94880953Y-49821429D01*
X94833334Y-50011905D01*
X94785715Y-50107143D01*
X94738096Y-50154762D01*
X94642858Y-50202381D01*
X94547619Y-50202381D01*
X94452381Y-50154762D01*
X94404762Y-50107143D01*
X94357143Y-50011905D01*
X94309524Y-49821429D01*
X94309524Y-49583333D01*
X94357143Y-49392857D01*
X94404762Y-49297619D01*
X94452381Y-49250000D01*
X94547619Y-49202381D01*
X95738096Y-49535714D02*
X95738096Y-50202381D01*
X95309524Y-49535714D02*
X95309524Y-50059524D01*
X95357143Y-50154762D01*
X95452381Y-50202381D01*
X95595239Y-50202381D01*
X95690477Y-50154762D01*
X95738096Y-50107143D01*
X96547620Y-49678571D02*
X96214286Y-49678571D01*
X96214286Y-50202381D02*
X96214286Y-49202381D01*
X96690477Y-49202381D01*
X87678667Y-49892857D02*
X87678667Y-49416666D01*
X87964381Y-49988095D02*
X86964381Y-49654762D01*
X87964381Y-49321428D01*
X87964381Y-48988095D02*
X86964381Y-48988095D01*
X86964381Y-48607142D01*
X87012000Y-48511904D01*
X87059619Y-48464285D01*
X87154857Y-48416666D01*
X87297714Y-48416666D01*
X87392952Y-48464285D01*
X87440571Y-48511904D01*
X87488190Y-48607142D01*
X87488190Y-48988095D01*
X87964381Y-47464285D02*
X87964381Y-48035714D01*
X87964381Y-47750000D02*
X86964381Y-47750000D01*
X87107238Y-47845238D01*
X87202476Y-47940476D01*
X87250095Y-48035714D01*
X87964381Y-46511904D02*
X87964381Y-47083333D01*
X87964381Y-46797619D02*
X86964381Y-46797619D01*
X87107238Y-46892857D01*
X87202476Y-46988095D01*
X87250095Y-47083333D01*
X87964381Y-45559523D02*
X87964381Y-46130952D01*
X87964381Y-45845238D02*
X86964381Y-45845238D01*
X87107238Y-45940476D01*
X87202476Y-46035714D01*
X87250095Y-46130952D01*
X86964381Y-45226190D02*
X86964381Y-44559523D01*
X87964381Y-44988095D01*
X69928571Y-56378571D02*
X70261905Y-56378571D01*
X70404762Y-56902381D02*
X69928571Y-56902381D01*
X69928571Y-55902381D01*
X70404762Y-55902381D01*
X70785714Y-56854762D02*
X70928571Y-56902381D01*
X71166667Y-56902381D01*
X71261905Y-56854762D01*
X71309524Y-56807143D01*
X71357143Y-56711905D01*
X71357143Y-56616667D01*
X71309524Y-56521429D01*
X71261905Y-56473810D01*
X71166667Y-56426190D01*
X70976190Y-56378571D01*
X70880952Y-56330952D01*
X70833333Y-56283333D01*
X70785714Y-56188095D01*
X70785714Y-56092857D01*
X70833333Y-55997619D01*
X70880952Y-55950000D01*
X70976190Y-55902381D01*
X71214286Y-55902381D01*
X71357143Y-55950000D01*
X71785714Y-56902381D02*
X71785714Y-55902381D01*
X72166667Y-55902381D01*
X72261905Y-55950000D01*
X72309524Y-55997619D01*
X72357143Y-56092857D01*
X72357143Y-56235714D01*
X72309524Y-56330952D01*
X72261905Y-56378571D01*
X72166667Y-56426190D01*
X71785714Y-56426190D01*
X72785714Y-56521429D02*
X73547619Y-56521429D01*
X74214285Y-55902381D02*
X74309524Y-55902381D01*
X74404762Y-55950000D01*
X74452381Y-55997619D01*
X74500000Y-56092857D01*
X74547619Y-56283333D01*
X74547619Y-56521429D01*
X74500000Y-56711905D01*
X74452381Y-56807143D01*
X74404762Y-56854762D01*
X74309524Y-56902381D01*
X74214285Y-56902381D01*
X74119047Y-56854762D01*
X74071428Y-56807143D01*
X74023809Y-56711905D01*
X73976190Y-56521429D01*
X73976190Y-56283333D01*
X74023809Y-56092857D01*
X74071428Y-55997619D01*
X74119047Y-55950000D01*
X74214285Y-55902381D01*
X75500000Y-56902381D02*
X74928571Y-56902381D01*
X75214285Y-56902381D02*
X75214285Y-55902381D01*
X75119047Y-56045238D01*
X75023809Y-56140476D01*
X74928571Y-56188095D01*
X75833333Y-56235714D02*
X76071428Y-56902381D01*
X76309524Y-56235714D01*
X76880952Y-55902381D02*
X76976191Y-55902381D01*
X77071429Y-55950000D01*
X77119048Y-55997619D01*
X77166667Y-56092857D01*
X77214286Y-56283333D01*
X77214286Y-56521429D01*
X77166667Y-56711905D01*
X77119048Y-56807143D01*
X77071429Y-56854762D01*
X76976191Y-56902381D01*
X76880952Y-56902381D01*
X76785714Y-56854762D01*
X76738095Y-56807143D01*
X76690476Y-56711905D01*
X76642857Y-56521429D01*
X76642857Y-56283333D01*
X76690476Y-56092857D01*
X76738095Y-55997619D01*
X76785714Y-55950000D01*
X76880952Y-55902381D01*
X77690476Y-56902381D02*
X77880952Y-56902381D01*
X77976191Y-56854762D01*
X78023810Y-56807143D01*
X78119048Y-56664286D01*
X78166667Y-56473810D01*
X78166667Y-56092857D01*
X78119048Y-55997619D01*
X78071429Y-55950000D01*
X77976191Y-55902381D01*
X77785714Y-55902381D01*
X77690476Y-55950000D01*
X77642857Y-55997619D01*
X77595238Y-56092857D01*
X77595238Y-56330952D01*
X77642857Y-56426190D01*
X77690476Y-56473810D01*
X77785714Y-56521429D01*
X77976191Y-56521429D01*
X78071429Y-56473810D01*
X78119048Y-56426190D01*
X78166667Y-56330952D01*
X78785714Y-55902381D02*
X78880953Y-55902381D01*
X78976191Y-55950000D01*
X79023810Y-55997619D01*
X79071429Y-56092857D01*
X79119048Y-56283333D01*
X79119048Y-56521429D01*
X79071429Y-56711905D01*
X79023810Y-56807143D01*
X78976191Y-56854762D01*
X78880953Y-56902381D01*
X78785714Y-56902381D01*
X78690476Y-56854762D01*
X78642857Y-56807143D01*
X78595238Y-56711905D01*
X78547619Y-56521429D01*
X78547619Y-56283333D01*
X78595238Y-56092857D01*
X78642857Y-55997619D01*
X78690476Y-55950000D01*
X78785714Y-55902381D01*
M02*
