M48
;DRILL file {KiCad 4.0.3-stable} date 01/10/17 16:40:21
;FORMAT={-:-/ absolute / inch / decimal}
FMAT,2
INCH,TZ
T1C0.016
T2C0.030
T3C0.031
T4C0.032
T5C0.039
T6C0.039
T7C0.040
T8C0.051
T9C0.157
%
G90
G05
M72
T1
X2.4655Y-2.7278
X2.6768Y-2.659
X2.8708Y-3.0223
X3.0319Y-3.1339
X3.1394Y-2.6847
T2
X3.5039Y-2.1654
X3.5039Y-2.2441
X3.5039Y-2.3228
X3.5039Y-2.4016
T3
X2.5394Y-2.3327
X2.5394Y-2.4311
X3.7303Y-1.7618
X3.7303Y-1.8602
T4
X3.7476Y-2.5634
X3.7476Y-2.6634
X3.7476Y-2.7634
X3.7476Y-2.8634
X3.7476Y-2.9634
X3.7476Y-3.0634
X3.7476Y-3.1634
X3.7476Y-3.2634
X4.0476Y-2.5634
X4.0476Y-2.6634
X4.0476Y-2.7634
X4.0476Y-2.8634
X4.0476Y-2.9634
X4.0476Y-3.0634
X4.0476Y-3.1634
X4.0476Y-3.2634
T5
X2.5992Y-3.1949
X2.6992Y-3.1949
X2.7992Y-3.1949
X2.8992Y-3.1949
X2.9992Y-3.1949
X3.0992Y-3.1949
X3.1992Y-3.1949
T6
X1.711Y-1.9685
X1.7992Y-2.5949
X1.7992Y-3.1949
X1.811Y-1.9685
X1.8992Y-2.5949
X1.8992Y-3.1949
X1.9555Y-3.0512
X1.9654Y-2.7461
X1.9654Y-2.9035
X1.9866Y-1.9685
X1.9992Y-2.5949
X1.9992Y-3.1949
X2.0866Y-1.9685
X2.0992Y-2.5949
X2.0992Y-3.1949
X2.1992Y-2.5949
X2.1992Y-3.1949
X2.2622Y-1.9685
X2.2992Y-2.5949
X2.2992Y-3.1949
X2.3555Y-3.0512
X2.3622Y-1.9685
X2.3654Y-2.7461
X2.3654Y-2.9035
X2.3992Y-2.5949
X2.3992Y-3.1949
X2.4992Y-2.5949
X2.4992Y-3.1949
X2.5992Y-2.5949
X2.6543Y-2.7461
X2.6543Y-2.9134
X2.6543Y-3.0512
X2.6992Y-2.5949
X2.7992Y-2.5949
X2.8992Y-2.5949
X2.9992Y-2.5949
X3.0019Y-3.3563
X3.0019Y-3.5335
X3.0543Y-2.7461
X3.0543Y-2.9134
X3.0543Y-3.0512
X3.0992Y-2.5949
X3.1992Y-2.5949
X3.2579Y-3.3563
X3.2579Y-3.5335
T7
X2.0079Y-2.2441
X2.0079Y-2.3441
X2.0079Y-2.4441
X2.0079Y-3.3465
X2.0079Y-3.4465
X2.0079Y-3.5465
X2.7953Y-2.3311
X2.7953Y-2.4311
X2.8953Y-2.3311
X2.8953Y-2.4311
X2.9953Y-2.3311
X2.9953Y-2.4311
X3.0953Y-2.3311
X3.0953Y-2.4311
X3.5039Y-2.7559
X3.5039Y-2.8559
X3.5039Y-2.9559
X3.5039Y-3.0559
X3.5039Y-3.2677
X3.5039Y-3.3677
X3.5039Y-3.4677
T8
X3.9567Y-1.8898
X3.9567Y-3.8583
X4.1535Y-1.8898
X4.1535Y-3.8583
X4.4488Y-2.6181
X4.4488Y-2.815
X4.4488Y-3.0118
X4.4488Y-3.2087
T9
X1.811Y-3.7303
X2.126Y-3.7303
X2.4409Y-3.7303
X2.7559Y-3.7303
X3.0709Y-3.7303
X3.3858Y-3.7303
X3.7008Y-3.7303
T0
M30
