G04 #@! TF.FileFunction,Copper,L2,Bot,Signal*
%FSLAX46Y46*%
G04 Gerber Fmt 4.6, Leading zero omitted, Abs format (unit mm)*
G04 Created by KiCad (PCBNEW 4.0.3-stable) date 01/10/17 16:40:44*
%MOMM*%
%LPD*%
G01*
G04 APERTURE LIST*
%ADD10C,0.100000*%
%ADD11O,1.524000X2.199640*%
%ADD12O,1.524000X2.197100*%
%ADD13R,2.032000X1.727200*%
%ADD14O,2.032000X1.727200*%
%ADD15R,1.900000X2.000000*%
%ADD16C,1.900000*%
%ADD17C,5.000000*%
%ADD18R,5.000000X8.000000*%
%ADD19C,2.500000*%
%ADD20C,1.998980*%
%ADD21R,2.286000X1.574800*%
%ADD22O,2.286000X1.574800*%
%ADD23C,1.524000*%
%ADD24R,1.300000X1.300000*%
%ADD25C,1.300000*%
%ADD26R,1.727200X1.727200*%
%ADD27O,1.727200X1.727200*%
%ADD28C,0.600000*%
%ADD29C,0.250000*%
%ADD30C,0.300000*%
%ADD31C,0.254000*%
G04 APERTURE END LIST*
D10*
D11*
X81260500Y-65910500D03*
X78720500Y-65910500D03*
X76180500Y-65910500D03*
X73640500Y-65910500D03*
X71100500Y-65910500D03*
X68560500Y-65910500D03*
X66020500Y-65910500D03*
X63480500Y-65910500D03*
X60940500Y-65910500D03*
X58400500Y-65910500D03*
X55860500Y-65910500D03*
X53320500Y-65910500D03*
X50780500Y-65910500D03*
X48240500Y-65910500D03*
X45700500Y-65910500D03*
X45700500Y-81150500D03*
X48240500Y-81150500D03*
X50780500Y-81150500D03*
X53320500Y-81150500D03*
D12*
X55860500Y-81150500D03*
X58400500Y-81150500D03*
X60940500Y-81150500D03*
X63480500Y-81150500D03*
X66020500Y-81150500D03*
X68560500Y-81150500D03*
X71100500Y-81150500D03*
X73640500Y-81150500D03*
X76180500Y-81150500D03*
X78720500Y-81150500D03*
X81260500Y-81150500D03*
D13*
X51000000Y-85000000D03*
D14*
X51000000Y-87540000D03*
X51000000Y-90080000D03*
D15*
X46000000Y-50000000D03*
D16*
X43460000Y-50000000D03*
D15*
X53000000Y-50000000D03*
D16*
X50460000Y-50000000D03*
D15*
X60000000Y-50000000D03*
D16*
X57460000Y-50000000D03*
D17*
X70000000Y-94750000D03*
D18*
X70000000Y-98750000D03*
D17*
X94000000Y-94750000D03*
D18*
X94000000Y-98750000D03*
D17*
X54000000Y-94750000D03*
D18*
X54000000Y-98750000D03*
D17*
X62000000Y-94750000D03*
D18*
X62000000Y-98750000D03*
D17*
X86000000Y-94750000D03*
D18*
X86000000Y-98750000D03*
D17*
X78000000Y-94750000D03*
D18*
X78000000Y-98750000D03*
D17*
X46000000Y-94750000D03*
D18*
X46000000Y-98750000D03*
D13*
X89000000Y-83000000D03*
D14*
X89000000Y-85540000D03*
X89000000Y-88080000D03*
D13*
X89000000Y-70000000D03*
D14*
X89000000Y-72540000D03*
X89000000Y-75080000D03*
X89000000Y-77620000D03*
D19*
X105500000Y-48000000D03*
X100500000Y-48000000D03*
X100500000Y-98000000D03*
X105500000Y-98000000D03*
D20*
X77580000Y-77500000D03*
X67420000Y-77500000D03*
X60080000Y-69750000D03*
X49920000Y-69750000D03*
X60080000Y-73750000D03*
X49920000Y-73750000D03*
X59830000Y-77500000D03*
X49670000Y-77500000D03*
X67420000Y-74000000D03*
X77580000Y-74000000D03*
X67420000Y-69750000D03*
X77580000Y-69750000D03*
X82751200Y-85249560D03*
X76248800Y-89750440D03*
X82751200Y-89750440D03*
X76248800Y-85249560D03*
D13*
X51000000Y-57000000D03*
D14*
X51000000Y-59540000D03*
X51000000Y-62080000D03*
D21*
X95190000Y-65110000D03*
D22*
X95190000Y-67650000D03*
X95190000Y-70190000D03*
X95190000Y-72730000D03*
X95190000Y-75270000D03*
X95190000Y-77810000D03*
X95190000Y-80350000D03*
X95190000Y-82890000D03*
X102810000Y-82890000D03*
X102810000Y-80350000D03*
X102810000Y-77810000D03*
X102810000Y-75270000D03*
X102810000Y-72730000D03*
X102810000Y-70190000D03*
X102810000Y-67650000D03*
X102810000Y-65110000D03*
D19*
X113000000Y-66500000D03*
X113000000Y-71500000D03*
X113000000Y-81500000D03*
X113000000Y-76500000D03*
D23*
X89000000Y-55000000D03*
X89000000Y-57000000D03*
X89000000Y-59000000D03*
X89000000Y-61000000D03*
D24*
X64500000Y-61750000D03*
D25*
X64500000Y-59250000D03*
D24*
X94750000Y-44750000D03*
D25*
X94750000Y-47250000D03*
D26*
X71000000Y-61750000D03*
D27*
X71000000Y-59210000D03*
X73540000Y-61750000D03*
X73540000Y-59210000D03*
X76080000Y-61750000D03*
X76080000Y-59210000D03*
X78620000Y-61750000D03*
X78620000Y-59210000D03*
D28*
X62622800Y-69286300D03*
X77009400Y-79601500D03*
X72917500Y-76765400D03*
X67990300Y-67538300D03*
X79739500Y-68191300D03*
D29*
X49920000Y-71246100D02*
X58400500Y-79726600D01*
X49920000Y-69750000D02*
X49920000Y-71246100D01*
X58400500Y-81150500D02*
X58400500Y-79726600D01*
X55860500Y-79690500D02*
X55860500Y-81150500D01*
X49920000Y-73750000D02*
X55860500Y-79690500D01*
X52233200Y-80063200D02*
X53320500Y-81150500D01*
X49670000Y-77500000D02*
X52233200Y-80063200D01*
X81260500Y-65910500D02*
X81260500Y-67260320D01*
X81260500Y-67260320D02*
X86540180Y-72540000D01*
X86540180Y-72540000D02*
X87734000Y-72540000D01*
X87734000Y-72540000D02*
X89000000Y-72540000D01*
X89000000Y-70000000D02*
X89000000Y-68811100D01*
X89000000Y-68811100D02*
X84653100Y-64464200D01*
X84653100Y-64464200D02*
X79828980Y-64464200D01*
X79828980Y-64464200D02*
X78720500Y-65572680D01*
X78720500Y-65572680D02*
X78720500Y-65910500D01*
X76248800Y-89750440D02*
X78720500Y-87278740D01*
X78720500Y-87278740D02*
X78720500Y-81150500D01*
X71000000Y-59210000D02*
X71863599Y-60073599D01*
X71863599Y-60073599D02*
X71890699Y-60073599D01*
X71890699Y-60073599D02*
X72351100Y-60534000D01*
X72245300Y-60639800D02*
X72245300Y-63165480D01*
X72245300Y-63165480D02*
X73640500Y-64560680D01*
X73640500Y-64560680D02*
X73640500Y-65910500D01*
X46000000Y-94750000D02*
X50670000Y-90080000D01*
X50670000Y-90080000D02*
X51000000Y-90080000D01*
X69771100Y-59250000D02*
X69811100Y-59210000D01*
X64500000Y-59250000D02*
X69771100Y-59250000D01*
X71000000Y-59210000D02*
X69811100Y-59210000D01*
X102810000Y-72730000D02*
X102810000Y-75270000D01*
X95190000Y-75270000D02*
X95190000Y-72730000D01*
X46000000Y-98750000D02*
X46000000Y-94750000D01*
X77484700Y-88514500D02*
X78720500Y-88514500D01*
X76248800Y-89750400D02*
X77484700Y-88514500D01*
X88534000Y-60534000D02*
X89000000Y-61000000D01*
X72351100Y-60534000D02*
X88534000Y-60534000D01*
X72245300Y-60639800D02*
X72351100Y-60534000D01*
X78720500Y-81150500D02*
X78720500Y-79726600D01*
X81515300Y-88514500D02*
X82751200Y-89750400D01*
X78720500Y-88514500D02*
X81515300Y-88514500D01*
X84421600Y-88080000D02*
X82751200Y-89750400D01*
X89000000Y-88080000D02*
X84421600Y-88080000D01*
X89000000Y-77620000D02*
X87658700Y-77620000D01*
X78935600Y-77620000D02*
X87658700Y-77620000D01*
X78935600Y-79511500D02*
X78935600Y-77620000D01*
X78720500Y-79726600D02*
X78935600Y-79511500D01*
X73640500Y-71955500D02*
X73640500Y-65910500D01*
X77223200Y-75538200D02*
X73640500Y-71955500D01*
X77546000Y-75538200D02*
X77223200Y-75538200D01*
X78935600Y-76927800D02*
X77546000Y-75538200D01*
X78935600Y-77620000D02*
X78935600Y-76927800D01*
X77634700Y-77554700D02*
X77580000Y-77500000D01*
X77634700Y-79860600D02*
X77634700Y-77554700D01*
X77619100Y-79876200D02*
X77634700Y-79860600D01*
X77619100Y-83879300D02*
X77619100Y-79876200D01*
X76248800Y-85249600D02*
X77619100Y-83879300D01*
X71100500Y-71020500D02*
X71100500Y-65910500D01*
X77580000Y-77500000D02*
X71100500Y-71020500D01*
X62622800Y-69286300D02*
X65998600Y-65910500D01*
X65998600Y-65910500D02*
X66020500Y-65910500D01*
X63480500Y-60914400D02*
X63480500Y-65910500D01*
X63630100Y-60764800D02*
X63480500Y-60914400D01*
X65318100Y-60764800D02*
X63630100Y-60764800D01*
X69830500Y-65277200D02*
X65318100Y-60764800D01*
X69830500Y-72422600D02*
X69830500Y-65277200D01*
X77009400Y-79601500D02*
X69830500Y-72422600D01*
X69221800Y-68769800D02*
X67990300Y-67538300D01*
X69221800Y-73069700D02*
X69221800Y-68769800D01*
X72917500Y-76765400D02*
X69221800Y-73069700D01*
X58400500Y-65910500D02*
X58400500Y-64248100D01*
X58400500Y-64248100D02*
X51152400Y-57000000D01*
X51152400Y-57000000D02*
X51000000Y-57000000D01*
X85358200Y-73810000D02*
X79739500Y-68191300D01*
X89592800Y-73810000D02*
X85358200Y-73810000D01*
X90816100Y-75033300D02*
X89592800Y-73810000D01*
X90816100Y-79995000D02*
X90816100Y-75033300D01*
X89000000Y-81811100D02*
X90816100Y-79995000D01*
X89000000Y-83000000D02*
X89000000Y-81811100D01*
X89000000Y-55000000D02*
X82620000Y-48620000D01*
X82620000Y-48620000D02*
X49953700Y-48620000D01*
X49953700Y-48620000D02*
X46787510Y-51786190D01*
X46787510Y-51786190D02*
X46787510Y-78713670D01*
X46787510Y-78713670D02*
X45700500Y-79800680D01*
X45700500Y-79800680D02*
X45700500Y-81150500D01*
X64500000Y-61750000D02*
X64500000Y-62514916D01*
X64500000Y-62514916D02*
X67331584Y-65346500D01*
X67331584Y-65346500D02*
X67365000Y-65346500D01*
X67420000Y-69750000D02*
X67420000Y-74000000D01*
X70000000Y-98750000D02*
X70000000Y-94750000D01*
X68798400Y-75378400D02*
X67420000Y-74000000D01*
X68798400Y-78939300D02*
X68798400Y-75378400D01*
X67470600Y-80267100D02*
X68798400Y-78939300D01*
X67470600Y-92220600D02*
X67470600Y-80267100D01*
X70000000Y-94750000D02*
X67470600Y-92220600D01*
X67365000Y-69695000D02*
X67420000Y-69750000D01*
X67365000Y-65346500D02*
X67365000Y-69695000D01*
X54000000Y-98750000D02*
X54000000Y-94750000D01*
X60940500Y-87809500D02*
X60940500Y-81150500D01*
X54000000Y-94750000D02*
X60940500Y-87809500D01*
X86000000Y-94750000D02*
X82909200Y-91659200D01*
X82909200Y-91659200D02*
X76260600Y-91659200D01*
X76260600Y-91659200D02*
X72370500Y-87769100D01*
X72370500Y-87769100D02*
X72370500Y-80475100D01*
X69691050Y-79683400D02*
X68560500Y-80813950D01*
X72370500Y-80475100D02*
X71578800Y-79683400D01*
X71578800Y-79683400D02*
X69691050Y-79683400D01*
X68560500Y-80813950D02*
X68560500Y-81150500D01*
X86000000Y-98750000D02*
X86000000Y-94750000D01*
X78000000Y-98750000D02*
X78000000Y-94750000D01*
X71100500Y-87850500D02*
X71100500Y-81150500D01*
X78000000Y-94750000D02*
X71100500Y-87850500D01*
X89000000Y-75080000D02*
X89152400Y-75080000D01*
X89152400Y-75080000D02*
X90351000Y-76278600D01*
X90351000Y-76278600D02*
X90351000Y-79188300D01*
X90351000Y-79188300D02*
X87658600Y-81880700D01*
X87658600Y-81880700D02*
X87658600Y-84351000D01*
X87658600Y-84351000D02*
X88847600Y-85540000D01*
X88847600Y-85540000D02*
X89000000Y-85540000D01*
X102810000Y-65110000D02*
X102454400Y-65110000D01*
X102454400Y-65110000D02*
X101340700Y-66223700D01*
X101340700Y-66223700D02*
X101340700Y-75731500D01*
X102149200Y-76540000D02*
X103495300Y-76540000D01*
X104291600Y-77336300D02*
X104291600Y-81764000D01*
X101340700Y-75731500D02*
X102149200Y-76540000D01*
X103495300Y-76540000D02*
X104291600Y-77336300D01*
X104291600Y-81764000D02*
X103165600Y-82890000D01*
X103165600Y-82890000D02*
X102810000Y-82890000D01*
X51000000Y-87540000D02*
X50847600Y-87540000D01*
X50847600Y-87540000D02*
X49510500Y-86202900D01*
X49510500Y-86202900D02*
X49510500Y-80335600D01*
X49510500Y-80335600D02*
X48325500Y-79150600D01*
X49648900Y-60738700D02*
X50847600Y-59540000D01*
X48325500Y-79150600D02*
X48325500Y-68675600D01*
X48325500Y-68675600D02*
X49648900Y-67352200D01*
X49648900Y-67352200D02*
X49648900Y-60738700D01*
X50847600Y-59540000D02*
X51000000Y-59540000D01*
X94000000Y-98750000D02*
X94000000Y-94750000D01*
X94750000Y-44750000D02*
X94750000Y-45725300D01*
X94834400Y-82890000D02*
X95190000Y-82890000D01*
X94750000Y-45725300D02*
X93715400Y-46759900D01*
X93715400Y-46759900D02*
X93715400Y-81771000D01*
X93715400Y-81771000D02*
X94834400Y-82890000D01*
D30*
X100500000Y-48000000D02*
X100500000Y-72855600D01*
X100500000Y-72855600D02*
X95545600Y-77810000D01*
X95545600Y-77810000D02*
X95190000Y-77810000D01*
X100500000Y-98000000D02*
X100500000Y-79764400D01*
X100500000Y-79764400D02*
X102454400Y-77810000D01*
X102454400Y-77810000D02*
X102810000Y-77810000D01*
X102810000Y-70190000D02*
X103165600Y-70190000D01*
X103165600Y-70190000D02*
X105500000Y-72524400D01*
X105500000Y-72524400D02*
X105500000Y-73448900D01*
X105500000Y-73448900D02*
X105500000Y-98000000D01*
D29*
X78905800Y-72674200D02*
X77580000Y-74000000D01*
X78905800Y-68022900D02*
X78905800Y-72674200D01*
X77268900Y-66386000D02*
X78905800Y-68022900D01*
X77268900Y-64127800D02*
X77268900Y-66386000D01*
X76080000Y-62938900D02*
X77268900Y-64127800D01*
X76080000Y-61750000D02*
X76080000Y-62938900D01*
X74728900Y-64127800D02*
X73540000Y-62938900D01*
X74728900Y-66898900D02*
X74728900Y-64127800D01*
X77580000Y-69750000D02*
X74728900Y-66898900D01*
X73540000Y-61750000D02*
X73540000Y-62938900D01*
X59492100Y-59032100D02*
X50460000Y-50000000D01*
X59492100Y-67451600D02*
X59492100Y-59032100D01*
X58754000Y-68189700D02*
X59492100Y-67451600D01*
X58754000Y-72424000D02*
X58754000Y-68189700D01*
X60080000Y-73750000D02*
X58754000Y-72424000D01*
X62043300Y-54583300D02*
X57460000Y-50000000D01*
X62043300Y-68645500D02*
X62043300Y-54583300D01*
X61541900Y-69146900D02*
X62043300Y-68645500D01*
X61541900Y-75788100D02*
X61541900Y-69146900D01*
X59830000Y-77500000D02*
X61541900Y-75788100D01*
X62000000Y-98750000D02*
X62000000Y-94750000D01*
X55860500Y-75431200D02*
X55860500Y-65910500D01*
X60089400Y-79660100D02*
X55860500Y-75431200D01*
X61328900Y-79660100D02*
X60089400Y-79660100D01*
X62052200Y-80383400D02*
X61328900Y-79660100D01*
X62052200Y-94697800D02*
X62052200Y-80383400D01*
X62000000Y-94750000D02*
X62052200Y-94697800D01*
D31*
G36*
X93503569Y-43848110D02*
X93452560Y-44100000D01*
X93452560Y-45400000D01*
X93496838Y-45635317D01*
X93601904Y-45798594D01*
X93177999Y-46222499D01*
X93013252Y-46469061D01*
X92955400Y-46759900D01*
X92955400Y-81771000D01*
X93013252Y-82061839D01*
X93177999Y-82308401D01*
X93440617Y-82571019D01*
X93377167Y-82890000D01*
X93485441Y-83434329D01*
X93793778Y-83895789D01*
X94255238Y-84204126D01*
X94799567Y-84312400D01*
X95580433Y-84312400D01*
X96124762Y-84204126D01*
X96586222Y-83895789D01*
X96894559Y-83434329D01*
X97002833Y-82890000D01*
X96894559Y-82345671D01*
X96586222Y-81884211D01*
X96190801Y-81620000D01*
X96586222Y-81355789D01*
X96894559Y-80894329D01*
X97002833Y-80350000D01*
X96894559Y-79805671D01*
X96586222Y-79344211D01*
X96190801Y-79080000D01*
X96586222Y-78815789D01*
X96894559Y-78354329D01*
X97002833Y-77810000D01*
X96945249Y-77520509D01*
X100580700Y-73885058D01*
X100580700Y-75731500D01*
X100638552Y-76022339D01*
X100803299Y-76268901D01*
X101383670Y-76849272D01*
X101105441Y-77265671D01*
X100997167Y-77810000D01*
X101054751Y-78099491D01*
X99944921Y-79209321D01*
X99774755Y-79463993D01*
X99715000Y-79764400D01*
X99715000Y-96284783D01*
X99433628Y-96401043D01*
X98902907Y-96930839D01*
X98615328Y-97623405D01*
X98614674Y-98373305D01*
X98901043Y-99066372D01*
X99430839Y-99597093D01*
X100123405Y-99884672D01*
X100873305Y-99885326D01*
X101566372Y-99598957D01*
X102097093Y-99069161D01*
X102384672Y-98376595D01*
X102385326Y-97626695D01*
X102098957Y-96933628D01*
X101569161Y-96402907D01*
X101285000Y-96284913D01*
X101285000Y-83703059D01*
X101413778Y-83895789D01*
X101875238Y-84204126D01*
X102419567Y-84312400D01*
X103200433Y-84312400D01*
X103744762Y-84204126D01*
X104206222Y-83895789D01*
X104514559Y-83434329D01*
X104622833Y-82890000D01*
X104559383Y-82571019D01*
X104715000Y-82415402D01*
X104715000Y-96284783D01*
X104433628Y-96401043D01*
X103902907Y-96930839D01*
X103615328Y-97623405D01*
X103614674Y-98373305D01*
X103901043Y-99066372D01*
X104430839Y-99597093D01*
X105123405Y-99884672D01*
X105873305Y-99885326D01*
X106566372Y-99598957D01*
X107097093Y-99069161D01*
X107384672Y-98376595D01*
X107385326Y-97626695D01*
X107126382Y-97000000D01*
X109290000Y-97000000D01*
X109496286Y-98037072D01*
X110083741Y-98916259D01*
X110962928Y-99503714D01*
X112000000Y-99710000D01*
X113037072Y-99503714D01*
X113916259Y-98916259D01*
X114503714Y-98037072D01*
X114710000Y-97000000D01*
X114503714Y-95962928D01*
X113916259Y-95083741D01*
X113037072Y-94496286D01*
X112000000Y-94290000D01*
X110962928Y-94496286D01*
X110083741Y-95083741D01*
X109496286Y-95962928D01*
X109290000Y-97000000D01*
X107126382Y-97000000D01*
X107098957Y-96933628D01*
X106569161Y-96402907D01*
X106285000Y-96284913D01*
X106285000Y-81873305D01*
X111114674Y-81873305D01*
X111401043Y-82566372D01*
X111930839Y-83097093D01*
X112623405Y-83384672D01*
X113373305Y-83385326D01*
X114066372Y-83098957D01*
X114597093Y-82569161D01*
X114884672Y-81876595D01*
X114885326Y-81126695D01*
X114598957Y-80433628D01*
X114069161Y-79902907D01*
X113376595Y-79615328D01*
X112626695Y-79614674D01*
X111933628Y-79901043D01*
X111402907Y-80430839D01*
X111115328Y-81123405D01*
X111114674Y-81873305D01*
X106285000Y-81873305D01*
X106285000Y-77833320D01*
X111846285Y-77833320D01*
X111975533Y-78126123D01*
X112675806Y-78394388D01*
X113425435Y-78374250D01*
X114024467Y-78126123D01*
X114153715Y-77833320D01*
X113000000Y-76679605D01*
X111846285Y-77833320D01*
X106285000Y-77833320D01*
X106285000Y-76175806D01*
X111105612Y-76175806D01*
X111125750Y-76925435D01*
X111373877Y-77524467D01*
X111666680Y-77653715D01*
X112820395Y-76500000D01*
X113179605Y-76500000D01*
X114333320Y-77653715D01*
X114626123Y-77524467D01*
X114894388Y-76824194D01*
X114874250Y-76074565D01*
X114626123Y-75475533D01*
X114333320Y-75346285D01*
X113179605Y-76500000D01*
X112820395Y-76500000D01*
X111666680Y-75346285D01*
X111373877Y-75475533D01*
X111105612Y-76175806D01*
X106285000Y-76175806D01*
X106285000Y-75166680D01*
X111846285Y-75166680D01*
X113000000Y-76320395D01*
X114153715Y-75166680D01*
X114024467Y-74873877D01*
X113324194Y-74605612D01*
X112574565Y-74625750D01*
X111975533Y-74873877D01*
X111846285Y-75166680D01*
X106285000Y-75166680D01*
X106285000Y-72524400D01*
X106225245Y-72223994D01*
X106225245Y-72223993D01*
X106055079Y-71969321D01*
X105959063Y-71873305D01*
X111114674Y-71873305D01*
X111401043Y-72566372D01*
X111930839Y-73097093D01*
X112623405Y-73384672D01*
X113373305Y-73385326D01*
X114066372Y-73098957D01*
X114597093Y-72569161D01*
X114884672Y-71876595D01*
X114885326Y-71126695D01*
X114598957Y-70433628D01*
X114069161Y-69902907D01*
X113376595Y-69615328D01*
X112626695Y-69614674D01*
X111933628Y-69901043D01*
X111402907Y-70430839D01*
X111115328Y-71123405D01*
X111114674Y-71873305D01*
X105959063Y-71873305D01*
X104565249Y-70479491D01*
X104622833Y-70190000D01*
X104514559Y-69645671D01*
X104206222Y-69184211D01*
X103810801Y-68920000D01*
X104206222Y-68655789D01*
X104514559Y-68194329D01*
X104622833Y-67650000D01*
X104514559Y-67105671D01*
X104359298Y-66873305D01*
X111114674Y-66873305D01*
X111401043Y-67566372D01*
X111930839Y-68097093D01*
X112623405Y-68384672D01*
X113373305Y-68385326D01*
X114066372Y-68098957D01*
X114597093Y-67569161D01*
X114884672Y-66876595D01*
X114885326Y-66126695D01*
X114598957Y-65433628D01*
X114069161Y-64902907D01*
X113376595Y-64615328D01*
X112626695Y-64614674D01*
X111933628Y-64901043D01*
X111402907Y-65430839D01*
X111115328Y-66123405D01*
X111114674Y-66873305D01*
X104359298Y-66873305D01*
X104206222Y-66644211D01*
X103810801Y-66380000D01*
X104206222Y-66115789D01*
X104514559Y-65654329D01*
X104622833Y-65110000D01*
X104514559Y-64565671D01*
X104206222Y-64104211D01*
X103744762Y-63795874D01*
X103200433Y-63687600D01*
X102419567Y-63687600D01*
X101875238Y-63795874D01*
X101413778Y-64104211D01*
X101285000Y-64296941D01*
X101285000Y-49715217D01*
X101566372Y-49598957D01*
X102097093Y-49069161D01*
X102384672Y-48376595D01*
X102384674Y-48373305D01*
X103614674Y-48373305D01*
X103901043Y-49066372D01*
X104430839Y-49597093D01*
X105123405Y-49884672D01*
X105873305Y-49885326D01*
X106566372Y-49598957D01*
X107097093Y-49069161D01*
X107125811Y-49000000D01*
X109290000Y-49000000D01*
X109496286Y-50037072D01*
X110083741Y-50916259D01*
X110962928Y-51503714D01*
X112000000Y-51710000D01*
X113037072Y-51503714D01*
X113916259Y-50916259D01*
X114503714Y-50037072D01*
X114710000Y-49000000D01*
X114503714Y-47962928D01*
X113916259Y-47083741D01*
X113037072Y-46496286D01*
X112000000Y-46290000D01*
X110962928Y-46496286D01*
X110083741Y-47083741D01*
X109496286Y-47962928D01*
X109290000Y-49000000D01*
X107125811Y-49000000D01*
X107384672Y-48376595D01*
X107385326Y-47626695D01*
X107098957Y-46933628D01*
X106569161Y-46402907D01*
X105876595Y-46115328D01*
X105126695Y-46114674D01*
X104433628Y-46401043D01*
X103902907Y-46930839D01*
X103615328Y-47623405D01*
X103614674Y-48373305D01*
X102384674Y-48373305D01*
X102385326Y-47626695D01*
X102098957Y-46933628D01*
X101569161Y-46402907D01*
X100876595Y-46115328D01*
X100126695Y-46114674D01*
X99433628Y-46401043D01*
X98902907Y-46930839D01*
X98615328Y-47623405D01*
X98614674Y-48373305D01*
X98901043Y-49066372D01*
X99430839Y-49597093D01*
X99715000Y-49715087D01*
X99715000Y-72530442D01*
X96819126Y-75426316D01*
X96802852Y-75397000D01*
X95317000Y-75397000D01*
X95317000Y-75417000D01*
X95063000Y-75417000D01*
X95063000Y-75397000D01*
X95043000Y-75397000D01*
X95043000Y-75143000D01*
X95063000Y-75143000D01*
X95063000Y-72857000D01*
X95317000Y-72857000D01*
X95317000Y-75143000D01*
X96802852Y-75143000D01*
X96925010Y-74922940D01*
X96908327Y-74843004D01*
X96641191Y-74354014D01*
X96207262Y-74004475D01*
X96192010Y-74000000D01*
X96207262Y-73995525D01*
X96641191Y-73645986D01*
X96908327Y-73156996D01*
X96925010Y-73077060D01*
X96802852Y-72857000D01*
X95317000Y-72857000D01*
X95063000Y-72857000D01*
X95043000Y-72857000D01*
X95043000Y-72603000D01*
X95063000Y-72603000D01*
X95063000Y-72583000D01*
X95317000Y-72583000D01*
X95317000Y-72603000D01*
X96802852Y-72603000D01*
X96925010Y-72382940D01*
X96908327Y-72303004D01*
X96641191Y-71814014D01*
X96207262Y-71464475D01*
X96191170Y-71459754D01*
X96586222Y-71195789D01*
X96894559Y-70734329D01*
X97002833Y-70190000D01*
X96894559Y-69645671D01*
X96586222Y-69184211D01*
X96190801Y-68920000D01*
X96586222Y-68655789D01*
X96894559Y-68194329D01*
X97002833Y-67650000D01*
X96894559Y-67105671D01*
X96586222Y-66644211D01*
X96414540Y-66529497D01*
X96568317Y-66500562D01*
X96784441Y-66361490D01*
X96929431Y-66149290D01*
X96980440Y-65897400D01*
X96980440Y-64322600D01*
X96936162Y-64087283D01*
X96797090Y-63871159D01*
X96584890Y-63726169D01*
X96333000Y-63675160D01*
X94475400Y-63675160D01*
X94475400Y-48515023D01*
X94569078Y-48547622D01*
X95079428Y-48518083D01*
X95413729Y-48379611D01*
X95469410Y-48149016D01*
X94750000Y-47429605D01*
X94735858Y-47443748D01*
X94556253Y-47264143D01*
X94570395Y-47250000D01*
X94929605Y-47250000D01*
X95649016Y-47969410D01*
X95879611Y-47913729D01*
X96047622Y-47430922D01*
X96018083Y-46920572D01*
X95879611Y-46586271D01*
X95649016Y-46530590D01*
X94929605Y-47250000D01*
X94570395Y-47250000D01*
X94556253Y-47235858D01*
X94735858Y-47056252D01*
X94750000Y-47070395D01*
X95469410Y-46350984D01*
X95413729Y-46120389D01*
X95388384Y-46111569D01*
X95435726Y-46040718D01*
X95635317Y-46003162D01*
X95851441Y-45864090D01*
X95996431Y-45651890D01*
X96047440Y-45400000D01*
X96047440Y-44100000D01*
X96003162Y-43864683D01*
X95903626Y-43710000D01*
X114930069Y-43710000D01*
X115871023Y-43897167D01*
X116609439Y-44390561D01*
X117102833Y-45128977D01*
X117290000Y-46069931D01*
X117290000Y-99930069D01*
X117102833Y-100871023D01*
X116609439Y-101609439D01*
X115871023Y-102102833D01*
X114930069Y-102290000D01*
X97147440Y-102290000D01*
X97147440Y-94750000D01*
X97135058Y-94684197D01*
X97135543Y-94129146D01*
X96659273Y-92976485D01*
X95778153Y-92093826D01*
X94626326Y-91615546D01*
X93379146Y-91614457D01*
X92226485Y-92090727D01*
X91343826Y-92971847D01*
X90865546Y-94123674D01*
X90865053Y-94688308D01*
X90852560Y-94750000D01*
X90852560Y-102290000D01*
X89147440Y-102290000D01*
X89147440Y-94750000D01*
X89135058Y-94684197D01*
X89135543Y-94129146D01*
X88659273Y-92976485D01*
X87778153Y-92093826D01*
X86626326Y-91615546D01*
X85379146Y-91614457D01*
X84360256Y-92035454D01*
X83532562Y-91207760D01*
X83625158Y-91169405D01*
X83723757Y-90902603D01*
X82751200Y-89930045D01*
X82737058Y-89944188D01*
X82557452Y-89764582D01*
X82571595Y-89750440D01*
X82930805Y-89750440D01*
X83903363Y-90722997D01*
X84170165Y-90624398D01*
X84396601Y-90014858D01*
X84372541Y-89365063D01*
X84170165Y-88876482D01*
X83903363Y-88777883D01*
X82930805Y-89750440D01*
X82571595Y-89750440D01*
X81599037Y-88777883D01*
X81332235Y-88876482D01*
X81105799Y-89486022D01*
X81129859Y-90135817D01*
X81332235Y-90624398D01*
X81599036Y-90722996D01*
X81484754Y-90837278D01*
X81546676Y-90899200D01*
X77453324Y-90899200D01*
X77515246Y-90837278D01*
X77400964Y-90722996D01*
X77667765Y-90624398D01*
X77894201Y-90014858D01*
X77870141Y-89365063D01*
X77667765Y-88876482D01*
X77400963Y-88777883D01*
X76428405Y-89750440D01*
X76442548Y-89764582D01*
X76262942Y-89944188D01*
X76248800Y-89930045D01*
X76234658Y-89944188D01*
X76055052Y-89764582D01*
X76069195Y-89750440D01*
X75096637Y-88777883D01*
X74829835Y-88876482D01*
X74754765Y-89078563D01*
X74274479Y-88598277D01*
X75276243Y-88598277D01*
X76248800Y-89570835D01*
X77221357Y-88598277D01*
X81778643Y-88598277D01*
X82751200Y-89570835D01*
X83723757Y-88598277D01*
X83664905Y-88439026D01*
X87392642Y-88439026D01*
X87395291Y-88454791D01*
X87649268Y-88982036D01*
X88085680Y-89371954D01*
X88638087Y-89565184D01*
X88873000Y-89420924D01*
X88873000Y-88207000D01*
X89127000Y-88207000D01*
X89127000Y-89420924D01*
X89361913Y-89565184D01*
X89914320Y-89371954D01*
X90350732Y-88982036D01*
X90604709Y-88454791D01*
X90607358Y-88439026D01*
X90486217Y-88207000D01*
X89127000Y-88207000D01*
X88873000Y-88207000D01*
X87513783Y-88207000D01*
X87392642Y-88439026D01*
X83664905Y-88439026D01*
X83625158Y-88331475D01*
X83015618Y-88105039D01*
X82365823Y-88129099D01*
X81877242Y-88331475D01*
X81778643Y-88598277D01*
X77221357Y-88598277D01*
X77122758Y-88331475D01*
X76513218Y-88105039D01*
X75863423Y-88129099D01*
X75374842Y-88331475D01*
X75276243Y-88598277D01*
X74274479Y-88598277D01*
X73130500Y-87454298D01*
X73130500Y-82816567D01*
X73640500Y-82918012D01*
X74175109Y-82811672D01*
X74628328Y-82508840D01*
X74910500Y-82086541D01*
X75192672Y-82508840D01*
X75645891Y-82811672D01*
X76180500Y-82918012D01*
X76715109Y-82811672D01*
X76859100Y-82715460D01*
X76859100Y-83564498D01*
X76739911Y-83683687D01*
X76575347Y-83615354D01*
X75925106Y-83614786D01*
X75324145Y-83863098D01*
X74863954Y-84322487D01*
X74614594Y-84923013D01*
X74614026Y-85573254D01*
X74862338Y-86174215D01*
X75321727Y-86634406D01*
X75922253Y-86883766D01*
X76572494Y-86884334D01*
X77173455Y-86636022D01*
X77633646Y-86176633D01*
X77883006Y-85576107D01*
X77883008Y-85573254D01*
X81116426Y-85573254D01*
X81364738Y-86174215D01*
X81824127Y-86634406D01*
X82424653Y-86883766D01*
X83074894Y-86884334D01*
X83675855Y-86636022D01*
X84136046Y-86176633D01*
X84385406Y-85576107D01*
X84385974Y-84925866D01*
X84137662Y-84324905D01*
X83678273Y-83864714D01*
X83077747Y-83615354D01*
X82427506Y-83614786D01*
X81826545Y-83863098D01*
X81366354Y-84322487D01*
X81116994Y-84923013D01*
X81116426Y-85573254D01*
X77883008Y-85573254D01*
X77883574Y-84925866D01*
X77814502Y-84758700D01*
X78156501Y-84416701D01*
X78321248Y-84170139D01*
X78379100Y-83879300D01*
X78379100Y-82840323D01*
X78593500Y-82718770D01*
X78593500Y-81277500D01*
X78573500Y-81277500D01*
X78573500Y-81023500D01*
X78593500Y-81023500D01*
X78593500Y-79582230D01*
X78847500Y-79582230D01*
X78847500Y-81023500D01*
X78867500Y-81023500D01*
X78867500Y-81277500D01*
X78847500Y-81277500D01*
X78847500Y-82718770D01*
X79063570Y-82841270D01*
X79137777Y-82826310D01*
X79618526Y-82564680D01*
X79962559Y-82138991D01*
X79981858Y-82073607D01*
X80272672Y-82508840D01*
X80725891Y-82811672D01*
X81260500Y-82918012D01*
X81795109Y-82811672D01*
X82248328Y-82508840D01*
X82551160Y-82055621D01*
X82657500Y-81521012D01*
X82657500Y-80779988D01*
X82551160Y-80245379D01*
X82248328Y-79792160D01*
X81795109Y-79489328D01*
X81260500Y-79382988D01*
X80725891Y-79489328D01*
X80272672Y-79792160D01*
X79981858Y-80227393D01*
X79962559Y-80162009D01*
X79618526Y-79736320D01*
X79137777Y-79474690D01*
X79063570Y-79459730D01*
X78847500Y-79582230D01*
X78593500Y-79582230D01*
X78394700Y-79469521D01*
X78394700Y-78931894D01*
X78504655Y-78886462D01*
X78964846Y-78427073D01*
X79150891Y-77979026D01*
X87392642Y-77979026D01*
X87395291Y-77994791D01*
X87649268Y-78522036D01*
X88085680Y-78911954D01*
X88638087Y-79105184D01*
X88873000Y-78960924D01*
X88873000Y-77747000D01*
X87513783Y-77747000D01*
X87392642Y-77979026D01*
X79150891Y-77979026D01*
X79214206Y-77826547D01*
X79214774Y-77176306D01*
X78966462Y-76575345D01*
X78507073Y-76115154D01*
X77906547Y-75865794D01*
X77256306Y-75865226D01*
X77089111Y-75934309D01*
X71860500Y-70705698D01*
X71860500Y-67422365D01*
X72088328Y-67270135D01*
X72379147Y-66834894D01*
X72398441Y-66900261D01*
X72742474Y-67325950D01*
X73223223Y-67587580D01*
X73297430Y-67602540D01*
X73513500Y-67480040D01*
X73513500Y-66037500D01*
X73493500Y-66037500D01*
X73493500Y-65783500D01*
X73513500Y-65783500D01*
X73513500Y-64340960D01*
X73297430Y-64218460D01*
X73223223Y-64233420D01*
X72742474Y-64495050D01*
X72398441Y-64920739D01*
X72379147Y-64986106D01*
X72088328Y-64550865D01*
X71635109Y-64248033D01*
X71100500Y-64141693D01*
X70565891Y-64248033D01*
X70152413Y-64524311D01*
X66514502Y-60886400D01*
X69488960Y-60886400D01*
X69488960Y-62613600D01*
X69533238Y-62848917D01*
X69672310Y-63065041D01*
X69884510Y-63210031D01*
X70136400Y-63261040D01*
X71863600Y-63261040D01*
X72098917Y-63216762D01*
X72315041Y-63077690D01*
X72460031Y-62865490D01*
X72468864Y-62821869D01*
X72480330Y-62839029D01*
X72803024Y-63054646D01*
X72837852Y-63229739D01*
X73002599Y-63476301D01*
X73831164Y-64304866D01*
X73767500Y-64340960D01*
X73767500Y-65783500D01*
X73787500Y-65783500D01*
X73787500Y-66037500D01*
X73767500Y-66037500D01*
X73767500Y-67480040D01*
X73983570Y-67602540D01*
X74057777Y-67587580D01*
X74242338Y-67487140D01*
X76014115Y-69258917D01*
X75945794Y-69423453D01*
X75945226Y-70073694D01*
X76193538Y-70674655D01*
X76652927Y-71134846D01*
X77253453Y-71384206D01*
X77903694Y-71384774D01*
X78145800Y-71284738D01*
X78145800Y-72359398D01*
X78071083Y-72434115D01*
X77906547Y-72365794D01*
X77256306Y-72365226D01*
X76655345Y-72613538D01*
X76195154Y-73072927D01*
X75945794Y-73673453D01*
X75945226Y-74323694D01*
X76193538Y-74924655D01*
X76652927Y-75384846D01*
X77253453Y-75634206D01*
X77903694Y-75634774D01*
X78504655Y-75386462D01*
X78964846Y-74927073D01*
X79214206Y-74326547D01*
X79214774Y-73676306D01*
X79145691Y-73509111D01*
X79443201Y-73211601D01*
X79607948Y-72965040D01*
X79665800Y-72674200D01*
X79665800Y-69192402D01*
X84820799Y-74347401D01*
X85067361Y-74512148D01*
X85358200Y-74570000D01*
X87418100Y-74570000D01*
X87316655Y-75080000D01*
X87430729Y-75653489D01*
X87755585Y-76139670D01*
X88065069Y-76346461D01*
X87649268Y-76717964D01*
X87395291Y-77245209D01*
X87392642Y-77260974D01*
X87513783Y-77493000D01*
X88873000Y-77493000D01*
X88873000Y-77473000D01*
X89127000Y-77473000D01*
X89127000Y-77493000D01*
X89147000Y-77493000D01*
X89147000Y-77747000D01*
X89127000Y-77747000D01*
X89127000Y-78960924D01*
X89360303Y-79104195D01*
X87121199Y-81343299D01*
X86956452Y-81589861D01*
X86898600Y-81880700D01*
X86898600Y-84351000D01*
X86956452Y-84641839D01*
X87121199Y-84888401D01*
X87392334Y-85159536D01*
X87316655Y-85540000D01*
X87430729Y-86113489D01*
X87755585Y-86599670D01*
X88065069Y-86806461D01*
X87649268Y-87177964D01*
X87395291Y-87705209D01*
X87392642Y-87720974D01*
X87513783Y-87953000D01*
X88873000Y-87953000D01*
X88873000Y-87933000D01*
X89127000Y-87933000D01*
X89127000Y-87953000D01*
X90486217Y-87953000D01*
X90607358Y-87720974D01*
X90604709Y-87705209D01*
X90350732Y-87177964D01*
X89934931Y-86806461D01*
X90244415Y-86599670D01*
X90569271Y-86113489D01*
X90683345Y-85540000D01*
X90569271Y-84966511D01*
X90244415Y-84480330D01*
X90230087Y-84470757D01*
X90251317Y-84466762D01*
X90467441Y-84327690D01*
X90612431Y-84115490D01*
X90663440Y-83863600D01*
X90663440Y-82136400D01*
X90619162Y-81901083D01*
X90480090Y-81684959D01*
X90314254Y-81571648D01*
X91353501Y-80532401D01*
X91518248Y-80285840D01*
X91576100Y-79995000D01*
X91576100Y-75033300D01*
X91518248Y-74742461D01*
X91518248Y-74742460D01*
X91353501Y-74495899D01*
X90329674Y-73472072D01*
X90569271Y-73113489D01*
X90683345Y-72540000D01*
X90569271Y-71966511D01*
X90244415Y-71480330D01*
X90230087Y-71470757D01*
X90251317Y-71466762D01*
X90467441Y-71327690D01*
X90612431Y-71115490D01*
X90663440Y-70863600D01*
X90663440Y-69136400D01*
X90619162Y-68901083D01*
X90480090Y-68684959D01*
X90267890Y-68539969D01*
X90016000Y-68488960D01*
X89681233Y-68488960D01*
X89537401Y-68273699D01*
X85190501Y-63926799D01*
X84943939Y-63762052D01*
X84653100Y-63704200D01*
X79828980Y-63704200D01*
X79586394Y-63752454D01*
X79538140Y-63762052D01*
X79291579Y-63926799D01*
X79017590Y-64200788D01*
X78720500Y-64141693D01*
X78185891Y-64248033D01*
X78028900Y-64352931D01*
X78028900Y-64127800D01*
X77971048Y-63836961D01*
X77920996Y-63762052D01*
X77806302Y-63590399D01*
X77088873Y-62872971D01*
X77139670Y-62839029D01*
X77350000Y-62524248D01*
X77560330Y-62839029D01*
X78046511Y-63163885D01*
X78620000Y-63277959D01*
X79193489Y-63163885D01*
X79679670Y-62839029D01*
X80004526Y-62352848D01*
X80078647Y-61980213D01*
X88199392Y-61980213D01*
X88268857Y-62222397D01*
X88792302Y-62409144D01*
X89347368Y-62381362D01*
X89731143Y-62222397D01*
X89800608Y-61980213D01*
X89000000Y-61179605D01*
X88199392Y-61980213D01*
X80078647Y-61980213D01*
X80118600Y-61779359D01*
X80118600Y-61720641D01*
X80004526Y-61147152D01*
X79767423Y-60792302D01*
X87590856Y-60792302D01*
X87618638Y-61347368D01*
X87777603Y-61731143D01*
X88019787Y-61800608D01*
X88820395Y-61000000D01*
X89179605Y-61000000D01*
X89980213Y-61800608D01*
X90222397Y-61731143D01*
X90409144Y-61207698D01*
X90381362Y-60652632D01*
X90222397Y-60268857D01*
X89980213Y-60199392D01*
X89179605Y-61000000D01*
X88820395Y-61000000D01*
X88019787Y-60199392D01*
X87777603Y-60268857D01*
X87590856Y-60792302D01*
X79767423Y-60792302D01*
X79679670Y-60660971D01*
X79408828Y-60480000D01*
X79679670Y-60299029D01*
X80004526Y-59812848D01*
X80118600Y-59239359D01*
X80118600Y-59180641D01*
X80004526Y-58607152D01*
X79679670Y-58120971D01*
X79193489Y-57796115D01*
X78620000Y-57682041D01*
X78046511Y-57796115D01*
X77560330Y-58120971D01*
X77350000Y-58435752D01*
X77139670Y-58120971D01*
X76653489Y-57796115D01*
X76080000Y-57682041D01*
X75506511Y-57796115D01*
X75020330Y-58120971D01*
X74810000Y-58435752D01*
X74599670Y-58120971D01*
X74113489Y-57796115D01*
X73540000Y-57682041D01*
X72966511Y-57796115D01*
X72480330Y-58120971D01*
X72264336Y-58444228D01*
X72206821Y-58321510D01*
X71774947Y-57927312D01*
X71359026Y-57755042D01*
X71127000Y-57876183D01*
X71127000Y-59083000D01*
X71147000Y-59083000D01*
X71147000Y-59337000D01*
X71127000Y-59337000D01*
X71127000Y-59357000D01*
X70873000Y-59357000D01*
X70873000Y-59337000D01*
X69665531Y-59337000D01*
X69545032Y-59569027D01*
X69793179Y-60098490D01*
X69979433Y-60268495D01*
X69901083Y-60283238D01*
X69684959Y-60422310D01*
X69539969Y-60634510D01*
X69488960Y-60886400D01*
X66514502Y-60886400D01*
X65855501Y-60227399D01*
X65608939Y-60062652D01*
X65463288Y-60033680D01*
X65399018Y-59969410D01*
X65629611Y-59913729D01*
X65797622Y-59430922D01*
X65768083Y-58920572D01*
X65739255Y-58850973D01*
X69545032Y-58850973D01*
X69665531Y-59083000D01*
X70873000Y-59083000D01*
X70873000Y-57876183D01*
X70640974Y-57755042D01*
X70225053Y-57927312D01*
X69793179Y-58321510D01*
X69545032Y-58850973D01*
X65739255Y-58850973D01*
X65629611Y-58586271D01*
X65399016Y-58530590D01*
X64679605Y-59250000D01*
X64693748Y-59264142D01*
X64514142Y-59443748D01*
X64500000Y-59429605D01*
X64485858Y-59443748D01*
X64306252Y-59264142D01*
X64320395Y-59250000D01*
X63600984Y-58530590D01*
X63370389Y-58586271D01*
X63202378Y-59069078D01*
X63231917Y-59579428D01*
X63370389Y-59913729D01*
X63600982Y-59969410D01*
X63549574Y-60020818D01*
X63339260Y-60062652D01*
X63092699Y-60227399D01*
X62943099Y-60376999D01*
X62803300Y-60586224D01*
X62803300Y-58350984D01*
X63780590Y-58350984D01*
X64500000Y-59070395D01*
X65219410Y-58350984D01*
X65163729Y-58120389D01*
X64680922Y-57952378D01*
X64170572Y-57981917D01*
X63836271Y-58120389D01*
X63780590Y-58350984D01*
X62803300Y-58350984D01*
X62803300Y-54583300D01*
X62745448Y-54292461D01*
X62580701Y-54045899D01*
X60127002Y-51592200D01*
X60127002Y-51476252D01*
X60285750Y-51635000D01*
X61076310Y-51635000D01*
X61309699Y-51538327D01*
X61488327Y-51359698D01*
X61585000Y-51126309D01*
X61585000Y-50285750D01*
X61426250Y-50127000D01*
X60127000Y-50127000D01*
X60127000Y-50147000D01*
X59873000Y-50147000D01*
X59873000Y-50127000D01*
X59853000Y-50127000D01*
X59853000Y-49873000D01*
X59873000Y-49873000D01*
X59873000Y-49853000D01*
X60127000Y-49853000D01*
X60127000Y-49873000D01*
X61426250Y-49873000D01*
X61585000Y-49714250D01*
X61585000Y-49380000D01*
X82305198Y-49380000D01*
X87615817Y-54690619D01*
X87603243Y-54720900D01*
X87602758Y-55276661D01*
X87814990Y-55790303D01*
X88024342Y-56000021D01*
X87816371Y-56207630D01*
X87603243Y-56720900D01*
X87602758Y-57276661D01*
X87814990Y-57790303D01*
X88024342Y-58000021D01*
X87816371Y-58207630D01*
X87603243Y-58720900D01*
X87602758Y-59276661D01*
X87814990Y-59790303D01*
X88207630Y-60183629D01*
X88473727Y-60294122D01*
X89000000Y-60820395D01*
X89526302Y-60294093D01*
X89790303Y-60185010D01*
X90183629Y-59792370D01*
X90396757Y-59279100D01*
X90397242Y-58723339D01*
X90185010Y-58209697D01*
X89975658Y-57999979D01*
X90183629Y-57792370D01*
X90396757Y-57279100D01*
X90397242Y-56723339D01*
X90185010Y-56209697D01*
X89975658Y-55999979D01*
X90183629Y-55792370D01*
X90396757Y-55279100D01*
X90397242Y-54723339D01*
X90185010Y-54209697D01*
X89792370Y-53816371D01*
X89279100Y-53603243D01*
X88723339Y-53602758D01*
X88690945Y-53616143D01*
X83157401Y-48082599D01*
X82910839Y-47917852D01*
X82620000Y-47860000D01*
X49953700Y-47860000D01*
X49662861Y-47917852D01*
X49416299Y-48082599D01*
X47585000Y-49913898D01*
X47585000Y-49872998D01*
X47426252Y-49872998D01*
X47585000Y-49714250D01*
X47585000Y-48873691D01*
X47488327Y-48640302D01*
X47309699Y-48461673D01*
X47076310Y-48365000D01*
X46285750Y-48365000D01*
X46127000Y-48523750D01*
X46127000Y-49873000D01*
X46147000Y-49873000D01*
X46147000Y-50127000D01*
X46127000Y-50127000D01*
X46127000Y-51433035D01*
X46085362Y-51495351D01*
X46027510Y-51786190D01*
X46027510Y-58250240D01*
X45916259Y-58083741D01*
X45037072Y-57496286D01*
X44000000Y-57290000D01*
X42962928Y-57496286D01*
X42083741Y-58083741D01*
X41496286Y-58962928D01*
X41290000Y-60000000D01*
X41496286Y-61037072D01*
X42083741Y-61916259D01*
X42962928Y-62503714D01*
X44000000Y-62710000D01*
X45037072Y-62503714D01*
X45916259Y-61916259D01*
X46027510Y-61749760D01*
X46027510Y-64206739D01*
X45700500Y-64141693D01*
X45165891Y-64248033D01*
X44712672Y-64550865D01*
X44409840Y-65004084D01*
X44303500Y-65538693D01*
X44303500Y-66282307D01*
X44409840Y-66816916D01*
X44712672Y-67270135D01*
X45165891Y-67572967D01*
X45700500Y-67679307D01*
X46027510Y-67614261D01*
X46027510Y-78398868D01*
X45163099Y-79263279D01*
X44998352Y-79509841D01*
X44977674Y-79613796D01*
X44712672Y-79790865D01*
X44409840Y-80244084D01*
X44303500Y-80778693D01*
X44303500Y-81522307D01*
X44409840Y-82056916D01*
X44712672Y-82510135D01*
X45165891Y-82812967D01*
X45700500Y-82919307D01*
X46235109Y-82812967D01*
X46688328Y-82510135D01*
X46970500Y-82087836D01*
X47252672Y-82510135D01*
X47705891Y-82812967D01*
X48240500Y-82919307D01*
X48750500Y-82817862D01*
X48750500Y-86202900D01*
X48808352Y-86493739D01*
X48973099Y-86740301D01*
X49392334Y-87159536D01*
X49316655Y-87540000D01*
X49430729Y-88113489D01*
X49755585Y-88599670D01*
X50065069Y-88806461D01*
X49649268Y-89177964D01*
X49395291Y-89705209D01*
X49392642Y-89720974D01*
X49513783Y-89953000D01*
X50873000Y-89953000D01*
X50873000Y-89933000D01*
X51127000Y-89933000D01*
X51127000Y-89953000D01*
X52486217Y-89953000D01*
X52607358Y-89720974D01*
X52604709Y-89705209D01*
X52350732Y-89177964D01*
X51934931Y-88806461D01*
X52244415Y-88599670D01*
X52569271Y-88113489D01*
X52683345Y-87540000D01*
X52569271Y-86966511D01*
X52244415Y-86480330D01*
X52230087Y-86470757D01*
X52251317Y-86466762D01*
X52467441Y-86327690D01*
X52612431Y-86115490D01*
X52663440Y-85863600D01*
X52663440Y-84136400D01*
X52619162Y-83901083D01*
X52480090Y-83684959D01*
X52267890Y-83539969D01*
X52016000Y-83488960D01*
X50270500Y-83488960D01*
X50270500Y-82817862D01*
X50780500Y-82919307D01*
X51315109Y-82812967D01*
X51768328Y-82510135D01*
X52050500Y-82087836D01*
X52332672Y-82510135D01*
X52785891Y-82812967D01*
X53320500Y-82919307D01*
X53855109Y-82812967D01*
X54308328Y-82510135D01*
X54590933Y-82087188D01*
X54872672Y-82508840D01*
X55325891Y-82811672D01*
X55860500Y-82918012D01*
X56395109Y-82811672D01*
X56848328Y-82508840D01*
X57130500Y-82086541D01*
X57412672Y-82508840D01*
X57865891Y-82811672D01*
X58400500Y-82918012D01*
X58935109Y-82811672D01*
X59388328Y-82508840D01*
X59670500Y-82086541D01*
X59952672Y-82508840D01*
X60180500Y-82661070D01*
X60180500Y-87494698D01*
X55639108Y-92036090D01*
X54626326Y-91615546D01*
X53379146Y-91614457D01*
X52226485Y-92090727D01*
X51343826Y-92971847D01*
X50865546Y-94123674D01*
X50865053Y-94688308D01*
X50852560Y-94750000D01*
X50852560Y-102290000D01*
X49135000Y-102290000D01*
X49135000Y-99035750D01*
X48976250Y-98877000D01*
X46127000Y-98877000D01*
X46127000Y-98897000D01*
X45873000Y-98897000D01*
X45873000Y-98877000D01*
X43023750Y-98877000D01*
X42865000Y-99035750D01*
X42865000Y-102249237D01*
X42128977Y-102102833D01*
X41390561Y-101609439D01*
X40897167Y-100871023D01*
X40710000Y-99930069D01*
X40710000Y-94127892D01*
X42864706Y-94127892D01*
X42865000Y-94750000D01*
X42865000Y-98464250D01*
X43023750Y-98623000D01*
X45873000Y-98623000D01*
X45873000Y-98603000D01*
X46127000Y-98603000D01*
X46127000Y-98623000D01*
X48976250Y-98623000D01*
X49135000Y-98464250D01*
X49135000Y-95372819D01*
X49135294Y-95372108D01*
X49135000Y-94749577D01*
X49135000Y-94623690D01*
X49134940Y-94623546D01*
X49134705Y-94124928D01*
X48658564Y-92975421D01*
X48235880Y-92693725D01*
X46814605Y-94115000D01*
X46455395Y-94115000D01*
X48056275Y-92514120D01*
X47774579Y-92091436D01*
X46622108Y-91614706D01*
X45374928Y-91615295D01*
X44225421Y-92091436D01*
X43943725Y-92514120D01*
X45544605Y-94115000D01*
X45185395Y-94115000D01*
X43764120Y-92693725D01*
X43341436Y-92975421D01*
X42864706Y-94127892D01*
X40710000Y-94127892D01*
X40710000Y-88000000D01*
X41290000Y-88000000D01*
X41496286Y-89037072D01*
X42083741Y-89916259D01*
X42962928Y-90503714D01*
X44000000Y-90710000D01*
X45037072Y-90503714D01*
X45133884Y-90439026D01*
X49392642Y-90439026D01*
X49395291Y-90454791D01*
X49649268Y-90982036D01*
X50085680Y-91371954D01*
X50638087Y-91565184D01*
X50873000Y-91420924D01*
X50873000Y-90207000D01*
X51127000Y-90207000D01*
X51127000Y-91420924D01*
X51361913Y-91565184D01*
X51914320Y-91371954D01*
X52350732Y-90982036D01*
X52604709Y-90454791D01*
X52607358Y-90439026D01*
X52486217Y-90207000D01*
X51127000Y-90207000D01*
X50873000Y-90207000D01*
X49513783Y-90207000D01*
X49392642Y-90439026D01*
X45133884Y-90439026D01*
X45916259Y-89916259D01*
X46503714Y-89037072D01*
X46710000Y-88000000D01*
X46503714Y-86962928D01*
X45916259Y-86083741D01*
X45037072Y-85496286D01*
X44000000Y-85290000D01*
X42962928Y-85496286D01*
X42083741Y-86083741D01*
X41496286Y-86962928D01*
X41290000Y-88000000D01*
X40710000Y-88000000D01*
X40710000Y-50313893D01*
X41874725Y-50313893D01*
X42115519Y-50896657D01*
X42560997Y-51342914D01*
X43143341Y-51584724D01*
X43773893Y-51585275D01*
X44356657Y-51344481D01*
X44461867Y-51239455D01*
X44511673Y-51359698D01*
X44690301Y-51538327D01*
X44923690Y-51635000D01*
X45714250Y-51635000D01*
X45873000Y-51476250D01*
X45873000Y-50127000D01*
X45853000Y-50127000D01*
X45853000Y-49873000D01*
X45873000Y-49873000D01*
X45873000Y-48523750D01*
X45714250Y-48365000D01*
X44923690Y-48365000D01*
X44690301Y-48461673D01*
X44511673Y-48640302D01*
X44461988Y-48760251D01*
X44359003Y-48657086D01*
X43776659Y-48415276D01*
X43146107Y-48414725D01*
X42563343Y-48655519D01*
X42117086Y-49100997D01*
X41875276Y-49683341D01*
X41874725Y-50313893D01*
X40710000Y-50313893D01*
X40710000Y-46069931D01*
X40897167Y-45128977D01*
X41390561Y-44390561D01*
X42128977Y-43897167D01*
X43069931Y-43710000D01*
X93597935Y-43710000D01*
X93503569Y-43848110D01*
X93503569Y-43848110D01*
G37*
X93503569Y-43848110D02*
X93452560Y-44100000D01*
X93452560Y-45400000D01*
X93496838Y-45635317D01*
X93601904Y-45798594D01*
X93177999Y-46222499D01*
X93013252Y-46469061D01*
X92955400Y-46759900D01*
X92955400Y-81771000D01*
X93013252Y-82061839D01*
X93177999Y-82308401D01*
X93440617Y-82571019D01*
X93377167Y-82890000D01*
X93485441Y-83434329D01*
X93793778Y-83895789D01*
X94255238Y-84204126D01*
X94799567Y-84312400D01*
X95580433Y-84312400D01*
X96124762Y-84204126D01*
X96586222Y-83895789D01*
X96894559Y-83434329D01*
X97002833Y-82890000D01*
X96894559Y-82345671D01*
X96586222Y-81884211D01*
X96190801Y-81620000D01*
X96586222Y-81355789D01*
X96894559Y-80894329D01*
X97002833Y-80350000D01*
X96894559Y-79805671D01*
X96586222Y-79344211D01*
X96190801Y-79080000D01*
X96586222Y-78815789D01*
X96894559Y-78354329D01*
X97002833Y-77810000D01*
X96945249Y-77520509D01*
X100580700Y-73885058D01*
X100580700Y-75731500D01*
X100638552Y-76022339D01*
X100803299Y-76268901D01*
X101383670Y-76849272D01*
X101105441Y-77265671D01*
X100997167Y-77810000D01*
X101054751Y-78099491D01*
X99944921Y-79209321D01*
X99774755Y-79463993D01*
X99715000Y-79764400D01*
X99715000Y-96284783D01*
X99433628Y-96401043D01*
X98902907Y-96930839D01*
X98615328Y-97623405D01*
X98614674Y-98373305D01*
X98901043Y-99066372D01*
X99430839Y-99597093D01*
X100123405Y-99884672D01*
X100873305Y-99885326D01*
X101566372Y-99598957D01*
X102097093Y-99069161D01*
X102384672Y-98376595D01*
X102385326Y-97626695D01*
X102098957Y-96933628D01*
X101569161Y-96402907D01*
X101285000Y-96284913D01*
X101285000Y-83703059D01*
X101413778Y-83895789D01*
X101875238Y-84204126D01*
X102419567Y-84312400D01*
X103200433Y-84312400D01*
X103744762Y-84204126D01*
X104206222Y-83895789D01*
X104514559Y-83434329D01*
X104622833Y-82890000D01*
X104559383Y-82571019D01*
X104715000Y-82415402D01*
X104715000Y-96284783D01*
X104433628Y-96401043D01*
X103902907Y-96930839D01*
X103615328Y-97623405D01*
X103614674Y-98373305D01*
X103901043Y-99066372D01*
X104430839Y-99597093D01*
X105123405Y-99884672D01*
X105873305Y-99885326D01*
X106566372Y-99598957D01*
X107097093Y-99069161D01*
X107384672Y-98376595D01*
X107385326Y-97626695D01*
X107126382Y-97000000D01*
X109290000Y-97000000D01*
X109496286Y-98037072D01*
X110083741Y-98916259D01*
X110962928Y-99503714D01*
X112000000Y-99710000D01*
X113037072Y-99503714D01*
X113916259Y-98916259D01*
X114503714Y-98037072D01*
X114710000Y-97000000D01*
X114503714Y-95962928D01*
X113916259Y-95083741D01*
X113037072Y-94496286D01*
X112000000Y-94290000D01*
X110962928Y-94496286D01*
X110083741Y-95083741D01*
X109496286Y-95962928D01*
X109290000Y-97000000D01*
X107126382Y-97000000D01*
X107098957Y-96933628D01*
X106569161Y-96402907D01*
X106285000Y-96284913D01*
X106285000Y-81873305D01*
X111114674Y-81873305D01*
X111401043Y-82566372D01*
X111930839Y-83097093D01*
X112623405Y-83384672D01*
X113373305Y-83385326D01*
X114066372Y-83098957D01*
X114597093Y-82569161D01*
X114884672Y-81876595D01*
X114885326Y-81126695D01*
X114598957Y-80433628D01*
X114069161Y-79902907D01*
X113376595Y-79615328D01*
X112626695Y-79614674D01*
X111933628Y-79901043D01*
X111402907Y-80430839D01*
X111115328Y-81123405D01*
X111114674Y-81873305D01*
X106285000Y-81873305D01*
X106285000Y-77833320D01*
X111846285Y-77833320D01*
X111975533Y-78126123D01*
X112675806Y-78394388D01*
X113425435Y-78374250D01*
X114024467Y-78126123D01*
X114153715Y-77833320D01*
X113000000Y-76679605D01*
X111846285Y-77833320D01*
X106285000Y-77833320D01*
X106285000Y-76175806D01*
X111105612Y-76175806D01*
X111125750Y-76925435D01*
X111373877Y-77524467D01*
X111666680Y-77653715D01*
X112820395Y-76500000D01*
X113179605Y-76500000D01*
X114333320Y-77653715D01*
X114626123Y-77524467D01*
X114894388Y-76824194D01*
X114874250Y-76074565D01*
X114626123Y-75475533D01*
X114333320Y-75346285D01*
X113179605Y-76500000D01*
X112820395Y-76500000D01*
X111666680Y-75346285D01*
X111373877Y-75475533D01*
X111105612Y-76175806D01*
X106285000Y-76175806D01*
X106285000Y-75166680D01*
X111846285Y-75166680D01*
X113000000Y-76320395D01*
X114153715Y-75166680D01*
X114024467Y-74873877D01*
X113324194Y-74605612D01*
X112574565Y-74625750D01*
X111975533Y-74873877D01*
X111846285Y-75166680D01*
X106285000Y-75166680D01*
X106285000Y-72524400D01*
X106225245Y-72223994D01*
X106225245Y-72223993D01*
X106055079Y-71969321D01*
X105959063Y-71873305D01*
X111114674Y-71873305D01*
X111401043Y-72566372D01*
X111930839Y-73097093D01*
X112623405Y-73384672D01*
X113373305Y-73385326D01*
X114066372Y-73098957D01*
X114597093Y-72569161D01*
X114884672Y-71876595D01*
X114885326Y-71126695D01*
X114598957Y-70433628D01*
X114069161Y-69902907D01*
X113376595Y-69615328D01*
X112626695Y-69614674D01*
X111933628Y-69901043D01*
X111402907Y-70430839D01*
X111115328Y-71123405D01*
X111114674Y-71873305D01*
X105959063Y-71873305D01*
X104565249Y-70479491D01*
X104622833Y-70190000D01*
X104514559Y-69645671D01*
X104206222Y-69184211D01*
X103810801Y-68920000D01*
X104206222Y-68655789D01*
X104514559Y-68194329D01*
X104622833Y-67650000D01*
X104514559Y-67105671D01*
X104359298Y-66873305D01*
X111114674Y-66873305D01*
X111401043Y-67566372D01*
X111930839Y-68097093D01*
X112623405Y-68384672D01*
X113373305Y-68385326D01*
X114066372Y-68098957D01*
X114597093Y-67569161D01*
X114884672Y-66876595D01*
X114885326Y-66126695D01*
X114598957Y-65433628D01*
X114069161Y-64902907D01*
X113376595Y-64615328D01*
X112626695Y-64614674D01*
X111933628Y-64901043D01*
X111402907Y-65430839D01*
X111115328Y-66123405D01*
X111114674Y-66873305D01*
X104359298Y-66873305D01*
X104206222Y-66644211D01*
X103810801Y-66380000D01*
X104206222Y-66115789D01*
X104514559Y-65654329D01*
X104622833Y-65110000D01*
X104514559Y-64565671D01*
X104206222Y-64104211D01*
X103744762Y-63795874D01*
X103200433Y-63687600D01*
X102419567Y-63687600D01*
X101875238Y-63795874D01*
X101413778Y-64104211D01*
X101285000Y-64296941D01*
X101285000Y-49715217D01*
X101566372Y-49598957D01*
X102097093Y-49069161D01*
X102384672Y-48376595D01*
X102384674Y-48373305D01*
X103614674Y-48373305D01*
X103901043Y-49066372D01*
X104430839Y-49597093D01*
X105123405Y-49884672D01*
X105873305Y-49885326D01*
X106566372Y-49598957D01*
X107097093Y-49069161D01*
X107125811Y-49000000D01*
X109290000Y-49000000D01*
X109496286Y-50037072D01*
X110083741Y-50916259D01*
X110962928Y-51503714D01*
X112000000Y-51710000D01*
X113037072Y-51503714D01*
X113916259Y-50916259D01*
X114503714Y-50037072D01*
X114710000Y-49000000D01*
X114503714Y-47962928D01*
X113916259Y-47083741D01*
X113037072Y-46496286D01*
X112000000Y-46290000D01*
X110962928Y-46496286D01*
X110083741Y-47083741D01*
X109496286Y-47962928D01*
X109290000Y-49000000D01*
X107125811Y-49000000D01*
X107384672Y-48376595D01*
X107385326Y-47626695D01*
X107098957Y-46933628D01*
X106569161Y-46402907D01*
X105876595Y-46115328D01*
X105126695Y-46114674D01*
X104433628Y-46401043D01*
X103902907Y-46930839D01*
X103615328Y-47623405D01*
X103614674Y-48373305D01*
X102384674Y-48373305D01*
X102385326Y-47626695D01*
X102098957Y-46933628D01*
X101569161Y-46402907D01*
X100876595Y-46115328D01*
X100126695Y-46114674D01*
X99433628Y-46401043D01*
X98902907Y-46930839D01*
X98615328Y-47623405D01*
X98614674Y-48373305D01*
X98901043Y-49066372D01*
X99430839Y-49597093D01*
X99715000Y-49715087D01*
X99715000Y-72530442D01*
X96819126Y-75426316D01*
X96802852Y-75397000D01*
X95317000Y-75397000D01*
X95317000Y-75417000D01*
X95063000Y-75417000D01*
X95063000Y-75397000D01*
X95043000Y-75397000D01*
X95043000Y-75143000D01*
X95063000Y-75143000D01*
X95063000Y-72857000D01*
X95317000Y-72857000D01*
X95317000Y-75143000D01*
X96802852Y-75143000D01*
X96925010Y-74922940D01*
X96908327Y-74843004D01*
X96641191Y-74354014D01*
X96207262Y-74004475D01*
X96192010Y-74000000D01*
X96207262Y-73995525D01*
X96641191Y-73645986D01*
X96908327Y-73156996D01*
X96925010Y-73077060D01*
X96802852Y-72857000D01*
X95317000Y-72857000D01*
X95063000Y-72857000D01*
X95043000Y-72857000D01*
X95043000Y-72603000D01*
X95063000Y-72603000D01*
X95063000Y-72583000D01*
X95317000Y-72583000D01*
X95317000Y-72603000D01*
X96802852Y-72603000D01*
X96925010Y-72382940D01*
X96908327Y-72303004D01*
X96641191Y-71814014D01*
X96207262Y-71464475D01*
X96191170Y-71459754D01*
X96586222Y-71195789D01*
X96894559Y-70734329D01*
X97002833Y-70190000D01*
X96894559Y-69645671D01*
X96586222Y-69184211D01*
X96190801Y-68920000D01*
X96586222Y-68655789D01*
X96894559Y-68194329D01*
X97002833Y-67650000D01*
X96894559Y-67105671D01*
X96586222Y-66644211D01*
X96414540Y-66529497D01*
X96568317Y-66500562D01*
X96784441Y-66361490D01*
X96929431Y-66149290D01*
X96980440Y-65897400D01*
X96980440Y-64322600D01*
X96936162Y-64087283D01*
X96797090Y-63871159D01*
X96584890Y-63726169D01*
X96333000Y-63675160D01*
X94475400Y-63675160D01*
X94475400Y-48515023D01*
X94569078Y-48547622D01*
X95079428Y-48518083D01*
X95413729Y-48379611D01*
X95469410Y-48149016D01*
X94750000Y-47429605D01*
X94735858Y-47443748D01*
X94556253Y-47264143D01*
X94570395Y-47250000D01*
X94929605Y-47250000D01*
X95649016Y-47969410D01*
X95879611Y-47913729D01*
X96047622Y-47430922D01*
X96018083Y-46920572D01*
X95879611Y-46586271D01*
X95649016Y-46530590D01*
X94929605Y-47250000D01*
X94570395Y-47250000D01*
X94556253Y-47235858D01*
X94735858Y-47056252D01*
X94750000Y-47070395D01*
X95469410Y-46350984D01*
X95413729Y-46120389D01*
X95388384Y-46111569D01*
X95435726Y-46040718D01*
X95635317Y-46003162D01*
X95851441Y-45864090D01*
X95996431Y-45651890D01*
X96047440Y-45400000D01*
X96047440Y-44100000D01*
X96003162Y-43864683D01*
X95903626Y-43710000D01*
X114930069Y-43710000D01*
X115871023Y-43897167D01*
X116609439Y-44390561D01*
X117102833Y-45128977D01*
X117290000Y-46069931D01*
X117290000Y-99930069D01*
X117102833Y-100871023D01*
X116609439Y-101609439D01*
X115871023Y-102102833D01*
X114930069Y-102290000D01*
X97147440Y-102290000D01*
X97147440Y-94750000D01*
X97135058Y-94684197D01*
X97135543Y-94129146D01*
X96659273Y-92976485D01*
X95778153Y-92093826D01*
X94626326Y-91615546D01*
X93379146Y-91614457D01*
X92226485Y-92090727D01*
X91343826Y-92971847D01*
X90865546Y-94123674D01*
X90865053Y-94688308D01*
X90852560Y-94750000D01*
X90852560Y-102290000D01*
X89147440Y-102290000D01*
X89147440Y-94750000D01*
X89135058Y-94684197D01*
X89135543Y-94129146D01*
X88659273Y-92976485D01*
X87778153Y-92093826D01*
X86626326Y-91615546D01*
X85379146Y-91614457D01*
X84360256Y-92035454D01*
X83532562Y-91207760D01*
X83625158Y-91169405D01*
X83723757Y-90902603D01*
X82751200Y-89930045D01*
X82737058Y-89944188D01*
X82557452Y-89764582D01*
X82571595Y-89750440D01*
X82930805Y-89750440D01*
X83903363Y-90722997D01*
X84170165Y-90624398D01*
X84396601Y-90014858D01*
X84372541Y-89365063D01*
X84170165Y-88876482D01*
X83903363Y-88777883D01*
X82930805Y-89750440D01*
X82571595Y-89750440D01*
X81599037Y-88777883D01*
X81332235Y-88876482D01*
X81105799Y-89486022D01*
X81129859Y-90135817D01*
X81332235Y-90624398D01*
X81599036Y-90722996D01*
X81484754Y-90837278D01*
X81546676Y-90899200D01*
X77453324Y-90899200D01*
X77515246Y-90837278D01*
X77400964Y-90722996D01*
X77667765Y-90624398D01*
X77894201Y-90014858D01*
X77870141Y-89365063D01*
X77667765Y-88876482D01*
X77400963Y-88777883D01*
X76428405Y-89750440D01*
X76442548Y-89764582D01*
X76262942Y-89944188D01*
X76248800Y-89930045D01*
X76234658Y-89944188D01*
X76055052Y-89764582D01*
X76069195Y-89750440D01*
X75096637Y-88777883D01*
X74829835Y-88876482D01*
X74754765Y-89078563D01*
X74274479Y-88598277D01*
X75276243Y-88598277D01*
X76248800Y-89570835D01*
X77221357Y-88598277D01*
X81778643Y-88598277D01*
X82751200Y-89570835D01*
X83723757Y-88598277D01*
X83664905Y-88439026D01*
X87392642Y-88439026D01*
X87395291Y-88454791D01*
X87649268Y-88982036D01*
X88085680Y-89371954D01*
X88638087Y-89565184D01*
X88873000Y-89420924D01*
X88873000Y-88207000D01*
X89127000Y-88207000D01*
X89127000Y-89420924D01*
X89361913Y-89565184D01*
X89914320Y-89371954D01*
X90350732Y-88982036D01*
X90604709Y-88454791D01*
X90607358Y-88439026D01*
X90486217Y-88207000D01*
X89127000Y-88207000D01*
X88873000Y-88207000D01*
X87513783Y-88207000D01*
X87392642Y-88439026D01*
X83664905Y-88439026D01*
X83625158Y-88331475D01*
X83015618Y-88105039D01*
X82365823Y-88129099D01*
X81877242Y-88331475D01*
X81778643Y-88598277D01*
X77221357Y-88598277D01*
X77122758Y-88331475D01*
X76513218Y-88105039D01*
X75863423Y-88129099D01*
X75374842Y-88331475D01*
X75276243Y-88598277D01*
X74274479Y-88598277D01*
X73130500Y-87454298D01*
X73130500Y-82816567D01*
X73640500Y-82918012D01*
X74175109Y-82811672D01*
X74628328Y-82508840D01*
X74910500Y-82086541D01*
X75192672Y-82508840D01*
X75645891Y-82811672D01*
X76180500Y-82918012D01*
X76715109Y-82811672D01*
X76859100Y-82715460D01*
X76859100Y-83564498D01*
X76739911Y-83683687D01*
X76575347Y-83615354D01*
X75925106Y-83614786D01*
X75324145Y-83863098D01*
X74863954Y-84322487D01*
X74614594Y-84923013D01*
X74614026Y-85573254D01*
X74862338Y-86174215D01*
X75321727Y-86634406D01*
X75922253Y-86883766D01*
X76572494Y-86884334D01*
X77173455Y-86636022D01*
X77633646Y-86176633D01*
X77883006Y-85576107D01*
X77883008Y-85573254D01*
X81116426Y-85573254D01*
X81364738Y-86174215D01*
X81824127Y-86634406D01*
X82424653Y-86883766D01*
X83074894Y-86884334D01*
X83675855Y-86636022D01*
X84136046Y-86176633D01*
X84385406Y-85576107D01*
X84385974Y-84925866D01*
X84137662Y-84324905D01*
X83678273Y-83864714D01*
X83077747Y-83615354D01*
X82427506Y-83614786D01*
X81826545Y-83863098D01*
X81366354Y-84322487D01*
X81116994Y-84923013D01*
X81116426Y-85573254D01*
X77883008Y-85573254D01*
X77883574Y-84925866D01*
X77814502Y-84758700D01*
X78156501Y-84416701D01*
X78321248Y-84170139D01*
X78379100Y-83879300D01*
X78379100Y-82840323D01*
X78593500Y-82718770D01*
X78593500Y-81277500D01*
X78573500Y-81277500D01*
X78573500Y-81023500D01*
X78593500Y-81023500D01*
X78593500Y-79582230D01*
X78847500Y-79582230D01*
X78847500Y-81023500D01*
X78867500Y-81023500D01*
X78867500Y-81277500D01*
X78847500Y-81277500D01*
X78847500Y-82718770D01*
X79063570Y-82841270D01*
X79137777Y-82826310D01*
X79618526Y-82564680D01*
X79962559Y-82138991D01*
X79981858Y-82073607D01*
X80272672Y-82508840D01*
X80725891Y-82811672D01*
X81260500Y-82918012D01*
X81795109Y-82811672D01*
X82248328Y-82508840D01*
X82551160Y-82055621D01*
X82657500Y-81521012D01*
X82657500Y-80779988D01*
X82551160Y-80245379D01*
X82248328Y-79792160D01*
X81795109Y-79489328D01*
X81260500Y-79382988D01*
X80725891Y-79489328D01*
X80272672Y-79792160D01*
X79981858Y-80227393D01*
X79962559Y-80162009D01*
X79618526Y-79736320D01*
X79137777Y-79474690D01*
X79063570Y-79459730D01*
X78847500Y-79582230D01*
X78593500Y-79582230D01*
X78394700Y-79469521D01*
X78394700Y-78931894D01*
X78504655Y-78886462D01*
X78964846Y-78427073D01*
X79150891Y-77979026D01*
X87392642Y-77979026D01*
X87395291Y-77994791D01*
X87649268Y-78522036D01*
X88085680Y-78911954D01*
X88638087Y-79105184D01*
X88873000Y-78960924D01*
X88873000Y-77747000D01*
X87513783Y-77747000D01*
X87392642Y-77979026D01*
X79150891Y-77979026D01*
X79214206Y-77826547D01*
X79214774Y-77176306D01*
X78966462Y-76575345D01*
X78507073Y-76115154D01*
X77906547Y-75865794D01*
X77256306Y-75865226D01*
X77089111Y-75934309D01*
X71860500Y-70705698D01*
X71860500Y-67422365D01*
X72088328Y-67270135D01*
X72379147Y-66834894D01*
X72398441Y-66900261D01*
X72742474Y-67325950D01*
X73223223Y-67587580D01*
X73297430Y-67602540D01*
X73513500Y-67480040D01*
X73513500Y-66037500D01*
X73493500Y-66037500D01*
X73493500Y-65783500D01*
X73513500Y-65783500D01*
X73513500Y-64340960D01*
X73297430Y-64218460D01*
X73223223Y-64233420D01*
X72742474Y-64495050D01*
X72398441Y-64920739D01*
X72379147Y-64986106D01*
X72088328Y-64550865D01*
X71635109Y-64248033D01*
X71100500Y-64141693D01*
X70565891Y-64248033D01*
X70152413Y-64524311D01*
X66514502Y-60886400D01*
X69488960Y-60886400D01*
X69488960Y-62613600D01*
X69533238Y-62848917D01*
X69672310Y-63065041D01*
X69884510Y-63210031D01*
X70136400Y-63261040D01*
X71863600Y-63261040D01*
X72098917Y-63216762D01*
X72315041Y-63077690D01*
X72460031Y-62865490D01*
X72468864Y-62821869D01*
X72480330Y-62839029D01*
X72803024Y-63054646D01*
X72837852Y-63229739D01*
X73002599Y-63476301D01*
X73831164Y-64304866D01*
X73767500Y-64340960D01*
X73767500Y-65783500D01*
X73787500Y-65783500D01*
X73787500Y-66037500D01*
X73767500Y-66037500D01*
X73767500Y-67480040D01*
X73983570Y-67602540D01*
X74057777Y-67587580D01*
X74242338Y-67487140D01*
X76014115Y-69258917D01*
X75945794Y-69423453D01*
X75945226Y-70073694D01*
X76193538Y-70674655D01*
X76652927Y-71134846D01*
X77253453Y-71384206D01*
X77903694Y-71384774D01*
X78145800Y-71284738D01*
X78145800Y-72359398D01*
X78071083Y-72434115D01*
X77906547Y-72365794D01*
X77256306Y-72365226D01*
X76655345Y-72613538D01*
X76195154Y-73072927D01*
X75945794Y-73673453D01*
X75945226Y-74323694D01*
X76193538Y-74924655D01*
X76652927Y-75384846D01*
X77253453Y-75634206D01*
X77903694Y-75634774D01*
X78504655Y-75386462D01*
X78964846Y-74927073D01*
X79214206Y-74326547D01*
X79214774Y-73676306D01*
X79145691Y-73509111D01*
X79443201Y-73211601D01*
X79607948Y-72965040D01*
X79665800Y-72674200D01*
X79665800Y-69192402D01*
X84820799Y-74347401D01*
X85067361Y-74512148D01*
X85358200Y-74570000D01*
X87418100Y-74570000D01*
X87316655Y-75080000D01*
X87430729Y-75653489D01*
X87755585Y-76139670D01*
X88065069Y-76346461D01*
X87649268Y-76717964D01*
X87395291Y-77245209D01*
X87392642Y-77260974D01*
X87513783Y-77493000D01*
X88873000Y-77493000D01*
X88873000Y-77473000D01*
X89127000Y-77473000D01*
X89127000Y-77493000D01*
X89147000Y-77493000D01*
X89147000Y-77747000D01*
X89127000Y-77747000D01*
X89127000Y-78960924D01*
X89360303Y-79104195D01*
X87121199Y-81343299D01*
X86956452Y-81589861D01*
X86898600Y-81880700D01*
X86898600Y-84351000D01*
X86956452Y-84641839D01*
X87121199Y-84888401D01*
X87392334Y-85159536D01*
X87316655Y-85540000D01*
X87430729Y-86113489D01*
X87755585Y-86599670D01*
X88065069Y-86806461D01*
X87649268Y-87177964D01*
X87395291Y-87705209D01*
X87392642Y-87720974D01*
X87513783Y-87953000D01*
X88873000Y-87953000D01*
X88873000Y-87933000D01*
X89127000Y-87933000D01*
X89127000Y-87953000D01*
X90486217Y-87953000D01*
X90607358Y-87720974D01*
X90604709Y-87705209D01*
X90350732Y-87177964D01*
X89934931Y-86806461D01*
X90244415Y-86599670D01*
X90569271Y-86113489D01*
X90683345Y-85540000D01*
X90569271Y-84966511D01*
X90244415Y-84480330D01*
X90230087Y-84470757D01*
X90251317Y-84466762D01*
X90467441Y-84327690D01*
X90612431Y-84115490D01*
X90663440Y-83863600D01*
X90663440Y-82136400D01*
X90619162Y-81901083D01*
X90480090Y-81684959D01*
X90314254Y-81571648D01*
X91353501Y-80532401D01*
X91518248Y-80285840D01*
X91576100Y-79995000D01*
X91576100Y-75033300D01*
X91518248Y-74742461D01*
X91518248Y-74742460D01*
X91353501Y-74495899D01*
X90329674Y-73472072D01*
X90569271Y-73113489D01*
X90683345Y-72540000D01*
X90569271Y-71966511D01*
X90244415Y-71480330D01*
X90230087Y-71470757D01*
X90251317Y-71466762D01*
X90467441Y-71327690D01*
X90612431Y-71115490D01*
X90663440Y-70863600D01*
X90663440Y-69136400D01*
X90619162Y-68901083D01*
X90480090Y-68684959D01*
X90267890Y-68539969D01*
X90016000Y-68488960D01*
X89681233Y-68488960D01*
X89537401Y-68273699D01*
X85190501Y-63926799D01*
X84943939Y-63762052D01*
X84653100Y-63704200D01*
X79828980Y-63704200D01*
X79586394Y-63752454D01*
X79538140Y-63762052D01*
X79291579Y-63926799D01*
X79017590Y-64200788D01*
X78720500Y-64141693D01*
X78185891Y-64248033D01*
X78028900Y-64352931D01*
X78028900Y-64127800D01*
X77971048Y-63836961D01*
X77920996Y-63762052D01*
X77806302Y-63590399D01*
X77088873Y-62872971D01*
X77139670Y-62839029D01*
X77350000Y-62524248D01*
X77560330Y-62839029D01*
X78046511Y-63163885D01*
X78620000Y-63277959D01*
X79193489Y-63163885D01*
X79679670Y-62839029D01*
X80004526Y-62352848D01*
X80078647Y-61980213D01*
X88199392Y-61980213D01*
X88268857Y-62222397D01*
X88792302Y-62409144D01*
X89347368Y-62381362D01*
X89731143Y-62222397D01*
X89800608Y-61980213D01*
X89000000Y-61179605D01*
X88199392Y-61980213D01*
X80078647Y-61980213D01*
X80118600Y-61779359D01*
X80118600Y-61720641D01*
X80004526Y-61147152D01*
X79767423Y-60792302D01*
X87590856Y-60792302D01*
X87618638Y-61347368D01*
X87777603Y-61731143D01*
X88019787Y-61800608D01*
X88820395Y-61000000D01*
X89179605Y-61000000D01*
X89980213Y-61800608D01*
X90222397Y-61731143D01*
X90409144Y-61207698D01*
X90381362Y-60652632D01*
X90222397Y-60268857D01*
X89980213Y-60199392D01*
X89179605Y-61000000D01*
X88820395Y-61000000D01*
X88019787Y-60199392D01*
X87777603Y-60268857D01*
X87590856Y-60792302D01*
X79767423Y-60792302D01*
X79679670Y-60660971D01*
X79408828Y-60480000D01*
X79679670Y-60299029D01*
X80004526Y-59812848D01*
X80118600Y-59239359D01*
X80118600Y-59180641D01*
X80004526Y-58607152D01*
X79679670Y-58120971D01*
X79193489Y-57796115D01*
X78620000Y-57682041D01*
X78046511Y-57796115D01*
X77560330Y-58120971D01*
X77350000Y-58435752D01*
X77139670Y-58120971D01*
X76653489Y-57796115D01*
X76080000Y-57682041D01*
X75506511Y-57796115D01*
X75020330Y-58120971D01*
X74810000Y-58435752D01*
X74599670Y-58120971D01*
X74113489Y-57796115D01*
X73540000Y-57682041D01*
X72966511Y-57796115D01*
X72480330Y-58120971D01*
X72264336Y-58444228D01*
X72206821Y-58321510D01*
X71774947Y-57927312D01*
X71359026Y-57755042D01*
X71127000Y-57876183D01*
X71127000Y-59083000D01*
X71147000Y-59083000D01*
X71147000Y-59337000D01*
X71127000Y-59337000D01*
X71127000Y-59357000D01*
X70873000Y-59357000D01*
X70873000Y-59337000D01*
X69665531Y-59337000D01*
X69545032Y-59569027D01*
X69793179Y-60098490D01*
X69979433Y-60268495D01*
X69901083Y-60283238D01*
X69684959Y-60422310D01*
X69539969Y-60634510D01*
X69488960Y-60886400D01*
X66514502Y-60886400D01*
X65855501Y-60227399D01*
X65608939Y-60062652D01*
X65463288Y-60033680D01*
X65399018Y-59969410D01*
X65629611Y-59913729D01*
X65797622Y-59430922D01*
X65768083Y-58920572D01*
X65739255Y-58850973D01*
X69545032Y-58850973D01*
X69665531Y-59083000D01*
X70873000Y-59083000D01*
X70873000Y-57876183D01*
X70640974Y-57755042D01*
X70225053Y-57927312D01*
X69793179Y-58321510D01*
X69545032Y-58850973D01*
X65739255Y-58850973D01*
X65629611Y-58586271D01*
X65399016Y-58530590D01*
X64679605Y-59250000D01*
X64693748Y-59264142D01*
X64514142Y-59443748D01*
X64500000Y-59429605D01*
X64485858Y-59443748D01*
X64306252Y-59264142D01*
X64320395Y-59250000D01*
X63600984Y-58530590D01*
X63370389Y-58586271D01*
X63202378Y-59069078D01*
X63231917Y-59579428D01*
X63370389Y-59913729D01*
X63600982Y-59969410D01*
X63549574Y-60020818D01*
X63339260Y-60062652D01*
X63092699Y-60227399D01*
X62943099Y-60376999D01*
X62803300Y-60586224D01*
X62803300Y-58350984D01*
X63780590Y-58350984D01*
X64500000Y-59070395D01*
X65219410Y-58350984D01*
X65163729Y-58120389D01*
X64680922Y-57952378D01*
X64170572Y-57981917D01*
X63836271Y-58120389D01*
X63780590Y-58350984D01*
X62803300Y-58350984D01*
X62803300Y-54583300D01*
X62745448Y-54292461D01*
X62580701Y-54045899D01*
X60127002Y-51592200D01*
X60127002Y-51476252D01*
X60285750Y-51635000D01*
X61076310Y-51635000D01*
X61309699Y-51538327D01*
X61488327Y-51359698D01*
X61585000Y-51126309D01*
X61585000Y-50285750D01*
X61426250Y-50127000D01*
X60127000Y-50127000D01*
X60127000Y-50147000D01*
X59873000Y-50147000D01*
X59873000Y-50127000D01*
X59853000Y-50127000D01*
X59853000Y-49873000D01*
X59873000Y-49873000D01*
X59873000Y-49853000D01*
X60127000Y-49853000D01*
X60127000Y-49873000D01*
X61426250Y-49873000D01*
X61585000Y-49714250D01*
X61585000Y-49380000D01*
X82305198Y-49380000D01*
X87615817Y-54690619D01*
X87603243Y-54720900D01*
X87602758Y-55276661D01*
X87814990Y-55790303D01*
X88024342Y-56000021D01*
X87816371Y-56207630D01*
X87603243Y-56720900D01*
X87602758Y-57276661D01*
X87814990Y-57790303D01*
X88024342Y-58000021D01*
X87816371Y-58207630D01*
X87603243Y-58720900D01*
X87602758Y-59276661D01*
X87814990Y-59790303D01*
X88207630Y-60183629D01*
X88473727Y-60294122D01*
X89000000Y-60820395D01*
X89526302Y-60294093D01*
X89790303Y-60185010D01*
X90183629Y-59792370D01*
X90396757Y-59279100D01*
X90397242Y-58723339D01*
X90185010Y-58209697D01*
X89975658Y-57999979D01*
X90183629Y-57792370D01*
X90396757Y-57279100D01*
X90397242Y-56723339D01*
X90185010Y-56209697D01*
X89975658Y-55999979D01*
X90183629Y-55792370D01*
X90396757Y-55279100D01*
X90397242Y-54723339D01*
X90185010Y-54209697D01*
X89792370Y-53816371D01*
X89279100Y-53603243D01*
X88723339Y-53602758D01*
X88690945Y-53616143D01*
X83157401Y-48082599D01*
X82910839Y-47917852D01*
X82620000Y-47860000D01*
X49953700Y-47860000D01*
X49662861Y-47917852D01*
X49416299Y-48082599D01*
X47585000Y-49913898D01*
X47585000Y-49872998D01*
X47426252Y-49872998D01*
X47585000Y-49714250D01*
X47585000Y-48873691D01*
X47488327Y-48640302D01*
X47309699Y-48461673D01*
X47076310Y-48365000D01*
X46285750Y-48365000D01*
X46127000Y-48523750D01*
X46127000Y-49873000D01*
X46147000Y-49873000D01*
X46147000Y-50127000D01*
X46127000Y-50127000D01*
X46127000Y-51433035D01*
X46085362Y-51495351D01*
X46027510Y-51786190D01*
X46027510Y-58250240D01*
X45916259Y-58083741D01*
X45037072Y-57496286D01*
X44000000Y-57290000D01*
X42962928Y-57496286D01*
X42083741Y-58083741D01*
X41496286Y-58962928D01*
X41290000Y-60000000D01*
X41496286Y-61037072D01*
X42083741Y-61916259D01*
X42962928Y-62503714D01*
X44000000Y-62710000D01*
X45037072Y-62503714D01*
X45916259Y-61916259D01*
X46027510Y-61749760D01*
X46027510Y-64206739D01*
X45700500Y-64141693D01*
X45165891Y-64248033D01*
X44712672Y-64550865D01*
X44409840Y-65004084D01*
X44303500Y-65538693D01*
X44303500Y-66282307D01*
X44409840Y-66816916D01*
X44712672Y-67270135D01*
X45165891Y-67572967D01*
X45700500Y-67679307D01*
X46027510Y-67614261D01*
X46027510Y-78398868D01*
X45163099Y-79263279D01*
X44998352Y-79509841D01*
X44977674Y-79613796D01*
X44712672Y-79790865D01*
X44409840Y-80244084D01*
X44303500Y-80778693D01*
X44303500Y-81522307D01*
X44409840Y-82056916D01*
X44712672Y-82510135D01*
X45165891Y-82812967D01*
X45700500Y-82919307D01*
X46235109Y-82812967D01*
X46688328Y-82510135D01*
X46970500Y-82087836D01*
X47252672Y-82510135D01*
X47705891Y-82812967D01*
X48240500Y-82919307D01*
X48750500Y-82817862D01*
X48750500Y-86202900D01*
X48808352Y-86493739D01*
X48973099Y-86740301D01*
X49392334Y-87159536D01*
X49316655Y-87540000D01*
X49430729Y-88113489D01*
X49755585Y-88599670D01*
X50065069Y-88806461D01*
X49649268Y-89177964D01*
X49395291Y-89705209D01*
X49392642Y-89720974D01*
X49513783Y-89953000D01*
X50873000Y-89953000D01*
X50873000Y-89933000D01*
X51127000Y-89933000D01*
X51127000Y-89953000D01*
X52486217Y-89953000D01*
X52607358Y-89720974D01*
X52604709Y-89705209D01*
X52350732Y-89177964D01*
X51934931Y-88806461D01*
X52244415Y-88599670D01*
X52569271Y-88113489D01*
X52683345Y-87540000D01*
X52569271Y-86966511D01*
X52244415Y-86480330D01*
X52230087Y-86470757D01*
X52251317Y-86466762D01*
X52467441Y-86327690D01*
X52612431Y-86115490D01*
X52663440Y-85863600D01*
X52663440Y-84136400D01*
X52619162Y-83901083D01*
X52480090Y-83684959D01*
X52267890Y-83539969D01*
X52016000Y-83488960D01*
X50270500Y-83488960D01*
X50270500Y-82817862D01*
X50780500Y-82919307D01*
X51315109Y-82812967D01*
X51768328Y-82510135D01*
X52050500Y-82087836D01*
X52332672Y-82510135D01*
X52785891Y-82812967D01*
X53320500Y-82919307D01*
X53855109Y-82812967D01*
X54308328Y-82510135D01*
X54590933Y-82087188D01*
X54872672Y-82508840D01*
X55325891Y-82811672D01*
X55860500Y-82918012D01*
X56395109Y-82811672D01*
X56848328Y-82508840D01*
X57130500Y-82086541D01*
X57412672Y-82508840D01*
X57865891Y-82811672D01*
X58400500Y-82918012D01*
X58935109Y-82811672D01*
X59388328Y-82508840D01*
X59670500Y-82086541D01*
X59952672Y-82508840D01*
X60180500Y-82661070D01*
X60180500Y-87494698D01*
X55639108Y-92036090D01*
X54626326Y-91615546D01*
X53379146Y-91614457D01*
X52226485Y-92090727D01*
X51343826Y-92971847D01*
X50865546Y-94123674D01*
X50865053Y-94688308D01*
X50852560Y-94750000D01*
X50852560Y-102290000D01*
X49135000Y-102290000D01*
X49135000Y-99035750D01*
X48976250Y-98877000D01*
X46127000Y-98877000D01*
X46127000Y-98897000D01*
X45873000Y-98897000D01*
X45873000Y-98877000D01*
X43023750Y-98877000D01*
X42865000Y-99035750D01*
X42865000Y-102249237D01*
X42128977Y-102102833D01*
X41390561Y-101609439D01*
X40897167Y-100871023D01*
X40710000Y-99930069D01*
X40710000Y-94127892D01*
X42864706Y-94127892D01*
X42865000Y-94750000D01*
X42865000Y-98464250D01*
X43023750Y-98623000D01*
X45873000Y-98623000D01*
X45873000Y-98603000D01*
X46127000Y-98603000D01*
X46127000Y-98623000D01*
X48976250Y-98623000D01*
X49135000Y-98464250D01*
X49135000Y-95372819D01*
X49135294Y-95372108D01*
X49135000Y-94749577D01*
X49135000Y-94623690D01*
X49134940Y-94623546D01*
X49134705Y-94124928D01*
X48658564Y-92975421D01*
X48235880Y-92693725D01*
X46814605Y-94115000D01*
X46455395Y-94115000D01*
X48056275Y-92514120D01*
X47774579Y-92091436D01*
X46622108Y-91614706D01*
X45374928Y-91615295D01*
X44225421Y-92091436D01*
X43943725Y-92514120D01*
X45544605Y-94115000D01*
X45185395Y-94115000D01*
X43764120Y-92693725D01*
X43341436Y-92975421D01*
X42864706Y-94127892D01*
X40710000Y-94127892D01*
X40710000Y-88000000D01*
X41290000Y-88000000D01*
X41496286Y-89037072D01*
X42083741Y-89916259D01*
X42962928Y-90503714D01*
X44000000Y-90710000D01*
X45037072Y-90503714D01*
X45133884Y-90439026D01*
X49392642Y-90439026D01*
X49395291Y-90454791D01*
X49649268Y-90982036D01*
X50085680Y-91371954D01*
X50638087Y-91565184D01*
X50873000Y-91420924D01*
X50873000Y-90207000D01*
X51127000Y-90207000D01*
X51127000Y-91420924D01*
X51361913Y-91565184D01*
X51914320Y-91371954D01*
X52350732Y-90982036D01*
X52604709Y-90454791D01*
X52607358Y-90439026D01*
X52486217Y-90207000D01*
X51127000Y-90207000D01*
X50873000Y-90207000D01*
X49513783Y-90207000D01*
X49392642Y-90439026D01*
X45133884Y-90439026D01*
X45916259Y-89916259D01*
X46503714Y-89037072D01*
X46710000Y-88000000D01*
X46503714Y-86962928D01*
X45916259Y-86083741D01*
X45037072Y-85496286D01*
X44000000Y-85290000D01*
X42962928Y-85496286D01*
X42083741Y-86083741D01*
X41496286Y-86962928D01*
X41290000Y-88000000D01*
X40710000Y-88000000D01*
X40710000Y-50313893D01*
X41874725Y-50313893D01*
X42115519Y-50896657D01*
X42560997Y-51342914D01*
X43143341Y-51584724D01*
X43773893Y-51585275D01*
X44356657Y-51344481D01*
X44461867Y-51239455D01*
X44511673Y-51359698D01*
X44690301Y-51538327D01*
X44923690Y-51635000D01*
X45714250Y-51635000D01*
X45873000Y-51476250D01*
X45873000Y-50127000D01*
X45853000Y-50127000D01*
X45853000Y-49873000D01*
X45873000Y-49873000D01*
X45873000Y-48523750D01*
X45714250Y-48365000D01*
X44923690Y-48365000D01*
X44690301Y-48461673D01*
X44511673Y-48640302D01*
X44461988Y-48760251D01*
X44359003Y-48657086D01*
X43776659Y-48415276D01*
X43146107Y-48414725D01*
X42563343Y-48655519D01*
X42117086Y-49100997D01*
X41875276Y-49683341D01*
X41874725Y-50313893D01*
X40710000Y-50313893D01*
X40710000Y-46069931D01*
X40897167Y-45128977D01*
X41390561Y-44390561D01*
X42128977Y-43897167D01*
X43069931Y-43710000D01*
X93597935Y-43710000D01*
X93503569Y-43848110D01*
G36*
X104715000Y-72849558D02*
X104715000Y-76684898D01*
X104236210Y-76206108D01*
X104261191Y-76185986D01*
X104528327Y-75696996D01*
X104545010Y-75617060D01*
X104422852Y-75397000D01*
X102937000Y-75397000D01*
X102937000Y-75417000D01*
X102683000Y-75417000D01*
X102683000Y-75397000D01*
X102663000Y-75397000D01*
X102663000Y-75143000D01*
X102683000Y-75143000D01*
X102683000Y-72857000D01*
X102937000Y-72857000D01*
X102937000Y-75143000D01*
X104422852Y-75143000D01*
X104545010Y-74922940D01*
X104528327Y-74843004D01*
X104261191Y-74354014D01*
X103827262Y-74004475D01*
X103812010Y-74000000D01*
X103827262Y-73995525D01*
X104261191Y-73645986D01*
X104528327Y-73156996D01*
X104545010Y-73077060D01*
X104422852Y-72857000D01*
X102937000Y-72857000D01*
X102683000Y-72857000D01*
X102663000Y-72857000D01*
X102663000Y-72603000D01*
X102683000Y-72603000D01*
X102683000Y-72583000D01*
X102937000Y-72583000D01*
X102937000Y-72603000D01*
X104422852Y-72603000D01*
X104439126Y-72573684D01*
X104715000Y-72849558D01*
X104715000Y-72849558D01*
G37*
X104715000Y-72849558D02*
X104715000Y-76684898D01*
X104236210Y-76206108D01*
X104261191Y-76185986D01*
X104528327Y-75696996D01*
X104545010Y-75617060D01*
X104422852Y-75397000D01*
X102937000Y-75397000D01*
X102937000Y-75417000D01*
X102683000Y-75417000D01*
X102683000Y-75397000D01*
X102663000Y-75397000D01*
X102663000Y-75143000D01*
X102683000Y-75143000D01*
X102683000Y-72857000D01*
X102937000Y-72857000D01*
X102937000Y-75143000D01*
X104422852Y-75143000D01*
X104545010Y-74922940D01*
X104528327Y-74843004D01*
X104261191Y-74354014D01*
X103827262Y-74004475D01*
X103812010Y-74000000D01*
X103827262Y-73995525D01*
X104261191Y-73645986D01*
X104528327Y-73156996D01*
X104545010Y-73077060D01*
X104422852Y-72857000D01*
X102937000Y-72857000D01*
X102683000Y-72857000D01*
X102663000Y-72857000D01*
X102663000Y-72603000D01*
X102683000Y-72603000D01*
X102683000Y-72583000D01*
X102937000Y-72583000D01*
X102937000Y-72603000D01*
X104422852Y-72603000D01*
X104439126Y-72573684D01*
X104715000Y-72849558D01*
G36*
X57542029Y-64464431D02*
X57412672Y-64550865D01*
X57130500Y-64973164D01*
X56848328Y-64550865D01*
X56395109Y-64248033D01*
X55860500Y-64141693D01*
X55325891Y-64248033D01*
X54872672Y-64550865D01*
X54590500Y-64973164D01*
X54308328Y-64550865D01*
X53855109Y-64248033D01*
X53320500Y-64141693D01*
X52785891Y-64248033D01*
X52332672Y-64550865D01*
X52050500Y-64973164D01*
X51768328Y-64550865D01*
X51315109Y-64248033D01*
X50780500Y-64141693D01*
X50408900Y-64215609D01*
X50408900Y-63485015D01*
X50638087Y-63565184D01*
X50873000Y-63420924D01*
X50873000Y-62207000D01*
X51127000Y-62207000D01*
X51127000Y-63420924D01*
X51361913Y-63565184D01*
X51914320Y-63371954D01*
X52350732Y-62982036D01*
X52604709Y-62454791D01*
X52607358Y-62439026D01*
X52486217Y-62207000D01*
X51127000Y-62207000D01*
X50873000Y-62207000D01*
X50853000Y-62207000D01*
X50853000Y-61953000D01*
X50873000Y-61953000D01*
X50873000Y-61933000D01*
X51127000Y-61933000D01*
X51127000Y-61953000D01*
X52486217Y-61953000D01*
X52607358Y-61720974D01*
X52604709Y-61705209D01*
X52350732Y-61177964D01*
X51934931Y-60806461D01*
X52244415Y-60599670D01*
X52569271Y-60113489D01*
X52672437Y-59594839D01*
X57542029Y-64464431D01*
X57542029Y-64464431D01*
G37*
X57542029Y-64464431D02*
X57412672Y-64550865D01*
X57130500Y-64973164D01*
X56848328Y-64550865D01*
X56395109Y-64248033D01*
X55860500Y-64141693D01*
X55325891Y-64248033D01*
X54872672Y-64550865D01*
X54590500Y-64973164D01*
X54308328Y-64550865D01*
X53855109Y-64248033D01*
X53320500Y-64141693D01*
X52785891Y-64248033D01*
X52332672Y-64550865D01*
X52050500Y-64973164D01*
X51768328Y-64550865D01*
X51315109Y-64248033D01*
X50780500Y-64141693D01*
X50408900Y-64215609D01*
X50408900Y-63485015D01*
X50638087Y-63565184D01*
X50873000Y-63420924D01*
X50873000Y-62207000D01*
X51127000Y-62207000D01*
X51127000Y-63420924D01*
X51361913Y-63565184D01*
X51914320Y-63371954D01*
X52350732Y-62982036D01*
X52604709Y-62454791D01*
X52607358Y-62439026D01*
X52486217Y-62207000D01*
X51127000Y-62207000D01*
X50873000Y-62207000D01*
X50853000Y-62207000D01*
X50853000Y-61953000D01*
X50873000Y-61953000D01*
X50873000Y-61933000D01*
X51127000Y-61933000D01*
X51127000Y-61953000D01*
X52486217Y-61953000D01*
X52607358Y-61720974D01*
X52604709Y-61705209D01*
X52350732Y-61177964D01*
X51934931Y-60806461D01*
X52244415Y-60599670D01*
X52569271Y-60113489D01*
X52672437Y-59594839D01*
X57542029Y-64464431D01*
G36*
X55875276Y-49683341D02*
X55874725Y-50313893D01*
X56115519Y-50896657D01*
X56560997Y-51342914D01*
X57143341Y-51584724D01*
X57773893Y-51585275D01*
X57912996Y-51527798D01*
X61283300Y-54898102D01*
X61283300Y-64209880D01*
X60940500Y-64141693D01*
X60405891Y-64248033D01*
X60252100Y-64350793D01*
X60252100Y-59032100D01*
X60238341Y-58962928D01*
X60194248Y-58741260D01*
X60029501Y-58494699D01*
X53127002Y-51592200D01*
X53127002Y-51476252D01*
X53285750Y-51635000D01*
X54076310Y-51635000D01*
X54309699Y-51538327D01*
X54488327Y-51359698D01*
X54585000Y-51126309D01*
X54585000Y-50285750D01*
X54426250Y-50127000D01*
X53127000Y-50127000D01*
X53127000Y-50147000D01*
X52873000Y-50147000D01*
X52873000Y-50127000D01*
X52853000Y-50127000D01*
X52853000Y-49873000D01*
X52873000Y-49873000D01*
X52873000Y-49853000D01*
X53127000Y-49853000D01*
X53127000Y-49873000D01*
X54426250Y-49873000D01*
X54585000Y-49714250D01*
X54585000Y-49380000D01*
X56001234Y-49380000D01*
X55875276Y-49683341D01*
X55875276Y-49683341D01*
G37*
X55875276Y-49683341D02*
X55874725Y-50313893D01*
X56115519Y-50896657D01*
X56560997Y-51342914D01*
X57143341Y-51584724D01*
X57773893Y-51585275D01*
X57912996Y-51527798D01*
X61283300Y-54898102D01*
X61283300Y-64209880D01*
X60940500Y-64141693D01*
X60405891Y-64248033D01*
X60252100Y-64350793D01*
X60252100Y-59032100D01*
X60238341Y-58962928D01*
X60194248Y-58741260D01*
X60029501Y-58494699D01*
X53127002Y-51592200D01*
X53127002Y-51476252D01*
X53285750Y-51635000D01*
X54076310Y-51635000D01*
X54309699Y-51538327D01*
X54488327Y-51359698D01*
X54585000Y-51126309D01*
X54585000Y-50285750D01*
X54426250Y-50127000D01*
X53127000Y-50127000D01*
X53127000Y-50147000D01*
X52873000Y-50147000D01*
X52873000Y-50127000D01*
X52853000Y-50127000D01*
X52853000Y-49873000D01*
X52873000Y-49873000D01*
X52873000Y-49853000D01*
X53127000Y-49853000D01*
X53127000Y-49873000D01*
X54426250Y-49873000D01*
X54585000Y-49714250D01*
X54585000Y-49380000D01*
X56001234Y-49380000D01*
X55875276Y-49683341D01*
M02*
