G04 #@! TF.FileFunction,Copper,L1,Top,Signal*
%FSLAX46Y46*%
G04 Gerber Fmt 4.6, Leading zero omitted, Abs format (unit mm)*
G04 Created by KiCad (PCBNEW 4.0.7) date 09/18/17 08:38:15*
%MOMM*%
%LPD*%
G01*
G04 APERTURE LIST*
%ADD10C,0.100000*%
%ADD11C,2.500000*%
%ADD12R,1.500000X1.250000*%
%ADD13R,1.250000X1.500000*%
%ADD14R,1.900000X2.000000*%
%ADD15C,1.900000*%
%ADD16O,1.524000X2.199640*%
%ADD17O,1.524000X2.197100*%
%ADD18R,2.032000X1.727200*%
%ADD19O,2.032000X1.727200*%
%ADD20C,1.524000*%
%ADD21C,1.998980*%
%ADD22R,2.032000X3.657600*%
%ADD23R,2.032000X1.016000*%
%ADD24C,5.000000*%
%ADD25R,5.000000X4.000000*%
%ADD26R,0.500000X0.900000*%
%ADD27R,1.727200X1.727200*%
%ADD28O,1.727200X1.727200*%
%ADD29R,1.950000X0.600000*%
%ADD30C,0.600000*%
%ADD31C,0.300000*%
%ADD32C,0.500000*%
%ADD33C,0.250000*%
%ADD34C,0.254000*%
G04 APERTURE END LIST*
D10*
D11*
X180600000Y-82430500D03*
X180600000Y-77430500D03*
D12*
X146870000Y-71480000D03*
X144370000Y-71480000D03*
D13*
X161220000Y-63630000D03*
X161220000Y-66130000D03*
D12*
X146870000Y-73580000D03*
X144370000Y-73580000D03*
D14*
X113600000Y-67400000D03*
D15*
X111060000Y-67400000D03*
D14*
X120600000Y-67400000D03*
D15*
X118060000Y-67400000D03*
D14*
X127600000Y-67400000D03*
D15*
X125060000Y-67400000D03*
D16*
X148860500Y-83310500D03*
X146320500Y-83310500D03*
X143780500Y-83310500D03*
X141240500Y-83310500D03*
X138700500Y-83310500D03*
X136160500Y-83310500D03*
X133620500Y-83310500D03*
X131080500Y-83310500D03*
X128540500Y-83310500D03*
X126000500Y-83310500D03*
X123460500Y-83310500D03*
X120920500Y-83310500D03*
X118380500Y-83310500D03*
X115840500Y-83310500D03*
X113300500Y-83310500D03*
X113300500Y-98550500D03*
X115840500Y-98550500D03*
X118380500Y-98550500D03*
X120920500Y-98550500D03*
D17*
X123460500Y-98550500D03*
X126000500Y-98550500D03*
X128540500Y-98550500D03*
X131080500Y-98550500D03*
X133620500Y-98550500D03*
X136160500Y-98550500D03*
X138700500Y-98550500D03*
X141240500Y-98550500D03*
X143780500Y-98550500D03*
X146320500Y-98550500D03*
X148860500Y-98550500D03*
D18*
X156600000Y-101360000D03*
D19*
X156600000Y-103900000D03*
X156600000Y-106440000D03*
D18*
X156600000Y-87400000D03*
D19*
X156600000Y-89940000D03*
X156600000Y-92480000D03*
X156600000Y-95020000D03*
D20*
X156600000Y-72400000D03*
X156600000Y-74400000D03*
X156600000Y-76400000D03*
X156600000Y-78400000D03*
D11*
X180600000Y-104430500D03*
X180600000Y-99430500D03*
X180600000Y-93430500D03*
X180600000Y-88430500D03*
D12*
X171650000Y-71100000D03*
X169150000Y-71100000D03*
X111070000Y-62880000D03*
X113570000Y-62880000D03*
X118170000Y-62880000D03*
X120670000Y-62880000D03*
X125070000Y-62880000D03*
X127570000Y-62880000D03*
X137870000Y-71480000D03*
X140370000Y-71480000D03*
X137870000Y-73580000D03*
X140370000Y-73580000D03*
D21*
X167168800Y-67330440D03*
X173671200Y-62829560D03*
X167168800Y-62829560D03*
X173671200Y-67330440D03*
D18*
X118600000Y-102400000D03*
D19*
X118600000Y-104940000D03*
X118600000Y-107480000D03*
D18*
X118600000Y-73320000D03*
D19*
X118600000Y-75860000D03*
X118600000Y-78400000D03*
D22*
X151048000Y-64650000D03*
D23*
X157652000Y-64650000D03*
X157652000Y-62364000D03*
X157652000Y-66936000D03*
D24*
X138600000Y-115000000D03*
D25*
X138600000Y-117000000D03*
D24*
X161100000Y-115000000D03*
D25*
X161100000Y-117000000D03*
D24*
X131100000Y-115000000D03*
D25*
X131100000Y-117000000D03*
D24*
X123600000Y-115000000D03*
D25*
X123600000Y-117000000D03*
D24*
X168600000Y-115000000D03*
D25*
X168600000Y-117000000D03*
D24*
X176100000Y-115000000D03*
D25*
X176100000Y-117000000D03*
D24*
X116100000Y-115000000D03*
D25*
X116100000Y-117000000D03*
D24*
X146100000Y-115000000D03*
D25*
X146100000Y-117000000D03*
D24*
X153600000Y-115000000D03*
D25*
X153600000Y-117000000D03*
D26*
X130600000Y-78350000D03*
X130000000Y-78350000D03*
X130600000Y-76600000D03*
X130000000Y-76600000D03*
D27*
X138600000Y-79150000D03*
D28*
X138600000Y-76610000D03*
X141140000Y-79150000D03*
X141140000Y-76610000D03*
X143680000Y-79150000D03*
X143680000Y-76610000D03*
X146220000Y-79150000D03*
X146220000Y-76610000D03*
D29*
X161920000Y-85665000D03*
X161920000Y-86935000D03*
X161920000Y-88205000D03*
X161920000Y-89475000D03*
X161920000Y-90745000D03*
X161920000Y-92015000D03*
X161920000Y-93285000D03*
X161920000Y-94555000D03*
X161920000Y-95825000D03*
X161920000Y-97095000D03*
X171320000Y-97095000D03*
X171320000Y-95825000D03*
X171320000Y-94555000D03*
X171320000Y-93285000D03*
X171320000Y-92015000D03*
X171320000Y-90745000D03*
X171320000Y-89475000D03*
X171320000Y-88205000D03*
X171320000Y-86935000D03*
X171320000Y-85665000D03*
D30*
X123300000Y-103500000D03*
X161200000Y-79700000D03*
X161200000Y-67700000D03*
X169600000Y-92000000D03*
X169500000Y-90700000D03*
X163700000Y-92000000D03*
X163800000Y-90700000D03*
X163800000Y-89500000D03*
X163800000Y-93300000D03*
X169500000Y-89600000D03*
X169500000Y-93300000D03*
X143400000Y-69900000D03*
X124200000Y-64300000D03*
X117000000Y-64300000D03*
X109800000Y-64400000D03*
X136100000Y-93500000D03*
X173800000Y-97000000D03*
X170500000Y-69400000D03*
X173800000Y-85700000D03*
X163820000Y-96980000D03*
X163820000Y-96980000D03*
X164520000Y-96980000D03*
X163920000Y-88180000D03*
X163920000Y-94580000D03*
X122446779Y-78729990D03*
D31*
X120920500Y-98550500D02*
X120920500Y-96120500D01*
X120920500Y-96120500D02*
X111720000Y-86920000D01*
X111720000Y-86920000D02*
X111720000Y-82580000D01*
X111720000Y-82580000D02*
X115520000Y-78780000D01*
X115520000Y-78780000D02*
X115520000Y-73920000D01*
X115520000Y-73920000D02*
X111060000Y-69460000D01*
X111060000Y-69460000D02*
X111060000Y-67400000D01*
X148860500Y-83310500D02*
X150310500Y-83310500D01*
X150310500Y-83310500D02*
X154400000Y-87400000D01*
X154400000Y-87400000D02*
X156600000Y-87400000D01*
X156447600Y-87400000D02*
X156600000Y-87400000D01*
X146320500Y-83310500D02*
X146320500Y-84220500D01*
X146320500Y-84220500D02*
X148500000Y-86400000D01*
X148500000Y-86400000D02*
X151100000Y-86400000D01*
X151100000Y-86400000D02*
X154640000Y-89940000D01*
X154640000Y-89940000D02*
X156600000Y-89940000D01*
X146320500Y-83310500D02*
X146320500Y-83648320D01*
D32*
X118600000Y-107480000D02*
X120520000Y-107480000D01*
X120520000Y-107480000D02*
X123300000Y-104700000D01*
X123300000Y-104700000D02*
X123300000Y-103500000D01*
X156600000Y-78400000D02*
X159900000Y-78400000D01*
X159900000Y-78400000D02*
X161200000Y-79700000D01*
X161220000Y-66130000D02*
X161220000Y-67680000D01*
X161220000Y-67680000D02*
X161200000Y-67700000D01*
X167168800Y-62829560D02*
X168582292Y-62829560D01*
X168582292Y-62829560D02*
X173671200Y-62829560D01*
X161220000Y-66130000D02*
X158458000Y-66130000D01*
X158458000Y-66130000D02*
X157652000Y-66936000D01*
X171320000Y-92015000D02*
X169615000Y-92015000D01*
X169615000Y-92015000D02*
X169600000Y-92000000D01*
X171320000Y-90745000D02*
X169545000Y-90745000D01*
X169545000Y-90745000D02*
X169500000Y-90700000D01*
X161920000Y-92015000D02*
X163685000Y-92015000D01*
X163685000Y-92015000D02*
X163700000Y-92000000D01*
X161920000Y-90745000D02*
X163755000Y-90745000D01*
X163755000Y-90745000D02*
X163800000Y-90700000D01*
X161920000Y-89475000D02*
X163775000Y-89475000D01*
X163775000Y-89475000D02*
X163800000Y-89500000D01*
X161920000Y-93285000D02*
X163785000Y-93285000D01*
X163785000Y-93285000D02*
X163800000Y-93300000D01*
X171320000Y-89475000D02*
X169625000Y-89475000D01*
X169625000Y-89475000D02*
X169500000Y-89600000D01*
X171320000Y-93285000D02*
X169515000Y-93285000D01*
X169515000Y-93285000D02*
X169500000Y-93300000D01*
X144370000Y-71480000D02*
X144370000Y-70870000D01*
X144370000Y-70870000D02*
X143400000Y-69900000D01*
X144370000Y-71480000D02*
X144370000Y-73580000D01*
X125070000Y-62880000D02*
X125070000Y-63430000D01*
X125070000Y-63430000D02*
X124200000Y-64300000D01*
X117875000Y-64300000D02*
X117000000Y-64300000D01*
X118170000Y-62880000D02*
X118170000Y-64005000D01*
X118170000Y-64005000D02*
X117875000Y-64300000D01*
X110675000Y-64400000D02*
X109800000Y-64400000D01*
X111070000Y-62880000D02*
X111070000Y-64005000D01*
X111070000Y-64005000D02*
X110675000Y-64400000D01*
X167168800Y-67330440D02*
X167168800Y-69118800D01*
X167168800Y-69118800D02*
X169150000Y-71100000D01*
X167168800Y-67330440D02*
X167168800Y-68078800D01*
D31*
X138700500Y-83310500D02*
X138700500Y-82972680D01*
X167168800Y-67330440D02*
X173671200Y-67330440D01*
X161920000Y-86935000D02*
X160645000Y-86935000D01*
X160645000Y-86935000D02*
X159420000Y-88160000D01*
X137200000Y-86000000D02*
X136160500Y-84960500D01*
X159420000Y-88160000D02*
X159420000Y-95380000D01*
X159420000Y-95380000D02*
X158420000Y-96380000D01*
X158420000Y-96380000D02*
X155280000Y-96380000D01*
X155280000Y-96380000D02*
X144900000Y-86000000D01*
X144900000Y-86000000D02*
X137200000Y-86000000D01*
X136160500Y-84960500D02*
X136160500Y-83310500D01*
X118600000Y-102400000D02*
X119916000Y-102400000D01*
X119916000Y-102400000D02*
X123460500Y-98855500D01*
X123460500Y-98855500D02*
X123460500Y-98550500D01*
X131080500Y-83310500D02*
X131080500Y-85180500D01*
X161245000Y-95825000D02*
X161920000Y-95825000D01*
X131080500Y-85180500D02*
X133500000Y-87600000D01*
X133500000Y-87600000D02*
X145200000Y-87600000D01*
X145200000Y-87600000D02*
X155100000Y-97500000D01*
X155100000Y-97500000D02*
X158800000Y-97500000D01*
X158800000Y-97500000D02*
X160320000Y-95980000D01*
X160320000Y-95980000D02*
X161090000Y-95980000D01*
X161090000Y-95980000D02*
X161245000Y-95825000D01*
X120920500Y-83310500D02*
X120920500Y-83648320D01*
X120920500Y-83648320D02*
X127272180Y-90000000D01*
X127272180Y-90000000D02*
X144400000Y-90000000D01*
X154000000Y-99600000D02*
X166870000Y-99600000D01*
X144400000Y-90000000D02*
X154000000Y-99600000D01*
X166870000Y-99600000D02*
X170645000Y-95825000D01*
X170645000Y-95825000D02*
X171320000Y-95825000D01*
X123460500Y-83648320D02*
X123460500Y-83310500D01*
X171320000Y-86935000D02*
X170645000Y-86935000D01*
X170645000Y-86935000D02*
X167120000Y-90460000D01*
X167120000Y-90460000D02*
X167120000Y-95980000D01*
X167120000Y-95980000D02*
X164400000Y-98700000D01*
X128540500Y-85640500D02*
X128540500Y-83310500D01*
X164400000Y-98700000D02*
X154900000Y-98700000D01*
X154900000Y-98700000D02*
X144900000Y-88700000D01*
X144900000Y-88700000D02*
X131600000Y-88700000D01*
X131600000Y-88700000D02*
X128540500Y-85640500D01*
X171995000Y-86935000D02*
X171320000Y-86935000D01*
X118380500Y-83310500D02*
X118380500Y-83648320D01*
X118380500Y-83648320D02*
X125832180Y-91100000D01*
X125832180Y-91100000D02*
X143900000Y-91100000D01*
X143900000Y-91100000D02*
X154160000Y-101360000D01*
X154160000Y-101360000D02*
X156600000Y-101360000D01*
X115840500Y-83310500D02*
X115840500Y-82972680D01*
X115840500Y-82972680D02*
X117533180Y-81280000D01*
X144893601Y-80180000D02*
X144893601Y-77936399D01*
X145356401Y-77473599D02*
X146220000Y-76610000D01*
X117533180Y-81280000D02*
X143793601Y-81280000D01*
X143793601Y-81280000D02*
X144893601Y-80180000D01*
X144893601Y-77936399D02*
X145356401Y-77473599D01*
X137436400Y-79150000D02*
X138600000Y-79150000D01*
X123051468Y-80700011D02*
X135886389Y-80700011D01*
X123045067Y-80693610D02*
X123051468Y-80700011D01*
X115579570Y-80693610D02*
X123045067Y-80693610D01*
X113300500Y-82972680D02*
X115579570Y-80693610D01*
X113300500Y-83310500D02*
X113300500Y-82972680D01*
X135886389Y-80700011D02*
X137436400Y-79150000D01*
D32*
X138500000Y-116100000D02*
X138500000Y-111700000D01*
X138500000Y-111700000D02*
X129800000Y-103000000D01*
X129800000Y-103000000D02*
X129800000Y-97400000D01*
X129800000Y-97400000D02*
X133700000Y-93500000D01*
X133700000Y-93500000D02*
X136100000Y-93500000D01*
X146745000Y-71480000D02*
X146870000Y-71480000D01*
X144414998Y-69149998D02*
X146745000Y-71480000D01*
X140325002Y-69149998D02*
X144414998Y-69149998D01*
X137995000Y-71480000D02*
X140325002Y-69149998D01*
X137870000Y-71480000D02*
X137995000Y-71480000D01*
X137870000Y-73580000D02*
X137870000Y-71480000D01*
X146870000Y-73580000D02*
X146870000Y-71480000D01*
X149100000Y-74000000D02*
X148680000Y-73580000D01*
X148680000Y-73580000D02*
X146870000Y-73580000D01*
X149100000Y-77900000D02*
X149100000Y-74000000D01*
X147850000Y-79150000D02*
X149100000Y-77900000D01*
X146220000Y-79150000D02*
X147850000Y-79150000D01*
X132700000Y-77500000D02*
X131850000Y-78350000D01*
X131850000Y-78350000D02*
X130700001Y-78350000D01*
X131800000Y-76600000D02*
X130700001Y-76600000D01*
X132700000Y-77500000D02*
X131800000Y-76600000D01*
X137870000Y-73580000D02*
X136620000Y-73580000D01*
X136620000Y-73580000D02*
X132700000Y-77500000D01*
D31*
X128540500Y-98550500D02*
X128540500Y-103700000D01*
X128540500Y-103700000D02*
X128540500Y-103940500D01*
X131100000Y-115000000D02*
X131100000Y-111464467D01*
X131100000Y-111464467D02*
X128540500Y-108904967D01*
X128540500Y-108904967D02*
X128540500Y-103700000D01*
X128020000Y-99071000D02*
X128540500Y-98550500D01*
X146000000Y-116100000D02*
X145820000Y-115920000D01*
X145820000Y-115920000D02*
X145820000Y-113720000D01*
X145820000Y-113720000D02*
X131080500Y-98980500D01*
X131080500Y-98980500D02*
X131080500Y-98550500D01*
D33*
X131080500Y-98550500D02*
X131190500Y-98550500D01*
D31*
X133620500Y-98550500D02*
X133620500Y-98720500D01*
X133620500Y-98720500D02*
X146380000Y-111480000D01*
X146380000Y-111480000D02*
X148880000Y-111480000D01*
X148880000Y-111480000D02*
X153500000Y-116100000D01*
D33*
X133620500Y-98550500D02*
X133620500Y-99180500D01*
D31*
X168500000Y-116100000D02*
X168500000Y-112564467D01*
X168500000Y-112564467D02*
X166035533Y-110100000D01*
X166035533Y-110100000D02*
X147600000Y-110100000D01*
X147600000Y-110100000D02*
X136160500Y-98660500D01*
X136160500Y-98660500D02*
X136160500Y-98550500D01*
D33*
X136160500Y-98550500D02*
X136160500Y-99220500D01*
D31*
X138700500Y-98550500D02*
X138700500Y-99200500D01*
X138700500Y-99200500D02*
X148200000Y-108700000D01*
X148200000Y-108700000D02*
X172540000Y-108700000D01*
X172540000Y-108700000D02*
X176000000Y-112160000D01*
X176000000Y-112160000D02*
X176000000Y-116100000D01*
D32*
X171320000Y-97095000D02*
X173705000Y-97095000D01*
X173705000Y-97095000D02*
X173800000Y-97000000D01*
X171075000Y-69400000D02*
X170500000Y-69400000D01*
X171650000Y-71100000D02*
X171650000Y-69975000D01*
X171650000Y-69975000D02*
X171075000Y-69400000D01*
X171650000Y-71100000D02*
X171400000Y-71350000D01*
X171400000Y-71350000D02*
X171400000Y-85585000D01*
X171400000Y-85585000D02*
X171320000Y-85665000D01*
X173800000Y-85700000D02*
X171355000Y-85700000D01*
X171355000Y-85700000D02*
X171320000Y-85665000D01*
X156600000Y-76400000D02*
X154400000Y-78600000D01*
X154400000Y-78600000D02*
X154400000Y-80200000D01*
X154400000Y-80200000D02*
X156000000Y-81800000D01*
X156000000Y-81800000D02*
X159520000Y-81800000D01*
X159520000Y-81800000D02*
X161920000Y-84200000D01*
X161920000Y-84200000D02*
X161920000Y-85665000D01*
X156600000Y-103900000D02*
X165315000Y-103900000D01*
X165315000Y-103900000D02*
X171320000Y-97895000D01*
X171320000Y-97895000D02*
X171320000Y-97095000D01*
D33*
X120000000Y-117500000D02*
X120000000Y-118900000D01*
X120000000Y-118900000D02*
X120800000Y-119700000D01*
X115600000Y-106800000D02*
X115600000Y-105400000D01*
X115600000Y-105400000D02*
X116060000Y-104940000D01*
X120000000Y-115100000D02*
X120000000Y-113200000D01*
X120000000Y-113200000D02*
X118200000Y-111400000D01*
X118200000Y-111400000D02*
X116700000Y-109900000D01*
X161100000Y-115000000D02*
X161100000Y-119700000D01*
X161100000Y-119700000D02*
X159400000Y-119700000D01*
X159400000Y-119700000D02*
X120800000Y-119700000D01*
X116060000Y-104940000D02*
X118600000Y-104940000D01*
X116700000Y-109900000D02*
X115600000Y-108800000D01*
X115600000Y-108800000D02*
X115600000Y-106800000D01*
X120000000Y-117500000D02*
X120000000Y-115100000D01*
D32*
X161920000Y-85665000D02*
X161245000Y-85665000D01*
X161210000Y-85700000D02*
X159500000Y-85700000D01*
X161245000Y-85665000D02*
X161210000Y-85700000D01*
X159500000Y-85700000D02*
X158300000Y-86900000D01*
X158300000Y-86900000D02*
X158300000Y-90932400D01*
X158300000Y-90932400D02*
X156752400Y-92480000D01*
X156752400Y-92480000D02*
X156600000Y-92480000D01*
X164520000Y-96980000D02*
X164819999Y-96680001D01*
X164819999Y-96680001D02*
X164819999Y-67354999D01*
X161220000Y-63755000D02*
X161220000Y-63630000D01*
X164819999Y-67354999D02*
X161220000Y-63755000D01*
X161920000Y-97095000D02*
X163705000Y-97095000D01*
X163705000Y-97095000D02*
X163820000Y-96980000D01*
X157652000Y-62364000D02*
X159954000Y-62364000D01*
X159954000Y-62364000D02*
X161220000Y-63630000D01*
X161920000Y-88205000D02*
X163895000Y-88205000D01*
X163895000Y-88205000D02*
X163920000Y-88180000D01*
X161920000Y-94555000D02*
X163895000Y-94555000D01*
X163895000Y-94555000D02*
X163920000Y-94580000D01*
X171320000Y-94555000D02*
X173655000Y-94555000D01*
X173655000Y-94555000D02*
X175000000Y-95900000D01*
X175000000Y-95900000D02*
X175000000Y-100700000D01*
X175000000Y-100700000D02*
X178730500Y-104430500D01*
X178730500Y-104430500D02*
X180600000Y-104430500D01*
X180600000Y-99430500D02*
X180600000Y-98400000D01*
X180600000Y-98400000D02*
X176000000Y-93800000D01*
X176000000Y-93800000D02*
X176000000Y-90680000D01*
X176000000Y-90680000D02*
X173525000Y-88205000D01*
X173525000Y-88205000D02*
X171320000Y-88205000D01*
D31*
X143680000Y-79150000D02*
X142420000Y-77890000D01*
X142420000Y-77890000D02*
X142420000Y-73405000D01*
X142420000Y-73405000D02*
X140495000Y-71480000D01*
X140495000Y-71480000D02*
X140370000Y-71480000D01*
X141140000Y-79150000D02*
X139926399Y-77936399D01*
X139926399Y-77936399D02*
X139926399Y-74948601D01*
X139926399Y-74948601D02*
X140370000Y-74505000D01*
X140370000Y-74505000D02*
X140370000Y-73580000D01*
D32*
X129899999Y-78350000D02*
X122826769Y-78350000D01*
X122826769Y-78350000D02*
X122746778Y-78429991D01*
X122746778Y-78429991D02*
X122446779Y-78729990D01*
X151048000Y-64650000D02*
X136750000Y-64650000D01*
X136750000Y-64650000D02*
X129200000Y-72200000D01*
X129200000Y-72200000D02*
X129200000Y-75800000D01*
X129200000Y-75800000D02*
X129899999Y-76499999D01*
X157652000Y-64650000D02*
X156136000Y-64650000D01*
X156136000Y-64650000D02*
X151048000Y-64650000D01*
D31*
X113570000Y-62880000D02*
X113570000Y-67370000D01*
X113570000Y-67370000D02*
X113600000Y-67400000D01*
X120670000Y-62880000D02*
X120670000Y-67330000D01*
X120670000Y-67330000D02*
X120600000Y-67400000D01*
X127570000Y-62880000D02*
X127570000Y-67370000D01*
X127570000Y-67370000D02*
X127600000Y-67400000D01*
X126000500Y-98550500D02*
X126000500Y-107599500D01*
X126000500Y-107599500D02*
X123520000Y-110080000D01*
X123520000Y-110080000D02*
X123520000Y-116080000D01*
X123520000Y-116080000D02*
X123500000Y-116100000D01*
D34*
G36*
X183471023Y-61297167D02*
X184209439Y-61790561D01*
X184702833Y-62528977D01*
X184890000Y-63469931D01*
X184890000Y-117330069D01*
X184702833Y-118271023D01*
X184209439Y-119009439D01*
X183471023Y-119502833D01*
X182530069Y-119690000D01*
X110669931Y-119690000D01*
X109728977Y-119502833D01*
X108990561Y-119009439D01*
X108497167Y-118271023D01*
X108310000Y-117330069D01*
X108310000Y-115000000D01*
X112952560Y-115000000D01*
X112952560Y-119000000D01*
X112996838Y-119235317D01*
X113135910Y-119451441D01*
X113348110Y-119596431D01*
X113600000Y-119647440D01*
X118600000Y-119647440D01*
X118835317Y-119603162D01*
X119051441Y-119464090D01*
X119196431Y-119251890D01*
X119247440Y-119000000D01*
X119247440Y-115000000D01*
X119235058Y-114934197D01*
X119235543Y-114379146D01*
X118759273Y-113226485D01*
X117878153Y-112343826D01*
X116726326Y-111865546D01*
X115479146Y-111864457D01*
X114326485Y-112340727D01*
X113443826Y-113221847D01*
X112965546Y-114373674D01*
X112965053Y-114938308D01*
X112952560Y-115000000D01*
X108310000Y-115000000D01*
X108310000Y-105400000D01*
X108890000Y-105400000D01*
X109096286Y-106437072D01*
X109683741Y-107316259D01*
X110562928Y-107903714D01*
X111600000Y-108110000D01*
X112637072Y-107903714D01*
X113271203Y-107480000D01*
X116916655Y-107480000D01*
X117030729Y-108053489D01*
X117355585Y-108539670D01*
X117841766Y-108864526D01*
X118415255Y-108978600D01*
X118784745Y-108978600D01*
X119358234Y-108864526D01*
X119844415Y-108539670D01*
X119961126Y-108365000D01*
X120519995Y-108365000D01*
X120520000Y-108365001D01*
X120802484Y-108308810D01*
X120858675Y-108297633D01*
X121145790Y-108105790D01*
X123925787Y-105325792D01*
X123925790Y-105325790D01*
X124117633Y-105038675D01*
X124162523Y-104813000D01*
X124185001Y-104700000D01*
X124185000Y-104699995D01*
X124185000Y-103806822D01*
X124234838Y-103686799D01*
X124235162Y-103314833D01*
X124093117Y-102971057D01*
X123830327Y-102707808D01*
X123486799Y-102565162D01*
X123114833Y-102564838D01*
X122771057Y-102706883D01*
X122507808Y-102969673D01*
X122365162Y-103313201D01*
X122364838Y-103685167D01*
X122415000Y-103806569D01*
X122415000Y-104333421D01*
X120153420Y-106595000D01*
X119961126Y-106595000D01*
X119844415Y-106420330D01*
X119534931Y-106213539D01*
X119950732Y-105842036D01*
X120204709Y-105314791D01*
X120207358Y-105299026D01*
X120086217Y-105067000D01*
X118727000Y-105067000D01*
X118727000Y-105087000D01*
X118473000Y-105087000D01*
X118473000Y-105067000D01*
X117113783Y-105067000D01*
X116992642Y-105299026D01*
X116995291Y-105314791D01*
X117249268Y-105842036D01*
X117665069Y-106213539D01*
X117355585Y-106420330D01*
X117030729Y-106906511D01*
X116916655Y-107480000D01*
X113271203Y-107480000D01*
X113516259Y-107316259D01*
X114103714Y-106437072D01*
X114310000Y-105400000D01*
X114103714Y-104362928D01*
X113516259Y-103483741D01*
X112637072Y-102896286D01*
X111600000Y-102690000D01*
X110562928Y-102896286D01*
X109683741Y-103483741D01*
X109096286Y-104362928D01*
X108890000Y-105400000D01*
X108310000Y-105400000D01*
X108310000Y-77400000D01*
X108890000Y-77400000D01*
X109096286Y-78437072D01*
X109683741Y-79316259D01*
X110562928Y-79903714D01*
X111600000Y-80110000D01*
X112637072Y-79903714D01*
X113516259Y-79316259D01*
X114103714Y-78437072D01*
X114310000Y-77400000D01*
X114103714Y-76362928D01*
X113516259Y-75483741D01*
X112637072Y-74896286D01*
X111600000Y-74690000D01*
X110562928Y-74896286D01*
X109683741Y-75483741D01*
X109096286Y-76362928D01*
X108890000Y-77400000D01*
X108310000Y-77400000D01*
X108310000Y-64585167D01*
X108864838Y-64585167D01*
X109006883Y-64928943D01*
X109269673Y-65192192D01*
X109613201Y-65334838D01*
X109985167Y-65335162D01*
X110106569Y-65285000D01*
X110674995Y-65285000D01*
X110675000Y-65285001D01*
X110957484Y-65228810D01*
X111013675Y-65217633D01*
X111300790Y-65025790D01*
X111695787Y-64630792D01*
X111695790Y-64630790D01*
X111887633Y-64343675D01*
X111929781Y-64131783D01*
X112055317Y-64108162D01*
X112271441Y-63969090D01*
X112319134Y-63899289D01*
X112355910Y-63956441D01*
X112568110Y-64101431D01*
X112785000Y-64145352D01*
X112785000Y-65752560D01*
X112650000Y-65752560D01*
X112414683Y-65796838D01*
X112198559Y-65935910D01*
X112053569Y-66148110D01*
X112052945Y-66151192D01*
X111959003Y-66057086D01*
X111376659Y-65815276D01*
X110746107Y-65814725D01*
X110163343Y-66055519D01*
X109717086Y-66500997D01*
X109475276Y-67083341D01*
X109474725Y-67713893D01*
X109715519Y-68296657D01*
X110160997Y-68742914D01*
X110275000Y-68790252D01*
X110275000Y-69460000D01*
X110334755Y-69760407D01*
X110504921Y-70015079D01*
X114735000Y-74245157D01*
X114735000Y-78454843D01*
X111164921Y-82024921D01*
X110994755Y-82279593D01*
X110994755Y-82279594D01*
X110935000Y-82580000D01*
X110935000Y-86920000D01*
X110994755Y-87220407D01*
X111164921Y-87475079D01*
X120135500Y-96445658D01*
X120135500Y-97055339D01*
X119932672Y-97190865D01*
X119650500Y-97613164D01*
X119368328Y-97190865D01*
X118915109Y-96888033D01*
X118380500Y-96781693D01*
X117845891Y-96888033D01*
X117392672Y-97190865D01*
X117110500Y-97613164D01*
X116828328Y-97190865D01*
X116375109Y-96888033D01*
X115840500Y-96781693D01*
X115305891Y-96888033D01*
X114852672Y-97190865D01*
X114570500Y-97613164D01*
X114288328Y-97190865D01*
X113835109Y-96888033D01*
X113300500Y-96781693D01*
X112765891Y-96888033D01*
X112312672Y-97190865D01*
X112009840Y-97644084D01*
X111903500Y-98178693D01*
X111903500Y-98922307D01*
X112009840Y-99456916D01*
X112312672Y-99910135D01*
X112765891Y-100212967D01*
X113300500Y-100319307D01*
X113835109Y-100212967D01*
X114288328Y-99910135D01*
X114570500Y-99487836D01*
X114852672Y-99910135D01*
X115305891Y-100212967D01*
X115840500Y-100319307D01*
X116375109Y-100212967D01*
X116828328Y-99910135D01*
X117110500Y-99487836D01*
X117392672Y-99910135D01*
X117845891Y-100212967D01*
X118380500Y-100319307D01*
X118915109Y-100212967D01*
X119368328Y-99910135D01*
X119650500Y-99487836D01*
X119932672Y-99910135D01*
X120385891Y-100212967D01*
X120892170Y-100313672D01*
X120096062Y-101109780D01*
X120080090Y-101084959D01*
X119867890Y-100939969D01*
X119616000Y-100888960D01*
X117584000Y-100888960D01*
X117348683Y-100933238D01*
X117132559Y-101072310D01*
X116987569Y-101284510D01*
X116936560Y-101536400D01*
X116936560Y-103263600D01*
X116980838Y-103498917D01*
X117119910Y-103715041D01*
X117332110Y-103860031D01*
X117426927Y-103879232D01*
X117249268Y-104037964D01*
X116995291Y-104565209D01*
X116992642Y-104580974D01*
X117113783Y-104813000D01*
X118473000Y-104813000D01*
X118473000Y-104793000D01*
X118727000Y-104793000D01*
X118727000Y-104813000D01*
X120086217Y-104813000D01*
X120207358Y-104580974D01*
X120204709Y-104565209D01*
X119950732Y-104037964D01*
X119775155Y-103881093D01*
X119851317Y-103866762D01*
X120067441Y-103727690D01*
X120212431Y-103515490D01*
X120263440Y-103263600D01*
X120263440Y-103093819D01*
X120471079Y-102955079D01*
X123166605Y-100259553D01*
X123460500Y-100318012D01*
X123995109Y-100211672D01*
X124448328Y-99908840D01*
X124730500Y-99486541D01*
X125012672Y-99908840D01*
X125215500Y-100044366D01*
X125215500Y-107274342D01*
X122964921Y-109524921D01*
X122794755Y-109779593D01*
X122794755Y-109779594D01*
X122735000Y-110080000D01*
X122735000Y-111965336D01*
X121826485Y-112340727D01*
X120943826Y-113221847D01*
X120465546Y-114373674D01*
X120465053Y-114938308D01*
X120452560Y-115000000D01*
X120452560Y-119000000D01*
X120496838Y-119235317D01*
X120635910Y-119451441D01*
X120848110Y-119596431D01*
X121100000Y-119647440D01*
X126100000Y-119647440D01*
X126335317Y-119603162D01*
X126551441Y-119464090D01*
X126696431Y-119251890D01*
X126747440Y-119000000D01*
X126747440Y-115000000D01*
X126735058Y-114934197D01*
X126735543Y-114379146D01*
X126259273Y-113226485D01*
X125378153Y-112343826D01*
X124305000Y-111898214D01*
X124305000Y-110405158D01*
X126555579Y-108154579D01*
X126725745Y-107899906D01*
X126785500Y-107599500D01*
X126785500Y-100044366D01*
X126988328Y-99908840D01*
X127270500Y-99486541D01*
X127552672Y-99908840D01*
X127755500Y-100044366D01*
X127755500Y-108904967D01*
X127815255Y-109205374D01*
X127985421Y-109460046D01*
X130315000Y-111789625D01*
X130315000Y-111932281D01*
X129326485Y-112340727D01*
X128443826Y-113221847D01*
X127965546Y-114373674D01*
X127965053Y-114938308D01*
X127952560Y-115000000D01*
X127952560Y-119000000D01*
X127996838Y-119235317D01*
X128135910Y-119451441D01*
X128348110Y-119596431D01*
X128600000Y-119647440D01*
X133600000Y-119647440D01*
X133835317Y-119603162D01*
X134051441Y-119464090D01*
X134196431Y-119251890D01*
X134247440Y-119000000D01*
X134247440Y-115000000D01*
X134235058Y-114934197D01*
X134235543Y-114379146D01*
X133759273Y-113226485D01*
X132878153Y-112343826D01*
X131885000Y-111931433D01*
X131885000Y-111464472D01*
X131885001Y-111464467D01*
X131825245Y-111164061D01*
X131655079Y-110909388D01*
X129325500Y-108579809D01*
X129325500Y-103777080D01*
X137578445Y-112030024D01*
X136826485Y-112340727D01*
X135943826Y-113221847D01*
X135465546Y-114373674D01*
X135465053Y-114938308D01*
X135452560Y-115000000D01*
X135452560Y-119000000D01*
X135496838Y-119235317D01*
X135635910Y-119451441D01*
X135848110Y-119596431D01*
X136100000Y-119647440D01*
X141100000Y-119647440D01*
X141335317Y-119603162D01*
X141551441Y-119464090D01*
X141696431Y-119251890D01*
X141747440Y-119000000D01*
X141747440Y-115000000D01*
X141735058Y-114934197D01*
X141735543Y-114379146D01*
X141259273Y-113226485D01*
X140378153Y-112343826D01*
X139385000Y-111931433D01*
X139385000Y-111700005D01*
X139385001Y-111700000D01*
X139317633Y-111361326D01*
X139317633Y-111361325D01*
X139125790Y-111074210D01*
X139125787Y-111074208D01*
X130685000Y-102633420D01*
X130685000Y-100239342D01*
X131080500Y-100318012D01*
X131270134Y-100280292D01*
X143828093Y-112838251D01*
X143443826Y-113221847D01*
X142965546Y-114373674D01*
X142965053Y-114938308D01*
X142952560Y-115000000D01*
X142952560Y-119000000D01*
X142996838Y-119235317D01*
X143135910Y-119451441D01*
X143348110Y-119596431D01*
X143600000Y-119647440D01*
X148600000Y-119647440D01*
X148835317Y-119603162D01*
X149051441Y-119464090D01*
X149196431Y-119251890D01*
X149247440Y-119000000D01*
X149247440Y-115000000D01*
X149235058Y-114934197D01*
X149235543Y-114379146D01*
X148759273Y-113226485D01*
X147878153Y-112343826D01*
X147688319Y-112265000D01*
X148554842Y-112265000D01*
X150523631Y-114233789D01*
X150465546Y-114373674D01*
X150465053Y-114938308D01*
X150452560Y-115000000D01*
X150452560Y-119000000D01*
X150496838Y-119235317D01*
X150635910Y-119451441D01*
X150848110Y-119596431D01*
X151100000Y-119647440D01*
X156100000Y-119647440D01*
X156335317Y-119603162D01*
X156551441Y-119464090D01*
X156696431Y-119251890D01*
X156747440Y-119000000D01*
X156747440Y-115000000D01*
X156735058Y-114934197D01*
X156735543Y-114379146D01*
X156735025Y-114377892D01*
X157964706Y-114377892D01*
X157965000Y-115000000D01*
X157965000Y-116714250D01*
X158123750Y-116873000D01*
X158589116Y-116873000D01*
X158864118Y-117056274D01*
X158793392Y-117127000D01*
X158123750Y-117127000D01*
X157965000Y-117285750D01*
X157965000Y-119126310D01*
X158061673Y-119359699D01*
X158240302Y-119538327D01*
X158473691Y-119635000D01*
X160814250Y-119635000D01*
X160973000Y-119476250D01*
X160973000Y-118135060D01*
X161227000Y-118134940D01*
X161227000Y-119476250D01*
X161385750Y-119635000D01*
X163726309Y-119635000D01*
X163959698Y-119538327D01*
X164138327Y-119359699D01*
X164235000Y-119126310D01*
X164235000Y-117285750D01*
X164076250Y-117127000D01*
X163406608Y-117127000D01*
X163335882Y-117056274D01*
X163610884Y-116873000D01*
X164076250Y-116873000D01*
X164235000Y-116714250D01*
X164235000Y-115622819D01*
X164235294Y-115622108D01*
X164235000Y-114999577D01*
X164235000Y-114873690D01*
X164234940Y-114873546D01*
X164234705Y-114374928D01*
X163758564Y-113225421D01*
X163335880Y-112943725D01*
X161914605Y-114365000D01*
X161555395Y-114365000D01*
X163156275Y-112764120D01*
X162874579Y-112341436D01*
X161722108Y-111864706D01*
X160474928Y-111865295D01*
X159325421Y-112341436D01*
X159043725Y-112764120D01*
X160644605Y-114365000D01*
X160285395Y-114365000D01*
X158864120Y-112943725D01*
X158441436Y-113225421D01*
X157964706Y-114377892D01*
X156735025Y-114377892D01*
X156259273Y-113226485D01*
X155378153Y-112343826D01*
X154226326Y-111865546D01*
X152979146Y-111864457D01*
X151826485Y-112340727D01*
X151338259Y-112828101D01*
X149435079Y-110924921D01*
X149375333Y-110885000D01*
X165710375Y-110885000D01*
X167066804Y-112241429D01*
X166826485Y-112340727D01*
X165943826Y-113221847D01*
X165465546Y-114373674D01*
X165465053Y-114938308D01*
X165452560Y-115000000D01*
X165452560Y-119000000D01*
X165496838Y-119235317D01*
X165635910Y-119451441D01*
X165848110Y-119596431D01*
X166100000Y-119647440D01*
X171100000Y-119647440D01*
X171335317Y-119603162D01*
X171551441Y-119464090D01*
X171696431Y-119251890D01*
X171747440Y-119000000D01*
X171747440Y-115000000D01*
X171735058Y-114934197D01*
X171735543Y-114379146D01*
X171259273Y-113226485D01*
X170378153Y-112343826D01*
X169226326Y-111865546D01*
X168910962Y-111865271D01*
X166590612Y-109544921D01*
X166500934Y-109485000D01*
X172214842Y-109485000D01*
X174853012Y-112123170D01*
X174326485Y-112340727D01*
X173443826Y-113221847D01*
X172965546Y-114373674D01*
X172965053Y-114938308D01*
X172952560Y-115000000D01*
X172952560Y-119000000D01*
X172996838Y-119235317D01*
X173135910Y-119451441D01*
X173348110Y-119596431D01*
X173600000Y-119647440D01*
X178600000Y-119647440D01*
X178835317Y-119603162D01*
X179051441Y-119464090D01*
X179196431Y-119251890D01*
X179247440Y-119000000D01*
X179247440Y-116700000D01*
X179390000Y-116700000D01*
X179596286Y-117737072D01*
X180183741Y-118616259D01*
X181062928Y-119203714D01*
X182100000Y-119410000D01*
X183137072Y-119203714D01*
X184016259Y-118616259D01*
X184603714Y-117737072D01*
X184810000Y-116700000D01*
X184603714Y-115662928D01*
X184016259Y-114783741D01*
X183137072Y-114196286D01*
X182100000Y-113990000D01*
X181062928Y-114196286D01*
X180183741Y-114783741D01*
X179596286Y-115662928D01*
X179390000Y-116700000D01*
X179247440Y-116700000D01*
X179247440Y-115000000D01*
X179235058Y-114934197D01*
X179235543Y-114379146D01*
X178759273Y-113226485D01*
X177878153Y-112343826D01*
X176726438Y-111865593D01*
X176725245Y-111859594D01*
X176555079Y-111604921D01*
X173095079Y-108144921D01*
X172840407Y-107974755D01*
X172540000Y-107915000D01*
X156903390Y-107915000D01*
X157358234Y-107824526D01*
X157844415Y-107499670D01*
X158169271Y-107013489D01*
X158283345Y-106440000D01*
X158169271Y-105866511D01*
X157844415Y-105380330D01*
X157534931Y-105173539D01*
X157950732Y-104802036D01*
X158204709Y-104274791D01*
X158207358Y-104259026D01*
X158086217Y-104027000D01*
X156727000Y-104027000D01*
X156727000Y-104047000D01*
X156473000Y-104047000D01*
X156473000Y-104027000D01*
X155113783Y-104027000D01*
X154992642Y-104259026D01*
X154995291Y-104274791D01*
X155249268Y-104802036D01*
X155665069Y-105173539D01*
X155355585Y-105380330D01*
X155030729Y-105866511D01*
X154916655Y-106440000D01*
X155030729Y-107013489D01*
X155355585Y-107499670D01*
X155841766Y-107824526D01*
X156296610Y-107915000D01*
X148525158Y-107915000D01*
X140839812Y-100229654D01*
X140897430Y-100241270D01*
X141113500Y-100118770D01*
X141113500Y-98677500D01*
X141093500Y-98677500D01*
X141093500Y-98423500D01*
X141113500Y-98423500D01*
X141113500Y-96982230D01*
X140897430Y-96859730D01*
X140823223Y-96874690D01*
X140342474Y-97136320D01*
X139998441Y-97562009D01*
X139979142Y-97627393D01*
X139688328Y-97192160D01*
X139235109Y-96889328D01*
X138700500Y-96782988D01*
X138165891Y-96889328D01*
X137712672Y-97192160D01*
X137430500Y-97614459D01*
X137148328Y-97192160D01*
X136695109Y-96889328D01*
X136160500Y-96782988D01*
X135625891Y-96889328D01*
X135172672Y-97192160D01*
X134890500Y-97614459D01*
X134608328Y-97192160D01*
X134155109Y-96889328D01*
X133620500Y-96782988D01*
X133085891Y-96889328D01*
X132632672Y-97192160D01*
X132350500Y-97614459D01*
X132068328Y-97192160D01*
X131615109Y-96889328D01*
X131571021Y-96880558D01*
X134066579Y-94385000D01*
X135793178Y-94385000D01*
X135913201Y-94434838D01*
X136285167Y-94435162D01*
X136628943Y-94293117D01*
X136892192Y-94030327D01*
X137034838Y-93686799D01*
X137035162Y-93314833D01*
X136893117Y-92971057D01*
X136630327Y-92707808D01*
X136286799Y-92565162D01*
X135914833Y-92564838D01*
X135793431Y-92615000D01*
X133700005Y-92615000D01*
X133700000Y-92614999D01*
X133417516Y-92671190D01*
X133361325Y-92682367D01*
X133074210Y-92874210D01*
X133074208Y-92874213D01*
X129174210Y-96774210D01*
X129090444Y-96899575D01*
X129075109Y-96889328D01*
X128540500Y-96782988D01*
X128005891Y-96889328D01*
X127552672Y-97192160D01*
X127270500Y-97614459D01*
X126988328Y-97192160D01*
X126535109Y-96889328D01*
X126000500Y-96782988D01*
X125465891Y-96889328D01*
X125012672Y-97192160D01*
X124730500Y-97614459D01*
X124448328Y-97192160D01*
X123995109Y-96889328D01*
X123460500Y-96782988D01*
X122925891Y-96889328D01*
X122472672Y-97192160D01*
X122190933Y-97613812D01*
X121908328Y-97190865D01*
X121705500Y-97055339D01*
X121705500Y-96120500D01*
X121645745Y-95820094D01*
X121475579Y-95565421D01*
X112505000Y-86594842D01*
X112505000Y-84798645D01*
X112765891Y-84972967D01*
X113300500Y-85079307D01*
X113835109Y-84972967D01*
X114288328Y-84670135D01*
X114570500Y-84247836D01*
X114852672Y-84670135D01*
X115305891Y-84972967D01*
X115840500Y-85079307D01*
X116375109Y-84972967D01*
X116828328Y-84670135D01*
X117110500Y-84247836D01*
X117392672Y-84670135D01*
X117845891Y-84972967D01*
X118380500Y-85079307D01*
X118648100Y-85026078D01*
X125277101Y-91655079D01*
X125531774Y-91825245D01*
X125832180Y-91885000D01*
X143574842Y-91885000D01*
X148537148Y-96847306D01*
X148325891Y-96889328D01*
X147872672Y-97192160D01*
X147590500Y-97614459D01*
X147308328Y-97192160D01*
X146855109Y-96889328D01*
X146320500Y-96782988D01*
X145785891Y-96889328D01*
X145332672Y-97192160D01*
X145050500Y-97614459D01*
X144768328Y-97192160D01*
X144315109Y-96889328D01*
X143780500Y-96782988D01*
X143245891Y-96889328D01*
X142792672Y-97192160D01*
X142501858Y-97627393D01*
X142482559Y-97562009D01*
X142138526Y-97136320D01*
X141657777Y-96874690D01*
X141583570Y-96859730D01*
X141367500Y-96982230D01*
X141367500Y-98423500D01*
X141387500Y-98423500D01*
X141387500Y-98677500D01*
X141367500Y-98677500D01*
X141367500Y-100118770D01*
X141583570Y-100241270D01*
X141657777Y-100226310D01*
X142138526Y-99964680D01*
X142482559Y-99538991D01*
X142501858Y-99473607D01*
X142792672Y-99908840D01*
X143245891Y-100211672D01*
X143780500Y-100318012D01*
X144315109Y-100211672D01*
X144768328Y-99908840D01*
X145050500Y-99486541D01*
X145332672Y-99908840D01*
X145785891Y-100211672D01*
X146320500Y-100318012D01*
X146855109Y-100211672D01*
X147308328Y-99908840D01*
X147590500Y-99486541D01*
X147872672Y-99908840D01*
X148325891Y-100211672D01*
X148860500Y-100318012D01*
X149395109Y-100211672D01*
X149848328Y-99908840D01*
X150151160Y-99455621D01*
X150257500Y-98921012D01*
X150257500Y-98567658D01*
X153604921Y-101915079D01*
X153859593Y-102085245D01*
X154160000Y-102145000D01*
X154936560Y-102145000D01*
X154936560Y-102223600D01*
X154980838Y-102458917D01*
X155119910Y-102675041D01*
X155332110Y-102820031D01*
X155426927Y-102839232D01*
X155249268Y-102997964D01*
X154995291Y-103525209D01*
X154992642Y-103540974D01*
X155113783Y-103773000D01*
X156473000Y-103773000D01*
X156473000Y-103753000D01*
X156727000Y-103753000D01*
X156727000Y-103773000D01*
X158086217Y-103773000D01*
X158207358Y-103540974D01*
X158204709Y-103525209D01*
X157950732Y-102997964D01*
X157775155Y-102841093D01*
X157851317Y-102826762D01*
X158067441Y-102687690D01*
X158212431Y-102475490D01*
X158263440Y-102223600D01*
X158263440Y-100496400D01*
X158242479Y-100385000D01*
X166870000Y-100385000D01*
X167170407Y-100325245D01*
X167425079Y-100155079D01*
X169816066Y-97764092D01*
X169985302Y-97933327D01*
X170218691Y-98030000D01*
X171034250Y-98030000D01*
X171193000Y-97871250D01*
X171193000Y-97222000D01*
X171447000Y-97222000D01*
X171447000Y-97871250D01*
X171605750Y-98030000D01*
X172421309Y-98030000D01*
X172654698Y-97933327D01*
X172833327Y-97754699D01*
X172930000Y-97521310D01*
X172930000Y-97380750D01*
X172771250Y-97222000D01*
X171447000Y-97222000D01*
X171193000Y-97222000D01*
X171173000Y-97222000D01*
X171173000Y-96968000D01*
X171193000Y-96968000D01*
X171193000Y-96948000D01*
X171447000Y-96948000D01*
X171447000Y-96968000D01*
X172771250Y-96968000D01*
X172930000Y-96809250D01*
X172930000Y-96668690D01*
X172840194Y-96451878D01*
X172891431Y-96376890D01*
X172942440Y-96125000D01*
X172942440Y-95525000D01*
X172926446Y-95440000D01*
X173288420Y-95440000D01*
X174115000Y-96266579D01*
X174115000Y-100699995D01*
X174114999Y-100700000D01*
X174161394Y-100933238D01*
X174182367Y-101038675D01*
X174213293Y-101084959D01*
X174374210Y-101325790D01*
X178104708Y-105056287D01*
X178104710Y-105056290D01*
X178391825Y-105248133D01*
X178448016Y-105259310D01*
X178730500Y-105315501D01*
X178730505Y-105315500D01*
X178926102Y-105315500D01*
X179001043Y-105496872D01*
X179530839Y-106027593D01*
X180223405Y-106315172D01*
X180973305Y-106315826D01*
X181666372Y-106029457D01*
X182197093Y-105499661D01*
X182484672Y-104807095D01*
X182485326Y-104057195D01*
X182198957Y-103364128D01*
X181669161Y-102833407D01*
X180976595Y-102545828D01*
X180226695Y-102545174D01*
X179533628Y-102831543D01*
X179002907Y-103361339D01*
X178976504Y-103424925D01*
X175885000Y-100333420D01*
X175885000Y-95900005D01*
X175885001Y-95900000D01*
X175817633Y-95561325D01*
X175625790Y-95274210D01*
X175625787Y-95274208D01*
X174280790Y-93929210D01*
X174145294Y-93838675D01*
X173993675Y-93737367D01*
X173937484Y-93726190D01*
X173655000Y-93669999D01*
X173654995Y-93670000D01*
X172925227Y-93670000D01*
X172942440Y-93585000D01*
X172942440Y-92985000D01*
X172898162Y-92749683D01*
X172834322Y-92650472D01*
X172891431Y-92566890D01*
X172942440Y-92315000D01*
X172942440Y-91715000D01*
X172898162Y-91479683D01*
X172834322Y-91380472D01*
X172891431Y-91296890D01*
X172942440Y-91045000D01*
X172942440Y-90445000D01*
X172898162Y-90209683D01*
X172834322Y-90110472D01*
X172891431Y-90026890D01*
X172942440Y-89775000D01*
X172942440Y-89175000D01*
X172926446Y-89090000D01*
X173158420Y-89090000D01*
X175115000Y-91046579D01*
X175115000Y-93799995D01*
X175114999Y-93800000D01*
X175171190Y-94082484D01*
X175182367Y-94138675D01*
X175301942Y-94317633D01*
X175374210Y-94425790D01*
X179156467Y-98208046D01*
X179002907Y-98361339D01*
X178715328Y-99053905D01*
X178714674Y-99803805D01*
X179001043Y-100496872D01*
X179530839Y-101027593D01*
X180223405Y-101315172D01*
X180973305Y-101315826D01*
X181666372Y-101029457D01*
X182197093Y-100499661D01*
X182484672Y-99807095D01*
X182485326Y-99057195D01*
X182198957Y-98364128D01*
X181669161Y-97833407D01*
X181012186Y-97560607D01*
X177255385Y-93803805D01*
X178714674Y-93803805D01*
X179001043Y-94496872D01*
X179530839Y-95027593D01*
X180223405Y-95315172D01*
X180973305Y-95315826D01*
X181666372Y-95029457D01*
X182197093Y-94499661D01*
X182484672Y-93807095D01*
X182485326Y-93057195D01*
X182198957Y-92364128D01*
X181669161Y-91833407D01*
X180976595Y-91545828D01*
X180226695Y-91545174D01*
X179533628Y-91831543D01*
X179002907Y-92361339D01*
X178715328Y-93053905D01*
X178714674Y-93803805D01*
X177255385Y-93803805D01*
X176885000Y-93433420D01*
X176885000Y-90680005D01*
X176885001Y-90680000D01*
X176817634Y-90341326D01*
X176676649Y-90130327D01*
X176625790Y-90054210D01*
X176625787Y-90054208D01*
X175375385Y-88803805D01*
X178714674Y-88803805D01*
X179001043Y-89496872D01*
X179530839Y-90027593D01*
X180223405Y-90315172D01*
X180973305Y-90315826D01*
X181666372Y-90029457D01*
X182197093Y-89499661D01*
X182484672Y-88807095D01*
X182485326Y-88057195D01*
X182198957Y-87364128D01*
X181669161Y-86833407D01*
X180976595Y-86545828D01*
X180226695Y-86545174D01*
X179533628Y-86831543D01*
X179002907Y-87361339D01*
X178715328Y-88053905D01*
X178714674Y-88803805D01*
X175375385Y-88803805D01*
X174150790Y-87579210D01*
X174017395Y-87490079D01*
X173863675Y-87387367D01*
X173801502Y-87375000D01*
X173525000Y-87319999D01*
X173524995Y-87320000D01*
X172925227Y-87320000D01*
X172942440Y-87235000D01*
X172942440Y-86635000D01*
X172898162Y-86399683D01*
X172839822Y-86309020D01*
X172930000Y-86091310D01*
X172930000Y-85950750D01*
X172771250Y-85792000D01*
X171447000Y-85792000D01*
X171447000Y-85812000D01*
X171193000Y-85812000D01*
X171193000Y-85792000D01*
X169868750Y-85792000D01*
X169710000Y-85950750D01*
X169710000Y-86091310D01*
X169799806Y-86308122D01*
X169748569Y-86383110D01*
X169697560Y-86635000D01*
X169697560Y-86772282D01*
X166564921Y-89904921D01*
X166394755Y-90159593D01*
X166343427Y-90417633D01*
X166335000Y-90460000D01*
X166335000Y-95654842D01*
X165704999Y-96284843D01*
X165704999Y-85238690D01*
X169710000Y-85238690D01*
X169710000Y-85379250D01*
X169868750Y-85538000D01*
X171193000Y-85538000D01*
X171193000Y-84888750D01*
X171447000Y-84888750D01*
X171447000Y-85538000D01*
X172771250Y-85538000D01*
X172930000Y-85379250D01*
X172930000Y-85238690D01*
X172833327Y-85005301D01*
X172654698Y-84826673D01*
X172421309Y-84730000D01*
X171605750Y-84730000D01*
X171447000Y-84888750D01*
X171193000Y-84888750D01*
X171034250Y-84730000D01*
X170218691Y-84730000D01*
X169985302Y-84826673D01*
X169806673Y-85005301D01*
X169710000Y-85238690D01*
X165704999Y-85238690D01*
X165704999Y-82803805D01*
X178714674Y-82803805D01*
X179001043Y-83496872D01*
X179530839Y-84027593D01*
X180223405Y-84315172D01*
X180973305Y-84315826D01*
X181666372Y-84029457D01*
X182197093Y-83499661D01*
X182484672Y-82807095D01*
X182485326Y-82057195D01*
X182198957Y-81364128D01*
X181669161Y-80833407D01*
X180976595Y-80545828D01*
X180226695Y-80545174D01*
X179533628Y-80831543D01*
X179002907Y-81361339D01*
X178715328Y-82053905D01*
X178714674Y-82803805D01*
X165704999Y-82803805D01*
X165704999Y-77803805D01*
X178714674Y-77803805D01*
X179001043Y-78496872D01*
X179530839Y-79027593D01*
X180223405Y-79315172D01*
X180973305Y-79315826D01*
X181666372Y-79029457D01*
X182197093Y-78499661D01*
X182484672Y-77807095D01*
X182485326Y-77057195D01*
X182198957Y-76364128D01*
X181669161Y-75833407D01*
X180976595Y-75545828D01*
X180226695Y-75545174D01*
X179533628Y-75831543D01*
X179002907Y-76361339D01*
X178715328Y-77053905D01*
X178714674Y-77803805D01*
X165704999Y-77803805D01*
X165704999Y-68067920D01*
X165782338Y-68255095D01*
X166241727Y-68715286D01*
X166283800Y-68732756D01*
X166283800Y-69118795D01*
X166283799Y-69118800D01*
X166314713Y-69274210D01*
X166351167Y-69457475D01*
X166372013Y-69488673D01*
X166543010Y-69744590D01*
X167752560Y-70954139D01*
X167752560Y-71725000D01*
X167796838Y-71960317D01*
X167935910Y-72176441D01*
X168148110Y-72321431D01*
X168400000Y-72372440D01*
X169900000Y-72372440D01*
X170135317Y-72328162D01*
X170351441Y-72189090D01*
X170397969Y-72120994D01*
X170540302Y-72263327D01*
X170773691Y-72360000D01*
X171364250Y-72360000D01*
X171523000Y-72201250D01*
X171523000Y-71227000D01*
X171777000Y-71227000D01*
X171777000Y-72201250D01*
X171935750Y-72360000D01*
X172526309Y-72360000D01*
X172759698Y-72263327D01*
X172938327Y-72084699D01*
X173035000Y-71851310D01*
X173035000Y-71385750D01*
X172876250Y-71227000D01*
X171777000Y-71227000D01*
X171523000Y-71227000D01*
X171503000Y-71227000D01*
X171503000Y-70973000D01*
X171523000Y-70973000D01*
X171523000Y-69998750D01*
X171777000Y-69998750D01*
X171777000Y-70973000D01*
X172876250Y-70973000D01*
X173035000Y-70814250D01*
X173035000Y-70348690D01*
X172938327Y-70115301D01*
X172759698Y-69936673D01*
X172526309Y-69840000D01*
X171935750Y-69840000D01*
X171777000Y-69998750D01*
X171523000Y-69998750D01*
X171364250Y-69840000D01*
X170773691Y-69840000D01*
X170540302Y-69936673D01*
X170399064Y-70077910D01*
X170364090Y-70023559D01*
X170151890Y-69878569D01*
X169900000Y-69827560D01*
X169129139Y-69827560D01*
X168053800Y-68752220D01*
X168053800Y-68733287D01*
X168093455Y-68716902D01*
X168553646Y-68257513D01*
X168612640Y-68115440D01*
X172227034Y-68115440D01*
X172284738Y-68255095D01*
X172744127Y-68715286D01*
X173344653Y-68964646D01*
X173994894Y-68965214D01*
X174595855Y-68716902D01*
X175056046Y-68257513D01*
X175305406Y-67656987D01*
X175305974Y-67006746D01*
X175057662Y-66405785D01*
X174598273Y-65945594D01*
X173997747Y-65696234D01*
X173347506Y-65695666D01*
X172746545Y-65943978D01*
X172286354Y-66403367D01*
X172227360Y-66545440D01*
X168612966Y-66545440D01*
X168555262Y-66405785D01*
X168095873Y-65945594D01*
X167495347Y-65696234D01*
X166845106Y-65695666D01*
X166244145Y-65943978D01*
X165783954Y-66403367D01*
X165570902Y-66916454D01*
X165445789Y-66729209D01*
X165445786Y-66729207D01*
X162492440Y-63775860D01*
X162492440Y-63153254D01*
X165534026Y-63153254D01*
X165782338Y-63754215D01*
X166241727Y-64214406D01*
X166842253Y-64463766D01*
X167492494Y-64464334D01*
X168093455Y-64216022D01*
X168553646Y-63756633D01*
X168571116Y-63714560D01*
X172268353Y-63714560D01*
X172284738Y-63754215D01*
X172744127Y-64214406D01*
X173344653Y-64463766D01*
X173994894Y-64464334D01*
X174595855Y-64216022D01*
X174812254Y-64000000D01*
X179390000Y-64000000D01*
X179596286Y-65037072D01*
X180183741Y-65916259D01*
X181062928Y-66503714D01*
X182100000Y-66710000D01*
X183137072Y-66503714D01*
X184016259Y-65916259D01*
X184603714Y-65037072D01*
X184810000Y-64000000D01*
X184603714Y-62962928D01*
X184016259Y-62083741D01*
X183137072Y-61496286D01*
X182100000Y-61290000D01*
X181062928Y-61496286D01*
X180183741Y-62083741D01*
X179596286Y-62962928D01*
X179390000Y-64000000D01*
X174812254Y-64000000D01*
X175056046Y-63756633D01*
X175305406Y-63156107D01*
X175305974Y-62505866D01*
X175057662Y-61904905D01*
X174598273Y-61444714D01*
X173997747Y-61195354D01*
X173347506Y-61194786D01*
X172746545Y-61443098D01*
X172286354Y-61902487D01*
X172268884Y-61944560D01*
X168571647Y-61944560D01*
X168555262Y-61904905D01*
X168095873Y-61444714D01*
X167495347Y-61195354D01*
X166845106Y-61194786D01*
X166244145Y-61443098D01*
X165783954Y-61902487D01*
X165534594Y-62503013D01*
X165534026Y-63153254D01*
X162492440Y-63153254D01*
X162492440Y-62880000D01*
X162448162Y-62644683D01*
X162309090Y-62428559D01*
X162096890Y-62283569D01*
X161845000Y-62232560D01*
X161074140Y-62232560D01*
X160579790Y-61738210D01*
X160292675Y-61546367D01*
X160236484Y-61535190D01*
X159954000Y-61478999D01*
X159953995Y-61479000D01*
X159179991Y-61479000D01*
X159132090Y-61404559D01*
X158919890Y-61259569D01*
X158668000Y-61208560D01*
X156636000Y-61208560D01*
X156400683Y-61252838D01*
X156184559Y-61391910D01*
X156039569Y-61604110D01*
X155988560Y-61856000D01*
X155988560Y-62872000D01*
X156032838Y-63107317D01*
X156171910Y-63323441D01*
X156384110Y-63468431D01*
X156572314Y-63506543D01*
X156400683Y-63538838D01*
X156184559Y-63677910D01*
X156125053Y-63765000D01*
X152927000Y-63765000D01*
X152927000Y-62100000D01*
X152916994Y-62050590D01*
X152888553Y-62008965D01*
X152846159Y-61981685D01*
X152800000Y-61973000D01*
X143100000Y-61973000D01*
X143050590Y-61983006D01*
X143008965Y-62011447D01*
X142981685Y-62053841D01*
X142973000Y-62100000D01*
X142973000Y-63765000D01*
X136750000Y-63765000D01*
X136411325Y-63832367D01*
X136124210Y-64024210D01*
X136124208Y-64024213D01*
X128574210Y-71574210D01*
X128382367Y-71861325D01*
X128382367Y-71861326D01*
X128314999Y-72200000D01*
X128315000Y-72200005D01*
X128315000Y-75799995D01*
X128314999Y-75800000D01*
X128356205Y-76007152D01*
X128382367Y-76138675D01*
X128532207Y-76362928D01*
X128574210Y-76425790D01*
X129102560Y-76954139D01*
X129102560Y-77050000D01*
X129146838Y-77285317D01*
X129262461Y-77465000D01*
X122826769Y-77465000D01*
X122488094Y-77532367D01*
X122200979Y-77724210D01*
X122200977Y-77724213D01*
X122120988Y-77804201D01*
X122120986Y-77804204D01*
X122037944Y-77887245D01*
X121917836Y-77936873D01*
X121654587Y-78199663D01*
X121511941Y-78543191D01*
X121511617Y-78915157D01*
X121653662Y-79258933D01*
X121916452Y-79522182D01*
X122259980Y-79664828D01*
X122631946Y-79665152D01*
X122975722Y-79523107D01*
X123238971Y-79260317D01*
X123249484Y-79235000D01*
X129275331Y-79235000D01*
X129285910Y-79251441D01*
X129498110Y-79396431D01*
X129750000Y-79447440D01*
X130250000Y-79447440D01*
X130301836Y-79437686D01*
X130350000Y-79447440D01*
X130850000Y-79447440D01*
X131085317Y-79403162D01*
X131301441Y-79264090D01*
X131321317Y-79235000D01*
X131849995Y-79235000D01*
X131850000Y-79235001D01*
X132171461Y-79171057D01*
X132188675Y-79167633D01*
X132475790Y-78975790D01*
X133325787Y-78125792D01*
X133325790Y-78125790D01*
X136738623Y-74712956D01*
X136868110Y-74801431D01*
X137120000Y-74852440D01*
X138620000Y-74852440D01*
X138855317Y-74808162D01*
X139071441Y-74669090D01*
X139119134Y-74599289D01*
X139155910Y-74656441D01*
X139194296Y-74682669D01*
X139160527Y-74852440D01*
X139141399Y-74948601D01*
X139141399Y-75189732D01*
X138600000Y-75082041D01*
X138026511Y-75196115D01*
X137540330Y-75520971D01*
X137215474Y-76007152D01*
X137101400Y-76580641D01*
X137101400Y-76639359D01*
X137215474Y-77212848D01*
X137526574Y-77678442D01*
X137501083Y-77683238D01*
X137284959Y-77822310D01*
X137139969Y-78034510D01*
X137088960Y-78286400D01*
X137088960Y-78456182D01*
X136881321Y-78594921D01*
X135561231Y-79915011D01*
X123077247Y-79915011D01*
X123045067Y-79908610D01*
X115579570Y-79908610D01*
X115482174Y-79927984D01*
X116075076Y-79335081D01*
X116075079Y-79335079D01*
X116245245Y-79080406D01*
X116250143Y-79055781D01*
X116305001Y-78780000D01*
X116305000Y-78779995D01*
X116305000Y-78400000D01*
X116916655Y-78400000D01*
X117030729Y-78973489D01*
X117355585Y-79459670D01*
X117841766Y-79784526D01*
X118415255Y-79898600D01*
X118784745Y-79898600D01*
X119358234Y-79784526D01*
X119844415Y-79459670D01*
X120169271Y-78973489D01*
X120283345Y-78400000D01*
X120169271Y-77826511D01*
X119844415Y-77340330D01*
X119534931Y-77133539D01*
X119950732Y-76762036D01*
X120204709Y-76234791D01*
X120207358Y-76219026D01*
X120086217Y-75987000D01*
X118727000Y-75987000D01*
X118727000Y-76007000D01*
X118473000Y-76007000D01*
X118473000Y-75987000D01*
X117113783Y-75987000D01*
X116992642Y-76219026D01*
X116995291Y-76234791D01*
X117249268Y-76762036D01*
X117665069Y-77133539D01*
X117355585Y-77340330D01*
X117030729Y-77826511D01*
X116916655Y-78400000D01*
X116305000Y-78400000D01*
X116305000Y-73920000D01*
X116245245Y-73619594D01*
X116075079Y-73364921D01*
X116075076Y-73364919D01*
X115166558Y-72456400D01*
X116936560Y-72456400D01*
X116936560Y-74183600D01*
X116980838Y-74418917D01*
X117119910Y-74635041D01*
X117332110Y-74780031D01*
X117426927Y-74799232D01*
X117249268Y-74957964D01*
X116995291Y-75485209D01*
X116992642Y-75500974D01*
X117113783Y-75733000D01*
X118473000Y-75733000D01*
X118473000Y-75713000D01*
X118727000Y-75713000D01*
X118727000Y-75733000D01*
X120086217Y-75733000D01*
X120207358Y-75500974D01*
X120204709Y-75485209D01*
X119950732Y-74957964D01*
X119775155Y-74801093D01*
X119851317Y-74786762D01*
X120067441Y-74647690D01*
X120212431Y-74435490D01*
X120263440Y-74183600D01*
X120263440Y-72456400D01*
X120219162Y-72221083D01*
X120080090Y-72004959D01*
X119867890Y-71859969D01*
X119616000Y-71808960D01*
X117584000Y-71808960D01*
X117348683Y-71853238D01*
X117132559Y-71992310D01*
X116987569Y-72204510D01*
X116936560Y-72456400D01*
X115166558Y-72456400D01*
X111845000Y-69134842D01*
X111845000Y-68790617D01*
X111956657Y-68744481D01*
X112054337Y-68646971D01*
X112185910Y-68851441D01*
X112398110Y-68996431D01*
X112650000Y-69047440D01*
X114550000Y-69047440D01*
X114785317Y-69003162D01*
X115001441Y-68864090D01*
X115146431Y-68651890D01*
X115197440Y-68400000D01*
X115197440Y-66400000D01*
X115153162Y-66164683D01*
X115014090Y-65948559D01*
X114801890Y-65803569D01*
X114550000Y-65752560D01*
X114355000Y-65752560D01*
X114355000Y-64485167D01*
X116064838Y-64485167D01*
X116206883Y-64828943D01*
X116469673Y-65092192D01*
X116813201Y-65234838D01*
X117185167Y-65235162D01*
X117306569Y-65185000D01*
X117874995Y-65185000D01*
X117875000Y-65185001D01*
X118161004Y-65128110D01*
X118213675Y-65117633D01*
X118500790Y-64925790D01*
X118795790Y-64630790D01*
X118892001Y-64486799D01*
X118987633Y-64343675D01*
X119013025Y-64216022D01*
X119029782Y-64131783D01*
X119155317Y-64108162D01*
X119371441Y-63969090D01*
X119419134Y-63899289D01*
X119455910Y-63956441D01*
X119668110Y-64101431D01*
X119885000Y-64145352D01*
X119885000Y-65752560D01*
X119650000Y-65752560D01*
X119414683Y-65796838D01*
X119198559Y-65935910D01*
X119053569Y-66148110D01*
X119052945Y-66151192D01*
X118959003Y-66057086D01*
X118376659Y-65815276D01*
X117746107Y-65814725D01*
X117163343Y-66055519D01*
X116717086Y-66500997D01*
X116475276Y-67083341D01*
X116474725Y-67713893D01*
X116715519Y-68296657D01*
X117160997Y-68742914D01*
X117743341Y-68984724D01*
X118373893Y-68985275D01*
X118956657Y-68744481D01*
X119054337Y-68646971D01*
X119185910Y-68851441D01*
X119398110Y-68996431D01*
X119650000Y-69047440D01*
X121550000Y-69047440D01*
X121785317Y-69003162D01*
X122001441Y-68864090D01*
X122146431Y-68651890D01*
X122197440Y-68400000D01*
X122197440Y-66400000D01*
X122153162Y-66164683D01*
X122014090Y-65948559D01*
X121801890Y-65803569D01*
X121550000Y-65752560D01*
X121455000Y-65752560D01*
X121455000Y-64485167D01*
X123264838Y-64485167D01*
X123406883Y-64828943D01*
X123669673Y-65092192D01*
X124013201Y-65234838D01*
X124385167Y-65235162D01*
X124728943Y-65093117D01*
X124992192Y-64830327D01*
X125042566Y-64709014D01*
X125599139Y-64152440D01*
X125820000Y-64152440D01*
X126055317Y-64108162D01*
X126271441Y-63969090D01*
X126319134Y-63899289D01*
X126355910Y-63956441D01*
X126568110Y-64101431D01*
X126785000Y-64145352D01*
X126785000Y-65752560D01*
X126650000Y-65752560D01*
X126414683Y-65796838D01*
X126198559Y-65935910D01*
X126053569Y-66148110D01*
X126052945Y-66151192D01*
X125959003Y-66057086D01*
X125376659Y-65815276D01*
X124746107Y-65814725D01*
X124163343Y-66055519D01*
X123717086Y-66500997D01*
X123475276Y-67083341D01*
X123474725Y-67713893D01*
X123715519Y-68296657D01*
X124160997Y-68742914D01*
X124743341Y-68984724D01*
X125373893Y-68985275D01*
X125956657Y-68744481D01*
X126054337Y-68646971D01*
X126185910Y-68851441D01*
X126398110Y-68996431D01*
X126650000Y-69047440D01*
X128550000Y-69047440D01*
X128785317Y-69003162D01*
X129001441Y-68864090D01*
X129146431Y-68651890D01*
X129197440Y-68400000D01*
X129197440Y-66400000D01*
X129153162Y-66164683D01*
X129014090Y-65948559D01*
X128801890Y-65803569D01*
X128550000Y-65752560D01*
X128355000Y-65752560D01*
X128355000Y-64145854D01*
X128555317Y-64108162D01*
X128771441Y-63969090D01*
X128916431Y-63756890D01*
X128967440Y-63505000D01*
X128967440Y-62255000D01*
X128923162Y-62019683D01*
X128784090Y-61803559D01*
X128571890Y-61658569D01*
X128320000Y-61607560D01*
X126820000Y-61607560D01*
X126584683Y-61651838D01*
X126368559Y-61790910D01*
X126320866Y-61860711D01*
X126284090Y-61803559D01*
X126071890Y-61658569D01*
X125820000Y-61607560D01*
X124320000Y-61607560D01*
X124084683Y-61651838D01*
X123868559Y-61790910D01*
X123723569Y-62003110D01*
X123672560Y-62255000D01*
X123672560Y-63505000D01*
X123672780Y-63506171D01*
X123671057Y-63506883D01*
X123407808Y-63769673D01*
X123265162Y-64113201D01*
X123264838Y-64485167D01*
X121455000Y-64485167D01*
X121455000Y-64145854D01*
X121655317Y-64108162D01*
X121871441Y-63969090D01*
X122016431Y-63756890D01*
X122067440Y-63505000D01*
X122067440Y-62255000D01*
X122023162Y-62019683D01*
X121884090Y-61803559D01*
X121671890Y-61658569D01*
X121420000Y-61607560D01*
X119920000Y-61607560D01*
X119684683Y-61651838D01*
X119468559Y-61790910D01*
X119420866Y-61860711D01*
X119384090Y-61803559D01*
X119171890Y-61658569D01*
X118920000Y-61607560D01*
X117420000Y-61607560D01*
X117184683Y-61651838D01*
X116968559Y-61790910D01*
X116823569Y-62003110D01*
X116772560Y-62255000D01*
X116772560Y-63382305D01*
X116471057Y-63506883D01*
X116207808Y-63769673D01*
X116065162Y-64113201D01*
X116064838Y-64485167D01*
X114355000Y-64485167D01*
X114355000Y-64145854D01*
X114555317Y-64108162D01*
X114771441Y-63969090D01*
X114916431Y-63756890D01*
X114967440Y-63505000D01*
X114967440Y-62255000D01*
X114923162Y-62019683D01*
X114784090Y-61803559D01*
X114571890Y-61658569D01*
X114320000Y-61607560D01*
X112820000Y-61607560D01*
X112584683Y-61651838D01*
X112368559Y-61790910D01*
X112320866Y-61860711D01*
X112284090Y-61803559D01*
X112071890Y-61658569D01*
X111820000Y-61607560D01*
X110320000Y-61607560D01*
X110084683Y-61651838D01*
X109868559Y-61790910D01*
X109723569Y-62003110D01*
X109672560Y-62255000D01*
X109672560Y-63464888D01*
X109614833Y-63464838D01*
X109271057Y-63606883D01*
X109007808Y-63869673D01*
X108865162Y-64213201D01*
X108864838Y-64585167D01*
X108310000Y-64585167D01*
X108310000Y-63469931D01*
X108497167Y-62528977D01*
X108990561Y-61790561D01*
X109728977Y-61297167D01*
X110669931Y-61110000D01*
X182530069Y-61110000D01*
X183471023Y-61297167D01*
X183471023Y-61297167D01*
G37*
X183471023Y-61297167D02*
X184209439Y-61790561D01*
X184702833Y-62528977D01*
X184890000Y-63469931D01*
X184890000Y-117330069D01*
X184702833Y-118271023D01*
X184209439Y-119009439D01*
X183471023Y-119502833D01*
X182530069Y-119690000D01*
X110669931Y-119690000D01*
X109728977Y-119502833D01*
X108990561Y-119009439D01*
X108497167Y-118271023D01*
X108310000Y-117330069D01*
X108310000Y-115000000D01*
X112952560Y-115000000D01*
X112952560Y-119000000D01*
X112996838Y-119235317D01*
X113135910Y-119451441D01*
X113348110Y-119596431D01*
X113600000Y-119647440D01*
X118600000Y-119647440D01*
X118835317Y-119603162D01*
X119051441Y-119464090D01*
X119196431Y-119251890D01*
X119247440Y-119000000D01*
X119247440Y-115000000D01*
X119235058Y-114934197D01*
X119235543Y-114379146D01*
X118759273Y-113226485D01*
X117878153Y-112343826D01*
X116726326Y-111865546D01*
X115479146Y-111864457D01*
X114326485Y-112340727D01*
X113443826Y-113221847D01*
X112965546Y-114373674D01*
X112965053Y-114938308D01*
X112952560Y-115000000D01*
X108310000Y-115000000D01*
X108310000Y-105400000D01*
X108890000Y-105400000D01*
X109096286Y-106437072D01*
X109683741Y-107316259D01*
X110562928Y-107903714D01*
X111600000Y-108110000D01*
X112637072Y-107903714D01*
X113271203Y-107480000D01*
X116916655Y-107480000D01*
X117030729Y-108053489D01*
X117355585Y-108539670D01*
X117841766Y-108864526D01*
X118415255Y-108978600D01*
X118784745Y-108978600D01*
X119358234Y-108864526D01*
X119844415Y-108539670D01*
X119961126Y-108365000D01*
X120519995Y-108365000D01*
X120520000Y-108365001D01*
X120802484Y-108308810D01*
X120858675Y-108297633D01*
X121145790Y-108105790D01*
X123925787Y-105325792D01*
X123925790Y-105325790D01*
X124117633Y-105038675D01*
X124162523Y-104813000D01*
X124185001Y-104700000D01*
X124185000Y-104699995D01*
X124185000Y-103806822D01*
X124234838Y-103686799D01*
X124235162Y-103314833D01*
X124093117Y-102971057D01*
X123830327Y-102707808D01*
X123486799Y-102565162D01*
X123114833Y-102564838D01*
X122771057Y-102706883D01*
X122507808Y-102969673D01*
X122365162Y-103313201D01*
X122364838Y-103685167D01*
X122415000Y-103806569D01*
X122415000Y-104333421D01*
X120153420Y-106595000D01*
X119961126Y-106595000D01*
X119844415Y-106420330D01*
X119534931Y-106213539D01*
X119950732Y-105842036D01*
X120204709Y-105314791D01*
X120207358Y-105299026D01*
X120086217Y-105067000D01*
X118727000Y-105067000D01*
X118727000Y-105087000D01*
X118473000Y-105087000D01*
X118473000Y-105067000D01*
X117113783Y-105067000D01*
X116992642Y-105299026D01*
X116995291Y-105314791D01*
X117249268Y-105842036D01*
X117665069Y-106213539D01*
X117355585Y-106420330D01*
X117030729Y-106906511D01*
X116916655Y-107480000D01*
X113271203Y-107480000D01*
X113516259Y-107316259D01*
X114103714Y-106437072D01*
X114310000Y-105400000D01*
X114103714Y-104362928D01*
X113516259Y-103483741D01*
X112637072Y-102896286D01*
X111600000Y-102690000D01*
X110562928Y-102896286D01*
X109683741Y-103483741D01*
X109096286Y-104362928D01*
X108890000Y-105400000D01*
X108310000Y-105400000D01*
X108310000Y-77400000D01*
X108890000Y-77400000D01*
X109096286Y-78437072D01*
X109683741Y-79316259D01*
X110562928Y-79903714D01*
X111600000Y-80110000D01*
X112637072Y-79903714D01*
X113516259Y-79316259D01*
X114103714Y-78437072D01*
X114310000Y-77400000D01*
X114103714Y-76362928D01*
X113516259Y-75483741D01*
X112637072Y-74896286D01*
X111600000Y-74690000D01*
X110562928Y-74896286D01*
X109683741Y-75483741D01*
X109096286Y-76362928D01*
X108890000Y-77400000D01*
X108310000Y-77400000D01*
X108310000Y-64585167D01*
X108864838Y-64585167D01*
X109006883Y-64928943D01*
X109269673Y-65192192D01*
X109613201Y-65334838D01*
X109985167Y-65335162D01*
X110106569Y-65285000D01*
X110674995Y-65285000D01*
X110675000Y-65285001D01*
X110957484Y-65228810D01*
X111013675Y-65217633D01*
X111300790Y-65025790D01*
X111695787Y-64630792D01*
X111695790Y-64630790D01*
X111887633Y-64343675D01*
X111929781Y-64131783D01*
X112055317Y-64108162D01*
X112271441Y-63969090D01*
X112319134Y-63899289D01*
X112355910Y-63956441D01*
X112568110Y-64101431D01*
X112785000Y-64145352D01*
X112785000Y-65752560D01*
X112650000Y-65752560D01*
X112414683Y-65796838D01*
X112198559Y-65935910D01*
X112053569Y-66148110D01*
X112052945Y-66151192D01*
X111959003Y-66057086D01*
X111376659Y-65815276D01*
X110746107Y-65814725D01*
X110163343Y-66055519D01*
X109717086Y-66500997D01*
X109475276Y-67083341D01*
X109474725Y-67713893D01*
X109715519Y-68296657D01*
X110160997Y-68742914D01*
X110275000Y-68790252D01*
X110275000Y-69460000D01*
X110334755Y-69760407D01*
X110504921Y-70015079D01*
X114735000Y-74245157D01*
X114735000Y-78454843D01*
X111164921Y-82024921D01*
X110994755Y-82279593D01*
X110994755Y-82279594D01*
X110935000Y-82580000D01*
X110935000Y-86920000D01*
X110994755Y-87220407D01*
X111164921Y-87475079D01*
X120135500Y-96445658D01*
X120135500Y-97055339D01*
X119932672Y-97190865D01*
X119650500Y-97613164D01*
X119368328Y-97190865D01*
X118915109Y-96888033D01*
X118380500Y-96781693D01*
X117845891Y-96888033D01*
X117392672Y-97190865D01*
X117110500Y-97613164D01*
X116828328Y-97190865D01*
X116375109Y-96888033D01*
X115840500Y-96781693D01*
X115305891Y-96888033D01*
X114852672Y-97190865D01*
X114570500Y-97613164D01*
X114288328Y-97190865D01*
X113835109Y-96888033D01*
X113300500Y-96781693D01*
X112765891Y-96888033D01*
X112312672Y-97190865D01*
X112009840Y-97644084D01*
X111903500Y-98178693D01*
X111903500Y-98922307D01*
X112009840Y-99456916D01*
X112312672Y-99910135D01*
X112765891Y-100212967D01*
X113300500Y-100319307D01*
X113835109Y-100212967D01*
X114288328Y-99910135D01*
X114570500Y-99487836D01*
X114852672Y-99910135D01*
X115305891Y-100212967D01*
X115840500Y-100319307D01*
X116375109Y-100212967D01*
X116828328Y-99910135D01*
X117110500Y-99487836D01*
X117392672Y-99910135D01*
X117845891Y-100212967D01*
X118380500Y-100319307D01*
X118915109Y-100212967D01*
X119368328Y-99910135D01*
X119650500Y-99487836D01*
X119932672Y-99910135D01*
X120385891Y-100212967D01*
X120892170Y-100313672D01*
X120096062Y-101109780D01*
X120080090Y-101084959D01*
X119867890Y-100939969D01*
X119616000Y-100888960D01*
X117584000Y-100888960D01*
X117348683Y-100933238D01*
X117132559Y-101072310D01*
X116987569Y-101284510D01*
X116936560Y-101536400D01*
X116936560Y-103263600D01*
X116980838Y-103498917D01*
X117119910Y-103715041D01*
X117332110Y-103860031D01*
X117426927Y-103879232D01*
X117249268Y-104037964D01*
X116995291Y-104565209D01*
X116992642Y-104580974D01*
X117113783Y-104813000D01*
X118473000Y-104813000D01*
X118473000Y-104793000D01*
X118727000Y-104793000D01*
X118727000Y-104813000D01*
X120086217Y-104813000D01*
X120207358Y-104580974D01*
X120204709Y-104565209D01*
X119950732Y-104037964D01*
X119775155Y-103881093D01*
X119851317Y-103866762D01*
X120067441Y-103727690D01*
X120212431Y-103515490D01*
X120263440Y-103263600D01*
X120263440Y-103093819D01*
X120471079Y-102955079D01*
X123166605Y-100259553D01*
X123460500Y-100318012D01*
X123995109Y-100211672D01*
X124448328Y-99908840D01*
X124730500Y-99486541D01*
X125012672Y-99908840D01*
X125215500Y-100044366D01*
X125215500Y-107274342D01*
X122964921Y-109524921D01*
X122794755Y-109779593D01*
X122794755Y-109779594D01*
X122735000Y-110080000D01*
X122735000Y-111965336D01*
X121826485Y-112340727D01*
X120943826Y-113221847D01*
X120465546Y-114373674D01*
X120465053Y-114938308D01*
X120452560Y-115000000D01*
X120452560Y-119000000D01*
X120496838Y-119235317D01*
X120635910Y-119451441D01*
X120848110Y-119596431D01*
X121100000Y-119647440D01*
X126100000Y-119647440D01*
X126335317Y-119603162D01*
X126551441Y-119464090D01*
X126696431Y-119251890D01*
X126747440Y-119000000D01*
X126747440Y-115000000D01*
X126735058Y-114934197D01*
X126735543Y-114379146D01*
X126259273Y-113226485D01*
X125378153Y-112343826D01*
X124305000Y-111898214D01*
X124305000Y-110405158D01*
X126555579Y-108154579D01*
X126725745Y-107899906D01*
X126785500Y-107599500D01*
X126785500Y-100044366D01*
X126988328Y-99908840D01*
X127270500Y-99486541D01*
X127552672Y-99908840D01*
X127755500Y-100044366D01*
X127755500Y-108904967D01*
X127815255Y-109205374D01*
X127985421Y-109460046D01*
X130315000Y-111789625D01*
X130315000Y-111932281D01*
X129326485Y-112340727D01*
X128443826Y-113221847D01*
X127965546Y-114373674D01*
X127965053Y-114938308D01*
X127952560Y-115000000D01*
X127952560Y-119000000D01*
X127996838Y-119235317D01*
X128135910Y-119451441D01*
X128348110Y-119596431D01*
X128600000Y-119647440D01*
X133600000Y-119647440D01*
X133835317Y-119603162D01*
X134051441Y-119464090D01*
X134196431Y-119251890D01*
X134247440Y-119000000D01*
X134247440Y-115000000D01*
X134235058Y-114934197D01*
X134235543Y-114379146D01*
X133759273Y-113226485D01*
X132878153Y-112343826D01*
X131885000Y-111931433D01*
X131885000Y-111464472D01*
X131885001Y-111464467D01*
X131825245Y-111164061D01*
X131655079Y-110909388D01*
X129325500Y-108579809D01*
X129325500Y-103777080D01*
X137578445Y-112030024D01*
X136826485Y-112340727D01*
X135943826Y-113221847D01*
X135465546Y-114373674D01*
X135465053Y-114938308D01*
X135452560Y-115000000D01*
X135452560Y-119000000D01*
X135496838Y-119235317D01*
X135635910Y-119451441D01*
X135848110Y-119596431D01*
X136100000Y-119647440D01*
X141100000Y-119647440D01*
X141335317Y-119603162D01*
X141551441Y-119464090D01*
X141696431Y-119251890D01*
X141747440Y-119000000D01*
X141747440Y-115000000D01*
X141735058Y-114934197D01*
X141735543Y-114379146D01*
X141259273Y-113226485D01*
X140378153Y-112343826D01*
X139385000Y-111931433D01*
X139385000Y-111700005D01*
X139385001Y-111700000D01*
X139317633Y-111361326D01*
X139317633Y-111361325D01*
X139125790Y-111074210D01*
X139125787Y-111074208D01*
X130685000Y-102633420D01*
X130685000Y-100239342D01*
X131080500Y-100318012D01*
X131270134Y-100280292D01*
X143828093Y-112838251D01*
X143443826Y-113221847D01*
X142965546Y-114373674D01*
X142965053Y-114938308D01*
X142952560Y-115000000D01*
X142952560Y-119000000D01*
X142996838Y-119235317D01*
X143135910Y-119451441D01*
X143348110Y-119596431D01*
X143600000Y-119647440D01*
X148600000Y-119647440D01*
X148835317Y-119603162D01*
X149051441Y-119464090D01*
X149196431Y-119251890D01*
X149247440Y-119000000D01*
X149247440Y-115000000D01*
X149235058Y-114934197D01*
X149235543Y-114379146D01*
X148759273Y-113226485D01*
X147878153Y-112343826D01*
X147688319Y-112265000D01*
X148554842Y-112265000D01*
X150523631Y-114233789D01*
X150465546Y-114373674D01*
X150465053Y-114938308D01*
X150452560Y-115000000D01*
X150452560Y-119000000D01*
X150496838Y-119235317D01*
X150635910Y-119451441D01*
X150848110Y-119596431D01*
X151100000Y-119647440D01*
X156100000Y-119647440D01*
X156335317Y-119603162D01*
X156551441Y-119464090D01*
X156696431Y-119251890D01*
X156747440Y-119000000D01*
X156747440Y-115000000D01*
X156735058Y-114934197D01*
X156735543Y-114379146D01*
X156735025Y-114377892D01*
X157964706Y-114377892D01*
X157965000Y-115000000D01*
X157965000Y-116714250D01*
X158123750Y-116873000D01*
X158589116Y-116873000D01*
X158864118Y-117056274D01*
X158793392Y-117127000D01*
X158123750Y-117127000D01*
X157965000Y-117285750D01*
X157965000Y-119126310D01*
X158061673Y-119359699D01*
X158240302Y-119538327D01*
X158473691Y-119635000D01*
X160814250Y-119635000D01*
X160973000Y-119476250D01*
X160973000Y-118135060D01*
X161227000Y-118134940D01*
X161227000Y-119476250D01*
X161385750Y-119635000D01*
X163726309Y-119635000D01*
X163959698Y-119538327D01*
X164138327Y-119359699D01*
X164235000Y-119126310D01*
X164235000Y-117285750D01*
X164076250Y-117127000D01*
X163406608Y-117127000D01*
X163335882Y-117056274D01*
X163610884Y-116873000D01*
X164076250Y-116873000D01*
X164235000Y-116714250D01*
X164235000Y-115622819D01*
X164235294Y-115622108D01*
X164235000Y-114999577D01*
X164235000Y-114873690D01*
X164234940Y-114873546D01*
X164234705Y-114374928D01*
X163758564Y-113225421D01*
X163335880Y-112943725D01*
X161914605Y-114365000D01*
X161555395Y-114365000D01*
X163156275Y-112764120D01*
X162874579Y-112341436D01*
X161722108Y-111864706D01*
X160474928Y-111865295D01*
X159325421Y-112341436D01*
X159043725Y-112764120D01*
X160644605Y-114365000D01*
X160285395Y-114365000D01*
X158864120Y-112943725D01*
X158441436Y-113225421D01*
X157964706Y-114377892D01*
X156735025Y-114377892D01*
X156259273Y-113226485D01*
X155378153Y-112343826D01*
X154226326Y-111865546D01*
X152979146Y-111864457D01*
X151826485Y-112340727D01*
X151338259Y-112828101D01*
X149435079Y-110924921D01*
X149375333Y-110885000D01*
X165710375Y-110885000D01*
X167066804Y-112241429D01*
X166826485Y-112340727D01*
X165943826Y-113221847D01*
X165465546Y-114373674D01*
X165465053Y-114938308D01*
X165452560Y-115000000D01*
X165452560Y-119000000D01*
X165496838Y-119235317D01*
X165635910Y-119451441D01*
X165848110Y-119596431D01*
X166100000Y-119647440D01*
X171100000Y-119647440D01*
X171335317Y-119603162D01*
X171551441Y-119464090D01*
X171696431Y-119251890D01*
X171747440Y-119000000D01*
X171747440Y-115000000D01*
X171735058Y-114934197D01*
X171735543Y-114379146D01*
X171259273Y-113226485D01*
X170378153Y-112343826D01*
X169226326Y-111865546D01*
X168910962Y-111865271D01*
X166590612Y-109544921D01*
X166500934Y-109485000D01*
X172214842Y-109485000D01*
X174853012Y-112123170D01*
X174326485Y-112340727D01*
X173443826Y-113221847D01*
X172965546Y-114373674D01*
X172965053Y-114938308D01*
X172952560Y-115000000D01*
X172952560Y-119000000D01*
X172996838Y-119235317D01*
X173135910Y-119451441D01*
X173348110Y-119596431D01*
X173600000Y-119647440D01*
X178600000Y-119647440D01*
X178835317Y-119603162D01*
X179051441Y-119464090D01*
X179196431Y-119251890D01*
X179247440Y-119000000D01*
X179247440Y-116700000D01*
X179390000Y-116700000D01*
X179596286Y-117737072D01*
X180183741Y-118616259D01*
X181062928Y-119203714D01*
X182100000Y-119410000D01*
X183137072Y-119203714D01*
X184016259Y-118616259D01*
X184603714Y-117737072D01*
X184810000Y-116700000D01*
X184603714Y-115662928D01*
X184016259Y-114783741D01*
X183137072Y-114196286D01*
X182100000Y-113990000D01*
X181062928Y-114196286D01*
X180183741Y-114783741D01*
X179596286Y-115662928D01*
X179390000Y-116700000D01*
X179247440Y-116700000D01*
X179247440Y-115000000D01*
X179235058Y-114934197D01*
X179235543Y-114379146D01*
X178759273Y-113226485D01*
X177878153Y-112343826D01*
X176726438Y-111865593D01*
X176725245Y-111859594D01*
X176555079Y-111604921D01*
X173095079Y-108144921D01*
X172840407Y-107974755D01*
X172540000Y-107915000D01*
X156903390Y-107915000D01*
X157358234Y-107824526D01*
X157844415Y-107499670D01*
X158169271Y-107013489D01*
X158283345Y-106440000D01*
X158169271Y-105866511D01*
X157844415Y-105380330D01*
X157534931Y-105173539D01*
X157950732Y-104802036D01*
X158204709Y-104274791D01*
X158207358Y-104259026D01*
X158086217Y-104027000D01*
X156727000Y-104027000D01*
X156727000Y-104047000D01*
X156473000Y-104047000D01*
X156473000Y-104027000D01*
X155113783Y-104027000D01*
X154992642Y-104259026D01*
X154995291Y-104274791D01*
X155249268Y-104802036D01*
X155665069Y-105173539D01*
X155355585Y-105380330D01*
X155030729Y-105866511D01*
X154916655Y-106440000D01*
X155030729Y-107013489D01*
X155355585Y-107499670D01*
X155841766Y-107824526D01*
X156296610Y-107915000D01*
X148525158Y-107915000D01*
X140839812Y-100229654D01*
X140897430Y-100241270D01*
X141113500Y-100118770D01*
X141113500Y-98677500D01*
X141093500Y-98677500D01*
X141093500Y-98423500D01*
X141113500Y-98423500D01*
X141113500Y-96982230D01*
X140897430Y-96859730D01*
X140823223Y-96874690D01*
X140342474Y-97136320D01*
X139998441Y-97562009D01*
X139979142Y-97627393D01*
X139688328Y-97192160D01*
X139235109Y-96889328D01*
X138700500Y-96782988D01*
X138165891Y-96889328D01*
X137712672Y-97192160D01*
X137430500Y-97614459D01*
X137148328Y-97192160D01*
X136695109Y-96889328D01*
X136160500Y-96782988D01*
X135625891Y-96889328D01*
X135172672Y-97192160D01*
X134890500Y-97614459D01*
X134608328Y-97192160D01*
X134155109Y-96889328D01*
X133620500Y-96782988D01*
X133085891Y-96889328D01*
X132632672Y-97192160D01*
X132350500Y-97614459D01*
X132068328Y-97192160D01*
X131615109Y-96889328D01*
X131571021Y-96880558D01*
X134066579Y-94385000D01*
X135793178Y-94385000D01*
X135913201Y-94434838D01*
X136285167Y-94435162D01*
X136628943Y-94293117D01*
X136892192Y-94030327D01*
X137034838Y-93686799D01*
X137035162Y-93314833D01*
X136893117Y-92971057D01*
X136630327Y-92707808D01*
X136286799Y-92565162D01*
X135914833Y-92564838D01*
X135793431Y-92615000D01*
X133700005Y-92615000D01*
X133700000Y-92614999D01*
X133417516Y-92671190D01*
X133361325Y-92682367D01*
X133074210Y-92874210D01*
X133074208Y-92874213D01*
X129174210Y-96774210D01*
X129090444Y-96899575D01*
X129075109Y-96889328D01*
X128540500Y-96782988D01*
X128005891Y-96889328D01*
X127552672Y-97192160D01*
X127270500Y-97614459D01*
X126988328Y-97192160D01*
X126535109Y-96889328D01*
X126000500Y-96782988D01*
X125465891Y-96889328D01*
X125012672Y-97192160D01*
X124730500Y-97614459D01*
X124448328Y-97192160D01*
X123995109Y-96889328D01*
X123460500Y-96782988D01*
X122925891Y-96889328D01*
X122472672Y-97192160D01*
X122190933Y-97613812D01*
X121908328Y-97190865D01*
X121705500Y-97055339D01*
X121705500Y-96120500D01*
X121645745Y-95820094D01*
X121475579Y-95565421D01*
X112505000Y-86594842D01*
X112505000Y-84798645D01*
X112765891Y-84972967D01*
X113300500Y-85079307D01*
X113835109Y-84972967D01*
X114288328Y-84670135D01*
X114570500Y-84247836D01*
X114852672Y-84670135D01*
X115305891Y-84972967D01*
X115840500Y-85079307D01*
X116375109Y-84972967D01*
X116828328Y-84670135D01*
X117110500Y-84247836D01*
X117392672Y-84670135D01*
X117845891Y-84972967D01*
X118380500Y-85079307D01*
X118648100Y-85026078D01*
X125277101Y-91655079D01*
X125531774Y-91825245D01*
X125832180Y-91885000D01*
X143574842Y-91885000D01*
X148537148Y-96847306D01*
X148325891Y-96889328D01*
X147872672Y-97192160D01*
X147590500Y-97614459D01*
X147308328Y-97192160D01*
X146855109Y-96889328D01*
X146320500Y-96782988D01*
X145785891Y-96889328D01*
X145332672Y-97192160D01*
X145050500Y-97614459D01*
X144768328Y-97192160D01*
X144315109Y-96889328D01*
X143780500Y-96782988D01*
X143245891Y-96889328D01*
X142792672Y-97192160D01*
X142501858Y-97627393D01*
X142482559Y-97562009D01*
X142138526Y-97136320D01*
X141657777Y-96874690D01*
X141583570Y-96859730D01*
X141367500Y-96982230D01*
X141367500Y-98423500D01*
X141387500Y-98423500D01*
X141387500Y-98677500D01*
X141367500Y-98677500D01*
X141367500Y-100118770D01*
X141583570Y-100241270D01*
X141657777Y-100226310D01*
X142138526Y-99964680D01*
X142482559Y-99538991D01*
X142501858Y-99473607D01*
X142792672Y-99908840D01*
X143245891Y-100211672D01*
X143780500Y-100318012D01*
X144315109Y-100211672D01*
X144768328Y-99908840D01*
X145050500Y-99486541D01*
X145332672Y-99908840D01*
X145785891Y-100211672D01*
X146320500Y-100318012D01*
X146855109Y-100211672D01*
X147308328Y-99908840D01*
X147590500Y-99486541D01*
X147872672Y-99908840D01*
X148325891Y-100211672D01*
X148860500Y-100318012D01*
X149395109Y-100211672D01*
X149848328Y-99908840D01*
X150151160Y-99455621D01*
X150257500Y-98921012D01*
X150257500Y-98567658D01*
X153604921Y-101915079D01*
X153859593Y-102085245D01*
X154160000Y-102145000D01*
X154936560Y-102145000D01*
X154936560Y-102223600D01*
X154980838Y-102458917D01*
X155119910Y-102675041D01*
X155332110Y-102820031D01*
X155426927Y-102839232D01*
X155249268Y-102997964D01*
X154995291Y-103525209D01*
X154992642Y-103540974D01*
X155113783Y-103773000D01*
X156473000Y-103773000D01*
X156473000Y-103753000D01*
X156727000Y-103753000D01*
X156727000Y-103773000D01*
X158086217Y-103773000D01*
X158207358Y-103540974D01*
X158204709Y-103525209D01*
X157950732Y-102997964D01*
X157775155Y-102841093D01*
X157851317Y-102826762D01*
X158067441Y-102687690D01*
X158212431Y-102475490D01*
X158263440Y-102223600D01*
X158263440Y-100496400D01*
X158242479Y-100385000D01*
X166870000Y-100385000D01*
X167170407Y-100325245D01*
X167425079Y-100155079D01*
X169816066Y-97764092D01*
X169985302Y-97933327D01*
X170218691Y-98030000D01*
X171034250Y-98030000D01*
X171193000Y-97871250D01*
X171193000Y-97222000D01*
X171447000Y-97222000D01*
X171447000Y-97871250D01*
X171605750Y-98030000D01*
X172421309Y-98030000D01*
X172654698Y-97933327D01*
X172833327Y-97754699D01*
X172930000Y-97521310D01*
X172930000Y-97380750D01*
X172771250Y-97222000D01*
X171447000Y-97222000D01*
X171193000Y-97222000D01*
X171173000Y-97222000D01*
X171173000Y-96968000D01*
X171193000Y-96968000D01*
X171193000Y-96948000D01*
X171447000Y-96948000D01*
X171447000Y-96968000D01*
X172771250Y-96968000D01*
X172930000Y-96809250D01*
X172930000Y-96668690D01*
X172840194Y-96451878D01*
X172891431Y-96376890D01*
X172942440Y-96125000D01*
X172942440Y-95525000D01*
X172926446Y-95440000D01*
X173288420Y-95440000D01*
X174115000Y-96266579D01*
X174115000Y-100699995D01*
X174114999Y-100700000D01*
X174161394Y-100933238D01*
X174182367Y-101038675D01*
X174213293Y-101084959D01*
X174374210Y-101325790D01*
X178104708Y-105056287D01*
X178104710Y-105056290D01*
X178391825Y-105248133D01*
X178448016Y-105259310D01*
X178730500Y-105315501D01*
X178730505Y-105315500D01*
X178926102Y-105315500D01*
X179001043Y-105496872D01*
X179530839Y-106027593D01*
X180223405Y-106315172D01*
X180973305Y-106315826D01*
X181666372Y-106029457D01*
X182197093Y-105499661D01*
X182484672Y-104807095D01*
X182485326Y-104057195D01*
X182198957Y-103364128D01*
X181669161Y-102833407D01*
X180976595Y-102545828D01*
X180226695Y-102545174D01*
X179533628Y-102831543D01*
X179002907Y-103361339D01*
X178976504Y-103424925D01*
X175885000Y-100333420D01*
X175885000Y-95900005D01*
X175885001Y-95900000D01*
X175817633Y-95561325D01*
X175625790Y-95274210D01*
X175625787Y-95274208D01*
X174280790Y-93929210D01*
X174145294Y-93838675D01*
X173993675Y-93737367D01*
X173937484Y-93726190D01*
X173655000Y-93669999D01*
X173654995Y-93670000D01*
X172925227Y-93670000D01*
X172942440Y-93585000D01*
X172942440Y-92985000D01*
X172898162Y-92749683D01*
X172834322Y-92650472D01*
X172891431Y-92566890D01*
X172942440Y-92315000D01*
X172942440Y-91715000D01*
X172898162Y-91479683D01*
X172834322Y-91380472D01*
X172891431Y-91296890D01*
X172942440Y-91045000D01*
X172942440Y-90445000D01*
X172898162Y-90209683D01*
X172834322Y-90110472D01*
X172891431Y-90026890D01*
X172942440Y-89775000D01*
X172942440Y-89175000D01*
X172926446Y-89090000D01*
X173158420Y-89090000D01*
X175115000Y-91046579D01*
X175115000Y-93799995D01*
X175114999Y-93800000D01*
X175171190Y-94082484D01*
X175182367Y-94138675D01*
X175301942Y-94317633D01*
X175374210Y-94425790D01*
X179156467Y-98208046D01*
X179002907Y-98361339D01*
X178715328Y-99053905D01*
X178714674Y-99803805D01*
X179001043Y-100496872D01*
X179530839Y-101027593D01*
X180223405Y-101315172D01*
X180973305Y-101315826D01*
X181666372Y-101029457D01*
X182197093Y-100499661D01*
X182484672Y-99807095D01*
X182485326Y-99057195D01*
X182198957Y-98364128D01*
X181669161Y-97833407D01*
X181012186Y-97560607D01*
X177255385Y-93803805D01*
X178714674Y-93803805D01*
X179001043Y-94496872D01*
X179530839Y-95027593D01*
X180223405Y-95315172D01*
X180973305Y-95315826D01*
X181666372Y-95029457D01*
X182197093Y-94499661D01*
X182484672Y-93807095D01*
X182485326Y-93057195D01*
X182198957Y-92364128D01*
X181669161Y-91833407D01*
X180976595Y-91545828D01*
X180226695Y-91545174D01*
X179533628Y-91831543D01*
X179002907Y-92361339D01*
X178715328Y-93053905D01*
X178714674Y-93803805D01*
X177255385Y-93803805D01*
X176885000Y-93433420D01*
X176885000Y-90680005D01*
X176885001Y-90680000D01*
X176817634Y-90341326D01*
X176676649Y-90130327D01*
X176625790Y-90054210D01*
X176625787Y-90054208D01*
X175375385Y-88803805D01*
X178714674Y-88803805D01*
X179001043Y-89496872D01*
X179530839Y-90027593D01*
X180223405Y-90315172D01*
X180973305Y-90315826D01*
X181666372Y-90029457D01*
X182197093Y-89499661D01*
X182484672Y-88807095D01*
X182485326Y-88057195D01*
X182198957Y-87364128D01*
X181669161Y-86833407D01*
X180976595Y-86545828D01*
X180226695Y-86545174D01*
X179533628Y-86831543D01*
X179002907Y-87361339D01*
X178715328Y-88053905D01*
X178714674Y-88803805D01*
X175375385Y-88803805D01*
X174150790Y-87579210D01*
X174017395Y-87490079D01*
X173863675Y-87387367D01*
X173801502Y-87375000D01*
X173525000Y-87319999D01*
X173524995Y-87320000D01*
X172925227Y-87320000D01*
X172942440Y-87235000D01*
X172942440Y-86635000D01*
X172898162Y-86399683D01*
X172839822Y-86309020D01*
X172930000Y-86091310D01*
X172930000Y-85950750D01*
X172771250Y-85792000D01*
X171447000Y-85792000D01*
X171447000Y-85812000D01*
X171193000Y-85812000D01*
X171193000Y-85792000D01*
X169868750Y-85792000D01*
X169710000Y-85950750D01*
X169710000Y-86091310D01*
X169799806Y-86308122D01*
X169748569Y-86383110D01*
X169697560Y-86635000D01*
X169697560Y-86772282D01*
X166564921Y-89904921D01*
X166394755Y-90159593D01*
X166343427Y-90417633D01*
X166335000Y-90460000D01*
X166335000Y-95654842D01*
X165704999Y-96284843D01*
X165704999Y-85238690D01*
X169710000Y-85238690D01*
X169710000Y-85379250D01*
X169868750Y-85538000D01*
X171193000Y-85538000D01*
X171193000Y-84888750D01*
X171447000Y-84888750D01*
X171447000Y-85538000D01*
X172771250Y-85538000D01*
X172930000Y-85379250D01*
X172930000Y-85238690D01*
X172833327Y-85005301D01*
X172654698Y-84826673D01*
X172421309Y-84730000D01*
X171605750Y-84730000D01*
X171447000Y-84888750D01*
X171193000Y-84888750D01*
X171034250Y-84730000D01*
X170218691Y-84730000D01*
X169985302Y-84826673D01*
X169806673Y-85005301D01*
X169710000Y-85238690D01*
X165704999Y-85238690D01*
X165704999Y-82803805D01*
X178714674Y-82803805D01*
X179001043Y-83496872D01*
X179530839Y-84027593D01*
X180223405Y-84315172D01*
X180973305Y-84315826D01*
X181666372Y-84029457D01*
X182197093Y-83499661D01*
X182484672Y-82807095D01*
X182485326Y-82057195D01*
X182198957Y-81364128D01*
X181669161Y-80833407D01*
X180976595Y-80545828D01*
X180226695Y-80545174D01*
X179533628Y-80831543D01*
X179002907Y-81361339D01*
X178715328Y-82053905D01*
X178714674Y-82803805D01*
X165704999Y-82803805D01*
X165704999Y-77803805D01*
X178714674Y-77803805D01*
X179001043Y-78496872D01*
X179530839Y-79027593D01*
X180223405Y-79315172D01*
X180973305Y-79315826D01*
X181666372Y-79029457D01*
X182197093Y-78499661D01*
X182484672Y-77807095D01*
X182485326Y-77057195D01*
X182198957Y-76364128D01*
X181669161Y-75833407D01*
X180976595Y-75545828D01*
X180226695Y-75545174D01*
X179533628Y-75831543D01*
X179002907Y-76361339D01*
X178715328Y-77053905D01*
X178714674Y-77803805D01*
X165704999Y-77803805D01*
X165704999Y-68067920D01*
X165782338Y-68255095D01*
X166241727Y-68715286D01*
X166283800Y-68732756D01*
X166283800Y-69118795D01*
X166283799Y-69118800D01*
X166314713Y-69274210D01*
X166351167Y-69457475D01*
X166372013Y-69488673D01*
X166543010Y-69744590D01*
X167752560Y-70954139D01*
X167752560Y-71725000D01*
X167796838Y-71960317D01*
X167935910Y-72176441D01*
X168148110Y-72321431D01*
X168400000Y-72372440D01*
X169900000Y-72372440D01*
X170135317Y-72328162D01*
X170351441Y-72189090D01*
X170397969Y-72120994D01*
X170540302Y-72263327D01*
X170773691Y-72360000D01*
X171364250Y-72360000D01*
X171523000Y-72201250D01*
X171523000Y-71227000D01*
X171777000Y-71227000D01*
X171777000Y-72201250D01*
X171935750Y-72360000D01*
X172526309Y-72360000D01*
X172759698Y-72263327D01*
X172938327Y-72084699D01*
X173035000Y-71851310D01*
X173035000Y-71385750D01*
X172876250Y-71227000D01*
X171777000Y-71227000D01*
X171523000Y-71227000D01*
X171503000Y-71227000D01*
X171503000Y-70973000D01*
X171523000Y-70973000D01*
X171523000Y-69998750D01*
X171777000Y-69998750D01*
X171777000Y-70973000D01*
X172876250Y-70973000D01*
X173035000Y-70814250D01*
X173035000Y-70348690D01*
X172938327Y-70115301D01*
X172759698Y-69936673D01*
X172526309Y-69840000D01*
X171935750Y-69840000D01*
X171777000Y-69998750D01*
X171523000Y-69998750D01*
X171364250Y-69840000D01*
X170773691Y-69840000D01*
X170540302Y-69936673D01*
X170399064Y-70077910D01*
X170364090Y-70023559D01*
X170151890Y-69878569D01*
X169900000Y-69827560D01*
X169129139Y-69827560D01*
X168053800Y-68752220D01*
X168053800Y-68733287D01*
X168093455Y-68716902D01*
X168553646Y-68257513D01*
X168612640Y-68115440D01*
X172227034Y-68115440D01*
X172284738Y-68255095D01*
X172744127Y-68715286D01*
X173344653Y-68964646D01*
X173994894Y-68965214D01*
X174595855Y-68716902D01*
X175056046Y-68257513D01*
X175305406Y-67656987D01*
X175305974Y-67006746D01*
X175057662Y-66405785D01*
X174598273Y-65945594D01*
X173997747Y-65696234D01*
X173347506Y-65695666D01*
X172746545Y-65943978D01*
X172286354Y-66403367D01*
X172227360Y-66545440D01*
X168612966Y-66545440D01*
X168555262Y-66405785D01*
X168095873Y-65945594D01*
X167495347Y-65696234D01*
X166845106Y-65695666D01*
X166244145Y-65943978D01*
X165783954Y-66403367D01*
X165570902Y-66916454D01*
X165445789Y-66729209D01*
X165445786Y-66729207D01*
X162492440Y-63775860D01*
X162492440Y-63153254D01*
X165534026Y-63153254D01*
X165782338Y-63754215D01*
X166241727Y-64214406D01*
X166842253Y-64463766D01*
X167492494Y-64464334D01*
X168093455Y-64216022D01*
X168553646Y-63756633D01*
X168571116Y-63714560D01*
X172268353Y-63714560D01*
X172284738Y-63754215D01*
X172744127Y-64214406D01*
X173344653Y-64463766D01*
X173994894Y-64464334D01*
X174595855Y-64216022D01*
X174812254Y-64000000D01*
X179390000Y-64000000D01*
X179596286Y-65037072D01*
X180183741Y-65916259D01*
X181062928Y-66503714D01*
X182100000Y-66710000D01*
X183137072Y-66503714D01*
X184016259Y-65916259D01*
X184603714Y-65037072D01*
X184810000Y-64000000D01*
X184603714Y-62962928D01*
X184016259Y-62083741D01*
X183137072Y-61496286D01*
X182100000Y-61290000D01*
X181062928Y-61496286D01*
X180183741Y-62083741D01*
X179596286Y-62962928D01*
X179390000Y-64000000D01*
X174812254Y-64000000D01*
X175056046Y-63756633D01*
X175305406Y-63156107D01*
X175305974Y-62505866D01*
X175057662Y-61904905D01*
X174598273Y-61444714D01*
X173997747Y-61195354D01*
X173347506Y-61194786D01*
X172746545Y-61443098D01*
X172286354Y-61902487D01*
X172268884Y-61944560D01*
X168571647Y-61944560D01*
X168555262Y-61904905D01*
X168095873Y-61444714D01*
X167495347Y-61195354D01*
X166845106Y-61194786D01*
X166244145Y-61443098D01*
X165783954Y-61902487D01*
X165534594Y-62503013D01*
X165534026Y-63153254D01*
X162492440Y-63153254D01*
X162492440Y-62880000D01*
X162448162Y-62644683D01*
X162309090Y-62428559D01*
X162096890Y-62283569D01*
X161845000Y-62232560D01*
X161074140Y-62232560D01*
X160579790Y-61738210D01*
X160292675Y-61546367D01*
X160236484Y-61535190D01*
X159954000Y-61478999D01*
X159953995Y-61479000D01*
X159179991Y-61479000D01*
X159132090Y-61404559D01*
X158919890Y-61259569D01*
X158668000Y-61208560D01*
X156636000Y-61208560D01*
X156400683Y-61252838D01*
X156184559Y-61391910D01*
X156039569Y-61604110D01*
X155988560Y-61856000D01*
X155988560Y-62872000D01*
X156032838Y-63107317D01*
X156171910Y-63323441D01*
X156384110Y-63468431D01*
X156572314Y-63506543D01*
X156400683Y-63538838D01*
X156184559Y-63677910D01*
X156125053Y-63765000D01*
X152927000Y-63765000D01*
X152927000Y-62100000D01*
X152916994Y-62050590D01*
X152888553Y-62008965D01*
X152846159Y-61981685D01*
X152800000Y-61973000D01*
X143100000Y-61973000D01*
X143050590Y-61983006D01*
X143008965Y-62011447D01*
X142981685Y-62053841D01*
X142973000Y-62100000D01*
X142973000Y-63765000D01*
X136750000Y-63765000D01*
X136411325Y-63832367D01*
X136124210Y-64024210D01*
X136124208Y-64024213D01*
X128574210Y-71574210D01*
X128382367Y-71861325D01*
X128382367Y-71861326D01*
X128314999Y-72200000D01*
X128315000Y-72200005D01*
X128315000Y-75799995D01*
X128314999Y-75800000D01*
X128356205Y-76007152D01*
X128382367Y-76138675D01*
X128532207Y-76362928D01*
X128574210Y-76425790D01*
X129102560Y-76954139D01*
X129102560Y-77050000D01*
X129146838Y-77285317D01*
X129262461Y-77465000D01*
X122826769Y-77465000D01*
X122488094Y-77532367D01*
X122200979Y-77724210D01*
X122200977Y-77724213D01*
X122120988Y-77804201D01*
X122120986Y-77804204D01*
X122037944Y-77887245D01*
X121917836Y-77936873D01*
X121654587Y-78199663D01*
X121511941Y-78543191D01*
X121511617Y-78915157D01*
X121653662Y-79258933D01*
X121916452Y-79522182D01*
X122259980Y-79664828D01*
X122631946Y-79665152D01*
X122975722Y-79523107D01*
X123238971Y-79260317D01*
X123249484Y-79235000D01*
X129275331Y-79235000D01*
X129285910Y-79251441D01*
X129498110Y-79396431D01*
X129750000Y-79447440D01*
X130250000Y-79447440D01*
X130301836Y-79437686D01*
X130350000Y-79447440D01*
X130850000Y-79447440D01*
X131085317Y-79403162D01*
X131301441Y-79264090D01*
X131321317Y-79235000D01*
X131849995Y-79235000D01*
X131850000Y-79235001D01*
X132171461Y-79171057D01*
X132188675Y-79167633D01*
X132475790Y-78975790D01*
X133325787Y-78125792D01*
X133325790Y-78125790D01*
X136738623Y-74712956D01*
X136868110Y-74801431D01*
X137120000Y-74852440D01*
X138620000Y-74852440D01*
X138855317Y-74808162D01*
X139071441Y-74669090D01*
X139119134Y-74599289D01*
X139155910Y-74656441D01*
X139194296Y-74682669D01*
X139160527Y-74852440D01*
X139141399Y-74948601D01*
X139141399Y-75189732D01*
X138600000Y-75082041D01*
X138026511Y-75196115D01*
X137540330Y-75520971D01*
X137215474Y-76007152D01*
X137101400Y-76580641D01*
X137101400Y-76639359D01*
X137215474Y-77212848D01*
X137526574Y-77678442D01*
X137501083Y-77683238D01*
X137284959Y-77822310D01*
X137139969Y-78034510D01*
X137088960Y-78286400D01*
X137088960Y-78456182D01*
X136881321Y-78594921D01*
X135561231Y-79915011D01*
X123077247Y-79915011D01*
X123045067Y-79908610D01*
X115579570Y-79908610D01*
X115482174Y-79927984D01*
X116075076Y-79335081D01*
X116075079Y-79335079D01*
X116245245Y-79080406D01*
X116250143Y-79055781D01*
X116305001Y-78780000D01*
X116305000Y-78779995D01*
X116305000Y-78400000D01*
X116916655Y-78400000D01*
X117030729Y-78973489D01*
X117355585Y-79459670D01*
X117841766Y-79784526D01*
X118415255Y-79898600D01*
X118784745Y-79898600D01*
X119358234Y-79784526D01*
X119844415Y-79459670D01*
X120169271Y-78973489D01*
X120283345Y-78400000D01*
X120169271Y-77826511D01*
X119844415Y-77340330D01*
X119534931Y-77133539D01*
X119950732Y-76762036D01*
X120204709Y-76234791D01*
X120207358Y-76219026D01*
X120086217Y-75987000D01*
X118727000Y-75987000D01*
X118727000Y-76007000D01*
X118473000Y-76007000D01*
X118473000Y-75987000D01*
X117113783Y-75987000D01*
X116992642Y-76219026D01*
X116995291Y-76234791D01*
X117249268Y-76762036D01*
X117665069Y-77133539D01*
X117355585Y-77340330D01*
X117030729Y-77826511D01*
X116916655Y-78400000D01*
X116305000Y-78400000D01*
X116305000Y-73920000D01*
X116245245Y-73619594D01*
X116075079Y-73364921D01*
X116075076Y-73364919D01*
X115166558Y-72456400D01*
X116936560Y-72456400D01*
X116936560Y-74183600D01*
X116980838Y-74418917D01*
X117119910Y-74635041D01*
X117332110Y-74780031D01*
X117426927Y-74799232D01*
X117249268Y-74957964D01*
X116995291Y-75485209D01*
X116992642Y-75500974D01*
X117113783Y-75733000D01*
X118473000Y-75733000D01*
X118473000Y-75713000D01*
X118727000Y-75713000D01*
X118727000Y-75733000D01*
X120086217Y-75733000D01*
X120207358Y-75500974D01*
X120204709Y-75485209D01*
X119950732Y-74957964D01*
X119775155Y-74801093D01*
X119851317Y-74786762D01*
X120067441Y-74647690D01*
X120212431Y-74435490D01*
X120263440Y-74183600D01*
X120263440Y-72456400D01*
X120219162Y-72221083D01*
X120080090Y-72004959D01*
X119867890Y-71859969D01*
X119616000Y-71808960D01*
X117584000Y-71808960D01*
X117348683Y-71853238D01*
X117132559Y-71992310D01*
X116987569Y-72204510D01*
X116936560Y-72456400D01*
X115166558Y-72456400D01*
X111845000Y-69134842D01*
X111845000Y-68790617D01*
X111956657Y-68744481D01*
X112054337Y-68646971D01*
X112185910Y-68851441D01*
X112398110Y-68996431D01*
X112650000Y-69047440D01*
X114550000Y-69047440D01*
X114785317Y-69003162D01*
X115001441Y-68864090D01*
X115146431Y-68651890D01*
X115197440Y-68400000D01*
X115197440Y-66400000D01*
X115153162Y-66164683D01*
X115014090Y-65948559D01*
X114801890Y-65803569D01*
X114550000Y-65752560D01*
X114355000Y-65752560D01*
X114355000Y-64485167D01*
X116064838Y-64485167D01*
X116206883Y-64828943D01*
X116469673Y-65092192D01*
X116813201Y-65234838D01*
X117185167Y-65235162D01*
X117306569Y-65185000D01*
X117874995Y-65185000D01*
X117875000Y-65185001D01*
X118161004Y-65128110D01*
X118213675Y-65117633D01*
X118500790Y-64925790D01*
X118795790Y-64630790D01*
X118892001Y-64486799D01*
X118987633Y-64343675D01*
X119013025Y-64216022D01*
X119029782Y-64131783D01*
X119155317Y-64108162D01*
X119371441Y-63969090D01*
X119419134Y-63899289D01*
X119455910Y-63956441D01*
X119668110Y-64101431D01*
X119885000Y-64145352D01*
X119885000Y-65752560D01*
X119650000Y-65752560D01*
X119414683Y-65796838D01*
X119198559Y-65935910D01*
X119053569Y-66148110D01*
X119052945Y-66151192D01*
X118959003Y-66057086D01*
X118376659Y-65815276D01*
X117746107Y-65814725D01*
X117163343Y-66055519D01*
X116717086Y-66500997D01*
X116475276Y-67083341D01*
X116474725Y-67713893D01*
X116715519Y-68296657D01*
X117160997Y-68742914D01*
X117743341Y-68984724D01*
X118373893Y-68985275D01*
X118956657Y-68744481D01*
X119054337Y-68646971D01*
X119185910Y-68851441D01*
X119398110Y-68996431D01*
X119650000Y-69047440D01*
X121550000Y-69047440D01*
X121785317Y-69003162D01*
X122001441Y-68864090D01*
X122146431Y-68651890D01*
X122197440Y-68400000D01*
X122197440Y-66400000D01*
X122153162Y-66164683D01*
X122014090Y-65948559D01*
X121801890Y-65803569D01*
X121550000Y-65752560D01*
X121455000Y-65752560D01*
X121455000Y-64485167D01*
X123264838Y-64485167D01*
X123406883Y-64828943D01*
X123669673Y-65092192D01*
X124013201Y-65234838D01*
X124385167Y-65235162D01*
X124728943Y-65093117D01*
X124992192Y-64830327D01*
X125042566Y-64709014D01*
X125599139Y-64152440D01*
X125820000Y-64152440D01*
X126055317Y-64108162D01*
X126271441Y-63969090D01*
X126319134Y-63899289D01*
X126355910Y-63956441D01*
X126568110Y-64101431D01*
X126785000Y-64145352D01*
X126785000Y-65752560D01*
X126650000Y-65752560D01*
X126414683Y-65796838D01*
X126198559Y-65935910D01*
X126053569Y-66148110D01*
X126052945Y-66151192D01*
X125959003Y-66057086D01*
X125376659Y-65815276D01*
X124746107Y-65814725D01*
X124163343Y-66055519D01*
X123717086Y-66500997D01*
X123475276Y-67083341D01*
X123474725Y-67713893D01*
X123715519Y-68296657D01*
X124160997Y-68742914D01*
X124743341Y-68984724D01*
X125373893Y-68985275D01*
X125956657Y-68744481D01*
X126054337Y-68646971D01*
X126185910Y-68851441D01*
X126398110Y-68996431D01*
X126650000Y-69047440D01*
X128550000Y-69047440D01*
X128785317Y-69003162D01*
X129001441Y-68864090D01*
X129146431Y-68651890D01*
X129197440Y-68400000D01*
X129197440Y-66400000D01*
X129153162Y-66164683D01*
X129014090Y-65948559D01*
X128801890Y-65803569D01*
X128550000Y-65752560D01*
X128355000Y-65752560D01*
X128355000Y-64145854D01*
X128555317Y-64108162D01*
X128771441Y-63969090D01*
X128916431Y-63756890D01*
X128967440Y-63505000D01*
X128967440Y-62255000D01*
X128923162Y-62019683D01*
X128784090Y-61803559D01*
X128571890Y-61658569D01*
X128320000Y-61607560D01*
X126820000Y-61607560D01*
X126584683Y-61651838D01*
X126368559Y-61790910D01*
X126320866Y-61860711D01*
X126284090Y-61803559D01*
X126071890Y-61658569D01*
X125820000Y-61607560D01*
X124320000Y-61607560D01*
X124084683Y-61651838D01*
X123868559Y-61790910D01*
X123723569Y-62003110D01*
X123672560Y-62255000D01*
X123672560Y-63505000D01*
X123672780Y-63506171D01*
X123671057Y-63506883D01*
X123407808Y-63769673D01*
X123265162Y-64113201D01*
X123264838Y-64485167D01*
X121455000Y-64485167D01*
X121455000Y-64145854D01*
X121655317Y-64108162D01*
X121871441Y-63969090D01*
X122016431Y-63756890D01*
X122067440Y-63505000D01*
X122067440Y-62255000D01*
X122023162Y-62019683D01*
X121884090Y-61803559D01*
X121671890Y-61658569D01*
X121420000Y-61607560D01*
X119920000Y-61607560D01*
X119684683Y-61651838D01*
X119468559Y-61790910D01*
X119420866Y-61860711D01*
X119384090Y-61803559D01*
X119171890Y-61658569D01*
X118920000Y-61607560D01*
X117420000Y-61607560D01*
X117184683Y-61651838D01*
X116968559Y-61790910D01*
X116823569Y-62003110D01*
X116772560Y-62255000D01*
X116772560Y-63382305D01*
X116471057Y-63506883D01*
X116207808Y-63769673D01*
X116065162Y-64113201D01*
X116064838Y-64485167D01*
X114355000Y-64485167D01*
X114355000Y-64145854D01*
X114555317Y-64108162D01*
X114771441Y-63969090D01*
X114916431Y-63756890D01*
X114967440Y-63505000D01*
X114967440Y-62255000D01*
X114923162Y-62019683D01*
X114784090Y-61803559D01*
X114571890Y-61658569D01*
X114320000Y-61607560D01*
X112820000Y-61607560D01*
X112584683Y-61651838D01*
X112368559Y-61790910D01*
X112320866Y-61860711D01*
X112284090Y-61803559D01*
X112071890Y-61658569D01*
X111820000Y-61607560D01*
X110320000Y-61607560D01*
X110084683Y-61651838D01*
X109868559Y-61790910D01*
X109723569Y-62003110D01*
X109672560Y-62255000D01*
X109672560Y-63464888D01*
X109614833Y-63464838D01*
X109271057Y-63606883D01*
X109007808Y-63869673D01*
X108865162Y-64213201D01*
X108864838Y-64585167D01*
X108310000Y-64585167D01*
X108310000Y-63469931D01*
X108497167Y-62528977D01*
X108990561Y-61790561D01*
X109728977Y-61297167D01*
X110669931Y-61110000D01*
X182530069Y-61110000D01*
X183471023Y-61297167D01*
G36*
X142973000Y-67200000D02*
X142983006Y-67249410D01*
X143011447Y-67291035D01*
X143053841Y-67318315D01*
X143100000Y-67327000D01*
X152800000Y-67327000D01*
X152849410Y-67316994D01*
X152891035Y-67288553D01*
X152918315Y-67246159D01*
X152927000Y-67200000D01*
X152927000Y-65535000D01*
X156124009Y-65535000D01*
X156171910Y-65609441D01*
X156384110Y-65754431D01*
X156572314Y-65792543D01*
X156400683Y-65824838D01*
X156184559Y-65963910D01*
X156039569Y-66176110D01*
X155988560Y-66428000D01*
X155988560Y-67444000D01*
X156032838Y-67679317D01*
X156171910Y-67895441D01*
X156384110Y-68040431D01*
X156636000Y-68091440D01*
X158668000Y-68091440D01*
X158903317Y-68047162D01*
X159119441Y-67908090D01*
X159264431Y-67695890D01*
X159315440Y-67444000D01*
X159315440Y-67015000D01*
X159972962Y-67015000D01*
X159991838Y-67115317D01*
X160130910Y-67331441D01*
X160294283Y-67443069D01*
X160265162Y-67513201D01*
X160264838Y-67885167D01*
X160406883Y-68228943D01*
X160669673Y-68492192D01*
X161013201Y-68634838D01*
X161385167Y-68635162D01*
X161728943Y-68493117D01*
X161992192Y-68230327D01*
X162134838Y-67886799D01*
X162135162Y-67514833D01*
X162113305Y-67461935D01*
X162296441Y-67344090D01*
X162441431Y-67131890D01*
X162492440Y-66880000D01*
X162492440Y-66279019D01*
X163934999Y-67721578D01*
X163934999Y-87245012D01*
X163734833Y-87244838D01*
X163552927Y-87320000D01*
X163525227Y-87320000D01*
X163542440Y-87235000D01*
X163542440Y-86635000D01*
X163498162Y-86399683D01*
X163439822Y-86309020D01*
X163530000Y-86091310D01*
X163530000Y-85950750D01*
X163371250Y-85792000D01*
X162047000Y-85792000D01*
X162047000Y-85812000D01*
X161793000Y-85812000D01*
X161793000Y-85792000D01*
X160468750Y-85792000D01*
X160310000Y-85950750D01*
X160310000Y-86091310D01*
X160357960Y-86207096D01*
X160344594Y-86209755D01*
X160089921Y-86379921D01*
X158864921Y-87604921D01*
X158694755Y-87859593D01*
X158686637Y-87900406D01*
X158635000Y-88160000D01*
X158635000Y-95054842D01*
X158187377Y-95502465D01*
X158283345Y-95020000D01*
X158169271Y-94446511D01*
X157844415Y-93960330D01*
X157534931Y-93753539D01*
X157950732Y-93382036D01*
X158204709Y-92854791D01*
X158207358Y-92839026D01*
X158086217Y-92607000D01*
X156727000Y-92607000D01*
X156727000Y-92627000D01*
X156473000Y-92627000D01*
X156473000Y-92607000D01*
X155113783Y-92607000D01*
X154992642Y-92839026D01*
X154995291Y-92854791D01*
X155249268Y-93382036D01*
X155665069Y-93753539D01*
X155355585Y-93960330D01*
X155030729Y-94446511D01*
X154935486Y-94925328D01*
X145455079Y-85444921D01*
X145200407Y-85274755D01*
X144900000Y-85215000D01*
X137525158Y-85215000D01*
X137047598Y-84737440D01*
X137148328Y-84670135D01*
X137430500Y-84247836D01*
X137712672Y-84670135D01*
X138165891Y-84972967D01*
X138700500Y-85079307D01*
X139235109Y-84972967D01*
X139688328Y-84670135D01*
X139970500Y-84247836D01*
X140252672Y-84670135D01*
X140705891Y-84972967D01*
X141240500Y-85079307D01*
X141775109Y-84972967D01*
X142228328Y-84670135D01*
X142510500Y-84247836D01*
X142792672Y-84670135D01*
X143245891Y-84972967D01*
X143780500Y-85079307D01*
X144315109Y-84972967D01*
X144768328Y-84670135D01*
X145050500Y-84247836D01*
X145332672Y-84670135D01*
X145785891Y-84972967D01*
X146006738Y-85016896D01*
X147944919Y-86955076D01*
X147944921Y-86955079D01*
X148199594Y-87125245D01*
X148500000Y-87185000D01*
X150774842Y-87185000D01*
X154084921Y-90495079D01*
X154339593Y-90665245D01*
X154640000Y-90725000D01*
X155172056Y-90725000D01*
X155355585Y-90999670D01*
X155665069Y-91206461D01*
X155249268Y-91577964D01*
X154995291Y-92105209D01*
X154992642Y-92120974D01*
X155113783Y-92353000D01*
X156473000Y-92353000D01*
X156473000Y-92333000D01*
X156727000Y-92333000D01*
X156727000Y-92353000D01*
X158086217Y-92353000D01*
X158207358Y-92120974D01*
X158204709Y-92105209D01*
X157950732Y-91577964D01*
X157534931Y-91206461D01*
X157844415Y-90999670D01*
X158169271Y-90513489D01*
X158283345Y-89940000D01*
X158169271Y-89366511D01*
X157844415Y-88880330D01*
X157830087Y-88870757D01*
X157851317Y-88866762D01*
X158067441Y-88727690D01*
X158212431Y-88515490D01*
X158263440Y-88263600D01*
X158263440Y-86536400D01*
X158219162Y-86301083D01*
X158080090Y-86084959D01*
X157867890Y-85939969D01*
X157616000Y-85888960D01*
X155584000Y-85888960D01*
X155348683Y-85933238D01*
X155132559Y-86072310D01*
X154987569Y-86284510D01*
X154936560Y-86536400D01*
X154936560Y-86615000D01*
X154725158Y-86615000D01*
X153348848Y-85238690D01*
X160310000Y-85238690D01*
X160310000Y-85379250D01*
X160468750Y-85538000D01*
X161793000Y-85538000D01*
X161793000Y-84888750D01*
X162047000Y-84888750D01*
X162047000Y-85538000D01*
X163371250Y-85538000D01*
X163530000Y-85379250D01*
X163530000Y-85238690D01*
X163433327Y-85005301D01*
X163254698Y-84826673D01*
X163021309Y-84730000D01*
X162205750Y-84730000D01*
X162047000Y-84888750D01*
X161793000Y-84888750D01*
X161634250Y-84730000D01*
X160818691Y-84730000D01*
X160585302Y-84826673D01*
X160406673Y-85005301D01*
X160310000Y-85238690D01*
X153348848Y-85238690D01*
X150865579Y-82755421D01*
X150610907Y-82585255D01*
X150310500Y-82525500D01*
X150175311Y-82525500D01*
X150151160Y-82404084D01*
X149848328Y-81950865D01*
X149395109Y-81648033D01*
X148860500Y-81541693D01*
X148325891Y-81648033D01*
X147872672Y-81950865D01*
X147590500Y-82373164D01*
X147308328Y-81950865D01*
X146855109Y-81648033D01*
X146320500Y-81541693D01*
X145785891Y-81648033D01*
X145332672Y-81950865D01*
X145050500Y-82373164D01*
X144768328Y-81950865D01*
X144447359Y-81736400D01*
X145448680Y-80735079D01*
X145588823Y-80525339D01*
X145646511Y-80563885D01*
X146220000Y-80677959D01*
X146793489Y-80563885D01*
X147279670Y-80239029D01*
X147415998Y-80035000D01*
X147849995Y-80035000D01*
X147850000Y-80035001D01*
X148152815Y-79974766D01*
X148188675Y-79967633D01*
X148475790Y-79775790D01*
X149574918Y-78676661D01*
X155202758Y-78676661D01*
X155414990Y-79190303D01*
X155807630Y-79583629D01*
X156320900Y-79796757D01*
X156876661Y-79797242D01*
X157390303Y-79585010D01*
X157690837Y-79285000D01*
X159533420Y-79285000D01*
X160357255Y-80108834D01*
X160406883Y-80228943D01*
X160669673Y-80492192D01*
X161013201Y-80634838D01*
X161385167Y-80635162D01*
X161728943Y-80493117D01*
X161992192Y-80230327D01*
X162134838Y-79886799D01*
X162135162Y-79514833D01*
X161993117Y-79171057D01*
X161730327Y-78907808D01*
X161609013Y-78857434D01*
X160525790Y-77774210D01*
X160410895Y-77697440D01*
X160238675Y-77582367D01*
X160182484Y-77571190D01*
X159900000Y-77514999D01*
X159899995Y-77515000D01*
X157690478Y-77515000D01*
X157392370Y-77216371D01*
X157126273Y-77105878D01*
X156600000Y-76579605D01*
X156073698Y-77105907D01*
X155809697Y-77214990D01*
X155416371Y-77607630D01*
X155203243Y-78120900D01*
X155202758Y-78676661D01*
X149574918Y-78676661D01*
X149725787Y-78525792D01*
X149725790Y-78525790D01*
X149917633Y-78238675D01*
X149937667Y-78137959D01*
X149985001Y-77900000D01*
X149985000Y-77899995D01*
X149985000Y-76192302D01*
X155190856Y-76192302D01*
X155218638Y-76747368D01*
X155377603Y-77131143D01*
X155619787Y-77200608D01*
X156420395Y-76400000D01*
X156779605Y-76400000D01*
X157580213Y-77200608D01*
X157822397Y-77131143D01*
X158009144Y-76607698D01*
X157981362Y-76052632D01*
X157822397Y-75668857D01*
X157580213Y-75599392D01*
X156779605Y-76400000D01*
X156420395Y-76400000D01*
X155619787Y-75599392D01*
X155377603Y-75668857D01*
X155190856Y-76192302D01*
X149985000Y-76192302D01*
X149985000Y-74000005D01*
X149985001Y-74000000D01*
X149917633Y-73661326D01*
X149917633Y-73661325D01*
X149725790Y-73374210D01*
X149725787Y-73374208D01*
X149305790Y-72954210D01*
X149156944Y-72854755D01*
X149018675Y-72762367D01*
X148962484Y-72751190D01*
X148680000Y-72694999D01*
X148679995Y-72695000D01*
X148207279Y-72695000D01*
X148195479Y-72676661D01*
X155202758Y-72676661D01*
X155414990Y-73190303D01*
X155624342Y-73400021D01*
X155416371Y-73607630D01*
X155203243Y-74120900D01*
X155202758Y-74676661D01*
X155414990Y-75190303D01*
X155807630Y-75583629D01*
X156073727Y-75694122D01*
X156600000Y-76220395D01*
X157126302Y-75694093D01*
X157390303Y-75585010D01*
X157783629Y-75192370D01*
X157996757Y-74679100D01*
X157997242Y-74123339D01*
X157785010Y-73609697D01*
X157575658Y-73399979D01*
X157783629Y-73192370D01*
X157996757Y-72679100D01*
X157997242Y-72123339D01*
X157785010Y-71609697D01*
X157392370Y-71216371D01*
X156879100Y-71003243D01*
X156323339Y-71002758D01*
X155809697Y-71214990D01*
X155416371Y-71607630D01*
X155203243Y-72120900D01*
X155202758Y-72676661D01*
X148195479Y-72676661D01*
X148099671Y-72527773D01*
X148216431Y-72356890D01*
X148267440Y-72105000D01*
X148267440Y-70855000D01*
X148223162Y-70619683D01*
X148084090Y-70403559D01*
X147871890Y-70258569D01*
X147620000Y-70207560D01*
X146724139Y-70207560D01*
X145040788Y-68524208D01*
X144994257Y-68493117D01*
X144753673Y-68332365D01*
X144697482Y-68321188D01*
X144414998Y-68264997D01*
X144414993Y-68264998D01*
X140325002Y-68264998D01*
X139986327Y-68332365D01*
X139699212Y-68524208D01*
X139699210Y-68524211D01*
X138015860Y-70207560D01*
X137120000Y-70207560D01*
X136884683Y-70251838D01*
X136668559Y-70390910D01*
X136523569Y-70603110D01*
X136472560Y-70855000D01*
X136472560Y-72105000D01*
X136516838Y-72340317D01*
X136640329Y-72532227D01*
X136523569Y-72703110D01*
X136521233Y-72714645D01*
X136281325Y-72762367D01*
X135994210Y-72954210D01*
X135994208Y-72954213D01*
X132700000Y-76248420D01*
X132425790Y-75974210D01*
X132336701Y-75914683D01*
X132138675Y-75782367D01*
X132082484Y-75771190D01*
X131800000Y-75714999D01*
X131799995Y-75715000D01*
X131324669Y-75715000D01*
X131314090Y-75698559D01*
X131101890Y-75553569D01*
X130850000Y-75502560D01*
X130350000Y-75502560D01*
X130298164Y-75512314D01*
X130250000Y-75502560D01*
X130154140Y-75502560D01*
X130085000Y-75433420D01*
X130085000Y-72566580D01*
X137116579Y-65535000D01*
X142973000Y-65535000D01*
X142973000Y-67200000D01*
X142973000Y-67200000D01*
G37*
X142973000Y-67200000D02*
X142983006Y-67249410D01*
X143011447Y-67291035D01*
X143053841Y-67318315D01*
X143100000Y-67327000D01*
X152800000Y-67327000D01*
X152849410Y-67316994D01*
X152891035Y-67288553D01*
X152918315Y-67246159D01*
X152927000Y-67200000D01*
X152927000Y-65535000D01*
X156124009Y-65535000D01*
X156171910Y-65609441D01*
X156384110Y-65754431D01*
X156572314Y-65792543D01*
X156400683Y-65824838D01*
X156184559Y-65963910D01*
X156039569Y-66176110D01*
X155988560Y-66428000D01*
X155988560Y-67444000D01*
X156032838Y-67679317D01*
X156171910Y-67895441D01*
X156384110Y-68040431D01*
X156636000Y-68091440D01*
X158668000Y-68091440D01*
X158903317Y-68047162D01*
X159119441Y-67908090D01*
X159264431Y-67695890D01*
X159315440Y-67444000D01*
X159315440Y-67015000D01*
X159972962Y-67015000D01*
X159991838Y-67115317D01*
X160130910Y-67331441D01*
X160294283Y-67443069D01*
X160265162Y-67513201D01*
X160264838Y-67885167D01*
X160406883Y-68228943D01*
X160669673Y-68492192D01*
X161013201Y-68634838D01*
X161385167Y-68635162D01*
X161728943Y-68493117D01*
X161992192Y-68230327D01*
X162134838Y-67886799D01*
X162135162Y-67514833D01*
X162113305Y-67461935D01*
X162296441Y-67344090D01*
X162441431Y-67131890D01*
X162492440Y-66880000D01*
X162492440Y-66279019D01*
X163934999Y-67721578D01*
X163934999Y-87245012D01*
X163734833Y-87244838D01*
X163552927Y-87320000D01*
X163525227Y-87320000D01*
X163542440Y-87235000D01*
X163542440Y-86635000D01*
X163498162Y-86399683D01*
X163439822Y-86309020D01*
X163530000Y-86091310D01*
X163530000Y-85950750D01*
X163371250Y-85792000D01*
X162047000Y-85792000D01*
X162047000Y-85812000D01*
X161793000Y-85812000D01*
X161793000Y-85792000D01*
X160468750Y-85792000D01*
X160310000Y-85950750D01*
X160310000Y-86091310D01*
X160357960Y-86207096D01*
X160344594Y-86209755D01*
X160089921Y-86379921D01*
X158864921Y-87604921D01*
X158694755Y-87859593D01*
X158686637Y-87900406D01*
X158635000Y-88160000D01*
X158635000Y-95054842D01*
X158187377Y-95502465D01*
X158283345Y-95020000D01*
X158169271Y-94446511D01*
X157844415Y-93960330D01*
X157534931Y-93753539D01*
X157950732Y-93382036D01*
X158204709Y-92854791D01*
X158207358Y-92839026D01*
X158086217Y-92607000D01*
X156727000Y-92607000D01*
X156727000Y-92627000D01*
X156473000Y-92627000D01*
X156473000Y-92607000D01*
X155113783Y-92607000D01*
X154992642Y-92839026D01*
X154995291Y-92854791D01*
X155249268Y-93382036D01*
X155665069Y-93753539D01*
X155355585Y-93960330D01*
X155030729Y-94446511D01*
X154935486Y-94925328D01*
X145455079Y-85444921D01*
X145200407Y-85274755D01*
X144900000Y-85215000D01*
X137525158Y-85215000D01*
X137047598Y-84737440D01*
X137148328Y-84670135D01*
X137430500Y-84247836D01*
X137712672Y-84670135D01*
X138165891Y-84972967D01*
X138700500Y-85079307D01*
X139235109Y-84972967D01*
X139688328Y-84670135D01*
X139970500Y-84247836D01*
X140252672Y-84670135D01*
X140705891Y-84972967D01*
X141240500Y-85079307D01*
X141775109Y-84972967D01*
X142228328Y-84670135D01*
X142510500Y-84247836D01*
X142792672Y-84670135D01*
X143245891Y-84972967D01*
X143780500Y-85079307D01*
X144315109Y-84972967D01*
X144768328Y-84670135D01*
X145050500Y-84247836D01*
X145332672Y-84670135D01*
X145785891Y-84972967D01*
X146006738Y-85016896D01*
X147944919Y-86955076D01*
X147944921Y-86955079D01*
X148199594Y-87125245D01*
X148500000Y-87185000D01*
X150774842Y-87185000D01*
X154084921Y-90495079D01*
X154339593Y-90665245D01*
X154640000Y-90725000D01*
X155172056Y-90725000D01*
X155355585Y-90999670D01*
X155665069Y-91206461D01*
X155249268Y-91577964D01*
X154995291Y-92105209D01*
X154992642Y-92120974D01*
X155113783Y-92353000D01*
X156473000Y-92353000D01*
X156473000Y-92333000D01*
X156727000Y-92333000D01*
X156727000Y-92353000D01*
X158086217Y-92353000D01*
X158207358Y-92120974D01*
X158204709Y-92105209D01*
X157950732Y-91577964D01*
X157534931Y-91206461D01*
X157844415Y-90999670D01*
X158169271Y-90513489D01*
X158283345Y-89940000D01*
X158169271Y-89366511D01*
X157844415Y-88880330D01*
X157830087Y-88870757D01*
X157851317Y-88866762D01*
X158067441Y-88727690D01*
X158212431Y-88515490D01*
X158263440Y-88263600D01*
X158263440Y-86536400D01*
X158219162Y-86301083D01*
X158080090Y-86084959D01*
X157867890Y-85939969D01*
X157616000Y-85888960D01*
X155584000Y-85888960D01*
X155348683Y-85933238D01*
X155132559Y-86072310D01*
X154987569Y-86284510D01*
X154936560Y-86536400D01*
X154936560Y-86615000D01*
X154725158Y-86615000D01*
X153348848Y-85238690D01*
X160310000Y-85238690D01*
X160310000Y-85379250D01*
X160468750Y-85538000D01*
X161793000Y-85538000D01*
X161793000Y-84888750D01*
X162047000Y-84888750D01*
X162047000Y-85538000D01*
X163371250Y-85538000D01*
X163530000Y-85379250D01*
X163530000Y-85238690D01*
X163433327Y-85005301D01*
X163254698Y-84826673D01*
X163021309Y-84730000D01*
X162205750Y-84730000D01*
X162047000Y-84888750D01*
X161793000Y-84888750D01*
X161634250Y-84730000D01*
X160818691Y-84730000D01*
X160585302Y-84826673D01*
X160406673Y-85005301D01*
X160310000Y-85238690D01*
X153348848Y-85238690D01*
X150865579Y-82755421D01*
X150610907Y-82585255D01*
X150310500Y-82525500D01*
X150175311Y-82525500D01*
X150151160Y-82404084D01*
X149848328Y-81950865D01*
X149395109Y-81648033D01*
X148860500Y-81541693D01*
X148325891Y-81648033D01*
X147872672Y-81950865D01*
X147590500Y-82373164D01*
X147308328Y-81950865D01*
X146855109Y-81648033D01*
X146320500Y-81541693D01*
X145785891Y-81648033D01*
X145332672Y-81950865D01*
X145050500Y-82373164D01*
X144768328Y-81950865D01*
X144447359Y-81736400D01*
X145448680Y-80735079D01*
X145588823Y-80525339D01*
X145646511Y-80563885D01*
X146220000Y-80677959D01*
X146793489Y-80563885D01*
X147279670Y-80239029D01*
X147415998Y-80035000D01*
X147849995Y-80035000D01*
X147850000Y-80035001D01*
X148152815Y-79974766D01*
X148188675Y-79967633D01*
X148475790Y-79775790D01*
X149574918Y-78676661D01*
X155202758Y-78676661D01*
X155414990Y-79190303D01*
X155807630Y-79583629D01*
X156320900Y-79796757D01*
X156876661Y-79797242D01*
X157390303Y-79585010D01*
X157690837Y-79285000D01*
X159533420Y-79285000D01*
X160357255Y-80108834D01*
X160406883Y-80228943D01*
X160669673Y-80492192D01*
X161013201Y-80634838D01*
X161385167Y-80635162D01*
X161728943Y-80493117D01*
X161992192Y-80230327D01*
X162134838Y-79886799D01*
X162135162Y-79514833D01*
X161993117Y-79171057D01*
X161730327Y-78907808D01*
X161609013Y-78857434D01*
X160525790Y-77774210D01*
X160410895Y-77697440D01*
X160238675Y-77582367D01*
X160182484Y-77571190D01*
X159900000Y-77514999D01*
X159899995Y-77515000D01*
X157690478Y-77515000D01*
X157392370Y-77216371D01*
X157126273Y-77105878D01*
X156600000Y-76579605D01*
X156073698Y-77105907D01*
X155809697Y-77214990D01*
X155416371Y-77607630D01*
X155203243Y-78120900D01*
X155202758Y-78676661D01*
X149574918Y-78676661D01*
X149725787Y-78525792D01*
X149725790Y-78525790D01*
X149917633Y-78238675D01*
X149937667Y-78137959D01*
X149985001Y-77900000D01*
X149985000Y-77899995D01*
X149985000Y-76192302D01*
X155190856Y-76192302D01*
X155218638Y-76747368D01*
X155377603Y-77131143D01*
X155619787Y-77200608D01*
X156420395Y-76400000D01*
X156779605Y-76400000D01*
X157580213Y-77200608D01*
X157822397Y-77131143D01*
X158009144Y-76607698D01*
X157981362Y-76052632D01*
X157822397Y-75668857D01*
X157580213Y-75599392D01*
X156779605Y-76400000D01*
X156420395Y-76400000D01*
X155619787Y-75599392D01*
X155377603Y-75668857D01*
X155190856Y-76192302D01*
X149985000Y-76192302D01*
X149985000Y-74000005D01*
X149985001Y-74000000D01*
X149917633Y-73661326D01*
X149917633Y-73661325D01*
X149725790Y-73374210D01*
X149725787Y-73374208D01*
X149305790Y-72954210D01*
X149156944Y-72854755D01*
X149018675Y-72762367D01*
X148962484Y-72751190D01*
X148680000Y-72694999D01*
X148679995Y-72695000D01*
X148207279Y-72695000D01*
X148195479Y-72676661D01*
X155202758Y-72676661D01*
X155414990Y-73190303D01*
X155624342Y-73400021D01*
X155416371Y-73607630D01*
X155203243Y-74120900D01*
X155202758Y-74676661D01*
X155414990Y-75190303D01*
X155807630Y-75583629D01*
X156073727Y-75694122D01*
X156600000Y-76220395D01*
X157126302Y-75694093D01*
X157390303Y-75585010D01*
X157783629Y-75192370D01*
X157996757Y-74679100D01*
X157997242Y-74123339D01*
X157785010Y-73609697D01*
X157575658Y-73399979D01*
X157783629Y-73192370D01*
X157996757Y-72679100D01*
X157997242Y-72123339D01*
X157785010Y-71609697D01*
X157392370Y-71216371D01*
X156879100Y-71003243D01*
X156323339Y-71002758D01*
X155809697Y-71214990D01*
X155416371Y-71607630D01*
X155203243Y-72120900D01*
X155202758Y-72676661D01*
X148195479Y-72676661D01*
X148099671Y-72527773D01*
X148216431Y-72356890D01*
X148267440Y-72105000D01*
X148267440Y-70855000D01*
X148223162Y-70619683D01*
X148084090Y-70403559D01*
X147871890Y-70258569D01*
X147620000Y-70207560D01*
X146724139Y-70207560D01*
X145040788Y-68524208D01*
X144994257Y-68493117D01*
X144753673Y-68332365D01*
X144697482Y-68321188D01*
X144414998Y-68264997D01*
X144414993Y-68264998D01*
X140325002Y-68264998D01*
X139986327Y-68332365D01*
X139699212Y-68524208D01*
X139699210Y-68524211D01*
X138015860Y-70207560D01*
X137120000Y-70207560D01*
X136884683Y-70251838D01*
X136668559Y-70390910D01*
X136523569Y-70603110D01*
X136472560Y-70855000D01*
X136472560Y-72105000D01*
X136516838Y-72340317D01*
X136640329Y-72532227D01*
X136523569Y-72703110D01*
X136521233Y-72714645D01*
X136281325Y-72762367D01*
X135994210Y-72954210D01*
X135994208Y-72954213D01*
X132700000Y-76248420D01*
X132425790Y-75974210D01*
X132336701Y-75914683D01*
X132138675Y-75782367D01*
X132082484Y-75771190D01*
X131800000Y-75714999D01*
X131799995Y-75715000D01*
X131324669Y-75715000D01*
X131314090Y-75698559D01*
X131101890Y-75553569D01*
X130850000Y-75502560D01*
X130350000Y-75502560D01*
X130298164Y-75512314D01*
X130250000Y-75502560D01*
X130154140Y-75502560D01*
X130085000Y-75433420D01*
X130085000Y-72566580D01*
X137116579Y-65535000D01*
X142973000Y-65535000D01*
X142973000Y-67200000D01*
G36*
X149397000Y-64364250D02*
X149555750Y-64523000D01*
X150921000Y-64523000D01*
X150921000Y-64503000D01*
X151175000Y-64503000D01*
X151175000Y-64523000D01*
X151195000Y-64523000D01*
X151195000Y-64777000D01*
X151175000Y-64777000D01*
X151175000Y-64797000D01*
X150921000Y-64797000D01*
X150921000Y-64777000D01*
X149555750Y-64777000D01*
X149397000Y-64935750D01*
X149397000Y-66473000D01*
X144027000Y-66473000D01*
X144027000Y-62927000D01*
X149397000Y-62927000D01*
X149397000Y-64364250D01*
X149397000Y-64364250D01*
G37*
X149397000Y-64364250D02*
X149555750Y-64523000D01*
X150921000Y-64523000D01*
X150921000Y-64503000D01*
X151175000Y-64503000D01*
X151175000Y-64523000D01*
X151195000Y-64523000D01*
X151195000Y-64777000D01*
X151175000Y-64777000D01*
X151175000Y-64797000D01*
X150921000Y-64797000D01*
X150921000Y-64777000D01*
X149555750Y-64777000D01*
X149397000Y-64935750D01*
X149397000Y-66473000D01*
X144027000Y-66473000D01*
X144027000Y-62927000D01*
X149397000Y-62927000D01*
X149397000Y-64364250D01*
M02*
