G04 #@! TF.FileFunction,Legend,Top*
%FSLAX46Y46*%
G04 Gerber Fmt 4.6, Leading zero omitted, Abs format (unit mm)*
G04 Created by KiCad (PCBNEW 4.0.7) date 09/18/17 08:38:16*
%MOMM*%
%LPD*%
G01*
G04 APERTURE LIST*
%ADD10C,0.100000*%
%ADD11C,0.300000*%
%ADD12C,0.080000*%
%ADD13C,0.381000*%
%ADD14C,0.150000*%
%ADD15C,0.304800*%
%ADD16C,2.540000*%
%ADD17C,0.152400*%
G04 APERTURE END LIST*
D10*
D11*
X130657143Y-103517857D02*
X131157143Y-103517857D01*
X131371429Y-104303571D02*
X130657143Y-104303571D01*
X130657143Y-102803571D01*
X131371429Y-102803571D01*
X132657143Y-104303571D02*
X132657143Y-103517857D01*
X132585714Y-103375000D01*
X132442857Y-103303571D01*
X132157143Y-103303571D01*
X132014286Y-103375000D01*
X132657143Y-104232143D02*
X132514286Y-104303571D01*
X132157143Y-104303571D01*
X132014286Y-104232143D01*
X131942857Y-104089286D01*
X131942857Y-103946429D01*
X132014286Y-103803571D01*
X132157143Y-103732143D01*
X132514286Y-103732143D01*
X132657143Y-103660714D01*
X133300000Y-104232143D02*
X133442857Y-104303571D01*
X133728572Y-104303571D01*
X133871429Y-104232143D01*
X133942857Y-104089286D01*
X133942857Y-104017857D01*
X133871429Y-103875000D01*
X133728572Y-103803571D01*
X133514286Y-103803571D01*
X133371429Y-103732143D01*
X133300000Y-103589286D01*
X133300000Y-103517857D01*
X133371429Y-103375000D01*
X133514286Y-103303571D01*
X133728572Y-103303571D01*
X133871429Y-103375000D01*
X134442858Y-103303571D02*
X134800001Y-104303571D01*
X135157143Y-103303571D02*
X134800001Y-104303571D01*
X134657143Y-104660714D01*
X134585715Y-104732143D01*
X134442858Y-104803571D01*
X137585715Y-104303571D02*
X136871429Y-104303571D01*
X136871429Y-102803571D01*
X138728572Y-104303571D02*
X138728572Y-103517857D01*
X138657143Y-103375000D01*
X138514286Y-103303571D01*
X138228572Y-103303571D01*
X138085715Y-103375000D01*
X138728572Y-104232143D02*
X138585715Y-104303571D01*
X138228572Y-104303571D01*
X138085715Y-104232143D01*
X138014286Y-104089286D01*
X138014286Y-103946429D01*
X138085715Y-103803571D01*
X138228572Y-103732143D01*
X138585715Y-103732143D01*
X138728572Y-103660714D01*
X139442858Y-104303571D02*
X139442858Y-102803571D01*
X139442858Y-103375000D02*
X139585715Y-103303571D01*
X139871429Y-103303571D01*
X140014286Y-103375000D01*
X140085715Y-103446429D01*
X140157144Y-103589286D01*
X140157144Y-104017857D01*
X140085715Y-104160714D01*
X140014286Y-104232143D01*
X139871429Y-104303571D01*
X139585715Y-104303571D01*
X139442858Y-104232143D01*
X140728572Y-104232143D02*
X140871429Y-104303571D01*
X141157144Y-104303571D01*
X141300001Y-104232143D01*
X141371429Y-104089286D01*
X141371429Y-104017857D01*
X141300001Y-103875000D01*
X141157144Y-103803571D01*
X140942858Y-103803571D01*
X140800001Y-103732143D01*
X140728572Y-103589286D01*
X140728572Y-103517857D01*
X140800001Y-103375000D01*
X140942858Y-103303571D01*
X141157144Y-103303571D01*
X141300001Y-103375000D01*
X142657144Y-103303571D02*
X142657144Y-104303571D01*
X142300001Y-102732143D02*
X141942858Y-103803571D01*
X142871430Y-103803571D01*
X143442858Y-104303571D02*
X143442858Y-102803571D01*
X144300001Y-104303571D02*
X143657144Y-103446429D01*
X144300001Y-102803571D02*
X143442858Y-103660714D01*
X144942858Y-104303571D02*
X144942858Y-103303571D01*
X144942858Y-102803571D02*
X144871429Y-102875000D01*
X144942858Y-102946429D01*
X145014286Y-102875000D01*
X144942858Y-102803571D01*
X144942858Y-102946429D01*
X146300001Y-104303571D02*
X146300001Y-102803571D01*
X146300001Y-104232143D02*
X146157144Y-104303571D01*
X145871430Y-104303571D01*
X145728572Y-104232143D01*
X145657144Y-104160714D01*
X145585715Y-104017857D01*
X145585715Y-103589286D01*
X145657144Y-103446429D01*
X145728572Y-103375000D01*
X145871430Y-103303571D01*
X146157144Y-103303571D01*
X146300001Y-103375000D01*
X146942858Y-104232143D02*
X147085715Y-104303571D01*
X147371430Y-104303571D01*
X147514287Y-104232143D01*
X147585715Y-104089286D01*
X147585715Y-104017857D01*
X147514287Y-103875000D01*
X147371430Y-103803571D01*
X147157144Y-103803571D01*
X147014287Y-103732143D01*
X146942858Y-103589286D01*
X146942858Y-103517857D01*
X147014287Y-103375000D01*
X147157144Y-103303571D01*
X147371430Y-103303571D01*
X147514287Y-103375000D01*
X130442857Y-105353571D02*
X130942857Y-106853571D01*
X131442857Y-105353571D01*
X131871428Y-105496429D02*
X131942857Y-105425000D01*
X132085714Y-105353571D01*
X132442857Y-105353571D01*
X132585714Y-105425000D01*
X132657143Y-105496429D01*
X132728571Y-105639286D01*
X132728571Y-105782143D01*
X132657143Y-105996429D01*
X131800000Y-106853571D01*
X132728571Y-106853571D01*
D10*
X174528571Y-94935714D02*
X174528571Y-95792857D01*
X174528571Y-95364285D02*
X173028571Y-95364285D01*
X173242857Y-95507142D01*
X173385714Y-95650000D01*
X173457143Y-95792857D01*
X173171429Y-94364286D02*
X173100000Y-94292857D01*
X173028571Y-94150000D01*
X173028571Y-93792857D01*
X173100000Y-93650000D01*
X173171429Y-93578571D01*
X173314286Y-93507143D01*
X173457143Y-93507143D01*
X173671429Y-93578571D01*
X174528571Y-94435714D01*
X174528571Y-93507143D01*
X173028571Y-93078572D02*
X174528571Y-92578572D01*
X173028571Y-92078572D01*
X173100000Y-89650001D02*
X173028571Y-89792858D01*
X173028571Y-90007144D01*
X173100000Y-90221429D01*
X173242857Y-90364287D01*
X173385714Y-90435715D01*
X173671429Y-90507144D01*
X173885714Y-90507144D01*
X174171429Y-90435715D01*
X174314286Y-90364287D01*
X174457143Y-90221429D01*
X174528571Y-90007144D01*
X174528571Y-89864287D01*
X174457143Y-89650001D01*
X174385714Y-89578572D01*
X173885714Y-89578572D01*
X173885714Y-89864287D01*
X174528571Y-88935715D02*
X173028571Y-88935715D01*
X174528571Y-88078572D01*
X173028571Y-88078572D01*
X174528571Y-87364286D02*
X173028571Y-87364286D01*
X173028571Y-87007143D01*
X173100000Y-86792858D01*
X173242857Y-86650000D01*
X173385714Y-86578572D01*
X173671429Y-86507143D01*
X173885714Y-86507143D01*
X174171429Y-86578572D01*
X174314286Y-86650000D01*
X174457143Y-86792858D01*
X174528571Y-87007143D01*
X174528571Y-87364286D01*
X126020001Y-74396667D02*
X126020001Y-73696667D01*
X126286667Y-73696667D01*
X126353334Y-73730000D01*
X126386667Y-73763333D01*
X126420001Y-73830000D01*
X126420001Y-73930000D01*
X126386667Y-73996667D01*
X126353334Y-74030000D01*
X126286667Y-74063333D01*
X126020001Y-74063333D01*
X126820001Y-74396667D02*
X126753334Y-74363333D01*
X126720001Y-74330000D01*
X126686667Y-74263333D01*
X126686667Y-74063333D01*
X126720001Y-73996667D01*
X126753334Y-73963333D01*
X126820001Y-73930000D01*
X126920001Y-73930000D01*
X126986667Y-73963333D01*
X127020001Y-73996667D01*
X127053334Y-74063333D01*
X127053334Y-74263333D01*
X127020001Y-74330000D01*
X126986667Y-74363333D01*
X126920001Y-74396667D01*
X126820001Y-74396667D01*
X127286667Y-73930000D02*
X127420000Y-74396667D01*
X127553334Y-74063333D01*
X127686667Y-74396667D01*
X127820000Y-73930000D01*
X128353333Y-74363333D02*
X128286667Y-74396667D01*
X128153333Y-74396667D01*
X128086667Y-74363333D01*
X128053333Y-74296667D01*
X128053333Y-74030000D01*
X128086667Y-73963333D01*
X128153333Y-73930000D01*
X128286667Y-73930000D01*
X128353333Y-73963333D01*
X128386667Y-74030000D01*
X128386667Y-74096667D01*
X128053333Y-74163333D01*
X128686667Y-74396667D02*
X128686667Y-73930000D01*
X128686667Y-74063333D02*
X128720000Y-73996667D01*
X128753333Y-73963333D01*
X128820000Y-73930000D01*
X128886667Y-73930000D01*
X129619999Y-74363333D02*
X129719999Y-74396667D01*
X129886666Y-74396667D01*
X129953333Y-74363333D01*
X129986666Y-74330000D01*
X130019999Y-74263333D01*
X130019999Y-74196667D01*
X129986666Y-74130000D01*
X129953333Y-74096667D01*
X129886666Y-74063333D01*
X129753333Y-74030000D01*
X129686666Y-73996667D01*
X129653333Y-73963333D01*
X129619999Y-73896667D01*
X129619999Y-73830000D01*
X129653333Y-73763333D01*
X129686666Y-73730000D01*
X129753333Y-73696667D01*
X129919999Y-73696667D01*
X130019999Y-73730000D01*
X130586666Y-74363333D02*
X130520000Y-74396667D01*
X130386666Y-74396667D01*
X130320000Y-74363333D01*
X130286666Y-74296667D01*
X130286666Y-74030000D01*
X130320000Y-73963333D01*
X130386666Y-73930000D01*
X130520000Y-73930000D01*
X130586666Y-73963333D01*
X130620000Y-74030000D01*
X130620000Y-74096667D01*
X130286666Y-74163333D01*
X131220000Y-74363333D02*
X131153333Y-74396667D01*
X131020000Y-74396667D01*
X130953333Y-74363333D01*
X130920000Y-74330000D01*
X130886666Y-74263333D01*
X130886666Y-74063333D01*
X130920000Y-73996667D01*
X130953333Y-73963333D01*
X131020000Y-73930000D01*
X131153333Y-73930000D01*
X131220000Y-73963333D01*
X131620000Y-74396667D02*
X131553333Y-74363333D01*
X131520000Y-74296667D01*
X131520000Y-73696667D01*
X132153333Y-74363333D02*
X132086667Y-74396667D01*
X131953333Y-74396667D01*
X131886667Y-74363333D01*
X131853333Y-74296667D01*
X131853333Y-74030000D01*
X131886667Y-73963333D01*
X131953333Y-73930000D01*
X132086667Y-73930000D01*
X132153333Y-73963333D01*
X132186667Y-74030000D01*
X132186667Y-74096667D01*
X131853333Y-74163333D01*
X132786667Y-74363333D02*
X132720000Y-74396667D01*
X132586667Y-74396667D01*
X132520000Y-74363333D01*
X132486667Y-74330000D01*
X132453333Y-74263333D01*
X132453333Y-74063333D01*
X132486667Y-73996667D01*
X132520000Y-73963333D01*
X132586667Y-73930000D01*
X132720000Y-73930000D01*
X132786667Y-73963333D01*
X132986667Y-73930000D02*
X133253333Y-73930000D01*
X133086667Y-73696667D02*
X133086667Y-74296667D01*
X133120000Y-74363333D01*
X133186667Y-74396667D01*
X133253333Y-74396667D01*
X133586667Y-74396667D02*
X133520000Y-74363333D01*
X133486667Y-74330000D01*
X133453333Y-74263333D01*
X133453333Y-74063333D01*
X133486667Y-73996667D01*
X133520000Y-73963333D01*
X133586667Y-73930000D01*
X133686667Y-73930000D01*
X133753333Y-73963333D01*
X133786667Y-73996667D01*
X133820000Y-74063333D01*
X133820000Y-74263333D01*
X133786667Y-74330000D01*
X133753333Y-74363333D01*
X133686667Y-74396667D01*
X133586667Y-74396667D01*
X134120000Y-74396667D02*
X134120000Y-73930000D01*
X134120000Y-74063333D02*
X134153333Y-73996667D01*
X134186666Y-73963333D01*
X134253333Y-73930000D01*
X134320000Y-73930000D01*
X150386624Y-113572005D02*
X150588655Y-113470990D01*
X150841193Y-113218451D01*
X150891701Y-113066929D01*
X150891701Y-112965913D01*
X150841193Y-112814391D01*
X150740178Y-112713376D01*
X150588655Y-112662868D01*
X150487640Y-112662868D01*
X150336117Y-112713376D01*
X150083579Y-112864898D01*
X149932056Y-112915407D01*
X149831041Y-112915406D01*
X149679518Y-112864899D01*
X149578503Y-112763883D01*
X149527995Y-112612360D01*
X149527995Y-112511345D01*
X149578503Y-112359821D01*
X149831040Y-112107284D01*
X150033071Y-112006269D01*
X152002868Y-111854746D02*
X152002868Y-111955762D01*
X151901852Y-112157792D01*
X151800837Y-112258807D01*
X151598808Y-112359822D01*
X151396777Y-112359823D01*
X151245254Y-112309315D01*
X150992715Y-112157792D01*
X150841193Y-112006269D01*
X150689670Y-111753731D01*
X150639162Y-111602208D01*
X150639163Y-111400177D01*
X150740177Y-111198147D01*
X150841192Y-111097132D01*
X151043223Y-110996117D01*
X151144239Y-110996117D01*
X153063528Y-110996116D02*
X152558452Y-111501192D01*
X151497792Y-110440532D01*
X142861371Y-113597259D02*
X143063401Y-113496243D01*
X143315939Y-113243705D01*
X143366447Y-113092183D01*
X143366447Y-112991167D01*
X143315939Y-112839644D01*
X143214924Y-112738629D01*
X143063402Y-112688121D01*
X142962386Y-112688121D01*
X142810864Y-112738629D01*
X142558325Y-112890152D01*
X142406802Y-112940660D01*
X142305787Y-112940659D01*
X142154264Y-112890152D01*
X142053249Y-112789137D01*
X142002742Y-112637614D01*
X142002741Y-112536599D01*
X142053249Y-112385075D01*
X142305786Y-112132538D01*
X142507817Y-112031522D01*
X143972538Y-112587106D02*
X142911878Y-111526446D01*
X143164416Y-111273908D01*
X143366447Y-111172893D01*
X143568478Y-111172893D01*
X143720000Y-111223400D01*
X143972539Y-111374924D01*
X144124061Y-111526446D01*
X144275584Y-111778985D01*
X144326092Y-111930507D01*
X144326092Y-112132538D01*
X144225076Y-112334568D01*
X143972538Y-112587106D01*
X144679645Y-111273908D02*
X145184721Y-110768832D01*
X144881675Y-111677969D02*
X144174569Y-110263755D01*
X145588782Y-110970862D01*
D12*
X127147620Y-75302381D02*
X127219049Y-75326190D01*
X127338096Y-75326190D01*
X127385715Y-75302381D01*
X127409525Y-75278571D01*
X127433334Y-75230952D01*
X127433334Y-75183333D01*
X127409525Y-75135714D01*
X127385715Y-75111905D01*
X127338096Y-75088095D01*
X127242858Y-75064286D01*
X127195239Y-75040476D01*
X127171430Y-75016667D01*
X127147620Y-74969048D01*
X127147620Y-74921429D01*
X127171430Y-74873810D01*
X127195239Y-74850000D01*
X127242858Y-74826190D01*
X127361906Y-74826190D01*
X127433334Y-74850000D01*
X127719048Y-75326190D02*
X127671429Y-75302381D01*
X127647620Y-75278571D01*
X127623810Y-75230952D01*
X127623810Y-75088095D01*
X127647620Y-75040476D01*
X127671429Y-75016667D01*
X127719048Y-74992857D01*
X127790477Y-74992857D01*
X127838096Y-75016667D01*
X127861905Y-75040476D01*
X127885715Y-75088095D01*
X127885715Y-75230952D01*
X127861905Y-75278571D01*
X127838096Y-75302381D01*
X127790477Y-75326190D01*
X127719048Y-75326190D01*
X128171429Y-75326190D02*
X128123810Y-75302381D01*
X128100001Y-75254762D01*
X128100001Y-74826190D01*
X128576191Y-75326190D02*
X128576191Y-74826190D01*
X128576191Y-75302381D02*
X128528572Y-75326190D01*
X128433334Y-75326190D01*
X128385715Y-75302381D01*
X128361906Y-75278571D01*
X128338096Y-75230952D01*
X128338096Y-75088095D01*
X128361906Y-75040476D01*
X128385715Y-75016667D01*
X128433334Y-74992857D01*
X128528572Y-74992857D01*
X128576191Y-75016667D01*
X129004763Y-75302381D02*
X128957144Y-75326190D01*
X128861906Y-75326190D01*
X128814287Y-75302381D01*
X128790477Y-75254762D01*
X128790477Y-75064286D01*
X128814287Y-75016667D01*
X128861906Y-74992857D01*
X128957144Y-74992857D01*
X129004763Y-75016667D01*
X129028572Y-75064286D01*
X129028572Y-75111905D01*
X128790477Y-75159524D01*
X129242858Y-75326190D02*
X129242858Y-74992857D01*
X129242858Y-75088095D02*
X129266667Y-75040476D01*
X129290477Y-75016667D01*
X129338096Y-74992857D01*
X129385715Y-74992857D01*
X130028572Y-74826190D02*
X130123810Y-74826190D01*
X130171429Y-74850000D01*
X130219048Y-74897619D01*
X130242857Y-74992857D01*
X130242857Y-75159524D01*
X130219048Y-75254762D01*
X130171429Y-75302381D01*
X130123810Y-75326190D01*
X130028572Y-75326190D01*
X129980953Y-75302381D01*
X129933334Y-75254762D01*
X129909524Y-75159524D01*
X129909524Y-74992857D01*
X129933334Y-74897619D01*
X129980953Y-74850000D01*
X130028572Y-74826190D01*
X130457144Y-74992857D02*
X130457144Y-75326190D01*
X130457144Y-75040476D02*
X130480953Y-75016667D01*
X130528572Y-74992857D01*
X130600001Y-74992857D01*
X130647620Y-75016667D01*
X130671429Y-75064286D01*
X130671429Y-75326190D01*
X130980953Y-75326190D02*
X130933334Y-75302381D01*
X130909525Y-75254762D01*
X130909525Y-74826190D01*
X131123811Y-74992857D02*
X131242858Y-75326190D01*
X131361906Y-74992857D02*
X131242858Y-75326190D01*
X131195239Y-75445238D01*
X131171430Y-75469048D01*
X131123811Y-75492857D01*
X132004762Y-75326190D02*
X131957143Y-75302381D01*
X131933334Y-75278571D01*
X131909524Y-75230952D01*
X131909524Y-75088095D01*
X131933334Y-75040476D01*
X131957143Y-75016667D01*
X132004762Y-74992857D01*
X132076191Y-74992857D01*
X132123810Y-75016667D01*
X132147619Y-75040476D01*
X132171429Y-75088095D01*
X132171429Y-75230952D01*
X132147619Y-75278571D01*
X132123810Y-75302381D01*
X132076191Y-75326190D01*
X132004762Y-75326190D01*
X132385715Y-74992857D02*
X132385715Y-75326190D01*
X132385715Y-75040476D02*
X132409524Y-75016667D01*
X132457143Y-74992857D01*
X132528572Y-74992857D01*
X132576191Y-75016667D01*
X132600000Y-75064286D01*
X132600000Y-75326190D01*
X133028572Y-75302381D02*
X132980953Y-75326190D01*
X132885715Y-75326190D01*
X132838096Y-75302381D01*
X132814286Y-75254762D01*
X132814286Y-75064286D01*
X132838096Y-75016667D01*
X132885715Y-74992857D01*
X132980953Y-74992857D01*
X133028572Y-75016667D01*
X133052381Y-75064286D01*
X133052381Y-75111905D01*
X132814286Y-75159524D01*
D10*
X127948572Y-76906190D02*
X127662858Y-76906190D01*
X127805715Y-76906190D02*
X127805715Y-76406190D01*
X127758096Y-76477619D01*
X127710477Y-76525238D01*
X127662858Y-76549048D01*
X128424762Y-76906190D02*
X128139048Y-76906190D01*
X128281905Y-76906190D02*
X128281905Y-76406190D01*
X128234286Y-76477619D01*
X128186667Y-76525238D01*
X128139048Y-76549048D01*
X128900952Y-76906190D02*
X128615238Y-76906190D01*
X128758095Y-76906190D02*
X128758095Y-76406190D01*
X128710476Y-76477619D01*
X128662857Y-76525238D01*
X128615238Y-76549048D01*
X129067619Y-76406190D02*
X129400952Y-76406190D01*
X129186666Y-76906190D01*
X127734286Y-78172857D02*
X127734286Y-78506190D01*
X127734286Y-78220476D02*
X127758095Y-78196667D01*
X127805714Y-78172857D01*
X127877143Y-78172857D01*
X127924762Y-78196667D01*
X127948571Y-78244286D01*
X127948571Y-78506190D01*
X128400952Y-78506190D02*
X128400952Y-78244286D01*
X128377143Y-78196667D01*
X128329524Y-78172857D01*
X128234286Y-78172857D01*
X128186667Y-78196667D01*
X128400952Y-78482381D02*
X128353333Y-78506190D01*
X128234286Y-78506190D01*
X128186667Y-78482381D01*
X128162857Y-78434762D01*
X128162857Y-78387143D01*
X128186667Y-78339524D01*
X128234286Y-78315714D01*
X128353333Y-78315714D01*
X128400952Y-78291905D01*
X128639048Y-78172857D02*
X128639048Y-78506190D01*
X128639048Y-78220476D02*
X128662857Y-78196667D01*
X128710476Y-78172857D01*
X128781905Y-78172857D01*
X128829524Y-78196667D01*
X128853333Y-78244286D01*
X128853333Y-78506190D01*
X129162857Y-78506190D02*
X129115238Y-78482381D01*
X129091429Y-78458571D01*
X129067619Y-78410952D01*
X129067619Y-78268095D01*
X129091429Y-78220476D01*
X129115238Y-78196667D01*
X129162857Y-78172857D01*
X129234286Y-78172857D01*
X129281905Y-78196667D01*
X129305714Y-78220476D01*
X129329524Y-78268095D01*
X129329524Y-78410952D01*
X129305714Y-78458571D01*
X129281905Y-78482381D01*
X129234286Y-78506190D01*
X129162857Y-78506190D01*
X157737132Y-111501192D02*
X157232056Y-112006268D01*
X157686624Y-112561852D01*
X157686625Y-112460837D01*
X157737132Y-112309314D01*
X157989671Y-112056776D01*
X158141194Y-112006269D01*
X158242209Y-112006268D01*
X158393731Y-112056776D01*
X158646269Y-112309314D01*
X158696777Y-112460837D01*
X158696777Y-112561852D01*
X158646269Y-112713375D01*
X158393731Y-112965913D01*
X158242209Y-113016421D01*
X158141193Y-113016421D01*
X158090685Y-111147639D02*
X159504899Y-111854746D01*
X158797792Y-110440532D01*
X165439163Y-112814391D02*
X165944239Y-112309314D01*
X165641193Y-113218451D02*
X164934086Y-111804238D01*
X166348300Y-112511345D01*
X166095762Y-110642562D02*
X165893731Y-110844593D01*
X165843224Y-110996116D01*
X165843224Y-111097132D01*
X165893731Y-111349669D01*
X166045254Y-111602208D01*
X166449315Y-112006269D01*
X166600838Y-112056776D01*
X166701853Y-112056777D01*
X166853376Y-112006268D01*
X167055407Y-111804238D01*
X167105914Y-111652715D01*
X167105914Y-111551700D01*
X167055407Y-111400177D01*
X166802868Y-111147639D01*
X166651346Y-111097131D01*
X166550331Y-111097132D01*
X166398808Y-111147639D01*
X166196777Y-111349669D01*
X166146269Y-111501193D01*
X166146269Y-111602207D01*
X166196777Y-111753731D01*
X120539163Y-113114391D02*
X121044239Y-112609314D01*
X120741193Y-113518451D02*
X120034086Y-112104238D01*
X121448300Y-112811345D01*
X120791701Y-111548655D02*
X120791701Y-111447639D01*
X120842208Y-111296116D01*
X121094746Y-111043578D01*
X121246269Y-110993070D01*
X121347285Y-110993070D01*
X121498808Y-111043578D01*
X121599823Y-111144593D01*
X121700839Y-111346624D01*
X121700838Y-112558806D01*
X122357437Y-111902207D01*
X111761548Y-112177792D02*
X111610025Y-112228299D01*
X111458502Y-112379822D01*
X111357487Y-112581852D01*
X111357487Y-112783883D01*
X111407995Y-112935406D01*
X111559518Y-113187945D01*
X111711040Y-113339467D01*
X111963579Y-113490990D01*
X112115101Y-113541498D01*
X112317132Y-113541497D01*
X112519162Y-113440482D01*
X112620177Y-113339467D01*
X112721193Y-113137437D01*
X112721193Y-113036421D01*
X112367640Y-112682868D01*
X112165609Y-112884899D01*
X113276777Y-112682868D02*
X112216117Y-111622207D01*
X113882868Y-112076776D01*
X112822208Y-111016116D01*
X114387945Y-111571700D02*
X113327285Y-110511039D01*
X113579823Y-110258501D01*
X113781853Y-110157487D01*
X113983884Y-110157486D01*
X114135407Y-110207994D01*
X114387946Y-110359517D01*
X114539468Y-110511039D01*
X114690991Y-110763578D01*
X114741499Y-110915101D01*
X114741498Y-111117132D01*
X114640483Y-111319161D01*
X114387945Y-111571700D01*
X172939163Y-112814391D02*
X173444239Y-112309314D01*
X173141193Y-113218451D02*
X172434086Y-111804238D01*
X173848300Y-112511345D01*
X173040178Y-111198146D02*
X173747285Y-110491039D01*
X174353376Y-112006268D01*
X128239163Y-112834391D02*
X128744239Y-112329314D01*
X128441193Y-113238451D02*
X127734086Y-111824238D01*
X129148300Y-112531345D01*
X128340178Y-111218146D02*
X128996777Y-110561547D01*
X129047285Y-111319162D01*
X129198808Y-111167639D01*
X129350331Y-111117132D01*
X129451346Y-111117131D01*
X129602868Y-111167639D01*
X129855407Y-111420177D01*
X129905914Y-111571700D01*
X129905914Y-111672715D01*
X129855407Y-111824238D01*
X129552360Y-112127284D01*
X129400838Y-112177792D01*
X129299823Y-112177791D01*
X134425964Y-112612360D02*
X135082563Y-111955761D01*
X135133071Y-112713376D01*
X135284594Y-112561852D01*
X135436117Y-112511345D01*
X135537132Y-112511345D01*
X135688655Y-112561852D01*
X135941193Y-112814391D01*
X135991701Y-112965913D01*
X135991701Y-113066929D01*
X135941193Y-113218451D01*
X135638147Y-113521497D01*
X135486624Y-113572005D01*
X135385609Y-113572005D01*
X135385609Y-111652715D02*
X136799822Y-112359822D01*
X136092715Y-110945609D01*
X136345254Y-110693070D02*
X137001852Y-110036472D01*
X137052360Y-110794086D01*
X137203883Y-110642563D01*
X137355407Y-110592056D01*
X137456422Y-110592055D01*
X137607944Y-110642563D01*
X137860482Y-110895101D01*
X137910990Y-111046624D01*
X137910990Y-111147640D01*
X137860482Y-111299162D01*
X137557436Y-111602208D01*
X137405914Y-111652716D01*
X137304899Y-111652715D01*
X153600000Y-94888095D02*
X153552381Y-94983333D01*
X153552381Y-95126190D01*
X153600000Y-95269048D01*
X153695238Y-95364286D01*
X153790476Y-95411905D01*
X153980952Y-95459524D01*
X154123810Y-95459524D01*
X154314286Y-95411905D01*
X154409524Y-95364286D01*
X154504762Y-95269048D01*
X154552381Y-95126190D01*
X154552381Y-95030952D01*
X154504762Y-94888095D01*
X154457143Y-94840476D01*
X154123810Y-94840476D01*
X154123810Y-95030952D01*
X153552381Y-93173809D02*
X153552381Y-93650000D01*
X154028571Y-93697619D01*
X153980952Y-93650000D01*
X153933333Y-93554762D01*
X153933333Y-93316666D01*
X153980952Y-93221428D01*
X154028571Y-93173809D01*
X154123810Y-93126190D01*
X154361905Y-93126190D01*
X154457143Y-93173809D01*
X154504762Y-93221428D01*
X154552381Y-93316666D01*
X154552381Y-93554762D01*
X154504762Y-93650000D01*
X154457143Y-93697619D01*
X153552381Y-92840476D02*
X154552381Y-92507143D01*
X153552381Y-92173809D01*
X154552381Y-91078571D02*
X153552381Y-91078571D01*
X153552381Y-90840476D01*
X153600000Y-90697618D01*
X153695238Y-90602380D01*
X153790476Y-90554761D01*
X153980952Y-90507142D01*
X154123810Y-90507142D01*
X154314286Y-90554761D01*
X154409524Y-90602380D01*
X154504762Y-90697618D01*
X154552381Y-90840476D01*
X154552381Y-91078571D01*
X153552381Y-89888095D02*
X153552381Y-89792856D01*
X153600000Y-89697618D01*
X153647619Y-89649999D01*
X153742857Y-89602380D01*
X153933333Y-89554761D01*
X154171429Y-89554761D01*
X154361905Y-89602380D01*
X154457143Y-89649999D01*
X154504762Y-89697618D01*
X154552381Y-89792856D01*
X154552381Y-89888095D01*
X154504762Y-89983333D01*
X154457143Y-90030952D01*
X154361905Y-90078571D01*
X154171429Y-90126190D01*
X153933333Y-90126190D01*
X153742857Y-90078571D01*
X153647619Y-90030952D01*
X153600000Y-89983333D01*
X153552381Y-89888095D01*
X154552381Y-88364285D02*
X153552381Y-88364285D01*
X153552381Y-88126190D01*
X153600000Y-87983332D01*
X153695238Y-87888094D01*
X153790476Y-87840475D01*
X153980952Y-87792856D01*
X154123810Y-87792856D01*
X154314286Y-87840475D01*
X154409524Y-87888094D01*
X154504762Y-87983332D01*
X154552381Y-88126190D01*
X154552381Y-88364285D01*
X154552381Y-86840475D02*
X154552381Y-87411904D01*
X154552381Y-87126190D02*
X153552381Y-87126190D01*
X153695238Y-87221428D01*
X153790476Y-87316666D01*
X153838095Y-87411904D01*
X153500000Y-106371428D02*
X153452381Y-106466666D01*
X153452381Y-106609523D01*
X153500000Y-106752381D01*
X153595238Y-106847619D01*
X153690476Y-106895238D01*
X153880952Y-106942857D01*
X154023810Y-106942857D01*
X154214286Y-106895238D01*
X154309524Y-106847619D01*
X154404762Y-106752381D01*
X154452381Y-106609523D01*
X154452381Y-106514285D01*
X154404762Y-106371428D01*
X154357143Y-106323809D01*
X154023810Y-106323809D01*
X154023810Y-106514285D01*
X153452381Y-104657142D02*
X153452381Y-105133333D01*
X153928571Y-105180952D01*
X153880952Y-105133333D01*
X153833333Y-105038095D01*
X153833333Y-104799999D01*
X153880952Y-104704761D01*
X153928571Y-104657142D01*
X154023810Y-104609523D01*
X154261905Y-104609523D01*
X154357143Y-104657142D01*
X154404762Y-104704761D01*
X154452381Y-104799999D01*
X154452381Y-105038095D01*
X154404762Y-105133333D01*
X154357143Y-105180952D01*
X153452381Y-104323809D02*
X154452381Y-103990476D01*
X153452381Y-103657142D01*
X154404762Y-102609523D02*
X154452381Y-102466666D01*
X154452381Y-102228570D01*
X154404762Y-102133332D01*
X154357143Y-102085713D01*
X154261905Y-102038094D01*
X154166667Y-102038094D01*
X154071429Y-102085713D01*
X154023810Y-102133332D01*
X153976190Y-102228570D01*
X153928571Y-102419047D01*
X153880952Y-102514285D01*
X153833333Y-102561904D01*
X153738095Y-102609523D01*
X153642857Y-102609523D01*
X153547619Y-102561904D01*
X153500000Y-102514285D01*
X153452381Y-102419047D01*
X153452381Y-102180951D01*
X153500000Y-102038094D01*
X154452381Y-101609523D02*
X153785714Y-101609523D01*
X153452381Y-101609523D02*
X153500000Y-101657142D01*
X153547619Y-101609523D01*
X153500000Y-101561904D01*
X153452381Y-101609523D01*
X153547619Y-101609523D01*
X153785714Y-100704761D02*
X154595238Y-100704761D01*
X154690476Y-100752380D01*
X154738095Y-100799999D01*
X154785714Y-100895238D01*
X154785714Y-101038095D01*
X154738095Y-101133333D01*
X154404762Y-100704761D02*
X154452381Y-100799999D01*
X154452381Y-100990476D01*
X154404762Y-101085714D01*
X154357143Y-101133333D01*
X154261905Y-101180952D01*
X153976190Y-101180952D01*
X153880952Y-101133333D01*
X153833333Y-101085714D01*
X153785714Y-100990476D01*
X153785714Y-100799999D01*
X153833333Y-100704761D01*
X115100000Y-107471428D02*
X115052381Y-107566666D01*
X115052381Y-107709523D01*
X115100000Y-107852381D01*
X115195238Y-107947619D01*
X115290476Y-107995238D01*
X115480952Y-108042857D01*
X115623810Y-108042857D01*
X115814286Y-107995238D01*
X115909524Y-107947619D01*
X116004762Y-107852381D01*
X116052381Y-107709523D01*
X116052381Y-107614285D01*
X116004762Y-107471428D01*
X115957143Y-107423809D01*
X115623810Y-107423809D01*
X115623810Y-107614285D01*
X115052381Y-105757142D02*
X115052381Y-106233333D01*
X115528571Y-106280952D01*
X115480952Y-106233333D01*
X115433333Y-106138095D01*
X115433333Y-105899999D01*
X115480952Y-105804761D01*
X115528571Y-105757142D01*
X115623810Y-105709523D01*
X115861905Y-105709523D01*
X115957143Y-105757142D01*
X116004762Y-105804761D01*
X116052381Y-105899999D01*
X116052381Y-106138095D01*
X116004762Y-106233333D01*
X115957143Y-106280952D01*
X115052381Y-105423809D02*
X116052381Y-105090476D01*
X115052381Y-104757142D01*
X116004762Y-103709523D02*
X116052381Y-103566666D01*
X116052381Y-103328570D01*
X116004762Y-103233332D01*
X115957143Y-103185713D01*
X115861905Y-103138094D01*
X115766667Y-103138094D01*
X115671429Y-103185713D01*
X115623810Y-103233332D01*
X115576190Y-103328570D01*
X115528571Y-103519047D01*
X115480952Y-103614285D01*
X115433333Y-103661904D01*
X115338095Y-103709523D01*
X115242857Y-103709523D01*
X115147619Y-103661904D01*
X115100000Y-103614285D01*
X115052381Y-103519047D01*
X115052381Y-103280951D01*
X115100000Y-103138094D01*
X116052381Y-102709523D02*
X115385714Y-102709523D01*
X115052381Y-102709523D02*
X115100000Y-102757142D01*
X115147619Y-102709523D01*
X115100000Y-102661904D01*
X115052381Y-102709523D01*
X115147619Y-102709523D01*
X115385714Y-101804761D02*
X116195238Y-101804761D01*
X116290476Y-101852380D01*
X116338095Y-101899999D01*
X116385714Y-101995238D01*
X116385714Y-102138095D01*
X116338095Y-102233333D01*
X116004762Y-101804761D02*
X116052381Y-101899999D01*
X116052381Y-102090476D01*
X116004762Y-102185714D01*
X115957143Y-102233333D01*
X115861905Y-102280952D01*
X115576190Y-102280952D01*
X115480952Y-102233333D01*
X115433333Y-102185714D01*
X115385714Y-102090476D01*
X115385714Y-101899999D01*
X115433333Y-101804761D01*
X115350000Y-79221428D02*
X115302381Y-79316666D01*
X115302381Y-79459523D01*
X115350000Y-79602381D01*
X115445238Y-79697619D01*
X115540476Y-79745238D01*
X115730952Y-79792857D01*
X115873810Y-79792857D01*
X116064286Y-79745238D01*
X116159524Y-79697619D01*
X116254762Y-79602381D01*
X116302381Y-79459523D01*
X116302381Y-79364285D01*
X116254762Y-79221428D01*
X116207143Y-79173809D01*
X115873810Y-79173809D01*
X115873810Y-79364285D01*
X115302381Y-77507142D02*
X115302381Y-77983333D01*
X115778571Y-78030952D01*
X115730952Y-77983333D01*
X115683333Y-77888095D01*
X115683333Y-77649999D01*
X115730952Y-77554761D01*
X115778571Y-77507142D01*
X115873810Y-77459523D01*
X116111905Y-77459523D01*
X116207143Y-77507142D01*
X116254762Y-77554761D01*
X116302381Y-77649999D01*
X116302381Y-77888095D01*
X116254762Y-77983333D01*
X116207143Y-78030952D01*
X115302381Y-77173809D02*
X116302381Y-76840476D01*
X115302381Y-76507142D01*
X116254762Y-75459523D02*
X116302381Y-75316666D01*
X116302381Y-75078570D01*
X116254762Y-74983332D01*
X116207143Y-74935713D01*
X116111905Y-74888094D01*
X116016667Y-74888094D01*
X115921429Y-74935713D01*
X115873810Y-74983332D01*
X115826190Y-75078570D01*
X115778571Y-75269047D01*
X115730952Y-75364285D01*
X115683333Y-75411904D01*
X115588095Y-75459523D01*
X115492857Y-75459523D01*
X115397619Y-75411904D01*
X115350000Y-75364285D01*
X115302381Y-75269047D01*
X115302381Y-75030951D01*
X115350000Y-74888094D01*
X116302381Y-74459523D02*
X115635714Y-74459523D01*
X115302381Y-74459523D02*
X115350000Y-74507142D01*
X115397619Y-74459523D01*
X115350000Y-74411904D01*
X115302381Y-74459523D01*
X115397619Y-74459523D01*
X115635714Y-73554761D02*
X116445238Y-73554761D01*
X116540476Y-73602380D01*
X116588095Y-73649999D01*
X116635714Y-73745238D01*
X116635714Y-73888095D01*
X116588095Y-73983333D01*
X116254762Y-73554761D02*
X116302381Y-73649999D01*
X116302381Y-73840476D01*
X116254762Y-73935714D01*
X116207143Y-73983333D01*
X116111905Y-74030952D01*
X115826190Y-74030952D01*
X115730952Y-73983333D01*
X115683333Y-73935714D01*
X115635714Y-73840476D01*
X115635714Y-73649999D01*
X115683333Y-73554761D01*
D13*
X184700000Y-79930500D02*
X185200000Y-79930500D01*
X182700000Y-77430500D02*
G75*
G03X182700000Y-77430500I-2000000J0D01*
G01*
X182700000Y-82430500D02*
G75*
G03X182700000Y-82430500I-2000000J0D01*
G01*
X183200000Y-84930500D02*
X183200000Y-74930500D01*
X178300000Y-84930500D02*
X178300000Y-74930500D01*
X184700000Y-84930500D02*
X184700000Y-74930500D01*
X185200000Y-84930500D02*
X185200000Y-74930500D01*
X185200000Y-74930500D02*
X175400000Y-74930500D01*
X175400000Y-74930500D02*
X175400000Y-84930500D01*
X175400000Y-84930500D02*
X185200000Y-84930500D01*
D14*
X145120000Y-72330000D02*
X146120000Y-72330000D01*
X146120000Y-70630000D02*
X145120000Y-70630000D01*
X162070000Y-65380000D02*
X162070000Y-64380000D01*
X160370000Y-64380000D02*
X160370000Y-65380000D01*
X145120000Y-74430000D02*
X146120000Y-74430000D01*
X146120000Y-72730000D02*
X145120000Y-72730000D01*
X114814888Y-65875096D02*
G75*
G03X114830000Y-68900000I-2484888J-1524904D01*
G01*
X114830000Y-65900000D02*
X114830000Y-68900000D01*
X114847936Y-67400000D02*
G75*
G03X114847936Y-67400000I-2517936J0D01*
G01*
X121814888Y-65875096D02*
G75*
G03X121830000Y-68900000I-2484888J-1524904D01*
G01*
X121830000Y-65900000D02*
X121830000Y-68900000D01*
X121847936Y-67400000D02*
G75*
G03X121847936Y-67400000I-2517936J0D01*
G01*
X128814888Y-65875096D02*
G75*
G03X128830000Y-68900000I-2484888J-1524904D01*
G01*
X128830000Y-65900000D02*
X128830000Y-68900000D01*
X128847936Y-67400000D02*
G75*
G03X128847936Y-67400000I-2517936J0D01*
G01*
D13*
X147590500Y-92200500D02*
X152670500Y-92200500D01*
X147590500Y-89660500D02*
X152670500Y-89660500D01*
X150130500Y-94740500D02*
X150130500Y-87120500D01*
X152670500Y-94740500D02*
X147590500Y-94740500D01*
X147590500Y-94740500D02*
X147590500Y-87120500D01*
X147590500Y-87120500D02*
X152670500Y-87120500D01*
X109490500Y-99820500D02*
X152670500Y-99820500D01*
X152670500Y-82040500D02*
X109490500Y-82040500D01*
X152670500Y-82040500D02*
X152670500Y-99820500D01*
X109490500Y-82040500D02*
X109490500Y-99820500D01*
X152670500Y-98550500D02*
G75*
G03X152670500Y-98550500I-1270000J0D01*
G01*
X152670500Y-83310500D02*
G75*
G03X152670500Y-83310500I-1270000J0D01*
G01*
X112030500Y-98550500D02*
G75*
G03X112030500Y-98550500I-1270000J0D01*
G01*
X112030500Y-83310500D02*
G75*
G03X112030500Y-83310500I-1270000J0D01*
G01*
X112030500Y-97280500D02*
X150130500Y-97280500D01*
X150130500Y-84580500D02*
X112030500Y-84580500D01*
X112030500Y-82040500D02*
X112030500Y-84580500D01*
X112030500Y-97280500D02*
X112030500Y-99820500D01*
X150130500Y-99820500D02*
X150130500Y-97280500D01*
X150130500Y-82040500D02*
X150130500Y-84580500D01*
D14*
X155330000Y-102630000D02*
X155330000Y-107710000D01*
X155330000Y-107710000D02*
X157870000Y-107710000D01*
X157870000Y-107710000D02*
X157870000Y-102630000D01*
X158150000Y-99810000D02*
X158150000Y-101360000D01*
X157870000Y-102630000D02*
X155330000Y-102630000D01*
X155050000Y-101360000D02*
X155050000Y-99810000D01*
X155050000Y-99810000D02*
X158150000Y-99810000D01*
X155330000Y-88670000D02*
X155330000Y-96290000D01*
X157870000Y-88670000D02*
X157870000Y-96290000D01*
X158150000Y-85850000D02*
X158150000Y-87400000D01*
X155330000Y-96290000D02*
X157870000Y-96290000D01*
X157870000Y-88670000D02*
X155330000Y-88670000D01*
X155050000Y-87400000D02*
X155050000Y-85850000D01*
X155050000Y-85850000D02*
X158150000Y-85850000D01*
X158900000Y-73600000D02*
X158900000Y-72400000D01*
X154300000Y-73500000D02*
X154300000Y-72600000D01*
X153650000Y-72550000D02*
X154300000Y-72550000D01*
X154300000Y-73450000D02*
X154300000Y-78250000D01*
X153650000Y-80550000D02*
X153500000Y-80550000D01*
X153500000Y-80550000D02*
X153500000Y-80400000D01*
X153500000Y-78400000D02*
X153500000Y-78250000D01*
X158600000Y-80550000D02*
X158750000Y-80550000D01*
X158750000Y-80550000D02*
X158900000Y-80550000D01*
X158900000Y-80550000D02*
X158900000Y-75400000D01*
X158900000Y-70400000D02*
X158900000Y-72500000D01*
X153650000Y-72550000D02*
X153500000Y-72550000D01*
X153500000Y-72550000D02*
X153500000Y-72400000D01*
X153500000Y-70400000D02*
X153500000Y-70250000D01*
X153500000Y-70250000D02*
X153650000Y-70250000D01*
X158600000Y-70250000D02*
X158900000Y-70250000D01*
X158900000Y-70250000D02*
X158900000Y-70350000D01*
X158900000Y-70350000D02*
X158900000Y-70400000D01*
X154300000Y-73650000D02*
X153500000Y-73650000D01*
X153500000Y-73650000D02*
X153500000Y-77150000D01*
X153500000Y-77150000D02*
X154300000Y-77150000D01*
X158900000Y-73450000D02*
X158900000Y-75400000D01*
X153650000Y-70250000D02*
X158600000Y-70250000D01*
X153650000Y-80550000D02*
X158600000Y-80550000D01*
X153500000Y-78250000D02*
X154300000Y-78250000D01*
X153500000Y-70400000D02*
X153500000Y-72400000D01*
X153500000Y-78400000D02*
X153500000Y-80400000D01*
D13*
X184700000Y-101930500D02*
X185200000Y-101930500D01*
X182700000Y-99430500D02*
G75*
G03X182700000Y-99430500I-2000000J0D01*
G01*
X182700000Y-104430500D02*
G75*
G03X182700000Y-104430500I-2000000J0D01*
G01*
X183200000Y-106930500D02*
X183200000Y-96930500D01*
X178300000Y-106930500D02*
X178300000Y-96930500D01*
X184700000Y-106930500D02*
X184700000Y-96930500D01*
X185200000Y-106930500D02*
X185200000Y-96930500D01*
X185200000Y-96930500D02*
X175400000Y-96930500D01*
X175400000Y-96930500D02*
X175400000Y-106930500D01*
X175400000Y-106930500D02*
X185200000Y-106930500D01*
X184700000Y-90930500D02*
X185200000Y-90930500D01*
X182700000Y-88430500D02*
G75*
G03X182700000Y-88430500I-2000000J0D01*
G01*
X182700000Y-93430500D02*
G75*
G03X182700000Y-93430500I-2000000J0D01*
G01*
X183200000Y-95930500D02*
X183200000Y-85930500D01*
X178300000Y-95930500D02*
X178300000Y-85930500D01*
X184700000Y-95930500D02*
X184700000Y-85930500D01*
X185200000Y-95930500D02*
X185200000Y-85930500D01*
X185200000Y-85930500D02*
X175400000Y-85930500D01*
X175400000Y-85930500D02*
X175400000Y-95930500D01*
X175400000Y-95930500D02*
X185200000Y-95930500D01*
D14*
X169900000Y-71950000D02*
X170900000Y-71950000D01*
X170900000Y-70250000D02*
X169900000Y-70250000D01*
X112820000Y-62030000D02*
X111820000Y-62030000D01*
X111820000Y-63730000D02*
X112820000Y-63730000D01*
X119920000Y-62030000D02*
X118920000Y-62030000D01*
X118920000Y-63730000D02*
X119920000Y-63730000D01*
X126820000Y-62030000D02*
X125820000Y-62030000D01*
X125820000Y-63730000D02*
X126820000Y-63730000D01*
X139620000Y-70630000D02*
X138620000Y-70630000D01*
X138620000Y-72330000D02*
X139620000Y-72330000D01*
X139620000Y-72730000D02*
X138620000Y-72730000D01*
X138620000Y-74430000D02*
X139620000Y-74430000D01*
D15*
X167372000Y-68128000D02*
X167372000Y-62032000D01*
X167372000Y-62032000D02*
X173468000Y-62032000D01*
X173468000Y-62032000D02*
X173468000Y-68128000D01*
X173468000Y-68128000D02*
X167372000Y-68128000D01*
D16*
X171223219Y-65080000D02*
G75*
G03X171223219Y-65080000I-803219J0D01*
G01*
D14*
X117330000Y-103670000D02*
X117330000Y-108750000D01*
X117330000Y-108750000D02*
X119870000Y-108750000D01*
X119870000Y-108750000D02*
X119870000Y-103670000D01*
X120150000Y-100850000D02*
X120150000Y-102400000D01*
X119870000Y-103670000D02*
X117330000Y-103670000D01*
X117050000Y-102400000D02*
X117050000Y-100850000D01*
X117050000Y-100850000D02*
X120150000Y-100850000D01*
X117330000Y-74590000D02*
X117330000Y-79670000D01*
X117330000Y-79670000D02*
X119870000Y-79670000D01*
X119870000Y-79670000D02*
X119870000Y-74590000D01*
X120150000Y-71770000D02*
X120150000Y-73320000D01*
X119870000Y-74590000D02*
X117330000Y-74590000D01*
X117050000Y-73320000D02*
X117050000Y-71770000D01*
X117050000Y-71770000D02*
X120150000Y-71770000D01*
X155874000Y-68206000D02*
X158922000Y-68206000D01*
X158922000Y-68206000D02*
X158922000Y-61094000D01*
X158922000Y-61094000D02*
X155874000Y-61094000D01*
X152826000Y-68206000D02*
X152064000Y-68206000D01*
X152064000Y-68206000D02*
X149778000Y-66682000D01*
X149778000Y-66682000D02*
X149778000Y-62618000D01*
X149778000Y-62618000D02*
X152064000Y-61094000D01*
X152064000Y-61094000D02*
X152826000Y-61094000D01*
X129800000Y-77775000D02*
X130800000Y-77775000D01*
X130800000Y-78925000D02*
X129800000Y-78925000D01*
X129800000Y-76025000D02*
X130800000Y-76025000D01*
X130800000Y-77175000D02*
X129800000Y-77175000D01*
X149500000Y-80950000D02*
X135300000Y-80950000D01*
X149500000Y-80950000D02*
X149500000Y-62650000D01*
X149500000Y-62650000D02*
X135300000Y-62650000D01*
X135300000Y-62650000D02*
X135300000Y-80950000D01*
D10*
X136592000Y-68017400D02*
X136592000Y-63517400D01*
X136592000Y-63517400D02*
X138592000Y-63517400D01*
X138592000Y-63517400D02*
X138592000Y-68017400D01*
X138592000Y-68017400D02*
X140592000Y-68017400D01*
X140592000Y-68017400D02*
X140592000Y-63517400D01*
X140592000Y-63517400D02*
X142592000Y-63517400D01*
X142592000Y-63517400D02*
X142592000Y-68017400D01*
X142592000Y-68017400D02*
X144592000Y-68017400D01*
X144592000Y-68017400D02*
X144592000Y-63517400D01*
X144592000Y-63517400D02*
X148092000Y-63517400D01*
D17*
X137330000Y-77880000D02*
X137330000Y-80420000D01*
X137330000Y-80420000D02*
X139870000Y-80420000D01*
X139870000Y-80420000D02*
X147490000Y-80420000D01*
X147490000Y-80420000D02*
X147490000Y-75340000D01*
X147490000Y-75340000D02*
X137330000Y-75340000D01*
X137330000Y-75340000D02*
X137330000Y-77880000D01*
D14*
X162745000Y-84805000D02*
X162745000Y-85140000D01*
X170495000Y-84805000D02*
X170495000Y-85140000D01*
X170495000Y-97955000D02*
X170495000Y-97620000D01*
X162745000Y-97955000D02*
X162745000Y-97620000D01*
X162745000Y-84805000D02*
X170495000Y-84805000D01*
X162745000Y-97955000D02*
X170495000Y-97955000D01*
X162745000Y-85140000D02*
X160945000Y-85140000D01*
D11*
X181498571Y-74094285D02*
X179998571Y-74094285D01*
X181070000Y-73594285D01*
X179998571Y-73094285D01*
X181498571Y-73094285D01*
X181498571Y-71594285D02*
X181498571Y-72451428D01*
X181498571Y-72022856D02*
X179998571Y-72022856D01*
X180212857Y-72165713D01*
X180355714Y-72308571D01*
X180427143Y-72451428D01*
D14*
X148957143Y-71666666D02*
X149004762Y-71714285D01*
X149052381Y-71857142D01*
X149052381Y-71952380D01*
X149004762Y-72095238D01*
X148909524Y-72190476D01*
X148814286Y-72238095D01*
X148623810Y-72285714D01*
X148480952Y-72285714D01*
X148290476Y-72238095D01*
X148195238Y-72190476D01*
X148100000Y-72095238D01*
X148052381Y-71952380D01*
X148052381Y-71857142D01*
X148100000Y-71714285D01*
X148147619Y-71666666D01*
X149052381Y-70714285D02*
X149052381Y-71285714D01*
X149052381Y-71000000D02*
X148052381Y-71000000D01*
X148195238Y-71095238D01*
X148290476Y-71190476D01*
X148338095Y-71285714D01*
X163677143Y-65046666D02*
X163724762Y-65094285D01*
X163772381Y-65237142D01*
X163772381Y-65332380D01*
X163724762Y-65475238D01*
X163629524Y-65570476D01*
X163534286Y-65618095D01*
X163343810Y-65665714D01*
X163200952Y-65665714D01*
X163010476Y-65618095D01*
X162915238Y-65570476D01*
X162820000Y-65475238D01*
X162772381Y-65332380D01*
X162772381Y-65237142D01*
X162820000Y-65094285D01*
X162867619Y-65046666D01*
X162867619Y-64665714D02*
X162820000Y-64618095D01*
X162772381Y-64522857D01*
X162772381Y-64284761D01*
X162820000Y-64189523D01*
X162867619Y-64141904D01*
X162962857Y-64094285D01*
X163058095Y-64094285D01*
X163200952Y-64141904D01*
X163772381Y-64713333D01*
X163772381Y-64094285D01*
X148957143Y-73766666D02*
X149004762Y-73814285D01*
X149052381Y-73957142D01*
X149052381Y-74052380D01*
X149004762Y-74195238D01*
X148909524Y-74290476D01*
X148814286Y-74338095D01*
X148623810Y-74385714D01*
X148480952Y-74385714D01*
X148290476Y-74338095D01*
X148195238Y-74290476D01*
X148100000Y-74195238D01*
X148052381Y-74052380D01*
X148052381Y-73957142D01*
X148100000Y-73814285D01*
X148147619Y-73766666D01*
X148052381Y-73433333D02*
X148052381Y-72814285D01*
X148433333Y-73147619D01*
X148433333Y-73004761D01*
X148480952Y-72909523D01*
X148528571Y-72861904D01*
X148623810Y-72814285D01*
X148861905Y-72814285D01*
X148957143Y-72861904D01*
X149004762Y-72909523D01*
X149052381Y-73004761D01*
X149052381Y-73290476D01*
X149004762Y-73385714D01*
X148957143Y-73433333D01*
D10*
X111800001Y-71216667D02*
X111566667Y-70883333D01*
X111400001Y-71216667D02*
X111400001Y-70516667D01*
X111666667Y-70516667D01*
X111733334Y-70550000D01*
X111766667Y-70583333D01*
X111800001Y-70650000D01*
X111800001Y-70750000D01*
X111766667Y-70816667D01*
X111733334Y-70850000D01*
X111666667Y-70883333D01*
X111400001Y-70883333D01*
X112366667Y-71183333D02*
X112300001Y-71216667D01*
X112166667Y-71216667D01*
X112100001Y-71183333D01*
X112066667Y-71116667D01*
X112066667Y-70850000D01*
X112100001Y-70783333D01*
X112166667Y-70750000D01*
X112300001Y-70750000D01*
X112366667Y-70783333D01*
X112400001Y-70850000D01*
X112400001Y-70916667D01*
X112066667Y-70983333D01*
X113000001Y-71216667D02*
X113000001Y-70516667D01*
X113000001Y-71183333D02*
X112933334Y-71216667D01*
X112800001Y-71216667D01*
X112733334Y-71183333D01*
X112700001Y-71150000D01*
X112666667Y-71083333D01*
X112666667Y-70883333D01*
X112700001Y-70816667D01*
X112733334Y-70783333D01*
X112800001Y-70750000D01*
X112933334Y-70750000D01*
X113000001Y-70783333D01*
X118350000Y-70550000D02*
X118283334Y-70516667D01*
X118183334Y-70516667D01*
X118083334Y-70550000D01*
X118016667Y-70616667D01*
X117983334Y-70683333D01*
X117950000Y-70816667D01*
X117950000Y-70916667D01*
X117983334Y-71050000D01*
X118016667Y-71116667D01*
X118083334Y-71183333D01*
X118183334Y-71216667D01*
X118250000Y-71216667D01*
X118350000Y-71183333D01*
X118383334Y-71150000D01*
X118383334Y-70916667D01*
X118250000Y-70916667D01*
X118683334Y-71216667D02*
X118683334Y-70750000D01*
X118683334Y-70883333D02*
X118716667Y-70816667D01*
X118750000Y-70783333D01*
X118816667Y-70750000D01*
X118883334Y-70750000D01*
X119383333Y-71183333D02*
X119316667Y-71216667D01*
X119183333Y-71216667D01*
X119116667Y-71183333D01*
X119083333Y-71116667D01*
X119083333Y-70850000D01*
X119116667Y-70783333D01*
X119183333Y-70750000D01*
X119316667Y-70750000D01*
X119383333Y-70783333D01*
X119416667Y-70850000D01*
X119416667Y-70916667D01*
X119083333Y-70983333D01*
X119983333Y-71183333D02*
X119916667Y-71216667D01*
X119783333Y-71216667D01*
X119716667Y-71183333D01*
X119683333Y-71116667D01*
X119683333Y-70850000D01*
X119716667Y-70783333D01*
X119783333Y-70750000D01*
X119916667Y-70750000D01*
X119983333Y-70783333D01*
X120016667Y-70850000D01*
X120016667Y-70916667D01*
X119683333Y-70983333D01*
X120316667Y-70750000D02*
X120316667Y-71216667D01*
X120316667Y-70816667D02*
X120350000Y-70783333D01*
X120416667Y-70750000D01*
X120516667Y-70750000D01*
X120583333Y-70783333D01*
X120616667Y-70850000D01*
X120616667Y-71216667D01*
X125650000Y-70950000D02*
X125750000Y-70983333D01*
X125783333Y-71016667D01*
X125816667Y-71083333D01*
X125816667Y-71183333D01*
X125783333Y-71250000D01*
X125750000Y-71283333D01*
X125683333Y-71316667D01*
X125416667Y-71316667D01*
X125416667Y-70616667D01*
X125650000Y-70616667D01*
X125716667Y-70650000D01*
X125750000Y-70683333D01*
X125783333Y-70750000D01*
X125783333Y-70816667D01*
X125750000Y-70883333D01*
X125716667Y-70916667D01*
X125650000Y-70950000D01*
X125416667Y-70950000D01*
X126216667Y-71316667D02*
X126150000Y-71283333D01*
X126116667Y-71216667D01*
X126116667Y-70616667D01*
X126783334Y-70850000D02*
X126783334Y-71316667D01*
X126483334Y-70850000D02*
X126483334Y-71216667D01*
X126516667Y-71283333D01*
X126583334Y-71316667D01*
X126683334Y-71316667D01*
X126750000Y-71283333D01*
X126783334Y-71250000D01*
X127383333Y-71283333D02*
X127316667Y-71316667D01*
X127183333Y-71316667D01*
X127116667Y-71283333D01*
X127083333Y-71216667D01*
X127083333Y-70950000D01*
X127116667Y-70883333D01*
X127183333Y-70850000D01*
X127316667Y-70850000D01*
X127383333Y-70883333D01*
X127416667Y-70950000D01*
X127416667Y-71016667D01*
X127083333Y-71083333D01*
X159754762Y-105717143D02*
X159802381Y-105574286D01*
X159802381Y-105336190D01*
X159754762Y-105240952D01*
X159707143Y-105193333D01*
X159611905Y-105145714D01*
X159516667Y-105145714D01*
X159421429Y-105193333D01*
X159373810Y-105240952D01*
X159326190Y-105336190D01*
X159278571Y-105526667D01*
X159230952Y-105621905D01*
X159183333Y-105669524D01*
X159088095Y-105717143D01*
X158992857Y-105717143D01*
X158897619Y-105669524D01*
X158850000Y-105621905D01*
X158802381Y-105526667D01*
X158802381Y-105288571D01*
X158850000Y-105145714D01*
X159754762Y-104336190D02*
X159802381Y-104431428D01*
X159802381Y-104621905D01*
X159754762Y-104717143D01*
X159659524Y-104764762D01*
X159278571Y-104764762D01*
X159183333Y-104717143D01*
X159135714Y-104621905D01*
X159135714Y-104431428D01*
X159183333Y-104336190D01*
X159278571Y-104288571D01*
X159373810Y-104288571D01*
X159469048Y-104764762D01*
X159802381Y-103860000D02*
X159135714Y-103860000D01*
X159326190Y-103860000D02*
X159230952Y-103812381D01*
X159183333Y-103764762D01*
X159135714Y-103669524D01*
X159135714Y-103574285D01*
X159135714Y-103336190D02*
X159802381Y-103098095D01*
X159135714Y-102859999D01*
X159802381Y-102336190D02*
X159754762Y-102431428D01*
X159707143Y-102479047D01*
X159611905Y-102526666D01*
X159326190Y-102526666D01*
X159230952Y-102479047D01*
X159183333Y-102431428D01*
X159135714Y-102336190D01*
X159135714Y-102193332D01*
X159183333Y-102098094D01*
X159230952Y-102050475D01*
X159326190Y-102002856D01*
X159611905Y-102002856D01*
X159707143Y-102050475D01*
X159754762Y-102098094D01*
X159802381Y-102193332D01*
X159802381Y-102336190D01*
X159802381Y-91923809D02*
X158802381Y-91923809D01*
X158802381Y-91257143D02*
X158802381Y-91066666D01*
X158850000Y-90971428D01*
X158945238Y-90876190D01*
X159135714Y-90828571D01*
X159469048Y-90828571D01*
X159659524Y-90876190D01*
X159754762Y-90971428D01*
X159802381Y-91066666D01*
X159802381Y-91257143D01*
X159754762Y-91352381D01*
X159659524Y-91447619D01*
X159469048Y-91495238D01*
X159135714Y-91495238D01*
X158945238Y-91447619D01*
X158850000Y-91352381D01*
X158802381Y-91257143D01*
X159600000Y-76709524D02*
X159552381Y-76804762D01*
X159552381Y-76947619D01*
X159600000Y-77090477D01*
X159695238Y-77185715D01*
X159790476Y-77233334D01*
X159980952Y-77280953D01*
X160123810Y-77280953D01*
X160314286Y-77233334D01*
X160409524Y-77185715D01*
X160504762Y-77090477D01*
X160552381Y-76947619D01*
X160552381Y-76852381D01*
X160504762Y-76709524D01*
X160457143Y-76661905D01*
X160123810Y-76661905D01*
X160123810Y-76852381D01*
X160552381Y-76233334D02*
X159885714Y-76233334D01*
X160076190Y-76233334D02*
X159980952Y-76185715D01*
X159933333Y-76138096D01*
X159885714Y-76042858D01*
X159885714Y-75947619D01*
X160552381Y-75471429D02*
X160504762Y-75566667D01*
X160457143Y-75614286D01*
X160361905Y-75661905D01*
X160076190Y-75661905D01*
X159980952Y-75614286D01*
X159933333Y-75566667D01*
X159885714Y-75471429D01*
X159885714Y-75328571D01*
X159933333Y-75233333D01*
X159980952Y-75185714D01*
X160076190Y-75138095D01*
X160361905Y-75138095D01*
X160457143Y-75185714D01*
X160504762Y-75233333D01*
X160552381Y-75328571D01*
X160552381Y-75471429D01*
X159885714Y-74804762D02*
X160552381Y-74566667D01*
X159885714Y-74328571D01*
X160504762Y-73566666D02*
X160552381Y-73661904D01*
X160552381Y-73852381D01*
X160504762Y-73947619D01*
X160409524Y-73995238D01*
X160028571Y-73995238D01*
X159933333Y-73947619D01*
X159885714Y-73852381D01*
X159885714Y-73661904D01*
X159933333Y-73566666D01*
X160028571Y-73519047D01*
X160123810Y-73519047D01*
X160219048Y-73995238D01*
D11*
X180998571Y-109994285D02*
X179498571Y-109994285D01*
X180570000Y-109494285D01*
X179498571Y-108994285D01*
X180998571Y-108994285D01*
X179641429Y-108351428D02*
X179570000Y-108279999D01*
X179498571Y-108137142D01*
X179498571Y-107779999D01*
X179570000Y-107637142D01*
X179641429Y-107565713D01*
X179784286Y-107494285D01*
X179927143Y-107494285D01*
X180141429Y-107565713D01*
X180998571Y-108422856D01*
X180998571Y-107494285D01*
D14*
X170233334Y-73652381D02*
X169900000Y-73176190D01*
X169661905Y-73652381D02*
X169661905Y-72652381D01*
X170042858Y-72652381D01*
X170138096Y-72700000D01*
X170185715Y-72747619D01*
X170233334Y-72842857D01*
X170233334Y-72985714D01*
X170185715Y-73080952D01*
X170138096Y-73128571D01*
X170042858Y-73176190D01*
X169661905Y-73176190D01*
X171185715Y-73652381D02*
X170614286Y-73652381D01*
X170900000Y-73652381D02*
X170900000Y-72652381D01*
X170804762Y-72795238D01*
X170709524Y-72890476D01*
X170614286Y-72938095D01*
X109872381Y-63046666D02*
X109396190Y-63380000D01*
X109872381Y-63618095D02*
X108872381Y-63618095D01*
X108872381Y-63237142D01*
X108920000Y-63141904D01*
X108967619Y-63094285D01*
X109062857Y-63046666D01*
X109205714Y-63046666D01*
X109300952Y-63094285D01*
X109348571Y-63141904D01*
X109396190Y-63237142D01*
X109396190Y-63618095D01*
X108967619Y-62665714D02*
X108920000Y-62618095D01*
X108872381Y-62522857D01*
X108872381Y-62284761D01*
X108920000Y-62189523D01*
X108967619Y-62141904D01*
X109062857Y-62094285D01*
X109158095Y-62094285D01*
X109300952Y-62141904D01*
X109872381Y-62713333D01*
X109872381Y-62094285D01*
X116972381Y-63046666D02*
X116496190Y-63380000D01*
X116972381Y-63618095D02*
X115972381Y-63618095D01*
X115972381Y-63237142D01*
X116020000Y-63141904D01*
X116067619Y-63094285D01*
X116162857Y-63046666D01*
X116305714Y-63046666D01*
X116400952Y-63094285D01*
X116448571Y-63141904D01*
X116496190Y-63237142D01*
X116496190Y-63618095D01*
X115972381Y-62713333D02*
X115972381Y-62094285D01*
X116353333Y-62427619D01*
X116353333Y-62284761D01*
X116400952Y-62189523D01*
X116448571Y-62141904D01*
X116543810Y-62094285D01*
X116781905Y-62094285D01*
X116877143Y-62141904D01*
X116924762Y-62189523D01*
X116972381Y-62284761D01*
X116972381Y-62570476D01*
X116924762Y-62665714D01*
X116877143Y-62713333D01*
X123772381Y-63046666D02*
X123296190Y-63380000D01*
X123772381Y-63618095D02*
X122772381Y-63618095D01*
X122772381Y-63237142D01*
X122820000Y-63141904D01*
X122867619Y-63094285D01*
X122962857Y-63046666D01*
X123105714Y-63046666D01*
X123200952Y-63094285D01*
X123248571Y-63141904D01*
X123296190Y-63237142D01*
X123296190Y-63618095D01*
X123105714Y-62189523D02*
X123772381Y-62189523D01*
X122724762Y-62427619D02*
X123439048Y-62665714D01*
X123439048Y-62046666D01*
X136752381Y-71666666D02*
X136276190Y-72000000D01*
X136752381Y-72238095D02*
X135752381Y-72238095D01*
X135752381Y-71857142D01*
X135800000Y-71761904D01*
X135847619Y-71714285D01*
X135942857Y-71666666D01*
X136085714Y-71666666D01*
X136180952Y-71714285D01*
X136228571Y-71761904D01*
X136276190Y-71857142D01*
X136276190Y-72238095D01*
X135752381Y-70761904D02*
X135752381Y-71238095D01*
X136228571Y-71285714D01*
X136180952Y-71238095D01*
X136133333Y-71142857D01*
X136133333Y-70904761D01*
X136180952Y-70809523D01*
X136228571Y-70761904D01*
X136323810Y-70714285D01*
X136561905Y-70714285D01*
X136657143Y-70761904D01*
X136704762Y-70809523D01*
X136752381Y-70904761D01*
X136752381Y-71142857D01*
X136704762Y-71238095D01*
X136657143Y-71285714D01*
X136752381Y-73766666D02*
X136276190Y-74100000D01*
X136752381Y-74338095D02*
X135752381Y-74338095D01*
X135752381Y-73957142D01*
X135800000Y-73861904D01*
X135847619Y-73814285D01*
X135942857Y-73766666D01*
X136085714Y-73766666D01*
X136180952Y-73814285D01*
X136228571Y-73861904D01*
X136276190Y-73957142D01*
X136276190Y-74338095D01*
X135752381Y-72909523D02*
X135752381Y-73100000D01*
X135800000Y-73195238D01*
X135847619Y-73242857D01*
X135990476Y-73338095D01*
X136180952Y-73385714D01*
X136561905Y-73385714D01*
X136657143Y-73338095D01*
X136704762Y-73290476D01*
X136752381Y-73195238D01*
X136752381Y-73004761D01*
X136704762Y-72909523D01*
X136657143Y-72861904D01*
X136561905Y-72814285D01*
X136323810Y-72814285D01*
X136228571Y-72861904D01*
X136180952Y-72909523D01*
X136133333Y-73004761D01*
X136133333Y-73195238D01*
X136180952Y-73290476D01*
X136228571Y-73338095D01*
X136323810Y-73385714D01*
D10*
X176204762Y-68461905D02*
X176252381Y-68319048D01*
X176252381Y-68080952D01*
X176204762Y-67985714D01*
X176157143Y-67938095D01*
X176061905Y-67890476D01*
X175966667Y-67890476D01*
X175871429Y-67938095D01*
X175823810Y-67985714D01*
X175776190Y-68080952D01*
X175728571Y-68271429D01*
X175680952Y-68366667D01*
X175633333Y-68414286D01*
X175538095Y-68461905D01*
X175442857Y-68461905D01*
X175347619Y-68414286D01*
X175300000Y-68366667D01*
X175252381Y-68271429D01*
X175252381Y-68033333D01*
X175300000Y-67890476D01*
X175252381Y-67557143D02*
X176252381Y-67319048D01*
X175538095Y-67128571D01*
X176252381Y-66938095D01*
X175252381Y-66700000D01*
X176347619Y-66557143D02*
X176347619Y-65795238D01*
X176252381Y-65557143D02*
X175252381Y-65557143D01*
X175252381Y-65176190D01*
X175300000Y-65080952D01*
X175347619Y-65033333D01*
X175442857Y-64985714D01*
X175585714Y-64985714D01*
X175680952Y-65033333D01*
X175728571Y-65080952D01*
X175776190Y-65176190D01*
X175776190Y-65557143D01*
X175252381Y-64557143D02*
X176061905Y-64557143D01*
X176157143Y-64509524D01*
X176204762Y-64461905D01*
X176252381Y-64366667D01*
X176252381Y-64176190D01*
X176204762Y-64080952D01*
X176157143Y-64033333D01*
X176061905Y-63985714D01*
X175252381Y-63985714D01*
X176204762Y-63557143D02*
X176252381Y-63414286D01*
X176252381Y-63176190D01*
X176204762Y-63080952D01*
X176157143Y-63033333D01*
X176061905Y-62985714D01*
X175966667Y-62985714D01*
X175871429Y-63033333D01*
X175823810Y-63080952D01*
X175776190Y-63176190D01*
X175728571Y-63366667D01*
X175680952Y-63461905D01*
X175633333Y-63509524D01*
X175538095Y-63557143D01*
X175442857Y-63557143D01*
X175347619Y-63509524D01*
X175300000Y-63461905D01*
X175252381Y-63366667D01*
X175252381Y-63128571D01*
X175300000Y-62985714D01*
X176252381Y-62557143D02*
X175252381Y-62557143D01*
X175728571Y-62557143D02*
X175728571Y-61985714D01*
X176252381Y-61985714D02*
X175252381Y-61985714D01*
X121802381Y-108423810D02*
X120802381Y-108423810D01*
X121802381Y-107852381D02*
X121230952Y-108280953D01*
X120802381Y-107852381D02*
X121373810Y-108423810D01*
X121326190Y-107233334D02*
X121802381Y-107233334D01*
X120802381Y-107566667D02*
X121326190Y-107233334D01*
X120802381Y-106900000D01*
X121421429Y-106566667D02*
X121421429Y-105804762D01*
X120802381Y-105138096D02*
X120802381Y-105042857D01*
X120850000Y-104947619D01*
X120897619Y-104900000D01*
X120992857Y-104852381D01*
X121183333Y-104804762D01*
X121421429Y-104804762D01*
X121611905Y-104852381D01*
X121707143Y-104900000D01*
X121754762Y-104947619D01*
X121802381Y-105042857D01*
X121802381Y-105138096D01*
X121754762Y-105233334D01*
X121707143Y-105280953D01*
X121611905Y-105328572D01*
X121421429Y-105376191D01*
X121183333Y-105376191D01*
X120992857Y-105328572D01*
X120897619Y-105280953D01*
X120850000Y-105233334D01*
X120802381Y-105138096D01*
X120802381Y-104471429D02*
X120802381Y-103852381D01*
X121183333Y-104185715D01*
X121183333Y-104042857D01*
X121230952Y-103947619D01*
X121278571Y-103900000D01*
X121373810Y-103852381D01*
X121611905Y-103852381D01*
X121707143Y-103900000D01*
X121754762Y-103947619D01*
X121802381Y-104042857D01*
X121802381Y-104328572D01*
X121754762Y-104423810D01*
X121707143Y-104471429D01*
X120802381Y-103519048D02*
X120802381Y-102900000D01*
X121183333Y-103233334D01*
X121183333Y-103090476D01*
X121230952Y-102995238D01*
X121278571Y-102947619D01*
X121373810Y-102900000D01*
X121611905Y-102900000D01*
X121707143Y-102947619D01*
X121754762Y-102995238D01*
X121802381Y-103090476D01*
X121802381Y-103376191D01*
X121754762Y-103471429D01*
X121707143Y-103519048D01*
X121897619Y-102709524D02*
X121897619Y-101947619D01*
X121802381Y-101233333D02*
X121802381Y-101709524D01*
X120802381Y-101709524D01*
X121802381Y-79439048D02*
X120802381Y-79439048D01*
X121802381Y-78867619D02*
X121230952Y-79296191D01*
X120802381Y-78867619D02*
X121373810Y-79439048D01*
X121326190Y-78248572D02*
X121802381Y-78248572D01*
X120802381Y-78581905D02*
X121326190Y-78248572D01*
X120802381Y-77915238D01*
X121421429Y-77581905D02*
X121421429Y-76820000D01*
X120802381Y-76153334D02*
X120802381Y-76058095D01*
X120850000Y-75962857D01*
X120897619Y-75915238D01*
X120992857Y-75867619D01*
X121183333Y-75820000D01*
X121421429Y-75820000D01*
X121611905Y-75867619D01*
X121707143Y-75915238D01*
X121754762Y-75962857D01*
X121802381Y-76058095D01*
X121802381Y-76153334D01*
X121754762Y-76248572D01*
X121707143Y-76296191D01*
X121611905Y-76343810D01*
X121421429Y-76391429D01*
X121183333Y-76391429D01*
X120992857Y-76343810D01*
X120897619Y-76296191D01*
X120850000Y-76248572D01*
X120802381Y-76153334D01*
X120802381Y-75486667D02*
X120802381Y-74867619D01*
X121183333Y-75200953D01*
X121183333Y-75058095D01*
X121230952Y-74962857D01*
X121278571Y-74915238D01*
X121373810Y-74867619D01*
X121611905Y-74867619D01*
X121707143Y-74915238D01*
X121754762Y-74962857D01*
X121802381Y-75058095D01*
X121802381Y-75343810D01*
X121754762Y-75439048D01*
X121707143Y-75486667D01*
X120802381Y-74534286D02*
X120802381Y-73915238D01*
X121183333Y-74248572D01*
X121183333Y-74105714D01*
X121230952Y-74010476D01*
X121278571Y-73962857D01*
X121373810Y-73915238D01*
X121611905Y-73915238D01*
X121707143Y-73962857D01*
X121754762Y-74010476D01*
X121802381Y-74105714D01*
X121802381Y-74391429D01*
X121754762Y-74486667D01*
X121707143Y-74534286D01*
X121897619Y-73724762D02*
X121897619Y-72962857D01*
X121802381Y-72153333D02*
X121326190Y-72486667D01*
X121802381Y-72724762D02*
X120802381Y-72724762D01*
X120802381Y-72343809D01*
X120850000Y-72248571D01*
X120897619Y-72200952D01*
X120992857Y-72153333D01*
X121135714Y-72153333D01*
X121230952Y-72200952D01*
X121278571Y-72248571D01*
X121326190Y-72343809D01*
X121326190Y-72724762D01*
D14*
X155278667Y-67292857D02*
X155278667Y-66816666D01*
X155564381Y-67388095D02*
X154564381Y-67054762D01*
X155564381Y-66721428D01*
X155564381Y-66388095D02*
X154564381Y-66388095D01*
X154564381Y-66007142D01*
X154612000Y-65911904D01*
X154659619Y-65864285D01*
X154754857Y-65816666D01*
X154897714Y-65816666D01*
X154992952Y-65864285D01*
X155040571Y-65911904D01*
X155088190Y-66007142D01*
X155088190Y-66388095D01*
X155564381Y-64864285D02*
X155564381Y-65435714D01*
X155564381Y-65150000D02*
X154564381Y-65150000D01*
X154707238Y-65245238D01*
X154802476Y-65340476D01*
X154850095Y-65435714D01*
X155564381Y-63911904D02*
X155564381Y-64483333D01*
X155564381Y-64197619D02*
X154564381Y-64197619D01*
X154707238Y-64292857D01*
X154802476Y-64388095D01*
X154850095Y-64483333D01*
X155564381Y-62959523D02*
X155564381Y-63530952D01*
X155564381Y-63245238D02*
X154564381Y-63245238D01*
X154707238Y-63340476D01*
X154802476Y-63435714D01*
X154850095Y-63530952D01*
X154564381Y-62626190D02*
X154564381Y-61959523D01*
X155564381Y-62388095D01*
X133480381Y-79657905D02*
X134289905Y-79657905D01*
X134385143Y-79610286D01*
X134432762Y-79562667D01*
X134480381Y-79467429D01*
X134480381Y-79276952D01*
X134432762Y-79181714D01*
X134385143Y-79134095D01*
X134289905Y-79086476D01*
X133480381Y-79086476D01*
X133480381Y-78705524D02*
X133480381Y-78086476D01*
X133861333Y-78419810D01*
X133861333Y-78276952D01*
X133908952Y-78181714D01*
X133956571Y-78134095D01*
X134051810Y-78086476D01*
X134289905Y-78086476D01*
X134385143Y-78134095D01*
X134432762Y-78181714D01*
X134480381Y-78276952D01*
X134480381Y-78562667D01*
X134432762Y-78657905D01*
X134385143Y-78705524D01*
X165858095Y-83332381D02*
X165858095Y-84141905D01*
X165905714Y-84237143D01*
X165953333Y-84284762D01*
X166048571Y-84332381D01*
X166239048Y-84332381D01*
X166334286Y-84284762D01*
X166381905Y-84237143D01*
X166429524Y-84141905D01*
X166429524Y-83332381D01*
X167334286Y-83665714D02*
X167334286Y-84332381D01*
X167096190Y-83284762D02*
X166858095Y-83999048D01*
X167477143Y-83999048D01*
M02*
