G04 #@! TF.FileFunction,Copper,L2,Bot,Signal*
%FSLAX46Y46*%
G04 Gerber Fmt 4.6, Leading zero omitted, Abs format (unit mm)*
G04 Created by KiCad (PCBNEW 4.0.7) date 09/18/17 08:38:15*
%MOMM*%
%LPD*%
G01*
G04 APERTURE LIST*
%ADD10C,0.100000*%
%ADD11C,2.500000*%
%ADD12R,1.900000X2.000000*%
%ADD13C,1.900000*%
%ADD14O,1.524000X2.199640*%
%ADD15O,1.524000X2.197100*%
%ADD16R,2.032000X1.727200*%
%ADD17O,2.032000X1.727200*%
%ADD18C,1.524000*%
%ADD19C,1.998980*%
%ADD20C,5.000000*%
%ADD21R,5.000000X4.000000*%
%ADD22R,1.727200X1.727200*%
%ADD23O,1.727200X1.727200*%
%ADD24C,0.600000*%
%ADD25C,0.300000*%
%ADD26C,0.500000*%
%ADD27C,0.254000*%
G04 APERTURE END LIST*
D10*
D11*
X180600000Y-82430500D03*
X180600000Y-77430500D03*
D12*
X113600000Y-67400000D03*
D13*
X111060000Y-67400000D03*
D12*
X120600000Y-67400000D03*
D13*
X118060000Y-67400000D03*
D12*
X127600000Y-67400000D03*
D13*
X125060000Y-67400000D03*
D14*
X148860500Y-83310500D03*
X146320500Y-83310500D03*
X143780500Y-83310500D03*
X141240500Y-83310500D03*
X138700500Y-83310500D03*
X136160500Y-83310500D03*
X133620500Y-83310500D03*
X131080500Y-83310500D03*
X128540500Y-83310500D03*
X126000500Y-83310500D03*
X123460500Y-83310500D03*
X120920500Y-83310500D03*
X118380500Y-83310500D03*
X115840500Y-83310500D03*
X113300500Y-83310500D03*
X113300500Y-98550500D03*
X115840500Y-98550500D03*
X118380500Y-98550500D03*
X120920500Y-98550500D03*
D15*
X123460500Y-98550500D03*
X126000500Y-98550500D03*
X128540500Y-98550500D03*
X131080500Y-98550500D03*
X133620500Y-98550500D03*
X136160500Y-98550500D03*
X138700500Y-98550500D03*
X141240500Y-98550500D03*
X143780500Y-98550500D03*
X146320500Y-98550500D03*
X148860500Y-98550500D03*
D16*
X156600000Y-101360000D03*
D17*
X156600000Y-103900000D03*
X156600000Y-106440000D03*
D16*
X156600000Y-87400000D03*
D17*
X156600000Y-89940000D03*
X156600000Y-92480000D03*
X156600000Y-95020000D03*
D18*
X156600000Y-72400000D03*
X156600000Y-74400000D03*
X156600000Y-76400000D03*
X156600000Y-78400000D03*
D11*
X180600000Y-104430500D03*
X180600000Y-99430500D03*
X180600000Y-93430500D03*
X180600000Y-88430500D03*
D19*
X167168800Y-67330440D03*
X173671200Y-62829560D03*
X167168800Y-62829560D03*
X173671200Y-67330440D03*
D16*
X118600000Y-102400000D03*
D17*
X118600000Y-104940000D03*
X118600000Y-107480000D03*
D16*
X118600000Y-73320000D03*
D17*
X118600000Y-75860000D03*
X118600000Y-78400000D03*
D20*
X138600000Y-115000000D03*
D21*
X138600000Y-117000000D03*
D20*
X161100000Y-115000000D03*
D21*
X161100000Y-117000000D03*
D20*
X131100000Y-115000000D03*
D21*
X131100000Y-117000000D03*
D20*
X123600000Y-115000000D03*
D21*
X123600000Y-117000000D03*
D20*
X168600000Y-115000000D03*
D21*
X168600000Y-117000000D03*
D20*
X176100000Y-115000000D03*
D21*
X176100000Y-117000000D03*
D20*
X116100000Y-115000000D03*
D21*
X116100000Y-117000000D03*
D20*
X146100000Y-115000000D03*
D21*
X146100000Y-117000000D03*
D20*
X153600000Y-115000000D03*
D21*
X153600000Y-117000000D03*
D22*
X138600000Y-79150000D03*
D23*
X138600000Y-76610000D03*
X141140000Y-79150000D03*
X141140000Y-76610000D03*
X143680000Y-79150000D03*
X143680000Y-76610000D03*
X146220000Y-79150000D03*
X146220000Y-76610000D03*
D24*
X123300000Y-103500000D03*
X161200000Y-79700000D03*
X161200000Y-67700000D03*
X169600000Y-92000000D03*
X169500000Y-90700000D03*
X163700000Y-92000000D03*
X163800000Y-90700000D03*
X163800000Y-89500000D03*
X163800000Y-93300000D03*
X169500000Y-89600000D03*
X169500000Y-93300000D03*
X143400000Y-69900000D03*
X124200000Y-64300000D03*
X117000000Y-64300000D03*
X109800000Y-64400000D03*
X136100000Y-93500000D03*
X173800000Y-97000000D03*
X170500000Y-69400000D03*
X173800000Y-85700000D03*
X163820000Y-96980000D03*
X163820000Y-96980000D03*
X164520000Y-96980000D03*
X163920000Y-88180000D03*
X163920000Y-94580000D03*
X122446779Y-78729990D03*
D25*
X118060000Y-67400000D02*
X118060000Y-69060000D01*
X126000500Y-77000500D02*
X126000500Y-83310500D01*
X118060000Y-69060000D02*
X126000500Y-77000500D01*
X126000500Y-83310500D02*
X126000500Y-82972680D01*
X126000500Y-82972680D02*
X126020000Y-82953180D01*
X125060000Y-67400000D02*
X125060000Y-69460000D01*
X125060000Y-69460000D02*
X133620500Y-78020500D01*
X133620500Y-78020500D02*
X133620500Y-81910680D01*
X133620500Y-81910680D02*
X133620500Y-83310500D01*
D26*
X118500000Y-108943600D02*
X118499999Y-113600001D01*
X118499999Y-113600001D02*
X116000000Y-116100000D01*
X118600000Y-107480000D02*
X118600000Y-108843600D01*
X118600000Y-108843600D02*
X118500000Y-108943600D01*
D25*
X167168800Y-67330440D02*
X165755308Y-67330440D01*
X165755308Y-67330440D02*
X164505748Y-68580000D01*
X164505748Y-68580000D02*
X154520000Y-68580000D01*
X154520000Y-68580000D02*
X150320000Y-72780000D01*
X150320000Y-72780000D02*
X150320000Y-78580000D01*
X150320000Y-78580000D02*
X147300000Y-81600000D01*
X147300000Y-81600000D02*
X140073180Y-81600000D01*
X140073180Y-81600000D02*
X138700500Y-82972680D01*
X138700500Y-82972680D02*
X138700500Y-83310500D01*
X118600000Y-73320000D02*
X119916000Y-73320000D01*
X119916000Y-73320000D02*
X123460500Y-76864500D01*
X123460500Y-76864500D02*
X123460500Y-77944500D01*
X123460500Y-83310500D02*
X123460500Y-77944500D01*
X123460500Y-83310500D02*
X123460500Y-82972680D01*
X156600000Y-72400000D02*
X158700000Y-74500000D01*
X158700000Y-74500000D02*
X158700000Y-80300000D01*
X158700000Y-80300000D02*
X153900000Y-85100000D01*
X153900000Y-85100000D02*
X153900000Y-89800000D01*
X113300500Y-98212680D02*
X113300500Y-98550500D01*
X153900000Y-89800000D02*
X148000000Y-95700000D01*
X148000000Y-95700000D02*
X115813180Y-95700000D01*
X115813180Y-95700000D02*
X113300500Y-98212680D01*
D26*
X146220000Y-79150000D02*
X144906399Y-80463601D01*
X137400000Y-92200000D02*
X136100000Y-93500000D01*
X144906399Y-80463601D02*
X139495539Y-80463601D01*
X139495539Y-80463601D02*
X137400000Y-82559140D01*
X137400000Y-82559140D02*
X137400000Y-92200000D01*
X173800000Y-97000000D02*
X173800000Y-87200000D01*
X173800000Y-87200000D02*
X173800000Y-85700000D01*
X156600000Y-76400000D02*
X154000000Y-73800000D01*
X154000000Y-73800000D02*
X154000000Y-71100000D01*
X154000000Y-71100000D02*
X155700000Y-69400000D01*
X155700000Y-69400000D02*
X168100000Y-69400000D01*
X168100000Y-69400000D02*
X170500000Y-69400000D01*
X141240500Y-98550500D02*
X141240500Y-98213950D01*
X141240500Y-98887050D02*
X141240500Y-98550500D01*
X148860500Y-98550500D02*
X162249500Y-98550500D01*
X162249500Y-98550500D02*
X163820000Y-96980000D01*
X180600000Y-93430500D02*
X178832234Y-93430500D01*
X178832234Y-93430500D02*
X174362734Y-97900000D01*
X174362734Y-97900000D02*
X165440000Y-97900000D01*
X165440000Y-97900000D02*
X164520000Y-96980000D01*
X164520000Y-96980000D02*
X163820000Y-96980000D01*
X163920000Y-88180000D02*
X163920000Y-86380000D01*
X163920000Y-86380000D02*
X172869500Y-77430500D01*
X172869500Y-77430500D02*
X180600000Y-77430500D01*
X163920000Y-94580000D02*
X164620000Y-94580000D01*
X164620000Y-94580000D02*
X166700000Y-92500000D01*
X166700000Y-92500000D02*
X166700000Y-86700000D01*
X166700000Y-86700000D02*
X170969500Y-82430500D01*
X170969500Y-82430500D02*
X178832234Y-82430500D01*
X178832234Y-82430500D02*
X180600000Y-82430500D01*
X115840500Y-98550500D02*
X115840500Y-98888320D01*
X115840500Y-98888320D02*
X114528820Y-100200000D01*
X114528820Y-100200000D02*
X112600000Y-100200000D01*
X112900000Y-81200000D02*
X119976769Y-81200000D01*
X112600000Y-100200000D02*
X111000000Y-98600000D01*
X111000000Y-83100000D02*
X112900000Y-81200000D01*
X111000000Y-98600000D02*
X111000000Y-83100000D01*
X119976769Y-81200000D02*
X122146780Y-79029989D01*
X122146780Y-79029989D02*
X122446779Y-78729990D01*
D27*
G36*
X183471023Y-61297167D02*
X184209439Y-61790561D01*
X184702833Y-62528977D01*
X184890000Y-63469931D01*
X184890000Y-117330069D01*
X184702833Y-118271023D01*
X184209439Y-119009439D01*
X183471023Y-119502833D01*
X182530069Y-119690000D01*
X110669931Y-119690000D01*
X109728977Y-119502833D01*
X108990561Y-119009439D01*
X108497167Y-118271023D01*
X108310000Y-117330069D01*
X108310000Y-114377892D01*
X112964706Y-114377892D01*
X112965000Y-115000000D01*
X112965000Y-116714250D01*
X113123750Y-116873000D01*
X113589116Y-116873000D01*
X113864118Y-117056274D01*
X113793392Y-117127000D01*
X113123750Y-117127000D01*
X112965000Y-117285750D01*
X112965000Y-119126310D01*
X113061673Y-119359699D01*
X113240302Y-119538327D01*
X113473691Y-119635000D01*
X115814250Y-119635000D01*
X115973000Y-119476250D01*
X115973000Y-118135060D01*
X116227000Y-118134940D01*
X116227000Y-119476250D01*
X116385750Y-119635000D01*
X118726309Y-119635000D01*
X118959698Y-119538327D01*
X119138327Y-119359699D01*
X119235000Y-119126310D01*
X119235000Y-117285750D01*
X119076250Y-117127000D01*
X118406608Y-117127000D01*
X118335882Y-117056274D01*
X118610884Y-116873000D01*
X119076250Y-116873000D01*
X119235000Y-116714250D01*
X119235000Y-115622819D01*
X119235294Y-115622108D01*
X119235001Y-115000000D01*
X120452560Y-115000000D01*
X120452560Y-119000000D01*
X120496838Y-119235317D01*
X120635910Y-119451441D01*
X120848110Y-119596431D01*
X121100000Y-119647440D01*
X126100000Y-119647440D01*
X126335317Y-119603162D01*
X126551441Y-119464090D01*
X126696431Y-119251890D01*
X126747440Y-119000000D01*
X126747440Y-115000000D01*
X127952560Y-115000000D01*
X127952560Y-119000000D01*
X127996838Y-119235317D01*
X128135910Y-119451441D01*
X128348110Y-119596431D01*
X128600000Y-119647440D01*
X133600000Y-119647440D01*
X133835317Y-119603162D01*
X134051441Y-119464090D01*
X134196431Y-119251890D01*
X134247440Y-119000000D01*
X134247440Y-115000000D01*
X135452560Y-115000000D01*
X135452560Y-119000000D01*
X135496838Y-119235317D01*
X135635910Y-119451441D01*
X135848110Y-119596431D01*
X136100000Y-119647440D01*
X141100000Y-119647440D01*
X141335317Y-119603162D01*
X141551441Y-119464090D01*
X141696431Y-119251890D01*
X141747440Y-119000000D01*
X141747440Y-115000000D01*
X142952560Y-115000000D01*
X142952560Y-119000000D01*
X142996838Y-119235317D01*
X143135910Y-119451441D01*
X143348110Y-119596431D01*
X143600000Y-119647440D01*
X148600000Y-119647440D01*
X148835317Y-119603162D01*
X149051441Y-119464090D01*
X149196431Y-119251890D01*
X149247440Y-119000000D01*
X149247440Y-115000000D01*
X150452560Y-115000000D01*
X150452560Y-119000000D01*
X150496838Y-119235317D01*
X150635910Y-119451441D01*
X150848110Y-119596431D01*
X151100000Y-119647440D01*
X156100000Y-119647440D01*
X156335317Y-119603162D01*
X156551441Y-119464090D01*
X156696431Y-119251890D01*
X156747440Y-119000000D01*
X156747440Y-115000000D01*
X157952560Y-115000000D01*
X157952560Y-119000000D01*
X157996838Y-119235317D01*
X158135910Y-119451441D01*
X158348110Y-119596431D01*
X158600000Y-119647440D01*
X163600000Y-119647440D01*
X163835317Y-119603162D01*
X164051441Y-119464090D01*
X164196431Y-119251890D01*
X164247440Y-119000000D01*
X164247440Y-115000000D01*
X165452560Y-115000000D01*
X165452560Y-119000000D01*
X165496838Y-119235317D01*
X165635910Y-119451441D01*
X165848110Y-119596431D01*
X166100000Y-119647440D01*
X171100000Y-119647440D01*
X171335317Y-119603162D01*
X171551441Y-119464090D01*
X171696431Y-119251890D01*
X171747440Y-119000000D01*
X171747440Y-115000000D01*
X172952560Y-115000000D01*
X172952560Y-119000000D01*
X172996838Y-119235317D01*
X173135910Y-119451441D01*
X173348110Y-119596431D01*
X173600000Y-119647440D01*
X178600000Y-119647440D01*
X178835317Y-119603162D01*
X179051441Y-119464090D01*
X179196431Y-119251890D01*
X179247440Y-119000000D01*
X179247440Y-116700000D01*
X179390000Y-116700000D01*
X179596286Y-117737072D01*
X180183741Y-118616259D01*
X181062928Y-119203714D01*
X182100000Y-119410000D01*
X183137072Y-119203714D01*
X184016259Y-118616259D01*
X184603714Y-117737072D01*
X184810000Y-116700000D01*
X184603714Y-115662928D01*
X184016259Y-114783741D01*
X183137072Y-114196286D01*
X182100000Y-113990000D01*
X181062928Y-114196286D01*
X180183741Y-114783741D01*
X179596286Y-115662928D01*
X179390000Y-116700000D01*
X179247440Y-116700000D01*
X179247440Y-115000000D01*
X179235058Y-114934197D01*
X179235543Y-114379146D01*
X178759273Y-113226485D01*
X177878153Y-112343826D01*
X176726326Y-111865546D01*
X175479146Y-111864457D01*
X174326485Y-112340727D01*
X173443826Y-113221847D01*
X172965546Y-114373674D01*
X172965053Y-114938308D01*
X172952560Y-115000000D01*
X171747440Y-115000000D01*
X171735058Y-114934197D01*
X171735543Y-114379146D01*
X171259273Y-113226485D01*
X170378153Y-112343826D01*
X169226326Y-111865546D01*
X167979146Y-111864457D01*
X166826485Y-112340727D01*
X165943826Y-113221847D01*
X165465546Y-114373674D01*
X165465053Y-114938308D01*
X165452560Y-115000000D01*
X164247440Y-115000000D01*
X164235058Y-114934197D01*
X164235543Y-114379146D01*
X163759273Y-113226485D01*
X162878153Y-112343826D01*
X161726326Y-111865546D01*
X160479146Y-111864457D01*
X159326485Y-112340727D01*
X158443826Y-113221847D01*
X157965546Y-114373674D01*
X157965053Y-114938308D01*
X157952560Y-115000000D01*
X156747440Y-115000000D01*
X156735058Y-114934197D01*
X156735543Y-114379146D01*
X156259273Y-113226485D01*
X155378153Y-112343826D01*
X154226326Y-111865546D01*
X152979146Y-111864457D01*
X151826485Y-112340727D01*
X150943826Y-113221847D01*
X150465546Y-114373674D01*
X150465053Y-114938308D01*
X150452560Y-115000000D01*
X149247440Y-115000000D01*
X149235058Y-114934197D01*
X149235543Y-114379146D01*
X148759273Y-113226485D01*
X147878153Y-112343826D01*
X146726326Y-111865546D01*
X145479146Y-111864457D01*
X144326485Y-112340727D01*
X143443826Y-113221847D01*
X142965546Y-114373674D01*
X142965053Y-114938308D01*
X142952560Y-115000000D01*
X141747440Y-115000000D01*
X141735058Y-114934197D01*
X141735543Y-114379146D01*
X141259273Y-113226485D01*
X140378153Y-112343826D01*
X139226326Y-111865546D01*
X137979146Y-111864457D01*
X136826485Y-112340727D01*
X135943826Y-113221847D01*
X135465546Y-114373674D01*
X135465053Y-114938308D01*
X135452560Y-115000000D01*
X134247440Y-115000000D01*
X134235058Y-114934197D01*
X134235543Y-114379146D01*
X133759273Y-113226485D01*
X132878153Y-112343826D01*
X131726326Y-111865546D01*
X130479146Y-111864457D01*
X129326485Y-112340727D01*
X128443826Y-113221847D01*
X127965546Y-114373674D01*
X127965053Y-114938308D01*
X127952560Y-115000000D01*
X126747440Y-115000000D01*
X126735058Y-114934197D01*
X126735543Y-114379146D01*
X126259273Y-113226485D01*
X125378153Y-112343826D01*
X124226326Y-111865546D01*
X122979146Y-111864457D01*
X121826485Y-112340727D01*
X120943826Y-113221847D01*
X120465546Y-114373674D01*
X120465053Y-114938308D01*
X120452560Y-115000000D01*
X119235001Y-115000000D01*
X119235000Y-114999577D01*
X119235000Y-114873690D01*
X119234940Y-114873546D01*
X119234705Y-114374928D01*
X118758564Y-113225421D01*
X118335880Y-112943725D01*
X116914605Y-114365000D01*
X116555395Y-114365000D01*
X118156275Y-112764120D01*
X117874579Y-112341436D01*
X116722108Y-111864706D01*
X115474928Y-111865295D01*
X114325421Y-112341436D01*
X114043725Y-112764120D01*
X115644605Y-114365000D01*
X115285395Y-114365000D01*
X113864120Y-112943725D01*
X113441436Y-113225421D01*
X112964706Y-114377892D01*
X108310000Y-114377892D01*
X108310000Y-105400000D01*
X108890000Y-105400000D01*
X109096286Y-106437072D01*
X109683741Y-107316259D01*
X110562928Y-107903714D01*
X111600000Y-108110000D01*
X112637072Y-107903714D01*
X112733884Y-107839026D01*
X116992642Y-107839026D01*
X116995291Y-107854791D01*
X117249268Y-108382036D01*
X117685680Y-108771954D01*
X118238087Y-108965184D01*
X118473000Y-108820924D01*
X118473000Y-107607000D01*
X118727000Y-107607000D01*
X118727000Y-108820924D01*
X118961913Y-108965184D01*
X119514320Y-108771954D01*
X119950732Y-108382036D01*
X120204709Y-107854791D01*
X120207358Y-107839026D01*
X120086217Y-107607000D01*
X118727000Y-107607000D01*
X118473000Y-107607000D01*
X117113783Y-107607000D01*
X116992642Y-107839026D01*
X112733884Y-107839026D01*
X113516259Y-107316259D01*
X114103714Y-106437072D01*
X114310000Y-105400000D01*
X114218501Y-104940000D01*
X116916655Y-104940000D01*
X117030729Y-105513489D01*
X117355585Y-105999670D01*
X117665069Y-106206461D01*
X117249268Y-106577964D01*
X116995291Y-107105209D01*
X116992642Y-107120974D01*
X117113783Y-107353000D01*
X118473000Y-107353000D01*
X118473000Y-107333000D01*
X118727000Y-107333000D01*
X118727000Y-107353000D01*
X120086217Y-107353000D01*
X120207358Y-107120974D01*
X120204709Y-107105209D01*
X120057219Y-106799026D01*
X154992642Y-106799026D01*
X154995291Y-106814791D01*
X155249268Y-107342036D01*
X155685680Y-107731954D01*
X156238087Y-107925184D01*
X156473000Y-107780924D01*
X156473000Y-106567000D01*
X156727000Y-106567000D01*
X156727000Y-107780924D01*
X156961913Y-107925184D01*
X157514320Y-107731954D01*
X157950732Y-107342036D01*
X158204709Y-106814791D01*
X158207358Y-106799026D01*
X158086217Y-106567000D01*
X156727000Y-106567000D01*
X156473000Y-106567000D01*
X155113783Y-106567000D01*
X154992642Y-106799026D01*
X120057219Y-106799026D01*
X119950732Y-106577964D01*
X119534931Y-106206461D01*
X119844415Y-105999670D01*
X120169271Y-105513489D01*
X120283345Y-104940000D01*
X120169271Y-104366511D01*
X119857559Y-103900000D01*
X154916655Y-103900000D01*
X155030729Y-104473489D01*
X155355585Y-104959670D01*
X155665069Y-105166461D01*
X155249268Y-105537964D01*
X154995291Y-106065209D01*
X154992642Y-106080974D01*
X155113783Y-106313000D01*
X156473000Y-106313000D01*
X156473000Y-106293000D01*
X156727000Y-106293000D01*
X156727000Y-106313000D01*
X158086217Y-106313000D01*
X158207358Y-106080974D01*
X158204709Y-106065209D01*
X157950732Y-105537964D01*
X157534931Y-105166461D01*
X157844415Y-104959670D01*
X157948560Y-104803805D01*
X178714674Y-104803805D01*
X179001043Y-105496872D01*
X179530839Y-106027593D01*
X180223405Y-106315172D01*
X180973305Y-106315826D01*
X181666372Y-106029457D01*
X182197093Y-105499661D01*
X182484672Y-104807095D01*
X182485326Y-104057195D01*
X182198957Y-103364128D01*
X181669161Y-102833407D01*
X180976595Y-102545828D01*
X180226695Y-102545174D01*
X179533628Y-102831543D01*
X179002907Y-103361339D01*
X178715328Y-104053905D01*
X178714674Y-104803805D01*
X157948560Y-104803805D01*
X158169271Y-104473489D01*
X158283345Y-103900000D01*
X158169271Y-103326511D01*
X157844415Y-102840330D01*
X157830087Y-102830757D01*
X157851317Y-102826762D01*
X158067441Y-102687690D01*
X158212431Y-102475490D01*
X158263440Y-102223600D01*
X158263440Y-100496400D01*
X158219162Y-100261083D01*
X158080090Y-100044959D01*
X157867890Y-99899969D01*
X157616000Y-99848960D01*
X155584000Y-99848960D01*
X155348683Y-99893238D01*
X155132559Y-100032310D01*
X154987569Y-100244510D01*
X154936560Y-100496400D01*
X154936560Y-102223600D01*
X154980838Y-102458917D01*
X155119910Y-102675041D01*
X155332110Y-102820031D01*
X155373439Y-102828400D01*
X155355585Y-102840330D01*
X155030729Y-103326511D01*
X154916655Y-103900000D01*
X119857559Y-103900000D01*
X119844415Y-103880330D01*
X119830087Y-103870757D01*
X119851317Y-103866762D01*
X120067441Y-103727690D01*
X120212431Y-103515490D01*
X120263440Y-103263600D01*
X120263440Y-101536400D01*
X120219162Y-101301083D01*
X120080090Y-101084959D01*
X119867890Y-100939969D01*
X119616000Y-100888960D01*
X117584000Y-100888960D01*
X117348683Y-100933238D01*
X117132559Y-101072310D01*
X116987569Y-101284510D01*
X116936560Y-101536400D01*
X116936560Y-103263600D01*
X116980838Y-103498917D01*
X117119910Y-103715041D01*
X117332110Y-103860031D01*
X117373439Y-103868400D01*
X117355585Y-103880330D01*
X117030729Y-104366511D01*
X116916655Y-104940000D01*
X114218501Y-104940000D01*
X114103714Y-104362928D01*
X113516259Y-103483741D01*
X112637072Y-102896286D01*
X111600000Y-102690000D01*
X110562928Y-102896286D01*
X109683741Y-103483741D01*
X109096286Y-104362928D01*
X108890000Y-105400000D01*
X108310000Y-105400000D01*
X108310000Y-83100000D01*
X110114999Y-83100000D01*
X110115000Y-83100005D01*
X110115000Y-98599995D01*
X110114999Y-98600000D01*
X110171190Y-98882484D01*
X110182367Y-98938675D01*
X110221793Y-98997680D01*
X110374210Y-99225790D01*
X111974208Y-100825787D01*
X111974210Y-100825790D01*
X112261325Y-101017633D01*
X112311397Y-101027593D01*
X112600000Y-101085001D01*
X112600005Y-101085000D01*
X114528815Y-101085000D01*
X114528820Y-101085001D01*
X114817423Y-101027593D01*
X114867495Y-101017633D01*
X115154610Y-100825790D01*
X115690858Y-100289541D01*
X115840500Y-100319307D01*
X116375109Y-100212967D01*
X116828328Y-99910135D01*
X117110500Y-99487836D01*
X117392672Y-99910135D01*
X117845891Y-100212967D01*
X118380500Y-100319307D01*
X118915109Y-100212967D01*
X119368328Y-99910135D01*
X119650500Y-99487836D01*
X119932672Y-99910135D01*
X120385891Y-100212967D01*
X120920500Y-100319307D01*
X121455109Y-100212967D01*
X121908328Y-99910135D01*
X122190933Y-99487188D01*
X122472672Y-99908840D01*
X122925891Y-100211672D01*
X123460500Y-100318012D01*
X123995109Y-100211672D01*
X124448328Y-99908840D01*
X124730500Y-99486541D01*
X125012672Y-99908840D01*
X125465891Y-100211672D01*
X126000500Y-100318012D01*
X126535109Y-100211672D01*
X126988328Y-99908840D01*
X127270500Y-99486541D01*
X127552672Y-99908840D01*
X128005891Y-100211672D01*
X128540500Y-100318012D01*
X129075109Y-100211672D01*
X129528328Y-99908840D01*
X129810500Y-99486541D01*
X130092672Y-99908840D01*
X130545891Y-100211672D01*
X131080500Y-100318012D01*
X131615109Y-100211672D01*
X132068328Y-99908840D01*
X132350500Y-99486541D01*
X132632672Y-99908840D01*
X133085891Y-100211672D01*
X133620500Y-100318012D01*
X134155109Y-100211672D01*
X134608328Y-99908840D01*
X134890500Y-99486541D01*
X135172672Y-99908840D01*
X135625891Y-100211672D01*
X136160500Y-100318012D01*
X136695109Y-100211672D01*
X137148328Y-99908840D01*
X137430500Y-99486541D01*
X137712672Y-99908840D01*
X138165891Y-100211672D01*
X138700500Y-100318012D01*
X139235109Y-100211672D01*
X139688328Y-99908840D01*
X139970500Y-99486541D01*
X140252672Y-99908840D01*
X140705891Y-100211672D01*
X141240500Y-100318012D01*
X141775109Y-100211672D01*
X142228328Y-99908840D01*
X142510500Y-99486541D01*
X142792672Y-99908840D01*
X143245891Y-100211672D01*
X143780500Y-100318012D01*
X144315109Y-100211672D01*
X144768328Y-99908840D01*
X145059142Y-99473607D01*
X145078441Y-99538991D01*
X145422474Y-99964680D01*
X145903223Y-100226310D01*
X145977430Y-100241270D01*
X146193500Y-100118770D01*
X146193500Y-98677500D01*
X146173500Y-98677500D01*
X146173500Y-98423500D01*
X146193500Y-98423500D01*
X146193500Y-96982230D01*
X146447500Y-96982230D01*
X146447500Y-98423500D01*
X146467500Y-98423500D01*
X146467500Y-98677500D01*
X146447500Y-98677500D01*
X146447500Y-100118770D01*
X146663570Y-100241270D01*
X146737777Y-100226310D01*
X147218526Y-99964680D01*
X147562559Y-99538991D01*
X147581858Y-99473607D01*
X147872672Y-99908840D01*
X148325891Y-100211672D01*
X148860500Y-100318012D01*
X149395109Y-100211672D01*
X149848328Y-99908840D01*
X149918510Y-99803805D01*
X178714674Y-99803805D01*
X179001043Y-100496872D01*
X179530839Y-101027593D01*
X180223405Y-101315172D01*
X180973305Y-101315826D01*
X181666372Y-101029457D01*
X182197093Y-100499661D01*
X182484672Y-99807095D01*
X182485326Y-99057195D01*
X182198957Y-98364128D01*
X181669161Y-97833407D01*
X180976595Y-97545828D01*
X180226695Y-97545174D01*
X179533628Y-97831543D01*
X179002907Y-98361339D01*
X178715328Y-99053905D01*
X178714674Y-99803805D01*
X149918510Y-99803805D01*
X150151160Y-99455621D01*
X150155162Y-99435500D01*
X162249495Y-99435500D01*
X162249500Y-99435501D01*
X162531984Y-99379310D01*
X162588175Y-99368133D01*
X162875290Y-99176290D01*
X164170000Y-97881579D01*
X164814208Y-98525787D01*
X164814210Y-98525790D01*
X165101325Y-98717633D01*
X165440000Y-98785000D01*
X174362729Y-98785000D01*
X174362734Y-98785001D01*
X174645218Y-98728810D01*
X174701409Y-98717633D01*
X174988524Y-98525790D01*
X174988525Y-98525789D01*
X179009235Y-94505078D01*
X179530839Y-95027593D01*
X180223405Y-95315172D01*
X180973305Y-95315826D01*
X181666372Y-95029457D01*
X182197093Y-94499661D01*
X182484672Y-93807095D01*
X182485326Y-93057195D01*
X182198957Y-92364128D01*
X181669161Y-91833407D01*
X180976595Y-91545828D01*
X180226695Y-91545174D01*
X179533628Y-91831543D01*
X179002907Y-92361339D01*
X178926437Y-92545500D01*
X178832239Y-92545500D01*
X178832234Y-92545499D01*
X178493560Y-92612866D01*
X178493558Y-92612867D01*
X178493559Y-92612867D01*
X178206444Y-92804710D01*
X178206442Y-92804713D01*
X174685000Y-96326154D01*
X174685000Y-89763820D01*
X179446285Y-89763820D01*
X179575533Y-90056623D01*
X180275806Y-90324888D01*
X181025435Y-90304750D01*
X181624467Y-90056623D01*
X181753715Y-89763820D01*
X180600000Y-88610105D01*
X179446285Y-89763820D01*
X174685000Y-89763820D01*
X174685000Y-88106306D01*
X178705612Y-88106306D01*
X178725750Y-88855935D01*
X178973877Y-89454967D01*
X179266680Y-89584215D01*
X180420395Y-88430500D01*
X180779605Y-88430500D01*
X181933320Y-89584215D01*
X182226123Y-89454967D01*
X182494388Y-88754694D01*
X182474250Y-88005065D01*
X182226123Y-87406033D01*
X181933320Y-87276785D01*
X180779605Y-88430500D01*
X180420395Y-88430500D01*
X179266680Y-87276785D01*
X178973877Y-87406033D01*
X178705612Y-88106306D01*
X174685000Y-88106306D01*
X174685000Y-87097180D01*
X179446285Y-87097180D01*
X180600000Y-88250895D01*
X181753715Y-87097180D01*
X181624467Y-86804377D01*
X180924194Y-86536112D01*
X180174565Y-86556250D01*
X179575533Y-86804377D01*
X179446285Y-87097180D01*
X174685000Y-87097180D01*
X174685000Y-86006822D01*
X174734838Y-85886799D01*
X174735162Y-85514833D01*
X174593117Y-85171057D01*
X174330327Y-84907808D01*
X173986799Y-84765162D01*
X173614833Y-84764838D01*
X173271057Y-84906883D01*
X173007808Y-85169673D01*
X172865162Y-85513201D01*
X172864838Y-85885167D01*
X172915000Y-86006569D01*
X172915000Y-96693178D01*
X172865162Y-96813201D01*
X172864986Y-97015000D01*
X165806579Y-97015000D01*
X165362744Y-96571165D01*
X165313117Y-96451057D01*
X165050327Y-96187808D01*
X164706799Y-96045162D01*
X164334833Y-96044838D01*
X164213431Y-96095000D01*
X164126822Y-96095000D01*
X164006799Y-96045162D01*
X163634833Y-96044838D01*
X163291057Y-96186883D01*
X163027808Y-96449673D01*
X162977434Y-96570987D01*
X161882920Y-97665500D01*
X150155162Y-97665500D01*
X150151160Y-97645379D01*
X149848328Y-97192160D01*
X149395109Y-96889328D01*
X148860500Y-96782988D01*
X148325891Y-96889328D01*
X147872672Y-97192160D01*
X147581858Y-97627393D01*
X147562559Y-97562009D01*
X147218526Y-97136320D01*
X146737777Y-96874690D01*
X146663570Y-96859730D01*
X146447500Y-96982230D01*
X146193500Y-96982230D01*
X145977430Y-96859730D01*
X145903223Y-96874690D01*
X145422474Y-97136320D01*
X145078441Y-97562009D01*
X145059142Y-97627393D01*
X144768328Y-97192160D01*
X144315109Y-96889328D01*
X143780500Y-96782988D01*
X143245891Y-96889328D01*
X142792672Y-97192160D01*
X142510500Y-97614459D01*
X142228328Y-97192160D01*
X141775109Y-96889328D01*
X141240500Y-96782988D01*
X140705891Y-96889328D01*
X140252672Y-97192160D01*
X139970500Y-97614459D01*
X139688328Y-97192160D01*
X139235109Y-96889328D01*
X138700500Y-96782988D01*
X138165891Y-96889328D01*
X137712672Y-97192160D01*
X137430500Y-97614459D01*
X137148328Y-97192160D01*
X136695109Y-96889328D01*
X136160500Y-96782988D01*
X135625891Y-96889328D01*
X135172672Y-97192160D01*
X134890500Y-97614459D01*
X134608328Y-97192160D01*
X134155109Y-96889328D01*
X133620500Y-96782988D01*
X133085891Y-96889328D01*
X132632672Y-97192160D01*
X132350500Y-97614459D01*
X132068328Y-97192160D01*
X131615109Y-96889328D01*
X131080500Y-96782988D01*
X130545891Y-96889328D01*
X130092672Y-97192160D01*
X129810500Y-97614459D01*
X129528328Y-97192160D01*
X129075109Y-96889328D01*
X128540500Y-96782988D01*
X128005891Y-96889328D01*
X127552672Y-97192160D01*
X127270500Y-97614459D01*
X126988328Y-97192160D01*
X126535109Y-96889328D01*
X126000500Y-96782988D01*
X125465891Y-96889328D01*
X125012672Y-97192160D01*
X124730500Y-97614459D01*
X124448328Y-97192160D01*
X123995109Y-96889328D01*
X123460500Y-96782988D01*
X122925891Y-96889328D01*
X122472672Y-97192160D01*
X122190933Y-97613812D01*
X121908328Y-97190865D01*
X121455109Y-96888033D01*
X120920500Y-96781693D01*
X120385891Y-96888033D01*
X119932672Y-97190865D01*
X119650500Y-97613164D01*
X119368328Y-97190865D01*
X118915109Y-96888033D01*
X118380500Y-96781693D01*
X117845891Y-96888033D01*
X117392672Y-97190865D01*
X117110500Y-97613164D01*
X116828328Y-97190865D01*
X116375109Y-96888033D01*
X115841455Y-96781883D01*
X116138338Y-96485000D01*
X148000000Y-96485000D01*
X148300407Y-96425245D01*
X148555079Y-96255079D01*
X149431132Y-95379026D01*
X154992642Y-95379026D01*
X154995291Y-95394791D01*
X155249268Y-95922036D01*
X155685680Y-96311954D01*
X156238087Y-96505184D01*
X156473000Y-96360924D01*
X156473000Y-95147000D01*
X156727000Y-95147000D01*
X156727000Y-96360924D01*
X156961913Y-96505184D01*
X157514320Y-96311954D01*
X157950732Y-95922036D01*
X158204709Y-95394791D01*
X158207358Y-95379026D01*
X158086217Y-95147000D01*
X156727000Y-95147000D01*
X156473000Y-95147000D01*
X155113783Y-95147000D01*
X154992642Y-95379026D01*
X149431132Y-95379026D01*
X154455079Y-90355079D01*
X154625245Y-90100407D01*
X154657152Y-89940000D01*
X154916655Y-89940000D01*
X155030729Y-90513489D01*
X155355585Y-90999670D01*
X155670366Y-91210000D01*
X155355585Y-91420330D01*
X155030729Y-91906511D01*
X154916655Y-92480000D01*
X155030729Y-93053489D01*
X155355585Y-93539670D01*
X155665069Y-93746461D01*
X155249268Y-94117964D01*
X154995291Y-94645209D01*
X154992642Y-94660974D01*
X155113783Y-94893000D01*
X156473000Y-94893000D01*
X156473000Y-94873000D01*
X156727000Y-94873000D01*
X156727000Y-94893000D01*
X158086217Y-94893000D01*
X158152958Y-94765167D01*
X162984838Y-94765167D01*
X163126883Y-95108943D01*
X163389673Y-95372192D01*
X163733201Y-95514838D01*
X164105167Y-95515162D01*
X164226569Y-95465000D01*
X164619995Y-95465000D01*
X164620000Y-95465001D01*
X164948821Y-95399593D01*
X164958675Y-95397633D01*
X165245790Y-95205790D01*
X167325787Y-93125792D01*
X167325790Y-93125790D01*
X167517633Y-92838675D01*
X167524389Y-92804710D01*
X167585001Y-92500000D01*
X167585000Y-92499995D01*
X167585000Y-87066580D01*
X171336079Y-83315500D01*
X178926102Y-83315500D01*
X179001043Y-83496872D01*
X179530839Y-84027593D01*
X180223405Y-84315172D01*
X180973305Y-84315826D01*
X181666372Y-84029457D01*
X182197093Y-83499661D01*
X182484672Y-82807095D01*
X182485326Y-82057195D01*
X182198957Y-81364128D01*
X181669161Y-80833407D01*
X180976595Y-80545828D01*
X180226695Y-80545174D01*
X179533628Y-80831543D01*
X179002907Y-81361339D01*
X178926437Y-81545500D01*
X170969505Y-81545500D01*
X170969500Y-81545499D01*
X170695511Y-81600000D01*
X170630825Y-81612867D01*
X170343710Y-81804710D01*
X170343708Y-81804713D01*
X166074210Y-86074210D01*
X165882367Y-86361325D01*
X165871190Y-86417516D01*
X165814999Y-86700000D01*
X165815000Y-86700005D01*
X165815000Y-92133421D01*
X164253420Y-93695000D01*
X164226822Y-93695000D01*
X164106799Y-93645162D01*
X163734833Y-93644838D01*
X163391057Y-93786883D01*
X163127808Y-94049673D01*
X162985162Y-94393201D01*
X162984838Y-94765167D01*
X158152958Y-94765167D01*
X158207358Y-94660974D01*
X158204709Y-94645209D01*
X157950732Y-94117964D01*
X157534931Y-93746461D01*
X157844415Y-93539670D01*
X158169271Y-93053489D01*
X158283345Y-92480000D01*
X158169271Y-91906511D01*
X157844415Y-91420330D01*
X157529634Y-91210000D01*
X157844415Y-90999670D01*
X158169271Y-90513489D01*
X158283345Y-89940000D01*
X158169271Y-89366511D01*
X157844415Y-88880330D01*
X157830087Y-88870757D01*
X157851317Y-88866762D01*
X158067441Y-88727690D01*
X158212431Y-88515490D01*
X158242872Y-88365167D01*
X162984838Y-88365167D01*
X163126883Y-88708943D01*
X163389673Y-88972192D01*
X163733201Y-89114838D01*
X164105167Y-89115162D01*
X164448943Y-88973117D01*
X164712192Y-88710327D01*
X164854838Y-88366799D01*
X164855162Y-87994833D01*
X164805000Y-87873431D01*
X164805000Y-86746580D01*
X173236079Y-78315500D01*
X178926102Y-78315500D01*
X179001043Y-78496872D01*
X179530839Y-79027593D01*
X180223405Y-79315172D01*
X180973305Y-79315826D01*
X181666372Y-79029457D01*
X182197093Y-78499661D01*
X182484672Y-77807095D01*
X182485326Y-77057195D01*
X182198957Y-76364128D01*
X181669161Y-75833407D01*
X180976595Y-75545828D01*
X180226695Y-75545174D01*
X179533628Y-75831543D01*
X179002907Y-76361339D01*
X178926437Y-76545500D01*
X172869505Y-76545500D01*
X172869500Y-76545499D01*
X172530825Y-76612867D01*
X172243710Y-76804710D01*
X172243708Y-76804713D01*
X163294210Y-85754210D01*
X163102367Y-86041325D01*
X163102367Y-86041326D01*
X163034999Y-86380000D01*
X163035000Y-86380005D01*
X163035000Y-87873178D01*
X162985162Y-87993201D01*
X162984838Y-88365167D01*
X158242872Y-88365167D01*
X158263440Y-88263600D01*
X158263440Y-86536400D01*
X158219162Y-86301083D01*
X158080090Y-86084959D01*
X157867890Y-85939969D01*
X157616000Y-85888960D01*
X155584000Y-85888960D01*
X155348683Y-85933238D01*
X155132559Y-86072310D01*
X154987569Y-86284510D01*
X154936560Y-86536400D01*
X154936560Y-88263600D01*
X154980838Y-88498917D01*
X155119910Y-88715041D01*
X155332110Y-88860031D01*
X155373439Y-88868400D01*
X155355585Y-88880330D01*
X155030729Y-89366511D01*
X154916655Y-89940000D01*
X154657152Y-89940000D01*
X154685000Y-89800000D01*
X154685000Y-85425158D01*
X159255079Y-80855079D01*
X159425245Y-80600407D01*
X159485000Y-80300000D01*
X159485000Y-74500000D01*
X159425245Y-74199594D01*
X159255079Y-73944921D01*
X159255076Y-73944919D01*
X157994557Y-72684399D01*
X157996757Y-72679100D01*
X157997242Y-72123339D01*
X157785010Y-71609697D01*
X157392370Y-71216371D01*
X156879100Y-71003243D01*
X156323339Y-71002758D01*
X155809697Y-71214990D01*
X155416371Y-71607630D01*
X155203243Y-72120900D01*
X155202758Y-72676661D01*
X155414990Y-73190303D01*
X155624342Y-73400021D01*
X155416371Y-73607630D01*
X155311578Y-73859999D01*
X154885000Y-73433420D01*
X154885000Y-71466580D01*
X156066579Y-70285000D01*
X170193178Y-70285000D01*
X170313201Y-70334838D01*
X170685167Y-70335162D01*
X171028943Y-70193117D01*
X171292192Y-69930327D01*
X171434838Y-69586799D01*
X171435162Y-69214833D01*
X171293117Y-68871057D01*
X171030327Y-68607808D01*
X170686799Y-68465162D01*
X170314833Y-68464838D01*
X170193431Y-68515000D01*
X168295709Y-68515000D01*
X168553646Y-68257513D01*
X168803006Y-67656987D01*
X168803008Y-67654134D01*
X172036426Y-67654134D01*
X172284738Y-68255095D01*
X172744127Y-68715286D01*
X173344653Y-68964646D01*
X173994894Y-68965214D01*
X174595855Y-68716902D01*
X175056046Y-68257513D01*
X175305406Y-67656987D01*
X175305974Y-67006746D01*
X175057662Y-66405785D01*
X174598273Y-65945594D01*
X173997747Y-65696234D01*
X173347506Y-65695666D01*
X172746545Y-65943978D01*
X172286354Y-66403367D01*
X172036994Y-67003893D01*
X172036426Y-67654134D01*
X168803008Y-67654134D01*
X168803574Y-67006746D01*
X168555262Y-66405785D01*
X168095873Y-65945594D01*
X167495347Y-65696234D01*
X166845106Y-65695666D01*
X166244145Y-65943978D01*
X165783954Y-66403367D01*
X165722228Y-66552020D01*
X165454902Y-66605195D01*
X165200229Y-66775361D01*
X164180590Y-67795000D01*
X154520000Y-67795000D01*
X154219593Y-67854755D01*
X153964921Y-68024921D01*
X149764921Y-72224921D01*
X149594755Y-72479593D01*
X149594755Y-72479594D01*
X149535000Y-72780000D01*
X149535000Y-78254842D01*
X146974842Y-80815000D01*
X145806580Y-80815000D01*
X145989475Y-80632105D01*
X146220000Y-80677959D01*
X146793489Y-80563885D01*
X147279670Y-80239029D01*
X147604526Y-79752848D01*
X147718600Y-79179359D01*
X147718600Y-79120641D01*
X147604526Y-78547152D01*
X147279670Y-78060971D01*
X147008828Y-77880000D01*
X147279670Y-77699029D01*
X147604526Y-77212848D01*
X147718600Y-76639359D01*
X147718600Y-76580641D01*
X147604526Y-76007152D01*
X147279670Y-75520971D01*
X146793489Y-75196115D01*
X146220000Y-75082041D01*
X145646511Y-75196115D01*
X145160330Y-75520971D01*
X144950000Y-75835752D01*
X144739670Y-75520971D01*
X144253489Y-75196115D01*
X143680000Y-75082041D01*
X143106511Y-75196115D01*
X142620330Y-75520971D01*
X142410000Y-75835752D01*
X142199670Y-75520971D01*
X141713489Y-75196115D01*
X141140000Y-75082041D01*
X140566511Y-75196115D01*
X140080330Y-75520971D01*
X139864336Y-75844228D01*
X139806821Y-75721510D01*
X139374947Y-75327312D01*
X138959026Y-75155042D01*
X138727000Y-75276183D01*
X138727000Y-76483000D01*
X138747000Y-76483000D01*
X138747000Y-76737000D01*
X138727000Y-76737000D01*
X138727000Y-76757000D01*
X138473000Y-76757000D01*
X138473000Y-76737000D01*
X137265531Y-76737000D01*
X137145032Y-76969027D01*
X137393179Y-77498490D01*
X137579433Y-77668495D01*
X137501083Y-77683238D01*
X137284959Y-77822310D01*
X137139969Y-78034510D01*
X137088960Y-78286400D01*
X137088960Y-80013600D01*
X137133238Y-80248917D01*
X137272310Y-80465041D01*
X137484510Y-80610031D01*
X137736400Y-80661040D01*
X138046521Y-80661040D01*
X136913561Y-81793999D01*
X136695109Y-81648033D01*
X136160500Y-81541693D01*
X135625891Y-81648033D01*
X135172672Y-81950865D01*
X134890500Y-82373164D01*
X134608328Y-81950865D01*
X134405500Y-81815339D01*
X134405500Y-78020500D01*
X134361091Y-77797242D01*
X134345745Y-77720093D01*
X134175579Y-77465421D01*
X132961131Y-76250973D01*
X137145032Y-76250973D01*
X137265531Y-76483000D01*
X138473000Y-76483000D01*
X138473000Y-75276183D01*
X138240974Y-75155042D01*
X137825053Y-75327312D01*
X137393179Y-75721510D01*
X137145032Y-76250973D01*
X132961131Y-76250973D01*
X125845000Y-69134842D01*
X125845000Y-68790617D01*
X125956657Y-68744481D01*
X126054337Y-68646971D01*
X126185910Y-68851441D01*
X126398110Y-68996431D01*
X126650000Y-69047440D01*
X128550000Y-69047440D01*
X128785317Y-69003162D01*
X129001441Y-68864090D01*
X129146431Y-68651890D01*
X129197440Y-68400000D01*
X129197440Y-66400000D01*
X129153162Y-66164683D01*
X129014090Y-65948559D01*
X128801890Y-65803569D01*
X128550000Y-65752560D01*
X126650000Y-65752560D01*
X126414683Y-65796838D01*
X126198559Y-65935910D01*
X126053569Y-66148110D01*
X126052945Y-66151192D01*
X125959003Y-66057086D01*
X125376659Y-65815276D01*
X124746107Y-65814725D01*
X124163343Y-66055519D01*
X123717086Y-66500997D01*
X123475276Y-67083341D01*
X123474725Y-67713893D01*
X123715519Y-68296657D01*
X124160997Y-68742914D01*
X124275000Y-68790252D01*
X124275000Y-69460000D01*
X124334755Y-69760407D01*
X124504921Y-70015079D01*
X132835500Y-78345658D01*
X132835500Y-81815339D01*
X132632672Y-81950865D01*
X132350500Y-82373164D01*
X132068328Y-81950865D01*
X131615109Y-81648033D01*
X131080500Y-81541693D01*
X130545891Y-81648033D01*
X130092672Y-81950865D01*
X129810500Y-82373164D01*
X129528328Y-81950865D01*
X129075109Y-81648033D01*
X128540500Y-81541693D01*
X128005891Y-81648033D01*
X127552672Y-81950865D01*
X127270500Y-82373164D01*
X126988328Y-81950865D01*
X126785500Y-81815339D01*
X126785500Y-77000500D01*
X126725745Y-76700094D01*
X126555579Y-76445421D01*
X118884467Y-68774309D01*
X118956657Y-68744481D01*
X119054337Y-68646971D01*
X119185910Y-68851441D01*
X119398110Y-68996431D01*
X119650000Y-69047440D01*
X121550000Y-69047440D01*
X121785317Y-69003162D01*
X122001441Y-68864090D01*
X122146431Y-68651890D01*
X122197440Y-68400000D01*
X122197440Y-66400000D01*
X122153162Y-66164683D01*
X122014090Y-65948559D01*
X121801890Y-65803569D01*
X121550000Y-65752560D01*
X119650000Y-65752560D01*
X119414683Y-65796838D01*
X119198559Y-65935910D01*
X119053569Y-66148110D01*
X119052945Y-66151192D01*
X118959003Y-66057086D01*
X118376659Y-65815276D01*
X117746107Y-65814725D01*
X117163343Y-66055519D01*
X116717086Y-66500997D01*
X116475276Y-67083341D01*
X116474725Y-67713893D01*
X116715519Y-68296657D01*
X117160997Y-68742914D01*
X117275000Y-68790252D01*
X117275000Y-69060000D01*
X117334755Y-69360407D01*
X117504921Y-69615079D01*
X119719828Y-71829986D01*
X119616000Y-71808960D01*
X117584000Y-71808960D01*
X117348683Y-71853238D01*
X117132559Y-71992310D01*
X116987569Y-72204510D01*
X116936560Y-72456400D01*
X116936560Y-74183600D01*
X116980838Y-74418917D01*
X117119910Y-74635041D01*
X117332110Y-74780031D01*
X117373439Y-74788400D01*
X117355585Y-74800330D01*
X117030729Y-75286511D01*
X116916655Y-75860000D01*
X117030729Y-76433489D01*
X117355585Y-76919670D01*
X117665069Y-77126461D01*
X117249268Y-77497964D01*
X116995291Y-78025209D01*
X116992642Y-78040974D01*
X117113783Y-78273000D01*
X118473000Y-78273000D01*
X118473000Y-78253000D01*
X118727000Y-78253000D01*
X118727000Y-78273000D01*
X120086217Y-78273000D01*
X120207358Y-78040974D01*
X120204709Y-78025209D01*
X119950732Y-77497964D01*
X119534931Y-77126461D01*
X119844415Y-76919670D01*
X120169271Y-76433489D01*
X120283345Y-75860000D01*
X120169271Y-75286511D01*
X119844415Y-74800330D01*
X119830087Y-74790757D01*
X119851317Y-74786762D01*
X120067441Y-74647690D01*
X120094269Y-74608427D01*
X122675500Y-77189658D01*
X122675500Y-77812560D01*
X122633578Y-77795152D01*
X122261612Y-77794828D01*
X121917836Y-77936873D01*
X121654587Y-78199663D01*
X121604213Y-78320976D01*
X121520990Y-78404199D01*
X121520988Y-78404202D01*
X119610189Y-80315000D01*
X112900005Y-80315000D01*
X112900000Y-80314999D01*
X112617516Y-80371190D01*
X112561325Y-80382367D01*
X112274210Y-80574210D01*
X112274208Y-80574213D01*
X110374210Y-82474210D01*
X110182367Y-82761325D01*
X110182367Y-82761326D01*
X110114999Y-83100000D01*
X108310000Y-83100000D01*
X108310000Y-77400000D01*
X108890000Y-77400000D01*
X109096286Y-78437072D01*
X109683741Y-79316259D01*
X110562928Y-79903714D01*
X111600000Y-80110000D01*
X112637072Y-79903714D01*
X113516259Y-79316259D01*
X113888590Y-78759026D01*
X116992642Y-78759026D01*
X116995291Y-78774791D01*
X117249268Y-79302036D01*
X117685680Y-79691954D01*
X118238087Y-79885184D01*
X118473000Y-79740924D01*
X118473000Y-78527000D01*
X118727000Y-78527000D01*
X118727000Y-79740924D01*
X118961913Y-79885184D01*
X119514320Y-79691954D01*
X119950732Y-79302036D01*
X120204709Y-78774791D01*
X120207358Y-78759026D01*
X120086217Y-78527000D01*
X118727000Y-78527000D01*
X118473000Y-78527000D01*
X117113783Y-78527000D01*
X116992642Y-78759026D01*
X113888590Y-78759026D01*
X114103714Y-78437072D01*
X114310000Y-77400000D01*
X114103714Y-76362928D01*
X113516259Y-75483741D01*
X112637072Y-74896286D01*
X111600000Y-74690000D01*
X110562928Y-74896286D01*
X109683741Y-75483741D01*
X109096286Y-76362928D01*
X108890000Y-77400000D01*
X108310000Y-77400000D01*
X108310000Y-67713893D01*
X109474725Y-67713893D01*
X109715519Y-68296657D01*
X110160997Y-68742914D01*
X110743341Y-68984724D01*
X111373893Y-68985275D01*
X111956657Y-68744481D01*
X112054337Y-68646971D01*
X112185910Y-68851441D01*
X112398110Y-68996431D01*
X112650000Y-69047440D01*
X114550000Y-69047440D01*
X114785317Y-69003162D01*
X115001441Y-68864090D01*
X115146431Y-68651890D01*
X115197440Y-68400000D01*
X115197440Y-66400000D01*
X115153162Y-66164683D01*
X115014090Y-65948559D01*
X114801890Y-65803569D01*
X114550000Y-65752560D01*
X112650000Y-65752560D01*
X112414683Y-65796838D01*
X112198559Y-65935910D01*
X112053569Y-66148110D01*
X112052945Y-66151192D01*
X111959003Y-66057086D01*
X111376659Y-65815276D01*
X110746107Y-65814725D01*
X110163343Y-66055519D01*
X109717086Y-66500997D01*
X109475276Y-67083341D01*
X109474725Y-67713893D01*
X108310000Y-67713893D01*
X108310000Y-63981723D01*
X166196243Y-63981723D01*
X166294842Y-64248525D01*
X166904382Y-64474961D01*
X167554177Y-64450901D01*
X168042758Y-64248525D01*
X168141357Y-63981723D01*
X172698643Y-63981723D01*
X172797242Y-64248525D01*
X173406782Y-64474961D01*
X174056577Y-64450901D01*
X174545158Y-64248525D01*
X174637002Y-64000000D01*
X179390000Y-64000000D01*
X179596286Y-65037072D01*
X180183741Y-65916259D01*
X181062928Y-66503714D01*
X182100000Y-66710000D01*
X183137072Y-66503714D01*
X184016259Y-65916259D01*
X184603714Y-65037072D01*
X184810000Y-64000000D01*
X184603714Y-62962928D01*
X184016259Y-62083741D01*
X183137072Y-61496286D01*
X182100000Y-61290000D01*
X181062928Y-61496286D01*
X180183741Y-62083741D01*
X179596286Y-62962928D01*
X179390000Y-64000000D01*
X174637002Y-64000000D01*
X174643757Y-63981723D01*
X173671200Y-63009165D01*
X172698643Y-63981723D01*
X168141357Y-63981723D01*
X167168800Y-63009165D01*
X166196243Y-63981723D01*
X108310000Y-63981723D01*
X108310000Y-63469931D01*
X108489973Y-62565142D01*
X165523399Y-62565142D01*
X165547459Y-63214937D01*
X165749835Y-63703518D01*
X166016637Y-63802117D01*
X166989195Y-62829560D01*
X167348405Y-62829560D01*
X168320963Y-63802117D01*
X168587765Y-63703518D01*
X168814201Y-63093978D01*
X168794620Y-62565142D01*
X172025799Y-62565142D01*
X172049859Y-63214937D01*
X172252235Y-63703518D01*
X172519037Y-63802117D01*
X173491595Y-62829560D01*
X173850805Y-62829560D01*
X174823363Y-63802117D01*
X175090165Y-63703518D01*
X175316601Y-63093978D01*
X175292541Y-62444183D01*
X175090165Y-61955602D01*
X174823363Y-61857003D01*
X173850805Y-62829560D01*
X173491595Y-62829560D01*
X172519037Y-61857003D01*
X172252235Y-61955602D01*
X172025799Y-62565142D01*
X168794620Y-62565142D01*
X168790141Y-62444183D01*
X168587765Y-61955602D01*
X168320963Y-61857003D01*
X167348405Y-62829560D01*
X166989195Y-62829560D01*
X166016637Y-61857003D01*
X165749835Y-61955602D01*
X165523399Y-62565142D01*
X108489973Y-62565142D01*
X108497167Y-62528977D01*
X108990561Y-61790561D01*
X109159922Y-61677397D01*
X166196243Y-61677397D01*
X167168800Y-62649955D01*
X168141357Y-61677397D01*
X172698643Y-61677397D01*
X173671200Y-62649955D01*
X174643757Y-61677397D01*
X174545158Y-61410595D01*
X173935618Y-61184159D01*
X173285823Y-61208219D01*
X172797242Y-61410595D01*
X172698643Y-61677397D01*
X168141357Y-61677397D01*
X168042758Y-61410595D01*
X167433218Y-61184159D01*
X166783423Y-61208219D01*
X166294842Y-61410595D01*
X166196243Y-61677397D01*
X109159922Y-61677397D01*
X109728977Y-61297167D01*
X110669931Y-61110000D01*
X182530069Y-61110000D01*
X183471023Y-61297167D01*
X183471023Y-61297167D01*
G37*
X183471023Y-61297167D02*
X184209439Y-61790561D01*
X184702833Y-62528977D01*
X184890000Y-63469931D01*
X184890000Y-117330069D01*
X184702833Y-118271023D01*
X184209439Y-119009439D01*
X183471023Y-119502833D01*
X182530069Y-119690000D01*
X110669931Y-119690000D01*
X109728977Y-119502833D01*
X108990561Y-119009439D01*
X108497167Y-118271023D01*
X108310000Y-117330069D01*
X108310000Y-114377892D01*
X112964706Y-114377892D01*
X112965000Y-115000000D01*
X112965000Y-116714250D01*
X113123750Y-116873000D01*
X113589116Y-116873000D01*
X113864118Y-117056274D01*
X113793392Y-117127000D01*
X113123750Y-117127000D01*
X112965000Y-117285750D01*
X112965000Y-119126310D01*
X113061673Y-119359699D01*
X113240302Y-119538327D01*
X113473691Y-119635000D01*
X115814250Y-119635000D01*
X115973000Y-119476250D01*
X115973000Y-118135060D01*
X116227000Y-118134940D01*
X116227000Y-119476250D01*
X116385750Y-119635000D01*
X118726309Y-119635000D01*
X118959698Y-119538327D01*
X119138327Y-119359699D01*
X119235000Y-119126310D01*
X119235000Y-117285750D01*
X119076250Y-117127000D01*
X118406608Y-117127000D01*
X118335882Y-117056274D01*
X118610884Y-116873000D01*
X119076250Y-116873000D01*
X119235000Y-116714250D01*
X119235000Y-115622819D01*
X119235294Y-115622108D01*
X119235001Y-115000000D01*
X120452560Y-115000000D01*
X120452560Y-119000000D01*
X120496838Y-119235317D01*
X120635910Y-119451441D01*
X120848110Y-119596431D01*
X121100000Y-119647440D01*
X126100000Y-119647440D01*
X126335317Y-119603162D01*
X126551441Y-119464090D01*
X126696431Y-119251890D01*
X126747440Y-119000000D01*
X126747440Y-115000000D01*
X127952560Y-115000000D01*
X127952560Y-119000000D01*
X127996838Y-119235317D01*
X128135910Y-119451441D01*
X128348110Y-119596431D01*
X128600000Y-119647440D01*
X133600000Y-119647440D01*
X133835317Y-119603162D01*
X134051441Y-119464090D01*
X134196431Y-119251890D01*
X134247440Y-119000000D01*
X134247440Y-115000000D01*
X135452560Y-115000000D01*
X135452560Y-119000000D01*
X135496838Y-119235317D01*
X135635910Y-119451441D01*
X135848110Y-119596431D01*
X136100000Y-119647440D01*
X141100000Y-119647440D01*
X141335317Y-119603162D01*
X141551441Y-119464090D01*
X141696431Y-119251890D01*
X141747440Y-119000000D01*
X141747440Y-115000000D01*
X142952560Y-115000000D01*
X142952560Y-119000000D01*
X142996838Y-119235317D01*
X143135910Y-119451441D01*
X143348110Y-119596431D01*
X143600000Y-119647440D01*
X148600000Y-119647440D01*
X148835317Y-119603162D01*
X149051441Y-119464090D01*
X149196431Y-119251890D01*
X149247440Y-119000000D01*
X149247440Y-115000000D01*
X150452560Y-115000000D01*
X150452560Y-119000000D01*
X150496838Y-119235317D01*
X150635910Y-119451441D01*
X150848110Y-119596431D01*
X151100000Y-119647440D01*
X156100000Y-119647440D01*
X156335317Y-119603162D01*
X156551441Y-119464090D01*
X156696431Y-119251890D01*
X156747440Y-119000000D01*
X156747440Y-115000000D01*
X157952560Y-115000000D01*
X157952560Y-119000000D01*
X157996838Y-119235317D01*
X158135910Y-119451441D01*
X158348110Y-119596431D01*
X158600000Y-119647440D01*
X163600000Y-119647440D01*
X163835317Y-119603162D01*
X164051441Y-119464090D01*
X164196431Y-119251890D01*
X164247440Y-119000000D01*
X164247440Y-115000000D01*
X165452560Y-115000000D01*
X165452560Y-119000000D01*
X165496838Y-119235317D01*
X165635910Y-119451441D01*
X165848110Y-119596431D01*
X166100000Y-119647440D01*
X171100000Y-119647440D01*
X171335317Y-119603162D01*
X171551441Y-119464090D01*
X171696431Y-119251890D01*
X171747440Y-119000000D01*
X171747440Y-115000000D01*
X172952560Y-115000000D01*
X172952560Y-119000000D01*
X172996838Y-119235317D01*
X173135910Y-119451441D01*
X173348110Y-119596431D01*
X173600000Y-119647440D01*
X178600000Y-119647440D01*
X178835317Y-119603162D01*
X179051441Y-119464090D01*
X179196431Y-119251890D01*
X179247440Y-119000000D01*
X179247440Y-116700000D01*
X179390000Y-116700000D01*
X179596286Y-117737072D01*
X180183741Y-118616259D01*
X181062928Y-119203714D01*
X182100000Y-119410000D01*
X183137072Y-119203714D01*
X184016259Y-118616259D01*
X184603714Y-117737072D01*
X184810000Y-116700000D01*
X184603714Y-115662928D01*
X184016259Y-114783741D01*
X183137072Y-114196286D01*
X182100000Y-113990000D01*
X181062928Y-114196286D01*
X180183741Y-114783741D01*
X179596286Y-115662928D01*
X179390000Y-116700000D01*
X179247440Y-116700000D01*
X179247440Y-115000000D01*
X179235058Y-114934197D01*
X179235543Y-114379146D01*
X178759273Y-113226485D01*
X177878153Y-112343826D01*
X176726326Y-111865546D01*
X175479146Y-111864457D01*
X174326485Y-112340727D01*
X173443826Y-113221847D01*
X172965546Y-114373674D01*
X172965053Y-114938308D01*
X172952560Y-115000000D01*
X171747440Y-115000000D01*
X171735058Y-114934197D01*
X171735543Y-114379146D01*
X171259273Y-113226485D01*
X170378153Y-112343826D01*
X169226326Y-111865546D01*
X167979146Y-111864457D01*
X166826485Y-112340727D01*
X165943826Y-113221847D01*
X165465546Y-114373674D01*
X165465053Y-114938308D01*
X165452560Y-115000000D01*
X164247440Y-115000000D01*
X164235058Y-114934197D01*
X164235543Y-114379146D01*
X163759273Y-113226485D01*
X162878153Y-112343826D01*
X161726326Y-111865546D01*
X160479146Y-111864457D01*
X159326485Y-112340727D01*
X158443826Y-113221847D01*
X157965546Y-114373674D01*
X157965053Y-114938308D01*
X157952560Y-115000000D01*
X156747440Y-115000000D01*
X156735058Y-114934197D01*
X156735543Y-114379146D01*
X156259273Y-113226485D01*
X155378153Y-112343826D01*
X154226326Y-111865546D01*
X152979146Y-111864457D01*
X151826485Y-112340727D01*
X150943826Y-113221847D01*
X150465546Y-114373674D01*
X150465053Y-114938308D01*
X150452560Y-115000000D01*
X149247440Y-115000000D01*
X149235058Y-114934197D01*
X149235543Y-114379146D01*
X148759273Y-113226485D01*
X147878153Y-112343826D01*
X146726326Y-111865546D01*
X145479146Y-111864457D01*
X144326485Y-112340727D01*
X143443826Y-113221847D01*
X142965546Y-114373674D01*
X142965053Y-114938308D01*
X142952560Y-115000000D01*
X141747440Y-115000000D01*
X141735058Y-114934197D01*
X141735543Y-114379146D01*
X141259273Y-113226485D01*
X140378153Y-112343826D01*
X139226326Y-111865546D01*
X137979146Y-111864457D01*
X136826485Y-112340727D01*
X135943826Y-113221847D01*
X135465546Y-114373674D01*
X135465053Y-114938308D01*
X135452560Y-115000000D01*
X134247440Y-115000000D01*
X134235058Y-114934197D01*
X134235543Y-114379146D01*
X133759273Y-113226485D01*
X132878153Y-112343826D01*
X131726326Y-111865546D01*
X130479146Y-111864457D01*
X129326485Y-112340727D01*
X128443826Y-113221847D01*
X127965546Y-114373674D01*
X127965053Y-114938308D01*
X127952560Y-115000000D01*
X126747440Y-115000000D01*
X126735058Y-114934197D01*
X126735543Y-114379146D01*
X126259273Y-113226485D01*
X125378153Y-112343826D01*
X124226326Y-111865546D01*
X122979146Y-111864457D01*
X121826485Y-112340727D01*
X120943826Y-113221847D01*
X120465546Y-114373674D01*
X120465053Y-114938308D01*
X120452560Y-115000000D01*
X119235001Y-115000000D01*
X119235000Y-114999577D01*
X119235000Y-114873690D01*
X119234940Y-114873546D01*
X119234705Y-114374928D01*
X118758564Y-113225421D01*
X118335880Y-112943725D01*
X116914605Y-114365000D01*
X116555395Y-114365000D01*
X118156275Y-112764120D01*
X117874579Y-112341436D01*
X116722108Y-111864706D01*
X115474928Y-111865295D01*
X114325421Y-112341436D01*
X114043725Y-112764120D01*
X115644605Y-114365000D01*
X115285395Y-114365000D01*
X113864120Y-112943725D01*
X113441436Y-113225421D01*
X112964706Y-114377892D01*
X108310000Y-114377892D01*
X108310000Y-105400000D01*
X108890000Y-105400000D01*
X109096286Y-106437072D01*
X109683741Y-107316259D01*
X110562928Y-107903714D01*
X111600000Y-108110000D01*
X112637072Y-107903714D01*
X112733884Y-107839026D01*
X116992642Y-107839026D01*
X116995291Y-107854791D01*
X117249268Y-108382036D01*
X117685680Y-108771954D01*
X118238087Y-108965184D01*
X118473000Y-108820924D01*
X118473000Y-107607000D01*
X118727000Y-107607000D01*
X118727000Y-108820924D01*
X118961913Y-108965184D01*
X119514320Y-108771954D01*
X119950732Y-108382036D01*
X120204709Y-107854791D01*
X120207358Y-107839026D01*
X120086217Y-107607000D01*
X118727000Y-107607000D01*
X118473000Y-107607000D01*
X117113783Y-107607000D01*
X116992642Y-107839026D01*
X112733884Y-107839026D01*
X113516259Y-107316259D01*
X114103714Y-106437072D01*
X114310000Y-105400000D01*
X114218501Y-104940000D01*
X116916655Y-104940000D01*
X117030729Y-105513489D01*
X117355585Y-105999670D01*
X117665069Y-106206461D01*
X117249268Y-106577964D01*
X116995291Y-107105209D01*
X116992642Y-107120974D01*
X117113783Y-107353000D01*
X118473000Y-107353000D01*
X118473000Y-107333000D01*
X118727000Y-107333000D01*
X118727000Y-107353000D01*
X120086217Y-107353000D01*
X120207358Y-107120974D01*
X120204709Y-107105209D01*
X120057219Y-106799026D01*
X154992642Y-106799026D01*
X154995291Y-106814791D01*
X155249268Y-107342036D01*
X155685680Y-107731954D01*
X156238087Y-107925184D01*
X156473000Y-107780924D01*
X156473000Y-106567000D01*
X156727000Y-106567000D01*
X156727000Y-107780924D01*
X156961913Y-107925184D01*
X157514320Y-107731954D01*
X157950732Y-107342036D01*
X158204709Y-106814791D01*
X158207358Y-106799026D01*
X158086217Y-106567000D01*
X156727000Y-106567000D01*
X156473000Y-106567000D01*
X155113783Y-106567000D01*
X154992642Y-106799026D01*
X120057219Y-106799026D01*
X119950732Y-106577964D01*
X119534931Y-106206461D01*
X119844415Y-105999670D01*
X120169271Y-105513489D01*
X120283345Y-104940000D01*
X120169271Y-104366511D01*
X119857559Y-103900000D01*
X154916655Y-103900000D01*
X155030729Y-104473489D01*
X155355585Y-104959670D01*
X155665069Y-105166461D01*
X155249268Y-105537964D01*
X154995291Y-106065209D01*
X154992642Y-106080974D01*
X155113783Y-106313000D01*
X156473000Y-106313000D01*
X156473000Y-106293000D01*
X156727000Y-106293000D01*
X156727000Y-106313000D01*
X158086217Y-106313000D01*
X158207358Y-106080974D01*
X158204709Y-106065209D01*
X157950732Y-105537964D01*
X157534931Y-105166461D01*
X157844415Y-104959670D01*
X157948560Y-104803805D01*
X178714674Y-104803805D01*
X179001043Y-105496872D01*
X179530839Y-106027593D01*
X180223405Y-106315172D01*
X180973305Y-106315826D01*
X181666372Y-106029457D01*
X182197093Y-105499661D01*
X182484672Y-104807095D01*
X182485326Y-104057195D01*
X182198957Y-103364128D01*
X181669161Y-102833407D01*
X180976595Y-102545828D01*
X180226695Y-102545174D01*
X179533628Y-102831543D01*
X179002907Y-103361339D01*
X178715328Y-104053905D01*
X178714674Y-104803805D01*
X157948560Y-104803805D01*
X158169271Y-104473489D01*
X158283345Y-103900000D01*
X158169271Y-103326511D01*
X157844415Y-102840330D01*
X157830087Y-102830757D01*
X157851317Y-102826762D01*
X158067441Y-102687690D01*
X158212431Y-102475490D01*
X158263440Y-102223600D01*
X158263440Y-100496400D01*
X158219162Y-100261083D01*
X158080090Y-100044959D01*
X157867890Y-99899969D01*
X157616000Y-99848960D01*
X155584000Y-99848960D01*
X155348683Y-99893238D01*
X155132559Y-100032310D01*
X154987569Y-100244510D01*
X154936560Y-100496400D01*
X154936560Y-102223600D01*
X154980838Y-102458917D01*
X155119910Y-102675041D01*
X155332110Y-102820031D01*
X155373439Y-102828400D01*
X155355585Y-102840330D01*
X155030729Y-103326511D01*
X154916655Y-103900000D01*
X119857559Y-103900000D01*
X119844415Y-103880330D01*
X119830087Y-103870757D01*
X119851317Y-103866762D01*
X120067441Y-103727690D01*
X120212431Y-103515490D01*
X120263440Y-103263600D01*
X120263440Y-101536400D01*
X120219162Y-101301083D01*
X120080090Y-101084959D01*
X119867890Y-100939969D01*
X119616000Y-100888960D01*
X117584000Y-100888960D01*
X117348683Y-100933238D01*
X117132559Y-101072310D01*
X116987569Y-101284510D01*
X116936560Y-101536400D01*
X116936560Y-103263600D01*
X116980838Y-103498917D01*
X117119910Y-103715041D01*
X117332110Y-103860031D01*
X117373439Y-103868400D01*
X117355585Y-103880330D01*
X117030729Y-104366511D01*
X116916655Y-104940000D01*
X114218501Y-104940000D01*
X114103714Y-104362928D01*
X113516259Y-103483741D01*
X112637072Y-102896286D01*
X111600000Y-102690000D01*
X110562928Y-102896286D01*
X109683741Y-103483741D01*
X109096286Y-104362928D01*
X108890000Y-105400000D01*
X108310000Y-105400000D01*
X108310000Y-83100000D01*
X110114999Y-83100000D01*
X110115000Y-83100005D01*
X110115000Y-98599995D01*
X110114999Y-98600000D01*
X110171190Y-98882484D01*
X110182367Y-98938675D01*
X110221793Y-98997680D01*
X110374210Y-99225790D01*
X111974208Y-100825787D01*
X111974210Y-100825790D01*
X112261325Y-101017633D01*
X112311397Y-101027593D01*
X112600000Y-101085001D01*
X112600005Y-101085000D01*
X114528815Y-101085000D01*
X114528820Y-101085001D01*
X114817423Y-101027593D01*
X114867495Y-101017633D01*
X115154610Y-100825790D01*
X115690858Y-100289541D01*
X115840500Y-100319307D01*
X116375109Y-100212967D01*
X116828328Y-99910135D01*
X117110500Y-99487836D01*
X117392672Y-99910135D01*
X117845891Y-100212967D01*
X118380500Y-100319307D01*
X118915109Y-100212967D01*
X119368328Y-99910135D01*
X119650500Y-99487836D01*
X119932672Y-99910135D01*
X120385891Y-100212967D01*
X120920500Y-100319307D01*
X121455109Y-100212967D01*
X121908328Y-99910135D01*
X122190933Y-99487188D01*
X122472672Y-99908840D01*
X122925891Y-100211672D01*
X123460500Y-100318012D01*
X123995109Y-100211672D01*
X124448328Y-99908840D01*
X124730500Y-99486541D01*
X125012672Y-99908840D01*
X125465891Y-100211672D01*
X126000500Y-100318012D01*
X126535109Y-100211672D01*
X126988328Y-99908840D01*
X127270500Y-99486541D01*
X127552672Y-99908840D01*
X128005891Y-100211672D01*
X128540500Y-100318012D01*
X129075109Y-100211672D01*
X129528328Y-99908840D01*
X129810500Y-99486541D01*
X130092672Y-99908840D01*
X130545891Y-100211672D01*
X131080500Y-100318012D01*
X131615109Y-100211672D01*
X132068328Y-99908840D01*
X132350500Y-99486541D01*
X132632672Y-99908840D01*
X133085891Y-100211672D01*
X133620500Y-100318012D01*
X134155109Y-100211672D01*
X134608328Y-99908840D01*
X134890500Y-99486541D01*
X135172672Y-99908840D01*
X135625891Y-100211672D01*
X136160500Y-100318012D01*
X136695109Y-100211672D01*
X137148328Y-99908840D01*
X137430500Y-99486541D01*
X137712672Y-99908840D01*
X138165891Y-100211672D01*
X138700500Y-100318012D01*
X139235109Y-100211672D01*
X139688328Y-99908840D01*
X139970500Y-99486541D01*
X140252672Y-99908840D01*
X140705891Y-100211672D01*
X141240500Y-100318012D01*
X141775109Y-100211672D01*
X142228328Y-99908840D01*
X142510500Y-99486541D01*
X142792672Y-99908840D01*
X143245891Y-100211672D01*
X143780500Y-100318012D01*
X144315109Y-100211672D01*
X144768328Y-99908840D01*
X145059142Y-99473607D01*
X145078441Y-99538991D01*
X145422474Y-99964680D01*
X145903223Y-100226310D01*
X145977430Y-100241270D01*
X146193500Y-100118770D01*
X146193500Y-98677500D01*
X146173500Y-98677500D01*
X146173500Y-98423500D01*
X146193500Y-98423500D01*
X146193500Y-96982230D01*
X146447500Y-96982230D01*
X146447500Y-98423500D01*
X146467500Y-98423500D01*
X146467500Y-98677500D01*
X146447500Y-98677500D01*
X146447500Y-100118770D01*
X146663570Y-100241270D01*
X146737777Y-100226310D01*
X147218526Y-99964680D01*
X147562559Y-99538991D01*
X147581858Y-99473607D01*
X147872672Y-99908840D01*
X148325891Y-100211672D01*
X148860500Y-100318012D01*
X149395109Y-100211672D01*
X149848328Y-99908840D01*
X149918510Y-99803805D01*
X178714674Y-99803805D01*
X179001043Y-100496872D01*
X179530839Y-101027593D01*
X180223405Y-101315172D01*
X180973305Y-101315826D01*
X181666372Y-101029457D01*
X182197093Y-100499661D01*
X182484672Y-99807095D01*
X182485326Y-99057195D01*
X182198957Y-98364128D01*
X181669161Y-97833407D01*
X180976595Y-97545828D01*
X180226695Y-97545174D01*
X179533628Y-97831543D01*
X179002907Y-98361339D01*
X178715328Y-99053905D01*
X178714674Y-99803805D01*
X149918510Y-99803805D01*
X150151160Y-99455621D01*
X150155162Y-99435500D01*
X162249495Y-99435500D01*
X162249500Y-99435501D01*
X162531984Y-99379310D01*
X162588175Y-99368133D01*
X162875290Y-99176290D01*
X164170000Y-97881579D01*
X164814208Y-98525787D01*
X164814210Y-98525790D01*
X165101325Y-98717633D01*
X165440000Y-98785000D01*
X174362729Y-98785000D01*
X174362734Y-98785001D01*
X174645218Y-98728810D01*
X174701409Y-98717633D01*
X174988524Y-98525790D01*
X174988525Y-98525789D01*
X179009235Y-94505078D01*
X179530839Y-95027593D01*
X180223405Y-95315172D01*
X180973305Y-95315826D01*
X181666372Y-95029457D01*
X182197093Y-94499661D01*
X182484672Y-93807095D01*
X182485326Y-93057195D01*
X182198957Y-92364128D01*
X181669161Y-91833407D01*
X180976595Y-91545828D01*
X180226695Y-91545174D01*
X179533628Y-91831543D01*
X179002907Y-92361339D01*
X178926437Y-92545500D01*
X178832239Y-92545500D01*
X178832234Y-92545499D01*
X178493560Y-92612866D01*
X178493558Y-92612867D01*
X178493559Y-92612867D01*
X178206444Y-92804710D01*
X178206442Y-92804713D01*
X174685000Y-96326154D01*
X174685000Y-89763820D01*
X179446285Y-89763820D01*
X179575533Y-90056623D01*
X180275806Y-90324888D01*
X181025435Y-90304750D01*
X181624467Y-90056623D01*
X181753715Y-89763820D01*
X180600000Y-88610105D01*
X179446285Y-89763820D01*
X174685000Y-89763820D01*
X174685000Y-88106306D01*
X178705612Y-88106306D01*
X178725750Y-88855935D01*
X178973877Y-89454967D01*
X179266680Y-89584215D01*
X180420395Y-88430500D01*
X180779605Y-88430500D01*
X181933320Y-89584215D01*
X182226123Y-89454967D01*
X182494388Y-88754694D01*
X182474250Y-88005065D01*
X182226123Y-87406033D01*
X181933320Y-87276785D01*
X180779605Y-88430500D01*
X180420395Y-88430500D01*
X179266680Y-87276785D01*
X178973877Y-87406033D01*
X178705612Y-88106306D01*
X174685000Y-88106306D01*
X174685000Y-87097180D01*
X179446285Y-87097180D01*
X180600000Y-88250895D01*
X181753715Y-87097180D01*
X181624467Y-86804377D01*
X180924194Y-86536112D01*
X180174565Y-86556250D01*
X179575533Y-86804377D01*
X179446285Y-87097180D01*
X174685000Y-87097180D01*
X174685000Y-86006822D01*
X174734838Y-85886799D01*
X174735162Y-85514833D01*
X174593117Y-85171057D01*
X174330327Y-84907808D01*
X173986799Y-84765162D01*
X173614833Y-84764838D01*
X173271057Y-84906883D01*
X173007808Y-85169673D01*
X172865162Y-85513201D01*
X172864838Y-85885167D01*
X172915000Y-86006569D01*
X172915000Y-96693178D01*
X172865162Y-96813201D01*
X172864986Y-97015000D01*
X165806579Y-97015000D01*
X165362744Y-96571165D01*
X165313117Y-96451057D01*
X165050327Y-96187808D01*
X164706799Y-96045162D01*
X164334833Y-96044838D01*
X164213431Y-96095000D01*
X164126822Y-96095000D01*
X164006799Y-96045162D01*
X163634833Y-96044838D01*
X163291057Y-96186883D01*
X163027808Y-96449673D01*
X162977434Y-96570987D01*
X161882920Y-97665500D01*
X150155162Y-97665500D01*
X150151160Y-97645379D01*
X149848328Y-97192160D01*
X149395109Y-96889328D01*
X148860500Y-96782988D01*
X148325891Y-96889328D01*
X147872672Y-97192160D01*
X147581858Y-97627393D01*
X147562559Y-97562009D01*
X147218526Y-97136320D01*
X146737777Y-96874690D01*
X146663570Y-96859730D01*
X146447500Y-96982230D01*
X146193500Y-96982230D01*
X145977430Y-96859730D01*
X145903223Y-96874690D01*
X145422474Y-97136320D01*
X145078441Y-97562009D01*
X145059142Y-97627393D01*
X144768328Y-97192160D01*
X144315109Y-96889328D01*
X143780500Y-96782988D01*
X143245891Y-96889328D01*
X142792672Y-97192160D01*
X142510500Y-97614459D01*
X142228328Y-97192160D01*
X141775109Y-96889328D01*
X141240500Y-96782988D01*
X140705891Y-96889328D01*
X140252672Y-97192160D01*
X139970500Y-97614459D01*
X139688328Y-97192160D01*
X139235109Y-96889328D01*
X138700500Y-96782988D01*
X138165891Y-96889328D01*
X137712672Y-97192160D01*
X137430500Y-97614459D01*
X137148328Y-97192160D01*
X136695109Y-96889328D01*
X136160500Y-96782988D01*
X135625891Y-96889328D01*
X135172672Y-97192160D01*
X134890500Y-97614459D01*
X134608328Y-97192160D01*
X134155109Y-96889328D01*
X133620500Y-96782988D01*
X133085891Y-96889328D01*
X132632672Y-97192160D01*
X132350500Y-97614459D01*
X132068328Y-97192160D01*
X131615109Y-96889328D01*
X131080500Y-96782988D01*
X130545891Y-96889328D01*
X130092672Y-97192160D01*
X129810500Y-97614459D01*
X129528328Y-97192160D01*
X129075109Y-96889328D01*
X128540500Y-96782988D01*
X128005891Y-96889328D01*
X127552672Y-97192160D01*
X127270500Y-97614459D01*
X126988328Y-97192160D01*
X126535109Y-96889328D01*
X126000500Y-96782988D01*
X125465891Y-96889328D01*
X125012672Y-97192160D01*
X124730500Y-97614459D01*
X124448328Y-97192160D01*
X123995109Y-96889328D01*
X123460500Y-96782988D01*
X122925891Y-96889328D01*
X122472672Y-97192160D01*
X122190933Y-97613812D01*
X121908328Y-97190865D01*
X121455109Y-96888033D01*
X120920500Y-96781693D01*
X120385891Y-96888033D01*
X119932672Y-97190865D01*
X119650500Y-97613164D01*
X119368328Y-97190865D01*
X118915109Y-96888033D01*
X118380500Y-96781693D01*
X117845891Y-96888033D01*
X117392672Y-97190865D01*
X117110500Y-97613164D01*
X116828328Y-97190865D01*
X116375109Y-96888033D01*
X115841455Y-96781883D01*
X116138338Y-96485000D01*
X148000000Y-96485000D01*
X148300407Y-96425245D01*
X148555079Y-96255079D01*
X149431132Y-95379026D01*
X154992642Y-95379026D01*
X154995291Y-95394791D01*
X155249268Y-95922036D01*
X155685680Y-96311954D01*
X156238087Y-96505184D01*
X156473000Y-96360924D01*
X156473000Y-95147000D01*
X156727000Y-95147000D01*
X156727000Y-96360924D01*
X156961913Y-96505184D01*
X157514320Y-96311954D01*
X157950732Y-95922036D01*
X158204709Y-95394791D01*
X158207358Y-95379026D01*
X158086217Y-95147000D01*
X156727000Y-95147000D01*
X156473000Y-95147000D01*
X155113783Y-95147000D01*
X154992642Y-95379026D01*
X149431132Y-95379026D01*
X154455079Y-90355079D01*
X154625245Y-90100407D01*
X154657152Y-89940000D01*
X154916655Y-89940000D01*
X155030729Y-90513489D01*
X155355585Y-90999670D01*
X155670366Y-91210000D01*
X155355585Y-91420330D01*
X155030729Y-91906511D01*
X154916655Y-92480000D01*
X155030729Y-93053489D01*
X155355585Y-93539670D01*
X155665069Y-93746461D01*
X155249268Y-94117964D01*
X154995291Y-94645209D01*
X154992642Y-94660974D01*
X155113783Y-94893000D01*
X156473000Y-94893000D01*
X156473000Y-94873000D01*
X156727000Y-94873000D01*
X156727000Y-94893000D01*
X158086217Y-94893000D01*
X158152958Y-94765167D01*
X162984838Y-94765167D01*
X163126883Y-95108943D01*
X163389673Y-95372192D01*
X163733201Y-95514838D01*
X164105167Y-95515162D01*
X164226569Y-95465000D01*
X164619995Y-95465000D01*
X164620000Y-95465001D01*
X164948821Y-95399593D01*
X164958675Y-95397633D01*
X165245790Y-95205790D01*
X167325787Y-93125792D01*
X167325790Y-93125790D01*
X167517633Y-92838675D01*
X167524389Y-92804710D01*
X167585001Y-92500000D01*
X167585000Y-92499995D01*
X167585000Y-87066580D01*
X171336079Y-83315500D01*
X178926102Y-83315500D01*
X179001043Y-83496872D01*
X179530839Y-84027593D01*
X180223405Y-84315172D01*
X180973305Y-84315826D01*
X181666372Y-84029457D01*
X182197093Y-83499661D01*
X182484672Y-82807095D01*
X182485326Y-82057195D01*
X182198957Y-81364128D01*
X181669161Y-80833407D01*
X180976595Y-80545828D01*
X180226695Y-80545174D01*
X179533628Y-80831543D01*
X179002907Y-81361339D01*
X178926437Y-81545500D01*
X170969505Y-81545500D01*
X170969500Y-81545499D01*
X170695511Y-81600000D01*
X170630825Y-81612867D01*
X170343710Y-81804710D01*
X170343708Y-81804713D01*
X166074210Y-86074210D01*
X165882367Y-86361325D01*
X165871190Y-86417516D01*
X165814999Y-86700000D01*
X165815000Y-86700005D01*
X165815000Y-92133421D01*
X164253420Y-93695000D01*
X164226822Y-93695000D01*
X164106799Y-93645162D01*
X163734833Y-93644838D01*
X163391057Y-93786883D01*
X163127808Y-94049673D01*
X162985162Y-94393201D01*
X162984838Y-94765167D01*
X158152958Y-94765167D01*
X158207358Y-94660974D01*
X158204709Y-94645209D01*
X157950732Y-94117964D01*
X157534931Y-93746461D01*
X157844415Y-93539670D01*
X158169271Y-93053489D01*
X158283345Y-92480000D01*
X158169271Y-91906511D01*
X157844415Y-91420330D01*
X157529634Y-91210000D01*
X157844415Y-90999670D01*
X158169271Y-90513489D01*
X158283345Y-89940000D01*
X158169271Y-89366511D01*
X157844415Y-88880330D01*
X157830087Y-88870757D01*
X157851317Y-88866762D01*
X158067441Y-88727690D01*
X158212431Y-88515490D01*
X158242872Y-88365167D01*
X162984838Y-88365167D01*
X163126883Y-88708943D01*
X163389673Y-88972192D01*
X163733201Y-89114838D01*
X164105167Y-89115162D01*
X164448943Y-88973117D01*
X164712192Y-88710327D01*
X164854838Y-88366799D01*
X164855162Y-87994833D01*
X164805000Y-87873431D01*
X164805000Y-86746580D01*
X173236079Y-78315500D01*
X178926102Y-78315500D01*
X179001043Y-78496872D01*
X179530839Y-79027593D01*
X180223405Y-79315172D01*
X180973305Y-79315826D01*
X181666372Y-79029457D01*
X182197093Y-78499661D01*
X182484672Y-77807095D01*
X182485326Y-77057195D01*
X182198957Y-76364128D01*
X181669161Y-75833407D01*
X180976595Y-75545828D01*
X180226695Y-75545174D01*
X179533628Y-75831543D01*
X179002907Y-76361339D01*
X178926437Y-76545500D01*
X172869505Y-76545500D01*
X172869500Y-76545499D01*
X172530825Y-76612867D01*
X172243710Y-76804710D01*
X172243708Y-76804713D01*
X163294210Y-85754210D01*
X163102367Y-86041325D01*
X163102367Y-86041326D01*
X163034999Y-86380000D01*
X163035000Y-86380005D01*
X163035000Y-87873178D01*
X162985162Y-87993201D01*
X162984838Y-88365167D01*
X158242872Y-88365167D01*
X158263440Y-88263600D01*
X158263440Y-86536400D01*
X158219162Y-86301083D01*
X158080090Y-86084959D01*
X157867890Y-85939969D01*
X157616000Y-85888960D01*
X155584000Y-85888960D01*
X155348683Y-85933238D01*
X155132559Y-86072310D01*
X154987569Y-86284510D01*
X154936560Y-86536400D01*
X154936560Y-88263600D01*
X154980838Y-88498917D01*
X155119910Y-88715041D01*
X155332110Y-88860031D01*
X155373439Y-88868400D01*
X155355585Y-88880330D01*
X155030729Y-89366511D01*
X154916655Y-89940000D01*
X154657152Y-89940000D01*
X154685000Y-89800000D01*
X154685000Y-85425158D01*
X159255079Y-80855079D01*
X159425245Y-80600407D01*
X159485000Y-80300000D01*
X159485000Y-74500000D01*
X159425245Y-74199594D01*
X159255079Y-73944921D01*
X159255076Y-73944919D01*
X157994557Y-72684399D01*
X157996757Y-72679100D01*
X157997242Y-72123339D01*
X157785010Y-71609697D01*
X157392370Y-71216371D01*
X156879100Y-71003243D01*
X156323339Y-71002758D01*
X155809697Y-71214990D01*
X155416371Y-71607630D01*
X155203243Y-72120900D01*
X155202758Y-72676661D01*
X155414990Y-73190303D01*
X155624342Y-73400021D01*
X155416371Y-73607630D01*
X155311578Y-73859999D01*
X154885000Y-73433420D01*
X154885000Y-71466580D01*
X156066579Y-70285000D01*
X170193178Y-70285000D01*
X170313201Y-70334838D01*
X170685167Y-70335162D01*
X171028943Y-70193117D01*
X171292192Y-69930327D01*
X171434838Y-69586799D01*
X171435162Y-69214833D01*
X171293117Y-68871057D01*
X171030327Y-68607808D01*
X170686799Y-68465162D01*
X170314833Y-68464838D01*
X170193431Y-68515000D01*
X168295709Y-68515000D01*
X168553646Y-68257513D01*
X168803006Y-67656987D01*
X168803008Y-67654134D01*
X172036426Y-67654134D01*
X172284738Y-68255095D01*
X172744127Y-68715286D01*
X173344653Y-68964646D01*
X173994894Y-68965214D01*
X174595855Y-68716902D01*
X175056046Y-68257513D01*
X175305406Y-67656987D01*
X175305974Y-67006746D01*
X175057662Y-66405785D01*
X174598273Y-65945594D01*
X173997747Y-65696234D01*
X173347506Y-65695666D01*
X172746545Y-65943978D01*
X172286354Y-66403367D01*
X172036994Y-67003893D01*
X172036426Y-67654134D01*
X168803008Y-67654134D01*
X168803574Y-67006746D01*
X168555262Y-66405785D01*
X168095873Y-65945594D01*
X167495347Y-65696234D01*
X166845106Y-65695666D01*
X166244145Y-65943978D01*
X165783954Y-66403367D01*
X165722228Y-66552020D01*
X165454902Y-66605195D01*
X165200229Y-66775361D01*
X164180590Y-67795000D01*
X154520000Y-67795000D01*
X154219593Y-67854755D01*
X153964921Y-68024921D01*
X149764921Y-72224921D01*
X149594755Y-72479593D01*
X149594755Y-72479594D01*
X149535000Y-72780000D01*
X149535000Y-78254842D01*
X146974842Y-80815000D01*
X145806580Y-80815000D01*
X145989475Y-80632105D01*
X146220000Y-80677959D01*
X146793489Y-80563885D01*
X147279670Y-80239029D01*
X147604526Y-79752848D01*
X147718600Y-79179359D01*
X147718600Y-79120641D01*
X147604526Y-78547152D01*
X147279670Y-78060971D01*
X147008828Y-77880000D01*
X147279670Y-77699029D01*
X147604526Y-77212848D01*
X147718600Y-76639359D01*
X147718600Y-76580641D01*
X147604526Y-76007152D01*
X147279670Y-75520971D01*
X146793489Y-75196115D01*
X146220000Y-75082041D01*
X145646511Y-75196115D01*
X145160330Y-75520971D01*
X144950000Y-75835752D01*
X144739670Y-75520971D01*
X144253489Y-75196115D01*
X143680000Y-75082041D01*
X143106511Y-75196115D01*
X142620330Y-75520971D01*
X142410000Y-75835752D01*
X142199670Y-75520971D01*
X141713489Y-75196115D01*
X141140000Y-75082041D01*
X140566511Y-75196115D01*
X140080330Y-75520971D01*
X139864336Y-75844228D01*
X139806821Y-75721510D01*
X139374947Y-75327312D01*
X138959026Y-75155042D01*
X138727000Y-75276183D01*
X138727000Y-76483000D01*
X138747000Y-76483000D01*
X138747000Y-76737000D01*
X138727000Y-76737000D01*
X138727000Y-76757000D01*
X138473000Y-76757000D01*
X138473000Y-76737000D01*
X137265531Y-76737000D01*
X137145032Y-76969027D01*
X137393179Y-77498490D01*
X137579433Y-77668495D01*
X137501083Y-77683238D01*
X137284959Y-77822310D01*
X137139969Y-78034510D01*
X137088960Y-78286400D01*
X137088960Y-80013600D01*
X137133238Y-80248917D01*
X137272310Y-80465041D01*
X137484510Y-80610031D01*
X137736400Y-80661040D01*
X138046521Y-80661040D01*
X136913561Y-81793999D01*
X136695109Y-81648033D01*
X136160500Y-81541693D01*
X135625891Y-81648033D01*
X135172672Y-81950865D01*
X134890500Y-82373164D01*
X134608328Y-81950865D01*
X134405500Y-81815339D01*
X134405500Y-78020500D01*
X134361091Y-77797242D01*
X134345745Y-77720093D01*
X134175579Y-77465421D01*
X132961131Y-76250973D01*
X137145032Y-76250973D01*
X137265531Y-76483000D01*
X138473000Y-76483000D01*
X138473000Y-75276183D01*
X138240974Y-75155042D01*
X137825053Y-75327312D01*
X137393179Y-75721510D01*
X137145032Y-76250973D01*
X132961131Y-76250973D01*
X125845000Y-69134842D01*
X125845000Y-68790617D01*
X125956657Y-68744481D01*
X126054337Y-68646971D01*
X126185910Y-68851441D01*
X126398110Y-68996431D01*
X126650000Y-69047440D01*
X128550000Y-69047440D01*
X128785317Y-69003162D01*
X129001441Y-68864090D01*
X129146431Y-68651890D01*
X129197440Y-68400000D01*
X129197440Y-66400000D01*
X129153162Y-66164683D01*
X129014090Y-65948559D01*
X128801890Y-65803569D01*
X128550000Y-65752560D01*
X126650000Y-65752560D01*
X126414683Y-65796838D01*
X126198559Y-65935910D01*
X126053569Y-66148110D01*
X126052945Y-66151192D01*
X125959003Y-66057086D01*
X125376659Y-65815276D01*
X124746107Y-65814725D01*
X124163343Y-66055519D01*
X123717086Y-66500997D01*
X123475276Y-67083341D01*
X123474725Y-67713893D01*
X123715519Y-68296657D01*
X124160997Y-68742914D01*
X124275000Y-68790252D01*
X124275000Y-69460000D01*
X124334755Y-69760407D01*
X124504921Y-70015079D01*
X132835500Y-78345658D01*
X132835500Y-81815339D01*
X132632672Y-81950865D01*
X132350500Y-82373164D01*
X132068328Y-81950865D01*
X131615109Y-81648033D01*
X131080500Y-81541693D01*
X130545891Y-81648033D01*
X130092672Y-81950865D01*
X129810500Y-82373164D01*
X129528328Y-81950865D01*
X129075109Y-81648033D01*
X128540500Y-81541693D01*
X128005891Y-81648033D01*
X127552672Y-81950865D01*
X127270500Y-82373164D01*
X126988328Y-81950865D01*
X126785500Y-81815339D01*
X126785500Y-77000500D01*
X126725745Y-76700094D01*
X126555579Y-76445421D01*
X118884467Y-68774309D01*
X118956657Y-68744481D01*
X119054337Y-68646971D01*
X119185910Y-68851441D01*
X119398110Y-68996431D01*
X119650000Y-69047440D01*
X121550000Y-69047440D01*
X121785317Y-69003162D01*
X122001441Y-68864090D01*
X122146431Y-68651890D01*
X122197440Y-68400000D01*
X122197440Y-66400000D01*
X122153162Y-66164683D01*
X122014090Y-65948559D01*
X121801890Y-65803569D01*
X121550000Y-65752560D01*
X119650000Y-65752560D01*
X119414683Y-65796838D01*
X119198559Y-65935910D01*
X119053569Y-66148110D01*
X119052945Y-66151192D01*
X118959003Y-66057086D01*
X118376659Y-65815276D01*
X117746107Y-65814725D01*
X117163343Y-66055519D01*
X116717086Y-66500997D01*
X116475276Y-67083341D01*
X116474725Y-67713893D01*
X116715519Y-68296657D01*
X117160997Y-68742914D01*
X117275000Y-68790252D01*
X117275000Y-69060000D01*
X117334755Y-69360407D01*
X117504921Y-69615079D01*
X119719828Y-71829986D01*
X119616000Y-71808960D01*
X117584000Y-71808960D01*
X117348683Y-71853238D01*
X117132559Y-71992310D01*
X116987569Y-72204510D01*
X116936560Y-72456400D01*
X116936560Y-74183600D01*
X116980838Y-74418917D01*
X117119910Y-74635041D01*
X117332110Y-74780031D01*
X117373439Y-74788400D01*
X117355585Y-74800330D01*
X117030729Y-75286511D01*
X116916655Y-75860000D01*
X117030729Y-76433489D01*
X117355585Y-76919670D01*
X117665069Y-77126461D01*
X117249268Y-77497964D01*
X116995291Y-78025209D01*
X116992642Y-78040974D01*
X117113783Y-78273000D01*
X118473000Y-78273000D01*
X118473000Y-78253000D01*
X118727000Y-78253000D01*
X118727000Y-78273000D01*
X120086217Y-78273000D01*
X120207358Y-78040974D01*
X120204709Y-78025209D01*
X119950732Y-77497964D01*
X119534931Y-77126461D01*
X119844415Y-76919670D01*
X120169271Y-76433489D01*
X120283345Y-75860000D01*
X120169271Y-75286511D01*
X119844415Y-74800330D01*
X119830087Y-74790757D01*
X119851317Y-74786762D01*
X120067441Y-74647690D01*
X120094269Y-74608427D01*
X122675500Y-77189658D01*
X122675500Y-77812560D01*
X122633578Y-77795152D01*
X122261612Y-77794828D01*
X121917836Y-77936873D01*
X121654587Y-78199663D01*
X121604213Y-78320976D01*
X121520990Y-78404199D01*
X121520988Y-78404202D01*
X119610189Y-80315000D01*
X112900005Y-80315000D01*
X112900000Y-80314999D01*
X112617516Y-80371190D01*
X112561325Y-80382367D01*
X112274210Y-80574210D01*
X112274208Y-80574213D01*
X110374210Y-82474210D01*
X110182367Y-82761325D01*
X110182367Y-82761326D01*
X110114999Y-83100000D01*
X108310000Y-83100000D01*
X108310000Y-77400000D01*
X108890000Y-77400000D01*
X109096286Y-78437072D01*
X109683741Y-79316259D01*
X110562928Y-79903714D01*
X111600000Y-80110000D01*
X112637072Y-79903714D01*
X113516259Y-79316259D01*
X113888590Y-78759026D01*
X116992642Y-78759026D01*
X116995291Y-78774791D01*
X117249268Y-79302036D01*
X117685680Y-79691954D01*
X118238087Y-79885184D01*
X118473000Y-79740924D01*
X118473000Y-78527000D01*
X118727000Y-78527000D01*
X118727000Y-79740924D01*
X118961913Y-79885184D01*
X119514320Y-79691954D01*
X119950732Y-79302036D01*
X120204709Y-78774791D01*
X120207358Y-78759026D01*
X120086217Y-78527000D01*
X118727000Y-78527000D01*
X118473000Y-78527000D01*
X117113783Y-78527000D01*
X116992642Y-78759026D01*
X113888590Y-78759026D01*
X114103714Y-78437072D01*
X114310000Y-77400000D01*
X114103714Y-76362928D01*
X113516259Y-75483741D01*
X112637072Y-74896286D01*
X111600000Y-74690000D01*
X110562928Y-74896286D01*
X109683741Y-75483741D01*
X109096286Y-76362928D01*
X108890000Y-77400000D01*
X108310000Y-77400000D01*
X108310000Y-67713893D01*
X109474725Y-67713893D01*
X109715519Y-68296657D01*
X110160997Y-68742914D01*
X110743341Y-68984724D01*
X111373893Y-68985275D01*
X111956657Y-68744481D01*
X112054337Y-68646971D01*
X112185910Y-68851441D01*
X112398110Y-68996431D01*
X112650000Y-69047440D01*
X114550000Y-69047440D01*
X114785317Y-69003162D01*
X115001441Y-68864090D01*
X115146431Y-68651890D01*
X115197440Y-68400000D01*
X115197440Y-66400000D01*
X115153162Y-66164683D01*
X115014090Y-65948559D01*
X114801890Y-65803569D01*
X114550000Y-65752560D01*
X112650000Y-65752560D01*
X112414683Y-65796838D01*
X112198559Y-65935910D01*
X112053569Y-66148110D01*
X112052945Y-66151192D01*
X111959003Y-66057086D01*
X111376659Y-65815276D01*
X110746107Y-65814725D01*
X110163343Y-66055519D01*
X109717086Y-66500997D01*
X109475276Y-67083341D01*
X109474725Y-67713893D01*
X108310000Y-67713893D01*
X108310000Y-63981723D01*
X166196243Y-63981723D01*
X166294842Y-64248525D01*
X166904382Y-64474961D01*
X167554177Y-64450901D01*
X168042758Y-64248525D01*
X168141357Y-63981723D01*
X172698643Y-63981723D01*
X172797242Y-64248525D01*
X173406782Y-64474961D01*
X174056577Y-64450901D01*
X174545158Y-64248525D01*
X174637002Y-64000000D01*
X179390000Y-64000000D01*
X179596286Y-65037072D01*
X180183741Y-65916259D01*
X181062928Y-66503714D01*
X182100000Y-66710000D01*
X183137072Y-66503714D01*
X184016259Y-65916259D01*
X184603714Y-65037072D01*
X184810000Y-64000000D01*
X184603714Y-62962928D01*
X184016259Y-62083741D01*
X183137072Y-61496286D01*
X182100000Y-61290000D01*
X181062928Y-61496286D01*
X180183741Y-62083741D01*
X179596286Y-62962928D01*
X179390000Y-64000000D01*
X174637002Y-64000000D01*
X174643757Y-63981723D01*
X173671200Y-63009165D01*
X172698643Y-63981723D01*
X168141357Y-63981723D01*
X167168800Y-63009165D01*
X166196243Y-63981723D01*
X108310000Y-63981723D01*
X108310000Y-63469931D01*
X108489973Y-62565142D01*
X165523399Y-62565142D01*
X165547459Y-63214937D01*
X165749835Y-63703518D01*
X166016637Y-63802117D01*
X166989195Y-62829560D01*
X167348405Y-62829560D01*
X168320963Y-63802117D01*
X168587765Y-63703518D01*
X168814201Y-63093978D01*
X168794620Y-62565142D01*
X172025799Y-62565142D01*
X172049859Y-63214937D01*
X172252235Y-63703518D01*
X172519037Y-63802117D01*
X173491595Y-62829560D01*
X173850805Y-62829560D01*
X174823363Y-63802117D01*
X175090165Y-63703518D01*
X175316601Y-63093978D01*
X175292541Y-62444183D01*
X175090165Y-61955602D01*
X174823363Y-61857003D01*
X173850805Y-62829560D01*
X173491595Y-62829560D01*
X172519037Y-61857003D01*
X172252235Y-61955602D01*
X172025799Y-62565142D01*
X168794620Y-62565142D01*
X168790141Y-62444183D01*
X168587765Y-61955602D01*
X168320963Y-61857003D01*
X167348405Y-62829560D01*
X166989195Y-62829560D01*
X166016637Y-61857003D01*
X165749835Y-61955602D01*
X165523399Y-62565142D01*
X108489973Y-62565142D01*
X108497167Y-62528977D01*
X108990561Y-61790561D01*
X109159922Y-61677397D01*
X166196243Y-61677397D01*
X167168800Y-62649955D01*
X168141357Y-61677397D01*
X172698643Y-61677397D01*
X173671200Y-62649955D01*
X174643757Y-61677397D01*
X174545158Y-61410595D01*
X173935618Y-61184159D01*
X173285823Y-61208219D01*
X172797242Y-61410595D01*
X172698643Y-61677397D01*
X168141357Y-61677397D01*
X168042758Y-61410595D01*
X167433218Y-61184159D01*
X166783423Y-61208219D01*
X166294842Y-61410595D01*
X166196243Y-61677397D01*
X109159922Y-61677397D01*
X109728977Y-61297167D01*
X110669931Y-61110000D01*
X182530069Y-61110000D01*
X183471023Y-61297167D01*
G36*
X153114999Y-71100000D02*
X153115000Y-71100005D01*
X153115000Y-73799995D01*
X153114999Y-73800000D01*
X153171190Y-74082484D01*
X153182367Y-74138675D01*
X153212385Y-74183600D01*
X153374210Y-74425790D01*
X155203126Y-76254706D01*
X155202758Y-76676661D01*
X155414990Y-77190303D01*
X155807630Y-77583629D01*
X156073727Y-77694122D01*
X156600000Y-78220395D01*
X157126302Y-77694093D01*
X157390303Y-77585010D01*
X157783629Y-77192370D01*
X157915000Y-76875993D01*
X157915000Y-77892420D01*
X157822397Y-77668857D01*
X157580213Y-77599392D01*
X156779605Y-78400000D01*
X157580213Y-79200608D01*
X157822397Y-79131143D01*
X157915000Y-78871580D01*
X157915000Y-79974842D01*
X153344921Y-84544921D01*
X153174755Y-84799593D01*
X153158753Y-84880040D01*
X153115000Y-85100000D01*
X153115000Y-89474842D01*
X147674842Y-94915000D01*
X115813180Y-94915000D01*
X115512773Y-94974755D01*
X115258101Y-95144921D01*
X113568100Y-96834922D01*
X113300500Y-96781693D01*
X112765891Y-96888033D01*
X112312672Y-97190865D01*
X112009840Y-97644084D01*
X111903500Y-98178693D01*
X111903500Y-98251920D01*
X111885000Y-98233420D01*
X111885000Y-83466580D01*
X111903500Y-83448080D01*
X111903500Y-83682307D01*
X112009840Y-84216916D01*
X112312672Y-84670135D01*
X112765891Y-84972967D01*
X113300500Y-85079307D01*
X113835109Y-84972967D01*
X114288328Y-84670135D01*
X114570500Y-84247836D01*
X114852672Y-84670135D01*
X115305891Y-84972967D01*
X115840500Y-85079307D01*
X116375109Y-84972967D01*
X116828328Y-84670135D01*
X117110500Y-84247836D01*
X117392672Y-84670135D01*
X117845891Y-84972967D01*
X118380500Y-85079307D01*
X118915109Y-84972967D01*
X119368328Y-84670135D01*
X119650500Y-84247836D01*
X119932672Y-84670135D01*
X120385891Y-84972967D01*
X120920500Y-85079307D01*
X121455109Y-84972967D01*
X121908328Y-84670135D01*
X122190500Y-84247836D01*
X122472672Y-84670135D01*
X122925891Y-84972967D01*
X123460500Y-85079307D01*
X123995109Y-84972967D01*
X124448328Y-84670135D01*
X124730500Y-84247836D01*
X125012672Y-84670135D01*
X125465891Y-84972967D01*
X126000500Y-85079307D01*
X126535109Y-84972967D01*
X126988328Y-84670135D01*
X127270500Y-84247836D01*
X127552672Y-84670135D01*
X128005891Y-84972967D01*
X128540500Y-85079307D01*
X129075109Y-84972967D01*
X129528328Y-84670135D01*
X129810500Y-84247836D01*
X130092672Y-84670135D01*
X130545891Y-84972967D01*
X131080500Y-85079307D01*
X131615109Y-84972967D01*
X132068328Y-84670135D01*
X132350500Y-84247836D01*
X132632672Y-84670135D01*
X133085891Y-84972967D01*
X133620500Y-85079307D01*
X134155109Y-84972967D01*
X134608328Y-84670135D01*
X134890500Y-84247836D01*
X135172672Y-84670135D01*
X135625891Y-84972967D01*
X136160500Y-85079307D01*
X136515000Y-85008793D01*
X136515000Y-91833421D01*
X135691164Y-92657256D01*
X135571057Y-92706883D01*
X135307808Y-92969673D01*
X135165162Y-93313201D01*
X135164838Y-93685167D01*
X135306883Y-94028943D01*
X135569673Y-94292192D01*
X135913201Y-94434838D01*
X136285167Y-94435162D01*
X136628943Y-94293117D01*
X136892192Y-94030327D01*
X136942566Y-93909014D01*
X138025787Y-92825792D01*
X138025790Y-92825790D01*
X138217633Y-92538675D01*
X138252908Y-92361339D01*
X138285001Y-92200000D01*
X138285000Y-92199995D01*
X138285000Y-84996659D01*
X138700500Y-85079307D01*
X139235109Y-84972967D01*
X139688328Y-84670135D01*
X139979147Y-84234894D01*
X139998441Y-84300261D01*
X140342474Y-84725950D01*
X140823223Y-84987580D01*
X140897430Y-85002540D01*
X141113500Y-84880040D01*
X141113500Y-83437500D01*
X141093500Y-83437500D01*
X141093500Y-83183500D01*
X141113500Y-83183500D01*
X141113500Y-83163500D01*
X141367500Y-83163500D01*
X141367500Y-83183500D01*
X141387500Y-83183500D01*
X141387500Y-83437500D01*
X141367500Y-83437500D01*
X141367500Y-84880040D01*
X141583570Y-85002540D01*
X141657777Y-84987580D01*
X142138526Y-84725950D01*
X142482559Y-84300261D01*
X142501853Y-84234894D01*
X142792672Y-84670135D01*
X143245891Y-84972967D01*
X143780500Y-85079307D01*
X144315109Y-84972967D01*
X144768328Y-84670135D01*
X145050500Y-84247836D01*
X145332672Y-84670135D01*
X145785891Y-84972967D01*
X146320500Y-85079307D01*
X146855109Y-84972967D01*
X147308328Y-84670135D01*
X147590500Y-84247836D01*
X147872672Y-84670135D01*
X148325891Y-84972967D01*
X148860500Y-85079307D01*
X149395109Y-84972967D01*
X149848328Y-84670135D01*
X150151160Y-84216916D01*
X150257500Y-83682307D01*
X150257500Y-82938693D01*
X150151160Y-82404084D01*
X149848328Y-81950865D01*
X149395109Y-81648033D01*
X148860500Y-81541693D01*
X148371122Y-81639036D01*
X150629945Y-79380213D01*
X155799392Y-79380213D01*
X155868857Y-79622397D01*
X156392302Y-79809144D01*
X156947368Y-79781362D01*
X157331143Y-79622397D01*
X157400608Y-79380213D01*
X156600000Y-78579605D01*
X155799392Y-79380213D01*
X150629945Y-79380213D01*
X150875079Y-79135079D01*
X151045245Y-78880407D01*
X151105000Y-78580000D01*
X151105000Y-78192302D01*
X155190856Y-78192302D01*
X155218638Y-78747368D01*
X155377603Y-79131143D01*
X155619787Y-79200608D01*
X156420395Y-78400000D01*
X155619787Y-77599392D01*
X155377603Y-77668857D01*
X155190856Y-78192302D01*
X151105000Y-78192302D01*
X151105000Y-73105158D01*
X153116201Y-71093957D01*
X153114999Y-71100000D01*
X153114999Y-71100000D01*
G37*
X153114999Y-71100000D02*
X153115000Y-71100005D01*
X153115000Y-73799995D01*
X153114999Y-73800000D01*
X153171190Y-74082484D01*
X153182367Y-74138675D01*
X153212385Y-74183600D01*
X153374210Y-74425790D01*
X155203126Y-76254706D01*
X155202758Y-76676661D01*
X155414990Y-77190303D01*
X155807630Y-77583629D01*
X156073727Y-77694122D01*
X156600000Y-78220395D01*
X157126302Y-77694093D01*
X157390303Y-77585010D01*
X157783629Y-77192370D01*
X157915000Y-76875993D01*
X157915000Y-77892420D01*
X157822397Y-77668857D01*
X157580213Y-77599392D01*
X156779605Y-78400000D01*
X157580213Y-79200608D01*
X157822397Y-79131143D01*
X157915000Y-78871580D01*
X157915000Y-79974842D01*
X153344921Y-84544921D01*
X153174755Y-84799593D01*
X153158753Y-84880040D01*
X153115000Y-85100000D01*
X153115000Y-89474842D01*
X147674842Y-94915000D01*
X115813180Y-94915000D01*
X115512773Y-94974755D01*
X115258101Y-95144921D01*
X113568100Y-96834922D01*
X113300500Y-96781693D01*
X112765891Y-96888033D01*
X112312672Y-97190865D01*
X112009840Y-97644084D01*
X111903500Y-98178693D01*
X111903500Y-98251920D01*
X111885000Y-98233420D01*
X111885000Y-83466580D01*
X111903500Y-83448080D01*
X111903500Y-83682307D01*
X112009840Y-84216916D01*
X112312672Y-84670135D01*
X112765891Y-84972967D01*
X113300500Y-85079307D01*
X113835109Y-84972967D01*
X114288328Y-84670135D01*
X114570500Y-84247836D01*
X114852672Y-84670135D01*
X115305891Y-84972967D01*
X115840500Y-85079307D01*
X116375109Y-84972967D01*
X116828328Y-84670135D01*
X117110500Y-84247836D01*
X117392672Y-84670135D01*
X117845891Y-84972967D01*
X118380500Y-85079307D01*
X118915109Y-84972967D01*
X119368328Y-84670135D01*
X119650500Y-84247836D01*
X119932672Y-84670135D01*
X120385891Y-84972967D01*
X120920500Y-85079307D01*
X121455109Y-84972967D01*
X121908328Y-84670135D01*
X122190500Y-84247836D01*
X122472672Y-84670135D01*
X122925891Y-84972967D01*
X123460500Y-85079307D01*
X123995109Y-84972967D01*
X124448328Y-84670135D01*
X124730500Y-84247836D01*
X125012672Y-84670135D01*
X125465891Y-84972967D01*
X126000500Y-85079307D01*
X126535109Y-84972967D01*
X126988328Y-84670135D01*
X127270500Y-84247836D01*
X127552672Y-84670135D01*
X128005891Y-84972967D01*
X128540500Y-85079307D01*
X129075109Y-84972967D01*
X129528328Y-84670135D01*
X129810500Y-84247836D01*
X130092672Y-84670135D01*
X130545891Y-84972967D01*
X131080500Y-85079307D01*
X131615109Y-84972967D01*
X132068328Y-84670135D01*
X132350500Y-84247836D01*
X132632672Y-84670135D01*
X133085891Y-84972967D01*
X133620500Y-85079307D01*
X134155109Y-84972967D01*
X134608328Y-84670135D01*
X134890500Y-84247836D01*
X135172672Y-84670135D01*
X135625891Y-84972967D01*
X136160500Y-85079307D01*
X136515000Y-85008793D01*
X136515000Y-91833421D01*
X135691164Y-92657256D01*
X135571057Y-92706883D01*
X135307808Y-92969673D01*
X135165162Y-93313201D01*
X135164838Y-93685167D01*
X135306883Y-94028943D01*
X135569673Y-94292192D01*
X135913201Y-94434838D01*
X136285167Y-94435162D01*
X136628943Y-94293117D01*
X136892192Y-94030327D01*
X136942566Y-93909014D01*
X138025787Y-92825792D01*
X138025790Y-92825790D01*
X138217633Y-92538675D01*
X138252908Y-92361339D01*
X138285001Y-92200000D01*
X138285000Y-92199995D01*
X138285000Y-84996659D01*
X138700500Y-85079307D01*
X139235109Y-84972967D01*
X139688328Y-84670135D01*
X139979147Y-84234894D01*
X139998441Y-84300261D01*
X140342474Y-84725950D01*
X140823223Y-84987580D01*
X140897430Y-85002540D01*
X141113500Y-84880040D01*
X141113500Y-83437500D01*
X141093500Y-83437500D01*
X141093500Y-83183500D01*
X141113500Y-83183500D01*
X141113500Y-83163500D01*
X141367500Y-83163500D01*
X141367500Y-83183500D01*
X141387500Y-83183500D01*
X141387500Y-83437500D01*
X141367500Y-83437500D01*
X141367500Y-84880040D01*
X141583570Y-85002540D01*
X141657777Y-84987580D01*
X142138526Y-84725950D01*
X142482559Y-84300261D01*
X142501853Y-84234894D01*
X142792672Y-84670135D01*
X143245891Y-84972967D01*
X143780500Y-85079307D01*
X144315109Y-84972967D01*
X144768328Y-84670135D01*
X145050500Y-84247836D01*
X145332672Y-84670135D01*
X145785891Y-84972967D01*
X146320500Y-85079307D01*
X146855109Y-84972967D01*
X147308328Y-84670135D01*
X147590500Y-84247836D01*
X147872672Y-84670135D01*
X148325891Y-84972967D01*
X148860500Y-85079307D01*
X149395109Y-84972967D01*
X149848328Y-84670135D01*
X150151160Y-84216916D01*
X150257500Y-83682307D01*
X150257500Y-82938693D01*
X150151160Y-82404084D01*
X149848328Y-81950865D01*
X149395109Y-81648033D01*
X148860500Y-81541693D01*
X148371122Y-81639036D01*
X150629945Y-79380213D01*
X155799392Y-79380213D01*
X155868857Y-79622397D01*
X156392302Y-79809144D01*
X156947368Y-79781362D01*
X157331143Y-79622397D01*
X157400608Y-79380213D01*
X156600000Y-78579605D01*
X155799392Y-79380213D01*
X150629945Y-79380213D01*
X150875079Y-79135079D01*
X151045245Y-78880407D01*
X151105000Y-78580000D01*
X151105000Y-78192302D01*
X155190856Y-78192302D01*
X155218638Y-78747368D01*
X155377603Y-79131143D01*
X155619787Y-79200608D01*
X156420395Y-78400000D01*
X155619787Y-77599392D01*
X155377603Y-77668857D01*
X155190856Y-78192302D01*
X151105000Y-78192302D01*
X151105000Y-73105158D01*
X153116201Y-71093957D01*
X153114999Y-71100000D01*
M02*
