M48
;DRILL file {KiCad 4.0.7} date 09/18/17 08:38:18
;FORMAT={-:-/ absolute / inch / decimal}
FMAT,2
INCH,TZ
T1C0.016
T2C0.030
T3C0.039
T4C0.039
T5C0.040
T6C0.051
T7C0.157
%
G90
G05
M72
T1
X4.3228Y-2.5354
X4.6063Y-2.5315
X4.8207Y-3.0996
X4.8543Y-4.0748
X4.8898Y-2.5315
X5.3583Y-3.6811
X5.6457Y-2.752
X6.3465Y-2.6654
X6.3465Y-3.1378
X6.4449Y-3.622
X6.4488Y-3.5236
X6.4488Y-3.5709
X6.4488Y-3.6732
X6.4496Y-3.8181
X6.4496Y-3.8181
X6.4535Y-3.4717
X6.4535Y-3.7236
X6.4772Y-3.8181
X6.6732Y-3.5276
X6.6732Y-3.5709
X6.6732Y-3.6732
X6.6772Y-3.622
X6.7126Y-2.7323
X6.8425Y-3.374
X6.8425Y-3.8189
T2
X6.1654Y-2.8504
X6.1654Y-2.9291
X6.1654Y-3.0079
X6.1654Y-3.0866
T3
X5.2606Y-3.8799
X5.3606Y-3.8799
X5.4606Y-3.8799
X5.5606Y-3.8799
X5.6606Y-3.8799
X5.7606Y-3.8799
X5.8606Y-3.8799
T4
X4.3724Y-2.6535
X4.4606Y-3.2799
X4.4606Y-3.8799
X4.4724Y-2.6535
X4.5606Y-3.2799
X4.5606Y-3.8799
X4.648Y-2.6535
X4.6606Y-3.2799
X4.6606Y-3.8799
X4.748Y-2.6535
X4.7606Y-3.2799
X4.7606Y-3.8799
X4.8606Y-3.2799
X4.8606Y-3.8799
X4.9236Y-2.6535
X4.9606Y-3.2799
X4.9606Y-3.8799
X5.0236Y-2.6535
X5.0606Y-3.2799
X5.0606Y-3.8799
X5.1606Y-3.2799
X5.1606Y-3.8799
X5.2606Y-3.2799
X5.3606Y-3.2799
X5.4606Y-3.2799
X5.5606Y-3.2799
X5.6606Y-3.2799
X5.7606Y-3.2799
X5.8606Y-3.2799
X6.5814Y-2.4736
X6.5814Y-2.6508
X6.8374Y-2.4736
X6.8374Y-2.6508
T5
X4.6693Y-2.8866
X4.6693Y-2.9866
X4.6693Y-3.0866
X4.6693Y-4.0315
X4.6693Y-4.1315
X4.6693Y-4.2315
X5.4567Y-3.0161
X5.4567Y-3.1161
X5.5567Y-3.0161
X5.5567Y-3.1161
X5.6567Y-3.0161
X5.6567Y-3.1161
X5.7567Y-3.0161
X5.7567Y-3.1161
X6.1654Y-3.4409
X6.1654Y-3.5409
X6.1654Y-3.6409
X6.1654Y-3.7409
X6.1654Y-3.9906
X6.1654Y-4.0906
X6.1654Y-4.1906
T6
X7.1102Y-3.0484
X7.1102Y-3.2453
X7.1102Y-3.4815
X7.1102Y-3.6784
X7.1102Y-3.9146
X7.1102Y-4.1114
T7
X4.5709Y-4.5276
X4.8661Y-4.5276
X5.1614Y-4.5276
X5.4567Y-4.5276
X5.752Y-4.5276
X6.0472Y-4.5276
X6.3425Y-4.5276
X6.6378Y-4.5276
X6.9331Y-4.5276
T0
M30
