M48
;DRILL file {KiCad 4.0.4-stable} date 10/28/16 23:53:52
;FORMAT={-:-/ absolute / inch / decimal}
FMAT,2
INCH,TZ
T1C0.039
T2C0.039
T3C0.040
%
G90
G05
M72
T1
X3.24Y-1.52
X3.34Y-1.52
X3.44Y-1.52
X3.54Y-1.52
X3.64Y-1.52
X3.74Y-1.52
X3.84Y-1.52
T2
X1.1Y-0.64
X1.5Y-0.64
X1.672Y-0.7314
X1.672Y-0.9086
X1.928Y-0.7314
X1.928Y-0.9086
X2.44Y-0.92
X2.44Y-1.52
X2.54Y-0.92
X2.54Y-1.52
X2.58Y-0.68
X2.64Y-0.92
X2.64Y-1.52
X2.68Y-0.68
X2.74Y-0.92
X2.74Y-1.52
X2.84Y-0.92
X2.84Y-1.52
X2.94Y-0.92
X2.94Y-1.52
X3.04Y-0.92
X3.04Y-1.52
X3.14Y-0.92
X3.14Y-1.52
X3.24Y-0.92
X3.34Y-0.92
X3.44Y-0.92
X3.54Y-0.92
X3.64Y-0.92
X3.74Y-0.92
X3.84Y-0.92
T3
X1.1Y-0.8
X1.1Y-0.9
X1.1Y-1.
X1.1Y-1.32
X1.1Y-1.42
X1.1Y-1.52
X2.86Y-0.68
X2.88Y-1.72
X2.96Y-0.68
X2.98Y-1.72
X4.12Y-0.96
X4.12Y-1.06
X4.12Y-1.36
X4.12Y-1.46
T0
M30
