G04 #@! TF.FileFunction,Legend,Bot*
%FSLAX46Y46*%
G04 Gerber Fmt 4.6, Leading zero omitted, Abs format (unit mm)*
G04 Created by KiCad (PCBNEW 4.0.4-stable) date 11/17/16 22:49:04*
%MOMM*%
%LPD*%
G01*
G04 APERTURE LIST*
%ADD10C,0.100000*%
%ADD11C,0.300000*%
%ADD12C,0.002540*%
%ADD13C,0.088900*%
G04 APERTURE END LIST*
D10*
D11*
X102062999Y-39662714D02*
X102205857Y-39591286D01*
X102491571Y-39591286D01*
X102634428Y-39662714D01*
X102777285Y-39805571D01*
X102848714Y-39948429D01*
X102848714Y-40234143D01*
X102777285Y-40377000D01*
X102634428Y-40519857D01*
X102491571Y-40591286D01*
X102205857Y-40591286D01*
X102062999Y-40519857D01*
X102348714Y-39091286D02*
X102705857Y-39162714D01*
X103062999Y-39377000D01*
X103277285Y-39734143D01*
X103348714Y-40091286D01*
X103277285Y-40448429D01*
X103062999Y-40805571D01*
X102705857Y-41019857D01*
X102348714Y-41091286D01*
X101991571Y-41019857D01*
X101634428Y-40805571D01*
X101420142Y-40448429D01*
X101348714Y-40091286D01*
X101420142Y-39734143D01*
X101634428Y-39377000D01*
X101991571Y-39162714D01*
X102348714Y-39091286D01*
X100777285Y-39448429D02*
X100705856Y-39377000D01*
X100562999Y-39305571D01*
X100205856Y-39305571D01*
X100062999Y-39377000D01*
X99991570Y-39448429D01*
X99920142Y-39591286D01*
X99920142Y-39734143D01*
X99991570Y-39948429D01*
X100848713Y-40805571D01*
X99920142Y-40805571D01*
X98991571Y-39305571D02*
X98848714Y-39305571D01*
X98705857Y-39377000D01*
X98634428Y-39448429D01*
X98562999Y-39591286D01*
X98491571Y-39877000D01*
X98491571Y-40234143D01*
X98562999Y-40519857D01*
X98634428Y-40662714D01*
X98705857Y-40734143D01*
X98848714Y-40805571D01*
X98991571Y-40805571D01*
X99134428Y-40734143D01*
X99205857Y-40662714D01*
X99277285Y-40519857D01*
X99348714Y-40234143D01*
X99348714Y-39877000D01*
X99277285Y-39591286D01*
X99205857Y-39448429D01*
X99134428Y-39377000D01*
X98991571Y-39305571D01*
X97063000Y-40805571D02*
X97920143Y-40805571D01*
X97491571Y-40805571D02*
X97491571Y-39305571D01*
X97634428Y-39519857D01*
X97777286Y-39662714D01*
X97920143Y-39734143D01*
X95777286Y-39305571D02*
X96063000Y-39305571D01*
X96205857Y-39377000D01*
X96277286Y-39448429D01*
X96420143Y-39662714D01*
X96491572Y-39948429D01*
X96491572Y-40519857D01*
X96420143Y-40662714D01*
X96348715Y-40734143D01*
X96205857Y-40805571D01*
X95920143Y-40805571D01*
X95777286Y-40734143D01*
X95705857Y-40662714D01*
X95634429Y-40519857D01*
X95634429Y-40162714D01*
X95705857Y-40019857D01*
X95777286Y-39948429D01*
X95920143Y-39877000D01*
X96205857Y-39877000D01*
X96348715Y-39948429D01*
X96420143Y-40019857D01*
X96491572Y-40162714D01*
X93848715Y-40019857D02*
X93348715Y-40019857D01*
X93134429Y-40805571D02*
X93848715Y-40805571D01*
X93848715Y-39305571D01*
X93134429Y-39305571D01*
X91848715Y-40805571D02*
X91848715Y-40019857D01*
X91920144Y-39877000D01*
X92063001Y-39805571D01*
X92348715Y-39805571D01*
X92491572Y-39877000D01*
X91848715Y-40734143D02*
X91991572Y-40805571D01*
X92348715Y-40805571D01*
X92491572Y-40734143D01*
X92563001Y-40591286D01*
X92563001Y-40448429D01*
X92491572Y-40305571D01*
X92348715Y-40234143D01*
X91991572Y-40234143D01*
X91848715Y-40162714D01*
X91205858Y-40734143D02*
X91063001Y-40805571D01*
X90777286Y-40805571D01*
X90634429Y-40734143D01*
X90563001Y-40591286D01*
X90563001Y-40519857D01*
X90634429Y-40377000D01*
X90777286Y-40305571D01*
X90991572Y-40305571D01*
X91134429Y-40234143D01*
X91205858Y-40091286D01*
X91205858Y-40019857D01*
X91134429Y-39877000D01*
X90991572Y-39805571D01*
X90777286Y-39805571D01*
X90634429Y-39877000D01*
X90063000Y-39805571D02*
X89705857Y-40805571D01*
X89348715Y-39805571D02*
X89705857Y-40805571D01*
X89848715Y-41162714D01*
X89920143Y-41234143D01*
X90063000Y-41305571D01*
X88063000Y-40805571D02*
X88777286Y-40805571D01*
X88777286Y-39305571D01*
X86920143Y-40805571D02*
X86920143Y-40019857D01*
X86991572Y-39877000D01*
X87134429Y-39805571D01*
X87420143Y-39805571D01*
X87563000Y-39877000D01*
X86920143Y-40734143D02*
X87063000Y-40805571D01*
X87420143Y-40805571D01*
X87563000Y-40734143D01*
X87634429Y-40591286D01*
X87634429Y-40448429D01*
X87563000Y-40305571D01*
X87420143Y-40234143D01*
X87063000Y-40234143D01*
X86920143Y-40162714D01*
X86205857Y-40805571D02*
X86205857Y-39305571D01*
X86205857Y-39877000D02*
X86063000Y-39805571D01*
X85777286Y-39805571D01*
X85634429Y-39877000D01*
X85563000Y-39948429D01*
X85491571Y-40091286D01*
X85491571Y-40519857D01*
X85563000Y-40662714D01*
X85634429Y-40734143D01*
X85777286Y-40805571D01*
X86063000Y-40805571D01*
X86205857Y-40734143D01*
X84205857Y-39805571D02*
X84205857Y-40805571D01*
X84563000Y-39234143D02*
X84920143Y-40305571D01*
X83991571Y-40305571D01*
X83420143Y-40805571D02*
X83420143Y-39305571D01*
X82563000Y-40805571D02*
X83205857Y-39948429D01*
X82563000Y-39305571D02*
X83420143Y-40162714D01*
X81920143Y-40805571D02*
X81920143Y-39805571D01*
X81920143Y-39305571D02*
X81991572Y-39377000D01*
X81920143Y-39448429D01*
X81848715Y-39377000D01*
X81920143Y-39305571D01*
X81920143Y-39448429D01*
X80563000Y-40805571D02*
X80563000Y-39305571D01*
X80563000Y-40734143D02*
X80705857Y-40805571D01*
X80991571Y-40805571D01*
X81134429Y-40734143D01*
X81205857Y-40662714D01*
X81277286Y-40519857D01*
X81277286Y-40091286D01*
X81205857Y-39948429D01*
X81134429Y-39877000D01*
X80991571Y-39805571D01*
X80705857Y-39805571D01*
X80563000Y-39877000D01*
X79920143Y-40734143D02*
X79777286Y-40805571D01*
X79491571Y-40805571D01*
X79348714Y-40734143D01*
X79277286Y-40591286D01*
X79277286Y-40519857D01*
X79348714Y-40377000D01*
X79491571Y-40305571D01*
X79705857Y-40305571D01*
X79848714Y-40234143D01*
X79920143Y-40091286D01*
X79920143Y-40019857D01*
X79848714Y-39877000D01*
X79705857Y-39805571D01*
X79491571Y-39805571D01*
X79348714Y-39877000D01*
X103563001Y-43355571D02*
X103563001Y-41855571D01*
X102920144Y-43355571D02*
X102920144Y-42569857D01*
X102991573Y-42427000D01*
X103134430Y-42355571D01*
X103348715Y-42355571D01*
X103491573Y-42427000D01*
X103563001Y-42498429D01*
X102420144Y-42355571D02*
X101848715Y-42355571D01*
X102205858Y-41855571D02*
X102205858Y-43141286D01*
X102134430Y-43284143D01*
X101991572Y-43355571D01*
X101848715Y-43355571D01*
X101563001Y-42355571D02*
X100991572Y-42355571D01*
X101348715Y-41855571D02*
X101348715Y-43141286D01*
X101277287Y-43284143D01*
X101134429Y-43355571D01*
X100991572Y-43355571D01*
X100491572Y-42355571D02*
X100491572Y-43855571D01*
X100491572Y-42427000D02*
X100348715Y-42355571D01*
X100063001Y-42355571D01*
X99920144Y-42427000D01*
X99848715Y-42498429D01*
X99777286Y-42641286D01*
X99777286Y-43069857D01*
X99848715Y-43212714D01*
X99920144Y-43284143D01*
X100063001Y-43355571D01*
X100348715Y-43355571D01*
X100491572Y-43284143D01*
X99134429Y-43212714D02*
X99063001Y-43284143D01*
X99134429Y-43355571D01*
X99205858Y-43284143D01*
X99134429Y-43212714D01*
X99134429Y-43355571D01*
X99134429Y-42427000D02*
X99063001Y-42498429D01*
X99134429Y-42569857D01*
X99205858Y-42498429D01*
X99134429Y-42427000D01*
X99134429Y-42569857D01*
X97348715Y-41784143D02*
X98634429Y-43712714D01*
X95777286Y-41784143D02*
X97063000Y-43712714D01*
X94705857Y-43284143D02*
X94848714Y-43355571D01*
X95134428Y-43355571D01*
X95277285Y-43284143D01*
X95348714Y-43141286D01*
X95348714Y-42569857D01*
X95277285Y-42427000D01*
X95134428Y-42355571D01*
X94848714Y-42355571D01*
X94705857Y-42427000D01*
X94634428Y-42569857D01*
X94634428Y-42712714D01*
X95348714Y-42855571D01*
X93991571Y-43355571D02*
X93991571Y-42355571D01*
X93991571Y-42641286D02*
X93920143Y-42498429D01*
X93848714Y-42427000D01*
X93705857Y-42355571D01*
X93563000Y-42355571D01*
X92420143Y-43355571D02*
X92420143Y-42569857D01*
X92491572Y-42427000D01*
X92634429Y-42355571D01*
X92920143Y-42355571D01*
X93063000Y-42427000D01*
X92420143Y-43284143D02*
X92563000Y-43355571D01*
X92920143Y-43355571D01*
X93063000Y-43284143D01*
X93134429Y-43141286D01*
X93134429Y-42998429D01*
X93063000Y-42855571D01*
X92920143Y-42784143D01*
X92563000Y-42784143D01*
X92420143Y-42712714D01*
X91777286Y-43284143D02*
X91634429Y-43355571D01*
X91348714Y-43355571D01*
X91205857Y-43284143D01*
X91134429Y-43141286D01*
X91134429Y-43069857D01*
X91205857Y-42927000D01*
X91348714Y-42855571D01*
X91563000Y-42855571D01*
X91705857Y-42784143D01*
X91777286Y-42641286D01*
X91777286Y-42569857D01*
X91705857Y-42427000D01*
X91563000Y-42355571D01*
X91348714Y-42355571D01*
X91205857Y-42427000D01*
X90491571Y-43355571D02*
X90491571Y-42355571D01*
X90491571Y-42498429D02*
X90420143Y-42427000D01*
X90277285Y-42355571D01*
X90063000Y-42355571D01*
X89920143Y-42427000D01*
X89848714Y-42569857D01*
X89848714Y-43355571D01*
X89848714Y-42569857D02*
X89777285Y-42427000D01*
X89634428Y-42355571D01*
X89420143Y-42355571D01*
X89277285Y-42427000D01*
X89205857Y-42569857D01*
X89205857Y-43355571D01*
X87848714Y-42355571D02*
X87848714Y-43355571D01*
X88491571Y-42355571D02*
X88491571Y-43141286D01*
X88420143Y-43284143D01*
X88277285Y-43355571D01*
X88063000Y-43355571D01*
X87920143Y-43284143D01*
X87848714Y-43212714D01*
X87205857Y-43284143D02*
X87063000Y-43355571D01*
X86777285Y-43355571D01*
X86634428Y-43284143D01*
X86563000Y-43141286D01*
X86563000Y-43069857D01*
X86634428Y-42927000D01*
X86777285Y-42855571D01*
X86991571Y-42855571D01*
X87134428Y-42784143D01*
X87205857Y-42641286D01*
X87205857Y-42569857D01*
X87134428Y-42427000D01*
X86991571Y-42355571D01*
X86777285Y-42355571D01*
X86634428Y-42427000D01*
X85920142Y-42784143D02*
X84777285Y-42784143D01*
X84062999Y-43355571D02*
X84062999Y-42355571D01*
X84062999Y-41855571D02*
X84134428Y-41927000D01*
X84062999Y-41998429D01*
X83991571Y-41927000D01*
X84062999Y-41855571D01*
X84062999Y-41998429D01*
X82705856Y-43284143D02*
X82848713Y-43355571D01*
X83134427Y-43355571D01*
X83277285Y-43284143D01*
X83348713Y-43212714D01*
X83420142Y-43069857D01*
X83420142Y-42641286D01*
X83348713Y-42498429D01*
X83277285Y-42427000D01*
X83134427Y-42355571D01*
X82848713Y-42355571D01*
X82705856Y-42427000D01*
X82277285Y-42355571D02*
X81705856Y-42355571D01*
X82062999Y-41855571D02*
X82062999Y-43141286D01*
X81991571Y-43284143D01*
X81848713Y-43355571D01*
X81705856Y-43355571D01*
X81205856Y-43212714D02*
X81134428Y-43284143D01*
X81205856Y-43355571D01*
X81277285Y-43284143D01*
X81205856Y-43212714D01*
X81205856Y-43355571D01*
X80491570Y-42355571D02*
X80491570Y-43355571D01*
X80491570Y-42498429D02*
X80420142Y-42427000D01*
X80277284Y-42355571D01*
X80062999Y-42355571D01*
X79920142Y-42427000D01*
X79848713Y-42569857D01*
X79848713Y-43355571D01*
X78920141Y-43355571D02*
X79062999Y-43284143D01*
X79134427Y-43141286D01*
X79134427Y-41855571D01*
D12*
G36*
X83540600Y-29596080D02*
X83530440Y-29613860D01*
X83507580Y-29651960D01*
X83469480Y-29707840D01*
X83426300Y-29773880D01*
X83380580Y-29839920D01*
X83345020Y-29895800D01*
X83319620Y-29933900D01*
X83312000Y-29949140D01*
X83314540Y-29956760D01*
X83329780Y-29989780D01*
X83352640Y-30032960D01*
X83367880Y-30060900D01*
X83385660Y-30101540D01*
X83388200Y-30124400D01*
X83383120Y-30126940D01*
X83352640Y-30142180D01*
X83296760Y-30165040D01*
X83225640Y-30198060D01*
X83139280Y-30233620D01*
X83047840Y-30271720D01*
X82956400Y-30312360D01*
X82867500Y-30347920D01*
X82786220Y-30380940D01*
X82720180Y-30406340D01*
X82677000Y-30424120D01*
X82656680Y-30431740D01*
X82651600Y-30429200D01*
X82631280Y-30408880D01*
X82605880Y-30370780D01*
X82539840Y-30292040D01*
X82443320Y-30213300D01*
X82334100Y-30167580D01*
X82209640Y-30149800D01*
X82095340Y-30165040D01*
X81988660Y-30208220D01*
X81889600Y-30284420D01*
X81815940Y-30378400D01*
X81770220Y-30485080D01*
X81754980Y-30607000D01*
X81767680Y-30721300D01*
X81813400Y-30833060D01*
X81887060Y-30932120D01*
X81935320Y-30975300D01*
X82034380Y-31031180D01*
X82141060Y-31064200D01*
X82169000Y-31066740D01*
X82285840Y-31061660D01*
X82397600Y-31028640D01*
X82496660Y-30965140D01*
X82580480Y-30881320D01*
X82588100Y-30868620D01*
X82618580Y-30830520D01*
X82638900Y-30802580D01*
X82654140Y-30782260D01*
X83014820Y-30932120D01*
X83070700Y-30954980D01*
X83169760Y-30995620D01*
X83253580Y-31031180D01*
X83322160Y-31061660D01*
X83367880Y-31081980D01*
X83385660Y-31089600D01*
X83385660Y-31089600D01*
X83388200Y-31104840D01*
X83378040Y-31130240D01*
X83355180Y-31181040D01*
X83337400Y-31214060D01*
X83319620Y-31252160D01*
X83312000Y-31269940D01*
X83319620Y-31285180D01*
X83342480Y-31320740D01*
X83378040Y-31374080D01*
X83423760Y-31440120D01*
X83464400Y-31501080D01*
X83502500Y-31556960D01*
X83527900Y-31597600D01*
X83538060Y-31617920D01*
X83538060Y-31620460D01*
X83527900Y-31638240D01*
X83502500Y-31671260D01*
X83456780Y-31719520D01*
X83388200Y-31788100D01*
X83375500Y-31798260D01*
X83319620Y-31856680D01*
X83271360Y-31902400D01*
X83235800Y-31932880D01*
X83220560Y-31945580D01*
X83220560Y-31945580D01*
X83200240Y-31935420D01*
X83159600Y-31907480D01*
X83101180Y-31871920D01*
X83035140Y-31826200D01*
X82862420Y-31706820D01*
X82699860Y-31772860D01*
X82649060Y-31793180D01*
X82588100Y-31818580D01*
X82544920Y-31836360D01*
X82527140Y-31846520D01*
X82519520Y-31864300D01*
X82509360Y-31907480D01*
X82496660Y-31973520D01*
X82481420Y-32049720D01*
X82468720Y-32123380D01*
X82456020Y-32189420D01*
X82445860Y-32237680D01*
X82443320Y-32260540D01*
X82438240Y-32265620D01*
X82428080Y-32270700D01*
X82405220Y-32273240D01*
X82364580Y-32273240D01*
X82301080Y-32275780D01*
X82209640Y-32275780D01*
X82199480Y-32275780D01*
X82113120Y-32273240D01*
X82042000Y-32273240D01*
X81998820Y-32270700D01*
X81981040Y-32268160D01*
X81981040Y-32268160D01*
X81975960Y-32245300D01*
X81965800Y-32199580D01*
X81953100Y-32133540D01*
X81937860Y-32054800D01*
X81935320Y-32049720D01*
X81920080Y-31970980D01*
X81907380Y-31902400D01*
X81897220Y-31856680D01*
X81889600Y-31838900D01*
X81884520Y-31833820D01*
X81854040Y-31818580D01*
X81805780Y-31795720D01*
X81744820Y-31767780D01*
X81683860Y-31742380D01*
X81627980Y-31722060D01*
X81584800Y-31706820D01*
X81567020Y-31701740D01*
X81567020Y-31701740D01*
X81546700Y-31714440D01*
X81506060Y-31739840D01*
X81450180Y-31777940D01*
X81381600Y-31826200D01*
X81376520Y-31828740D01*
X81310480Y-31874460D01*
X81254600Y-31910020D01*
X81213960Y-31935420D01*
X81196180Y-31945580D01*
X81193640Y-31943040D01*
X81175860Y-31930340D01*
X81137760Y-31894780D01*
X81086960Y-31846520D01*
X81026000Y-31788100D01*
X81008220Y-31770320D01*
X80944720Y-31704280D01*
X80904080Y-31658560D01*
X80881220Y-31630620D01*
X80876140Y-31617920D01*
X80876140Y-31617920D01*
X80888840Y-31597600D01*
X80916780Y-31554420D01*
X80954880Y-31498540D01*
X81000600Y-31429960D01*
X81005680Y-31424880D01*
X81051400Y-31358840D01*
X81086960Y-31302960D01*
X81114900Y-31264860D01*
X81125060Y-31247080D01*
X81125060Y-31244540D01*
X81117440Y-31216600D01*
X81099660Y-31168340D01*
X81076800Y-31109920D01*
X81051400Y-31048960D01*
X81028540Y-30993080D01*
X81010760Y-30949900D01*
X80998060Y-30932120D01*
X80998060Y-30929580D01*
X80972660Y-30924500D01*
X80924400Y-30911800D01*
X80855820Y-30896560D01*
X80772000Y-30881320D01*
X80759300Y-30878780D01*
X80680560Y-30863540D01*
X80614520Y-30850840D01*
X80568800Y-30843220D01*
X80551020Y-30838140D01*
X80548480Y-30825440D01*
X80545940Y-30787340D01*
X80543400Y-30728920D01*
X80543400Y-30657800D01*
X80543400Y-30581600D01*
X80545940Y-30507940D01*
X80545940Y-30446980D01*
X80551020Y-30401260D01*
X80553560Y-30380940D01*
X80556100Y-30380940D01*
X80578960Y-30373320D01*
X80629760Y-30363160D01*
X80698340Y-30350460D01*
X80779620Y-30332680D01*
X80794860Y-30330140D01*
X80873600Y-30314900D01*
X80939640Y-30302200D01*
X80985360Y-30292040D01*
X81003140Y-30286960D01*
X81005680Y-30281880D01*
X81020920Y-30248860D01*
X81041240Y-30195520D01*
X81069180Y-30129480D01*
X81130140Y-29977080D01*
X81003140Y-29789120D01*
X80990440Y-29771340D01*
X80944720Y-29705300D01*
X80906620Y-29649420D01*
X80883760Y-29611320D01*
X80873600Y-29593540D01*
X80873600Y-29593540D01*
X80891380Y-29573220D01*
X80924400Y-29537660D01*
X80975200Y-29486860D01*
X81033620Y-29428440D01*
X81076800Y-29382720D01*
X81130140Y-29331920D01*
X81165700Y-29298900D01*
X81188560Y-29281120D01*
X81201260Y-29276040D01*
X81211420Y-29276040D01*
X81229200Y-29288740D01*
X81272380Y-29316680D01*
X81328260Y-29354780D01*
X81394300Y-29400500D01*
X81450180Y-29438600D01*
X81513680Y-29479240D01*
X81556860Y-29504640D01*
X81579720Y-29514800D01*
X81589880Y-29512260D01*
X81625440Y-29499560D01*
X81681320Y-29476700D01*
X81747360Y-29448760D01*
X81894680Y-29382720D01*
X81915000Y-29286200D01*
X81925160Y-29227780D01*
X81940400Y-29143960D01*
X81955640Y-29065220D01*
X81981040Y-28943300D01*
X82430620Y-28938220D01*
X82438240Y-28958540D01*
X82443320Y-28976320D01*
X82453480Y-29022040D01*
X82466180Y-29085540D01*
X82481420Y-29164280D01*
X82494120Y-29227780D01*
X82506820Y-29293820D01*
X82514440Y-29342080D01*
X82519520Y-29362400D01*
X82527140Y-29367480D01*
X82557620Y-29385260D01*
X82608420Y-29408120D01*
X82669380Y-29433520D01*
X82732880Y-29461460D01*
X82791300Y-29484320D01*
X82837020Y-29499560D01*
X82859880Y-29507180D01*
X82877660Y-29497020D01*
X82915760Y-29471620D01*
X82971640Y-29436060D01*
X83037680Y-29390340D01*
X83101180Y-29347160D01*
X83159600Y-29309060D01*
X83197700Y-29283660D01*
X83218020Y-29270960D01*
X83230720Y-29276040D01*
X83261200Y-29303980D01*
X83312000Y-29352240D01*
X83385660Y-29425900D01*
X83395820Y-29438600D01*
X83454240Y-29497020D01*
X83499960Y-29545280D01*
X83530440Y-29580840D01*
X83540600Y-29596080D01*
X83540600Y-29596080D01*
G37*
X83540600Y-29596080D02*
X83530440Y-29613860D01*
X83507580Y-29651960D01*
X83469480Y-29707840D01*
X83426300Y-29773880D01*
X83380580Y-29839920D01*
X83345020Y-29895800D01*
X83319620Y-29933900D01*
X83312000Y-29949140D01*
X83314540Y-29956760D01*
X83329780Y-29989780D01*
X83352640Y-30032960D01*
X83367880Y-30060900D01*
X83385660Y-30101540D01*
X83388200Y-30124400D01*
X83383120Y-30126940D01*
X83352640Y-30142180D01*
X83296760Y-30165040D01*
X83225640Y-30198060D01*
X83139280Y-30233620D01*
X83047840Y-30271720D01*
X82956400Y-30312360D01*
X82867500Y-30347920D01*
X82786220Y-30380940D01*
X82720180Y-30406340D01*
X82677000Y-30424120D01*
X82656680Y-30431740D01*
X82651600Y-30429200D01*
X82631280Y-30408880D01*
X82605880Y-30370780D01*
X82539840Y-30292040D01*
X82443320Y-30213300D01*
X82334100Y-30167580D01*
X82209640Y-30149800D01*
X82095340Y-30165040D01*
X81988660Y-30208220D01*
X81889600Y-30284420D01*
X81815940Y-30378400D01*
X81770220Y-30485080D01*
X81754980Y-30607000D01*
X81767680Y-30721300D01*
X81813400Y-30833060D01*
X81887060Y-30932120D01*
X81935320Y-30975300D01*
X82034380Y-31031180D01*
X82141060Y-31064200D01*
X82169000Y-31066740D01*
X82285840Y-31061660D01*
X82397600Y-31028640D01*
X82496660Y-30965140D01*
X82580480Y-30881320D01*
X82588100Y-30868620D01*
X82618580Y-30830520D01*
X82638900Y-30802580D01*
X82654140Y-30782260D01*
X83014820Y-30932120D01*
X83070700Y-30954980D01*
X83169760Y-30995620D01*
X83253580Y-31031180D01*
X83322160Y-31061660D01*
X83367880Y-31081980D01*
X83385660Y-31089600D01*
X83385660Y-31089600D01*
X83388200Y-31104840D01*
X83378040Y-31130240D01*
X83355180Y-31181040D01*
X83337400Y-31214060D01*
X83319620Y-31252160D01*
X83312000Y-31269940D01*
X83319620Y-31285180D01*
X83342480Y-31320740D01*
X83378040Y-31374080D01*
X83423760Y-31440120D01*
X83464400Y-31501080D01*
X83502500Y-31556960D01*
X83527900Y-31597600D01*
X83538060Y-31617920D01*
X83538060Y-31620460D01*
X83527900Y-31638240D01*
X83502500Y-31671260D01*
X83456780Y-31719520D01*
X83388200Y-31788100D01*
X83375500Y-31798260D01*
X83319620Y-31856680D01*
X83271360Y-31902400D01*
X83235800Y-31932880D01*
X83220560Y-31945580D01*
X83220560Y-31945580D01*
X83200240Y-31935420D01*
X83159600Y-31907480D01*
X83101180Y-31871920D01*
X83035140Y-31826200D01*
X82862420Y-31706820D01*
X82699860Y-31772860D01*
X82649060Y-31793180D01*
X82588100Y-31818580D01*
X82544920Y-31836360D01*
X82527140Y-31846520D01*
X82519520Y-31864300D01*
X82509360Y-31907480D01*
X82496660Y-31973520D01*
X82481420Y-32049720D01*
X82468720Y-32123380D01*
X82456020Y-32189420D01*
X82445860Y-32237680D01*
X82443320Y-32260540D01*
X82438240Y-32265620D01*
X82428080Y-32270700D01*
X82405220Y-32273240D01*
X82364580Y-32273240D01*
X82301080Y-32275780D01*
X82209640Y-32275780D01*
X82199480Y-32275780D01*
X82113120Y-32273240D01*
X82042000Y-32273240D01*
X81998820Y-32270700D01*
X81981040Y-32268160D01*
X81981040Y-32268160D01*
X81975960Y-32245300D01*
X81965800Y-32199580D01*
X81953100Y-32133540D01*
X81937860Y-32054800D01*
X81935320Y-32049720D01*
X81920080Y-31970980D01*
X81907380Y-31902400D01*
X81897220Y-31856680D01*
X81889600Y-31838900D01*
X81884520Y-31833820D01*
X81854040Y-31818580D01*
X81805780Y-31795720D01*
X81744820Y-31767780D01*
X81683860Y-31742380D01*
X81627980Y-31722060D01*
X81584800Y-31706820D01*
X81567020Y-31701740D01*
X81567020Y-31701740D01*
X81546700Y-31714440D01*
X81506060Y-31739840D01*
X81450180Y-31777940D01*
X81381600Y-31826200D01*
X81376520Y-31828740D01*
X81310480Y-31874460D01*
X81254600Y-31910020D01*
X81213960Y-31935420D01*
X81196180Y-31945580D01*
X81193640Y-31943040D01*
X81175860Y-31930340D01*
X81137760Y-31894780D01*
X81086960Y-31846520D01*
X81026000Y-31788100D01*
X81008220Y-31770320D01*
X80944720Y-31704280D01*
X80904080Y-31658560D01*
X80881220Y-31630620D01*
X80876140Y-31617920D01*
X80876140Y-31617920D01*
X80888840Y-31597600D01*
X80916780Y-31554420D01*
X80954880Y-31498540D01*
X81000600Y-31429960D01*
X81005680Y-31424880D01*
X81051400Y-31358840D01*
X81086960Y-31302960D01*
X81114900Y-31264860D01*
X81125060Y-31247080D01*
X81125060Y-31244540D01*
X81117440Y-31216600D01*
X81099660Y-31168340D01*
X81076800Y-31109920D01*
X81051400Y-31048960D01*
X81028540Y-30993080D01*
X81010760Y-30949900D01*
X80998060Y-30932120D01*
X80998060Y-30929580D01*
X80972660Y-30924500D01*
X80924400Y-30911800D01*
X80855820Y-30896560D01*
X80772000Y-30881320D01*
X80759300Y-30878780D01*
X80680560Y-30863540D01*
X80614520Y-30850840D01*
X80568800Y-30843220D01*
X80551020Y-30838140D01*
X80548480Y-30825440D01*
X80545940Y-30787340D01*
X80543400Y-30728920D01*
X80543400Y-30657800D01*
X80543400Y-30581600D01*
X80545940Y-30507940D01*
X80545940Y-30446980D01*
X80551020Y-30401260D01*
X80553560Y-30380940D01*
X80556100Y-30380940D01*
X80578960Y-30373320D01*
X80629760Y-30363160D01*
X80698340Y-30350460D01*
X80779620Y-30332680D01*
X80794860Y-30330140D01*
X80873600Y-30314900D01*
X80939640Y-30302200D01*
X80985360Y-30292040D01*
X81003140Y-30286960D01*
X81005680Y-30281880D01*
X81020920Y-30248860D01*
X81041240Y-30195520D01*
X81069180Y-30129480D01*
X81130140Y-29977080D01*
X81003140Y-29789120D01*
X80990440Y-29771340D01*
X80944720Y-29705300D01*
X80906620Y-29649420D01*
X80883760Y-29611320D01*
X80873600Y-29593540D01*
X80873600Y-29593540D01*
X80891380Y-29573220D01*
X80924400Y-29537660D01*
X80975200Y-29486860D01*
X81033620Y-29428440D01*
X81076800Y-29382720D01*
X81130140Y-29331920D01*
X81165700Y-29298900D01*
X81188560Y-29281120D01*
X81201260Y-29276040D01*
X81211420Y-29276040D01*
X81229200Y-29288740D01*
X81272380Y-29316680D01*
X81328260Y-29354780D01*
X81394300Y-29400500D01*
X81450180Y-29438600D01*
X81513680Y-29479240D01*
X81556860Y-29504640D01*
X81579720Y-29514800D01*
X81589880Y-29512260D01*
X81625440Y-29499560D01*
X81681320Y-29476700D01*
X81747360Y-29448760D01*
X81894680Y-29382720D01*
X81915000Y-29286200D01*
X81925160Y-29227780D01*
X81940400Y-29143960D01*
X81955640Y-29065220D01*
X81981040Y-28943300D01*
X82430620Y-28938220D01*
X82438240Y-28958540D01*
X82443320Y-28976320D01*
X82453480Y-29022040D01*
X82466180Y-29085540D01*
X82481420Y-29164280D01*
X82494120Y-29227780D01*
X82506820Y-29293820D01*
X82514440Y-29342080D01*
X82519520Y-29362400D01*
X82527140Y-29367480D01*
X82557620Y-29385260D01*
X82608420Y-29408120D01*
X82669380Y-29433520D01*
X82732880Y-29461460D01*
X82791300Y-29484320D01*
X82837020Y-29499560D01*
X82859880Y-29507180D01*
X82877660Y-29497020D01*
X82915760Y-29471620D01*
X82971640Y-29436060D01*
X83037680Y-29390340D01*
X83101180Y-29347160D01*
X83159600Y-29309060D01*
X83197700Y-29283660D01*
X83218020Y-29270960D01*
X83230720Y-29276040D01*
X83261200Y-29303980D01*
X83312000Y-29352240D01*
X83385660Y-29425900D01*
X83395820Y-29438600D01*
X83454240Y-29497020D01*
X83499960Y-29545280D01*
X83530440Y-29580840D01*
X83540600Y-29596080D01*
D13*
X26050724Y-37716581D02*
X24780724Y-37716581D01*
X24780724Y-37232772D01*
X24841200Y-37111819D01*
X24901676Y-37051343D01*
X25022629Y-36990867D01*
X25204057Y-36990867D01*
X25325010Y-37051343D01*
X25385486Y-37111819D01*
X25445962Y-37232772D01*
X25445962Y-37716581D01*
X26050724Y-35781343D02*
X26050724Y-36507057D01*
X26050724Y-36144200D02*
X24780724Y-36144200D01*
X24962152Y-36265152D01*
X25083105Y-36386105D01*
X25143581Y-36507057D01*
X31054524Y-40845619D02*
X29784524Y-40845619D01*
X31054524Y-40119905D02*
X30328810Y-40664190D01*
X29784524Y-40119905D02*
X30510238Y-40845619D01*
X30449762Y-39333714D02*
X31054524Y-39333714D01*
X29784524Y-39757048D02*
X30449762Y-39333714D01*
X29784524Y-38910381D01*
X30570714Y-38487048D02*
X30570714Y-37519429D01*
X29784524Y-36672762D02*
X29784524Y-36551810D01*
X29845000Y-36430858D01*
X29905476Y-36370381D01*
X30026429Y-36309905D01*
X30268333Y-36249429D01*
X30570714Y-36249429D01*
X30812619Y-36309905D01*
X30933571Y-36370381D01*
X30994048Y-36430858D01*
X31054524Y-36551810D01*
X31054524Y-36672762D01*
X30994048Y-36793715D01*
X30933571Y-36854191D01*
X30812619Y-36914667D01*
X30570714Y-36975143D01*
X30268333Y-36975143D01*
X30026429Y-36914667D01*
X29905476Y-36854191D01*
X29845000Y-36793715D01*
X29784524Y-36672762D01*
X29784524Y-35826095D02*
X29784524Y-35039905D01*
X30268333Y-35463238D01*
X30268333Y-35281810D01*
X30328810Y-35160857D01*
X30389286Y-35100381D01*
X30510238Y-35039905D01*
X30812619Y-35039905D01*
X30933571Y-35100381D01*
X30994048Y-35160857D01*
X31054524Y-35281810D01*
X31054524Y-35644667D01*
X30994048Y-35765619D01*
X30933571Y-35826095D01*
X29784524Y-34616571D02*
X29784524Y-33830381D01*
X30268333Y-34253714D01*
X30268333Y-34072286D01*
X30328810Y-33951333D01*
X30389286Y-33890857D01*
X30510238Y-33830381D01*
X30812619Y-33830381D01*
X30933571Y-33890857D01*
X30994048Y-33951333D01*
X31054524Y-34072286D01*
X31054524Y-34435143D01*
X30994048Y-34556095D01*
X30933571Y-34616571D01*
X30570714Y-33286095D02*
X30570714Y-32318476D01*
X31054524Y-31108952D02*
X31054524Y-31713714D01*
X29784524Y-31713714D01*
X26050724Y-24508581D02*
X24780724Y-24508581D01*
X24780724Y-24024772D01*
X24841200Y-23903819D01*
X24901676Y-23843343D01*
X25022629Y-23782867D01*
X25204057Y-23782867D01*
X25325010Y-23843343D01*
X25385486Y-23903819D01*
X25445962Y-24024772D01*
X25445962Y-24508581D01*
X24901676Y-23299057D02*
X24841200Y-23238581D01*
X24780724Y-23117629D01*
X24780724Y-22815248D01*
X24841200Y-22694295D01*
X24901676Y-22633819D01*
X25022629Y-22573343D01*
X25143581Y-22573343D01*
X25325010Y-22633819D01*
X26050724Y-23359533D01*
X26050724Y-22573343D01*
X31054524Y-27758571D02*
X29784524Y-27758571D01*
X31054524Y-27032857D02*
X30328810Y-27577142D01*
X29784524Y-27032857D02*
X30510238Y-27758571D01*
X30449762Y-26246666D02*
X31054524Y-26246666D01*
X29784524Y-26670000D02*
X30449762Y-26246666D01*
X29784524Y-25823333D01*
X30570714Y-25400000D02*
X30570714Y-24432381D01*
X29784524Y-23585714D02*
X29784524Y-23464762D01*
X29845000Y-23343810D01*
X29905476Y-23283333D01*
X30026429Y-23222857D01*
X30268333Y-23162381D01*
X30570714Y-23162381D01*
X30812619Y-23222857D01*
X30933571Y-23283333D01*
X30994048Y-23343810D01*
X31054524Y-23464762D01*
X31054524Y-23585714D01*
X30994048Y-23706667D01*
X30933571Y-23767143D01*
X30812619Y-23827619D01*
X30570714Y-23888095D01*
X30268333Y-23888095D01*
X30026429Y-23827619D01*
X29905476Y-23767143D01*
X29845000Y-23706667D01*
X29784524Y-23585714D01*
X29784524Y-22739047D02*
X29784524Y-21952857D01*
X30268333Y-22376190D01*
X30268333Y-22194762D01*
X30328810Y-22073809D01*
X30389286Y-22013333D01*
X30510238Y-21952857D01*
X30812619Y-21952857D01*
X30933571Y-22013333D01*
X30994048Y-22073809D01*
X31054524Y-22194762D01*
X31054524Y-22557619D01*
X30994048Y-22678571D01*
X30933571Y-22739047D01*
X29784524Y-21529523D02*
X29784524Y-20743333D01*
X30268333Y-21166666D01*
X30268333Y-20985238D01*
X30328810Y-20864285D01*
X30389286Y-20803809D01*
X30510238Y-20743333D01*
X30812619Y-20743333D01*
X30933571Y-20803809D01*
X30994048Y-20864285D01*
X31054524Y-20985238D01*
X31054524Y-21348095D01*
X30994048Y-21469047D01*
X30933571Y-21529523D01*
X30570714Y-20199047D02*
X30570714Y-19231428D01*
X31054524Y-17900952D02*
X30449762Y-18324285D01*
X31054524Y-18626666D02*
X29784524Y-18626666D01*
X29784524Y-18142857D01*
X29845000Y-18021904D01*
X29905476Y-17961428D01*
X30026429Y-17900952D01*
X30207857Y-17900952D01*
X30328810Y-17961428D01*
X30389286Y-18021904D01*
X30449762Y-18142857D01*
X30449762Y-18626666D01*
M02*
