G04 #@! TF.FileFunction,Copper,L1,Top,Signal*
%FSLAX46Y46*%
G04 Gerber Fmt 4.6, Leading zero omitted, Abs format (unit mm)*
G04 Created by KiCad (PCBNEW 4.0.4-stable) date 11/17/16 22:49:04*
%MOMM*%
%LPD*%
G01*
G04 APERTURE LIST*
%ADD10C,0.100000*%
%ADD11O,1.524000X2.199640*%
%ADD12O,1.524000X2.197100*%
%ADD13O,3.048000X1.524000*%
%ADD14C,1.998980*%
%ADD15R,2.000000X2.000000*%
%ADD16C,2.000000*%
%ADD17R,2.032000X2.032000*%
%ADD18O,2.032000X2.032000*%
%ADD19R,1.727200X1.727200*%
%ADD20O,1.727200X1.727200*%
%ADD21R,2.999740X2.999740*%
%ADD22C,2.999740*%
%ADD23R,8.399540X6.199640*%
%ADD24R,1.399540X1.199640*%
%ADD25C,1.150000*%
%ADD26C,1.550000*%
%ADD27C,1.450000*%
%ADD28C,0.454000*%
G04 APERTURE END LIST*
D10*
D11*
X97536000Y-23368000D03*
X94996000Y-23368000D03*
X92456000Y-23368000D03*
X89916000Y-23368000D03*
X87376000Y-23368000D03*
X84836000Y-23368000D03*
X82296000Y-23368000D03*
X79756000Y-23368000D03*
X77216000Y-23368000D03*
X74676000Y-23368000D03*
X72136000Y-23368000D03*
X69596000Y-23368000D03*
X67056000Y-23368000D03*
X64516000Y-23368000D03*
X61976000Y-23368000D03*
X61976000Y-38608000D03*
X64516000Y-38608000D03*
X67056000Y-38608000D03*
X69596000Y-38608000D03*
D12*
X72136000Y-38608000D03*
X74676000Y-38608000D03*
X77216000Y-38608000D03*
X79756000Y-38608000D03*
X82296000Y-38608000D03*
X84836000Y-38608000D03*
X87376000Y-38608000D03*
X89916000Y-38608000D03*
X92456000Y-38608000D03*
X94996000Y-38608000D03*
X97536000Y-38608000D03*
D13*
X27940000Y-38608000D03*
X27940000Y-36068000D03*
X27940000Y-33528000D03*
X27940000Y-25400000D03*
X27940000Y-22860000D03*
X27940000Y-20320000D03*
D14*
X49514760Y-17119600D03*
X54015640Y-23622000D03*
X54015640Y-17119600D03*
X49514760Y-23622000D03*
D15*
X44043600Y-18288000D03*
D16*
X41503600Y-18288000D03*
D14*
X54737000Y-29083000D03*
X44577000Y-29083000D03*
D17*
X75793600Y-45618400D03*
D18*
X73253600Y-45618400D03*
D17*
X83718400Y-17221200D03*
D18*
X86258400Y-17221200D03*
D15*
X35509200Y-18288000D03*
D16*
X32969200Y-18288000D03*
D14*
X54673500Y-33210500D03*
X44513500Y-33210500D03*
D19*
X54051200Y-50647600D03*
D20*
X51511200Y-50647600D03*
X54051200Y-48107600D03*
X51511200Y-48107600D03*
X54051200Y-45567600D03*
X51511200Y-45567600D03*
X54051200Y-43027600D03*
X51511200Y-43027600D03*
D21*
X107950000Y-18745200D03*
D22*
X107950000Y-23825200D03*
X107950000Y-28905200D03*
X107950000Y-33985200D03*
D21*
X108000800Y-42011600D03*
D22*
X108000800Y-47091600D03*
X108000800Y-52171600D03*
X108000800Y-57251600D03*
D21*
X86410800Y-47396400D03*
D22*
X81330800Y-47396400D03*
D23*
X90700000Y-62500000D03*
D24*
X100150000Y-62550000D03*
D23*
X100150000Y-62550000D03*
D25*
X107950000Y-28905200D02*
X107950000Y-33985200D01*
X94945200Y-16713200D02*
X106832400Y-16713200D01*
X106832400Y-16713200D02*
X107950000Y-17830800D01*
X107950000Y-17830800D02*
X107950000Y-23825200D01*
X107950000Y-23825200D02*
X107950000Y-28905200D01*
D26*
X49631600Y-13970000D02*
X49631600Y-17002760D01*
X49631600Y-17002760D02*
X49514760Y-17119600D01*
X45872400Y-13970000D02*
X44043600Y-15798800D01*
X91338400Y-13970000D02*
X49631600Y-13970000D01*
X49631600Y-13970000D02*
X45872400Y-13970000D01*
X94081600Y-16713200D02*
X91338400Y-13970000D01*
X89916000Y-20472400D02*
X93675200Y-16713200D01*
X89916000Y-23368000D02*
X89916000Y-20472400D01*
X35509200Y-15951200D02*
X28702000Y-15951200D01*
X27940000Y-16713200D02*
X27940000Y-20320000D01*
X28702000Y-15951200D02*
X27940000Y-16713200D01*
X44043600Y-18288000D02*
X44043600Y-15798800D01*
X35509200Y-15951200D02*
X35509200Y-18288000D01*
X35356800Y-15798800D02*
X35509200Y-15951200D01*
X44043600Y-15798800D02*
X35356800Y-15798800D01*
X27940000Y-33528000D02*
X22923500Y-33528000D01*
X22923500Y-33528000D02*
X20891500Y-31496000D01*
X20891500Y-31496000D02*
X19812000Y-31496000D01*
X27940000Y-20320000D02*
X22161500Y-20320000D01*
X22161500Y-20320000D02*
X19812000Y-22669500D01*
X19812000Y-22669500D02*
X19812000Y-31496000D01*
X94945200Y-16713200D02*
X94081600Y-16713200D01*
X93675200Y-16713200D02*
X94945200Y-16713200D01*
D27*
X61976000Y-23368000D02*
X61976000Y-25971500D01*
X28765500Y-26225500D02*
X27940000Y-25400000D01*
X61722000Y-26225500D02*
X28765500Y-26225500D01*
X61976000Y-25971500D02*
X61722000Y-26225500D01*
D26*
X69596000Y-38608000D02*
X69596000Y-53949600D01*
X24485600Y-38608000D02*
X27940000Y-38608000D01*
X22656800Y-40436800D02*
X24485600Y-38608000D01*
X22656800Y-52984400D02*
X22656800Y-40436800D01*
X25146000Y-55473600D02*
X22656800Y-52984400D01*
X68072000Y-55473600D02*
X25146000Y-55473600D01*
X69596000Y-53949600D02*
X68072000Y-55473600D01*
X54015640Y-23622000D02*
X55473600Y-23622000D01*
X64516000Y-18999200D02*
X64516000Y-23368000D01*
X63957200Y-18440400D02*
X64516000Y-18999200D01*
X58369200Y-18440400D02*
X63957200Y-18440400D01*
X56642000Y-20167600D02*
X58369200Y-18440400D01*
X56642000Y-22453600D02*
X56642000Y-20167600D01*
X55473600Y-23622000D02*
X56642000Y-22453600D01*
X72136000Y-38608000D02*
X72136000Y-41249600D01*
X73253600Y-42367200D02*
X73253600Y-45618400D01*
X72136000Y-41249600D02*
X73253600Y-42367200D01*
X74676000Y-38608000D02*
X74676000Y-40890460D01*
X75793600Y-42008060D02*
X75793600Y-45618400D01*
X74676000Y-40890460D02*
X75793600Y-42008060D01*
X86258400Y-17221200D02*
X86258400Y-19710400D01*
X87376000Y-20828000D02*
X87376000Y-23368000D01*
X86258400Y-19710400D02*
X87376000Y-20828000D01*
X87439500Y-23304500D02*
X87376000Y-23368000D01*
X83718400Y-17221200D02*
X83718400Y-20370800D01*
X84836000Y-21488400D02*
X84836000Y-23368000D01*
X83718400Y-20370800D02*
X84836000Y-21488400D01*
X84963000Y-23241000D02*
X84836000Y-23368000D01*
X69596000Y-28702000D02*
X69596000Y-23368000D01*
X67056000Y-31242000D02*
X69596000Y-28702000D01*
X55880000Y-31242000D02*
X67056000Y-31242000D01*
X54673500Y-32448500D02*
X55880000Y-31242000D01*
X54673500Y-33210500D02*
X54673500Y-32448500D01*
X54737000Y-29083000D02*
X64998600Y-29083000D01*
X67056000Y-27025600D02*
X67056000Y-23368000D01*
X64998600Y-29083000D02*
X67056000Y-27025600D01*
D25*
X94996000Y-23368000D02*
X94996000Y-28143200D01*
X46939200Y-50647600D02*
X51511200Y-50647600D01*
X45618400Y-49326800D02*
X46939200Y-50647600D01*
X45618400Y-39116000D02*
X45618400Y-49326800D01*
X47701200Y-37033200D02*
X45618400Y-39116000D01*
X55067200Y-37033200D02*
X47701200Y-37033200D01*
X58369200Y-33731200D02*
X55067200Y-37033200D01*
X68935600Y-33731200D02*
X58369200Y-33731200D01*
X72085200Y-30581600D02*
X68935600Y-33731200D01*
X92557600Y-30581600D02*
X72085200Y-30581600D01*
X94996000Y-28143200D02*
X92557600Y-30581600D01*
X51308000Y-42824400D02*
X51308000Y-40436800D01*
X64516000Y-40487600D02*
X64516000Y-38608000D01*
X64109600Y-40894000D02*
X64516000Y-40487600D01*
X51765200Y-40894000D02*
X64109600Y-40894000D01*
X51308000Y-40436800D02*
X51765200Y-40894000D01*
X51511200Y-48107600D02*
X51511200Y-45567600D01*
X51511200Y-45567600D02*
X51511200Y-43027600D01*
X51511200Y-43027600D02*
X51308000Y-42824400D01*
X89916000Y-38608000D02*
X89916000Y-35966400D01*
X108000800Y-39065200D02*
X108000800Y-42011600D01*
X107645200Y-38709600D02*
X108000800Y-39065200D01*
X104394000Y-38709600D02*
X107645200Y-38709600D01*
X103327200Y-37642800D02*
X104394000Y-38709600D01*
X103327200Y-36779200D02*
X103327200Y-37642800D01*
X102514400Y-35966400D02*
X103327200Y-36779200D01*
X89916000Y-35966400D02*
X102514400Y-35966400D01*
X108000800Y-42011600D02*
X108000800Y-47091600D01*
X108000800Y-47091600D02*
X108000800Y-52171600D01*
X108000800Y-52171600D02*
X108000800Y-57251600D01*
D26*
X27940000Y-36068000D02*
X20980400Y-36068000D01*
X89916000Y-53187600D02*
X89916000Y-38608000D01*
X84328000Y-58775600D02*
X89916000Y-53187600D01*
X22402800Y-58775600D02*
X84328000Y-58775600D01*
X19507200Y-55880000D02*
X22402800Y-58775600D01*
X19507200Y-37541200D02*
X19507200Y-55880000D01*
X20980400Y-36068000D02*
X19507200Y-37541200D01*
D27*
X27940000Y-22860000D02*
X24574500Y-22860000D01*
X31813500Y-36068000D02*
X27940000Y-36068000D01*
X32766000Y-35115500D02*
X31813500Y-36068000D01*
X32766000Y-30988000D02*
X32766000Y-35115500D01*
X31178500Y-29400500D02*
X32766000Y-30988000D01*
X25527000Y-29400500D02*
X31178500Y-29400500D01*
X23114000Y-26987500D02*
X25527000Y-29400500D01*
X23114000Y-24320500D02*
X23114000Y-26987500D01*
X24574500Y-22860000D02*
X23114000Y-24320500D01*
D25*
X79756000Y-38608000D02*
X79756000Y-42519600D01*
X79756000Y-42519600D02*
X81330800Y-44094400D01*
X81330800Y-44094400D02*
X81330800Y-47396400D01*
X86410800Y-46482000D02*
X82296000Y-42367200D01*
X82296000Y-42367200D02*
X82296000Y-38608000D01*
X86410800Y-47396400D02*
X86410800Y-46482000D01*
D28*
G36*
X43252452Y-13888800D02*
X35356800Y-13888800D01*
X34625874Y-14034190D01*
X34615383Y-14041200D01*
X28702000Y-14041200D01*
X27971075Y-14186590D01*
X27351426Y-14600626D01*
X26589426Y-15362626D01*
X26175390Y-15982274D01*
X26066495Y-16529725D01*
X26030000Y-16713200D01*
X26030000Y-18410000D01*
X22161500Y-18410000D01*
X21430574Y-18555390D01*
X20810926Y-18969426D01*
X18461426Y-21318926D01*
X18047390Y-21938574D01*
X17959108Y-22382400D01*
X17902000Y-22669500D01*
X17902000Y-31496000D01*
X18047390Y-32226925D01*
X18461426Y-32846574D01*
X19081075Y-33260610D01*
X19812000Y-33406000D01*
X20100352Y-33406000D01*
X20873597Y-34179245D01*
X20249475Y-34303390D01*
X19746317Y-34639589D01*
X19629826Y-34717426D01*
X18156626Y-36190626D01*
X17742590Y-36810274D01*
X17709725Y-36975500D01*
X17597200Y-37541200D01*
X17597200Y-55880000D01*
X17742590Y-56610926D01*
X18156626Y-57230574D01*
X21052226Y-60126174D01*
X21671874Y-60540210D01*
X22402800Y-60685600D01*
X84328000Y-60685600D01*
X85058926Y-60540210D01*
X85342995Y-60350401D01*
X85342995Y-64677600D01*
X21532399Y-64677600D01*
X16450000Y-59595202D01*
X16450000Y-19297198D01*
X21989598Y-13757600D01*
X43383652Y-13757600D01*
X43252452Y-13888800D01*
X43252452Y-13888800D01*
G37*
X43252452Y-13888800D02*
X35356800Y-13888800D01*
X34625874Y-14034190D01*
X34615383Y-14041200D01*
X28702000Y-14041200D01*
X27971075Y-14186590D01*
X27351426Y-14600626D01*
X26589426Y-15362626D01*
X26175390Y-15982274D01*
X26066495Y-16529725D01*
X26030000Y-16713200D01*
X26030000Y-18410000D01*
X22161500Y-18410000D01*
X21430574Y-18555390D01*
X20810926Y-18969426D01*
X18461426Y-21318926D01*
X18047390Y-21938574D01*
X17959108Y-22382400D01*
X17902000Y-22669500D01*
X17902000Y-31496000D01*
X18047390Y-32226925D01*
X18461426Y-32846574D01*
X19081075Y-33260610D01*
X19812000Y-33406000D01*
X20100352Y-33406000D01*
X20873597Y-34179245D01*
X20249475Y-34303390D01*
X19746317Y-34639589D01*
X19629826Y-34717426D01*
X18156626Y-36190626D01*
X17742590Y-36810274D01*
X17709725Y-36975500D01*
X17597200Y-37541200D01*
X17597200Y-55880000D01*
X17742590Y-56610926D01*
X18156626Y-57230574D01*
X21052226Y-60126174D01*
X21671874Y-60540210D01*
X22402800Y-60685600D01*
X84328000Y-60685600D01*
X85058926Y-60540210D01*
X85342995Y-60350401D01*
X85342995Y-64677600D01*
X21532399Y-64677600D01*
X16450000Y-59595202D01*
X16450000Y-19297198D01*
X21989598Y-13757600D01*
X43383652Y-13757600D01*
X43252452Y-13888800D01*
G36*
X112518500Y-18471698D02*
X112518500Y-48069500D01*
X112531200Y-48133347D01*
X112531200Y-61627202D01*
X109480802Y-64677600D01*
X105507005Y-64677600D01*
X105507005Y-59450180D01*
X105427863Y-59029574D01*
X105179285Y-58643274D01*
X104799999Y-58384119D01*
X104349770Y-58292945D01*
X95950230Y-58292945D01*
X95529624Y-58372087D01*
X95465735Y-58413198D01*
X95349999Y-58334119D01*
X94899770Y-58242945D01*
X87561803Y-58242945D01*
X91266574Y-54538174D01*
X91549069Y-54115390D01*
X91680610Y-53918525D01*
X91826000Y-53187600D01*
X91826000Y-40759993D01*
X92456000Y-40885308D01*
X93181950Y-40740907D01*
X93726000Y-40377386D01*
X94270050Y-40740907D01*
X94996000Y-40885308D01*
X95721950Y-40740907D01*
X96266000Y-40377386D01*
X96810050Y-40740907D01*
X97536000Y-40885308D01*
X98261950Y-40740907D01*
X98877382Y-40329690D01*
X99288599Y-39714258D01*
X99433000Y-38988308D01*
X99433000Y-38227692D01*
X99323341Y-37676400D01*
X101623883Y-37676400D01*
X101699234Y-38055212D01*
X101747366Y-38297189D01*
X102022930Y-38709600D01*
X102118047Y-38851953D01*
X103184847Y-39918753D01*
X103739611Y-40289434D01*
X103800774Y-40301600D01*
X104394000Y-40419601D01*
X104394005Y-40419600D01*
X105362352Y-40419600D01*
X105343695Y-40511730D01*
X105343695Y-43511470D01*
X105422837Y-43932076D01*
X105671415Y-44318376D01*
X106050701Y-44577531D01*
X106290800Y-44626152D01*
X106290800Y-45075597D01*
X105768369Y-45597117D01*
X105366389Y-46565193D01*
X105365474Y-47613409D01*
X105765764Y-48582184D01*
X106290800Y-49108137D01*
X106290800Y-50155597D01*
X105768369Y-50677117D01*
X105366389Y-51645193D01*
X105365474Y-52693409D01*
X105765764Y-53662184D01*
X106290800Y-54188137D01*
X106290800Y-55235597D01*
X105768369Y-55757117D01*
X105366389Y-56725193D01*
X105365474Y-57773409D01*
X105765764Y-58742184D01*
X106506317Y-59484031D01*
X107474393Y-59886011D01*
X108522609Y-59886926D01*
X109491384Y-59486636D01*
X110233231Y-58746083D01*
X110635211Y-57778007D01*
X110636126Y-56729791D01*
X110235836Y-55761016D01*
X109710800Y-55235063D01*
X109710800Y-54187603D01*
X110233231Y-53666083D01*
X110635211Y-52698007D01*
X110636126Y-51649791D01*
X110235836Y-50681016D01*
X109710800Y-50155063D01*
X109710800Y-49107603D01*
X110233231Y-48586083D01*
X110635211Y-47618007D01*
X110636126Y-46569791D01*
X110235836Y-45601016D01*
X109710800Y-45075063D01*
X109710800Y-44629167D01*
X109921276Y-44589563D01*
X110307576Y-44340985D01*
X110566731Y-43961699D01*
X110657905Y-43511470D01*
X110657905Y-40511730D01*
X110578763Y-40091124D01*
X110330185Y-39704824D01*
X109950899Y-39445669D01*
X109710800Y-39397048D01*
X109710800Y-39065200D01*
X109580634Y-38410811D01*
X109209953Y-37856047D01*
X109209950Y-37856045D01*
X108854353Y-37500447D01*
X108713003Y-37406000D01*
X108299589Y-37129766D01*
X108191018Y-37108170D01*
X107645200Y-36999599D01*
X107645195Y-36999600D01*
X105102306Y-36999600D01*
X105037200Y-36934494D01*
X105037200Y-36779205D01*
X105037201Y-36779200D01*
X104907034Y-36124812D01*
X104907034Y-36124811D01*
X104536353Y-35570047D01*
X104536350Y-35570045D01*
X103723553Y-34757247D01*
X103677713Y-34726618D01*
X103168789Y-34386566D01*
X103027692Y-34358500D01*
X102514400Y-34256399D01*
X102514395Y-34256400D01*
X89916000Y-34256400D01*
X89261611Y-34386566D01*
X88706847Y-34757247D01*
X88336166Y-35312011D01*
X88206000Y-35966400D01*
X88206000Y-36544617D01*
X88101950Y-36475093D01*
X87376000Y-36330692D01*
X86650050Y-36475093D01*
X86106000Y-36838614D01*
X85561950Y-36475093D01*
X84836000Y-36330692D01*
X84110050Y-36475093D01*
X83566000Y-36838614D01*
X83021950Y-36475093D01*
X82296000Y-36330692D01*
X81570050Y-36475093D01*
X81026000Y-36838614D01*
X80481950Y-36475093D01*
X79756000Y-36330692D01*
X79030050Y-36475093D01*
X78486000Y-36838614D01*
X77941950Y-36475093D01*
X77216000Y-36330692D01*
X76490050Y-36475093D01*
X75946000Y-36838614D01*
X75401950Y-36475093D01*
X74676000Y-36330692D01*
X73950050Y-36475093D01*
X73406000Y-36838614D01*
X72861950Y-36475093D01*
X72136000Y-36330692D01*
X71410050Y-36475093D01*
X70866969Y-36837967D01*
X70321950Y-36473798D01*
X69596000Y-36329397D01*
X68870050Y-36473798D01*
X68326000Y-36837319D01*
X67781950Y-36473798D01*
X67056000Y-36329397D01*
X66330050Y-36473798D01*
X65786000Y-36837319D01*
X65241950Y-36473798D01*
X64516000Y-36329397D01*
X63790050Y-36473798D01*
X63246000Y-36837319D01*
X62701950Y-36473798D01*
X61976000Y-36329397D01*
X61250050Y-36473798D01*
X60634618Y-36885015D01*
X60223401Y-37500447D01*
X60079000Y-38226397D01*
X60079000Y-38989603D01*
X60117668Y-39184000D01*
X52451831Y-39184000D01*
X51962389Y-38856966D01*
X51853818Y-38835370D01*
X51390453Y-38743200D01*
X55067195Y-38743200D01*
X55067200Y-38743201D01*
X55613018Y-38634630D01*
X55721589Y-38613034D01*
X56276353Y-38242353D01*
X59077505Y-35441200D01*
X68935595Y-35441200D01*
X68935600Y-35441201D01*
X69528831Y-35323199D01*
X69589989Y-35311034D01*
X70144753Y-34940353D01*
X72793506Y-32291600D01*
X92557595Y-32291600D01*
X92557600Y-32291601D01*
X93103418Y-32183030D01*
X93211989Y-32161434D01*
X93766753Y-31790753D01*
X96205150Y-29352355D01*
X96205153Y-29352353D01*
X96575834Y-28797589D01*
X96706000Y-28143200D01*
X96706000Y-25432678D01*
X96810050Y-25502202D01*
X97536000Y-25646603D01*
X98261950Y-25502202D01*
X98877382Y-25090985D01*
X99288599Y-24475553D01*
X99433000Y-23749603D01*
X99433000Y-22986397D01*
X99288599Y-22260447D01*
X98877382Y-21645015D01*
X98261950Y-21233798D01*
X97536000Y-21089397D01*
X96810050Y-21233798D01*
X96266000Y-21597319D01*
X95721950Y-21233798D01*
X94996000Y-21089397D01*
X94270050Y-21233798D01*
X93726000Y-21597319D01*
X93181950Y-21233798D01*
X92456000Y-21089397D01*
X91886962Y-21202586D01*
X94466348Y-18623200D01*
X94945200Y-18623200D01*
X95676125Y-18477810D01*
X95757855Y-18423200D01*
X105292895Y-18423200D01*
X105292895Y-20245070D01*
X105372037Y-20665676D01*
X105620615Y-21051976D01*
X105999901Y-21311131D01*
X106240000Y-21359752D01*
X106240000Y-21809197D01*
X105717569Y-22330717D01*
X105315589Y-23298793D01*
X105314674Y-24347009D01*
X105714964Y-25315784D01*
X106240000Y-25841737D01*
X106240000Y-26889197D01*
X105717569Y-27410717D01*
X105315589Y-28378793D01*
X105314674Y-29427009D01*
X105714964Y-30395784D01*
X106240000Y-30921737D01*
X106240000Y-31969197D01*
X105717569Y-32490717D01*
X105315589Y-33458793D01*
X105314674Y-34507009D01*
X105714964Y-35475784D01*
X106455517Y-36217631D01*
X107423593Y-36619611D01*
X108471809Y-36620526D01*
X109440584Y-36220236D01*
X110182431Y-35479683D01*
X110584411Y-34511607D01*
X110585326Y-33463391D01*
X110185036Y-32494616D01*
X109660000Y-31968663D01*
X109660000Y-30921203D01*
X110182431Y-30399683D01*
X110584411Y-29431607D01*
X110585326Y-28383391D01*
X110185036Y-27414616D01*
X109660000Y-26888663D01*
X109660000Y-25841203D01*
X110182431Y-25319683D01*
X110584411Y-24351607D01*
X110585326Y-23303391D01*
X110185036Y-22334616D01*
X109660000Y-21808663D01*
X109660000Y-21362767D01*
X109870476Y-21323163D01*
X110256776Y-21074585D01*
X110515931Y-20695299D01*
X110607105Y-20245070D01*
X110607105Y-17245330D01*
X110527963Y-16824724D01*
X110279385Y-16438424D01*
X109900099Y-16179269D01*
X109449870Y-16088095D01*
X108625601Y-16088095D01*
X108041553Y-15504047D01*
X107829901Y-15362626D01*
X107486789Y-15133366D01*
X107378218Y-15111770D01*
X106832400Y-15003199D01*
X106832395Y-15003200D01*
X95757855Y-15003200D01*
X95676125Y-14948590D01*
X94945200Y-14803200D01*
X94872748Y-14803200D01*
X93827148Y-13757600D01*
X107804402Y-13757600D01*
X112518500Y-18471698D01*
X112518500Y-18471698D01*
G37*
X112518500Y-18471698D02*
X112518500Y-48069500D01*
X112531200Y-48133347D01*
X112531200Y-61627202D01*
X109480802Y-64677600D01*
X105507005Y-64677600D01*
X105507005Y-59450180D01*
X105427863Y-59029574D01*
X105179285Y-58643274D01*
X104799999Y-58384119D01*
X104349770Y-58292945D01*
X95950230Y-58292945D01*
X95529624Y-58372087D01*
X95465735Y-58413198D01*
X95349999Y-58334119D01*
X94899770Y-58242945D01*
X87561803Y-58242945D01*
X91266574Y-54538174D01*
X91549069Y-54115390D01*
X91680610Y-53918525D01*
X91826000Y-53187600D01*
X91826000Y-40759993D01*
X92456000Y-40885308D01*
X93181950Y-40740907D01*
X93726000Y-40377386D01*
X94270050Y-40740907D01*
X94996000Y-40885308D01*
X95721950Y-40740907D01*
X96266000Y-40377386D01*
X96810050Y-40740907D01*
X97536000Y-40885308D01*
X98261950Y-40740907D01*
X98877382Y-40329690D01*
X99288599Y-39714258D01*
X99433000Y-38988308D01*
X99433000Y-38227692D01*
X99323341Y-37676400D01*
X101623883Y-37676400D01*
X101699234Y-38055212D01*
X101747366Y-38297189D01*
X102022930Y-38709600D01*
X102118047Y-38851953D01*
X103184847Y-39918753D01*
X103739611Y-40289434D01*
X103800774Y-40301600D01*
X104394000Y-40419601D01*
X104394005Y-40419600D01*
X105362352Y-40419600D01*
X105343695Y-40511730D01*
X105343695Y-43511470D01*
X105422837Y-43932076D01*
X105671415Y-44318376D01*
X106050701Y-44577531D01*
X106290800Y-44626152D01*
X106290800Y-45075597D01*
X105768369Y-45597117D01*
X105366389Y-46565193D01*
X105365474Y-47613409D01*
X105765764Y-48582184D01*
X106290800Y-49108137D01*
X106290800Y-50155597D01*
X105768369Y-50677117D01*
X105366389Y-51645193D01*
X105365474Y-52693409D01*
X105765764Y-53662184D01*
X106290800Y-54188137D01*
X106290800Y-55235597D01*
X105768369Y-55757117D01*
X105366389Y-56725193D01*
X105365474Y-57773409D01*
X105765764Y-58742184D01*
X106506317Y-59484031D01*
X107474393Y-59886011D01*
X108522609Y-59886926D01*
X109491384Y-59486636D01*
X110233231Y-58746083D01*
X110635211Y-57778007D01*
X110636126Y-56729791D01*
X110235836Y-55761016D01*
X109710800Y-55235063D01*
X109710800Y-54187603D01*
X110233231Y-53666083D01*
X110635211Y-52698007D01*
X110636126Y-51649791D01*
X110235836Y-50681016D01*
X109710800Y-50155063D01*
X109710800Y-49107603D01*
X110233231Y-48586083D01*
X110635211Y-47618007D01*
X110636126Y-46569791D01*
X110235836Y-45601016D01*
X109710800Y-45075063D01*
X109710800Y-44629167D01*
X109921276Y-44589563D01*
X110307576Y-44340985D01*
X110566731Y-43961699D01*
X110657905Y-43511470D01*
X110657905Y-40511730D01*
X110578763Y-40091124D01*
X110330185Y-39704824D01*
X109950899Y-39445669D01*
X109710800Y-39397048D01*
X109710800Y-39065200D01*
X109580634Y-38410811D01*
X109209953Y-37856047D01*
X109209950Y-37856045D01*
X108854353Y-37500447D01*
X108713003Y-37406000D01*
X108299589Y-37129766D01*
X108191018Y-37108170D01*
X107645200Y-36999599D01*
X107645195Y-36999600D01*
X105102306Y-36999600D01*
X105037200Y-36934494D01*
X105037200Y-36779205D01*
X105037201Y-36779200D01*
X104907034Y-36124812D01*
X104907034Y-36124811D01*
X104536353Y-35570047D01*
X104536350Y-35570045D01*
X103723553Y-34757247D01*
X103677713Y-34726618D01*
X103168789Y-34386566D01*
X103027692Y-34358500D01*
X102514400Y-34256399D01*
X102514395Y-34256400D01*
X89916000Y-34256400D01*
X89261611Y-34386566D01*
X88706847Y-34757247D01*
X88336166Y-35312011D01*
X88206000Y-35966400D01*
X88206000Y-36544617D01*
X88101950Y-36475093D01*
X87376000Y-36330692D01*
X86650050Y-36475093D01*
X86106000Y-36838614D01*
X85561950Y-36475093D01*
X84836000Y-36330692D01*
X84110050Y-36475093D01*
X83566000Y-36838614D01*
X83021950Y-36475093D01*
X82296000Y-36330692D01*
X81570050Y-36475093D01*
X81026000Y-36838614D01*
X80481950Y-36475093D01*
X79756000Y-36330692D01*
X79030050Y-36475093D01*
X78486000Y-36838614D01*
X77941950Y-36475093D01*
X77216000Y-36330692D01*
X76490050Y-36475093D01*
X75946000Y-36838614D01*
X75401950Y-36475093D01*
X74676000Y-36330692D01*
X73950050Y-36475093D01*
X73406000Y-36838614D01*
X72861950Y-36475093D01*
X72136000Y-36330692D01*
X71410050Y-36475093D01*
X70866969Y-36837967D01*
X70321950Y-36473798D01*
X69596000Y-36329397D01*
X68870050Y-36473798D01*
X68326000Y-36837319D01*
X67781950Y-36473798D01*
X67056000Y-36329397D01*
X66330050Y-36473798D01*
X65786000Y-36837319D01*
X65241950Y-36473798D01*
X64516000Y-36329397D01*
X63790050Y-36473798D01*
X63246000Y-36837319D01*
X62701950Y-36473798D01*
X61976000Y-36329397D01*
X61250050Y-36473798D01*
X60634618Y-36885015D01*
X60223401Y-37500447D01*
X60079000Y-38226397D01*
X60079000Y-38989603D01*
X60117668Y-39184000D01*
X52451831Y-39184000D01*
X51962389Y-38856966D01*
X51853818Y-38835370D01*
X51390453Y-38743200D01*
X55067195Y-38743200D01*
X55067200Y-38743201D01*
X55613018Y-38634630D01*
X55721589Y-38613034D01*
X56276353Y-38242353D01*
X59077505Y-35441200D01*
X68935595Y-35441200D01*
X68935600Y-35441201D01*
X69528831Y-35323199D01*
X69589989Y-35311034D01*
X70144753Y-34940353D01*
X72793506Y-32291600D01*
X92557595Y-32291600D01*
X92557600Y-32291601D01*
X93103418Y-32183030D01*
X93211989Y-32161434D01*
X93766753Y-31790753D01*
X96205150Y-29352355D01*
X96205153Y-29352353D01*
X96575834Y-28797589D01*
X96706000Y-28143200D01*
X96706000Y-25432678D01*
X96810050Y-25502202D01*
X97536000Y-25646603D01*
X98261950Y-25502202D01*
X98877382Y-25090985D01*
X99288599Y-24475553D01*
X99433000Y-23749603D01*
X99433000Y-22986397D01*
X99288599Y-22260447D01*
X98877382Y-21645015D01*
X98261950Y-21233798D01*
X97536000Y-21089397D01*
X96810050Y-21233798D01*
X96266000Y-21597319D01*
X95721950Y-21233798D01*
X94996000Y-21089397D01*
X94270050Y-21233798D01*
X93726000Y-21597319D01*
X93181950Y-21233798D01*
X92456000Y-21089397D01*
X91886962Y-21202586D01*
X94466348Y-18623200D01*
X94945200Y-18623200D01*
X95676125Y-18477810D01*
X95757855Y-18423200D01*
X105292895Y-18423200D01*
X105292895Y-20245070D01*
X105372037Y-20665676D01*
X105620615Y-21051976D01*
X105999901Y-21311131D01*
X106240000Y-21359752D01*
X106240000Y-21809197D01*
X105717569Y-22330717D01*
X105315589Y-23298793D01*
X105314674Y-24347009D01*
X105714964Y-25315784D01*
X106240000Y-25841737D01*
X106240000Y-26889197D01*
X105717569Y-27410717D01*
X105315589Y-28378793D01*
X105314674Y-29427009D01*
X105714964Y-30395784D01*
X106240000Y-30921737D01*
X106240000Y-31969197D01*
X105717569Y-32490717D01*
X105315589Y-33458793D01*
X105314674Y-34507009D01*
X105714964Y-35475784D01*
X106455517Y-36217631D01*
X107423593Y-36619611D01*
X108471809Y-36620526D01*
X109440584Y-36220236D01*
X110182431Y-35479683D01*
X110584411Y-34511607D01*
X110585326Y-33463391D01*
X110185036Y-32494616D01*
X109660000Y-31968663D01*
X109660000Y-30921203D01*
X110182431Y-30399683D01*
X110584411Y-29431607D01*
X110585326Y-28383391D01*
X110185036Y-27414616D01*
X109660000Y-26888663D01*
X109660000Y-25841203D01*
X110182431Y-25319683D01*
X110584411Y-24351607D01*
X110585326Y-23303391D01*
X110185036Y-22334616D01*
X109660000Y-21808663D01*
X109660000Y-21362767D01*
X109870476Y-21323163D01*
X110256776Y-21074585D01*
X110515931Y-20695299D01*
X110607105Y-20245070D01*
X110607105Y-17245330D01*
X110527963Y-16824724D01*
X110279385Y-16438424D01*
X109900099Y-16179269D01*
X109449870Y-16088095D01*
X108625601Y-16088095D01*
X108041553Y-15504047D01*
X107829901Y-15362626D01*
X107486789Y-15133366D01*
X107378218Y-15111770D01*
X106832400Y-15003199D01*
X106832395Y-15003200D01*
X95757855Y-15003200D01*
X95676125Y-14948590D01*
X94945200Y-14803200D01*
X94872748Y-14803200D01*
X93827148Y-13757600D01*
X107804402Y-13757600D01*
X112518500Y-18471698D01*
G36*
X23795426Y-56824174D02*
X23857424Y-56865600D01*
X23193948Y-56865600D01*
X21417200Y-55088852D01*
X21417200Y-54445948D01*
X23795426Y-56824174D01*
X23795426Y-56824174D01*
G37*
X23795426Y-56824174D02*
X23857424Y-56865600D01*
X23193948Y-56865600D01*
X21417200Y-55088852D01*
X21417200Y-54445948D01*
X23795426Y-56824174D01*
G36*
X78046000Y-42519595D02*
X78045999Y-42519600D01*
X78145852Y-43021589D01*
X78176166Y-43173989D01*
X78515600Y-43681988D01*
X78546847Y-43728753D01*
X79620800Y-44802705D01*
X79620800Y-45380397D01*
X79098369Y-45901917D01*
X78696389Y-46869993D01*
X78695474Y-47918209D01*
X79095764Y-48886984D01*
X79836317Y-49628831D01*
X80804393Y-50030811D01*
X81852609Y-50031726D01*
X82821384Y-49631436D01*
X83563231Y-48890883D01*
X83753695Y-48432194D01*
X83753695Y-48896270D01*
X83832837Y-49316876D01*
X84081415Y-49703176D01*
X84460701Y-49962331D01*
X84910930Y-50053505D01*
X87910670Y-50053505D01*
X88006000Y-50035568D01*
X88006000Y-52396452D01*
X83536852Y-56865600D01*
X69360576Y-56865600D01*
X69422574Y-56824174D01*
X70946574Y-55300174D01*
X71047536Y-55149074D01*
X71360610Y-54680525D01*
X71506000Y-53949600D01*
X71506000Y-46842377D01*
X71732613Y-47181528D01*
X72430448Y-47647806D01*
X73253600Y-47811541D01*
X74076752Y-47647806D01*
X74164499Y-47589175D01*
X74327371Y-47700461D01*
X74777600Y-47791635D01*
X76809600Y-47791635D01*
X77230206Y-47712493D01*
X77616506Y-47463915D01*
X77875661Y-47084629D01*
X77966835Y-46634400D01*
X77966835Y-44602400D01*
X77887693Y-44181794D01*
X77703600Y-43895706D01*
X77703600Y-42008060D01*
X77641677Y-41696753D01*
X77558210Y-41277134D01*
X77286968Y-40871192D01*
X77941950Y-40740907D01*
X78046000Y-40671383D01*
X78046000Y-42519595D01*
X78046000Y-42519595D01*
G37*
X78046000Y-42519595D02*
X78045999Y-42519600D01*
X78145852Y-43021589D01*
X78176166Y-43173989D01*
X78515600Y-43681988D01*
X78546847Y-43728753D01*
X79620800Y-44802705D01*
X79620800Y-45380397D01*
X79098369Y-45901917D01*
X78696389Y-46869993D01*
X78695474Y-47918209D01*
X79095764Y-48886984D01*
X79836317Y-49628831D01*
X80804393Y-50030811D01*
X81852609Y-50031726D01*
X82821384Y-49631436D01*
X83563231Y-48890883D01*
X83753695Y-48432194D01*
X83753695Y-48896270D01*
X83832837Y-49316876D01*
X84081415Y-49703176D01*
X84460701Y-49962331D01*
X84910930Y-50053505D01*
X87910670Y-50053505D01*
X88006000Y-50035568D01*
X88006000Y-52396452D01*
X83536852Y-56865600D01*
X69360576Y-56865600D01*
X69422574Y-56824174D01*
X70946574Y-55300174D01*
X71047536Y-55149074D01*
X71360610Y-54680525D01*
X71506000Y-53949600D01*
X71506000Y-46842377D01*
X71732613Y-47181528D01*
X72430448Y-47647806D01*
X73253600Y-47811541D01*
X74076752Y-47647806D01*
X74164499Y-47589175D01*
X74327371Y-47700461D01*
X74777600Y-47791635D01*
X76809600Y-47791635D01*
X77230206Y-47712493D01*
X77616506Y-47463915D01*
X77875661Y-47084629D01*
X77966835Y-46634400D01*
X77966835Y-44602400D01*
X77887693Y-44181794D01*
X77703600Y-43895706D01*
X77703600Y-42008060D01*
X77641677Y-41696753D01*
X77558210Y-41277134D01*
X77286968Y-40871192D01*
X77941950Y-40740907D01*
X78046000Y-40671383D01*
X78046000Y-42519595D01*
G36*
X42442881Y-28656561D02*
X42442140Y-29505714D01*
X42766412Y-30290512D01*
X43366330Y-30891477D01*
X43949967Y-31133825D01*
X43305988Y-31399912D01*
X42705023Y-31999830D01*
X42379381Y-32784061D01*
X42378640Y-33633214D01*
X42702912Y-34418012D01*
X43302830Y-35018977D01*
X44087061Y-35344619D01*
X44936214Y-35345360D01*
X45721012Y-35021088D01*
X46321977Y-34421170D01*
X46647619Y-33636939D01*
X46648360Y-32787786D01*
X46324088Y-32002988D01*
X45724170Y-31402023D01*
X45140533Y-31159675D01*
X45784512Y-30893588D01*
X46385477Y-30293670D01*
X46711119Y-29509439D01*
X46711860Y-28660286D01*
X46474363Y-28085500D01*
X52840007Y-28085500D01*
X52602881Y-28656561D01*
X52602140Y-29505714D01*
X52926412Y-30290512D01*
X53526330Y-30891477D01*
X53528482Y-30892370D01*
X53322926Y-31097926D01*
X52908890Y-31717574D01*
X52841457Y-32056583D01*
X52539381Y-32784061D01*
X52538640Y-33633214D01*
X52862912Y-34418012D01*
X53462830Y-35018977D01*
X54195478Y-35323200D01*
X47701205Y-35323200D01*
X47701200Y-35323199D01*
X47155382Y-35431770D01*
X47046811Y-35453366D01*
X46563072Y-35776590D01*
X46492047Y-35824047D01*
X44409247Y-37906847D01*
X44038566Y-38461611D01*
X44038566Y-38461612D01*
X43908399Y-39116000D01*
X43908400Y-39116005D01*
X43908400Y-49326795D01*
X43908399Y-49326800D01*
X43987763Y-49725785D01*
X44038566Y-49981189D01*
X44122096Y-50106200D01*
X44409247Y-50535953D01*
X45730045Y-51856750D01*
X45730047Y-51856753D01*
X46284811Y-52227434D01*
X46939200Y-52357600D01*
X50502978Y-52357600D01*
X50707214Y-52494066D01*
X51472045Y-52646200D01*
X51550355Y-52646200D01*
X52315186Y-52494066D01*
X52467076Y-52392576D01*
X52737371Y-52577261D01*
X53187600Y-52668435D01*
X54914800Y-52668435D01*
X55335406Y-52589293D01*
X55721706Y-52340715D01*
X55980861Y-51961429D01*
X56072035Y-51511200D01*
X56072035Y-49784000D01*
X55992893Y-49363394D01*
X55804447Y-49070542D01*
X55936821Y-48872431D01*
X56088955Y-48107600D01*
X55936821Y-47342769D01*
X55599278Y-46837600D01*
X55936821Y-46332431D01*
X56088955Y-45567600D01*
X55936821Y-44802769D01*
X55599278Y-44297600D01*
X55936821Y-43792431D01*
X56088955Y-43027600D01*
X56004696Y-42604000D01*
X64109595Y-42604000D01*
X64109600Y-42604001D01*
X64655418Y-42495430D01*
X64763989Y-42473834D01*
X65318753Y-42103153D01*
X65318754Y-42103152D01*
X65725150Y-41696755D01*
X65725153Y-41696753D01*
X66095834Y-41141989D01*
X66193505Y-40650966D01*
X66330050Y-40742202D01*
X67056000Y-40886603D01*
X67686000Y-40761288D01*
X67686000Y-53158452D01*
X67280852Y-53563600D01*
X25937148Y-53563600D01*
X24566800Y-52193252D01*
X24566800Y-47050764D01*
X30955214Y-47050764D01*
X31469463Y-48295343D01*
X32420848Y-49248390D01*
X33664528Y-49764811D01*
X35011164Y-49765986D01*
X36255743Y-49251737D01*
X37208790Y-48300352D01*
X37725211Y-47056672D01*
X37726386Y-45710036D01*
X37212137Y-44465457D01*
X36260752Y-43512410D01*
X35017072Y-42995989D01*
X33670436Y-42994814D01*
X32425857Y-43509063D01*
X31472810Y-44460448D01*
X30956389Y-45704128D01*
X30955214Y-47050764D01*
X24566800Y-47050764D01*
X24566800Y-41227948D01*
X25276748Y-40518000D01*
X27940000Y-40518000D01*
X28005355Y-40505000D01*
X28754093Y-40505000D01*
X29480043Y-40360599D01*
X30095475Y-39949382D01*
X30506692Y-39333950D01*
X30651093Y-38608000D01*
X30515832Y-37928000D01*
X31813495Y-37928000D01*
X31813500Y-37928001D01*
X32525291Y-37786416D01*
X33128719Y-37383219D01*
X34081216Y-36430721D01*
X34081219Y-36430719D01*
X34326943Y-36062966D01*
X34484416Y-35827292D01*
X34626000Y-35115500D01*
X34626000Y-30988005D01*
X34626001Y-30988000D01*
X34484416Y-30276209D01*
X34081219Y-29672781D01*
X32493938Y-28085500D01*
X42680007Y-28085500D01*
X42442881Y-28656561D01*
X42442881Y-28656561D01*
G37*
X42442881Y-28656561D02*
X42442140Y-29505714D01*
X42766412Y-30290512D01*
X43366330Y-30891477D01*
X43949967Y-31133825D01*
X43305988Y-31399912D01*
X42705023Y-31999830D01*
X42379381Y-32784061D01*
X42378640Y-33633214D01*
X42702912Y-34418012D01*
X43302830Y-35018977D01*
X44087061Y-35344619D01*
X44936214Y-35345360D01*
X45721012Y-35021088D01*
X46321977Y-34421170D01*
X46647619Y-33636939D01*
X46648360Y-32787786D01*
X46324088Y-32002988D01*
X45724170Y-31402023D01*
X45140533Y-31159675D01*
X45784512Y-30893588D01*
X46385477Y-30293670D01*
X46711119Y-29509439D01*
X46711860Y-28660286D01*
X46474363Y-28085500D01*
X52840007Y-28085500D01*
X52602881Y-28656561D01*
X52602140Y-29505714D01*
X52926412Y-30290512D01*
X53526330Y-30891477D01*
X53528482Y-30892370D01*
X53322926Y-31097926D01*
X52908890Y-31717574D01*
X52841457Y-32056583D01*
X52539381Y-32784061D01*
X52538640Y-33633214D01*
X52862912Y-34418012D01*
X53462830Y-35018977D01*
X54195478Y-35323200D01*
X47701205Y-35323200D01*
X47701200Y-35323199D01*
X47155382Y-35431770D01*
X47046811Y-35453366D01*
X46563072Y-35776590D01*
X46492047Y-35824047D01*
X44409247Y-37906847D01*
X44038566Y-38461611D01*
X44038566Y-38461612D01*
X43908399Y-39116000D01*
X43908400Y-39116005D01*
X43908400Y-49326795D01*
X43908399Y-49326800D01*
X43987763Y-49725785D01*
X44038566Y-49981189D01*
X44122096Y-50106200D01*
X44409247Y-50535953D01*
X45730045Y-51856750D01*
X45730047Y-51856753D01*
X46284811Y-52227434D01*
X46939200Y-52357600D01*
X50502978Y-52357600D01*
X50707214Y-52494066D01*
X51472045Y-52646200D01*
X51550355Y-52646200D01*
X52315186Y-52494066D01*
X52467076Y-52392576D01*
X52737371Y-52577261D01*
X53187600Y-52668435D01*
X54914800Y-52668435D01*
X55335406Y-52589293D01*
X55721706Y-52340715D01*
X55980861Y-51961429D01*
X56072035Y-51511200D01*
X56072035Y-49784000D01*
X55992893Y-49363394D01*
X55804447Y-49070542D01*
X55936821Y-48872431D01*
X56088955Y-48107600D01*
X55936821Y-47342769D01*
X55599278Y-46837600D01*
X55936821Y-46332431D01*
X56088955Y-45567600D01*
X55936821Y-44802769D01*
X55599278Y-44297600D01*
X55936821Y-43792431D01*
X56088955Y-43027600D01*
X56004696Y-42604000D01*
X64109595Y-42604000D01*
X64109600Y-42604001D01*
X64655418Y-42495430D01*
X64763989Y-42473834D01*
X65318753Y-42103153D01*
X65318754Y-42103152D01*
X65725150Y-41696755D01*
X65725153Y-41696753D01*
X66095834Y-41141989D01*
X66193505Y-40650966D01*
X66330050Y-40742202D01*
X67056000Y-40886603D01*
X67686000Y-40761288D01*
X67686000Y-53158452D01*
X67280852Y-53563600D01*
X25937148Y-53563600D01*
X24566800Y-52193252D01*
X24566800Y-47050764D01*
X30955214Y-47050764D01*
X31469463Y-48295343D01*
X32420848Y-49248390D01*
X33664528Y-49764811D01*
X35011164Y-49765986D01*
X36255743Y-49251737D01*
X37208790Y-48300352D01*
X37725211Y-47056672D01*
X37726386Y-45710036D01*
X37212137Y-44465457D01*
X36260752Y-43512410D01*
X35017072Y-42995989D01*
X33670436Y-42994814D01*
X32425857Y-43509063D01*
X31472810Y-44460448D01*
X30956389Y-45704128D01*
X30955214Y-47050764D01*
X24566800Y-47050764D01*
X24566800Y-41227948D01*
X25276748Y-40518000D01*
X27940000Y-40518000D01*
X28005355Y-40505000D01*
X28754093Y-40505000D01*
X29480043Y-40360599D01*
X30095475Y-39949382D01*
X30506692Y-39333950D01*
X30651093Y-38608000D01*
X30515832Y-37928000D01*
X31813495Y-37928000D01*
X31813500Y-37928001D01*
X32525291Y-37786416D01*
X33128719Y-37383219D01*
X34081216Y-36430721D01*
X34081219Y-36430719D01*
X34326943Y-36062966D01*
X34484416Y-35827292D01*
X34626000Y-35115500D01*
X34626000Y-30988005D01*
X34626001Y-30988000D01*
X34484416Y-30276209D01*
X34081219Y-29672781D01*
X32493938Y-28085500D01*
X42680007Y-28085500D01*
X42442881Y-28656561D01*
G36*
X50762182Y-38835370D02*
X50653611Y-38856966D01*
X50098847Y-39227647D01*
X49728166Y-39782411D01*
X49718061Y-39833212D01*
X49597999Y-40436800D01*
X49598000Y-40436805D01*
X49598000Y-42401418D01*
X49473445Y-43027600D01*
X49625579Y-43792431D01*
X49801200Y-44055267D01*
X49801200Y-44539933D01*
X49625579Y-44802769D01*
X49473445Y-45567600D01*
X49625579Y-46332431D01*
X49801200Y-46595267D01*
X49801200Y-47079933D01*
X49625579Y-47342769D01*
X49473445Y-48107600D01*
X49625579Y-48872431D01*
X49669123Y-48937600D01*
X47647505Y-48937600D01*
X47328400Y-48618494D01*
X47328400Y-39824306D01*
X48409506Y-38743200D01*
X51225547Y-38743200D01*
X50762182Y-38835370D01*
X50762182Y-38835370D01*
G37*
X50762182Y-38835370D02*
X50653611Y-38856966D01*
X50098847Y-39227647D01*
X49728166Y-39782411D01*
X49718061Y-39833212D01*
X49597999Y-40436800D01*
X49598000Y-40436805D01*
X49598000Y-42401418D01*
X49473445Y-43027600D01*
X49625579Y-43792431D01*
X49801200Y-44055267D01*
X49801200Y-44539933D01*
X49625579Y-44802769D01*
X49473445Y-45567600D01*
X49625579Y-46332431D01*
X49801200Y-46595267D01*
X49801200Y-47079933D01*
X49625579Y-47342769D01*
X49473445Y-48107600D01*
X49625579Y-48872431D01*
X49669123Y-48937600D01*
X47647505Y-48937600D01*
X47328400Y-48618494D01*
X47328400Y-39824306D01*
X48409506Y-38743200D01*
X51225547Y-38743200D01*
X50762182Y-38835370D01*
G36*
X83753695Y-46243201D02*
X83753695Y-46360469D01*
X83671122Y-46160628D01*
X83753695Y-46243201D01*
X83753695Y-46243201D01*
G37*
X83753695Y-46243201D02*
X83753695Y-46360469D01*
X83671122Y-46160628D01*
X83753695Y-46243201D01*
G36*
X86650050Y-40740907D02*
X87376000Y-40885308D01*
X88006000Y-40759993D01*
X88006000Y-44758600D01*
X87910670Y-44739295D01*
X87086401Y-44739295D01*
X84006000Y-41658894D01*
X84006000Y-40671383D01*
X84110050Y-40740907D01*
X84836000Y-40885308D01*
X85561950Y-40740907D01*
X86106000Y-40377386D01*
X86650050Y-40740907D01*
X86650050Y-40740907D01*
G37*
X86650050Y-40740907D02*
X87376000Y-40885308D01*
X88006000Y-40759993D01*
X88006000Y-44758600D01*
X87910670Y-44739295D01*
X87086401Y-44739295D01*
X84006000Y-41658894D01*
X84006000Y-40671383D01*
X84110050Y-40740907D01*
X84836000Y-40885308D01*
X85561950Y-40740907D01*
X86106000Y-40377386D01*
X86650050Y-40740907D01*
G36*
X21417200Y-38975252D02*
X21417200Y-38332348D01*
X21771548Y-37978000D01*
X22414452Y-37978000D01*
X21417200Y-38975252D01*
X21417200Y-38975252D01*
G37*
X21417200Y-38975252D02*
X21417200Y-38332348D01*
X21771548Y-37978000D01*
X22414452Y-37978000D01*
X21417200Y-38975252D01*
G36*
X21798781Y-28302719D02*
X24211779Y-30715716D01*
X24211781Y-30715719D01*
X24573509Y-30957418D01*
X24815208Y-31118916D01*
X25527000Y-31260500D01*
X30408062Y-31260500D01*
X30906000Y-31758438D01*
X30906000Y-34208000D01*
X30515832Y-34208000D01*
X30651093Y-33528000D01*
X30506692Y-32802050D01*
X30095475Y-32186618D01*
X29480043Y-31775401D01*
X28754093Y-31631000D01*
X28005355Y-31631000D01*
X27940000Y-31618000D01*
X23714648Y-31618000D01*
X22242074Y-30145426D01*
X21722000Y-29797923D01*
X21722000Y-28187808D01*
X21798781Y-28302719D01*
X21798781Y-28302719D01*
G37*
X21798781Y-28302719D02*
X24211779Y-30715716D01*
X24211781Y-30715719D01*
X24573509Y-30957418D01*
X24815208Y-31118916D01*
X25527000Y-31260500D01*
X30408062Y-31260500D01*
X30906000Y-31758438D01*
X30906000Y-34208000D01*
X30515832Y-34208000D01*
X30651093Y-33528000D01*
X30506692Y-32802050D01*
X30095475Y-32186618D01*
X29480043Y-31775401D01*
X28754093Y-31631000D01*
X28005355Y-31631000D01*
X27940000Y-31618000D01*
X23714648Y-31618000D01*
X22242074Y-30145426D01*
X21722000Y-29797923D01*
X21722000Y-28187808D01*
X21798781Y-28302719D01*
G36*
X91730050Y-25502202D02*
X92456000Y-25646603D01*
X93181950Y-25502202D01*
X93286000Y-25432678D01*
X93286000Y-27434895D01*
X91849294Y-28871600D01*
X72085205Y-28871600D01*
X72085200Y-28871599D01*
X71539382Y-28980170D01*
X71447014Y-28998543D01*
X71506000Y-28702000D01*
X71506000Y-25521288D01*
X72136000Y-25646603D01*
X72861950Y-25502202D01*
X73406000Y-25138681D01*
X73950050Y-25502202D01*
X74676000Y-25646603D01*
X75401950Y-25502202D01*
X75946000Y-25138681D01*
X76490050Y-25502202D01*
X77216000Y-25646603D01*
X77941950Y-25502202D01*
X78486000Y-25138681D01*
X79030050Y-25502202D01*
X79756000Y-25646603D01*
X80481950Y-25502202D01*
X81026000Y-25138681D01*
X81570050Y-25502202D01*
X82296000Y-25646603D01*
X83021950Y-25502202D01*
X83566000Y-25138681D01*
X84110050Y-25502202D01*
X84836000Y-25646603D01*
X85561950Y-25502202D01*
X86106000Y-25138681D01*
X86650050Y-25502202D01*
X87376000Y-25646603D01*
X88101950Y-25502202D01*
X88646000Y-25138681D01*
X89190050Y-25502202D01*
X89916000Y-25646603D01*
X90641950Y-25502202D01*
X91186000Y-25138681D01*
X91730050Y-25502202D01*
X91730050Y-25502202D01*
G37*
X91730050Y-25502202D02*
X92456000Y-25646603D01*
X93181950Y-25502202D01*
X93286000Y-25432678D01*
X93286000Y-27434895D01*
X91849294Y-28871600D01*
X72085205Y-28871600D01*
X72085200Y-28871599D01*
X71539382Y-28980170D01*
X71447014Y-28998543D01*
X71506000Y-28702000D01*
X71506000Y-25521288D01*
X72136000Y-25646603D01*
X72861950Y-25502202D01*
X73406000Y-25138681D01*
X73950050Y-25502202D01*
X74676000Y-25646603D01*
X75401950Y-25502202D01*
X75946000Y-25138681D01*
X76490050Y-25502202D01*
X77216000Y-25646603D01*
X77941950Y-25502202D01*
X78486000Y-25138681D01*
X79030050Y-25502202D01*
X79756000Y-25646603D01*
X80481950Y-25502202D01*
X81026000Y-25138681D01*
X81570050Y-25502202D01*
X82296000Y-25646603D01*
X83021950Y-25502202D01*
X83566000Y-25138681D01*
X84110050Y-25502202D01*
X84836000Y-25646603D01*
X85561950Y-25502202D01*
X86106000Y-25138681D01*
X86650050Y-25502202D01*
X87376000Y-25646603D01*
X88101950Y-25502202D01*
X88646000Y-25138681D01*
X89190050Y-25502202D01*
X89916000Y-25646603D01*
X90641950Y-25502202D01*
X91186000Y-25138681D01*
X91730050Y-25502202D01*
G36*
X25228907Y-25400000D02*
X25373308Y-26125950D01*
X25784525Y-26741382D01*
X26399957Y-27152599D01*
X27125907Y-27297000D01*
X27206563Y-27297000D01*
X27450063Y-27540500D01*
X26297437Y-27540500D01*
X24974000Y-26217062D01*
X24974000Y-25090938D01*
X25344938Y-24720000D01*
X25364168Y-24720000D01*
X25228907Y-25400000D01*
X25228907Y-25400000D01*
G37*
X25228907Y-25400000D02*
X25373308Y-26125950D01*
X25784525Y-26741382D01*
X26399957Y-27152599D01*
X27125907Y-27297000D01*
X27206563Y-27297000D01*
X27450063Y-27540500D01*
X26297437Y-27540500D01*
X24974000Y-26217062D01*
X24974000Y-25090938D01*
X25344938Y-24720000D01*
X25364168Y-24720000D01*
X25228907Y-25400000D01*
G36*
X64516000Y-25646603D02*
X65146000Y-25521288D01*
X65146000Y-26234452D01*
X64207452Y-27173000D01*
X63367203Y-27173000D01*
X63655601Y-26741382D01*
X63694416Y-26683292D01*
X63836000Y-25971500D01*
X63836000Y-25511342D01*
X64516000Y-25646603D01*
X64516000Y-25646603D01*
G37*
X64516000Y-25646603D02*
X65146000Y-25521288D01*
X65146000Y-26234452D01*
X64207452Y-27173000D01*
X63367203Y-27173000D01*
X63655601Y-26741382D01*
X63694416Y-26683292D01*
X63836000Y-25971500D01*
X63836000Y-25511342D01*
X64516000Y-25646603D01*
G36*
X47721600Y-15893640D02*
X47706283Y-15908930D01*
X47380641Y-16693161D01*
X47379900Y-17542314D01*
X47704172Y-18327112D01*
X48304090Y-18928077D01*
X49088321Y-19253719D01*
X49937474Y-19254460D01*
X50722272Y-18930188D01*
X51323237Y-18330270D01*
X51648879Y-17546039D01*
X51649620Y-16696886D01*
X51541600Y-16435458D01*
X51541600Y-15880000D01*
X52236143Y-15880000D01*
X52207163Y-15908930D01*
X51881521Y-16693161D01*
X51880780Y-17542314D01*
X52205052Y-18327112D01*
X52804970Y-18928077D01*
X53589201Y-19253719D01*
X54438354Y-19254460D01*
X55213015Y-18934377D01*
X54877390Y-19436674D01*
X54782465Y-19913894D01*
X54732000Y-20167600D01*
X54732000Y-21608267D01*
X54442079Y-21487881D01*
X53592926Y-21487140D01*
X52808128Y-21811412D01*
X52207163Y-22411330D01*
X51881521Y-23195561D01*
X51880780Y-24044714D01*
X52013326Y-24365500D01*
X51517223Y-24365500D01*
X51648879Y-24048439D01*
X51649620Y-23199286D01*
X51325348Y-22414488D01*
X50725430Y-21813523D01*
X49941199Y-21487881D01*
X49092046Y-21487140D01*
X48307248Y-21811412D01*
X47706283Y-22411330D01*
X47380641Y-23195561D01*
X47379900Y-24044714D01*
X47512446Y-24365500D01*
X30300526Y-24365500D01*
X30143171Y-24130000D01*
X30506692Y-23585950D01*
X30651093Y-22860000D01*
X30506692Y-22134050D01*
X30143171Y-21590000D01*
X30506692Y-21045950D01*
X30651093Y-20320000D01*
X30506692Y-19594050D01*
X30095475Y-18978618D01*
X29850000Y-18814597D01*
X29850000Y-17861200D01*
X30834680Y-17861200D01*
X30834572Y-17861459D01*
X30833830Y-18710815D01*
X31158180Y-19495800D01*
X31758241Y-20096909D01*
X32542659Y-20422628D01*
X33392015Y-20423370D01*
X33870846Y-20225521D01*
X34058971Y-20354061D01*
X34509200Y-20445235D01*
X36509200Y-20445235D01*
X36929806Y-20366093D01*
X37316106Y-20117515D01*
X37575261Y-19738229D01*
X37666435Y-19288000D01*
X37666435Y-17708800D01*
X39432362Y-17708800D01*
X39368972Y-17861459D01*
X39368230Y-18710815D01*
X39692580Y-19495800D01*
X40292641Y-20096909D01*
X41077059Y-20422628D01*
X41926415Y-20423370D01*
X42405246Y-20225521D01*
X42593371Y-20354061D01*
X43043600Y-20445235D01*
X45043600Y-20445235D01*
X45464206Y-20366093D01*
X45850506Y-20117515D01*
X46109661Y-19738229D01*
X46200835Y-19288000D01*
X46200835Y-17288000D01*
X46121693Y-16867394D01*
X45953600Y-16606171D01*
X45953600Y-16589948D01*
X46663548Y-15880000D01*
X47721600Y-15880000D01*
X47721600Y-15893640D01*
X47721600Y-15893640D01*
G37*
X47721600Y-15893640D02*
X47706283Y-15908930D01*
X47380641Y-16693161D01*
X47379900Y-17542314D01*
X47704172Y-18327112D01*
X48304090Y-18928077D01*
X49088321Y-19253719D01*
X49937474Y-19254460D01*
X50722272Y-18930188D01*
X51323237Y-18330270D01*
X51648879Y-17546039D01*
X51649620Y-16696886D01*
X51541600Y-16435458D01*
X51541600Y-15880000D01*
X52236143Y-15880000D01*
X52207163Y-15908930D01*
X51881521Y-16693161D01*
X51880780Y-17542314D01*
X52205052Y-18327112D01*
X52804970Y-18928077D01*
X53589201Y-19253719D01*
X54438354Y-19254460D01*
X55213015Y-18934377D01*
X54877390Y-19436674D01*
X54782465Y-19913894D01*
X54732000Y-20167600D01*
X54732000Y-21608267D01*
X54442079Y-21487881D01*
X53592926Y-21487140D01*
X52808128Y-21811412D01*
X52207163Y-22411330D01*
X51881521Y-23195561D01*
X51880780Y-24044714D01*
X52013326Y-24365500D01*
X51517223Y-24365500D01*
X51648879Y-24048439D01*
X51649620Y-23199286D01*
X51325348Y-22414488D01*
X50725430Y-21813523D01*
X49941199Y-21487881D01*
X49092046Y-21487140D01*
X48307248Y-21811412D01*
X47706283Y-22411330D01*
X47380641Y-23195561D01*
X47379900Y-24044714D01*
X47512446Y-24365500D01*
X30300526Y-24365500D01*
X30143171Y-24130000D01*
X30506692Y-23585950D01*
X30651093Y-22860000D01*
X30506692Y-22134050D01*
X30143171Y-21590000D01*
X30506692Y-21045950D01*
X30651093Y-20320000D01*
X30506692Y-19594050D01*
X30095475Y-18978618D01*
X29850000Y-18814597D01*
X29850000Y-17861200D01*
X30834680Y-17861200D01*
X30834572Y-17861459D01*
X30833830Y-18710815D01*
X31158180Y-19495800D01*
X31758241Y-20096909D01*
X32542659Y-20422628D01*
X33392015Y-20423370D01*
X33870846Y-20225521D01*
X34058971Y-20354061D01*
X34509200Y-20445235D01*
X36509200Y-20445235D01*
X36929806Y-20366093D01*
X37316106Y-20117515D01*
X37575261Y-19738229D01*
X37666435Y-19288000D01*
X37666435Y-17708800D01*
X39432362Y-17708800D01*
X39368972Y-17861459D01*
X39368230Y-18710815D01*
X39692580Y-19495800D01*
X40292641Y-20096909D01*
X41077059Y-20422628D01*
X41926415Y-20423370D01*
X42405246Y-20225521D01*
X42593371Y-20354061D01*
X43043600Y-20445235D01*
X45043600Y-20445235D01*
X45464206Y-20366093D01*
X45850506Y-20117515D01*
X46109661Y-19738229D01*
X46200835Y-19288000D01*
X46200835Y-17288000D01*
X46121693Y-16867394D01*
X45953600Y-16606171D01*
X45953600Y-16589948D01*
X46663548Y-15880000D01*
X47721600Y-15880000D01*
X47721600Y-15893640D01*
G36*
X62606000Y-21214712D02*
X61976000Y-21089397D01*
X61250050Y-21233798D01*
X60634618Y-21645015D01*
X60223401Y-22260447D01*
X60079000Y-22986397D01*
X60079000Y-23749603D01*
X60116000Y-23935614D01*
X60116000Y-24365500D01*
X57431248Y-24365500D01*
X57992574Y-23804174D01*
X58406610Y-23184526D01*
X58552000Y-22453600D01*
X58552000Y-20958748D01*
X59160348Y-20350400D01*
X62606000Y-20350400D01*
X62606000Y-21214712D01*
X62606000Y-21214712D01*
G37*
X62606000Y-21214712D02*
X61976000Y-21089397D01*
X61250050Y-21233798D01*
X60634618Y-21645015D01*
X60223401Y-22260447D01*
X60079000Y-22986397D01*
X60079000Y-23749603D01*
X60116000Y-23935614D01*
X60116000Y-24365500D01*
X57431248Y-24365500D01*
X57992574Y-23804174D01*
X58406610Y-23184526D01*
X58552000Y-22453600D01*
X58552000Y-20958748D01*
X59160348Y-20350400D01*
X62606000Y-20350400D01*
X62606000Y-21214712D01*
G36*
X69014010Y-16266448D02*
X68497589Y-17510128D01*
X68496414Y-18856764D01*
X69010663Y-20101343D01*
X69962048Y-21054390D01*
X71020674Y-21493970D01*
X70866000Y-21597319D01*
X70321950Y-21233798D01*
X69596000Y-21089397D01*
X68870050Y-21233798D01*
X68326000Y-21597319D01*
X67781950Y-21233798D01*
X67056000Y-21089397D01*
X66426000Y-21214712D01*
X66426000Y-18999200D01*
X66280610Y-18268275D01*
X65866574Y-17648626D01*
X65307774Y-17089826D01*
X64688126Y-16675790D01*
X63957200Y-16530400D01*
X58369200Y-16530400D01*
X57638275Y-16675790D01*
X57018626Y-17089826D01*
X55856735Y-18251717D01*
X56149759Y-17546039D01*
X56150500Y-16696886D01*
X55826228Y-15912088D01*
X55794196Y-15880000D01*
X69401133Y-15880000D01*
X69014010Y-16266448D01*
X69014010Y-16266448D01*
G37*
X69014010Y-16266448D02*
X68497589Y-17510128D01*
X68496414Y-18856764D01*
X69010663Y-20101343D01*
X69962048Y-21054390D01*
X71020674Y-21493970D01*
X70866000Y-21597319D01*
X70321950Y-21233798D01*
X69596000Y-21089397D01*
X68870050Y-21233798D01*
X68326000Y-21597319D01*
X67781950Y-21233798D01*
X67056000Y-21089397D01*
X66426000Y-21214712D01*
X66426000Y-18999200D01*
X66280610Y-18268275D01*
X65866574Y-17648626D01*
X65307774Y-17089826D01*
X64688126Y-16675790D01*
X63957200Y-16530400D01*
X58369200Y-16530400D01*
X57638275Y-16675790D01*
X57018626Y-17089826D01*
X55856735Y-18251717D01*
X56149759Y-17546039D01*
X56150500Y-16696886D01*
X55826228Y-15912088D01*
X55794196Y-15880000D01*
X69401133Y-15880000D01*
X69014010Y-16266448D01*
G36*
X81545165Y-16205200D02*
X81545165Y-18237200D01*
X81624307Y-18657806D01*
X81808400Y-18943894D01*
X81808400Y-20370800D01*
X81953790Y-21101726D01*
X81986666Y-21150928D01*
X81570050Y-21233798D01*
X81026000Y-21597319D01*
X80481950Y-21233798D01*
X79756000Y-21089397D01*
X79030050Y-21233798D01*
X78486000Y-21597319D01*
X77941950Y-21233798D01*
X77216000Y-21089397D01*
X76490050Y-21233798D01*
X75946000Y-21597319D01*
X75401950Y-21233798D01*
X74676000Y-21089397D01*
X73950050Y-21233798D01*
X73406000Y-21597319D01*
X73056398Y-21363724D01*
X73796943Y-21057737D01*
X74749990Y-20106352D01*
X75266411Y-18862672D01*
X75267586Y-17516036D01*
X74753337Y-16271457D01*
X74362563Y-15880000D01*
X81611020Y-15880000D01*
X81545165Y-16205200D01*
X81545165Y-16205200D01*
G37*
X81545165Y-16205200D02*
X81545165Y-18237200D01*
X81624307Y-18657806D01*
X81808400Y-18943894D01*
X81808400Y-20370800D01*
X81953790Y-21101726D01*
X81986666Y-21150928D01*
X81570050Y-21233798D01*
X81026000Y-21597319D01*
X80481950Y-21233798D01*
X79756000Y-21089397D01*
X79030050Y-21233798D01*
X78486000Y-21597319D01*
X77941950Y-21233798D01*
X77216000Y-21089397D01*
X76490050Y-21233798D01*
X75946000Y-21597319D01*
X75401950Y-21233798D01*
X74676000Y-21089397D01*
X73950050Y-21233798D01*
X73406000Y-21597319D01*
X73056398Y-21363724D01*
X73796943Y-21057737D01*
X74749990Y-20106352D01*
X75266411Y-18862672D01*
X75267586Y-17516036D01*
X74753337Y-16271457D01*
X74362563Y-15880000D01*
X81611020Y-15880000D01*
X81545165Y-16205200D01*
G36*
X91177252Y-16510000D02*
X88565426Y-19121826D01*
X88487539Y-19238391D01*
X88168400Y-18919252D01*
X88168400Y-18202128D01*
X88245665Y-18086493D01*
X88409400Y-17263341D01*
X88409400Y-17179059D01*
X88245665Y-16355907D01*
X87927674Y-15880000D01*
X90547252Y-15880000D01*
X91177252Y-16510000D01*
X91177252Y-16510000D01*
G37*
X91177252Y-16510000D02*
X88565426Y-19121826D01*
X88487539Y-19238391D01*
X88168400Y-18919252D01*
X88168400Y-18202128D01*
X88245665Y-18086493D01*
X88409400Y-17263341D01*
X88409400Y-17179059D01*
X88245665Y-16355907D01*
X87927674Y-15880000D01*
X90547252Y-15880000D01*
X91177252Y-16510000D01*
M02*
