G04 #@! TF.FileFunction,Legend,Top*
%FSLAX46Y46*%
G04 Gerber Fmt 4.6, Leading zero omitted, Abs format (unit mm)*
G04 Created by KiCad (PCBNEW 4.0.4-stable) date 11/04/16 20:48:05*
%MOMM*%
%LPD*%
G01*
G04 APERTURE LIST*
%ADD10C,0.100000*%
%ADD11C,0.175000*%
%ADD12C,0.200000*%
G04 APERTURE END LIST*
D10*
D11*
X67172667Y-36693333D02*
X67172667Y-36359999D01*
X67372667Y-36759999D02*
X66672667Y-36526666D01*
X67372667Y-36293333D01*
X67372667Y-35659999D02*
X67039333Y-35893333D01*
X67372667Y-36059999D02*
X66672667Y-36059999D01*
X66672667Y-35793333D01*
X66706000Y-35726666D01*
X66739333Y-35693333D01*
X66806000Y-35659999D01*
X66906000Y-35659999D01*
X66972667Y-35693333D01*
X67006000Y-35726666D01*
X67039333Y-35793333D01*
X67039333Y-36059999D01*
X67006000Y-35359999D02*
X67006000Y-35126666D01*
X67372667Y-35026666D02*
X67372667Y-35359999D01*
X66672667Y-35359999D01*
X66672667Y-35026666D01*
X67006000Y-34493333D02*
X67006000Y-34726666D01*
X67372667Y-34726666D02*
X66672667Y-34726666D01*
X66672667Y-34393333D01*
X87492667Y-36568000D02*
X87492667Y-36234666D01*
X87692667Y-36634666D02*
X86992667Y-36401333D01*
X87692667Y-36168000D01*
X86992667Y-36001333D02*
X86992667Y-35534666D01*
X87692667Y-35834666D01*
X84952667Y-36568000D02*
X84952667Y-36234666D01*
X85152667Y-36634666D02*
X84452667Y-36401333D01*
X85152667Y-36168000D01*
X84452667Y-35634666D02*
X84452667Y-35768000D01*
X84486000Y-35834666D01*
X84519333Y-35868000D01*
X84619333Y-35934666D01*
X84752667Y-35968000D01*
X85019333Y-35968000D01*
X85086000Y-35934666D01*
X85119333Y-35901333D01*
X85152667Y-35834666D01*
X85152667Y-35701333D01*
X85119333Y-35634666D01*
X85086000Y-35601333D01*
X85019333Y-35568000D01*
X84852667Y-35568000D01*
X84786000Y-35601333D01*
X84752667Y-35634666D01*
X84719333Y-35701333D01*
X84719333Y-35834666D01*
X84752667Y-35901333D01*
X84786000Y-35934666D01*
X84852667Y-35968000D01*
X78040667Y-18122000D02*
X77340667Y-18122000D01*
X77340667Y-17955334D01*
X77374000Y-17855334D01*
X77440667Y-17788667D01*
X77507333Y-17755334D01*
X77640667Y-17722000D01*
X77740667Y-17722000D01*
X77874000Y-17755334D01*
X77940667Y-17788667D01*
X78007333Y-17855334D01*
X78040667Y-17955334D01*
X78040667Y-18122000D01*
X77340667Y-17288667D02*
X77340667Y-17222000D01*
X77374000Y-17155334D01*
X77407333Y-17122000D01*
X77474000Y-17088667D01*
X77607333Y-17055334D01*
X77774000Y-17055334D01*
X77907333Y-17088667D01*
X77974000Y-17122000D01*
X78007333Y-17155334D01*
X78040667Y-17222000D01*
X78040667Y-17288667D01*
X78007333Y-17355334D01*
X77974000Y-17388667D01*
X77907333Y-17422000D01*
X77774000Y-17455334D01*
X77607333Y-17455334D01*
X77474000Y-17422000D01*
X77407333Y-17388667D01*
X77374000Y-17355334D01*
X77340667Y-17288667D01*
X77640667Y-16655333D02*
X77607333Y-16722000D01*
X77574000Y-16755333D01*
X77507333Y-16788667D01*
X77474000Y-16788667D01*
X77407333Y-16755333D01*
X77374000Y-16722000D01*
X77340667Y-16655333D01*
X77340667Y-16522000D01*
X77374000Y-16455333D01*
X77407333Y-16422000D01*
X77474000Y-16388667D01*
X77507333Y-16388667D01*
X77574000Y-16422000D01*
X77607333Y-16455333D01*
X77640667Y-16522000D01*
X77640667Y-16655333D01*
X77674000Y-16722000D01*
X77707333Y-16755333D01*
X77774000Y-16788667D01*
X77907333Y-16788667D01*
X77974000Y-16755333D01*
X78007333Y-16722000D01*
X78040667Y-16655333D01*
X78040667Y-16522000D01*
X78007333Y-16455333D01*
X77974000Y-16422000D01*
X77907333Y-16388667D01*
X77774000Y-16388667D01*
X77707333Y-16422000D01*
X77674000Y-16455333D01*
X77640667Y-16522000D01*
X72452667Y-26758000D02*
X71752667Y-26758000D01*
X71752667Y-26591334D01*
X71786000Y-26491334D01*
X71852667Y-26424667D01*
X71919333Y-26391334D01*
X72052667Y-26358000D01*
X72152667Y-26358000D01*
X72286000Y-26391334D01*
X72352667Y-26424667D01*
X72419333Y-26491334D01*
X72452667Y-26591334D01*
X72452667Y-26758000D01*
X71752667Y-25924667D02*
X71752667Y-25858000D01*
X71786000Y-25791334D01*
X71819333Y-25758000D01*
X71886000Y-25724667D01*
X72019333Y-25691334D01*
X72186000Y-25691334D01*
X72319333Y-25724667D01*
X72386000Y-25758000D01*
X72419333Y-25791334D01*
X72452667Y-25858000D01*
X72452667Y-25924667D01*
X72419333Y-25991334D01*
X72386000Y-26024667D01*
X72319333Y-26058000D01*
X72186000Y-26091334D01*
X72019333Y-26091334D01*
X71886000Y-26058000D01*
X71819333Y-26024667D01*
X71786000Y-25991334D01*
X71752667Y-25924667D01*
X72052667Y-25291333D02*
X72019333Y-25358000D01*
X71986000Y-25391333D01*
X71919333Y-25424667D01*
X71886000Y-25424667D01*
X71819333Y-25391333D01*
X71786000Y-25358000D01*
X71752667Y-25291333D01*
X71752667Y-25158000D01*
X71786000Y-25091333D01*
X71819333Y-25058000D01*
X71886000Y-25024667D01*
X71919333Y-25024667D01*
X71986000Y-25058000D01*
X72019333Y-25091333D01*
X72052667Y-25158000D01*
X72052667Y-25291333D01*
X72086000Y-25358000D01*
X72119333Y-25391333D01*
X72186000Y-25424667D01*
X72319333Y-25424667D01*
X72386000Y-25391333D01*
X72419333Y-25358000D01*
X72452667Y-25291333D01*
X72452667Y-25158000D01*
X72419333Y-25091333D01*
X72386000Y-25058000D01*
X72319333Y-25024667D01*
X72186000Y-25024667D01*
X72119333Y-25058000D01*
X72086000Y-25091333D01*
X72052667Y-25158000D01*
X69912667Y-26758000D02*
X69212667Y-26758000D01*
X69212667Y-26591334D01*
X69246000Y-26491334D01*
X69312667Y-26424667D01*
X69379333Y-26391334D01*
X69512667Y-26358000D01*
X69612667Y-26358000D01*
X69746000Y-26391334D01*
X69812667Y-26424667D01*
X69879333Y-26491334D01*
X69912667Y-26591334D01*
X69912667Y-26758000D01*
X69212667Y-25924667D02*
X69212667Y-25858000D01*
X69246000Y-25791334D01*
X69279333Y-25758000D01*
X69346000Y-25724667D01*
X69479333Y-25691334D01*
X69646000Y-25691334D01*
X69779333Y-25724667D01*
X69846000Y-25758000D01*
X69879333Y-25791334D01*
X69912667Y-25858000D01*
X69912667Y-25924667D01*
X69879333Y-25991334D01*
X69846000Y-26024667D01*
X69779333Y-26058000D01*
X69646000Y-26091334D01*
X69479333Y-26091334D01*
X69346000Y-26058000D01*
X69279333Y-26024667D01*
X69246000Y-25991334D01*
X69212667Y-25924667D01*
X69912667Y-25358000D02*
X69912667Y-25224667D01*
X69879333Y-25158000D01*
X69846000Y-25124667D01*
X69746000Y-25058000D01*
X69612667Y-25024667D01*
X69346000Y-25024667D01*
X69279333Y-25058000D01*
X69246000Y-25091333D01*
X69212667Y-25158000D01*
X69212667Y-25291333D01*
X69246000Y-25358000D01*
X69279333Y-25391333D01*
X69346000Y-25424667D01*
X69512667Y-25424667D01*
X69579333Y-25391333D01*
X69612667Y-25358000D01*
X69646000Y-25291333D01*
X69646000Y-25158000D01*
X69612667Y-25091333D01*
X69579333Y-25058000D01*
X69512667Y-25024667D01*
X106804667Y-36968000D02*
X107504667Y-36734667D01*
X106804667Y-36501334D01*
X107471333Y-36301334D02*
X107504667Y-36201334D01*
X107504667Y-36034667D01*
X107471333Y-35968000D01*
X107438000Y-35934667D01*
X107371333Y-35901334D01*
X107304667Y-35901334D01*
X107238000Y-35934667D01*
X107204667Y-35968000D01*
X107171333Y-36034667D01*
X107138000Y-36168000D01*
X107104667Y-36234667D01*
X107071333Y-36268000D01*
X107004667Y-36301334D01*
X106938000Y-36301334D01*
X106871333Y-36268000D01*
X106838000Y-36234667D01*
X106804667Y-36168000D01*
X106804667Y-36001334D01*
X106838000Y-35901334D01*
X107471333Y-35634667D02*
X107504667Y-35534667D01*
X107504667Y-35368000D01*
X107471333Y-35301333D01*
X107438000Y-35268000D01*
X107371333Y-35234667D01*
X107304667Y-35234667D01*
X107238000Y-35268000D01*
X107204667Y-35301333D01*
X107171333Y-35368000D01*
X107138000Y-35501333D01*
X107104667Y-35568000D01*
X107071333Y-35601333D01*
X107004667Y-35634667D01*
X106938000Y-35634667D01*
X106871333Y-35601333D01*
X106838000Y-35568000D01*
X106804667Y-35501333D01*
X106804667Y-35334667D01*
X106838000Y-35234667D01*
X106804667Y-26333333D02*
X107504667Y-26100000D01*
X106804667Y-25866667D01*
X107438000Y-25233333D02*
X107471333Y-25266667D01*
X107504667Y-25366667D01*
X107504667Y-25433333D01*
X107471333Y-25533333D01*
X107404667Y-25600000D01*
X107338000Y-25633333D01*
X107204667Y-25666667D01*
X107104667Y-25666667D01*
X106971333Y-25633333D01*
X106904667Y-25600000D01*
X106838000Y-25533333D01*
X106804667Y-25433333D01*
X106804667Y-25366667D01*
X106838000Y-25266667D01*
X106871333Y-25233333D01*
X107438000Y-24533333D02*
X107471333Y-24566667D01*
X107504667Y-24666667D01*
X107504667Y-24733333D01*
X107471333Y-24833333D01*
X107404667Y-24900000D01*
X107338000Y-24933333D01*
X107204667Y-24966667D01*
X107104667Y-24966667D01*
X106971333Y-24933333D01*
X106904667Y-24900000D01*
X106838000Y-24833333D01*
X106804667Y-24733333D01*
X106804667Y-24666667D01*
X106838000Y-24566667D01*
X106871333Y-24533333D01*
X64132667Y-36934667D02*
X64132667Y-36501334D01*
X64399333Y-36734667D01*
X64399333Y-36634667D01*
X64432667Y-36568000D01*
X64466000Y-36534667D01*
X64532667Y-36501334D01*
X64699333Y-36501334D01*
X64766000Y-36534667D01*
X64799333Y-36568000D01*
X64832667Y-36634667D01*
X64832667Y-36834667D01*
X64799333Y-36901334D01*
X64766000Y-36934667D01*
X64132667Y-36301333D02*
X64832667Y-36068000D01*
X64132667Y-35834667D01*
X64132667Y-35668000D02*
X64132667Y-35234667D01*
X64399333Y-35468000D01*
X64399333Y-35368000D01*
X64432667Y-35301333D01*
X64466000Y-35268000D01*
X64532667Y-35234667D01*
X64699333Y-35234667D01*
X64766000Y-35268000D01*
X64799333Y-35301333D01*
X64832667Y-35368000D01*
X64832667Y-35568000D01*
X64799333Y-35634667D01*
X64766000Y-35668000D01*
X92772667Y-36451333D02*
X92439333Y-36684667D01*
X92772667Y-36851333D02*
X92072667Y-36851333D01*
X92072667Y-36584667D01*
X92106000Y-36518000D01*
X92139333Y-36484667D01*
X92206000Y-36451333D01*
X92306000Y-36451333D01*
X92372667Y-36484667D01*
X92406000Y-36518000D01*
X92439333Y-36584667D01*
X92439333Y-36851333D01*
X92739333Y-36184667D02*
X92772667Y-36084667D01*
X92772667Y-35918000D01*
X92739333Y-35851333D01*
X92706000Y-35818000D01*
X92639333Y-35784667D01*
X92572667Y-35784667D01*
X92506000Y-35818000D01*
X92472667Y-35851333D01*
X92439333Y-35918000D01*
X92406000Y-36051333D01*
X92372667Y-36118000D01*
X92339333Y-36151333D01*
X92272667Y-36184667D01*
X92206000Y-36184667D01*
X92139333Y-36151333D01*
X92106000Y-36118000D01*
X92072667Y-36051333D01*
X92072667Y-35884667D01*
X92106000Y-35784667D01*
X92072667Y-35584666D02*
X92072667Y-35184666D01*
X92772667Y-35384666D02*
X92072667Y-35384666D01*
X82579333Y-36901334D02*
X82612667Y-36801334D01*
X82612667Y-36634667D01*
X82579333Y-36568000D01*
X82546000Y-36534667D01*
X82479333Y-36501334D01*
X82412667Y-36501334D01*
X82346000Y-36534667D01*
X82312667Y-36568000D01*
X82279333Y-36634667D01*
X82246000Y-36768000D01*
X82212667Y-36834667D01*
X82179333Y-36868000D01*
X82112667Y-36901334D01*
X82046000Y-36901334D01*
X81979333Y-36868000D01*
X81946000Y-36834667D01*
X81912667Y-36768000D01*
X81912667Y-36601334D01*
X81946000Y-36501334D01*
X82546000Y-35801333D02*
X82579333Y-35834667D01*
X82612667Y-35934667D01*
X82612667Y-36001333D01*
X82579333Y-36101333D01*
X82512667Y-36168000D01*
X82446000Y-36201333D01*
X82312667Y-36234667D01*
X82212667Y-36234667D01*
X82079333Y-36201333D01*
X82012667Y-36168000D01*
X81946000Y-36101333D01*
X81912667Y-36001333D01*
X81912667Y-35934667D01*
X81946000Y-35834667D01*
X81979333Y-35801333D01*
X82612667Y-35168000D02*
X82612667Y-35501333D01*
X81912667Y-35501333D01*
X20299333Y-49567333D02*
X20232667Y-49534000D01*
X20099333Y-49534000D01*
X20032667Y-49567333D01*
X19966000Y-49634000D01*
X19932667Y-49700667D01*
X19932667Y-49834000D01*
X19966000Y-49900667D01*
X20032667Y-49967333D01*
X20099333Y-50000667D01*
X20232667Y-50000667D01*
X20299333Y-49967333D01*
X20166000Y-49300667D02*
X19999333Y-49334000D01*
X19832667Y-49434000D01*
X19732667Y-49600667D01*
X19699333Y-49767333D01*
X19732667Y-49934000D01*
X19832667Y-50100667D01*
X19999333Y-50200667D01*
X20166000Y-50234000D01*
X20332667Y-50200667D01*
X20499333Y-50100667D01*
X20599333Y-49934000D01*
X20632667Y-49767333D01*
X20599333Y-49600667D01*
X20499333Y-49434000D01*
X20332667Y-49334000D01*
X20166000Y-49300667D01*
X20899333Y-49467333D02*
X20932667Y-49434000D01*
X20999333Y-49400667D01*
X21166000Y-49400667D01*
X21232667Y-49434000D01*
X21266000Y-49467333D01*
X21299333Y-49534000D01*
X21299333Y-49600667D01*
X21266000Y-49700667D01*
X20866000Y-50100667D01*
X21299333Y-50100667D01*
X21732667Y-49400667D02*
X21799334Y-49400667D01*
X21866000Y-49434000D01*
X21899334Y-49467333D01*
X21932667Y-49534000D01*
X21966000Y-49667333D01*
X21966000Y-49834000D01*
X21932667Y-49967333D01*
X21899334Y-50034000D01*
X21866000Y-50067333D01*
X21799334Y-50100667D01*
X21732667Y-50100667D01*
X21666000Y-50067333D01*
X21632667Y-50034000D01*
X21599334Y-49967333D01*
X21566000Y-49834000D01*
X21566000Y-49667333D01*
X21599334Y-49534000D01*
X21632667Y-49467333D01*
X21666000Y-49434000D01*
X21732667Y-49400667D01*
X22632667Y-50100667D02*
X22232667Y-50100667D01*
X22432667Y-50100667D02*
X22432667Y-49400667D01*
X22366001Y-49500667D01*
X22299334Y-49567333D01*
X22232667Y-49600667D01*
X23232668Y-49400667D02*
X23099334Y-49400667D01*
X23032668Y-49434000D01*
X22999334Y-49467333D01*
X22932668Y-49567333D01*
X22899334Y-49700667D01*
X22899334Y-49967333D01*
X22932668Y-50034000D01*
X22966001Y-50067333D01*
X23032668Y-50100667D01*
X23166001Y-50100667D01*
X23232668Y-50067333D01*
X23266001Y-50034000D01*
X23299334Y-49967333D01*
X23299334Y-49800667D01*
X23266001Y-49734000D01*
X23232668Y-49700667D01*
X23166001Y-49667333D01*
X23032668Y-49667333D01*
X22966001Y-49700667D01*
X22932668Y-49734000D01*
X22899334Y-49800667D01*
X24132668Y-49734000D02*
X24366001Y-49734000D01*
X24466001Y-50100667D02*
X24132668Y-50100667D01*
X24132668Y-49400667D01*
X24466001Y-49400667D01*
X25066001Y-50100667D02*
X25066001Y-49734000D01*
X25032667Y-49667333D01*
X24966001Y-49634000D01*
X24832667Y-49634000D01*
X24766001Y-49667333D01*
X25066001Y-50067333D02*
X24999334Y-50100667D01*
X24832667Y-50100667D01*
X24766001Y-50067333D01*
X24732667Y-50000667D01*
X24732667Y-49934000D01*
X24766001Y-49867333D01*
X24832667Y-49834000D01*
X24999334Y-49834000D01*
X25066001Y-49800667D01*
X25366000Y-50067333D02*
X25432667Y-50100667D01*
X25566000Y-50100667D01*
X25632667Y-50067333D01*
X25666000Y-50000667D01*
X25666000Y-49967333D01*
X25632667Y-49900667D01*
X25566000Y-49867333D01*
X25466000Y-49867333D01*
X25399334Y-49834000D01*
X25366000Y-49767333D01*
X25366000Y-49734000D01*
X25399334Y-49667333D01*
X25466000Y-49634000D01*
X25566000Y-49634000D01*
X25632667Y-49667333D01*
X25899334Y-49634000D02*
X26066001Y-50100667D01*
X26232667Y-49634000D02*
X26066001Y-50100667D01*
X25999334Y-50267333D01*
X25966001Y-50300667D01*
X25899334Y-50334000D01*
X26832667Y-50100667D02*
X26499334Y-50100667D01*
X26499334Y-49400667D01*
X27366001Y-50100667D02*
X27366001Y-49734000D01*
X27332667Y-49667333D01*
X27266001Y-49634000D01*
X27132667Y-49634000D01*
X27066001Y-49667333D01*
X27366001Y-50067333D02*
X27299334Y-50100667D01*
X27132667Y-50100667D01*
X27066001Y-50067333D01*
X27032667Y-50000667D01*
X27032667Y-49934000D01*
X27066001Y-49867333D01*
X27132667Y-49834000D01*
X27299334Y-49834000D01*
X27366001Y-49800667D01*
X27699334Y-50100667D02*
X27699334Y-49400667D01*
X27699334Y-49667333D02*
X27766000Y-49634000D01*
X27899334Y-49634000D01*
X27966000Y-49667333D01*
X27999334Y-49700667D01*
X28032667Y-49767333D01*
X28032667Y-49967333D01*
X27999334Y-50034000D01*
X27966000Y-50067333D01*
X27899334Y-50100667D01*
X27766000Y-50100667D01*
X27699334Y-50067333D01*
X28632667Y-49634000D02*
X28632667Y-50100667D01*
X28466000Y-49367333D02*
X28299333Y-49867333D01*
X28732667Y-49867333D01*
X28999334Y-50100667D02*
X28999334Y-49400667D01*
X29399334Y-50100667D02*
X29099334Y-49700667D01*
X29399334Y-49400667D02*
X28999334Y-49800667D01*
X29699334Y-50100667D02*
X29699334Y-49634000D01*
X29699334Y-49400667D02*
X29666000Y-49434000D01*
X29699334Y-49467333D01*
X29732667Y-49434000D01*
X29699334Y-49400667D01*
X29699334Y-49467333D01*
X30332667Y-50100667D02*
X30332667Y-49400667D01*
X30332667Y-50067333D02*
X30266000Y-50100667D01*
X30132667Y-50100667D01*
X30066000Y-50067333D01*
X30032667Y-50034000D01*
X29999333Y-49967333D01*
X29999333Y-49767333D01*
X30032667Y-49700667D01*
X30066000Y-49667333D01*
X30132667Y-49634000D01*
X30266000Y-49634000D01*
X30332667Y-49667333D01*
X30632666Y-50067333D02*
X30699333Y-50100667D01*
X30832666Y-50100667D01*
X30899333Y-50067333D01*
X30932666Y-50000667D01*
X30932666Y-49967333D01*
X30899333Y-49900667D01*
X30832666Y-49867333D01*
X30732666Y-49867333D01*
X30666000Y-49834000D01*
X30632666Y-49767333D01*
X30632666Y-49734000D01*
X30666000Y-49667333D01*
X30732666Y-49634000D01*
X30832666Y-49634000D01*
X30899333Y-49667333D01*
X31899333Y-49400667D02*
X31966000Y-49400667D01*
X32032666Y-49434000D01*
X32066000Y-49467333D01*
X32099333Y-49534000D01*
X32132666Y-49667333D01*
X32132666Y-49834000D01*
X32099333Y-49967333D01*
X32066000Y-50034000D01*
X32032666Y-50067333D01*
X31966000Y-50100667D01*
X31899333Y-50100667D01*
X31832666Y-50067333D01*
X31799333Y-50034000D01*
X31766000Y-49967333D01*
X31732666Y-49834000D01*
X31732666Y-49667333D01*
X31766000Y-49534000D01*
X31799333Y-49467333D01*
X31832666Y-49434000D01*
X31899333Y-49400667D01*
X32432667Y-50034000D02*
X32466000Y-50067333D01*
X32432667Y-50100667D01*
X32399333Y-50067333D01*
X32432667Y-50034000D01*
X32432667Y-50100667D01*
X33099333Y-49400667D02*
X32766000Y-49400667D01*
X32732666Y-49734000D01*
X32766000Y-49700667D01*
X32832666Y-49667333D01*
X32999333Y-49667333D01*
X33066000Y-49700667D01*
X33099333Y-49734000D01*
X33132666Y-49800667D01*
X33132666Y-49967333D01*
X33099333Y-50034000D01*
X33066000Y-50067333D01*
X32999333Y-50100667D01*
X32832666Y-50100667D01*
X32766000Y-50067333D01*
X32732666Y-50034000D01*
X80039333Y-36918000D02*
X80072667Y-36818000D01*
X80072667Y-36651333D01*
X80039333Y-36584666D01*
X80006000Y-36551333D01*
X79939333Y-36518000D01*
X79872667Y-36518000D01*
X79806000Y-36551333D01*
X79772667Y-36584666D01*
X79739333Y-36651333D01*
X79706000Y-36784666D01*
X79672667Y-36851333D01*
X79639333Y-36884666D01*
X79572667Y-36918000D01*
X79506000Y-36918000D01*
X79439333Y-36884666D01*
X79406000Y-36851333D01*
X79372667Y-36784666D01*
X79372667Y-36618000D01*
X79406000Y-36518000D01*
X80072667Y-36217999D02*
X79372667Y-36217999D01*
X79372667Y-36051333D01*
X79406000Y-35951333D01*
X79472667Y-35884666D01*
X79539333Y-35851333D01*
X79672667Y-35817999D01*
X79772667Y-35817999D01*
X79906000Y-35851333D01*
X79972667Y-35884666D01*
X80039333Y-35951333D01*
X80072667Y-36051333D01*
X80072667Y-36217999D01*
X79872667Y-35551333D02*
X79872667Y-35217999D01*
X80072667Y-35617999D02*
X79372667Y-35384666D01*
X80072667Y-35151333D01*
X97152667Y-36834666D02*
X97852667Y-36601333D01*
X97152667Y-36368000D01*
X97852667Y-36134666D02*
X97152667Y-36134666D01*
X97852667Y-35801333D02*
X97152667Y-35801333D01*
X97852667Y-35401333D01*
X97152667Y-35401333D01*
X89532667Y-26808000D02*
X90232667Y-26574667D01*
X89532667Y-26341334D01*
X90199333Y-26141334D02*
X90232667Y-26041334D01*
X90232667Y-25874667D01*
X90199333Y-25808000D01*
X90166000Y-25774667D01*
X90099333Y-25741334D01*
X90032667Y-25741334D01*
X89966000Y-25774667D01*
X89932667Y-25808000D01*
X89899333Y-25874667D01*
X89866000Y-26008000D01*
X89832667Y-26074667D01*
X89799333Y-26108000D01*
X89732667Y-26141334D01*
X89666000Y-26141334D01*
X89599333Y-26108000D01*
X89566000Y-26074667D01*
X89532667Y-26008000D01*
X89532667Y-25841334D01*
X89566000Y-25741334D01*
X90199333Y-25474667D02*
X90232667Y-25374667D01*
X90232667Y-25208000D01*
X90199333Y-25141333D01*
X90166000Y-25108000D01*
X90099333Y-25074667D01*
X90032667Y-25074667D01*
X89966000Y-25108000D01*
X89932667Y-25141333D01*
X89899333Y-25208000D01*
X89866000Y-25341333D01*
X89832667Y-25408000D01*
X89799333Y-25441333D01*
X89732667Y-25474667D01*
X89666000Y-25474667D01*
X89599333Y-25441333D01*
X89566000Y-25408000D01*
X89532667Y-25341333D01*
X89532667Y-25174667D01*
X89566000Y-25074667D01*
X97852667Y-26024666D02*
X97519333Y-26258000D01*
X97852667Y-26424666D02*
X97152667Y-26424666D01*
X97152667Y-26158000D01*
X97186000Y-26091333D01*
X97219333Y-26058000D01*
X97286000Y-26024666D01*
X97386000Y-26024666D01*
X97452667Y-26058000D01*
X97486000Y-26091333D01*
X97519333Y-26158000D01*
X97519333Y-26424666D01*
X97152667Y-25791333D02*
X97852667Y-25324666D01*
X97152667Y-25324666D02*
X97852667Y-25791333D01*
X94612667Y-26441333D02*
X94612667Y-26041333D01*
X95312667Y-26241333D02*
X94612667Y-26241333D01*
X94612667Y-25874667D02*
X95312667Y-25408000D01*
X94612667Y-25408000D02*
X95312667Y-25874667D01*
X94612667Y-36968000D02*
X95312667Y-36734667D01*
X94612667Y-36501334D01*
X95279333Y-36301334D02*
X95312667Y-36201334D01*
X95312667Y-36034667D01*
X95279333Y-35968000D01*
X95246000Y-35934667D01*
X95179333Y-35901334D01*
X95112667Y-35901334D01*
X95046000Y-35934667D01*
X95012667Y-35968000D01*
X94979333Y-36034667D01*
X94946000Y-36168000D01*
X94912667Y-36234667D01*
X94879333Y-36268000D01*
X94812667Y-36301334D01*
X94746000Y-36301334D01*
X94679333Y-36268000D01*
X94646000Y-36234667D01*
X94612667Y-36168000D01*
X94612667Y-36001334D01*
X94646000Y-35901334D01*
X95279333Y-35634667D02*
X95312667Y-35534667D01*
X95312667Y-35368000D01*
X95279333Y-35301333D01*
X95246000Y-35268000D01*
X95179333Y-35234667D01*
X95112667Y-35234667D01*
X95046000Y-35268000D01*
X95012667Y-35301333D01*
X94979333Y-35368000D01*
X94946000Y-35501333D01*
X94912667Y-35568000D01*
X94879333Y-35601333D01*
X94812667Y-35634667D01*
X94746000Y-35634667D01*
X94679333Y-35601333D01*
X94646000Y-35568000D01*
X94612667Y-35501333D01*
X94612667Y-35334667D01*
X94646000Y-35234667D01*
X89532667Y-37001333D02*
X90232667Y-36768000D01*
X89532667Y-36534667D01*
X90166000Y-35901333D02*
X90199333Y-35934667D01*
X90232667Y-36034667D01*
X90232667Y-36101333D01*
X90199333Y-36201333D01*
X90132667Y-36268000D01*
X90066000Y-36301333D01*
X89932667Y-36334667D01*
X89832667Y-36334667D01*
X89699333Y-36301333D01*
X89632667Y-36268000D01*
X89566000Y-36201333D01*
X89532667Y-36101333D01*
X89532667Y-36034667D01*
X89566000Y-35934667D01*
X89599333Y-35901333D01*
X90166000Y-35201333D02*
X90199333Y-35234667D01*
X90232667Y-35334667D01*
X90232667Y-35401333D01*
X90199333Y-35501333D01*
X90132667Y-35568000D01*
X90066000Y-35601333D01*
X89932667Y-35634667D01*
X89832667Y-35634667D01*
X89699333Y-35601333D01*
X89632667Y-35568000D01*
X89566000Y-35501333D01*
X89532667Y-35401333D01*
X89532667Y-35334667D01*
X89566000Y-35234667D01*
X89599333Y-35201333D01*
X77332667Y-36568000D02*
X77332667Y-36234666D01*
X77532667Y-36634666D02*
X76832667Y-36401333D01*
X77532667Y-36168000D01*
X76832667Y-36001333D02*
X76832667Y-35568000D01*
X77099333Y-35801333D01*
X77099333Y-35701333D01*
X77132667Y-35634666D01*
X77166000Y-35601333D01*
X77232667Y-35568000D01*
X77399333Y-35568000D01*
X77466000Y-35601333D01*
X77499333Y-35634666D01*
X77532667Y-35701333D01*
X77532667Y-35901333D01*
X77499333Y-35968000D01*
X77466000Y-36001333D01*
X74792667Y-36568000D02*
X74792667Y-36234666D01*
X74992667Y-36634666D02*
X74292667Y-36401333D01*
X74992667Y-36168000D01*
X74359333Y-35968000D02*
X74326000Y-35934666D01*
X74292667Y-35868000D01*
X74292667Y-35701333D01*
X74326000Y-35634666D01*
X74359333Y-35601333D01*
X74426000Y-35568000D01*
X74492667Y-35568000D01*
X74592667Y-35601333D01*
X74992667Y-36001333D01*
X74992667Y-35568000D01*
X72252667Y-36568000D02*
X72252667Y-36234666D01*
X72452667Y-36634666D02*
X71752667Y-36401333D01*
X72452667Y-36168000D01*
X72452667Y-35568000D02*
X72452667Y-35968000D01*
X72452667Y-35768000D02*
X71752667Y-35768000D01*
X71852667Y-35834666D01*
X71919333Y-35901333D01*
X71952667Y-35968000D01*
X69712667Y-36568000D02*
X69712667Y-36234666D01*
X69912667Y-36634666D02*
X69212667Y-36401333D01*
X69912667Y-36168000D01*
X69212667Y-35801333D02*
X69212667Y-35734666D01*
X69246000Y-35668000D01*
X69279333Y-35634666D01*
X69346000Y-35601333D01*
X69479333Y-35568000D01*
X69646000Y-35568000D01*
X69779333Y-35601333D01*
X69846000Y-35634666D01*
X69879333Y-35668000D01*
X69912667Y-35734666D01*
X69912667Y-35801333D01*
X69879333Y-35868000D01*
X69846000Y-35901333D01*
X69779333Y-35934666D01*
X69646000Y-35968000D01*
X69479333Y-35968000D01*
X69346000Y-35934666D01*
X69279333Y-35901333D01*
X69246000Y-35868000D01*
X69212667Y-35801333D01*
X62292667Y-36918000D02*
X61592667Y-36918000D01*
X61592667Y-36751334D01*
X61626000Y-36651334D01*
X61692667Y-36584667D01*
X61759333Y-36551334D01*
X61892667Y-36518000D01*
X61992667Y-36518000D01*
X62126000Y-36551334D01*
X62192667Y-36584667D01*
X62259333Y-36651334D01*
X62292667Y-36751334D01*
X62292667Y-36918000D01*
X62292667Y-35851334D02*
X62292667Y-36251334D01*
X62292667Y-36051334D02*
X61592667Y-36051334D01*
X61692667Y-36118000D01*
X61759333Y-36184667D01*
X61792667Y-36251334D01*
X61592667Y-35618000D02*
X61592667Y-35184667D01*
X61859333Y-35418000D01*
X61859333Y-35318000D01*
X61892667Y-35251333D01*
X61926000Y-35218000D01*
X61992667Y-35184667D01*
X62159333Y-35184667D01*
X62226000Y-35218000D01*
X62259333Y-35251333D01*
X62292667Y-35318000D01*
X62292667Y-35518000D01*
X62259333Y-35584667D01*
X62226000Y-35618000D01*
X67372667Y-26758000D02*
X66672667Y-26758000D01*
X66672667Y-26591334D01*
X66706000Y-26491334D01*
X66772667Y-26424667D01*
X66839333Y-26391334D01*
X66972667Y-26358000D01*
X67072667Y-26358000D01*
X67206000Y-26391334D01*
X67272667Y-26424667D01*
X67339333Y-26491334D01*
X67372667Y-26591334D01*
X67372667Y-26758000D01*
X67372667Y-25691334D02*
X67372667Y-26091334D01*
X67372667Y-25891334D02*
X66672667Y-25891334D01*
X66772667Y-25958000D01*
X66839333Y-26024667D01*
X66872667Y-26091334D01*
X66672667Y-25258000D02*
X66672667Y-25191333D01*
X66706000Y-25124667D01*
X66739333Y-25091333D01*
X66806000Y-25058000D01*
X66939333Y-25024667D01*
X67106000Y-25024667D01*
X67239333Y-25058000D01*
X67306000Y-25091333D01*
X67339333Y-25124667D01*
X67372667Y-25191333D01*
X67372667Y-25258000D01*
X67339333Y-25324667D01*
X67306000Y-25358000D01*
X67239333Y-25391333D01*
X67106000Y-25424667D01*
X66939333Y-25424667D01*
X66806000Y-25391333D01*
X66739333Y-25358000D01*
X66706000Y-25324667D01*
X66672667Y-25258000D01*
X64832667Y-26758000D02*
X64132667Y-26758000D01*
X64132667Y-26591334D01*
X64166000Y-26491334D01*
X64232667Y-26424667D01*
X64299333Y-26391334D01*
X64432667Y-26358000D01*
X64532667Y-26358000D01*
X64666000Y-26391334D01*
X64732667Y-26424667D01*
X64799333Y-26491334D01*
X64832667Y-26591334D01*
X64832667Y-26758000D01*
X64832667Y-25691334D02*
X64832667Y-26091334D01*
X64832667Y-25891334D02*
X64132667Y-25891334D01*
X64232667Y-25958000D01*
X64299333Y-26024667D01*
X64332667Y-26091334D01*
X64832667Y-25024667D02*
X64832667Y-25424667D01*
X64832667Y-25224667D02*
X64132667Y-25224667D01*
X64232667Y-25291333D01*
X64299333Y-25358000D01*
X64332667Y-25424667D01*
X62292667Y-21678000D02*
X61592667Y-21678000D01*
X61592667Y-21511334D01*
X61626000Y-21411334D01*
X61692667Y-21344667D01*
X61759333Y-21311334D01*
X61892667Y-21278000D01*
X61992667Y-21278000D01*
X62126000Y-21311334D01*
X62192667Y-21344667D01*
X62259333Y-21411334D01*
X62292667Y-21511334D01*
X62292667Y-21678000D01*
X62292667Y-20611334D02*
X62292667Y-21011334D01*
X62292667Y-20811334D02*
X61592667Y-20811334D01*
X61692667Y-20878000D01*
X61759333Y-20944667D01*
X61792667Y-21011334D01*
X61659333Y-20344667D02*
X61626000Y-20311333D01*
X61592667Y-20244667D01*
X61592667Y-20078000D01*
X61626000Y-20011333D01*
X61659333Y-19978000D01*
X61726000Y-19944667D01*
X61792667Y-19944667D01*
X61892667Y-19978000D01*
X62292667Y-20378000D01*
X62292667Y-19944667D01*
D12*
X26911428Y-17849905D02*
X27178095Y-18649905D01*
X27444762Y-17849905D01*
X27673333Y-18611810D02*
X27787619Y-18649905D01*
X27978095Y-18649905D01*
X28054285Y-18611810D01*
X28092381Y-18573714D01*
X28130476Y-18497524D01*
X28130476Y-18421333D01*
X28092381Y-18345143D01*
X28054285Y-18307048D01*
X27978095Y-18268952D01*
X27825714Y-18230857D01*
X27749523Y-18192762D01*
X27711428Y-18154667D01*
X27673333Y-18078476D01*
X27673333Y-18002286D01*
X27711428Y-17926095D01*
X27749523Y-17888000D01*
X27825714Y-17849905D01*
X28016190Y-17849905D01*
X28130476Y-17888000D01*
X28435238Y-18611810D02*
X28549524Y-18649905D01*
X28740000Y-18649905D01*
X28816190Y-18611810D01*
X28854286Y-18573714D01*
X28892381Y-18497524D01*
X28892381Y-18421333D01*
X28854286Y-18345143D01*
X28816190Y-18307048D01*
X28740000Y-18268952D01*
X28587619Y-18230857D01*
X28511428Y-18192762D01*
X28473333Y-18154667D01*
X28435238Y-18078476D01*
X28435238Y-18002286D01*
X28473333Y-17926095D01*
X28511428Y-17888000D01*
X28587619Y-17849905D01*
X28778095Y-17849905D01*
X28892381Y-17888000D01*
X30429333Y-22421905D02*
X30696000Y-23221905D01*
X30962667Y-22421905D01*
X31686476Y-23145714D02*
X31648381Y-23183810D01*
X31534095Y-23221905D01*
X31457905Y-23221905D01*
X31343619Y-23183810D01*
X31267428Y-23107619D01*
X31229333Y-23031429D01*
X31191238Y-22879048D01*
X31191238Y-22764762D01*
X31229333Y-22612381D01*
X31267428Y-22536190D01*
X31343619Y-22460000D01*
X31457905Y-22421905D01*
X31534095Y-22421905D01*
X31648381Y-22460000D01*
X31686476Y-22498095D01*
X32486476Y-23145714D02*
X32448381Y-23183810D01*
X32334095Y-23221905D01*
X32257905Y-23221905D01*
X32143619Y-23183810D01*
X32067428Y-23107619D01*
X32029333Y-23031429D01*
X31991238Y-22879048D01*
X31991238Y-22764762D01*
X32029333Y-22612381D01*
X32067428Y-22536190D01*
X32143619Y-22460000D01*
X32257905Y-22421905D01*
X32334095Y-22421905D01*
X32448381Y-22460000D01*
X32486476Y-22498095D01*
X30467428Y-33089905D02*
X30734095Y-33889905D01*
X31000762Y-33089905D01*
X31229333Y-33851810D02*
X31343619Y-33889905D01*
X31534095Y-33889905D01*
X31610285Y-33851810D01*
X31648381Y-33813714D01*
X31686476Y-33737524D01*
X31686476Y-33661333D01*
X31648381Y-33585143D01*
X31610285Y-33547048D01*
X31534095Y-33508952D01*
X31381714Y-33470857D01*
X31305523Y-33432762D01*
X31267428Y-33394667D01*
X31229333Y-33318476D01*
X31229333Y-33242286D01*
X31267428Y-33166095D01*
X31305523Y-33128000D01*
X31381714Y-33089905D01*
X31572190Y-33089905D01*
X31686476Y-33128000D01*
X31991238Y-33851810D02*
X32105524Y-33889905D01*
X32296000Y-33889905D01*
X32372190Y-33851810D01*
X32410286Y-33813714D01*
X32448381Y-33737524D01*
X32448381Y-33661333D01*
X32410286Y-33585143D01*
X32372190Y-33547048D01*
X32296000Y-33508952D01*
X32143619Y-33470857D01*
X32067428Y-33432762D01*
X32029333Y-33394667D01*
X31991238Y-33318476D01*
X31991238Y-33242286D01*
X32029333Y-33166095D01*
X32067428Y-33128000D01*
X32143619Y-33089905D01*
X32334095Y-33089905D01*
X32448381Y-33128000D01*
X31204000Y-38969905D02*
X30823047Y-38969905D01*
X30823047Y-38169905D01*
X31394476Y-38436571D02*
X31584952Y-38969905D01*
X31775428Y-38436571D02*
X31584952Y-38969905D01*
X31508761Y-39160381D01*
X31470666Y-39198476D01*
X31394476Y-39236571D01*
X32080190Y-38436571D02*
X32080190Y-38969905D01*
X32080190Y-38512762D02*
X32118285Y-38474667D01*
X32194476Y-38436571D01*
X32308762Y-38436571D01*
X32384952Y-38474667D01*
X32423047Y-38550857D01*
X32423047Y-38969905D01*
X32765905Y-38246095D02*
X32804000Y-38208000D01*
X32880191Y-38169905D01*
X33070667Y-38169905D01*
X33146857Y-38208000D01*
X33184953Y-38246095D01*
X33223048Y-38322286D01*
X33223048Y-38398476D01*
X33184953Y-38512762D01*
X32727810Y-38969905D01*
X33223048Y-38969905D01*
X30696000Y-25761905D02*
X30315047Y-25761905D01*
X30315047Y-24961905D01*
X30886476Y-25228571D02*
X31076952Y-25761905D01*
X31267428Y-25228571D02*
X31076952Y-25761905D01*
X31000761Y-25952381D01*
X30962666Y-25990476D01*
X30886476Y-26028571D01*
X31572190Y-25228571D02*
X31572190Y-25761905D01*
X31572190Y-25304762D02*
X31610285Y-25266667D01*
X31686476Y-25228571D01*
X31800762Y-25228571D01*
X31876952Y-25266667D01*
X31915047Y-25342857D01*
X31915047Y-25761905D01*
X32715048Y-25761905D02*
X32257905Y-25761905D01*
X32486476Y-25761905D02*
X32486476Y-24961905D01*
X32410286Y-25076190D01*
X32334095Y-25152381D01*
X32257905Y-25190476D01*
M02*
