G04 #@! TF.FileFunction,Soldermask,Top*
%FSLAX46Y46*%
G04 Gerber Fmt 4.6, Leading zero omitted, Abs format (unit mm)*
G04 Created by KiCad (PCBNEW 4.0.3-stable) date 01/13/18 15:16:55*
%MOMM*%
%LPD*%
G01*
G04 APERTURE LIST*
%ADD10C,0.100000*%
%ADD11O,1.924000X2.599640*%
%ADD12O,1.924000X2.597100*%
%ADD13R,1.650000X1.900000*%
%ADD14R,2.300000X2.400000*%
%ADD15C,2.300000*%
%ADD16C,2.900000*%
%ADD17R,2.432000X2.127200*%
%ADD18O,2.432000X2.127200*%
%ADD19R,0.900000X1.300000*%
%ADD20C,5.400000*%
%ADD21R,5.400000X4.400000*%
%ADD22C,1.924000*%
%ADD23C,2.400000*%
%ADD24C,2.398980*%
%ADD25R,2.350000X1.000000*%
%ADD26R,2.127200X2.127200*%
%ADD27O,2.127200X2.127200*%
%ADD28R,2.400000X2.100000*%
%ADD29R,2.100000X2.400000*%
%ADD30R,2.100000X2.100000*%
%ADD31O,2.100000X2.100000*%
%ADD32R,4.200000X2.400000*%
%ADD33R,1.900000X2.400000*%
%ADD34C,4.900000*%
G04 APERTURE END LIST*
D10*
D11*
X118780000Y-103380000D03*
X116240000Y-103380000D03*
X113700000Y-103380000D03*
X111160000Y-103380000D03*
X108620000Y-103380000D03*
X106080000Y-103380000D03*
X103540000Y-103380000D03*
X101000000Y-103380000D03*
X98460000Y-103380000D03*
X95920000Y-103380000D03*
X93380000Y-103380000D03*
X90840000Y-103380000D03*
X88300000Y-103380000D03*
X85760000Y-103380000D03*
X83220000Y-103380000D03*
X83220000Y-118620000D03*
X85760000Y-118620000D03*
X88300000Y-118620000D03*
X90840000Y-118620000D03*
D12*
X93380000Y-118620000D03*
X95920000Y-118620000D03*
X98460000Y-118620000D03*
X101000000Y-118620000D03*
X103540000Y-118620000D03*
X106080000Y-118620000D03*
X108620000Y-118620000D03*
X111160000Y-118620000D03*
X113700000Y-118620000D03*
X116240000Y-118620000D03*
X118780000Y-118620000D03*
D13*
X121000000Y-89750000D03*
X121000000Y-92250000D03*
X89000000Y-94250000D03*
X89000000Y-91750000D03*
X91000000Y-94250000D03*
X91000000Y-91750000D03*
D14*
X118700000Y-97100000D03*
D15*
X116160000Y-97100000D03*
D16*
X155000000Y-112500000D03*
X155000000Y-107500000D03*
D17*
X84000000Y-92000000D03*
D18*
X84000000Y-94540000D03*
X84000000Y-97080000D03*
D17*
X84000000Y-125000000D03*
D18*
X84000000Y-127540000D03*
X84000000Y-130080000D03*
D16*
X155000000Y-122500000D03*
X155000000Y-117500000D03*
X155000000Y-102500000D03*
X155000000Y-97500000D03*
D19*
X113000000Y-92300000D03*
X113600000Y-92300000D03*
X113000000Y-94300000D03*
X113600000Y-94300000D03*
D20*
X104000000Y-139000000D03*
D21*
X104000000Y-141000000D03*
X104000000Y-141000000D03*
D20*
X116000000Y-139000000D03*
D21*
X116000000Y-141000000D03*
X116000000Y-141000000D03*
D20*
X92000000Y-139000000D03*
D21*
X92000000Y-141000000D03*
X92000000Y-141000000D03*
D22*
X137100000Y-84500000D03*
X137100000Y-86500000D03*
X137100000Y-88500000D03*
X137100000Y-90500000D03*
D17*
X128000000Y-84000000D03*
D18*
X128000000Y-86540000D03*
X128000000Y-89080000D03*
X128000000Y-91620000D03*
D17*
X128000000Y-116000000D03*
D18*
X128000000Y-118540000D03*
X128000000Y-121080000D03*
D23*
X108000160Y-127400000D03*
X115599840Y-127400000D03*
D24*
X145749560Y-82748800D03*
X150250440Y-89251200D03*
X150250440Y-82748800D03*
X145749560Y-89251200D03*
D25*
X135300000Y-104285000D03*
X135300000Y-105555000D03*
X135300000Y-106825000D03*
X135300000Y-108095000D03*
X135300000Y-109365000D03*
X135300000Y-110635000D03*
X135300000Y-111905000D03*
X135300000Y-113175000D03*
X135300000Y-114445000D03*
X135300000Y-115715000D03*
X144700000Y-115715000D03*
X144700000Y-114445000D03*
X144700000Y-113175000D03*
X144700000Y-111905000D03*
X144700000Y-110635000D03*
X144700000Y-109365000D03*
X144700000Y-108095000D03*
X144700000Y-106825000D03*
X144700000Y-105555000D03*
X144700000Y-104285000D03*
D17*
X128000000Y-106000000D03*
D18*
X128000000Y-103460000D03*
X128000000Y-100920000D03*
X128000000Y-98380000D03*
D26*
X94000000Y-86000000D03*
D27*
X96540000Y-86000000D03*
X94000000Y-88540000D03*
X96540000Y-88540000D03*
X94000000Y-91080000D03*
X96540000Y-91080000D03*
X94000000Y-93620000D03*
X96540000Y-93620000D03*
D28*
X111500000Y-98500000D03*
X107500000Y-98500000D03*
X150000000Y-92000000D03*
X146000000Y-92000000D03*
D29*
X99800000Y-94100000D03*
X99800000Y-90100000D03*
X90400000Y-88800000D03*
X90400000Y-84800000D03*
D30*
X146000000Y-127000000D03*
D31*
X143460000Y-127000000D03*
X140920000Y-127000000D03*
X138380000Y-127000000D03*
X135840000Y-127000000D03*
X133300000Y-127000000D03*
X130760000Y-127000000D03*
X128220000Y-127000000D03*
D32*
X115300000Y-83450000D03*
D33*
X115300000Y-89750000D03*
X117600000Y-89750000D03*
X113000000Y-89750000D03*
D34*
X93800000Y-128100000D03*
X98800000Y-128100000D03*
M02*
