M48
;DRILL file {KiCad 4.0.3-stable} date 01/13/18 15:16:56
;FORMAT={-:-/ absolute / inch / decimal}
FMAT,2
INCH,TZ
T1C0.016
T2C0.030
T3C0.039
T4C0.039
T5C0.039
T6C0.040
T7C0.051
T8C0.126
T9C0.157
%
G90
G05
M72
T1
X3.4528Y-3.8228
X3.5Y-3.5591
X3.5787Y-4.5089
X4.248Y-3.9921
X4.2607Y-5.1603
X4.3898Y-3.6102
X5.0472Y-4.4488
X5.0984Y-4.4488
X5.1457Y-4.4488
X5.2598Y-4.5079
X5.3268Y-4.6378
X5.3976Y-4.2559
X5.3976Y-4.3071
X5.3976Y-4.3543
X5.3976Y-4.4055
X5.4577Y-4.5207
X5.4754Y-4.4725
X5.622Y-4.2559
X5.626Y-4.3071
X5.626Y-4.3543
X5.626Y-4.4055
T2
X5.3976Y-3.3268
X5.3976Y-3.4055
X5.3976Y-3.4843
X5.3976Y-3.563
T3
X4.0764Y-4.6701
X4.1764Y-4.6701
X4.2764Y-4.6701
X4.3764Y-4.6701
X4.4764Y-4.6701
X4.5764Y-4.6701
X4.6764Y-4.6701
T4
X5.048Y-5.
X5.148Y-5.
X5.248Y-5.
X5.348Y-5.
X5.448Y-5.
X5.548Y-5.
X5.648Y-5.
X5.748Y-5.
T5
X3.2764Y-4.0701
X3.2764Y-4.6701
X3.3764Y-4.0701
X3.3764Y-4.6701
X3.4764Y-4.0701
X3.4764Y-4.6701
X3.5764Y-4.0701
X3.5764Y-4.6701
X3.6764Y-4.0701
X3.6764Y-4.6701
X3.7764Y-4.0701
X3.7764Y-4.6701
X3.8764Y-4.0701
X3.8764Y-4.6701
X3.9764Y-4.0701
X3.9764Y-4.6701
X4.0764Y-4.0701
X4.1764Y-4.0701
X4.252Y-5.0157
X4.2764Y-4.0701
X4.3764Y-4.0701
X4.4764Y-4.0701
X4.5512Y-5.0157
X4.5732Y-3.8228
X4.5764Y-4.0701
X4.6732Y-3.8228
X4.6764Y-4.0701
X5.7382Y-3.2578
X5.7382Y-3.5138
X5.9154Y-3.2578
X5.9154Y-3.5138
T6
X3.3071Y-3.622
X3.3071Y-3.722
X3.3071Y-3.822
X3.3071Y-4.9213
X3.3071Y-5.0213
X3.3071Y-5.1213
X3.7008Y-3.3858
X3.7008Y-3.4858
X3.7008Y-3.5858
X3.7008Y-3.6858
X3.8008Y-3.3858
X3.8008Y-3.4858
X3.8008Y-3.5858
X3.8008Y-3.6858
X5.0394Y-3.3071
X5.0394Y-3.4071
X5.0394Y-3.5071
X5.0394Y-3.6071
X5.0394Y-3.8732
X5.0394Y-3.9732
X5.0394Y-4.0732
X5.0394Y-4.1732
X5.0394Y-4.5669
X5.0394Y-4.6669
X5.0394Y-4.7669
T7
X6.1024Y-3.8386
X6.1024Y-4.0354
X6.1024Y-4.2323
X6.1024Y-4.4291
X6.1024Y-4.626
X6.1024Y-4.8228
T8
X3.6929Y-5.0433
X3.8898Y-5.0433
T9
X3.622Y-5.4724
X4.0945Y-5.4724
X4.5669Y-5.4724
T0
M30
