M48
;DRILL file {KiCad 4.0.3-stable} date 03/15/17 04:31:06
;FORMAT={-:-/ absolute / inch / decimal}
FMAT,2
INCH,TZ
T1C0.030
T2C0.040
T3C0.157
%
G90
G05
M72
T1
X4.0039Y-2.248
X4.0039Y-2.3268
X4.0039Y-2.4055
X4.0039Y-2.4843
X4.6201Y-2.2776
X4.6201Y-2.3563
X4.6201Y-2.435
X4.6201Y-2.5138
T2
X4.2126Y-2.2126
X4.2126Y-2.3126
X4.2126Y-2.4126
X4.2126Y-2.5126
X4.4114Y-2.2492
X4.4114Y-2.3492
X4.4114Y-2.4492
X4.4114Y-2.5492
T3
X3.4252Y-2.2047
X3.4252Y-2.5591
X3.7283Y-2.2047
X3.7283Y-2.563
X4.8957Y-2.1988
X4.8957Y-2.5571
X5.1988Y-2.2028
X5.1988Y-2.5571
T0
M30
