G04 #@! TF.FileFunction,Profile,NP*
%FSLAX46Y46*%
G04 Gerber Fmt 4.6, Leading zero omitted, Abs format (unit mm)*
G04 Created by KiCad (PCBNEW 4.0.3-stable) date 03/15/17 04:31:11*
%MOMM*%
%LPD*%
G01*
G04 APERTURE LIST*
%ADD10C,0.100000*%
%ADD11C,0.150000*%
G04 APERTURE END LIST*
D10*
D11*
X110100000Y-60000000D02*
G75*
G03X110100000Y-60000000I-500000J0D01*
G01*
X109000000Y-60750000D02*
X110250000Y-60750000D01*
X109000000Y-59250000D02*
X110250000Y-59250000D01*
X110250000Y-60750000D02*
X110250000Y-67750000D01*
X109000000Y-67750000D02*
X109000000Y-60750000D01*
X110250000Y-53250000D02*
X110250000Y-59250000D01*
X109000000Y-53250000D02*
X109000000Y-59250000D01*
X110250000Y-53250000D02*
X110250000Y-53000000D01*
X109000000Y-53000000D02*
X109000000Y-53250000D01*
X110250000Y-67750000D02*
X110250000Y-68000000D01*
X109000000Y-68000000D02*
X109000000Y-67750000D01*
X110250000Y-52000000D02*
X110250000Y-53000000D01*
X109000000Y-52000000D02*
X109000000Y-53000000D01*
X110250000Y-68000000D02*
X110250000Y-69000000D01*
X109000000Y-68000000D02*
X109000000Y-69000000D01*
X110250000Y-69000000D02*
G75*
G03X114250000Y-73000000I4000000J0D01*
G01*
X114250000Y-48000000D02*
G75*
G03X110250000Y-52000000I0J-4000000D01*
G01*
X140250000Y-56000000D02*
G75*
G03X132250000Y-48000000I-8000000J0D01*
G01*
X132250000Y-73000000D02*
G75*
G03X140250000Y-65000000I0J8000000D01*
G01*
X132250000Y-48000000D02*
X114250000Y-48000000D01*
X114250000Y-73000000D02*
X132250000Y-73000000D01*
X140250000Y-65000000D02*
X140250000Y-56000000D01*
X79000000Y-56000000D02*
X79000000Y-65000000D01*
X105000000Y-48000000D02*
X87000000Y-48000000D01*
X87000000Y-73000000D02*
X105000000Y-73000000D01*
X87000000Y-48000000D02*
G75*
G03X79000000Y-56000000I0J-8000000D01*
G01*
X79000000Y-65000000D02*
G75*
G03X87000000Y-73000000I8000000J0D01*
G01*
X105000000Y-73000000D02*
G75*
G03X109000000Y-69000000I0J4000000D01*
G01*
X109000000Y-52000000D02*
G75*
G03X105000000Y-48000000I-4000000J0D01*
G01*
M02*
